<svg width="54" height="56" viewBox="0 0 54 56" fill="none" xmlns="http://www.w3.org/2000/svg">
<path d="M29.3228 29.4854H0.726452V13.4596C0.726452 6.51707 6.35448 0.88905 13.297 0.88905H29.3228V29.4854Z" fill="#22DDB1"/>
<path d="M10.123 35.4473L10.1226 24.9118C10.1225 22.2608 12.2715 20.1116 14.9225 20.1116L43.7229 20.1114C46.3739 20.1114 48.523 22.2604 48.523 24.9114V35.4473M10.123 35.4473H48.523M10.123 35.4473L10.1226 46.5112C10.1225 49.1622 12.2715 51.3114 14.9226 51.3114H43.723C46.3739 51.3114 48.523 49.1623 48.523 46.5114V35.4473M29.672 51.3114V20.1113M27.2514 19.101C27.6108 19.0862 27.9431 18.8972 28.1217 18.5877C28.3004 18.2783 28.2978 17.8959 28.131 17.5774C27.4937 16.416 25.2576 12.5542 23.7983 11.7117C21.9801 10.662 19.6447 11.2813 18.6002 13.0905C17.5558 14.8995 18.1869 17.2317 20.0051 18.2815C21.4884 19.1379 25.9269 19.1298 27.2514 19.101ZM30.5921 17.577C30.4252 17.8957 30.4227 18.2779 30.6014 18.5874C30.7801 18.8969 31.1125 19.0858 31.4718 19.1006C32.7963 19.1294 37.2587 19.1238 38.718 18.2812C40.5362 17.2315 41.1675 14.8993 40.123 13.0902C39.0785 11.2811 36.7432 10.6616 34.9249 11.7113C33.4417 12.5677 31.2294 16.4157 30.5921 17.577Z" stroke="#242424" stroke-width="2" stroke-linecap="round" stroke-linejoin="round"/>
</svg>
