<svg width="49" height="49" viewBox="0 0 49 49" fill="none" xmlns="http://www.w3.org/2000/svg">
<g id="gift-02">
<path id="Icon" d="M5.45254 28.838L5.45215 18.3025C5.45206 15.6515 7.6011 13.5023 10.2521 13.5023L39.0525 13.5021C41.7035 13.5021 43.8525 15.6511 43.8525 18.3021V28.838M5.45254 28.838H43.8525M5.45254 28.838L5.45215 39.9019C5.45205 42.5529 7.60112 44.7021 10.2521 44.7021H39.0525C41.7035 44.7021 43.8525 42.553 43.8525 39.9021V28.838M25.0016 44.7021V13.5021M22.581 12.4917C22.9404 12.4769 23.2726 12.2879 23.4513 11.9785C23.63 11.669 23.6274 11.2866 23.4606 10.9681C22.8233 9.80667 20.5872 5.94494 19.1278 5.10239C17.3097 4.05268 14.9743 4.67205 13.9298 6.4812C12.8854 8.29022 13.5165 10.6225 15.3347 11.6722C16.818 12.5286 21.2565 12.5205 22.581 12.4917ZM25.9217 10.9678C25.7548 11.2864 25.7523 11.6686 25.931 11.9781C26.1097 12.2876 26.4421 12.4765 26.8014 12.4914C28.1259 12.5201 32.5883 12.5145 34.0476 11.6719C35.8658 10.6222 36.4971 8.29003 35.4525 6.48088C34.4081 4.67185 32.0728 4.05228 30.2545 5.10207C28.7713 5.9584 26.559 9.80637 25.9217 10.9678Z" stroke="white" stroke-width="2" stroke-linecap="round" stroke-linejoin="round"/>
</g>
</svg>
