<svg width="49" height="56" viewBox="0 0 49 56" fill="none" xmlns="http://www.w3.org/2000/svg">
<path d="M30.251 0.888672H1.65467V16.9144C1.65467 23.857 7.2827 29.485 14.2252 29.485H30.251V0.888672Z" fill="#FF4167"/>
<path d="M10.1965 35.2878L25.5857 11.1048C25.8542 10.6828 26.5075 10.8731 26.5075 11.3733V28.7562C26.5075 28.8115 26.5523 28.8562 26.6075 28.8562H37.5472C37.9517 28.8562 38.1888 29.3116 37.9568 29.643L22.6171 51.5568C22.3368 51.9573 21.7075 51.7589 21.7075 51.2701V36.1562C21.7075 36.101 21.6627 36.0562 21.6075 36.0562H10.6184C10.2238 36.0562 9.9847 35.6207 10.1965 35.2878Z" stroke="white" stroke-width="2"/>
</svg>
