<svg width="288" height="293" viewBox="0 0 288 293" fill="none" xmlns="http://www.w3.org/2000/svg">
<g opacity="0.3">
<mask id="mask0_108_443" style="mask-type:alpha" maskUnits="userSpaceOnUse" x="0" y="0" width="288" height="293">
<path d="M287.778 8.77734C287.778 4.35906 284.197 0.777344 279.778 0.777344H8.65231C4.23404 0.777344 0.652313 4.35907 0.652313 8.77734V172.436C0.652313 238.71 54.3781 292.436 120.652 292.436H279.778C284.197 292.436 287.778 288.854 287.778 284.436V8.77734Z" fill="#CCCCCC"/>
</mask>
<g mask="url(#mask0_108_443)">
<line y1="-0.216303" x2="449.74" y2="-0.216303" transform="matrix(1.89958e-08 1 1 -1.00585e-07 287.778 -157.688)" stroke="white" stroke-width="0.432605"/>
<line y1="-0.216303" x2="449.74" y2="-0.216303" transform="matrix(1.89958e-08 1 1 -1.00585e-07 261.388 -157.688)" stroke="white" stroke-width="0.432605"/>
<line y1="-0.216303" x2="449.74" y2="-0.216303" transform="matrix(1.89958e-08 1 1 -1.00585e-07 235 -157.688)" stroke="white" stroke-width="0.432605"/>
<line y1="-0.216303" x2="449.74" y2="-0.216303" transform="matrix(1.89958e-08 1 1 -1.00585e-07 208.612 -157.689)" stroke="white" stroke-width="0.432605"/>
<line y1="-0.216303" x2="449.74" y2="-0.216303" transform="matrix(1.89958e-08 1 1 -1.00585e-07 182.224 -157.689)" stroke="white" stroke-width="0.432605"/>
<line y1="-0.216303" x2="449.74" y2="-0.216303" transform="matrix(1.89958e-08 1 1 -1.00585e-07 155.835 -157.689)" stroke="white" stroke-width="0.432605"/>
<line y1="-0.216303" x2="449.74" y2="-0.216303" transform="matrix(1.89958e-08 1 1 -1.00585e-07 129.446 -157.689)" stroke="white" stroke-width="0.432605"/>
<line y1="-0.216303" x2="449.74" y2="-0.216303" transform="matrix(1.89958e-08 1 1 -1.00585e-07 103.057 -157.689)" stroke="white" stroke-width="0.432605"/>
<line y1="-0.216303" x2="449.74" y2="-0.216303" transform="matrix(1.89958e-08 1 1 -1.00585e-07 76.668 -157.689)" stroke="white" stroke-width="0.432605"/>
<line y1="-0.216303" x2="449.74" y2="-0.216303" transform="matrix(1.89958e-08 1 1 -1.00585e-07 50.2798 -157.689)" stroke="white" stroke-width="0.432605"/>
<line y1="-0.216303" x2="449.74" y2="-0.216303" transform="matrix(1.89958e-08 1 1 -1.00585e-07 23.8916 -157.689)" stroke="white" stroke-width="0.432605"/>
<line y1="-0.216303" x2="448.745" y2="-0.216303" transform="matrix(1 -5.65504e-08 -1.35149e-07 -1 -160.968 0.642578)" stroke="white" stroke-width="0.432605"/>
<line y1="-0.216303" x2="448.745" y2="-0.216303" transform="matrix(1 -5.65504e-08 -1.35149e-07 -1 -160.968 27.0312)" stroke="white" stroke-width="0.432605"/>
<line y1="-0.216303" x2="448.745" y2="-0.216303" transform="matrix(1 -5.65504e-08 -1.35149e-07 -1 -160.968 53.4199)" stroke="white" stroke-width="0.432605"/>
<line y1="-0.216303" x2="448.745" y2="-0.216303" transform="matrix(1 -5.65504e-08 -1.35149e-07 -1 -160.968 79.8086)" stroke="white" stroke-width="0.432605"/>
<line y1="-0.216303" x2="448.745" y2="-0.216303" transform="matrix(1 -5.65504e-08 -1.35149e-07 -1 -160.968 106.196)" stroke="white" stroke-width="0.432605"/>
<line y1="-0.216303" x2="448.745" y2="-0.216303" transform="matrix(1 -5.65504e-08 -1.35149e-07 -1 -160.968 132.586)" stroke="white" stroke-width="0.432605"/>
<line y1="-0.216303" x2="448.745" y2="-0.216303" transform="matrix(1 -5.65504e-08 -1.35149e-07 -1 -160.968 159.164)" stroke="white" stroke-width="0.432605"/>
<line y1="-0.216303" x2="448.745" y2="-0.216303" transform="matrix(1 -5.65504e-08 -1.35149e-07 -1 -160.968 185.741)" stroke="white" stroke-width="0.432605"/>
<line y1="-0.216303" x2="448.745" y2="-0.216303" transform="matrix(1 -5.65504e-08 -1.35149e-07 -1 -160.968 212.319)" stroke="white" stroke-width="0.432605"/>
<line y1="-0.216303" x2="448.745" y2="-0.216303" transform="matrix(1 -5.65504e-08 -1.35149e-07 -1 -160.968 238.896)" stroke="white" stroke-width="0.432605"/>
<line y1="-0.216303" x2="448.745" y2="-0.216303" transform="matrix(1 -5.65504e-08 -1.35149e-07 -1 -160.968 265.475)" stroke="white" stroke-width="0.432605"/>
<line y1="-0.216303" x2="448.745" y2="-0.216303" transform="matrix(1 -5.65504e-08 -1.35149e-07 -1 -160.968 292.052)" stroke="white" stroke-width="0.432605"/>
</g>
</g>
</svg>
