<svg width="288" height="293" viewBox="0 0 288 293" fill="none" xmlns="http://www.w3.org/2000/svg">
<g opacity="0.3">
<mask id="mask0_108_402" style="mask-type:alpha" maskUnits="userSpaceOnUse" x="0" y="0" width="288" height="293">
<path d="M0.544922 284.436C0.544922 288.854 4.12664 292.436 8.54492 292.436H279.671C284.089 292.436 287.671 288.854 287.671 284.436V120.777C287.671 54.5032 233.945 0.777344 167.671 0.777344H8.54492C4.12664 0.777344 0.544922 4.35907 0.544922 8.77734V284.436Z" fill="#CCCCCC"/>
</mask>
<g mask="url(#mask0_108_402)">
<line y1="-0.216303" x2="449.74" y2="-0.216303" transform="matrix(-1.89958e-08 -1 -1 1.00585e-07 0.544922 450.901)" stroke="white" stroke-width="0.432605"/>
<line y1="-0.216303" x2="449.74" y2="-0.216303" transform="matrix(-1.89958e-08 -1 -1 1.00585e-07 26.9355 450.902)" stroke="white" stroke-width="0.432605"/>
<line y1="-0.216303" x2="449.74" y2="-0.216303" transform="matrix(-1.89958e-08 -1 -1 1.00585e-07 53.3237 450.902)" stroke="white" stroke-width="0.432605"/>
<line y1="-0.216303" x2="449.74" y2="-0.216303" transform="matrix(-1.89958e-08 -1 -1 1.00585e-07 79.7109 450.902)" stroke="white" stroke-width="0.432605"/>
<line y1="-0.216303" x2="449.74" y2="-0.216303" transform="matrix(-1.89958e-08 -1 -1 1.00585e-07 106.1 450.902)" stroke="white" stroke-width="0.432605"/>
<line y1="-0.216303" x2="449.74" y2="-0.216303" transform="matrix(-1.89958e-08 -1 -1 1.00585e-07 132.488 450.902)" stroke="white" stroke-width="0.432605"/>
<line y1="-0.216303" x2="449.74" y2="-0.216303" transform="matrix(-1.89958e-08 -1 -1 1.00585e-07 158.877 450.902)" stroke="white" stroke-width="0.432605"/>
<line y1="-0.216303" x2="449.74" y2="-0.216303" transform="matrix(-1.89958e-08 -1 -1 1.00585e-07 185.267 450.902)" stroke="white" stroke-width="0.432605"/>
<line y1="-0.216303" x2="449.74" y2="-0.216303" transform="matrix(-1.89958e-08 -1 -1 1.00585e-07 211.655 450.902)" stroke="white" stroke-width="0.432605"/>
<line y1="-0.216303" x2="449.74" y2="-0.216303" transform="matrix(-1.89958e-08 -1 -1 1.00585e-07 238.043 450.902)" stroke="white" stroke-width="0.432605"/>
<line y1="-0.216303" x2="449.74" y2="-0.216303" transform="matrix(-1.89958e-08 -1 -1 1.00585e-07 264.432 450.902)" stroke="white" stroke-width="0.432605"/>
<line y1="-0.216303" x2="448.745" y2="-0.216303" transform="matrix(-1 5.65504e-08 1.35149e-07 1 449.292 292.57)" stroke="white" stroke-width="0.432605"/>
<line y1="-0.216303" x2="448.745" y2="-0.216303" transform="matrix(-1 5.65504e-08 1.35149e-07 1 449.292 266.182)" stroke="white" stroke-width="0.432605"/>
<line y1="-0.216303" x2="448.745" y2="-0.216303" transform="matrix(-1 5.65504e-08 1.35149e-07 1 449.292 239.793)" stroke="white" stroke-width="0.432605"/>
<line y1="-0.216303" x2="448.745" y2="-0.216303" transform="matrix(-1 5.65504e-08 1.35149e-07 1 449.292 213.404)" stroke="white" stroke-width="0.432605"/>
<line y1="-0.216303" x2="448.745" y2="-0.216303" transform="matrix(-1 5.65504e-08 1.35149e-07 1 449.292 187.017)" stroke="white" stroke-width="0.432605"/>
<line y1="-0.216303" x2="448.745" y2="-0.216303" transform="matrix(-1 5.65504e-08 1.35149e-07 1 449.292 160.627)" stroke="white" stroke-width="0.432605"/>
<line y1="-0.216303" x2="448.745" y2="-0.216303" transform="matrix(-1 5.65504e-08 1.35149e-07 1 449.292 134.049)" stroke="white" stroke-width="0.432605"/>
<line y1="-0.216303" x2="448.745" y2="-0.216303" transform="matrix(-1 5.65504e-08 1.35149e-07 1 449.292 107.472)" stroke="white" stroke-width="0.432605"/>
<line y1="-0.216303" x2="448.745" y2="-0.216303" transform="matrix(-1 5.65504e-08 1.35149e-07 1 449.292 80.8936)" stroke="white" stroke-width="0.432605"/>
<line y1="-0.216303" x2="448.745" y2="-0.216303" transform="matrix(-1 5.65504e-08 1.35149e-07 1 449.292 54.3164)" stroke="white" stroke-width="0.432605"/>
<line y1="-0.216303" x2="448.745" y2="-0.216303" transform="matrix(-1 5.65504e-08 1.35149e-07 1 449.292 27.7383)" stroke="white" stroke-width="0.432605"/>
<line y1="-0.216303" x2="448.745" y2="-0.216303" transform="matrix(-1 5.65504e-08 1.35149e-07 1 449.292 1.16113)" stroke="white" stroke-width="0.432605"/>
</g>
</g>
</svg>
