<svg width="288" height="293" viewBox="0 0 288 293" fill="none" xmlns="http://www.w3.org/2000/svg">
<g opacity="0.3">
<mask id="mask0_108_484" style="mask-type:alpha" maskUnits="userSpaceOnUse" x="0" y="0" width="288" height="293">
<path d="M0.759766 284.436C0.759766 288.854 4.34149 292.436 8.75977 292.436H279.886C284.304 292.436 287.886 288.854 287.886 284.436V120.777C287.886 54.5032 234.16 0.777344 167.886 0.777344H8.75976C4.34148 0.777344 0.759766 4.35907 0.759766 8.77734V284.436Z" fill="#CCCCCC"/>
</mask>
<g mask="url(#mask0_108_484)">
<line y1="-0.216303" x2="449.74" y2="-0.216303" transform="matrix(-1.89958e-08 -1 -1 1.00585e-07 0.759766 450.901)" stroke="white" stroke-width="0.432605"/>
<line y1="-0.216303" x2="449.74" y2="-0.216303" transform="matrix(-1.89958e-08 -1 -1 1.00585e-07 27.1504 450.902)" stroke="white" stroke-width="0.432605"/>
<line y1="-0.216303" x2="449.74" y2="-0.216303" transform="matrix(-1.89958e-08 -1 -1 1.00585e-07 53.5386 450.902)" stroke="white" stroke-width="0.432605"/>
<line y1="-0.216303" x2="449.74" y2="-0.216303" transform="matrix(-1.89958e-08 -1 -1 1.00585e-07 79.9258 450.902)" stroke="white" stroke-width="0.432605"/>
<line y1="-0.216303" x2="449.74" y2="-0.216303" transform="matrix(-1.89958e-08 -1 -1 1.00585e-07 106.314 450.902)" stroke="white" stroke-width="0.432605"/>
<line y1="-0.216303" x2="449.74" y2="-0.216303" transform="matrix(-1.89958e-08 -1 -1 1.00585e-07 132.703 450.902)" stroke="white" stroke-width="0.432605"/>
<line y1="-0.216303" x2="449.74" y2="-0.216303" transform="matrix(-1.89958e-08 -1 -1 1.00585e-07 159.092 450.902)" stroke="white" stroke-width="0.432605"/>
<line y1="-0.216303" x2="449.74" y2="-0.216303" transform="matrix(-1.89958e-08 -1 -1 1.00585e-07 185.481 450.902)" stroke="white" stroke-width="0.432605"/>
<line y1="-0.216303" x2="449.74" y2="-0.216303" transform="matrix(-1.89958e-08 -1 -1 1.00585e-07 211.87 450.902)" stroke="white" stroke-width="0.432605"/>
<line y1="-0.216303" x2="449.74" y2="-0.216303" transform="matrix(-1.89958e-08 -1 -1 1.00585e-07 238.258 450.902)" stroke="white" stroke-width="0.432605"/>
<line y1="-0.216303" x2="449.74" y2="-0.216303" transform="matrix(-1.89958e-08 -1 -1 1.00585e-07 264.646 450.902)" stroke="white" stroke-width="0.432605"/>
<line y1="-0.216303" x2="448.745" y2="-0.216303" transform="matrix(-1 5.65504e-08 1.35149e-07 1 449.506 292.57)" stroke="white" stroke-width="0.432605"/>
<line y1="-0.216303" x2="448.745" y2="-0.216303" transform="matrix(-1 5.65504e-08 1.35149e-07 1 449.506 266.182)" stroke="white" stroke-width="0.432605"/>
<line y1="-0.216303" x2="448.745" y2="-0.216303" transform="matrix(-1 5.65504e-08 1.35149e-07 1 449.506 239.793)" stroke="white" stroke-width="0.432605"/>
<line y1="-0.216303" x2="448.745" y2="-0.216303" transform="matrix(-1 5.65504e-08 1.35149e-07 1 449.506 213.404)" stroke="white" stroke-width="0.432605"/>
<line y1="-0.216303" x2="448.745" y2="-0.216303" transform="matrix(-1 5.65504e-08 1.35149e-07 1 449.506 187.017)" stroke="white" stroke-width="0.432605"/>
<line y1="-0.216303" x2="448.745" y2="-0.216303" transform="matrix(-1 5.65504e-08 1.35149e-07 1 449.506 160.627)" stroke="white" stroke-width="0.432605"/>
<line y1="-0.216303" x2="448.745" y2="-0.216303" transform="matrix(-1 5.65504e-08 1.35149e-07 1 449.506 134.049)" stroke="white" stroke-width="0.432605"/>
<line y1="-0.216303" x2="448.745" y2="-0.216303" transform="matrix(-1 5.65504e-08 1.35149e-07 1 449.506 107.472)" stroke="white" stroke-width="0.432605"/>
<line y1="-0.216303" x2="448.745" y2="-0.216303" transform="matrix(-1 5.65504e-08 1.35149e-07 1 449.506 80.8936)" stroke="white" stroke-width="0.432605"/>
<line y1="-0.216303" x2="448.745" y2="-0.216303" transform="matrix(-1 5.65504e-08 1.35149e-07 1 449.506 54.3164)" stroke="white" stroke-width="0.432605"/>
<line y1="-0.216303" x2="448.745" y2="-0.216303" transform="matrix(-1 5.65504e-08 1.35149e-07 1 449.506 27.7383)" stroke="white" stroke-width="0.432605"/>
<line y1="-0.216303" x2="448.745" y2="-0.216303" transform="matrix(-1 5.65504e-08 1.35149e-07 1 449.506 1.16113)" stroke="white" stroke-width="0.432605"/>
</g>
</g>
</svg>
