<svg width="288" height="293" viewBox="0 0 288 293" fill="none" xmlns="http://www.w3.org/2000/svg">
<g opacity="0.3">
<mask id="mask0_108_525" style="mask-type:alpha" maskUnits="userSpaceOnUse" x="0" y="0" width="288" height="293">
<path d="M287.993 8.77734C287.993 4.35906 284.411 0.777344 279.993 0.777344H8.86716C4.44888 0.777344 0.867157 4.35907 0.867157 8.77734V172.436C0.867157 238.71 54.593 292.436 120.867 292.436H279.993C284.411 292.436 287.993 288.854 287.993 284.436V8.77734Z" fill="#CCCCCC"/>
</mask>
<g mask="url(#mask0_108_525)">
<line y1="-0.216303" x2="449.74" y2="-0.216303" transform="matrix(1.89958e-08 1 1 -1.00585e-07 287.993 -157.688)" stroke="white" stroke-width="0.432605"/>
<line y1="-0.216303" x2="449.74" y2="-0.216303" transform="matrix(1.89958e-08 1 1 -1.00585e-07 261.603 -157.688)" stroke="white" stroke-width="0.432605"/>
<line y1="-0.216303" x2="449.74" y2="-0.216303" transform="matrix(1.89958e-08 1 1 -1.00585e-07 235.214 -157.688)" stroke="white" stroke-width="0.432605"/>
<line y1="-0.216303" x2="449.74" y2="-0.216303" transform="matrix(1.89958e-08 1 1 -1.00585e-07 208.827 -157.689)" stroke="white" stroke-width="0.432605"/>
<line y1="-0.216303" x2="449.74" y2="-0.216303" transform="matrix(1.89958e-08 1 1 -1.00585e-07 182.438 -157.689)" stroke="white" stroke-width="0.432605"/>
<line y1="-0.216303" x2="449.74" y2="-0.216303" transform="matrix(1.89958e-08 1 1 -1.00585e-07 156.05 -157.689)" stroke="white" stroke-width="0.432605"/>
<line y1="-0.216303" x2="449.74" y2="-0.216303" transform="matrix(1.89958e-08 1 1 -1.00585e-07 129.661 -157.689)" stroke="white" stroke-width="0.432605"/>
<line y1="-0.216303" x2="449.74" y2="-0.216303" transform="matrix(1.89958e-08 1 1 -1.00585e-07 103.271 -157.689)" stroke="white" stroke-width="0.432605"/>
<line y1="-0.216303" x2="449.74" y2="-0.216303" transform="matrix(1.89958e-08 1 1 -1.00585e-07 76.8828 -157.689)" stroke="white" stroke-width="0.432605"/>
<line y1="-0.216303" x2="449.74" y2="-0.216303" transform="matrix(1.89958e-08 1 1 -1.00585e-07 50.4946 -157.689)" stroke="white" stroke-width="0.432605"/>
<line y1="-0.216303" x2="449.74" y2="-0.216303" transform="matrix(1.89958e-08 1 1 -1.00585e-07 24.1064 -157.689)" stroke="white" stroke-width="0.432605"/>
<line y1="-0.216303" x2="448.745" y2="-0.216303" transform="matrix(1 -5.65504e-08 -1.35149e-07 -1 -160.753 0.642578)" stroke="white" stroke-width="0.432605"/>
<line y1="-0.216303" x2="448.745" y2="-0.216303" transform="matrix(1 -5.65504e-08 -1.35149e-07 -1 -160.753 27.0312)" stroke="white" stroke-width="0.432605"/>
<line y1="-0.216303" x2="448.745" y2="-0.216303" transform="matrix(1 -5.65504e-08 -1.35149e-07 -1 -160.753 53.4199)" stroke="white" stroke-width="0.432605"/>
<line y1="-0.216303" x2="448.745" y2="-0.216303" transform="matrix(1 -5.65504e-08 -1.35149e-07 -1 -160.753 79.8086)" stroke="white" stroke-width="0.432605"/>
<line y1="-0.216303" x2="448.745" y2="-0.216303" transform="matrix(1 -5.65504e-08 -1.35149e-07 -1 -160.753 106.196)" stroke="white" stroke-width="0.432605"/>
<line y1="-0.216303" x2="448.745" y2="-0.216303" transform="matrix(1 -5.65504e-08 -1.35149e-07 -1 -160.753 132.586)" stroke="white" stroke-width="0.432605"/>
<line y1="-0.216303" x2="448.745" y2="-0.216303" transform="matrix(1 -5.65504e-08 -1.35149e-07 -1 -160.753 159.164)" stroke="white" stroke-width="0.432605"/>
<line y1="-0.216303" x2="448.745" y2="-0.216303" transform="matrix(1 -5.65504e-08 -1.35149e-07 -1 -160.753 185.741)" stroke="white" stroke-width="0.432605"/>
<line y1="-0.216303" x2="448.745" y2="-0.216303" transform="matrix(1 -5.65504e-08 -1.35149e-07 -1 -160.753 212.319)" stroke="white" stroke-width="0.432605"/>
<line y1="-0.216303" x2="448.745" y2="-0.216303" transform="matrix(1 -5.65504e-08 -1.35149e-07 -1 -160.753 238.896)" stroke="white" stroke-width="0.432605"/>
<line y1="-0.216303" x2="448.745" y2="-0.216303" transform="matrix(1 -5.65504e-08 -1.35149e-07 -1 -160.753 265.475)" stroke="white" stroke-width="0.432605"/>
<line y1="-0.216303" x2="448.745" y2="-0.216303" transform="matrix(1 -5.65504e-08 -1.35149e-07 -1 -160.753 292.052)" stroke="white" stroke-width="0.432605"/>
</g>
</g>
</svg>
