<svg width="51" height="56" viewBox="0 0 51 56" fill="none" xmlns="http://www.w3.org/2000/svg">
<path d="M22.0542 0.888672H50.6505V16.9144C50.6505 23.857 45.0225 29.485 38.08 29.485H22.0542V0.888672Z" fill="#A94CFF"/>
<path d="M37.2788 13.6514L37.2788 15.7811" stroke="#242424" stroke-width="1.42364" stroke-linecap="round"/>
<path d="M37.2788 7.25586L37.2788 9.38555" stroke="#242424" stroke-width="1.42364" stroke-linecap="round"/>
<path d="M34.5288 11.5684H35.6762" stroke="#242424" stroke-width="1.42364" stroke-linecap="round"/>
<path d="M38.7319 11.5684H39.8793" stroke="#242424" stroke-width="1.42364" stroke-linecap="round"/>
<path d="M46.1831 25.5576L46.1831 27.0389" stroke="#242424" stroke-width="1.24406" stroke-linecap="round"/>
<path d="M46.1831 20.3643L46.1831 21.8455" stroke="#242424" stroke-width="1.24406" stroke-linecap="round"/>
<path d="M43.6421 23.5889H44.4401" stroke="#242424" stroke-width="1.24406" stroke-linecap="round"/>
<path d="M47.9272 23.5879H48.7253" stroke="#242424" stroke-width="1.24406" stroke-linecap="round"/>
<path d="M2.65771 19.7607L2.65771 20.9369" stroke="#A94CFF" stroke-width="0.987799" stroke-linecap="round"/>
<path d="M2.65771 15.7812L2.65771 16.9574" stroke="#A94CFF" stroke-width="0.987799" stroke-linecap="round"/>
<path d="M0.724121 18.4316H1.35778" stroke="#A94CFF" stroke-width="0.987799" stroke-linecap="round"/>
<path d="M4.06006 18.4316H4.69372" stroke="#A94CFF" stroke-width="0.987799" stroke-linecap="round"/>
<path d="M12.5835 28.7695V31.7144" stroke="#A94CFF" stroke-width="1.77197" stroke-linecap="round"/>
<path d="M19.062 25.2015C19.6856 24.8435 21.4525 24.1483 23.5312 24.2314C25.6098 24.3146 27.192 24.9128 27.7232 25.2015" stroke="#242424" stroke-width="1.77197" stroke-linecap="round"/>
<path d="M3.80884 29.425V40.4567C3.80884 41.0889 4.32136 41.6014 4.95357 41.6014H7.44469C7.75821 42.3655 8.29728 43.3275 8.96981 44.2993C9.68541 45.3335 10.5859 46.4279 11.5967 47.3573C11.2604 47.9264 10.9718 48.6735 10.9284 49.484C10.8687 50.5984 11.2818 51.7903 12.5322 52.6818C13.7863 53.5759 15.1613 53.4338 16.2168 52.9514C17.0533 52.569 17.7846 51.9352 18.2272 51.2813C20.4879 51.9276 24.7144 52.5722 28.5102 51.3044C28.9133 51.9326 29.5218 52.6116 30.3392 53.0291C31.4366 53.5895 32.7945 53.6156 34.2478 52.6771C35.6146 51.7943 35.9998 50.5368 35.8989 49.3942C35.8273 48.5842 35.5178 47.8413 35.1998 47.2969C36.9039 45.7752 39.4406 42.6475 40.1407 38.9563C41.8811 38.3795 44.8962 36.8822 45.1682 33.1734C45.2406 32.1866 44.1814 31.6907 43.4531 32.1201C42.6124 32.6157 41.6567 33.0617 40.448 33.2075C40.2258 30.5356 39.0461 26.2557 35.6453 22.9549C33.309 20.6874 30.7758 19.1241 27.8664 18.3736C25.0025 17.6349 21.8398 17.7007 18.2336 18.5728L12.4301 16.9513C11.7003 16.7474 10.9773 17.2961 10.9773 18.0538V22.8655C10.4468 23.3733 9.75137 24.1702 9.09948 25.0986C8.44692 26.0279 7.80075 27.1415 7.41448 28.2803H4.95357C4.32135 28.2803 3.80884 28.7928 3.80884 29.425Z" stroke="#242424" stroke-width="1.77197"/>
</svg>
