<svg width="50" height="49" viewBox="0 0 50 49" fill="none" xmlns="http://www.w3.org/2000/svg">
<g id="Save money">
<g id="Group 111">
<g id="Group 107">
<path id="Vector 33" d="M37.41 7.29504L37.41 9.42474" stroke="white" stroke-width="1.42364" stroke-linecap="round"/>
<path id="Vector 34" d="M37.4101 0.899658L37.4101 3.02935" stroke="white" stroke-width="1.42364" stroke-linecap="round"/>
<path id="Vector 35" d="M34.6599 5.21204H35.8073" stroke="white" stroke-width="1.42364" stroke-linecap="round"/>
<path id="Vector 36" d="M38.863 5.21204H40.0104" stroke="white" stroke-width="1.42364" stroke-linecap="round"/>
</g>
<g id="Group 106">
<path id="Vector 37" d="M46.3145 19.2012L46.3145 20.6824" stroke="white" stroke-width="1.24406" stroke-linecap="round"/>
<path id="Vector 38" d="M46.3143 14.0079L46.3143 15.4892" stroke="white" stroke-width="1.24406" stroke-linecap="round"/>
<path id="Vector 39" d="M43.7735 17.2322H44.5715" stroke="white" stroke-width="1.24406" stroke-linecap="round"/>
<path id="Vector 40" d="M48.0586 17.2314H48.8566" stroke="white" stroke-width="1.24406" stroke-linecap="round"/>
</g>
<g id="Group 108">
<path id="Vector 41" d="M2.78906 13.4041L2.78906 14.5802" stroke="white" stroke-width="0.987799" stroke-linecap="round"/>
<path id="Vector 42" d="M2.78906 9.42456L2.78906 10.6007" stroke="white" stroke-width="0.987799" stroke-linecap="round"/>
<path id="Vector 43" d="M0.855465 12.075H1.48912" stroke="white" stroke-width="0.987799" stroke-linecap="round"/>
<path id="Vector 44" d="M4.1914 12.075H4.82506" stroke="white" stroke-width="0.987799" stroke-linecap="round"/>
</g>
<g id="Group 109">
<path id="Vector 32" d="M12.7149 22.4131V25.3579" stroke="white" stroke-width="1.77197" stroke-linecap="round"/>
<path id="Vector 31" d="M19.1934 18.8451C19.817 18.4871 21.5838 17.7919 23.6625 17.875C25.7412 17.9581 27.3233 18.5563 27.8545 18.8451" stroke="white" stroke-width="1.77197" stroke-linecap="round"/>
<path id="Vector 30" d="M3.94019 23.0685V34.1002C3.94019 34.7324 4.45271 35.245 5.08493 35.245H7.57604C7.88957 36.0091 8.42864 36.971 9.10116 37.9429C9.81676 38.977 10.7173 40.0715 11.7281 41.0008C11.3918 41.57 11.1031 42.3171 11.0597 43.1275C11.0001 44.242 11.4132 45.4339 12.6635 46.3253C13.9176 47.2195 15.2926 47.0774 16.3481 46.5949C17.1846 46.2126 17.916 45.5787 18.3586 44.9249C20.6192 45.5711 24.8457 46.2158 28.6415 44.948C29.0447 45.5761 29.6531 46.2551 30.4706 46.6726C31.568 47.2331 32.9259 47.2592 34.3791 46.3207C35.746 45.4379 36.1312 44.1803 36.0302 43.0377C35.9587 42.2278 35.6492 41.4849 35.3312 40.9405C37.0353 39.4188 39.572 36.291 40.2721 32.5998C42.0125 32.0231 45.0275 30.5257 45.2996 26.817C45.372 25.8301 44.3127 25.3343 43.5844 25.7636C42.7438 26.2592 41.7881 26.7052 40.5794 26.851C40.3571 24.1791 39.1774 19.8993 35.7766 16.5985C33.4404 14.3309 30.9072 12.7676 27.9977 12.0171C25.1339 11.2784 21.9712 11.3442 18.365 12.2164L12.5615 10.5949C11.8317 10.391 11.1087 10.9396 11.1087 11.6974V16.509C10.5782 17.0169 9.88273 17.8138 9.23083 18.7422C8.57828 19.6715 7.9321 20.785 7.54583 21.9238H5.08493C4.45271 21.9238 3.94019 22.4363 3.94019 23.0685Z" stroke="white" stroke-width="1.77197"/>
</g>
</g>
</g>
</svg>
