<svg width="212" height="359" viewBox="0 0 212 359" fill="none" xmlns="http://www.w3.org/2000/svg">
<path d="M210.713 7.86301C210.011 5.94029 208.789 4.2503 207.183 2.98143C205.576 1.71255 203.649 0.914637 201.616 0.676609C196.841 0.221773 193.702 5.6798 192.292 9.18204C190.569 8.02932 188.543 7.41214 186.47 7.40818C185.889 7.3242 185.296 7.42369 184.775 7.69276C184.253 7.96182 183.828 8.38706 183.559 8.90914C182.513 11.1378 184.969 15.6407 190.837 22.5542C188.417 31.0883 185.377 39.4341 181.74 47.5247C177.192 56.6214 167.231 79.7271 164.274 86.5041H163.91C165.002 78.7264 165.502 63.0801 153.995 56.0756C150.306 53.6099 146.148 51.9331 141.78 51.1504C137.413 50.3677 132.931 50.496 128.615 51.5272C126.01 52.1634 123.571 53.3487 121.461 55.0038C119.351 56.6589 117.619 58.7456 116.38 61.1243L115.289 63.262C110.74 73.041 102.462 89.4151 95.6396 92.0076C93.3668 92.9275 91.2134 94.1187 89.2264 95.5553C74.4443 91.007 45.4713 81.9103 38.6487 79.2722C35.327 78.0991 32.1403 76.5743 29.1427 74.7239C28.5059 70.8123 27.1869 64.6265 24.9582 63.3075C24.6434 63.1085 24.2889 62.981 23.9196 62.9338C23.5502 62.8867 23.1751 62.9211 22.8204 63.0346C21.8688 63.5518 21.0722 64.3133 20.5126 65.2406C19.953 66.168 19.6506 67.2277 19.6366 68.3107C13.0415 66.3094 5.62765 64.8994 3.67186 67.8559C2.53298 69.1927 1.72199 70.7771 1.30348 72.4827C0.884967 74.1883 0.8705 75.9681 1.26123 77.6803C2.15026 79.3812 3.44596 80.836 5.03302 81.9152C6.62009 82.9944 8.44931 83.6646 10.3579 83.8661C13.7626 84.7199 17.2306 85.2979 20.7282 85.5944C21.8702 85.5655 23.0039 85.7961 24.0438 86.2688C25.0838 86.7415 26.0029 87.444 26.732 88.3235C31.5078 92.6444 47.1541 105.38 56.3418 107.336C59.9805 108.154 68.1676 110.338 76.3091 112.612C74.0658 120.135 74.6315 128.216 77.901 135.353C86.9977 157.777 99.6877 168.738 115.971 168.738C116.88 168.738 117.836 168.738 118.791 168.738C118.986 169.809 119.322 170.849 119.791 171.831C120.522 172.935 121.484 173.867 122.611 174.56L121.292 175.652C111.741 183.384 100.415 192.981 97.7774 198.758C94.639 205.125 92.2284 243.604 91.7735 255.339L66.985 235.463C66.9689 235.127 66.8407 234.807 66.6211 234.553L55.0683 221.408C54.779 221.073 54.372 220.861 53.9312 220.817C53.4654 220.808 53.0125 220.97 52.6577 221.272L43.9703 228.913C43.6243 229.213 43.4116 229.639 43.379 230.096V234.053L36.6474 235.736C36.3776 235.817 36.1291 235.957 35.9197 236.145L17.7263 251.928C17.5475 252.08 17.4026 252.268 17.3007 252.479C17.1989 252.691 17.1425 252.921 17.135 253.156C17.1299 253.391 17.1715 253.624 17.2574 253.843C17.3433 254.062 17.4718 254.261 17.6353 254.429L21.7743 258.478C21.9298 258.63 22.115 258.749 22.3184 258.828C22.5218 258.906 22.7391 258.942 22.9569 258.932H23.5027L51.748 249.836C55.978 259.296 75.7633 282.22 90.3181 292.681C97.0496 297.23 102.189 299.413 106.01 298.549C116.971 296.092 131.299 257.977 139.031 233.916L170.869 262.435C165.457 273.715 161.773 317.97 161.363 325.02L155.178 339.393C155.087 339.593 155.04 339.81 155.04 340.03C155.04 340.249 155.087 340.466 155.178 340.666C155.343 341.092 155.67 341.436 156.087 341.621L165.684 345.76C165.893 345.849 166.117 345.895 166.344 345.895C166.57 345.895 166.795 345.849 167.003 345.76L170.187 344.441L174.099 348.99C174.258 349.215 174.479 349.389 174.736 349.49L194.566 358.041C194.776 358.088 194.993 358.088 195.203 358.041C195.581 358.05 195.951 357.929 196.249 357.697C196.548 357.464 196.757 357.136 196.841 356.767L198.614 352.219C198.706 351.924 198.72 351.61 198.656 351.308C198.593 351.005 198.453 350.724 198.251 350.491L181.012 332.297C190.109 318.925 202.071 268.302 201.571 254.202C201.071 240.102 165.002 193.936 158.18 185.476C158.998 180.928 169.05 123.346 169.278 119.616C172.018 113.034 175.562 106.816 179.83 101.104C180.074 100.755 180.178 100.327 180.119 99.9045C180.06 99.4824 179.843 99.0984 179.511 98.8302C182.331 93.4176 193.475 71.7674 195.431 67.9013C197.386 64.0352 202.299 30.9687 201.389 27.5574C202.694 22.198 205.429 17.2934 209.303 13.3665C210.079 12.7083 210.632 11.8252 210.884 10.8393C211.137 9.8534 211.077 8.8134 210.713 7.86301ZM28.7788 85.6854C27.7972 84.5388 26.5752 83.6225 25.1995 83.0015C23.8239 82.3805 22.3283 82.07 20.8192 82.0922C17.4894 81.7963 14.1889 81.2335 10.9492 80.4093C7.21957 79.5451 4.89991 78.1351 4.26314 76.4522C3.62637 74.7694 5.35475 71.0852 6.30991 69.5387C11.1819 69.3745 16.0335 70.2425 20.5463 72.0858C20.8056 72.1779 21.0844 72.2011 21.3555 72.1533C21.6265 72.1055 21.8805 71.9882 22.0927 71.8129C22.3183 71.6566 22.4997 71.4447 22.6192 71.1976C22.7388 70.9506 22.7924 70.6768 22.775 70.4029C22.7182 69.1325 22.9193 67.8638 23.3662 66.6733C24.5063 69.597 25.2705 72.6537 25.6404 75.77C25.6988 76.0449 25.8067 76.3069 25.9588 76.5432C29.3558 79.0809 33.1529 81.0332 37.1933 82.3196C46.29 85.9128 90.7729 99.5124 96.3219 101.195C95.7427 105.598 95.4995 110.037 95.5942 114.477C88.1803 112.339 64.074 105.38 56.8422 103.924C49.6103 102.469 34.5097 90.6886 28.9607 85.6854H28.7788ZM80.9939 133.898C78.0436 127.494 77.5263 120.234 79.5384 113.476L95.8216 118.024C95.8216 118.616 95.8216 119.161 95.8216 119.798C95.8315 120.153 95.9503 120.496 96.1618 120.781C96.3734 121.065 96.6675 121.278 97.0041 121.39L117.29 127.849C116.834 140.242 117.122 152.651 118.154 165.009C102.098 166.055 90.2726 156.139 80.9939 133.898ZM136.939 229.414L135.802 230.733L136.347 231.233C128.843 254.884 114.333 292.909 105.237 294.91C103.326 295.319 99.5512 294.91 92.3193 289.588C76.582 278.308 56.7057 253.793 54.477 247.38L64.9837 238.283L92.2738 260.16C92.5475 260.304 92.8518 260.379 93.1608 260.379C93.4697 260.379 93.7741 260.304 94.0477 260.16C94.3335 260.023 94.5771 259.811 94.7531 259.547C94.9291 259.283 95.031 258.976 95.0483 258.659C95.7306 244.287 98.1412 205.58 100.916 199.531C103.69 193.481 117.972 182.065 123.658 177.653L125.932 175.834C134.831 180.063 144.085 183.503 153.586 186.113C150.447 191.617 142.26 206.672 141.123 214.131C140.012 219.299 138.615 224.401 136.939 229.414ZM141.169 92.9628L140.577 89.597C140.577 89.597 136.029 90.2338 129.661 83.2748C129.504 83.0903 129.309 82.942 129.089 82.84C128.869 82.7379 128.63 82.6845 128.388 82.6835C128.388 82.6835 124.886 82.6835 124.795 80.4548C124.704 78.2261 125.613 78.3171 126.296 78.2716C126.53 78.2641 126.761 78.2077 126.972 78.1058C127.184 78.004 127.371 77.8591 127.524 77.6803C128.433 76.6342 135.711 67.9923 135.984 60.8969C139.213 60.8969 146.217 61.9885 147.627 68.1742C147.696 68.5169 147.876 68.8272 148.14 69.0574C148.403 69.2875 148.734 69.4247 149.083 69.4478C149.418 69.4956 149.76 69.4381 150.062 69.2833C150.363 69.1285 150.609 68.8841 150.766 68.5836C150.976 70.4376 150.61 72.3112 149.72 73.9506C149.618 74.1717 149.565 74.4122 149.565 74.6556C149.565 74.8991 149.618 75.1396 149.72 75.3606C150.387 77.7276 150.322 80.241 149.535 82.5707C148.748 84.9005 147.274 86.9376 145.308 88.4144C145.132 88.5861 144.994 88.7915 144.9 89.0182C144.806 89.2449 144.759 89.4882 144.762 89.7335V99.6034C144.611 99.7938 144.501 100.013 144.438 100.248C144.376 100.483 144.362 100.728 144.398 100.968C145.853 107.381 146.9 117.797 144.398 119.707C144.398 119.707 143.761 120.253 142.306 119.707C134.164 115.705 137.439 100.24 137.712 100.104C137.76 99.8667 137.756 99.6222 137.701 99.3867C137.647 99.1513 137.542 98.9304 137.394 98.7392L136.984 98.3298V92.6444C138.335 93.0752 139.768 93.1842 141.169 92.9628ZM178.374 329.932L165.002 324.338C166.23 308.282 170.142 269.348 174.599 262.798C174.836 262.458 174.939 262.043 174.889 261.632C174.838 261.221 174.638 260.843 174.326 260.57L140.214 230.096C142.67 222.273 144.262 216.451 144.762 214.722C147.574 205.582 151.387 196.781 156.133 188.478C169.096 204.989 197.796 243.695 198.16 254.384C198.614 267.574 186.88 317.242 178.374 330.114V329.932ZM148.355 97.6931V90.2338C150.466 88.3496 152.031 85.9327 152.887 83.2361C153.743 80.5396 153.859 77.6624 153.222 74.9058C153.87 73.67 154.264 72.3171 154.381 70.9267C154.498 69.5363 154.336 68.1365 153.904 66.8097C153.085 64.9904 151.948 64.581 151.13 64.581C150.822 64.466 150.482 64.466 150.174 64.581C146.991 58.1679 138.667 56.9853 134.21 57.3491C133.973 57.371 133.744 57.4412 133.536 57.5555C133.328 57.6698 133.146 57.8256 133.001 58.0134C132.856 58.2011 132.751 58.4167 132.693 58.6467C132.635 58.8768 132.625 59.1163 132.663 59.3504C133.527 63.8988 128.115 71.631 125.522 74.8148C124.548 75.0111 123.659 75.5036 122.975 76.2248C122.474 76.7847 122.091 77.4398 121.849 78.1509C121.607 78.862 121.51 79.6146 121.565 80.3638C121.724 81.8875 122.447 83.2968 123.591 84.315C124.736 85.3333 126.219 85.8869 127.751 85.8673C129.454 87.7596 131.432 89.3849 133.618 90.6886V97.3747C122.475 96.1921 102.053 94.1454 99.4603 95.055C99.0054 95.055 98.2322 95.5099 97.5499 97.4657L93.7748 96.3286C94.8526 95.6834 95.9778 95.1209 97.1406 94.6457C105.191 91.5983 113.287 75.1332 118.654 64.2172L119.7 62.0794C120.715 60.1462 122.126 58.4497 123.843 57.1013C125.56 55.7529 127.543 54.7833 129.661 54.2563C133.523 53.3205 137.537 53.193 141.45 53.8818C145.364 54.5706 149.093 56.0608 152.403 58.2588C165.593 66.3094 159.999 89.2786 159.953 89.506H160.408C157.018 93.1052 152.912 95.9558 148.355 97.875V97.6931ZM207.029 10.5465C203.663 13.2756 196.795 24.419 197.932 28.3306C197.313 41.1156 195.423 53.8073 192.292 66.2184C190.427 69.9026 179.966 90.1883 176.737 96.4195L166.867 88.4144C169.278 82.8654 179.966 58.3498 184.651 48.7982C188.541 40.2462 191.78 31.4124 194.339 22.3723C194.414 22.0975 194.42 21.8084 194.357 21.5306C194.293 21.2529 194.162 20.9952 193.975 20.7803C191.14 17.8107 188.736 14.4577 186.834 10.8194C190.382 11.1378 191.383 13.0027 191.383 13.0481C191.534 13.3617 191.774 13.6237 192.073 13.8017C192.373 13.9796 192.718 14.0655 193.065 14.0488C193.414 14.0307 193.747 13.9018 194.017 13.6809C194.287 13.46 194.48 13.1586 194.566 12.8207C195.249 10.4556 198.023 3.72401 201.252 4.04239C202.616 4.21269 203.91 4.74557 204.998 5.58553C206.085 6.42549 206.928 7.54179 207.438 8.81817C207.802 10.0917 207.256 10.592 207.029 10.7285V10.5465Z" fill="black"/>
</svg>
