<svg width="77" height="75" viewBox="0 0 77 75" fill="none" xmlns="http://www.w3.org/2000/svg">
<g id="Group 349">
<path id="Rectangle 105" d="M39.4946 0.642578H76.1418V24.7192C76.1418 31.6618 70.5138 37.2898 63.5713 37.2898H39.4946V0.642578Z" fill="#A94CFF"/>
<path id="Vector" fill-rule="evenodd" clip-rule="evenodd" d="M62.436 35.6266V15.0975C62.436 14.8655 62.3898 14.6443 62.3064 14.4426C62.2229 14.2409 62.099 14.0518 61.9351 13.8878C61.7709 13.7238 61.582 13.6 61.3802 13.5165C61.1783 13.4329 60.9573 13.3867 60.7253 13.3867H40.1961C39.2515 13.3867 38.4854 14.1527 38.4854 15.0975C38.4854 16.0423 39.2515 16.8082 40.1961 16.8082H56.5952L38.9863 34.4169C38.3184 35.085 38.3184 36.1682 38.9863 36.8363C39.6545 37.5044 40.7378 37.5044 41.406 36.8363L59.0145 19.2276V35.6266C59.0145 36.5714 59.7806 37.3374 60.7253 37.3374C61.67 37.3374 62.436 36.5714 62.436 35.6266ZM52.1715 66.4203V47.6019C52.1715 46.6573 52.9375 45.8912 53.8822 45.8912C54.8269 45.8912 55.593 46.6573 55.593 47.6019V66.4203C55.593 71.1444 51.7633 74.9741 47.0392 74.9741H9.40244C4.67831 74.9741 0.848633 71.1444 0.848633 66.4203V28.7836C0.848633 24.0594 4.67831 20.2298 9.40244 20.2298H28.2208C29.1655 20.2298 29.9316 20.9957 29.9316 21.9405C29.9316 22.8853 29.1655 23.6513 28.2208 23.6513H9.40244C6.56795 23.6513 4.27016 25.9491 4.27016 28.7836V66.4203C4.27016 69.2547 6.56795 71.5526 9.40244 71.5526H47.0392C49.8736 71.5526 52.1715 69.2547 52.1715 66.4203ZM24.2984 53.9441L20.8767 57.3656C20.2086 58.0335 19.1254 58.0335 18.4573 57.3656C17.7892 56.6974 17.7892 55.6141 18.4573 54.9459L21.8787 51.5244C22.5469 50.8565 23.6302 50.8565 24.2984 51.5244C24.9663 52.1926 24.9663 53.2759 24.2984 53.9441ZM31.1414 47.101L34.5629 43.6795C35.2308 43.0113 35.2308 41.928 34.5629 41.2598C33.8947 40.5919 32.8115 40.5919 32.1432 41.2598L28.7217 44.6813C28.0538 45.3496 28.0538 46.4328 28.7217 47.101C29.3899 47.7689 30.4732 47.7689 31.1414 47.101Z" fill="black"/>
</g>
</svg>
