<svg width="76" height="71" viewBox="0 0 76 71" fill="none" xmlns="http://www.w3.org/2000/svg">
<g id="Group 350">
<path id="Rectangle 115" d="M75.3838 0.218262H38.7366V24.2949C38.7366 31.2374 44.3646 36.8655 51.3071 36.8655H75.3838V0.218262Z" fill="#FFD800"/>
<g id="Group">
<path id="Vector" d="M32.7005 39.3854C37.0544 39.3854 40.5982 35.8416 40.5982 31.4877C40.5982 27.1337 37.0544 23.59 32.7005 23.59C28.3465 23.59 24.8027 27.1337 24.8027 31.4877C24.8027 35.8416 28.3465 39.3854 32.7005 39.3854ZM32.7005 25.9313C35.7644 25.9313 38.2568 28.4238 38.2568 31.4877C38.2568 34.5516 35.7644 37.044 32.7005 37.044C29.6366 37.044 27.1441 34.5516 27.1441 31.4877C27.1441 28.4238 29.6366 25.9313 32.7005 25.9313Z" fill="white" stroke="white"/>
<path id="Vector_2" d="M32.7002 42.3558C28.6039 42.3558 24.9457 44.7845 22.3332 48.5933C19.7189 52.4047 18.1157 57.6403 18.1157 63.3924C18.1157 64.0374 18.6414 64.5631 19.2864 64.5631C19.9314 64.5631 20.4571 64.0374 20.4571 63.3924C20.4571 58.1855 21.8637 53.4858 24.1094 50.1025C26.3578 46.7152 29.4065 44.6972 32.7002 44.6972C35.994 44.6972 39.0427 46.7152 41.291 50.1025C43.5368 53.4858 44.9434 58.1855 44.9434 63.3924C44.9434 64.0374 45.469 64.5631 46.1141 64.5631C46.7591 64.5631 47.2848 64.0374 47.2848 63.3924C47.2848 57.6436 45.6815 52.408 43.0673 48.5959C40.4549 44.7863 36.7967 42.3558 32.7002 42.3558Z" fill="white" stroke="white"/>
<path id="Vector_3" d="M56.0203 65.632L56.0183 65.6325L55.2763 65.8319C60.8939 60.0165 64.0525 52.2709 64.0525 44.0765C64.0525 34.5897 59.8262 25.7148 52.4526 19.7246C51.9462 19.3126 51.2097 19.399 50.8038 19.8976C50.3917 20.404 50.4778 21.1408 50.9766 21.5467L50.9772 21.5472C57.7952 27.0794 61.7111 35.2936 61.7111 44.0765C61.7111 51.5453 58.8738 58.6027 53.8261 63.9539L53.9348 63.5488L53.9353 63.5469C54.0983 62.9297 53.7375 62.282 53.1011 62.117C52.4784 61.9555 51.8397 62.3154 51.674 62.9493C51.6738 62.9501 51.6736 62.9509 51.6734 62.9517L50.0849 68.8766L49.8606 69.7133L50.6973 69.489L56.6245 67.8999C56.6246 67.8999 56.6247 67.8999 56.6249 67.8998C57.2472 67.7352 57.6208 67.0928 57.4564 66.4706L57.4554 66.4667C57.2829 65.8342 56.6426 65.4676 56.0203 65.632Z" fill="white" stroke="white"/>
<path id="Vector_4" d="M12.6666 26.0755L12.6762 26.0781L12.6859 26.0802C12.7766 26.1004 12.8668 26.1122 12.9687 26.1122C13.4784 26.1122 13.9603 25.7768 14.1023 25.2451C14.1023 25.245 14.1024 25.2449 14.1024 25.2448L15.6918 19.3165L15.9161 18.4797L15.0793 18.7041L9.1522 20.2931C9.15186 20.2932 9.15152 20.2933 9.15118 20.2934C8.52923 20.4583 8.15598 21.1005 8.32028 21.7225C8.48474 22.3451 9.12731 22.7188 9.74964 22.5544L9.75078 22.5541L9.95165 22.5005C4.44846 28.3002 1.34863 35.969 1.34863 44.0764C1.34863 53.5634 5.58178 62.4381 12.9484 68.4281L12.9483 68.4282L12.954 68.4326C13.1726 68.6052 13.4302 68.6877 13.6863 68.6877C14.0286 68.6877 14.364 68.5351 14.5936 68.2597L14.5936 68.2597L14.5973 68.2552C15.0094 67.7488 14.9232 67.0121 14.4245 66.6061L14.4241 66.6058C7.60583 61.0668 3.69002 52.8524 3.69002 44.0764C3.69002 36.3593 6.72759 29.0698 12.101 23.6593L11.8353 24.6506C11.6682 25.2712 12.0476 25.912 12.6666 26.0755Z" fill="white" stroke="white"/>
</g>
</g>
</svg>
