<svg width="75" height="76" viewBox="0 0 75 76" fill="none" xmlns="http://www.w3.org/2000/svg">
<g id="Group 170">
<path id="Rectangle 105" d="M74.9434 0.642578H38.2962V24.7192C38.2962 31.6618 43.9242 37.2898 50.8667 37.2898H74.9434V0.642578Z" fill="#FF4167"/>
<g id="Group">
<g id="Vector">
<mask id="path-2-outside-1_105_80" maskUnits="userSpaceOnUse" x="1.43115" y="9.93872" width="61" height="66" fill="black">
<rect fill="white" x="1.43115" y="9.93872" width="61" height="66"/>
<path d="M44.1953 74.9743H21.3254C19.5058 74.9743 17.7607 74.2514 16.474 72.9648C15.1873 71.6781 14.4645 69.933 14.4645 68.1133V64.6829C14.0871 64.6829 13.7098 64.6829 13.321 64.6829C10.5878 64.6867 7.95334 63.6611 5.9421 61.8104C3.93087 59.9596 2.69032 57.4193 2.4674 54.6952C2.24448 51.9711 3.05554 49.2629 4.73913 47.1098C6.42271 44.9567 8.85536 43.5165 11.5528 43.0759C14.2503 42.6353 17.0148 43.2266 19.2959 44.7322C21.5771 46.2377 23.2077 48.5471 23.8631 51.2006C24.5185 53.854 24.1507 56.657 22.8329 59.0515C21.515 61.4461 19.3438 63.2565 16.7515 64.1226V68.1133C16.7515 69.3264 17.2334 70.4898 18.0911 71.3476C18.9489 72.2054 20.1123 72.6873 21.3254 72.6873H44.1953C45.4084 72.6873 46.5718 72.2054 47.4296 71.3476C48.2873 70.4898 48.7692 69.3264 48.7692 68.1133V46.387C48.7692 46.0837 48.8897 45.7929 49.1042 45.5784C49.3186 45.364 49.6095 45.2435 49.9127 45.2435C50.216 45.2435 50.5069 45.364 50.7213 45.5784C50.9358 45.7929 51.0562 46.0837 51.0562 46.387V68.1133C51.0562 69.933 50.3334 71.6781 49.0467 72.9648C47.76 74.2514 46.0149 74.9743 44.1953 74.9743ZM13.321 45.2435C11.6248 45.2435 9.96664 45.7465 8.5563 46.6888C7.14595 47.6312 6.04672 48.9706 5.3976 50.5377C4.74849 52.1048 4.57866 53.8292 4.90957 55.4928C5.24048 57.1564 6.05729 58.6846 7.25669 59.884C8.45609 61.0834 9.98422 61.9002 11.6478 62.2311C13.3115 62.562 15.0358 62.3922 16.6029 61.7431C18.17 61.0939 19.5095 59.9947 20.4518 58.5844C21.3942 57.174 21.8972 55.5159 21.8972 53.8197C21.8972 51.5451 20.9936 49.3638 19.3853 47.7554C17.7769 46.1471 15.5955 45.2435 13.321 45.2435ZM10.3136 60.1089C9.87016 60.1082 9.43815 59.9682 9.07862 59.7087C8.7593 59.4794 8.51143 59.1645 8.3637 58.8002C8.21597 58.4359 8.17443 58.0373 8.24387 57.6504L8.62122 55.5349L7.0089 53.8997C6.73096 53.6268 6.53425 53.2821 6.44066 52.904C6.34708 52.5259 6.36029 52.1292 6.47884 51.7582C6.59739 51.3871 6.81661 51.0563 7.11209 50.8024C7.40757 50.5486 7.7677 50.3818 8.15239 50.3206L10.3822 50.0004L11.377 47.9879C11.5489 47.6353 11.8164 47.3381 12.1489 47.1302C12.4815 46.9224 12.8659 46.8121 13.2581 46.8121C13.6503 46.8121 14.0346 46.9224 14.3672 47.1302C14.6998 47.3381 14.9673 47.6353 15.1391 47.9879L16.134 50.0004L18.3638 50.3206C18.7514 50.3766 19.1154 50.5403 19.4146 50.793C19.7138 51.0457 19.9361 51.3772 20.0561 51.75C20.1795 52.1224 20.1945 52.5222 20.0994 52.9028C20.0042 53.2834 19.8028 53.6292 19.5187 53.8997L17.8949 55.5349L18.2723 57.7419C18.3388 58.1289 18.2956 58.5268 18.1477 58.8905C17.9998 59.2543 17.7531 59.5694 17.4354 59.8003C17.1177 60.0311 16.7418 60.1684 16.3501 60.1967C15.9585 60.2249 15.5667 60.143 15.2192 59.9602L13.321 58.8625L11.3313 59.9031C11.0146 60.0556 10.6647 60.1264 10.3136 60.1089ZM8.88422 52.4932L10.2907 53.8654C10.5338 54.1047 10.7158 54.399 10.8212 54.7234C10.9267 55.0478 10.9526 55.3928 10.8968 55.7293L10.5537 57.6733L12.3033 56.7585C12.6051 56.6011 12.9405 56.519 13.281 56.519C13.6214 56.519 13.9568 56.6011 14.2586 56.7585L15.9967 57.6847L15.6651 55.7408C15.6093 55.4042 15.6352 55.0592 15.7407 54.7348C15.8461 54.4104 16.0281 54.1162 16.2712 53.8769L17.6777 52.5047L15.7337 52.2188C15.3967 52.1734 15.0762 52.0452 14.8008 51.8456C14.5255 51.6461 14.3038 51.3814 14.1557 51.0753L13.321 49.3372L12.4519 51.0982C12.2998 51.4013 12.0771 51.6634 11.8024 51.8624C11.5278 52.0615 11.2093 52.1915 10.8739 52.2417L8.88422 52.4932ZM50.4845 41.813C47.7533 41.8115 45.123 40.7813 43.1173 38.9276C41.1115 37.0739 39.8777 34.5328 39.6614 31.8102C39.445 29.0876 40.2622 26.3835 41.95 24.2364C43.6379 22.0892 46.0726 20.6566 48.7692 20.2239V17.7997C48.7692 16.5866 48.2873 15.4232 47.4296 14.5654C46.5718 13.7076 45.4084 13.2257 44.1953 13.2257H39.1868L38.352 14.8838C38.257 15.0723 38.1116 15.2309 37.932 15.3419C37.7523 15.453 37.5455 15.5121 37.3343 15.5127H28.1864C27.9752 15.5121 27.7683 15.453 27.5887 15.3419C27.4091 15.2309 27.2637 15.0723 27.1687 14.8838L26.3339 13.2257H21.3254C20.1123 13.2257 18.9489 13.7076 18.0911 14.5654C17.2334 15.4232 16.7515 16.5866 16.7515 17.7997V38.3825C16.7515 38.6858 16.631 38.9767 16.4165 39.1911C16.2021 39.4056 15.9112 39.526 15.608 39.526C15.3047 39.526 15.0138 39.4056 14.7994 39.1911C14.5849 38.9767 14.4645 38.6858 14.4645 38.3825V17.7997C14.4645 15.98 15.1873 14.2349 16.474 12.9482C17.7607 11.6616 19.5058 10.9387 21.3254 10.9387H44.1953C46.0149 10.9387 47.76 11.6616 49.0467 12.9482C50.3334 14.2349 51.0562 15.98 51.0562 17.7997V20.0867C53.9373 20.1625 56.6703 21.3797 58.6539 23.4706C60.6376 25.5614 61.7094 28.3546 61.6335 31.2357C61.5577 34.1168 60.3405 36.8498 58.2496 38.8334C56.1588 40.817 53.3656 41.8888 50.4845 41.813ZM50.4845 22.3736C48.7883 22.3736 47.1301 22.8766 45.7198 23.819C44.3095 24.7614 43.2102 26.1008 42.5611 27.6679C41.912 29.235 41.7422 30.9594 42.0731 32.623C42.404 34.2866 43.2208 35.8147 44.4202 37.0141C45.6196 38.2135 47.1477 39.0303 48.8113 39.3612C50.475 39.6922 52.1994 39.5223 53.7664 38.8732C55.3335 38.2241 56.673 37.1249 57.6153 35.7145C58.5577 34.3042 59.0607 32.646 59.0607 30.9498C59.0607 28.6753 58.1571 26.4939 56.5488 24.8856C54.9404 23.2772 52.759 22.3736 50.4845 22.3736ZM50.393 37.3763C50.2981 37.3882 50.202 37.3882 50.1071 37.3763C47.7605 36.5312 45.8256 34.8213 44.6984 32.5965C43.452 30.401 43.5549 28.1712 45.0186 26.7761C45.4215 26.3876 45.9088 26.0977 46.4425 25.9291C46.9762 25.7604 47.5416 25.7177 48.0946 25.8041C48.9996 25.9416 49.8349 26.3713 50.473 27.0277C51.1087 26.3742 51.9394 25.9448 52.8401 25.8041C53.3913 25.7138 53.9559 25.7525 54.4896 25.9172C55.0233 26.0819 55.5116 26.3681 55.9161 26.7532C57.3569 28.1483 57.5284 30.3667 56.3392 32.5622C55.7559 33.7032 54.9493 34.7154 53.9671 35.5385C52.9849 36.3616 51.8472 36.9788 50.6217 37.3534C50.5466 37.37 50.4699 37.3777 50.393 37.3763ZM47.5228 28.0911C47.1834 28.0856 46.8552 28.2128 46.608 28.4456C45.5903 29.429 46.4937 31.1557 46.6881 31.4987C47.4988 33.0754 48.8099 34.3383 50.4159 35.0893C52.1077 34.4057 53.4962 33.1349 54.3266 31.5101C54.8526 30.5382 55.1385 29.2232 54.3266 28.4456C54.176 28.3035 53.9938 28.1993 53.7949 28.1416C53.5961 28.0839 53.3864 28.0745 53.1831 28.114C52.8614 28.1742 52.5583 28.309 52.2981 28.5076C52.038 28.7061 51.828 28.963 51.6851 29.2575C51.4221 29.7949 51.4107 29.8063 51.2735 29.9436C51.0614 30.143 50.7813 30.254 50.4902 30.254C50.1991 30.254 49.919 30.143 49.7069 29.9436C49.5354 29.7835 49.5125 29.7377 49.2381 29.1774C49.0887 28.8979 48.8787 28.6553 48.6235 28.4673C48.3683 28.2794 48.0742 28.1508 47.763 28.0911H47.5228Z"/>
</mask>
<path d="M44.1953 74.9743H21.3254C19.5058 74.9743 17.7607 74.2514 16.474 72.9648C15.1873 71.6781 14.4645 69.933 14.4645 68.1133V64.6829C14.0871 64.6829 13.7098 64.6829 13.321 64.6829C10.5878 64.6867 7.95334 63.6611 5.9421 61.8104C3.93087 59.9596 2.69032 57.4193 2.4674 54.6952C2.24448 51.9711 3.05554 49.2629 4.73913 47.1098C6.42271 44.9567 8.85536 43.5165 11.5528 43.0759C14.2503 42.6353 17.0148 43.2266 19.2959 44.7322C21.5771 46.2377 23.2077 48.5471 23.8631 51.2006C24.5185 53.854 24.1507 56.657 22.8329 59.0515C21.515 61.4461 19.3438 63.2565 16.7515 64.1226V68.1133C16.7515 69.3264 17.2334 70.4898 18.0911 71.3476C18.9489 72.2054 20.1123 72.6873 21.3254 72.6873H44.1953C45.4084 72.6873 46.5718 72.2054 47.4296 71.3476C48.2873 70.4898 48.7692 69.3264 48.7692 68.1133V46.387C48.7692 46.0837 48.8897 45.7929 49.1042 45.5784C49.3186 45.364 49.6095 45.2435 49.9127 45.2435C50.216 45.2435 50.5069 45.364 50.7213 45.5784C50.9358 45.7929 51.0562 46.0837 51.0562 46.387V68.1133C51.0562 69.933 50.3334 71.6781 49.0467 72.9648C47.76 74.2514 46.0149 74.9743 44.1953 74.9743ZM13.321 45.2435C11.6248 45.2435 9.96664 45.7465 8.5563 46.6888C7.14595 47.6312 6.04672 48.9706 5.3976 50.5377C4.74849 52.1048 4.57866 53.8292 4.90957 55.4928C5.24048 57.1564 6.05729 58.6846 7.25669 59.884C8.45609 61.0834 9.98422 61.9002 11.6478 62.2311C13.3115 62.562 15.0358 62.3922 16.6029 61.7431C18.17 61.0939 19.5095 59.9947 20.4518 58.5844C21.3942 57.174 21.8972 55.5159 21.8972 53.8197C21.8972 51.5451 20.9936 49.3638 19.3853 47.7554C17.7769 46.1471 15.5955 45.2435 13.321 45.2435ZM10.3136 60.1089C9.87016 60.1082 9.43815 59.9682 9.07862 59.7087C8.7593 59.4794 8.51143 59.1645 8.3637 58.8002C8.21597 58.4359 8.17443 58.0373 8.24387 57.6504L8.62122 55.5349L7.0089 53.8997C6.73096 53.6268 6.53425 53.2821 6.44066 52.904C6.34708 52.5259 6.36029 52.1292 6.47884 51.7582C6.59739 51.3871 6.81661 51.0563 7.11209 50.8024C7.40757 50.5486 7.7677 50.3818 8.15239 50.3206L10.3822 50.0004L11.377 47.9879C11.5489 47.6353 11.8164 47.3381 12.1489 47.1302C12.4815 46.9224 12.8659 46.8121 13.2581 46.8121C13.6503 46.8121 14.0346 46.9224 14.3672 47.1302C14.6998 47.3381 14.9673 47.6353 15.1391 47.9879L16.134 50.0004L18.3638 50.3206C18.7514 50.3766 19.1154 50.5403 19.4146 50.793C19.7138 51.0457 19.9361 51.3772 20.0561 51.75C20.1795 52.1224 20.1945 52.5222 20.0994 52.9028C20.0042 53.2834 19.8028 53.6292 19.5187 53.8997L17.8949 55.5349L18.2723 57.7419C18.3388 58.1289 18.2956 58.5268 18.1477 58.8905C17.9998 59.2543 17.7531 59.5694 17.4354 59.8003C17.1177 60.0311 16.7418 60.1684 16.3501 60.1967C15.9585 60.2249 15.5667 60.143 15.2192 59.9602L13.321 58.8625L11.3313 59.9031C11.0146 60.0556 10.6647 60.1264 10.3136 60.1089ZM8.88422 52.4932L10.2907 53.8654C10.5338 54.1047 10.7158 54.399 10.8212 54.7234C10.9267 55.0478 10.9526 55.3928 10.8968 55.7293L10.5537 57.6733L12.3033 56.7585C12.6051 56.6011 12.9405 56.519 13.281 56.519C13.6214 56.519 13.9568 56.6011 14.2586 56.7585L15.9967 57.6847L15.6651 55.7408C15.6093 55.4042 15.6352 55.0592 15.7407 54.7348C15.8461 54.4104 16.0281 54.1162 16.2712 53.8769L17.6777 52.5047L15.7337 52.2188C15.3967 52.1734 15.0762 52.0452 14.8008 51.8456C14.5255 51.6461 14.3038 51.3814 14.1557 51.0753L13.321 49.3372L12.4519 51.0982C12.2998 51.4013 12.0771 51.6634 11.8024 51.8624C11.5278 52.0615 11.2093 52.1915 10.8739 52.2417L8.88422 52.4932ZM50.4845 41.813C47.7533 41.8115 45.123 40.7813 43.1173 38.9276C41.1115 37.0739 39.8777 34.5328 39.6614 31.8102C39.445 29.0876 40.2622 26.3835 41.95 24.2364C43.6379 22.0892 46.0726 20.6566 48.7692 20.2239V17.7997C48.7692 16.5866 48.2873 15.4232 47.4296 14.5654C46.5718 13.7076 45.4084 13.2257 44.1953 13.2257H39.1868L38.352 14.8838C38.257 15.0723 38.1116 15.2309 37.932 15.3419C37.7523 15.453 37.5455 15.5121 37.3343 15.5127H28.1864C27.9752 15.5121 27.7683 15.453 27.5887 15.3419C27.4091 15.2309 27.2637 15.0723 27.1687 14.8838L26.3339 13.2257H21.3254C20.1123 13.2257 18.9489 13.7076 18.0911 14.5654C17.2334 15.4232 16.7515 16.5866 16.7515 17.7997V38.3825C16.7515 38.6858 16.631 38.9767 16.4165 39.1911C16.2021 39.4056 15.9112 39.526 15.608 39.526C15.3047 39.526 15.0138 39.4056 14.7994 39.1911C14.5849 38.9767 14.4645 38.6858 14.4645 38.3825V17.7997C14.4645 15.98 15.1873 14.2349 16.474 12.9482C17.7607 11.6616 19.5058 10.9387 21.3254 10.9387H44.1953C46.0149 10.9387 47.76 11.6616 49.0467 12.9482C50.3334 14.2349 51.0562 15.98 51.0562 17.7997V20.0867C53.9373 20.1625 56.6703 21.3797 58.6539 23.4706C60.6376 25.5614 61.7094 28.3546 61.6335 31.2357C61.5577 34.1168 60.3405 36.8498 58.2496 38.8334C56.1588 40.817 53.3656 41.8888 50.4845 41.813ZM50.4845 22.3736C48.7883 22.3736 47.1301 22.8766 45.7198 23.819C44.3095 24.7614 43.2102 26.1008 42.5611 27.6679C41.912 29.235 41.7422 30.9594 42.0731 32.623C42.404 34.2866 43.2208 35.8147 44.4202 37.0141C45.6196 38.2135 47.1477 39.0303 48.8113 39.3612C50.475 39.6922 52.1994 39.5223 53.7664 38.8732C55.3335 38.2241 56.673 37.1249 57.6153 35.7145C58.5577 34.3042 59.0607 32.646 59.0607 30.9498C59.0607 28.6753 58.1571 26.4939 56.5488 24.8856C54.9404 23.2772 52.759 22.3736 50.4845 22.3736ZM50.393 37.3763C50.2981 37.3882 50.202 37.3882 50.1071 37.3763C47.7605 36.5312 45.8256 34.8213 44.6984 32.5965C43.452 30.401 43.5549 28.1712 45.0186 26.7761C45.4215 26.3876 45.9088 26.0977 46.4425 25.9291C46.9762 25.7604 47.5416 25.7177 48.0946 25.8041C48.9996 25.9416 49.8349 26.3713 50.473 27.0277C51.1087 26.3742 51.9394 25.9448 52.8401 25.8041C53.3913 25.7138 53.9559 25.7525 54.4896 25.9172C55.0233 26.0819 55.5116 26.3681 55.9161 26.7532C57.3569 28.1483 57.5284 30.3667 56.3392 32.5622C55.7559 33.7032 54.9493 34.7154 53.9671 35.5385C52.9849 36.3616 51.8472 36.9788 50.6217 37.3534C50.5466 37.37 50.4699 37.3777 50.393 37.3763ZM47.5228 28.0911C47.1834 28.0856 46.8552 28.2128 46.608 28.4456C45.5903 29.429 46.4937 31.1557 46.6881 31.4987C47.4988 33.0754 48.8099 34.3383 50.4159 35.0893C52.1077 34.4057 53.4962 33.1349 54.3266 31.5101C54.8526 30.5382 55.1385 29.2232 54.3266 28.4456C54.176 28.3035 53.9938 28.1993 53.7949 28.1416C53.5961 28.0839 53.3864 28.0745 53.1831 28.114C52.8614 28.1742 52.5583 28.309 52.2981 28.5076C52.038 28.7061 51.828 28.963 51.6851 29.2575C51.4221 29.7949 51.4107 29.8063 51.2735 29.9436C51.0614 30.143 50.7813 30.254 50.4902 30.254C50.1991 30.254 49.919 30.143 49.7069 29.9436C49.5354 29.7835 49.5125 29.7377 49.2381 29.1774C49.0887 28.8979 48.8787 28.6553 48.6235 28.4673C48.3683 28.2794 48.0742 28.1508 47.763 28.0911H47.5228Z" fill="white"/>
<path d="M44.1953 74.9743H21.3254C19.5058 74.9743 17.7607 74.2514 16.474 72.9648C15.1873 71.6781 14.4645 69.933 14.4645 68.1133V64.6829C14.0871 64.6829 13.7098 64.6829 13.321 64.6829C10.5878 64.6867 7.95334 63.6611 5.9421 61.8104C3.93087 59.9596 2.69032 57.4193 2.4674 54.6952C2.24448 51.9711 3.05554 49.2629 4.73913 47.1098C6.42271 44.9567 8.85536 43.5165 11.5528 43.0759C14.2503 42.6353 17.0148 43.2266 19.2959 44.7322C21.5771 46.2377 23.2077 48.5471 23.8631 51.2006C24.5185 53.854 24.1507 56.657 22.8329 59.0515C21.515 61.4461 19.3438 63.2565 16.7515 64.1226V68.1133C16.7515 69.3264 17.2334 70.4898 18.0911 71.3476C18.9489 72.2054 20.1123 72.6873 21.3254 72.6873H44.1953C45.4084 72.6873 46.5718 72.2054 47.4296 71.3476C48.2873 70.4898 48.7692 69.3264 48.7692 68.1133V46.387C48.7692 46.0837 48.8897 45.7929 49.1042 45.5784C49.3186 45.364 49.6095 45.2435 49.9127 45.2435C50.216 45.2435 50.5069 45.364 50.7213 45.5784C50.9358 45.7929 51.0562 46.0837 51.0562 46.387V68.1133C51.0562 69.933 50.3334 71.6781 49.0467 72.9648C47.76 74.2514 46.0149 74.9743 44.1953 74.9743ZM13.321 45.2435C11.6248 45.2435 9.96664 45.7465 8.5563 46.6888C7.14595 47.6312 6.04672 48.9706 5.3976 50.5377C4.74849 52.1048 4.57866 53.8292 4.90957 55.4928C5.24048 57.1564 6.05729 58.6846 7.25669 59.884C8.45609 61.0834 9.98422 61.9002 11.6478 62.2311C13.3115 62.562 15.0358 62.3922 16.6029 61.7431C18.17 61.0939 19.5095 59.9947 20.4518 58.5844C21.3942 57.174 21.8972 55.5159 21.8972 53.8197C21.8972 51.5451 20.9936 49.3638 19.3853 47.7554C17.7769 46.1471 15.5955 45.2435 13.321 45.2435ZM10.3136 60.1089C9.87016 60.1082 9.43815 59.9682 9.07862 59.7087C8.7593 59.4794 8.51143 59.1645 8.3637 58.8002C8.21597 58.4359 8.17443 58.0373 8.24387 57.6504L8.62122 55.5349L7.0089 53.8997C6.73096 53.6268 6.53425 53.2821 6.44066 52.904C6.34708 52.5259 6.36029 52.1292 6.47884 51.7582C6.59739 51.3871 6.81661 51.0563 7.11209 50.8024C7.40757 50.5486 7.7677 50.3818 8.15239 50.3206L10.3822 50.0004L11.377 47.9879C11.5489 47.6353 11.8164 47.3381 12.1489 47.1302C12.4815 46.9224 12.8659 46.8121 13.2581 46.8121C13.6503 46.8121 14.0346 46.9224 14.3672 47.1302C14.6998 47.3381 14.9673 47.6353 15.1391 47.9879L16.134 50.0004L18.3638 50.3206C18.7514 50.3766 19.1154 50.5403 19.4146 50.793C19.7138 51.0457 19.9361 51.3772 20.0561 51.75C20.1795 52.1224 20.1945 52.5222 20.0994 52.9028C20.0042 53.2834 19.8028 53.6292 19.5187 53.8997L17.8949 55.5349L18.2723 57.7419C18.3388 58.1289 18.2956 58.5268 18.1477 58.8905C17.9998 59.2543 17.7531 59.5694 17.4354 59.8003C17.1177 60.0311 16.7418 60.1684 16.3501 60.1967C15.9585 60.2249 15.5667 60.143 15.2192 59.9602L13.321 58.8625L11.3313 59.9031C11.0146 60.0556 10.6647 60.1264 10.3136 60.1089ZM8.88422 52.4932L10.2907 53.8654C10.5338 54.1047 10.7158 54.399 10.8212 54.7234C10.9267 55.0478 10.9526 55.3928 10.8968 55.7293L10.5537 57.6733L12.3033 56.7585C12.6051 56.6011 12.9405 56.519 13.281 56.519C13.6214 56.519 13.9568 56.6011 14.2586 56.7585L15.9967 57.6847L15.6651 55.7408C15.6093 55.4042 15.6352 55.0592 15.7407 54.7348C15.8461 54.4104 16.0281 54.1162 16.2712 53.8769L17.6777 52.5047L15.7337 52.2188C15.3967 52.1734 15.0762 52.0452 14.8008 51.8456C14.5255 51.6461 14.3038 51.3814 14.1557 51.0753L13.321 49.3372L12.4519 51.0982C12.2998 51.4013 12.0771 51.6634 11.8024 51.8624C11.5278 52.0615 11.2093 52.1915 10.8739 52.2417L8.88422 52.4932ZM50.4845 41.813C47.7533 41.8115 45.123 40.7813 43.1173 38.9276C41.1115 37.0739 39.8777 34.5328 39.6614 31.8102C39.445 29.0876 40.2622 26.3835 41.95 24.2364C43.6379 22.0892 46.0726 20.6566 48.7692 20.2239V17.7997C48.7692 16.5866 48.2873 15.4232 47.4296 14.5654C46.5718 13.7076 45.4084 13.2257 44.1953 13.2257H39.1868L38.352 14.8838C38.257 15.0723 38.1116 15.2309 37.932 15.3419C37.7523 15.453 37.5455 15.5121 37.3343 15.5127H28.1864C27.9752 15.5121 27.7683 15.453 27.5887 15.3419C27.4091 15.2309 27.2637 15.0723 27.1687 14.8838L26.3339 13.2257H21.3254C20.1123 13.2257 18.9489 13.7076 18.0911 14.5654C17.2334 15.4232 16.7515 16.5866 16.7515 17.7997V38.3825C16.7515 38.6858 16.631 38.9767 16.4165 39.1911C16.2021 39.4056 15.9112 39.526 15.608 39.526C15.3047 39.526 15.0138 39.4056 14.7994 39.1911C14.5849 38.9767 14.4645 38.6858 14.4645 38.3825V17.7997C14.4645 15.98 15.1873 14.2349 16.474 12.9482C17.7607 11.6616 19.5058 10.9387 21.3254 10.9387H44.1953C46.0149 10.9387 47.76 11.6616 49.0467 12.9482C50.3334 14.2349 51.0562 15.98 51.0562 17.7997V20.0867C53.9373 20.1625 56.6703 21.3797 58.6539 23.4706C60.6376 25.5614 61.7094 28.3546 61.6335 31.2357C61.5577 34.1168 60.3405 36.8498 58.2496 38.8334C56.1588 40.817 53.3656 41.8888 50.4845 41.813ZM50.4845 22.3736C48.7883 22.3736 47.1301 22.8766 45.7198 23.819C44.3095 24.7614 43.2102 26.1008 42.5611 27.6679C41.912 29.235 41.7422 30.9594 42.0731 32.623C42.404 34.2866 43.2208 35.8147 44.4202 37.0141C45.6196 38.2135 47.1477 39.0303 48.8113 39.3612C50.475 39.6922 52.1994 39.5223 53.7664 38.8732C55.3335 38.2241 56.673 37.1249 57.6153 35.7145C58.5577 34.3042 59.0607 32.646 59.0607 30.9498C59.0607 28.6753 58.1571 26.4939 56.5488 24.8856C54.9404 23.2772 52.759 22.3736 50.4845 22.3736ZM50.393 37.3763C50.2981 37.3882 50.202 37.3882 50.1071 37.3763C47.7605 36.5312 45.8256 34.8213 44.6984 32.5965C43.452 30.401 43.5549 28.1712 45.0186 26.7761C45.4215 26.3876 45.9088 26.0977 46.4425 25.9291C46.9762 25.7604 47.5416 25.7177 48.0946 25.8041C48.9996 25.9416 49.8349 26.3713 50.473 27.0277C51.1087 26.3742 51.9394 25.9448 52.8401 25.8041C53.3913 25.7138 53.9559 25.7525 54.4896 25.9172C55.0233 26.0819 55.5116 26.3681 55.9161 26.7532C57.3569 28.1483 57.5284 30.3667 56.3392 32.5622C55.7559 33.7032 54.9493 34.7154 53.9671 35.5385C52.9849 36.3616 51.8472 36.9788 50.6217 37.3534C50.5466 37.37 50.4699 37.3777 50.393 37.3763ZM47.5228 28.0911C47.1834 28.0856 46.8552 28.2128 46.608 28.4456C45.5903 29.429 46.4937 31.1557 46.6881 31.4987C47.4988 33.0754 48.8099 34.3383 50.4159 35.0893C52.1077 34.4057 53.4962 33.1349 54.3266 31.5101C54.8526 30.5382 55.1385 29.2232 54.3266 28.4456C54.176 28.3035 53.9938 28.1993 53.7949 28.1416C53.5961 28.0839 53.3864 28.0745 53.1831 28.114C52.8614 28.1742 52.5583 28.309 52.2981 28.5076C52.038 28.7061 51.828 28.963 51.6851 29.2575C51.4221 29.7949 51.4107 29.8063 51.2735 29.9436C51.0614 30.143 50.7813 30.254 50.4902 30.254C50.1991 30.254 49.919 30.143 49.7069 29.9436C49.5354 29.7835 49.5125 29.7377 49.2381 29.1774C49.0887 28.8979 48.8787 28.6553 48.6235 28.4673C48.3683 28.2794 48.0742 28.1508 47.763 28.0911H47.5228Z" stroke="white" mask="url(#path-2-outside-1_105_80)"/>
</g>
</g>
<path id="Star 1" d="M12.878 48.9558C12.9214 48.8224 12.98 48.7677 13.0245 48.7374C13.0817 48.6984 13.1689 48.6671 13.2754 48.6671C13.382 48.6671 13.4692 48.6984 13.5264 48.7374C13.5709 48.7677 13.6295 48.8224 13.6729 48.9558C14.2643 50.7761 15.9606 52.0085 17.8745 52.0085C18.0148 52.0085 18.0849 52.0473 18.1275 52.0803C18.1823 52.1227 18.2391 52.1959 18.272 52.2972C18.3049 52.3986 18.3021 52.4912 18.2826 52.5577C18.2675 52.6094 18.2336 52.682 18.1202 52.7645C16.5718 53.8894 15.9238 55.8835 16.5153 57.7038C16.5586 57.8372 16.5434 57.9159 16.5252 57.9666C16.5018 58.0318 16.4497 58.1084 16.3635 58.171C16.2773 58.2336 16.1883 58.2596 16.1191 58.2616C16.0653 58.2633 15.9857 58.2535 15.8722 58.171C14.3238 57.046 12.2271 57.046 10.6787 58.171C10.5652 58.2535 10.4856 58.2633 10.4318 58.2616C10.3626 58.2596 10.2736 58.2336 10.1874 58.171C10.1012 58.1084 10.0491 58.0318 10.0257 57.9666C10.0075 57.9159 9.99228 57.8372 10.0356 57.7038C10.6271 55.8835 9.97914 53.8894 8.43073 52.7645C8.31726 52.682 8.28335 52.6094 8.26825 52.5577C8.24884 52.4912 8.246 52.3986 8.27892 52.2972C8.31185 52.1959 8.36857 52.1227 8.42336 52.0803C8.46597 52.0473 8.5361 52.0085 8.67636 52.0085C10.5903 52.0085 12.2866 50.7761 12.878 48.9558Z" stroke="#FF4167" stroke-width="4"/>
<circle id="Ellipse 22" cx="13.319" cy="53.7911" r="9.6383" stroke="#FF4167" stroke-width="2.5"/>
</g>
</svg>
