<svg width="76" height="69" viewBox="0 0 76 69" fill="none" xmlns="http://www.w3.org/2000/svg">
<g id="Group 351">
<path id="Rectangle 113" d="M40.3008 36.8655H3.65358V12.7888C3.65358 5.84629 9.2816 0.218273 16.2241 0.218273H40.3008V36.8655Z" fill="#22DDB1"/>
<path id="Vector" d="M1.87674 43.3652L6.74844 46.1107C7.12283 46.3232 7.54589 46.4352 7.97639 46.4357C8.21866 46.4354 8.45963 46.4003 8.69188 46.3313C9.01449 46.2373 9.31474 46.0789 9.57454 45.8658C9.83435 45.6527 10.0483 45.3892 10.2036 45.0911L10.9937 43.5876L13.5171 45.6933L10.0032 50.5706C9.3834 51.4309 9.13076 52.5022 9.3008 53.5488C9.47084 54.5954 10.0496 55.5316 10.9099 56.1515L11.3322 56.4557C12.0108 56.9458 12.8267 57.2092 13.6637 57.2085C14.0193 57.2079 14.3733 57.1602 14.7164 57.0669C14.7495 57.6613 14.9151 58.2407 15.2011 58.7628C15.4871 59.285 15.8863 59.7365 16.3693 60.0844L16.7915 60.3885C17.4687 60.8792 18.2836 61.1434 19.1199 61.1435C19.4765 61.1435 19.8315 61.0962 20.1757 61.0029C20.2091 61.5966 20.3748 62.1754 20.6606 62.6968C20.9465 63.2182 21.3452 63.6692 21.8277 64.0168L22.2499 64.321C22.9284 64.8112 23.7444 65.0746 24.5814 65.0737C24.9362 65.0732 25.2893 65.0257 25.6316 64.9327C25.6394 65.0714 25.6543 65.2096 25.6763 65.3468C25.7592 65.8655 25.9442 66.3626 26.2205 66.8094C26.4968 67.2561 26.859 67.6436 27.2861 67.9494L27.7083 68.2536C28.5689 68.8725 29.6399 69.1246 30.6862 68.9546C31.7326 68.7845 32.6687 68.2063 33.289 67.3467L34.693 65.3981L36.8981 67.1609C37.5633 67.7311 38.378 68.0988 39.2457 68.2201C40.1134 68.3415 40.9978 68.2116 41.7939 67.8458C42.5901 67.4799 43.2647 66.8935 43.7377 66.156C44.2108 65.4185 44.4625 64.5608 44.463 63.6846C45.1601 63.9954 45.9239 64.1269 46.6848 64.0672C47.4457 64.0075 48.1796 63.7586 48.8198 63.3429C49.4599 62.9273 49.986 62.3583 50.3502 61.6875C50.7144 61.0168 50.9051 60.2656 50.905 59.5023C51.4893 59.7634 52.1222 59.8981 52.7621 59.8976C52.8753 59.8976 52.9892 59.8935 53.1032 59.8851C54.2344 59.803 55.2948 59.3039 56.0791 58.4846C56.8633 57.6653 57.3155 56.584 57.3481 55.4503C58.0245 55.828 58.7865 56.0258 59.5612 56.0249C59.6768 56.0249 59.7933 56.0208 59.9097 56.012C60.5128 55.9678 61.1012 55.8048 61.6409 55.5322C62.1807 55.2596 62.6612 54.8829 63.0547 54.4237L63.1154 54.3534C63.4996 53.9085 63.7925 53.3923 63.9773 52.8342C64.162 52.2761 64.235 51.6871 64.1921 51.1008C64.1492 50.5145 63.9912 49.9424 63.7272 49.4172C63.4631 48.892 63.0982 48.4239 62.6533 48.0397L61.0595 46.6652C62.1819 45.9947 63.1652 45.1152 63.9562 44.0743L64.0242 44.2184C64.2251 44.6492 64.5447 45.0137 64.9456 45.2692C65.3464 45.5247 65.8118 45.6605 66.2872 45.6607C66.633 45.6603 66.975 45.5889 67.292 45.4508L72.4235 43.2279C72.7317 43.0944 73.0099 42.9003 73.2418 42.6573C73.4736 42.4143 73.6543 42.1272 73.7732 41.8131C73.892 41.4989 73.9467 41.1641 73.9338 40.8285C73.9209 40.4929 73.8408 40.1633 73.6983 39.8592L61.263 13.3356C60.9912 12.7584 60.5102 12.3062 59.9174 12.0704C59.3246 11.8346 58.6644 11.8329 58.0704 12.0657L52.797 14.1436C52.4775 14.2695 52.1872 14.4596 51.9442 14.7022C51.7011 14.9448 51.5104 15.2347 51.3838 15.5539C51.2573 15.8732 51.1976 16.215 51.2085 16.5583C51.2193 16.9015 51.3005 17.2389 51.447 17.5495L52.2085 19.1644L51.554 19.4434C49.4374 19.8878 47.9748 19.8284 45.7994 19.217L40.5318 17.7362C39.0548 17.3199 37.4882 17.3452 36.0255 17.8091L30.94 19.4172C29.8982 19.7469 28.9365 20.2901 28.1162 21.0121C27.224 20.7062 25.4457 20.2838 23.0515 20.6266L23.8238 19.1563C24.1194 18.591 24.1891 17.9345 24.0188 17.3197C23.8485 16.7049 23.4509 16.1778 22.9065 15.8453L18.0646 12.8994C17.7712 12.721 17.4444 12.6047 17.1044 12.5576C16.7643 12.5106 16.4182 12.5338 16.0874 12.6258C15.7567 12.7179 15.4483 12.8768 15.1814 13.0928C14.9146 13.3088 14.6949 13.5773 14.5359 13.8816L0.884304 40.0172C0.579905 40.5943 0.513313 41.2677 0.69876 41.8933C0.884206 42.5189 1.30698 43.0471 1.87674 43.3652ZM12.3778 55.0045L11.9555 54.6995C11.4802 54.357 11.1603 53.8396 11.0664 53.2613C10.9724 52.683 11.1121 52.091 11.4545 51.6156L16.833 44.1501C17.0026 43.9147 17.217 43.715 17.4638 43.5624C17.7105 43.4098 17.985 43.3073 18.2714 43.2608C18.5578 43.2143 18.8506 43.2247 19.133 43.2913C19.4154 43.358 19.6819 43.4796 19.9172 43.6493L20.3392 43.9532C20.8141 44.2962 21.1335 44.8135 21.2275 45.3916C21.3214 45.9698 21.1822 46.5616 20.8404 47.0373L15.4617 54.5026C15.1189 54.9776 14.6017 55.2972 14.0236 55.3913C13.4454 55.4854 12.8535 55.3463 12.3778 55.0045ZM19.4821 59.3253C19.1958 59.3727 18.9029 59.3629 18.6204 59.2964C18.3379 59.2299 18.0714 59.1079 17.8364 58.9377L17.4144 58.6338C16.9395 58.2909 16.62 57.7736 16.5261 57.1954C16.4321 56.6172 16.5714 56.0254 16.9132 55.5497L20.8964 50.021C21.0655 49.7851 21.2796 49.5851 21.5264 49.4325C21.7733 49.2799 22.048 49.1778 22.3345 49.132C22.4532 49.1126 22.5733 49.1029 22.6936 49.1029C23.1557 49.1029 23.606 49.249 23.9801 49.5203L24.4024 49.8245C24.6378 49.9941 24.8375 50.2084 24.9901 50.4552C25.1427 50.7019 25.2452 50.9763 25.2917 51.2627C25.3382 51.549 25.3279 51.8418 25.2613 52.1241C25.1947 52.4065 25.0732 52.673 24.9036 52.9084L20.9205 58.437C20.7514 58.6728 20.5372 58.8727 20.2903 59.0251C20.0434 59.1776 19.7687 59.2796 19.4821 59.3253ZM23.2949 62.8697L22.8728 62.5655C22.3979 62.2226 22.0785 61.7053 21.9845 61.1271C21.8906 60.5489 22.0298 59.9571 22.3716 59.4815L25.213 55.5378C25.5559 55.0629 26.0731 54.7434 26.6513 54.6494C27.2294 54.5555 27.8213 54.6947 28.2969 55.0365L28.7192 55.3408C29.1946 55.6833 29.5145 56.2006 29.6085 56.779C29.7025 57.3574 29.5628 57.9494 29.2203 58.4248L26.379 62.3686C26.036 62.8434 25.5187 63.1628 24.9405 63.2568C24.3624 63.3507 23.7706 63.2115 23.2949 62.8697ZM31.8375 66.3012C31.4945 66.776 30.9772 67.0954 30.3991 67.1893C29.8209 67.2832 29.2292 67.1441 28.7535 66.8024L28.3313 66.4981C27.8559 66.1556 27.536 65.6383 27.442 65.0599C27.3481 64.4815 27.4877 63.8895 27.8302 63.4141L29.5295 61.0551C29.8724 60.5802 30.3896 60.2607 30.9678 60.1668C31.5459 60.0728 32.1377 60.2121 32.6134 60.554L33.0356 60.8582C33.271 61.0278 33.4707 61.2421 33.6233 61.4888C33.7759 61.7356 33.8784 62.01 33.9249 62.2963C33.9715 62.5827 33.9611 62.8754 33.8945 63.1578C33.8279 63.4402 33.7064 63.7067 33.5368 63.9421L31.8375 66.3012ZM53.0465 16.2132C53.0826 16.1212 53.1372 16.0377 53.2072 15.9679C53.2771 15.8982 53.3607 15.8437 53.4527 15.8079L58.7262 13.7301C58.8968 13.6632 59.0865 13.6636 59.2568 13.7313C59.4272 13.7991 59.5654 13.929 59.6435 14.0949L72.0787 40.6179C72.1197 40.7053 72.1427 40.8 72.1464 40.8964C72.1501 40.9929 72.1344 41.0891 72.1002 41.1793C72.066 41.2696 72.0141 41.3521 71.9475 41.4219C71.8809 41.4918 71.8009 41.5475 71.7123 41.5859L66.581 43.8088C66.4092 43.8841 66.2148 43.8893 66.0393 43.8231C65.8638 43.757 65.7212 43.6248 65.6419 43.4548L64.9711 42.0322C64.9431 41.8777 64.875 41.7334 64.7736 41.6136L53.0647 16.7864C53.0222 16.6973 52.9987 16.6004 52.9956 16.5017C52.9924 16.403 53.0098 16.3048 53.0465 16.2132ZM31.4795 21.1229L36.5642 19.5145C37.6947 19.156 38.9055 19.1364 40.0471 19.4582L45.3154 20.9389C47.8062 21.6395 49.5586 21.7006 52.0121 21.1746C52.068 21.1627 52.1227 21.1453 52.1753 21.1229L52.9722 20.7833L63.0682 42.191C62.2459 43.5724 61.0467 44.6907 59.6114 45.4149L55.388 41.7686L41.5405 28.0775C40.674 27.2221 39.6052 26.5998 38.4335 26.2684L36.0505 25.5963C35.9702 25.574 35.8873 25.5626 35.804 25.5626C34.3432 25.5687 33.1424 26.3675 32.3298 27.873C31.979 28.5351 31.7281 29.2454 31.5854 29.981C31.5805 30.0101 31.577 30.0395 31.575 30.069C31.569 30.1574 31.5618 30.2446 31.5534 30.3307C31.4716 31.1724 31.2027 31.9851 30.7662 32.7095C30.3297 33.4338 29.7368 34.0513 29.0309 34.5169C28.2678 35.0103 27.4006 35.3196 26.4975 35.4205C25.5945 35.5214 24.6803 35.4111 23.8272 35.0982L25.1213 31.1481C25.4308 30.2033 25.7793 29.2575 26.157 28.3372L27.7072 24.56C28.0493 23.7479 28.5638 23.0199 29.2151 22.4264C29.8665 21.8329 30.6391 21.3881 31.4795 21.1229ZM26.1682 22.3835C26.4018 22.4173 26.6134 22.458 26.8044 22.5009C26.5105 22.9323 26.2598 23.3917 26.0561 23.8723L24.5023 27.6584C24.108 28.6188 23.7445 29.6055 23.4215 30.5916L21.8713 35.3242C21.8023 35.5346 21.8139 35.763 21.9037 35.9654C21.9935 36.1677 22.1551 36.3296 22.3573 36.4196L22.6912 36.5687C23.8607 37.1041 25.1471 37.3335 26.4295 37.2352C27.712 37.1369 28.9484 36.7141 30.0226 36.0067C30.9498 35.3944 31.7284 34.5825 32.3014 33.6304C32.8744 32.6783 33.2272 31.6101 33.3341 30.5041C33.3424 30.4192 33.3497 30.3335 33.356 30.2469C33.4223 29.919 33.9752 27.468 35.698 27.357L37.9488 27.9918C38.8293 28.2408 39.6326 28.7085 40.2838 29.3514L54.1527 43.0632C54.1676 43.0781 54.1825 43.0911 54.1974 43.1043L61.4848 49.3946C61.7519 49.6253 61.9711 49.9063 62.1296 50.2216C62.2881 50.5369 62.383 50.8804 62.4088 51.2324C62.4346 51.5843 62.3907 51.938 62.2798 52.273C62.1689 52.6081 61.9931 52.918 61.7623 53.1851L61.7017 53.2553C61.461 53.5364 61.1671 53.7672 60.8368 53.9342C60.5066 54.1013 60.1466 54.2013 59.7775 54.2286C59.4114 54.2569 59.0433 54.2121 58.6946 54.097C58.346 53.9819 58.0236 53.7986 57.7464 53.5579L55.7842 51.862C55.7782 51.8568 55.7727 51.8513 55.7667 51.8461L50.7655 47.5259L50.5432 47.334C50.4545 47.2561 50.3513 47.1966 50.2394 47.1587C50.1276 47.1209 50.0094 47.1056 49.8916 47.1138C49.7738 47.1219 49.6588 47.1532 49.5532 47.206C49.4476 47.2588 49.3535 47.332 49.2763 47.4213C49.1991 47.5106 49.1404 47.6144 49.1035 47.7265C49.0666 47.8387 49.0523 47.957 49.0613 48.0747C49.0704 48.1924 49.1027 48.3072 49.1563 48.4124C49.21 48.5175 49.2839 48.611 49.3739 48.6875L49.5253 48.8184C50.1193 49.3313 52.3925 51.2951 54.6064 53.2083C55.1614 53.6954 55.5009 54.3824 55.551 55.1191C55.6011 55.8558 55.3575 56.5823 54.8736 57.14C54.3896 57.6977 53.7047 58.0412 52.9683 58.0955C52.2319 58.1498 51.5039 57.9104 50.9435 57.4297L49.3247 56.0313L49.3223 56.0293L45.7191 52.916C45.6304 52.8383 45.5271 52.7788 45.4153 52.7412C45.3035 52.7035 45.1854 52.6883 45.0677 52.6965C44.95 52.7047 44.8351 52.7361 44.7296 52.7889C44.624 52.8417 44.53 52.9148 44.4529 53.0041C44.3758 53.0934 44.3171 53.197 44.2802 53.3091C44.2433 53.4211 44.229 53.5394 44.238 53.657C44.247 53.7747 44.2792 53.8894 44.3327 53.9945C44.3862 54.0996 44.46 54.1931 44.5499 54.2696L48.1522 57.3815C48.4305 57.6213 48.6589 57.9136 48.8242 58.2416C48.9895 58.5697 49.0885 58.9271 49.1155 59.2935C49.1425 59.6599 49.0971 60.028 48.9817 60.3768C48.8664 60.7256 48.6834 61.0482 48.4432 61.3262C48.2031 61.6042 47.9105 61.8321 47.5821 61.9969C47.2538 62.1618 46.8962 62.2602 46.5298 62.2867C46.1634 62.3132 45.7954 62.2673 45.4468 62.1514C45.0982 62.0355 44.7758 61.8521 44.4981 61.6115L40.8955 58.5005C40.8068 58.4228 40.7036 58.3633 40.5918 58.3257C40.4799 58.288 40.3618 58.2728 40.2441 58.281C40.1264 58.2892 40.0115 58.3206 39.906 58.3734C39.8005 58.4262 39.7065 58.4993 39.6293 58.5886C39.5522 58.6779 39.4935 58.7815 39.4567 58.8936C39.4198 59.0056 39.4054 59.1239 39.4144 59.2415C39.4234 59.3592 39.4556 59.4739 39.5092 59.579C39.5627 59.6841 39.6365 59.7776 39.7263 59.8541L41.5465 61.4264L41.7076 61.5656C41.9881 61.8047 42.2185 62.097 42.3856 62.4255C42.5526 62.754 42.6531 63.1123 42.6811 63.4798C42.7092 63.8473 42.6643 64.2167 42.549 64.5667C42.4337 64.9168 42.2503 65.2406 42.0093 65.5195C41.7684 65.7984 41.4747 66.0269 41.1451 66.1918C40.8155 66.3568 40.4565 66.4549 40.0889 66.4805C39.7212 66.5062 39.3521 66.4589 39.0028 66.3413C38.6535 66.2237 38.3309 66.0382 38.0536 65.7955C38.0449 65.788 38.0361 65.7806 38.0273 65.7737L35.5717 63.8115C35.8128 63.0136 35.7988 62.1604 35.5316 61.3709C35.2643 60.5814 34.7573 59.8951 34.0811 59.4077L33.6589 59.1035C32.9551 58.5951 32.1044 58.331 31.2365 58.3515C31.493 57.5476 31.4889 56.6832 31.2246 55.8818C30.9602 55.0804 30.4493 54.3832 29.7648 53.8897L29.3425 53.5854C28.6386 53.0772 27.7877 52.8134 26.9197 52.8342C27.1763 52.0303 27.1721 51.1658 26.9078 50.3644C26.6435 49.5631 26.1326 48.8658 25.4481 48.3722L25.0258 48.068C24.356 47.5832 23.5516 47.3197 22.7248 47.3144C23.0797 46.4791 23.1404 45.5481 22.8969 44.6739C22.6535 43.7996 22.1203 43.034 21.3847 42.5024L20.9626 42.1985C20.1023 41.5787 19.031 41.3261 17.9844 41.4962C16.9378 41.6662 16.0016 42.2451 15.3818 43.1054L14.5653 44.2382L11.8431 41.9682L21.9801 22.6677C23.3433 22.2955 24.7671 22.1989 26.1682 22.3835ZM2.46985 40.8446L16.1205 14.7097C16.1659 14.622 16.2289 14.5446 16.3057 14.4825C16.3825 14.4203 16.4713 14.3748 16.5665 14.3487C16.6301 14.3309 16.6958 14.3219 16.7618 14.3219C16.8934 14.3221 17.0223 14.3587 17.1344 14.4274L21.9763 17.3742C22.1327 17.4697 22.247 17.6212 22.2959 17.7978C22.3448 17.9744 22.3248 18.1631 22.2399 18.3255L8.61929 44.2597C8.57438 44.3451 8.5128 44.4206 8.43819 44.4818C8.36358 44.543 8.27745 44.5886 8.1849 44.6159C8.09235 44.6432 7.99526 44.6517 7.89938 44.6408C7.8035 44.6299 7.71078 44.5999 7.6267 44.5526L2.755 41.8069C2.59122 41.7155 2.4697 41.5637 2.41641 41.3838C2.36312 41.204 2.3823 41.0105 2.46985 40.8446Z" fill="black"/>
<g id="Rectangle 114">
<mask id="path-3-inside-1_155_53" fill="white">
<rect x="50.3799" y="15.0212" width="11.0444" height="35.4961" rx="2" transform="rotate(-24.2488 50.3799 15.0212)"/>
</mask>
<rect x="50.3799" y="15.0212" width="11.0444" height="35.4961" rx="2" transform="rotate(-24.2488 50.3799 15.0212)" stroke="#22DDB1" stroke-width="6" mask="url(#path-3-inside-1_155_53)"/>
</g>
</g>
</svg>
