<svg width="288" height="293" viewBox="0 0 288 293" fill="none" xmlns="http://www.w3.org/2000/svg">
<g opacity="0.3">
<mask id="mask0_106_236" style="mask-type:alpha" maskUnits="userSpaceOnUse" x="0" y="0" width="288" height="293">
<path d="M0.0751953 8.70361C0.0751953 4.28533 3.65692 0.703613 8.0752 0.703613H279.201C283.619 0.703613 287.201 4.28534 287.201 8.70361V172.362C287.201 238.636 233.475 292.362 167.201 292.362H8.07519C3.65691 292.362 0.0751953 288.78 0.0751953 284.362V8.70361Z" fill="#CCCCCC"/>
</mask>
<g mask="url(#mask0_106_236)">
<line x1="0.291498" y1="-157.762" x2="0.291489" y2="291.979" stroke="white" stroke-width="0.432605"/>
<line x1="26.6821" y1="-157.762" x2="26.6821" y2="291.978" stroke="white" stroke-width="0.432605"/>
<line x1="53.0703" y1="-157.762" x2="53.0703" y2="291.978" stroke="white" stroke-width="0.432605"/>
<line x1="79.4575" y1="-157.763" x2="79.4575" y2="291.977" stroke="white" stroke-width="0.432605"/>
<line x1="105.846" y1="-157.763" x2="105.846" y2="291.977" stroke="white" stroke-width="0.432605"/>
<line x1="132.235" y1="-157.763" x2="132.235" y2="291.977" stroke="white" stroke-width="0.432605"/>
<line x1="158.624" y1="-157.763" x2="158.624" y2="291.977" stroke="white" stroke-width="0.432605"/>
<line x1="185.013" y1="-157.763" x2="185.013" y2="291.977" stroke="white" stroke-width="0.432605"/>
<line x1="211.402" y1="-157.763" x2="211.402" y2="291.977" stroke="white" stroke-width="0.432605"/>
<line x1="237.79" y1="-157.763" x2="237.79" y2="291.977" stroke="white" stroke-width="0.432605"/>
<line x1="264.178" y1="-157.763" x2="264.178" y2="291.977" stroke="white" stroke-width="0.432605"/>
<line x1="448.822" y1="0.785395" x2="0.0768737" y2="0.785369" stroke="white" stroke-width="0.432605"/>
<line x1="448.822" y1="27.1741" x2="0.0768737" y2="27.174" stroke="white" stroke-width="0.432605"/>
<line x1="448.822" y1="53.5625" x2="0.0768737" y2="53.5625" stroke="white" stroke-width="0.432605"/>
<line x1="448.822" y1="79.9517" x2="0.0768737" y2="79.9516" stroke="white" stroke-width="0.432605"/>
<line x1="448.822" y1="106.339" x2="0.0768737" y2="106.339" stroke="white" stroke-width="0.432605"/>
<line x1="448.822" y1="132.729" x2="0.0768737" y2="132.729" stroke="white" stroke-width="0.432605"/>
<line x1="448.822" y1="159.307" x2="0.0768737" y2="159.307" stroke="white" stroke-width="0.432605"/>
<line x1="448.822" y1="185.884" x2="0.0768737" y2="185.884" stroke="white" stroke-width="0.432605"/>
<line x1="448.822" y1="212.462" x2="0.0768737" y2="212.462" stroke="white" stroke-width="0.432605"/>
<line x1="448.822" y1="239.04" x2="0.0768737" y2="239.04" stroke="white" stroke-width="0.432605"/>
<line x1="448.822" y1="265.617" x2="0.0768737" y2="265.617" stroke="white" stroke-width="0.432605"/>
<line x1="448.822" y1="292.195" x2="0.0768737" y2="292.195" stroke="white" stroke-width="0.432605"/>
</g>
</g>
</svg>
