<svg width="289" height="293" viewBox="0 0 289 293" fill="none" xmlns="http://www.w3.org/2000/svg">
<g opacity="0.3">
<mask id="mask0_106_276" style="mask-type:alpha" maskUnits="userSpaceOnUse" x="0" y="0" width="289" height="293">
<path d="M0.932617 8.70361C0.932617 4.28533 4.51434 0.703613 8.93262 0.703613H280.059C284.477 0.703613 288.059 4.28534 288.059 8.70361V172.362C288.059 238.636 234.333 292.362 168.059 292.362H8.93261C4.51433 292.362 0.932617 288.78 0.932617 284.362V8.70361Z" fill="#CCCCCC"/>
</mask>
<g mask="url(#mask0_106_276)">
<line x1="1.14892" y1="-157.762" x2="1.14891" y2="291.979" stroke="#242424" stroke-width="0.432605"/>
<line x1="27.5395" y1="-157.762" x2="27.5395" y2="291.978" stroke="#242424" stroke-width="0.432605"/>
<line x1="53.9277" y1="-157.762" x2="53.9277" y2="291.978" stroke="#242424" stroke-width="0.432605"/>
<line x1="80.3149" y1="-157.763" x2="80.3149" y2="291.977" stroke="#242424" stroke-width="0.432605"/>
<line x1="106.704" y1="-157.763" x2="106.704" y2="291.977" stroke="#242424" stroke-width="0.432605"/>
<line x1="133.092" y1="-157.763" x2="133.092" y2="291.977" stroke="#242424" stroke-width="0.432605"/>
<line x1="159.481" y1="-157.763" x2="159.481" y2="291.977" stroke="#242424" stroke-width="0.432605"/>
<line x1="185.871" y1="-157.763" x2="185.871" y2="291.977" stroke="#242424" stroke-width="0.432605"/>
<line x1="212.259" y1="-157.763" x2="212.259" y2="291.977" stroke="#242424" stroke-width="0.432605"/>
<line x1="238.647" y1="-157.763" x2="238.647" y2="291.977" stroke="#242424" stroke-width="0.432605"/>
<line x1="265.036" y1="-157.763" x2="265.036" y2="291.977" stroke="#242424" stroke-width="0.432605"/>
<line x1="449.679" y1="0.785395" x2="0.934296" y2="0.785369" stroke="#242424" stroke-width="0.432605"/>
<line x1="449.679" y1="27.1741" x2="0.934296" y2="27.174" stroke="#242424" stroke-width="0.432605"/>
<line x1="449.679" y1="53.5625" x2="0.934296" y2="53.5625" stroke="#242424" stroke-width="0.432605"/>
<line x1="449.679" y1="79.9517" x2="0.934296" y2="79.9516" stroke="#242424" stroke-width="0.432605"/>
<line x1="449.679" y1="106.339" x2="0.934296" y2="106.339" stroke="#242424" stroke-width="0.432605"/>
<line x1="449.679" y1="132.729" x2="0.934296" y2="132.729" stroke="#242424" stroke-width="0.432605"/>
<line x1="449.679" y1="159.307" x2="0.934296" y2="159.307" stroke="#242424" stroke-width="0.432605"/>
<line x1="449.679" y1="185.884" x2="0.934296" y2="185.884" stroke="#242424" stroke-width="0.432605"/>
<line x1="449.679" y1="212.462" x2="0.934296" y2="212.462" stroke="#242424" stroke-width="0.432605"/>
<line x1="449.679" y1="239.04" x2="0.934296" y2="239.04" stroke="#242424" stroke-width="0.432605"/>
<line x1="449.679" y1="265.617" x2="0.934296" y2="265.617" stroke="#242424" stroke-width="0.432605"/>
<line x1="449.679" y1="292.195" x2="0.934296" y2="292.195" stroke="#242424" stroke-width="0.432605"/>
</g>
</g>
</svg>
