<svg width="288" height="292" viewBox="0 0 288 292" fill="none" xmlns="http://www.w3.org/2000/svg">
<g opacity="0.3">
<mask id="mask0_106_316" style="mask-type:alpha" maskUnits="userSpaceOnUse" x="0" y="0" width="288" height="292">
<path d="M287.799 283.721C287.799 288.139 284.218 291.721 279.799 291.721H8.67331C4.25504 291.721 0.673309 288.139 0.673309 283.721V120.063C0.673309 53.7888 54.3991 0.0629883 120.673 0.0629883H279.799C284.218 0.0629883 287.799 3.64471 287.799 8.06299V283.721Z" fill="#CCCCCC"/>
</mask>
<g mask="url(#mask0_106_316)">
<line x1="287.583" y1="450.187" x2="287.583" y2="0.44635" stroke="#242424" stroke-width="0.432605"/>
<line x1="261.192" y1="450.187" x2="261.192" y2="0.446838" stroke="#242424" stroke-width="0.432605"/>
<line x1="234.804" y1="450.187" x2="234.804" y2="0.446838" stroke="#242424" stroke-width="0.432605"/>
<line x1="208.417" y1="450.188" x2="208.417" y2="0.447693" stroke="#242424" stroke-width="0.432605"/>
<line x1="182.028" y1="450.188" x2="182.028" y2="0.447693" stroke="#242424" stroke-width="0.432605"/>
<line x1="155.64" y1="450.188" x2="155.64" y2="0.447693" stroke="#242424" stroke-width="0.432605"/>
<line x1="129.25" y1="450.188" x2="129.251" y2="0.447693" stroke="#242424" stroke-width="0.432605"/>
<line x1="102.861" y1="450.188" x2="102.861" y2="0.447693" stroke="#242424" stroke-width="0.432605"/>
<line x1="76.4727" y1="450.188" x2="76.4727" y2="0.447693" stroke="#242424" stroke-width="0.432605"/>
<line x1="50.0845" y1="450.188" x2="50.0845" y2="0.447693" stroke="#242424" stroke-width="0.432605"/>
<line x1="23.6963" y1="450.188" x2="23.6963" y2="0.447693" stroke="#242424" stroke-width="0.432605"/>
<line x1="-160.947" y1="291.64" x2="287.798" y2="291.64" stroke="#242424" stroke-width="0.432605"/>
<line x1="-160.947" y1="265.251" x2="287.798" y2="265.251" stroke="#242424" stroke-width="0.432605"/>
<line x1="-160.947" y1="238.862" x2="287.798" y2="238.862" stroke="#242424" stroke-width="0.432605"/>
<line x1="-160.947" y1="212.473" x2="287.798" y2="212.473" stroke="#242424" stroke-width="0.432605"/>
<line x1="-160.947" y1="186.085" x2="287.798" y2="186.085" stroke="#242424" stroke-width="0.432605"/>
<line x1="-160.947" y1="159.696" x2="287.798" y2="159.696" stroke="#242424" stroke-width="0.432605"/>
<line x1="-160.947" y1="133.118" x2="287.798" y2="133.118" stroke="#242424" stroke-width="0.432605"/>
<line x1="-160.947" y1="106.541" x2="287.798" y2="106.541" stroke="#242424" stroke-width="0.432605"/>
<line x1="-160.947" y1="79.9629" x2="287.798" y2="79.9629" stroke="#242424" stroke-width="0.432605"/>
<line x1="-160.947" y1="53.3854" x2="287.798" y2="53.3854" stroke="#242424" stroke-width="0.432605"/>
<line x1="-160.947" y1="26.8076" x2="287.798" y2="26.8076" stroke="#242424" stroke-width="0.432605"/>
<line x1="-160.947" y1="0.230108" x2="287.798" y2="0.230134" stroke="#242424" stroke-width="0.432605"/>
</g>
</g>
</svg>
