<svg width="289" height="293" viewBox="0 0 289 293" fill="none" xmlns="http://www.w3.org/2000/svg">
<g opacity="0.3">
<mask id="mask0_106_356" style="mask-type:alpha" maskUnits="userSpaceOnUse" x="0" y="0" width="289" height="293">
<path d="M288.059 284.289C288.059 288.707 284.477 292.289 280.059 292.289H8.93259C4.51431 292.289 0.932587 288.707 0.932587 284.289V120.63C0.932587 54.3562 54.6584 0.630371 120.933 0.630371H280.059C284.477 0.630371 288.059 4.2121 288.059 8.63037V284.289Z" fill="#CCCCCC"/>
</mask>
<g mask="url(#mask0_106_356)">
<line x1="287.842" y1="450.754" x2="287.842" y2="1.01373" stroke="white" stroke-width="0.432605"/>
<line x1="261.452" y1="450.755" x2="261.452" y2="1.01422" stroke="white" stroke-width="0.432605"/>
<line x1="235.063" y1="450.755" x2="235.063" y2="1.01422" stroke="white" stroke-width="0.432605"/>
<line x1="208.676" y1="450.755" x2="208.676" y2="1.01508" stroke="white" stroke-width="0.432605"/>
<line x1="182.288" y1="450.755" x2="182.288" y2="1.01508" stroke="white" stroke-width="0.432605"/>
<line x1="155.899" y1="450.755" x2="155.899" y2="1.01508" stroke="white" stroke-width="0.432605"/>
<line x1="129.51" y1="450.755" x2="129.51" y2="1.01508" stroke="white" stroke-width="0.432605"/>
<line x1="103.121" y1="450.755" x2="103.121" y2="1.01508" stroke="white" stroke-width="0.432605"/>
<line x1="76.7319" y1="450.755" x2="76.7319" y2="1.01508" stroke="white" stroke-width="0.432605"/>
<line x1="50.3438" y1="450.755" x2="50.3438" y2="1.01508" stroke="white" stroke-width="0.432605"/>
<line x1="23.9556" y1="450.755" x2="23.9556" y2="1.01508" stroke="white" stroke-width="0.432605"/>
<line x1="-160.688" y1="292.207" x2="288.057" y2="292.207" stroke="white" stroke-width="0.432605"/>
<line x1="-160.688" y1="265.818" x2="288.057" y2="265.818" stroke="white" stroke-width="0.432605"/>
<line x1="-160.688" y1="239.43" x2="288.057" y2="239.43" stroke="white" stroke-width="0.432605"/>
<line x1="-160.688" y1="213.041" x2="288.057" y2="213.041" stroke="white" stroke-width="0.432605"/>
<line x1="-160.688" y1="186.653" x2="288.057" y2="186.653" stroke="white" stroke-width="0.432605"/>
<line x1="-160.688" y1="160.263" x2="288.057" y2="160.263" stroke="white" stroke-width="0.432605"/>
<line x1="-160.688" y1="133.686" x2="288.057" y2="133.686" stroke="white" stroke-width="0.432605"/>
<line x1="-160.688" y1="107.108" x2="288.057" y2="107.108" stroke="white" stroke-width="0.432605"/>
<line x1="-160.688" y1="80.5303" x2="288.057" y2="80.5303" stroke="white" stroke-width="0.432605"/>
<line x1="-160.688" y1="53.9528" x2="288.057" y2="53.9528" stroke="white" stroke-width="0.432605"/>
<line x1="-160.688" y1="27.375" x2="288.057" y2="27.375" stroke="white" stroke-width="0.432605"/>
<line x1="-160.688" y1="0.797491" x2="288.057" y2="0.797517" stroke="white" stroke-width="0.432605"/>
</g>
</g>
</svg>
