<svg width="616" height="626" viewBox="0 0 616 626" fill="none" xmlns="http://www.w3.org/2000/svg">
<g opacity="0.4">
<mask id="mask0_106_235" style="mask-type:alpha" maskUnits="userSpaceOnUse" x="0" y="0" width="616" height="626">
<path d="M0.544922 8.7036C0.544922 4.28532 4.12664 0.703613 8.54492 0.703613H607.85C612.268 0.703613 615.85 4.28534 615.85 8.70361V505.721C615.85 571.995 562.124 625.721 495.85 625.721H8.54492C4.12665 625.721 0.544922 622.139 0.544922 617.721V8.7036Z" fill="#CCCCCC"/>
</mask>
<g mask="url(#mask0_106_235)">
<line x1="0.761225" y1="0.705078" x2="0.761213" y2="624.899" stroke="#242424" stroke-width="0.432605"/>
<line x1="37.3872" y1="0.705078" x2="37.3872" y2="624.899" stroke="#242424" stroke-width="0.432605"/>
<line x1="74.0117" y1="0.705078" x2="74.0117" y2="624.899" stroke="#242424" stroke-width="0.432605"/>
<line x1="110.636" y1="0.703613" x2="110.636" y2="624.898" stroke="#242424" stroke-width="0.432605"/>
<line x1="147.26" y1="0.703613" x2="147.26" y2="624.898" stroke="#242424" stroke-width="0.432605"/>
<line x1="183.886" y1="0.703613" x2="183.886" y2="624.898" stroke="#242424" stroke-width="0.432605"/>
<line x1="220.51" y1="0.703613" x2="220.51" y2="624.898" stroke="#242424" stroke-width="0.432605"/>
<line x1="257.136" y1="0.703613" x2="257.136" y2="624.898" stroke="#242424" stroke-width="0.432605"/>
<line x1="293.761" y1="0.703613" x2="293.761" y2="624.898" stroke="#242424" stroke-width="0.432605"/>
<line x1="330.385" y1="0.703613" x2="330.385" y2="624.898" stroke="#242424" stroke-width="0.432605"/>
<line x1="367.01" y1="0.703613" x2="367.01" y2="624.898" stroke="#242424" stroke-width="0.432605"/>
<line x1="403.635" y1="0.703613" x2="403.635" y2="624.898" stroke="#242424" stroke-width="0.432605"/>
<line x1="403.635" y1="0.703613" x2="403.635" y2="624.898" stroke="#242424" stroke-width="0.432605"/>
<line x1="440.291" y1="0.703613" x2="440.291" y2="624.898" stroke="#242424" stroke-width="0.432605"/>
<line x1="476.948" y1="0.703613" x2="476.948" y2="624.898" stroke="#242424" stroke-width="0.432605"/>
<line x1="513.605" y1="0.703613" x2="513.605" y2="624.898" stroke="#242424" stroke-width="0.432605"/>
<line x1="550.261" y1="0.703613" x2="550.261" y2="624.898" stroke="#242424" stroke-width="0.432605"/>
<line x1="586.918" y1="0.703613" x2="586.918" y2="624.898" stroke="#242424" stroke-width="0.432605"/>
<line x1="623.358" y1="0.919916" x2="0.545471" y2="0.919881" stroke="#242424" stroke-width="0.432605"/>
<line x1="623.358" y1="37.5444" x2="0.545471" y2="37.5444" stroke="#242424" stroke-width="0.432605"/>
<line x1="623.358" y1="74.1699" x2="0.545471" y2="74.1699" stroke="#242424" stroke-width="0.432605"/>
<line x1="623.358" y1="110.794" x2="0.545471" y2="110.794" stroke="#242424" stroke-width="0.432605"/>
<line x1="623.358" y1="147.419" x2="0.545471" y2="147.419" stroke="#242424" stroke-width="0.432605"/>
<line x1="623.358" y1="184.044" x2="0.545471" y2="184.044" stroke="#242424" stroke-width="0.432605"/>
<line x1="623.358" y1="220.669" x2="0.545471" y2="220.669" stroke="#242424" stroke-width="0.432605"/>
<line x1="623.358" y1="257.294" x2="0.545471" y2="257.294" stroke="#242424" stroke-width="0.432605"/>
<line x1="623.358" y1="293.919" x2="0.545471" y2="293.919" stroke="#242424" stroke-width="0.432605"/>
<line x1="623.358" y1="330.544" x2="0.545471" y2="330.544" stroke="#242424" stroke-width="0.432605"/>
<line x1="623.358" y1="367.168" x2="0.545471" y2="367.168" stroke="#242424" stroke-width="0.432605"/>
<line x1="623.358" y1="403.794" x2="0.545471" y2="403.794" stroke="#242424" stroke-width="0.432605"/>
<line x1="623.358" y1="440.681" x2="0.545471" y2="440.681" stroke="#242424" stroke-width="0.432605"/>
<line x1="623.358" y1="477.568" x2="0.545471" y2="477.568" stroke="#242424" stroke-width="0.432605"/>
<line x1="623.358" y1="514.455" x2="0.545471" y2="514.455" stroke="#242424" stroke-width="0.432605"/>
<line x1="623.358" y1="551.342" x2="0.545471" y2="551.342" stroke="#242424" stroke-width="0.432605"/>
<line x1="623.358" y1="588.229" x2="0.545471" y2="588.229" stroke="#242424" stroke-width="0.432605"/>
<line x1="623.358" y1="625.116" x2="0.545471" y2="625.116" stroke="#242424" stroke-width="0.432605"/>
</g>
</g>
</svg>
