<svg width="561" height="248" viewBox="0 0 561 248" fill="none" xmlns="http://www.w3.org/2000/svg">
<g opacity="0.02">
<path d="M134.073 0.103516H16.9066C7.00523 0.103516 0.404297 6.70445 0.404297 16.6058V231.136C0.404297 241.038 7.00523 247.639 16.9066 247.639H134.073C140.674 247.639 145.625 244.338 148.925 239.387L205.033 132.122C206.683 127.171 206.683 122.221 205.033 117.27L148.925 10.0049C145.625 3.40399 139.024 0.103516 134.073 0.103516Z" fill="white"/>
<path d="M279.298 214.636C272.697 214.636 267.747 212.986 262.796 209.685C256.195 204.735 249.594 198.134 247.944 189.883C246.294 181.631 246.294 171.73 251.244 165.129L272.697 123.873L251.244 82.6174C249.594 76.0164 247.944 71.0657 247.944 66.115C247.944 47.9625 262.796 33.1104 280.949 33.1104H338.707C351.909 33.1104 363.46 39.7113 368.411 51.2629L398.115 109.021C403.066 118.923 403.066 130.474 398.115 138.725L366.761 196.483C361.81 208.035 350.258 214.636 337.057 214.636H279.298ZM279.298 66.115L300.751 107.371C305.702 117.272 305.702 128.824 300.751 138.725L279.298 181.631H338.707L370.061 123.873L338.707 66.115H279.298Z" fill="white"/>
<path d="M455.872 214.636C449.272 214.636 444.321 212.986 439.37 209.686C422.868 199.784 417.917 179.981 427.819 165.129L449.272 123.873L427.819 82.6175C419.567 66.1152 426.168 46.3124 441.02 38.0612C445.971 34.7607 450.922 34.7607 455.872 34.7607H528.483C546.635 34.7607 561.487 49.6128 561.487 67.7654V183.282C561.487 201.434 546.635 216.286 528.483 216.286L455.872 214.636ZM528.483 66.1152H455.872L478.976 107.371C483.926 117.272 483.926 128.824 478.976 138.725L455.872 181.632H528.483V66.1152Z" fill="white"/>
</g>
</svg>
