<svg width="562" height="267" viewBox="0 0 562 267" fill="none" xmlns="http://www.w3.org/2000/svg">
<g opacity="0.02">
<path d="M133.486 256.485C201.399 256.485 256.452 201.432 256.452 133.52C256.452 65.6074 201.399 10.5537 133.486 10.5537C65.5742 10.5537 10.5205 65.6074 10.5205 133.52C10.5205 201.432 65.5742 256.485 133.486 256.485Z" fill="white"/>
<path fill-rule="evenodd" clip-rule="evenodd" d="M133.488 0.703613C60.1859 0.703613 0.671875 60.2155 0.671875 133.517C0.671875 206.821 60.1859 266.333 133.488 266.333C206.789 266.333 266.301 206.821 266.301 133.517C266.301 60.2155 206.789 0.703613 133.488 0.703613ZM133.488 20.4013C195.918 20.4013 246.604 71.0864 246.604 133.517C246.604 195.95 195.918 246.635 133.488 246.635C71.0546 246.635 20.3695 195.95 20.3695 133.517C20.3695 71.0864 71.0546 20.4013 133.488 20.4013Z" fill="white"/>
<path fill-rule="evenodd" clip-rule="evenodd" d="M428.939 0.703613C355.637 0.703613 296.125 60.2155 296.125 133.517C296.125 206.821 355.637 266.333 428.939 266.333C502.241 266.333 561.755 206.821 561.755 133.517C561.755 60.2155 502.241 0.703613 428.939 0.703613ZM428.939 20.4013C491.37 20.4013 542.057 71.0864 542.057 133.517C542.057 195.95 491.37 246.635 428.939 246.635C366.508 246.635 315.823 195.95 315.823 133.517C315.823 71.0864 366.508 20.4013 428.939 20.4013Z" fill="white"/>
</g>
</svg>
