<svg width="568" height="453" viewBox="0 0 568 453" fill="none" xmlns="http://www.w3.org/2000/svg">
<g opacity="0.02">
<path d="M176.685 77.4247L174.362 81.0636L176.685 77.4247C168.932 72.4761 159.56 68.4979 149.018 68.3444C144.22 68.2729 139.195 69.0373 134.152 70.7768C116.043 76.9118 100.7 82.0936 85.3538 87.2762L85.2066 87.3259C69.9088 92.4923 54.5998 97.6625 36.5396 103.781C32.4107 105.165 30.2482 108.919 29.7053 112.299C29.1619 115.681 30.0413 119.927 33.5354 122.535L33.5477 122.544L33.56 122.553L125.721 190.319C121.827 197.315 117.933 204.479 114.184 211.97C112.76 214.241 112.255 216.588 112.545 218.928C112.822 221.152 113.786 223.044 114.601 224.455C114.604 224.46 114.607 224.465 114.61 224.47L167.81 318.071L167.834 318.114L167.86 318.157C169.079 320.191 170.619 321.842 172.83 322.826C174.83 323.715 176.949 323.851 178.845 323.856C186.853 324.294 194.849 324.666 202.681 324.806L214.685 439.427L214.689 439.467L214.694 439.507C215.228 443.824 218.469 446.69 221.669 447.897C224.869 449.105 229.195 449.094 232.447 446.207L232.453 446.202L232.459 446.197C250.406 430.158 264.902 417.154 280.273 403.365C289.397 395.181 298.829 386.72 309.474 377.183C322.486 365.688 325.456 350.2 324.924 336.774C324.588 328.27 323.049 320.002 321.739 312.959C321.606 312.248 321.476 311.548 321.35 310.863C357.625 300.74 390.183 285.064 419.239 263.168C482.229 215.702 527.964 140.493 562.564 35.4694C563.713 32.3292 564.077 28.9509 562.789 25.8973C561.43 22.6737 558.63 20.7401 555.403 19.8754L555.287 19.8444L555.169 19.8198C507.862 9.92669 464.608 4.87249 424.636 4.92366C373.233 4.98957 327.479 13.5051 286.673 31.2916L288.398 35.249L286.673 31.2916C253.414 45.7887 223.694 66.5124 196.925 93.1845C196.731 93.0178 196.536 92.8498 196.34 92.6808C190.76 87.8808 184.133 82.1791 176.685 77.4247ZM165.236 95.5058L165.236 95.5059C170.279 98.7244 175.04 102.853 180.036 107.185C180.686 107.749 181.339 108.315 181.997 108.883C165.66 127.314 150.427 148.195 136.285 171.597L62.9401 117.508C74.7308 113.506 85.8454 109.713 97.1259 105.864C110.772 101.208 124.662 96.4682 140.285 91.1744L140.509 91.1708L141.162 90.9445C143.494 90.1366 145.513 89.6947 147.426 89.5732C153.259 89.2032 158.832 91.4176 165.236 95.5058ZM295.348 361.114L295.322 361.136L295.297 361.159C295.252 361.201 295.21 361.24 295.172 361.277C295.104 361.342 295.05 361.397 295.016 361.432C284.842 370.547 275.683 378.765 266.826 386.713C255.808 396.601 245.255 406.071 233.794 416.328L224.159 324.554C251.219 323.852 276.599 321.017 300.519 315.922C300.605 316.411 300.691 316.898 300.777 317.385C302.023 324.421 303.235 331.261 303.49 337.715C303.889 347.807 302.282 355.007 295.348 361.114ZM424.646 26.3617C459.474 26.3251 497.472 30.4549 539.007 38.5293C505.633 135.885 462.579 203.613 406.239 246.069C348.947 289.242 276.902 307.262 183.746 302.743L135.446 217.789C178.138 133.846 229.513 79.6093 295.124 51.0101C332.827 34.5762 375.642 26.4142 424.646 26.3617Z" fill="white" stroke="white" stroke-width="8.63398"/>
<mask id="path-2-outside-1_127_2732" maskUnits="userSpaceOnUse" x="-0.0825195" y="220.51" width="160" height="145" fill="black">
<rect fill="white" x="-0.0825195" y="220.51" width="160" height="145"/>
<path fill-rule="evenodd" clip-rule="evenodd" d="M90.5372 231.51C90.1249 231.602 89.7228 231.735 89.3368 231.907C89.2692 231.971 89.203 232.038 89.1383 232.105C89.0722 232.104 89.006 232.104 88.9398 232.105C88.8053 232.167 88.6729 232.233 88.5429 232.304C88.4753 232.368 88.4091 232.435 88.3445 232.502C88.0624 232.682 87.7948 232.883 87.5442 233.104C41.6601 262.244 28.9975 293.663 9.51994 341.539C9.45235 341.603 9.38618 341.669 9.32148 341.737C9.32148 341.801 9.32148 341.878 9.32148 341.936C9.25076 342.066 9.18457 342.198 9.12302 342.333C9.12199 342.399 9.12199 342.465 9.12302 342.531C9.0523 342.661 8.9861 342.794 8.92455 342.928C8.92353 342.994 8.92353 343.06 8.92455 343.126C8.91512 343.327 8.91512 343.528 8.92455 343.728C8.92353 343.794 8.92353 343.86 8.92455 343.926C8.92045 344.059 8.92045 344.191 8.92455 344.323C8.92353 344.39 8.92353 344.456 8.92455 344.522C8.92045 344.654 8.92045 344.787 8.92455 344.919C8.92353 344.985 8.92353 345.051 8.92455 345.117C8.92045 345.25 8.92045 345.382 8.92455 345.514C8.92353 345.581 8.92353 345.647 8.92455 345.713C8.9861 345.847 9.0523 345.98 9.12302 346.11C9.12199 346.176 9.12199 346.242 9.12302 346.308C9.18457 346.443 9.25076 346.575 9.32148 346.705C9.38303 346.84 9.44922 346.972 9.51994 347.102C9.51892 347.168 9.51892 347.234 9.51994 347.301C9.58464 347.368 9.65081 347.434 9.71841 347.499C9.77996 347.634 9.84615 347.766 9.91687 347.896C9.91584 347.962 9.91584 348.028 9.91687 348.094C10.1595 348.384 10.4273 348.652 10.7171 348.894C10.7161 348.961 10.7161 349.027 10.7171 349.093C10.8492 349.164 10.9837 349.23 11.1205 349.291C11.1852 349.359 11.2513 349.425 11.3189 349.49C11.4489 349.561 11.5813 349.627 11.7158 349.688C11.7148 349.755 11.7148 349.821 11.7158 349.887C11.8458 349.958 11.9782 350.024 12.1128 350.085C12.1789 350.086 12.2451 350.086 12.3112 350.085C12.4433 350.156 12.5778 350.223 12.7146 350.284C12.7793 350.352 12.8454 350.418 12.913 350.482C13.0453 350.487 13.1777 350.487 13.31 350.482C13.3747 350.55 13.4408 350.616 13.5084 350.681C13.6407 350.685 13.7731 350.685 13.9053 350.681C13.9715 350.682 14.0377 350.682 14.1038 350.681C14.2361 350.685 14.3685 350.685 14.5007 350.681C14.8283 350.774 15.1627 350.84 15.5007 350.879C66.0077 357.736 99.2817 362.172 147.143 336.474C147.347 336.418 147.548 336.352 147.745 336.276C148.096 336.107 148.431 335.905 148.746 335.674C148.813 335.609 148.88 335.544 148.944 335.476C149.396 335.131 149.8 334.727 150.145 334.276C150.146 334.21 150.146 334.143 150.145 334.077C150.283 333.951 150.415 333.818 150.542 333.68C150.543 333.614 150.543 333.548 150.542 333.482C150.612 333.352 150.679 333.219 150.74 333.085C150.741 333.019 150.741 332.952 150.74 332.886C150.811 332.756 150.877 332.624 150.939 332.489C150.94 332.423 150.94 332.357 150.939 332.291C151.009 332.161 151.075 332.029 151.137 331.894C151.138 331.828 151.138 331.762 151.137 331.696C151.141 331.563 151.141 331.431 151.137 331.299C151.138 331.232 151.138 331.166 151.137 331.1C151.141 330.968 151.141 330.835 151.137 330.703C151.138 330.637 151.138 330.571 151.137 330.505C151.175 330.105 151.175 329.703 151.137 329.304C151.088 329.033 151.022 328.766 150.939 328.504C150.877 328.369 150.811 328.237 150.74 328.107C150.741 328.041 150.741 327.975 150.74 327.909C150.679 327.774 150.612 327.642 150.542 327.512C150.421 327.304 150.288 327.103 150.145 326.91C150.018 326.772 149.886 326.639 149.748 326.513C149.749 326.447 149.749 326.381 149.748 326.315C149.618 326.244 149.485 326.178 149.351 326.116C149.286 326.048 149.22 325.982 149.152 325.918C148.902 325.696 148.634 325.495 148.352 325.316C148.287 325.248 148.221 325.182 148.154 325.117C148.024 325.047 147.891 324.98 147.757 324.919C147.19 324.63 146.583 324.427 145.956 324.317C145.759 324.241 145.558 324.175 145.354 324.119C145.288 324.118 145.222 324.118 145.156 324.119C144.955 324.109 144.754 324.109 144.554 324.119C144.081 324.133 143.612 324.199 143.154 324.317C124.391 325.798 109.392 325.014 98.5391 322.316C87.484 319.568 81.1095 315.139 77.7324 309.313C74.3547 303.486 73.5359 295.318 76.5321 283.904C79.4757 272.69 86.0308 258.559 96.5384 242.091C96.5384 242.091 96.7177 242.091 96.7369 242.091C96.8877 241.834 97.0203 241.567 97.1338 241.291C97.2014 241.226 97.2676 241.16 97.3323 241.092C97.3999 241.028 97.466 240.962 97.5307 240.894C97.6015 240.764 97.6677 240.631 97.7292 240.497C97.7302 240.431 97.7302 240.365 97.7292 240.299C97.7999 240.169 97.8661 240.036 97.9277 239.902C97.9287 239.836 97.9287 239.769 97.9277 239.703C97.9984 239.573 98.0646 239.441 98.1261 239.306C98.1272 239.24 98.1272 239.174 98.1261 239.108C98.1302 238.976 98.1302 238.843 98.1261 238.711C98.1302 238.579 98.1302 238.446 98.1261 238.314C98.1937 238.249 98.2599 238.183 98.3246 238.116C98.3287 237.983 98.3287 237.851 98.3246 237.719C98.3287 237.586 98.3287 237.454 98.3246 237.322C98.2599 237.254 98.1937 237.188 98.1261 237.123C98.1302 236.991 98.1302 236.858 98.1261 236.726C98.1272 236.66 98.1272 236.594 98.1261 236.528C98.1302 236.395 98.1302 236.263 98.1261 236.131C98.0614 236.063 97.9953 235.997 97.9277 235.933C97.9287 235.866 97.9287 235.8 97.9277 235.734C97.8661 235.6 97.7999 235.467 97.7292 235.337C97.6677 235.203 97.6015 235.07 97.5307 234.94C97.466 234.872 97.3999 234.806 97.3323 234.742C97.3364 234.609 97.3364 234.477 97.3323 234.345C97.2676 234.277 97.2014 234.211 97.1338 234.146C97.0691 234.079 97.003 234.013 96.9354 233.948C96.8707 233.88 96.8045 233.814 96.7369 233.749C96.6753 233.615 96.6091 233.482 96.5384 233.352C96.1189 232.957 95.6479 232.621 95.1383 232.352C95.0722 232.351 95.006 232.351 94.9398 232.352C94.8752 232.284 94.809 232.218 94.7414 232.153C94.6114 232.083 94.479 232.016 94.3445 231.955C94.2783 231.954 94.2121 231.954 94.146 231.955C94.016 231.884 93.8836 231.818 93.7491 231.756C93.6829 231.755 93.6167 231.755 93.5506 231.756C93.4185 231.685 93.284 231.619 93.1473 231.558C93.0811 231.557 93.015 231.557 92.9488 231.558C92.8165 231.554 92.6842 231.554 92.5519 231.558C92.4196 231.554 92.2872 231.554 92.1549 231.558C92.0888 231.557 92.0226 231.557 91.9565 231.558C91.8221 231.554 91.6876 231.554 91.5532 231.558C91.4209 231.554 91.2885 231.554 91.1562 231.558C90.9557 231.548 90.7549 231.548 90.5544 231.558L90.5372 231.51ZM71.5308 261.12C68.2997 268.05 65.7369 274.601 64.1287 280.726C60.6012 294.164 60.9834 306.171 66.5295 315.737C72.075 325.303 82.372 331.47 95.5384 334.743C100.894 336.075 106.866 336.865 113.344 337.343C84.4533 346.743 59.7677 343.925 24.5161 339.144C38.2862 305.295 48.2696 282.018 71.5308 261.12Z"/>
</mask>
<path fill-rule="evenodd" clip-rule="evenodd" d="M90.5372 231.51C90.1249 231.602 89.7228 231.735 89.3368 231.907C89.2692 231.971 89.203 232.038 89.1383 232.105C89.0722 232.104 89.006 232.104 88.9398 232.105C88.8053 232.167 88.6729 232.233 88.5429 232.304C88.4753 232.368 88.4091 232.435 88.3445 232.502C88.0624 232.682 87.7948 232.883 87.5442 233.104C41.6601 262.244 28.9975 293.663 9.51994 341.539C9.45235 341.603 9.38618 341.669 9.32148 341.737C9.32148 341.801 9.32148 341.878 9.32148 341.936C9.25076 342.066 9.18457 342.198 9.12302 342.333C9.12199 342.399 9.12199 342.465 9.12302 342.531C9.0523 342.661 8.9861 342.794 8.92455 342.928C8.92353 342.994 8.92353 343.06 8.92455 343.126C8.91512 343.327 8.91512 343.528 8.92455 343.728C8.92353 343.794 8.92353 343.86 8.92455 343.926C8.92045 344.059 8.92045 344.191 8.92455 344.323C8.92353 344.39 8.92353 344.456 8.92455 344.522C8.92045 344.654 8.92045 344.787 8.92455 344.919C8.92353 344.985 8.92353 345.051 8.92455 345.117C8.92045 345.25 8.92045 345.382 8.92455 345.514C8.92353 345.581 8.92353 345.647 8.92455 345.713C8.9861 345.847 9.0523 345.98 9.12302 346.11C9.12199 346.176 9.12199 346.242 9.12302 346.308C9.18457 346.443 9.25076 346.575 9.32148 346.705C9.38303 346.84 9.44922 346.972 9.51994 347.102C9.51892 347.168 9.51892 347.234 9.51994 347.301C9.58464 347.368 9.65081 347.434 9.71841 347.499C9.77996 347.634 9.84615 347.766 9.91687 347.896C9.91584 347.962 9.91584 348.028 9.91687 348.094C10.1595 348.384 10.4273 348.652 10.7171 348.894C10.7161 348.961 10.7161 349.027 10.7171 349.093C10.8492 349.164 10.9837 349.23 11.1205 349.291C11.1852 349.359 11.2513 349.425 11.3189 349.49C11.4489 349.561 11.5813 349.627 11.7158 349.688C11.7148 349.755 11.7148 349.821 11.7158 349.887C11.8458 349.958 11.9782 350.024 12.1128 350.085C12.1789 350.086 12.2451 350.086 12.3112 350.085C12.4433 350.156 12.5778 350.223 12.7146 350.284C12.7793 350.352 12.8454 350.418 12.913 350.482C13.0453 350.487 13.1777 350.487 13.31 350.482C13.3747 350.55 13.4408 350.616 13.5084 350.681C13.6407 350.685 13.7731 350.685 13.9053 350.681C13.9715 350.682 14.0377 350.682 14.1038 350.681C14.2361 350.685 14.3685 350.685 14.5007 350.681C14.8283 350.774 15.1627 350.84 15.5007 350.879C66.0077 357.736 99.2817 362.172 147.143 336.474C147.347 336.418 147.548 336.352 147.745 336.276C148.096 336.107 148.431 335.905 148.746 335.674C148.813 335.609 148.88 335.544 148.944 335.476C149.396 335.131 149.8 334.727 150.145 334.276C150.146 334.21 150.146 334.143 150.145 334.077C150.283 333.951 150.415 333.818 150.542 333.68C150.543 333.614 150.543 333.548 150.542 333.482C150.612 333.352 150.679 333.219 150.74 333.085C150.741 333.019 150.741 332.952 150.74 332.886C150.811 332.756 150.877 332.624 150.939 332.489C150.94 332.423 150.94 332.357 150.939 332.291C151.009 332.161 151.075 332.029 151.137 331.894C151.138 331.828 151.138 331.762 151.137 331.696C151.141 331.563 151.141 331.431 151.137 331.299C151.138 331.232 151.138 331.166 151.137 331.1C151.141 330.968 151.141 330.835 151.137 330.703C151.138 330.637 151.138 330.571 151.137 330.505C151.175 330.105 151.175 329.703 151.137 329.304C151.088 329.033 151.022 328.766 150.939 328.504C150.877 328.369 150.811 328.237 150.74 328.107C150.741 328.041 150.741 327.975 150.74 327.909C150.679 327.774 150.612 327.642 150.542 327.512C150.421 327.304 150.288 327.103 150.145 326.91C150.018 326.772 149.886 326.639 149.748 326.513C149.749 326.447 149.749 326.381 149.748 326.315C149.618 326.244 149.485 326.178 149.351 326.116C149.286 326.048 149.22 325.982 149.152 325.918C148.902 325.696 148.634 325.495 148.352 325.316C148.287 325.248 148.221 325.182 148.154 325.117C148.024 325.047 147.891 324.98 147.757 324.919C147.19 324.63 146.583 324.427 145.956 324.317C145.759 324.241 145.558 324.175 145.354 324.119C145.288 324.118 145.222 324.118 145.156 324.119C144.955 324.109 144.754 324.109 144.554 324.119C144.081 324.133 143.612 324.199 143.154 324.317C124.391 325.798 109.392 325.014 98.5391 322.316C87.484 319.568 81.1095 315.139 77.7324 309.313C74.3547 303.486 73.5359 295.318 76.5321 283.904C79.4757 272.69 86.0308 258.559 96.5384 242.091C96.5384 242.091 96.7177 242.091 96.7369 242.091C96.8877 241.834 97.0203 241.567 97.1338 241.291C97.2014 241.226 97.2676 241.16 97.3323 241.092C97.3999 241.028 97.466 240.962 97.5307 240.894C97.6015 240.764 97.6677 240.631 97.7292 240.497C97.7302 240.431 97.7302 240.365 97.7292 240.299C97.7999 240.169 97.8661 240.036 97.9277 239.902C97.9287 239.836 97.9287 239.769 97.9277 239.703C97.9984 239.573 98.0646 239.441 98.1261 239.306C98.1272 239.24 98.1272 239.174 98.1261 239.108C98.1302 238.976 98.1302 238.843 98.1261 238.711C98.1302 238.579 98.1302 238.446 98.1261 238.314C98.1937 238.249 98.2599 238.183 98.3246 238.116C98.3287 237.983 98.3287 237.851 98.3246 237.719C98.3287 237.586 98.3287 237.454 98.3246 237.322C98.2599 237.254 98.1937 237.188 98.1261 237.123C98.1302 236.991 98.1302 236.858 98.1261 236.726C98.1272 236.66 98.1272 236.594 98.1261 236.528C98.1302 236.395 98.1302 236.263 98.1261 236.131C98.0614 236.063 97.9953 235.997 97.9277 235.933C97.9287 235.866 97.9287 235.8 97.9277 235.734C97.8661 235.6 97.7999 235.467 97.7292 235.337C97.6677 235.203 97.6015 235.07 97.5307 234.94C97.466 234.872 97.3999 234.806 97.3323 234.742C97.3364 234.609 97.3364 234.477 97.3323 234.345C97.2676 234.277 97.2014 234.211 97.1338 234.146C97.0691 234.079 97.003 234.013 96.9354 233.948C96.8707 233.88 96.8045 233.814 96.7369 233.749C96.6753 233.615 96.6091 233.482 96.5384 233.352C96.1189 232.957 95.6479 232.621 95.1383 232.352C95.0722 232.351 95.006 232.351 94.9398 232.352C94.8752 232.284 94.809 232.218 94.7414 232.153C94.6114 232.083 94.479 232.016 94.3445 231.955C94.2783 231.954 94.2121 231.954 94.146 231.955C94.016 231.884 93.8836 231.818 93.7491 231.756C93.6829 231.755 93.6167 231.755 93.5506 231.756C93.4185 231.685 93.284 231.619 93.1473 231.558C93.0811 231.557 93.015 231.557 92.9488 231.558C92.8165 231.554 92.6842 231.554 92.5519 231.558C92.4196 231.554 92.2872 231.554 92.1549 231.558C92.0888 231.557 92.0226 231.557 91.9565 231.558C91.8221 231.554 91.6876 231.554 91.5532 231.558C91.4209 231.554 91.2885 231.554 91.1562 231.558C90.9557 231.548 90.7549 231.548 90.5544 231.558L90.5372 231.51ZM71.5308 261.12C68.2997 268.05 65.7369 274.601 64.1287 280.726C60.6012 294.164 60.9834 306.171 66.5295 315.737C72.075 325.303 82.372 331.47 95.5384 334.743C100.894 336.075 106.866 336.865 113.344 337.343C84.4533 346.743 59.7677 343.925 24.5161 339.144C38.2862 305.295 48.2696 282.018 71.5308 261.12Z" fill="white"/>
<path fill-rule="evenodd" clip-rule="evenodd" d="M90.5372 231.51C90.1249 231.602 89.7228 231.735 89.3368 231.907C89.2692 231.971 89.203 232.038 89.1383 232.105C89.0722 232.104 89.006 232.104 88.9398 232.105C88.8053 232.167 88.6729 232.233 88.5429 232.304C88.4753 232.368 88.4091 232.435 88.3445 232.502C88.0624 232.682 87.7948 232.883 87.5442 233.104C41.6601 262.244 28.9975 293.663 9.51994 341.539C9.45235 341.603 9.38618 341.669 9.32148 341.737C9.32148 341.801 9.32148 341.878 9.32148 341.936C9.25076 342.066 9.18457 342.198 9.12302 342.333C9.12199 342.399 9.12199 342.465 9.12302 342.531C9.0523 342.661 8.9861 342.794 8.92455 342.928C8.92353 342.994 8.92353 343.06 8.92455 343.126C8.91512 343.327 8.91512 343.528 8.92455 343.728C8.92353 343.794 8.92353 343.86 8.92455 343.926C8.92045 344.059 8.92045 344.191 8.92455 344.323C8.92353 344.39 8.92353 344.456 8.92455 344.522C8.92045 344.654 8.92045 344.787 8.92455 344.919C8.92353 344.985 8.92353 345.051 8.92455 345.117C8.92045 345.25 8.92045 345.382 8.92455 345.514C8.92353 345.581 8.92353 345.647 8.92455 345.713C8.9861 345.847 9.0523 345.98 9.12302 346.11C9.12199 346.176 9.12199 346.242 9.12302 346.308C9.18457 346.443 9.25076 346.575 9.32148 346.705C9.38303 346.84 9.44922 346.972 9.51994 347.102C9.51892 347.168 9.51892 347.234 9.51994 347.301C9.58464 347.368 9.65081 347.434 9.71841 347.499C9.77996 347.634 9.84615 347.766 9.91687 347.896C9.91584 347.962 9.91584 348.028 9.91687 348.094C10.1595 348.384 10.4273 348.652 10.7171 348.894C10.7161 348.961 10.7161 349.027 10.7171 349.093C10.8492 349.164 10.9837 349.23 11.1205 349.291C11.1852 349.359 11.2513 349.425 11.3189 349.49C11.4489 349.561 11.5813 349.627 11.7158 349.688C11.7148 349.755 11.7148 349.821 11.7158 349.887C11.8458 349.958 11.9782 350.024 12.1128 350.085C12.1789 350.086 12.2451 350.086 12.3112 350.085C12.4433 350.156 12.5778 350.223 12.7146 350.284C12.7793 350.352 12.8454 350.418 12.913 350.482C13.0453 350.487 13.1777 350.487 13.31 350.482C13.3747 350.55 13.4408 350.616 13.5084 350.681C13.6407 350.685 13.7731 350.685 13.9053 350.681C13.9715 350.682 14.0377 350.682 14.1038 350.681C14.2361 350.685 14.3685 350.685 14.5007 350.681C14.8283 350.774 15.1627 350.84 15.5007 350.879C66.0077 357.736 99.2817 362.172 147.143 336.474C147.347 336.418 147.548 336.352 147.745 336.276C148.096 336.107 148.431 335.905 148.746 335.674C148.813 335.609 148.88 335.544 148.944 335.476C149.396 335.131 149.8 334.727 150.145 334.276C150.146 334.21 150.146 334.143 150.145 334.077C150.283 333.951 150.415 333.818 150.542 333.68C150.543 333.614 150.543 333.548 150.542 333.482C150.612 333.352 150.679 333.219 150.74 333.085C150.741 333.019 150.741 332.952 150.74 332.886C150.811 332.756 150.877 332.624 150.939 332.489C150.94 332.423 150.94 332.357 150.939 332.291C151.009 332.161 151.075 332.029 151.137 331.894C151.138 331.828 151.138 331.762 151.137 331.696C151.141 331.563 151.141 331.431 151.137 331.299C151.138 331.232 151.138 331.166 151.137 331.1C151.141 330.968 151.141 330.835 151.137 330.703C151.138 330.637 151.138 330.571 151.137 330.505C151.175 330.105 151.175 329.703 151.137 329.304C151.088 329.033 151.022 328.766 150.939 328.504C150.877 328.369 150.811 328.237 150.74 328.107C150.741 328.041 150.741 327.975 150.74 327.909C150.679 327.774 150.612 327.642 150.542 327.512C150.421 327.304 150.288 327.103 150.145 326.91C150.018 326.772 149.886 326.639 149.748 326.513C149.749 326.447 149.749 326.381 149.748 326.315C149.618 326.244 149.485 326.178 149.351 326.116C149.286 326.048 149.22 325.982 149.152 325.918C148.902 325.696 148.634 325.495 148.352 325.316C148.287 325.248 148.221 325.182 148.154 325.117C148.024 325.047 147.891 324.98 147.757 324.919C147.19 324.63 146.583 324.427 145.956 324.317C145.759 324.241 145.558 324.175 145.354 324.119C145.288 324.118 145.222 324.118 145.156 324.119C144.955 324.109 144.754 324.109 144.554 324.119C144.081 324.133 143.612 324.199 143.154 324.317C124.391 325.798 109.392 325.014 98.5391 322.316C87.484 319.568 81.1095 315.139 77.7324 309.313C74.3547 303.486 73.5359 295.318 76.5321 283.904C79.4757 272.69 86.0308 258.559 96.5384 242.091C96.5384 242.091 96.7177 242.091 96.7369 242.091C96.8877 241.834 97.0203 241.567 97.1338 241.291C97.2014 241.226 97.2676 241.16 97.3323 241.092C97.3999 241.028 97.466 240.962 97.5307 240.894C97.6015 240.764 97.6677 240.631 97.7292 240.497C97.7302 240.431 97.7302 240.365 97.7292 240.299C97.7999 240.169 97.8661 240.036 97.9277 239.902C97.9287 239.836 97.9287 239.769 97.9277 239.703C97.9984 239.573 98.0646 239.441 98.1261 239.306C98.1272 239.24 98.1272 239.174 98.1261 239.108C98.1302 238.976 98.1302 238.843 98.1261 238.711C98.1302 238.579 98.1302 238.446 98.1261 238.314C98.1937 238.249 98.2599 238.183 98.3246 238.116C98.3287 237.983 98.3287 237.851 98.3246 237.719C98.3287 237.586 98.3287 237.454 98.3246 237.322C98.2599 237.254 98.1937 237.188 98.1261 237.123C98.1302 236.991 98.1302 236.858 98.1261 236.726C98.1272 236.66 98.1272 236.594 98.1261 236.528C98.1302 236.395 98.1302 236.263 98.1261 236.131C98.0614 236.063 97.9953 235.997 97.9277 235.933C97.9287 235.866 97.9287 235.8 97.9277 235.734C97.8661 235.6 97.7999 235.467 97.7292 235.337C97.6677 235.203 97.6015 235.07 97.5307 234.94C97.466 234.872 97.3999 234.806 97.3323 234.742C97.3364 234.609 97.3364 234.477 97.3323 234.345C97.2676 234.277 97.2014 234.211 97.1338 234.146C97.0691 234.079 97.003 234.013 96.9354 233.948C96.8707 233.88 96.8045 233.814 96.7369 233.749C96.6753 233.615 96.6091 233.482 96.5384 233.352C96.1189 232.957 95.6479 232.621 95.1383 232.352C95.0722 232.351 95.006 232.351 94.9398 232.352C94.8752 232.284 94.809 232.218 94.7414 232.153C94.6114 232.083 94.479 232.016 94.3445 231.955C94.2783 231.954 94.2121 231.954 94.146 231.955C94.016 231.884 93.8836 231.818 93.7491 231.756C93.6829 231.755 93.6167 231.755 93.5506 231.756C93.4185 231.685 93.284 231.619 93.1473 231.558C93.0811 231.557 93.015 231.557 92.9488 231.558C92.8165 231.554 92.6842 231.554 92.5519 231.558C92.4196 231.554 92.2872 231.554 92.1549 231.558C92.0888 231.557 92.0226 231.557 91.9565 231.558C91.8221 231.554 91.6876 231.554 91.5532 231.558C91.4209 231.554 91.2885 231.554 91.1562 231.558C90.9557 231.548 90.7549 231.548 90.5544 231.558L90.5372 231.51ZM71.5308 261.12C68.2997 268.05 65.7369 274.601 64.1287 280.726C60.6012 294.164 60.9834 306.171 66.5295 315.737C72.075 325.303 82.372 331.47 95.5384 334.743C100.894 336.075 106.866 336.865 113.344 337.343C84.4533 346.743 59.7677 343.925 24.5161 339.144C38.2862 305.295 48.2696 282.018 71.5308 261.12Z" stroke="white" stroke-width="17.268" mask="url(#path-2-outside-1_127_2732)"/>
<path fill-rule="evenodd" clip-rule="evenodd" d="M370.135 87.9615C361.072 87.779 351.847 89.9911 343.45 94.8535C319.024 108.999 310.503 140.391 324.528 164.788C324.528 164.786 324.528 164.789 324.528 164.788C338.612 189.234 370.003 197.534 394.48 183.401C394.482 183.4 394.485 183.399 394.487 183.398C418.91 169.254 427.427 137.851 413.345 113.4C413.345 113.398 413.345 113.402 413.345 113.4C404.137 97.3875 387.433 88.3096 370.135 87.9615ZM369.927 100.695C382.88 100.927 395.323 107.733 402.249 119.781C402.249 119.78 402.249 119.783 402.249 119.781C412.872 138.22 406.54 161.617 388.078 172.315C388.078 172.316 388.072 172.317 388.072 172.318C369.528 183.019 346.251 176.845 335.625 158.4C325.07 140.032 331.402 116.627 349.868 105.933C356.216 102.257 363.141 100.574 369.927 100.695Z" fill="white"/>
</g>
</svg>
