<svg width="34" height="32" viewBox="0 0 34 32" fill="none" xmlns="http://www.w3.org/2000/svg">
<g id="Group 355">
<path id="Rectangle 138" d="M33.4453 17.088H16.702V7.92201C16.702 3.73717 20.0945 0.34469 24.2793 0.34469H33.4453V17.088Z" fill="#FFD800"/>
<g id="Group 176">
<path id="Vector" d="M18.4761 12.687C19.2144 12.687 19.9361 12.4681 20.55 12.0579C21.1638 11.6477 21.6423 11.0647 21.9248 10.3826C22.2074 9.70052 22.2813 8.94996 22.1373 8.22585C21.9932 7.50173 21.6377 6.83659 21.1156 6.31454C20.5936 5.79248 19.9284 5.43695 19.2043 5.29292C18.4802 5.14888 17.7297 5.22281 17.0476 5.50534C16.3655 5.78788 15.7824 6.26633 15.3723 6.88021C14.9621 7.49408 14.7432 8.2158 14.7432 8.9541C14.7432 9.94413 15.1365 10.8936 15.8365 11.5937C16.5366 12.2937 17.486 12.687 18.4761 12.687ZM18.4761 7.08765C18.8452 7.08765 19.2061 7.19711 19.513 7.4022C19.82 7.60729 20.0592 7.89879 20.2005 8.23984C20.3417 8.58089 20.3787 8.95617 20.3067 9.31823C20.2346 9.68028 20.0569 10.0129 19.7959 10.2739C19.5348 10.5349 19.2023 10.7127 18.8402 10.7847C18.4781 10.8567 18.1029 10.8197 17.7618 10.6785C17.4208 10.5372 17.1293 10.298 16.9242 9.99105C16.7191 9.68411 16.6096 9.32325 16.6096 8.9541C16.6096 8.45909 16.8063 7.98435 17.1563 7.63432C17.5063 7.28429 17.9811 7.08765 18.4761 7.08765Z" fill="white"/>
<path id="Vector_2" d="M6.34367 14.5536C6.59116 14.5536 6.82849 14.4552 7.00346 14.2802L8.9875 12.2961C9.10968 12.1728 9.26407 12.0863 9.43305 12.0466C9.60202 12.0068 9.77878 12.0153 9.94313 12.0712L11.6481 12.6396C11.7646 12.6783 11.8875 12.6937 12.0099 12.6849C12.1322 12.6761 12.2517 12.6434 12.3614 12.5884C12.4711 12.5335 12.5689 12.4575 12.6493 12.3647C12.7296 12.272 12.7909 12.1643 12.8296 12.0479C12.8683 11.9315 12.8837 11.8086 12.875 11.6862C12.8662 11.5638 12.8334 11.4443 12.7785 11.3346C12.7235 11.2249 12.6475 11.1271 12.5548 11.0468C12.462 10.9664 12.3544 10.9052 12.2379 10.8664L10.5329 10.2981C10.0398 10.1322 9.51013 10.1076 9.00379 10.2272C8.49745 10.3468 8.0347 10.6057 7.66792 10.9747L5.68388 12.9606C5.55341 13.0911 5.46456 13.2574 5.42857 13.4384C5.39257 13.6194 5.41105 13.807 5.48167 13.9775C5.55229 14.148 5.67187 14.2937 5.8253 14.3963C5.97874 14.4988 6.15913 14.5536 6.34367 14.5536Z" fill="white"/>
<path id="Vector_3" d="M26.6017 12.9602C26.4267 12.7853 26.1894 12.687 25.9419 12.687C25.6944 12.687 25.4571 12.7853 25.2821 12.9602L23.2981 14.9443C23.1754 15.0669 23.021 15.1528 22.8522 15.1926C22.6834 15.2323 22.5069 15.2242 22.3424 15.1692L20.6374 14.6009C20.4023 14.5226 20.1457 14.541 19.9242 14.652C19.7026 14.763 19.5342 14.9574 19.456 15.1925C19.3778 15.4277 19.3961 15.6842 19.5071 15.9058C19.6181 16.1274 19.8125 16.2958 20.0476 16.374L21.7526 16.9423C22.0403 17.0385 22.3415 17.0877 22.6448 17.0879C23.0116 17.0876 23.3747 17.0148 23.7133 16.8737C24.0518 16.7326 24.3592 16.526 24.6176 16.2657L26.6017 14.2817C26.6886 14.195 26.7575 14.092 26.8046 13.9786C26.8516 13.8653 26.8759 13.7437 26.8759 13.621C26.8759 13.4982 26.8516 13.3767 26.8046 13.2633C26.7575 13.1499 26.6886 13.0469 26.6017 12.9602Z" fill="white"/>
<path id="Vector_4" d="M2.61084 21.0861C2.61084 21.3336 2.70916 21.5709 2.88418 21.746C3.05919 21.921 3.29656 22.0193 3.54407 22.0193H6.34375C6.59125 22.0193 6.82862 21.921 7.00364 21.746C7.17865 21.5709 7.27697 21.3336 7.27697 21.0861C7.27697 20.8386 7.17865 20.6012 7.00364 20.4262C6.82862 20.2512 6.59125 20.1528 6.34375 20.1528H3.54407C3.29656 20.1528 3.05919 20.2512 2.88418 20.4262C2.70916 20.6012 2.61084 20.8386 2.61084 21.0861Z" fill="white"/>
<path id="Vector_5" d="M1.67786 18.2864H2.61108C2.85859 18.2864 3.09596 18.1881 3.27097 18.013C3.44599 17.838 3.54431 17.6007 3.54431 17.3531C3.54431 17.1056 3.44599 16.8683 3.27097 16.6933C3.09596 16.5182 2.85859 16.4199 2.61108 16.4199H1.67786C1.43035 16.4199 1.19298 16.5182 1.01796 16.6933C0.842951 16.8683 0.744629 17.1056 0.744629 17.3531C0.744629 17.6007 0.842951 17.838 1.01796 18.013C1.19298 18.1881 1.43035 18.2864 1.67786 18.2864Z" fill="white"/>
<path id="Vector_6" d="M3.54431 23.8857H1.67786C1.43035 23.8857 1.19298 23.9841 1.01796 24.1591C0.842951 24.3341 0.744629 24.5715 0.744629 24.819C0.744629 25.0665 0.842951 25.3038 1.01796 25.4789C1.19298 25.6539 1.43035 25.7522 1.67786 25.7522H3.54431C3.79182 25.7522 4.02919 25.6539 4.2042 25.4789C4.37921 25.3038 4.47754 25.0665 4.47754 24.819C4.47754 24.5715 4.37921 24.3341 4.2042 24.1591C4.02919 23.9841 3.79182 23.8857 3.54431 23.8857Z" fill="white"/>
<path id="Vector_7" d="M19.146 23.1281L16.1429 21.2785C16.2574 21.0132 16.3909 20.7565 16.5423 20.5104C16.6478 20.3294 16.7513 20.1502 16.8391 19.9776L18.5133 16.7197C18.6699 16.3751 18.7551 16.0023 18.7636 15.6238C18.772 15.2453 18.7037 14.8691 18.5626 14.5178C18.4216 14.1665 18.2108 13.8475 17.9429 13.58C17.675 13.3125 17.3557 13.1021 17.0042 12.9616L15.8078 12.4828C15.1493 12.2145 14.4129 12.2088 13.7503 12.4669C13.0877 12.7251 12.5492 13.2274 12.2457 13.8705L10.8869 16.4201H5.41077C5.16326 16.4201 4.92589 16.5184 4.75088 16.6934C4.57586 16.8684 4.47754 17.1058 4.47754 17.3533C4.47754 17.6008 4.57586 17.8382 4.75088 18.0132C4.92589 18.1882 5.16326 18.2866 5.41077 18.2866H12.8766C13.1241 18.2866 13.3615 18.1882 13.5365 18.0132C13.7115 17.8382 13.8098 17.6008 13.8098 17.3533C13.808 17.1277 13.7237 16.9106 13.5727 16.7429C13.4218 16.5753 13.2146 16.4687 12.9904 16.4434L13.9237 14.6964C14.0229 14.4778 14.2027 14.3058 14.4255 14.2163C14.6483 14.1268 14.8971 14.1266 15.1201 14.2158L16.3165 14.6946C16.4339 14.741 16.5406 14.811 16.63 14.9002C16.7194 14.9895 16.7896 15.0961 16.8363 15.2134C16.9275 15.4356 16.9275 15.6847 16.8363 15.9068L15.1826 19.1265C15.1079 19.272 15.0193 19.4232 14.9306 19.5763C14.4939 20.3294 13.5858 21.8953 15.037 22.7894L18.1661 24.7193C18.3607 24.8859 18.494 25.1128 18.5448 25.364C18.5955 25.6151 18.5608 25.876 18.4461 26.1051L17.5614 29.5095C17.5732 29.4595 17.581 29.4087 17.5847 29.3574C17.7592 27.0244 17.4746 25.5891 16.7093 25.0795L12.0852 22.2546C11.9806 22.1907 11.8644 22.148 11.7433 22.129C11.6222 22.1099 11.4986 22.1149 11.3794 22.1437C11.2603 22.1725 11.1479 22.2245 11.0489 22.2966C10.9498 22.3688 10.8659 22.4598 10.802 22.5645C10.6963 22.741 10.6528 22.9478 10.6783 23.152C10.7039 23.3561 10.797 23.5458 10.9429 23.6909L6.83674 29.531L10.9224 20.5422C10.9775 20.43 11.0095 20.308 11.0166 20.1833C11.0237 20.0585 11.0056 19.9336 10.9635 19.816C10.9214 19.6984 10.8561 19.5904 10.7715 19.4985C10.6869 19.4066 10.5847 19.3326 10.4709 19.2809C10.3572 19.2292 10.2342 19.2009 10.1093 19.1976C9.98445 19.1943 9.86017 19.2162 9.74388 19.2618C9.62758 19.3075 9.52164 19.376 9.43232 19.4634C9.34301 19.5507 9.27215 19.6551 9.22393 19.7704L5.14106 28.7564C4.95771 29.1708 4.934 29.6383 5.07449 30.0691C5.21498 30.4999 5.50975 30.8635 5.90214 31.0901C6.29453 31.3167 6.75683 31.3902 7.20016 31.2966C7.64349 31.2029 8.03655 30.9487 8.30377 30.5828L12.5033 24.7034L15.6035 26.5923C15.7687 27.4372 15.8102 28.3017 15.7267 29.1586C15.6343 29.6293 15.7285 30.1173 15.9893 30.5198C16.2501 30.9223 16.6571 31.2077 17.1243 31.3157C17.5916 31.4238 18.0826 31.346 18.4936 31.0988C18.9046 30.8517 19.2034 30.4545 19.327 29.9911L20.2491 26.5839C20.4832 25.968 20.5015 25.291 20.3012 24.6633C20.1009 24.0357 19.6936 23.4945 19.146 23.1281Z" fill="white"/>
</g>
</g>
</svg>
