<svg width="34" height="34" viewBox="0 0 34 34" fill="none" xmlns="http://www.w3.org/2000/svg">
<g id="Group 354">
<path id="Rectangle 139" d="M33.5405 0.344727H16.7972V9.51073C16.7972 13.6956 20.1897 17.088 24.3745 17.088H33.5405V0.344727Z" fill="#ECECEC"/>
<g id="Group">
<path id="Vector" d="M20.7273 12.9585H6.35107V27.335H20.7273V12.9585Z" fill="black"/>
<path id="Vector_2" d="M6.5927 31.7277H4.60796C4.46103 31.7277 4.34229 31.8467 4.34229 31.9933C4.34229 32.14 4.46133 32.259 4.60796 32.259H6.5927C6.73963 32.259 6.85837 32.14 6.85837 31.9933C6.85837 31.8467 6.73933 31.7277 6.5927 31.7277Z" fill="black"/>
<path id="Vector_3" d="M18.5014 31.7277H16.5166C16.3697 31.7277 16.251 31.8467 16.251 31.9933C16.251 32.14 16.37 32.259 16.5166 32.259H18.5014C18.6483 32.259 18.7671 32.14 18.7671 31.9933C18.7671 31.8467 18.648 31.7277 18.5014 31.7277Z" fill="black"/>
<path id="Vector_4" d="M14.532 31.7277H12.5469C12.4 31.7277 12.2812 31.8467 12.2812 31.9933C12.2812 32.14 12.4003 32.259 12.5469 32.259H14.5317C14.6786 32.259 14.7973 32.14 14.7973 31.9933C14.7973 31.8467 14.6786 31.7277 14.532 31.7277Z" fill="black"/>
<path id="Vector_5" d="M10.5619 31.7277H8.57719C8.43027 31.7277 8.31152 31.8467 8.31152 31.9933C8.31152 32.14 8.43057 32.259 8.57719 32.259H10.5619C10.7089 32.259 10.8276 32.14 10.8276 31.9933C10.8276 31.8467 10.7089 31.7277 10.5619 31.7277Z" fill="black"/>
<path id="Vector_6" d="M22.4706 31.7277H20.4859C20.339 31.7277 20.2202 31.8467 20.2202 31.9933C20.2202 32.14 20.3393 32.259 20.4859 32.259H22.4706C22.6176 32.259 22.7363 32.14 22.7363 31.9933C22.7363 31.8467 22.6176 31.7277 22.4706 31.7277Z" fill="black"/>
<path id="Vector_7" d="M1.42725 21.1394C1.42725 21.2863 1.54629 21.4051 1.69292 21.4051C1.83955 21.4051 1.95859 21.286 1.95859 21.1394V19.1543C1.95859 19.0074 1.83955 18.8887 1.69292 18.8887C1.54629 18.8887 1.42725 19.0077 1.42725 19.1543V21.1394Z" fill="black"/>
<path id="Vector_8" d="M1.69292 13.4658C1.83985 13.4658 1.95859 13.3467 1.95859 13.2001V11.2154C1.95859 11.0684 1.83955 10.9497 1.69292 10.9497C1.54629 10.9497 1.42725 11.0687 1.42725 11.2154V13.2001C1.42725 13.3467 1.54629 13.4658 1.69292 13.4658Z" fill="black"/>
<path id="Vector_9" d="M1.42725 29.0784C1.42725 29.2253 1.54629 29.3441 1.69292 29.3441C1.83955 29.3441 1.95859 29.225 1.95859 29.0784V27.0937C1.95859 26.9467 1.83955 26.828 1.69292 26.828C1.54629 26.828 1.42725 26.947 1.42725 27.0937V29.0784Z" fill="black"/>
<path id="Vector_10" d="M1.42725 25.1089C1.42725 25.2559 1.54629 25.3746 1.69292 25.3746C1.83955 25.3746 1.95859 25.2556 1.95859 25.1089V23.1242C1.95859 22.9773 1.83955 22.8585 1.69292 22.8585C1.54629 22.8585 1.42725 22.9776 1.42725 23.1242V25.1089Z" fill="black"/>
<path id="Vector_11" d="M1.42725 17.1697C1.42725 17.3166 1.54629 17.4353 1.69292 17.4353C1.83955 17.4353 1.95859 17.3163 1.95859 17.1697V15.1846C1.95859 15.0377 1.83955 14.9189 1.69292 14.9189C1.54629 14.9189 1.42725 15.038 1.42725 15.1846V17.1697Z" fill="black"/>
<path id="Vector_12" d="M22.4706 8.0343H20.4859C20.339 8.0343 20.2202 8.15334 20.2202 8.29997C20.2202 8.4469 20.3393 8.56564 20.4859 8.56564H22.4706C22.6176 8.56564 22.7363 8.4466 22.7363 8.29997C22.7366 8.15334 22.6176 8.0343 22.4706 8.0343Z" fill="black"/>
<path id="Vector_13" d="M12.5469 8.56589H14.5317C14.6786 8.56589 14.7973 8.44685 14.7973 8.30022C14.7973 8.15329 14.6783 8.03455 14.5317 8.03455H12.5469C12.4 8.03455 12.2812 8.15359 12.2812 8.30022C12.2813 8.44685 12.4003 8.56589 12.5469 8.56589Z" fill="black"/>
<path id="Vector_14" d="M4.60796 8.56589H6.5927C6.73963 8.56589 6.85837 8.44685 6.85837 8.30022C6.85837 8.15329 6.73933 8.03455 6.5927 8.03455H4.60796C4.46103 8.03455 4.34229 8.15359 4.34229 8.30022C4.34199 8.44685 4.46103 8.56589 4.60796 8.56589Z" fill="black"/>
<path id="Vector_15" d="M16.5166 8.56589H18.5014C18.6483 8.56589 18.7671 8.44685 18.7671 8.30022C18.7671 8.15329 18.648 8.03455 18.5014 8.03455H16.5166C16.3697 8.03455 16.251 8.15359 16.251 8.30022C16.2507 8.44685 16.3697 8.56589 16.5166 8.56589Z" fill="black"/>
<path id="Vector_16" d="M8.57719 8.56589H10.5619C10.7089 8.56589 10.8276 8.44685 10.8276 8.30022C10.8276 8.15329 10.7086 8.03455 10.5619 8.03455H8.57719C8.43027 8.03455 8.31152 8.15359 8.31152 8.30022C8.31152 8.44685 8.43057 8.56589 8.57719 8.56589Z" fill="black"/>
<path id="Vector_17" d="M25.6519 19.1543C25.6519 19.0074 25.5329 18.8887 25.3863 18.8887C25.2393 18.8887 25.1206 19.0077 25.1206 19.1543V21.1394C25.1206 21.2863 25.2396 21.4051 25.3863 21.4051C25.5332 21.4051 25.6519 21.286 25.6519 21.1394V19.1543Z" fill="black"/>
<path id="Vector_18" d="M25.3863 26.828C25.2393 26.828 25.1206 26.947 25.1206 27.0937V29.0784C25.1206 29.2253 25.2396 29.3441 25.3863 29.3441C25.5332 29.3441 25.6519 29.225 25.6519 29.0784V27.0937C25.6522 26.947 25.5332 26.828 25.3863 26.828Z" fill="black"/>
<path id="Vector_19" d="M25.6519 11.2151C25.6519 11.0682 25.5329 10.9495 25.3863 10.9495C25.2393 10.9495 25.1206 11.0685 25.1206 11.2151V13.1999C25.1206 13.3468 25.2396 13.4655 25.3863 13.4655C25.5332 13.4655 25.6519 13.3465 25.6519 13.1999V11.2151Z" fill="black"/>
<path id="Vector_20" d="M25.6519 23.1242C25.6519 22.9773 25.5329 22.8585 25.3863 22.8585C25.2393 22.8585 25.1206 22.9776 25.1206 23.1242V25.1092C25.1206 25.2562 25.2396 25.3749 25.3863 25.3749C25.5332 25.3749 25.6519 25.2559 25.6519 25.1092V23.1242Z" fill="black"/>
<path id="Vector_21" d="M25.6519 15.185C25.6519 15.0381 25.5329 14.9193 25.3863 14.9193C25.2393 14.9193 25.1206 15.0384 25.1206 15.185V17.1697C25.1206 17.3167 25.2396 17.4354 25.3863 17.4354C25.5332 17.4354 25.6519 17.3164 25.6519 17.1697V15.185Z" fill="black"/>
<path id="Vector_22" d="M1.6927 9.94693C2.60221 9.94693 3.33951 9.20963 3.33951 8.30012C3.33951 7.39062 2.60221 6.65332 1.6927 6.65332C0.783198 6.65332 0.0458984 7.39062 0.0458984 8.30012C0.0458984 9.20963 0.783198 9.94693 1.6927 9.94693Z" fill="black"/>
<path id="Vector_23" d="M25.3861 9.94705C26.2956 9.94705 27.0329 9.20975 27.0329 8.30025C27.0329 7.39074 26.2956 6.65344 25.3861 6.65344C24.4766 6.65344 23.7393 7.39074 23.7393 8.30025C23.7393 9.20975 24.4766 9.94705 25.3861 9.94705Z" fill="black"/>
<path id="Vector_24" d="M1.6927 33.5336C2.60221 33.5336 3.33951 32.7963 3.33951 31.8868C3.33951 30.9773 2.60221 30.24 1.6927 30.24C0.783198 30.24 0.0458984 30.9773 0.0458984 31.8868C0.0458984 32.7963 0.783198 33.5336 1.6927 33.5336Z" fill="black"/>
<path id="Vector_25" d="M25.3861 33.5336C26.2956 33.5336 27.0329 32.7963 27.0329 31.8868C27.0329 30.9773 26.2956 30.24 25.3861 30.24C24.4766 30.24 23.7393 30.9773 23.7393 31.8868C23.7393 32.7963 24.4766 33.5336 25.3861 33.5336Z" fill="black"/>
</g>
</g>
</svg>
