<svg width="20" height="20" viewBox="0 0 20 20" fill="none" xmlns="http://www.w3.org/2000/svg">
<path d="M16.25 8.75V17.5H3.75V8.75H16.25Z" stroke="white" stroke-linecap="round" stroke-linejoin="round"/>
<path d="M11.25 8.75V17.5H8.75V8.75H11.25Z" fill="#FF5252"/>
<path d="M11.25 8.75V17.5H8.75V8.75H11.25Z" stroke="white" stroke-linecap="round" stroke-linejoin="round"/>
<path d="M17.8613 6.59316L17.5516 8.44242C17.5231 8.61252 17.3619 8.7275 17.1918 8.69901L3.01422 6.3249C2.84411 6.29641 2.72913 6.13518 2.75762 5.96508L3.06729 4.11583C3.09577 3.94573 3.257 3.83074 3.42711 3.85923L17.6047 6.23335C17.7748 6.26183 17.8898 6.42306 17.8613 6.59316Z" stroke="white" stroke-linecap="round" stroke-linejoin="round"/>
<path d="M11.7487 5.25273L11.3358 7.7184L8.87013 7.30551L9.28302 4.83984L11.7487 5.25273Z" fill="#FF5252"/>
<path d="M11.7487 5.25273L11.3358 7.7184L8.87013 7.30551L9.28302 4.83984L11.7487 5.25273Z" stroke="white" stroke-linecap="round" stroke-linejoin="round"/>
<path d="M10.1706 4.98786C9.66087 4.90249 8.76676 4.75277 8.76676 4.75277C7.60327 4.55794 6.69387 3.64046 6.51059 2.47385L6.49577 2.37315C6.37997 1.63609 6.88243 0.943943 7.62103 0.828403C7.76413 0.806422 7.90977 0.807047 8.05309 0.831046C9.15802 1.01607 10.0197 1.88754 10.1943 2.99248L10.5158 5.04566C10.5158 5.04566 10.3738 5.02187 10.1706 4.98786Z" stroke="white" stroke-linecap="round" stroke-linejoin="round"/>
<path d="M10.9498 5.11779C10.7462 5.0837 10.6037 5.05983 10.6037 5.05983L11.5781 3.22368C12.1016 2.23563 13.2002 1.69241 14.3051 1.87744C14.4484 1.90144 14.5863 1.9483 14.716 2.01595C15.3751 2.36555 15.6262 3.18389 15.2766 3.84301L15.2283 3.93314C14.6749 4.97639 13.5163 5.54756 12.3528 5.35272C12.3528 5.35272 11.4596 5.20316 10.9498 5.11779Z" stroke="white" stroke-linecap="round" stroke-linejoin="round"/>
</svg>
