<svg width="25" height="26" viewBox="0 0 25 26" fill="none" xmlns="http://www.w3.org/2000/svg">
<g id="Group 177">
<path id="Rectangle 123" d="M24.9243 25.0583H0.544689V9.0413C0.544689 4.42277 4.28875 0.678722 8.90727 0.678722H24.9243V25.0583Z" fill="#22DDB1"/>
<path id="Vector" d="M10.5869 17.7209L10.8222 17.956L11.0572 17.7208L19.5483 9.22521L19.5574 9.21616L19.5657 9.20643C19.6935 9.05722 19.7602 8.86528 19.7527 8.66897C19.7451 8.47267 19.6637 8.28645 19.5248 8.14754L19.2901 8.38221L19.5248 8.14754C19.3859 8.00863 19.1997 7.92725 19.0034 7.91966C18.807 7.91208 18.6151 7.97885 18.4659 8.10664L18.4562 8.11493L18.4472 8.12395L10.8132 15.7493L7.02191 11.958L7.01282 11.949L7.00306 11.9406C6.85385 11.8128 6.66191 11.746 6.4656 11.7536C6.2693 11.7612 6.08308 11.8426 5.94417 11.9815C5.80526 12.1204 5.72388 12.3066 5.7163 12.5029C5.70871 12.6992 5.77548 12.8912 5.90327 13.0404L5.91168 13.0502L5.92082 13.0593L10.5869 17.7209Z" fill="#242424" stroke="black" stroke-width="0.665252"/>
</g>
</svg>
