<svg width="72" height="39" viewBox="0 0 72 39" fill="none" xmlns="http://www.w3.org/2000/svg">
<g id="Group 357">
<path id="Rectangle 140" d="M71.0713 29.0765H42.1784V13.2593C42.1784 6.03779 48.0326 0.183617 55.2541 0.183617H71.0713V29.0765Z" fill="#A94CFF"/>
<g id="Group">
<path id="Vector" d="M14.1798 12.5101H1.92778C0.892402 12.5101 0.202148 13.2003 0.202148 14.2357V36.669C0.202148 37.7043 0.892402 38.3946 1.92778 38.3946H14.1798C14.87 38.3946 15.3877 38.0495 15.7329 37.5318L21.6 26.3152C21.7726 25.7975 21.7726 25.2798 21.6 24.7621L15.7329 13.5455C15.3877 12.8552 14.6975 12.5101 14.1798 12.5101Z" fill="white"/>
<path id="Vector_2" d="M29.3658 34.9436C28.6755 34.9436 28.1579 34.771 27.6402 34.4259C26.9499 33.9082 26.2597 33.218 26.0871 32.3551C25.9145 31.4923 25.9145 30.4569 26.4322 29.7667L28.6755 25.4526L26.4322 21.1385C26.2597 20.4483 26.0871 19.9306 26.0871 19.4129C26.0871 17.5147 27.6402 15.9616 29.5384 15.9616H35.5781C36.9586 15.9616 38.1665 16.6519 38.6842 17.8598L41.7904 23.8995C42.3081 24.9349 42.3081 26.1429 41.7904 27.0057L38.5117 33.0454C37.994 34.2533 36.786 34.9436 35.4055 34.9436H29.3658ZM29.3658 19.4129L31.6091 23.727C32.1268 24.7623 32.1268 25.9703 31.6091 27.0057L29.3658 31.4923H35.5781L38.8568 25.4526L35.5781 19.4129H29.3658Z" fill="white"/>
<path id="Vector_3" d="M47.8301 34.9435C47.1398 34.9435 46.6221 34.771 46.1044 34.4258C44.3788 33.3904 43.8611 31.3197 44.8965 29.7666L47.1398 25.4525L44.8965 21.1384C44.0337 19.4128 44.7239 17.342 46.277 16.4792C46.7947 16.1341 47.3124 16.1341 47.8301 16.1341H55.4228C57.321 16.1341 58.8741 17.6872 58.8741 19.5854V31.6648C58.8741 33.563 57.321 35.1161 55.4228 35.1161L47.8301 34.9435ZM55.4228 19.4128H47.8301L50.2459 23.7269C50.7636 24.7623 50.7636 25.9702 50.2459 27.0056L47.8301 31.4922H55.4228V19.4128Z" fill="white"/>
</g>
</g>
</svg>
