<svg width="1512" height="1622" viewBox="0 0 1512 1622" fill="none" xmlns="http://www.w3.org/2000/svg">
<g opacity="0.3">
<line x1="0.222162" y1="0.366943" x2="0.222131" y2="1621.42" stroke="white" stroke-width="0.432605"/>
<line x1="95.3452" y1="0.36499" x2="95.3452" y2="1621.41" stroke="white" stroke-width="0.432605"/>
<line x1="190.459" y1="0.36499" x2="190.459" y2="1621.41" stroke="white" stroke-width="0.432605"/>
<line x1="285.569" y1="0.362305" x2="285.569" y2="1621.41" stroke="white" stroke-width="0.432605"/>
<line x1="380.685" y1="0.362305" x2="380.685" y2="1621.41" stroke="white" stroke-width="0.432605"/>
<line x1="475.8" y1="0.362305" x2="475.8" y2="1621.41" stroke="white" stroke-width="0.432605"/>
<line x1="570.918" y1="0.362305" x2="570.918" y2="1621.41" stroke="white" stroke-width="0.432605"/>
<line x1="666.036" y1="0.362305" x2="666.036" y2="1621.41" stroke="white" stroke-width="0.432605"/>
<line x1="761.15" y1="0.362305" x2="761.15" y2="1621.41" stroke="white" stroke-width="0.432605"/>
<line x1="856.265" y1="0.362305" x2="856.265" y2="1621.41" stroke="white" stroke-width="0.432605"/>
<line x1="951.379" y1="0.362305" x2="951.379" y2="1621.41" stroke="white" stroke-width="0.432605"/>
<line x1="1046.5" y1="0.362305" x2="1046.5" y2="1621.41" stroke="white" stroke-width="0.432605"/>
<line x1="1046.5" y1="0.362305" x2="1046.5" y2="1621.41" stroke="white" stroke-width="0.432605"/>
<line x1="1141.69" y1="0.362305" x2="1141.69" y2="1621.41" stroke="white" stroke-width="0.432605"/>
<line x1="1236.9" y1="0.362305" x2="1236.9" y2="1621.41" stroke="white" stroke-width="0.432605"/>
<line x1="1332.09" y1="0.362305" x2="1332.09" y2="1621.41" stroke="white" stroke-width="0.432605"/>
<line x1="1427.29" y1="0.362305" x2="1427.29" y2="1621.41" stroke="white" stroke-width="0.432605"/>
<line x1="1617.47" y1="95.6941" x2="0.0118408" y2="95.694" stroke="white" stroke-width="0.432605"/>
<line x1="1617.47" y1="190.811" x2="0.0118408" y2="190.811" stroke="white" stroke-width="0.432605"/>
<line x1="1617.47" y1="285.926" x2="0.0118408" y2="285.926" stroke="white" stroke-width="0.432605"/>
<line x1="1617.47" y1="381.041" x2="0.0118408" y2="381.04" stroke="white" stroke-width="0.432605"/>
<line x1="1617.47" y1="476.157" x2="0.0118408" y2="476.157" stroke="white" stroke-width="0.432605"/>
<line x1="1617.47" y1="571.273" x2="0.0118408" y2="571.273" stroke="white" stroke-width="0.432605"/>
<line x1="1617.47" y1="666.388" x2="0.0118408" y2="666.388" stroke="white" stroke-width="0.432605"/>
<line x1="1617.47" y1="761.503" x2="0.0118408" y2="761.503" stroke="white" stroke-width="0.432605"/>
<line x1="1617.47" y1="856.62" x2="0.0118408" y2="856.62" stroke="white" stroke-width="0.432605"/>
<line x1="1617.47" y1="951.733" x2="0.0118408" y2="951.733" stroke="white" stroke-width="0.432605"/>
<line x1="1617.47" y1="1046.85" x2="0.0118408" y2="1046.85" stroke="white" stroke-width="0.432605"/>
<line x1="1617.47" y1="1142.65" x2="0.0118408" y2="1142.65" stroke="white" stroke-width="0.432605"/>
<line x1="1617.47" y1="1238.45" x2="0.0118408" y2="1238.44" stroke="white" stroke-width="0.432605"/>
<line x1="1617.47" y1="1334.24" x2="0.0118408" y2="1334.24" stroke="white" stroke-width="0.432605"/>
<line x1="1617.47" y1="1430.04" x2="0.0118408" y2="1430.04" stroke="white" stroke-width="0.432605"/>
<line x1="1617.47" y1="1525.84" x2="0.0118408" y2="1525.84" stroke="white" stroke-width="0.432605"/>
<line x1="1617.47" y1="1621.63" x2="0.0118408" y2="1621.63" stroke="white" stroke-width="0.432605"/>
</g>
</svg>
