<svg width="1412" height="683" viewBox="0 0 1412 683" fill="none" xmlns="http://www.w3.org/2000/svg">
<mask id="mask0_117_1168" style="mask-type:alpha" maskUnits="userSpaceOnUse" x="0" y="0" width="1412" height="683">
<path d="M0.13623 0.334961H1411.86V532.843C1411.86 615.686 1344.71 682.844 1261.86 682.844H0.13623V0.334961Z" fill="#ECECEC"/>
</mask>
<g mask="url(#mask0_117_1168)">
<g opacity="0.4">
<line x1="38.7261" y1="-12.9338" x2="38.7261" y2="696.114" stroke="#242424" stroke-width="0.432605"/>
<line x1="80.3301" y1="-12.9338" x2="80.3301" y2="696.114" stroke="#242424" stroke-width="0.432605"/>
<line x1="121.933" y1="-12.9355" x2="121.933" y2="696.112" stroke="#242424" stroke-width="0.432605"/>
<line x1="163.536" y1="-12.9355" x2="163.536" y2="696.112" stroke="#242424" stroke-width="0.432605"/>
<line x1="205.14" y1="-12.9355" x2="205.14" y2="696.112" stroke="#242424" stroke-width="0.432605"/>
<line x1="246.744" y1="-12.9355" x2="246.744" y2="696.112" stroke="#242424" stroke-width="0.432605"/>
<line x1="288.348" y1="-12.9355" x2="288.348" y2="696.112" stroke="#242424" stroke-width="0.432605"/>
<line x1="329.952" y1="-12.9355" x2="329.952" y2="696.112" stroke="#242424" stroke-width="0.432605"/>
<line x1="371.555" y1="-12.9355" x2="371.555" y2="696.112" stroke="#242424" stroke-width="0.432605"/>
<line x1="413.158" y1="-12.9355" x2="413.158" y2="696.112" stroke="#242424" stroke-width="0.432605"/>
<line x1="454.762" y1="-12.9355" x2="454.762" y2="696.112" stroke="#242424" stroke-width="0.432605"/>
<line x1="454.762" y1="-12.9355" x2="454.762" y2="696.112" stroke="#242424" stroke-width="0.432605"/>
<line x1="496.402" y1="-12.9355" x2="496.402" y2="696.112" stroke="#242424" stroke-width="0.432605"/>
<line x1="538.041" y1="-12.9355" x2="538.042" y2="696.112" stroke="#242424" stroke-width="0.432605"/>
<line x1="579.682" y1="-12.9355" x2="579.682" y2="696.112" stroke="#242424" stroke-width="0.432605"/>
<line x1="621.321" y1="-12.9355" x2="621.321" y2="696.112" stroke="#242424" stroke-width="0.432605"/>
<line x1="662.96" y1="-12.9355" x2="662.96" y2="696.112" stroke="#242424" stroke-width="0.432605"/>
<line x1="704.601" y1="-12.9355" x2="704.601" y2="696.112" stroke="#242424" stroke-width="0.432605"/>
<line x1="704.385" y1="28.8843" x2="-3.09387" y2="28.8842" stroke="#242424" stroke-width="0.432605"/>
<line x1="704.385" y1="70.4885" x2="-3.09387" y2="70.4885" stroke="#242424" stroke-width="0.432605"/>
<line x1="704.385" y1="112.092" x2="-3.09387" y2="112.092" stroke="#242424" stroke-width="0.432605"/>
<line x1="704.385" y1="153.695" x2="-3.09387" y2="153.695" stroke="#242424" stroke-width="0.432605"/>
<line x1="704.385" y1="195.299" x2="-3.09387" y2="195.299" stroke="#242424" stroke-width="0.432605"/>
<line x1="704.385" y1="236.903" x2="-3.09387" y2="236.903" stroke="#242424" stroke-width="0.432605"/>
<line x1="704.385" y1="278.506" x2="-3.09387" y2="278.506" stroke="#242424" stroke-width="0.432605"/>
<line x1="704.385" y1="320.11" x2="-3.09387" y2="320.11" stroke="#242424" stroke-width="0.432605"/>
<line x1="704.385" y1="361.714" x2="-3.09387" y2="361.714" stroke="#242424" stroke-width="0.432605"/>
<line x1="704.385" y1="403.317" x2="-3.09387" y2="403.317" stroke="#242424" stroke-width="0.432605"/>
<line x1="704.385" y1="444.921" x2="-3.09387" y2="444.921" stroke="#242424" stroke-width="0.432605"/>
<line x1="704.385" y1="486.823" x2="-3.09387" y2="486.823" stroke="#242424" stroke-width="0.432605"/>
<line x1="704.385" y1="528.725" x2="-3.09387" y2="528.725" stroke="#242424" stroke-width="0.432605"/>
<line x1="704.385" y1="570.625" x2="-3.09387" y2="570.625" stroke="#242424" stroke-width="0.432605"/>
<line x1="704.385" y1="612.528" x2="-3.09387" y2="612.528" stroke="#242424" stroke-width="0.432605"/>
<line x1="704.385" y1="654.429" x2="-3.09387" y2="654.429" stroke="#242424" stroke-width="0.432605"/>
</g>
<g opacity="0.4">
<line x1="704.6" y1="-12.9341" x2="704.6" y2="696.114" stroke="#242424" stroke-width="0.432605"/>
<line x1="746.205" y1="-12.9338" x2="746.205" y2="696.114" stroke="#242424" stroke-width="0.432605"/>
<line x1="787.809" y1="-12.9338" x2="787.809" y2="696.114" stroke="#242424" stroke-width="0.432605"/>
<line x1="829.411" y1="-12.9355" x2="829.411" y2="696.112" stroke="#242424" stroke-width="0.432605"/>
<line x1="871.014" y1="-12.9355" x2="871.014" y2="696.112" stroke="#242424" stroke-width="0.432605"/>
<line x1="912.619" y1="-12.9355" x2="912.619" y2="696.112" stroke="#242424" stroke-width="0.432605"/>
<line x1="954.222" y1="-12.9355" x2="954.222" y2="696.112" stroke="#242424" stroke-width="0.432605"/>
<line x1="995.826" y1="-12.9355" x2="995.826" y2="696.112" stroke="#242424" stroke-width="0.432605"/>
<line x1="1037.43" y1="-12.9355" x2="1037.43" y2="696.112" stroke="#242424" stroke-width="0.432605"/>
<line x1="1079.03" y1="-12.9355" x2="1079.03" y2="696.112" stroke="#242424" stroke-width="0.432605"/>
<line x1="1120.64" y1="-12.9355" x2="1120.64" y2="696.112" stroke="#242424" stroke-width="0.432605"/>
<line x1="1162.24" y1="-12.9355" x2="1162.24" y2="696.112" stroke="#242424" stroke-width="0.432605"/>
<line x1="1162.24" y1="-12.9355" x2="1162.24" y2="696.112" stroke="#242424" stroke-width="0.432605"/>
<line x1="1203.88" y1="-12.9355" x2="1203.88" y2="696.112" stroke="#242424" stroke-width="0.432605"/>
<line x1="1245.52" y1="-12.9355" x2="1245.52" y2="696.112" stroke="#242424" stroke-width="0.432605"/>
<line x1="1287.16" y1="-12.9355" x2="1287.16" y2="696.112" stroke="#242424" stroke-width="0.432605"/>
<line x1="1328.8" y1="-12.9355" x2="1328.8" y2="696.112" stroke="#242424" stroke-width="0.432605"/>
<line x1="1370.44" y1="-12.9355" x2="1370.44" y2="696.112" stroke="#242424" stroke-width="0.432605"/>
<line x1="1412.08" y1="-12.9355" x2="1412.08" y2="696.112" stroke="#242424" stroke-width="0.432605"/>
<line x1="1411.86" y1="28.8843" x2="704.385" y2="28.8842" stroke="#242424" stroke-width="0.432605"/>
<line x1="1411.86" y1="70.4885" x2="704.385" y2="70.4885" stroke="#242424" stroke-width="0.432605"/>
<line x1="1411.86" y1="112.092" x2="704.385" y2="112.092" stroke="#242424" stroke-width="0.432605"/>
<line x1="1411.86" y1="153.695" x2="704.385" y2="153.695" stroke="#242424" stroke-width="0.432605"/>
<line x1="1411.86" y1="195.299" x2="704.385" y2="195.299" stroke="#242424" stroke-width="0.432605"/>
<line x1="1411.86" y1="236.903" x2="704.385" y2="236.903" stroke="#242424" stroke-width="0.432605"/>
<line x1="1411.86" y1="278.506" x2="704.385" y2="278.506" stroke="#242424" stroke-width="0.432605"/>
<line x1="1411.86" y1="320.11" x2="704.385" y2="320.11" stroke="#242424" stroke-width="0.432605"/>
<line x1="1411.86" y1="361.714" x2="704.385" y2="361.714" stroke="#242424" stroke-width="0.432605"/>
<line x1="1411.86" y1="403.317" x2="704.385" y2="403.317" stroke="#242424" stroke-width="0.432605"/>
<line x1="1411.86" y1="444.921" x2="704.385" y2="444.921" stroke="#242424" stroke-width="0.432605"/>
<line x1="1411.86" y1="486.823" x2="704.385" y2="486.823" stroke="#242424" stroke-width="0.432605"/>
<line x1="1411.86" y1="528.725" x2="704.385" y2="528.725" stroke="#242424" stroke-width="0.432605"/>
<line x1="1411.86" y1="570.625" x2="704.385" y2="570.625" stroke="#242424" stroke-width="0.432605"/>
<line x1="1411.86" y1="612.528" x2="704.385" y2="612.528" stroke="#242424" stroke-width="0.432605"/>
<line x1="1411.86" y1="654.429" x2="704.385" y2="654.429" stroke="#242424" stroke-width="0.432605"/>
</g>
</g>
</svg>
