<svg width="42" height="23" viewBox="0 0 42 23" fill="none" xmlns="http://www.w3.org/2000/svg">
<g id="Group 179">
<path id="Rectangle 135" d="M25.0737 16.9845H41.8171V7.81849C41.8171 3.63366 38.4246 0.241175 34.2397 0.241175H25.0737V16.9845Z" fill="#22DDB1"/>
<path id="Vector" d="M8.28969 21.8251C12.1477 21.8251 15.2752 18.6976 15.2752 14.8396C15.2752 10.9816 12.1477 7.85413 8.28969 7.85413C4.43171 7.85413 1.3042 10.9816 1.3042 14.8396C1.3042 18.6976 4.43171 21.8251 8.28969 21.8251Z" fill="black"/>
<path id="Vector_2" fill-rule="evenodd" clip-rule="evenodd" d="M8.28967 7.29456C4.12552 7.29456 0.744629 10.6753 0.744629 14.8395C0.744629 19.0037 4.12552 22.3845 8.28967 22.3845C12.4538 22.3845 15.8346 19.0037 15.8346 14.8395C15.8346 10.6753 12.4538 7.29456 8.28967 7.29456ZM8.28967 8.41355C11.8363 8.41355 14.7156 11.2929 14.7156 14.8395C14.7156 18.3862 11.8363 21.2655 8.28967 21.2655C4.74296 21.2655 1.86362 18.3862 1.86362 14.8395C1.86362 11.2929 4.74296 8.41355 8.28967 8.41355Z" fill="black"/>
<path id="Vector_3" fill-rule="evenodd" clip-rule="evenodd" d="M25.0737 7.29456C20.9096 7.29456 17.5288 10.6753 17.5288 14.8395C17.5288 19.0037 20.9096 22.3845 25.0737 22.3845C29.2379 22.3845 32.6188 19.0037 32.6188 14.8395C32.6188 10.6753 29.2379 7.29456 25.0737 7.29456ZM25.0737 8.41355C28.6203 8.41355 31.4998 11.2929 31.4998 14.8395C31.4998 18.3862 28.6203 21.2655 25.0737 21.2655C21.5271 21.2655 18.6478 18.3862 18.6478 14.8395C18.6478 11.2929 21.5271 8.41355 25.0737 8.41355Z" fill="black"/>
</g>
</svg>
