<svg width="110" height="62" viewBox="0 0 110 62" fill="none" xmlns="http://www.w3.org/2000/svg">
<path d="M45 62H0V36.9982C0 25.9535 8.95352 17 19.9982 17H45V62Z" fill="#FF4167"/>
<path d="M85.5734 39.4647C86.9892 38.0426 88.1663 36.7246 89.049 35.6338L85.0769 20.5739C83.8533 20.1711 82.337 19.7406 80.6084 19.3324M85.5734 39.4647L96 52.7019C91.035 53.3712 81.2503 53.6171 79.6154 53.2039C77.6294 52.7019 76.1399 49.2033 75.1469 47.956M85.5734 39.4647C82.8488 42.2016 79.2406 45.3244 75.1469 47.956M75.1469 47.956C70.599 50.8796 65.4519 53.197 60.2517 53.7058C44.8601 55.2118 34.9301 50.6938 25 45.6738C27.8135 39.9845 36.7175 26.9994 49.8252 20.5739C54.8924 18.0122 61.1827 17.2986 67.2028 17.5022M80.6084 19.3324L83.0909 2C78.2914 4.17533 68.6923 9.02798 68.1958 10.534C67.6779 12.1048 67.3683 15.8488 67.2028 17.5022M80.6084 19.3324C76.8642 18.4482 72.1238 17.6687 67.2028 17.5022" stroke="#333333" stroke-width="4" stroke-linejoin="round"/>
<path d="M93.8919 34C100.508 31.9529 106.054 24.6176 108 21.2059C101.773 17.1117 93.4054 17.7941 90 18.647C92.9189 19.1588 98.9514 20.8988 99.7297 23.7647C100.508 26.6306 96.1622 31.7823 93.8919 34Z" fill="#333333" stroke="#333333" stroke-width="4" stroke-linejoin="round"/>
<circle cx="52" cy="38" r="6" transform="rotate(180 52 38)" fill="#333333" stroke="#333333" stroke-width="4"/>
</svg>
