<svg width="108" height="60" viewBox="0 0 108 60" fill="none" xmlns="http://www.w3.org/2000/svg">
<path d="M0 15H45V40C45 51.0457 36.0457 60 25 60H0V15Z" fill="#A94CFF"/>
<path d="M86.5588 40H105.353C106.941 40 108 38.9333 108 37.3333V2.66666C108 1.06667 106.941 0 105.353 0H86.5588C85.5 0 84.7059 0.533333 84.1765 1.33333L75.1765 18.6667C74.9118 19.4667 74.9118 20.2667 75.1765 21.0667L84.1765 38.4C84.7059 39.4667 85.7647 40 86.5588 40Z" fill="#242424"/>
<path d="M63.2634 5.33268C64.3223 5.33268 65.1164 5.59935 65.9105 6.13268C66.9693 6.93268 68.0282 7.99935 68.2929 9.33268C68.5576 10.666 68.5576 12.266 67.7634 13.3327L64.3223 19.9993L67.7634 26.666C68.0282 27.7327 68.2929 28.5327 68.2929 29.3327C68.2929 32.266 65.9105 34.666 62.9987 34.666H53.734C51.6164 34.666 49.7634 33.5993 48.9693 31.7327L44.2046 22.3993C43.4105 20.7993 43.4105 18.9327 44.2046 17.5993L49.234 8.26602C50.0282 6.39935 51.8811 5.33268 53.9987 5.33268H63.2634ZM63.2634 29.3327L59.8223 22.666C59.0282 21.066 59.0282 19.1993 59.8223 17.5993L63.2634 10.666H53.734L48.7046 19.9993L53.734 29.3327H63.2634Z" fill="#242424"/>
<path d="M34.941 5.3347C35.9998 5.3347 36.7939 5.60137 37.588 6.1347C40.2351 7.7347 41.0292 10.9347 39.441 13.3347L35.9998 20.0014L39.441 26.668C40.7645 29.3347 39.7057 32.5347 37.3233 33.868C36.5292 34.4014 35.7351 34.4014 34.941 34.4014H23.2939C20.3821 34.4014 17.9998 32.0014 17.9998 29.068V10.4014C17.9998 7.46803 20.3821 5.06803 23.2939 5.06803L34.941 5.3347ZM23.2939 29.3347H34.941L31.2351 22.668C30.441 21.068 30.441 19.2014 31.2351 17.6014L34.941 10.668H23.2939V29.3347Z" fill="#242424"/>
</svg>
