<svg width="24" height="24" viewBox="0 0 24 24" fill="none" xmlns="http://www.w3.org/2000/svg">
<path d="M24 24H0V8C0 3.58172 3.58172 0 8 0H24V24Z" fill="#F1909C"/>
<path d="M10.5009 16.2887L10.6995 16.487L10.8978 16.2886L19.2567 7.92529L19.2643 7.91765L19.2714 7.90945C19.3895 7.7715 19.4512 7.59405 19.4442 7.41257C19.4372 7.23109 19.362 7.05893 19.2335 6.93051C19.1051 6.80209 18.933 6.72685 18.7515 6.71984C18.57 6.71283 18.3926 6.77457 18.2546 6.8927L18.2464 6.8997L18.2388 6.90731L10.6906 14.4469L6.92535 10.6817L6.91768 10.674L6.90944 10.667C6.7715 10.5488 6.59405 10.4871 6.41257 10.4941C6.23109 10.5011 6.05893 10.5763 5.93051 10.7048C5.80209 10.8332 5.72685 11.0053 5.71984 11.1868C5.71283 11.3683 5.77456 11.5458 5.8927 11.6837L5.8998 11.692L5.90751 11.6997L10.5009 16.2887Z" fill="#001D26" stroke="#001A22" stroke-width="0.561386"/>
</svg>
