<svg width="28" height="29" viewBox="0 0 28 29" fill="none" xmlns="http://www.w3.org/2000/svg">
<g id="Group 356">
<path id="Rectangle 137" d="M27.564 0.350586H10.8206V9.51659C10.8206 13.7014 14.2131 17.0939 18.398 17.0939H27.564V0.350586Z" fill="#263CFC"/>
<g id="Group">
<g id="Vector">
<mask id="path-2-outside-1_155_58" maskUnits="userSpaceOnUse" x="-0.556152" y="4.55029" width="22" height="25" fill="black">
<rect fill="white" x="-0.556152" y="4.55029" width="22" height="25"/>
<path fill-rule="evenodd" clip-rule="evenodd" d="M10.0742 27.411L9.46121 27.9364C9.29403 28.0797 9.27492 28.3312 9.41822 28.4976C9.56072 28.6648 9.81229 28.6839 9.97947 28.5414L11.3575 27.36C11.5247 27.2167 11.5438 26.9659 11.4005 26.7988L10.2199 25.4207C10.0766 25.2535 9.82502 25.2344 9.65864 25.3777C9.49146 25.5202 9.47236 25.7718 9.61486 25.939L10.2008 26.622C5.20131 26.2996 1.23994 22.1368 1.23994 17.0569C1.23994 12.9149 3.87263 9.38339 7.55457 8.04516C7.76076 7.97032 7.86743 7.74184 7.7926 7.53486C7.71777 7.32867 7.48928 7.22199 7.2823 7.29683C3.29546 8.74651 0.443848 12.571 0.443848 17.0569C0.443848 22.5333 4.69499 27.0256 10.0742 27.411ZM11.4411 7.56511C16.4406 7.88753 20.4011 12.0503 20.4011 17.1302C20.4011 21.2723 17.7685 24.8037 14.0873 26.142C13.8803 26.2168 13.7737 26.4453 13.8493 26.6523C13.9241 26.8585 14.1526 26.9651 14.3588 26.8903C18.3464 25.4406 21.1972 21.6162 21.1972 17.1302C21.1972 11.6539 16.9469 7.16149 11.5669 6.77618L12.1807 6.25076C12.3471 6.10746 12.3662 5.8559 12.2237 5.68951C12.0804 5.52233 11.8288 5.50323 11.6624 5.64573L10.2844 6.82713C10.1172 6.97043 10.0981 7.2212 10.2406 7.38838L11.422 8.76642C11.5645 8.9336 11.8161 8.9527 11.9832 8.80941C12.1496 8.66691 12.1695 8.41534 12.0262 8.24816L11.4411 7.56511ZM8.71607 16.9407L6.02925 19.6283C6.01333 19.6435 5.99821 19.6602 5.98467 19.6785L5.98228 19.6817C5.96795 19.7024 5.95521 19.7239 5.94486 19.7462L4.47845 22.7052C4.40202 22.8581 4.43228 23.0428 4.55329 23.163C4.6743 23.284 4.8582 23.3142 5.01184 23.2386L7.97092 21.7722C7.99321 21.7619 8.0147 21.7491 8.0354 21.734L8.0378 21.7316C8.05611 21.7181 8.07282 21.7037 8.08874 21.6878L10.7628 19.0137L12.4203 20.6712C12.4888 20.7397 12.5763 20.7787 12.6663 20.7859L12.8964 21.9434C12.9242 22.0835 13.0245 22.1973 13.1599 22.2435L16.1787 23.2593C16.322 23.3071 16.4804 23.2705 16.5871 23.163L17.0106 22.7395C17.118 22.632 17.1555 22.4728 17.1061 22.3295L16.0807 19.3202C16.0354 19.1865 15.9223 19.087 15.7846 19.0591L14.6191 18.8187C14.6088 18.7335 14.5713 18.6507 14.5053 18.5854L12.8478 16.928L16.3538 13.422C16.5783 13.1983 16.7041 12.8942 16.7041 12.5781C16.7041 12.2613 16.5783 11.9572 16.3538 11.7335C16.2328 11.6125 16.1046 11.4835 15.9836 11.3625C15.7591 11.1388 15.4558 11.013 15.139 11.013C14.8221 11.013 14.5188 11.1388 14.2943 11.3625L10.7883 14.8685L7.25523 11.3354C6.82216 10.9015 5.87719 10.6428 5.18379 11.3354L5.183 11.3362C4.49438 12.0248 4.74913 12.9746 5.183 13.4076L8.71607 16.9407ZM14.1247 19.5296L13.3764 20.2771L13.6319 21.562L15.463 22.1782L14.3023 21.0175C14.1462 20.8623 14.1462 20.6099 14.3023 20.4547C14.4575 20.2986 14.7099 20.2986 14.8651 20.4547L16.0194 21.609L15.4009 19.7923L14.1247 19.5296ZM5.71558 22.0015L7.12866 21.3009L6.41615 20.5884L5.71558 22.0015ZM13.7522 13.0311L14.686 13.9641L7.80215 20.8487L6.86833 19.9149L13.7522 13.0311ZM12.285 17.4908L11.3257 18.4509L12.7013 19.8266L13.6614 18.8673L12.285 17.4908ZM10.2255 15.4313L6.69239 11.8983C6.49496 11.7 6.06348 11.5822 5.74663 11.8983L5.74584 11.899C5.43138 12.2135 5.54761 12.6474 5.74584 12.8448L9.2789 16.3779L10.2255 15.4313ZM15.2488 13.4013L14.315 12.4675L14.8571 11.9253C14.932 11.8505 15.0331 11.8091 15.139 11.8091C15.2448 11.8091 15.3459 11.8505 15.42 11.9253L15.791 12.2963C15.8658 12.3711 15.908 12.4722 15.908 12.5781C15.908 12.6832 15.8658 12.7843 15.791 12.8591L15.2488 13.4013Z"/>
</mask>
<path fill-rule="evenodd" clip-rule="evenodd" d="M10.0742 27.411L9.46121 27.9364C9.29403 28.0797 9.27492 28.3312 9.41822 28.4976C9.56072 28.6648 9.81229 28.6839 9.97947 28.5414L11.3575 27.36C11.5247 27.2167 11.5438 26.9659 11.4005 26.7988L10.2199 25.4207C10.0766 25.2535 9.82502 25.2344 9.65864 25.3777C9.49146 25.5202 9.47236 25.7718 9.61486 25.939L10.2008 26.622C5.20131 26.2996 1.23994 22.1368 1.23994 17.0569C1.23994 12.9149 3.87263 9.38339 7.55457 8.04516C7.76076 7.97032 7.86743 7.74184 7.7926 7.53486C7.71777 7.32867 7.48928 7.22199 7.2823 7.29683C3.29546 8.74651 0.443848 12.571 0.443848 17.0569C0.443848 22.5333 4.69499 27.0256 10.0742 27.411ZM11.4411 7.56511C16.4406 7.88753 20.4011 12.0503 20.4011 17.1302C20.4011 21.2723 17.7685 24.8037 14.0873 26.142C13.8803 26.2168 13.7737 26.4453 13.8493 26.6523C13.9241 26.8585 14.1526 26.9651 14.3588 26.8903C18.3464 25.4406 21.1972 21.6162 21.1972 17.1302C21.1972 11.6539 16.9469 7.16149 11.5669 6.77618L12.1807 6.25076C12.3471 6.10746 12.3662 5.8559 12.2237 5.68951C12.0804 5.52233 11.8288 5.50323 11.6624 5.64573L10.2844 6.82713C10.1172 6.97043 10.0981 7.2212 10.2406 7.38838L11.422 8.76642C11.5645 8.9336 11.8161 8.9527 11.9832 8.80941C12.1496 8.66691 12.1695 8.41534 12.0262 8.24816L11.4411 7.56511ZM8.71607 16.9407L6.02925 19.6283C6.01333 19.6435 5.99821 19.6602 5.98467 19.6785L5.98228 19.6817C5.96795 19.7024 5.95521 19.7239 5.94486 19.7462L4.47845 22.7052C4.40202 22.8581 4.43228 23.0428 4.55329 23.163C4.6743 23.284 4.8582 23.3142 5.01184 23.2386L7.97092 21.7722C7.99321 21.7619 8.0147 21.7491 8.0354 21.734L8.0378 21.7316C8.05611 21.7181 8.07282 21.7037 8.08874 21.6878L10.7628 19.0137L12.4203 20.6712C12.4888 20.7397 12.5763 20.7787 12.6663 20.7859L12.8964 21.9434C12.9242 22.0835 13.0245 22.1973 13.1599 22.2435L16.1787 23.2593C16.322 23.3071 16.4804 23.2705 16.5871 23.163L17.0106 22.7395C17.118 22.632 17.1555 22.4728 17.1061 22.3295L16.0807 19.3202C16.0354 19.1865 15.9223 19.087 15.7846 19.0591L14.6191 18.8187C14.6088 18.7335 14.5713 18.6507 14.5053 18.5854L12.8478 16.928L16.3538 13.422C16.5783 13.1983 16.7041 12.8942 16.7041 12.5781C16.7041 12.2613 16.5783 11.9572 16.3538 11.7335C16.2328 11.6125 16.1046 11.4835 15.9836 11.3625C15.7591 11.1388 15.4558 11.013 15.139 11.013C14.8221 11.013 14.5188 11.1388 14.2943 11.3625L10.7883 14.8685L7.25523 11.3354C6.82216 10.9015 5.87719 10.6428 5.18379 11.3354L5.183 11.3362C4.49438 12.0248 4.74913 12.9746 5.183 13.4076L8.71607 16.9407ZM14.1247 19.5296L13.3764 20.2771L13.6319 21.562L15.463 22.1782L14.3023 21.0175C14.1462 20.8623 14.1462 20.6099 14.3023 20.4547C14.4575 20.2986 14.7099 20.2986 14.8651 20.4547L16.0194 21.609L15.4009 19.7923L14.1247 19.5296ZM5.71558 22.0015L7.12866 21.3009L6.41615 20.5884L5.71558 22.0015ZM13.7522 13.0311L14.686 13.9641L7.80215 20.8487L6.86833 19.9149L13.7522 13.0311ZM12.285 17.4908L11.3257 18.4509L12.7013 19.8266L13.6614 18.8673L12.285 17.4908ZM10.2255 15.4313L6.69239 11.8983C6.49496 11.7 6.06348 11.5822 5.74663 11.8983L5.74584 11.899C5.43138 12.2135 5.54761 12.6474 5.74584 12.8448L9.2789 16.3779L10.2255 15.4313ZM15.2488 13.4013L14.315 12.4675L14.8571 11.9253C14.932 11.8505 15.0331 11.8091 15.139 11.8091C15.2448 11.8091 15.3459 11.8505 15.42 11.9253L15.791 12.2963C15.8658 12.3711 15.908 12.4722 15.908 12.5781C15.908 12.6832 15.8658 12.7843 15.791 12.8591L15.2488 13.4013Z" fill="white"/>
<path fill-rule="evenodd" clip-rule="evenodd" d="M10.0742 27.411L9.46121 27.9364C9.29403 28.0797 9.27492 28.3312 9.41822 28.4976C9.56072 28.6648 9.81229 28.6839 9.97947 28.5414L11.3575 27.36C11.5247 27.2167 11.5438 26.9659 11.4005 26.7988L10.2199 25.4207C10.0766 25.2535 9.82502 25.2344 9.65864 25.3777C9.49146 25.5202 9.47236 25.7718 9.61486 25.939L10.2008 26.622C5.20131 26.2996 1.23994 22.1368 1.23994 17.0569C1.23994 12.9149 3.87263 9.38339 7.55457 8.04516C7.76076 7.97032 7.86743 7.74184 7.7926 7.53486C7.71777 7.32867 7.48928 7.22199 7.2823 7.29683C3.29546 8.74651 0.443848 12.571 0.443848 17.0569C0.443848 22.5333 4.69499 27.0256 10.0742 27.411ZM11.4411 7.56511C16.4406 7.88753 20.4011 12.0503 20.4011 17.1302C20.4011 21.2723 17.7685 24.8037 14.0873 26.142C13.8803 26.2168 13.7737 26.4453 13.8493 26.6523C13.9241 26.8585 14.1526 26.9651 14.3588 26.8903C18.3464 25.4406 21.1972 21.6162 21.1972 17.1302C21.1972 11.6539 16.9469 7.16149 11.5669 6.77618L12.1807 6.25076C12.3471 6.10746 12.3662 5.8559 12.2237 5.68951C12.0804 5.52233 11.8288 5.50323 11.6624 5.64573L10.2844 6.82713C10.1172 6.97043 10.0981 7.2212 10.2406 7.38838L11.422 8.76642C11.5645 8.9336 11.8161 8.9527 11.9832 8.80941C12.1496 8.66691 12.1695 8.41534 12.0262 8.24816L11.4411 7.56511ZM8.71607 16.9407L6.02925 19.6283C6.01333 19.6435 5.99821 19.6602 5.98467 19.6785L5.98228 19.6817C5.96795 19.7024 5.95521 19.7239 5.94486 19.7462L4.47845 22.7052C4.40202 22.8581 4.43228 23.0428 4.55329 23.163C4.6743 23.284 4.8582 23.3142 5.01184 23.2386L7.97092 21.7722C7.99321 21.7619 8.0147 21.7491 8.0354 21.734L8.0378 21.7316C8.05611 21.7181 8.07282 21.7037 8.08874 21.6878L10.7628 19.0137L12.4203 20.6712C12.4888 20.7397 12.5763 20.7787 12.6663 20.7859L12.8964 21.9434C12.9242 22.0835 13.0245 22.1973 13.1599 22.2435L16.1787 23.2593C16.322 23.3071 16.4804 23.2705 16.5871 23.163L17.0106 22.7395C17.118 22.632 17.1555 22.4728 17.1061 22.3295L16.0807 19.3202C16.0354 19.1865 15.9223 19.087 15.7846 19.0591L14.6191 18.8187C14.6088 18.7335 14.5713 18.6507 14.5053 18.5854L12.8478 16.928L16.3538 13.422C16.5783 13.1983 16.7041 12.8942 16.7041 12.5781C16.7041 12.2613 16.5783 11.9572 16.3538 11.7335C16.2328 11.6125 16.1046 11.4835 15.9836 11.3625C15.7591 11.1388 15.4558 11.013 15.139 11.013C14.8221 11.013 14.5188 11.1388 14.2943 11.3625L10.7883 14.8685L7.25523 11.3354C6.82216 10.9015 5.87719 10.6428 5.18379 11.3354L5.183 11.3362C4.49438 12.0248 4.74913 12.9746 5.183 13.4076L8.71607 16.9407ZM14.1247 19.5296L13.3764 20.2771L13.6319 21.562L15.463 22.1782L14.3023 21.0175C14.1462 20.8623 14.1462 20.6099 14.3023 20.4547C14.4575 20.2986 14.7099 20.2986 14.8651 20.4547L16.0194 21.609L15.4009 19.7923L14.1247 19.5296ZM5.71558 22.0015L7.12866 21.3009L6.41615 20.5884L5.71558 22.0015ZM13.7522 13.0311L14.686 13.9641L7.80215 20.8487L6.86833 19.9149L13.7522 13.0311ZM12.285 17.4908L11.3257 18.4509L12.7013 19.8266L13.6614 18.8673L12.285 17.4908ZM10.2255 15.4313L6.69239 11.8983C6.49496 11.7 6.06348 11.5822 5.74663 11.8983L5.74584 11.899C5.43138 12.2135 5.54761 12.6474 5.74584 12.8448L9.2789 16.3779L10.2255 15.4313ZM15.2488 13.4013L14.315 12.4675L14.8571 11.9253C14.932 11.8505 15.0331 11.8091 15.139 11.8091C15.2448 11.8091 15.3459 11.8505 15.42 11.9253L15.791 12.2963C15.8658 12.3711 15.908 12.4722 15.908 12.5781C15.908 12.6832 15.8658 12.7843 15.791 12.8591L15.2488 13.4013Z" stroke="white" stroke-width="0.2" mask="url(#path-2-outside-1_155_58)"/>
</g>
</g>
</g>
</svg>
