<svg width="24" height="66" viewBox="0 0 24 66" fill="none" xmlns="http://www.w3.org/2000/svg">
<path d="M10.9393 65.0607C11.5251 65.6464 12.4749 65.6464 13.0607 65.0607L22.6066 55.5147C23.1924 54.9289 23.1924 53.9792 22.6066 53.3934C22.0208 52.8076 21.0711 52.8076 20.4853 53.3934L12 61.8787L3.51472 53.3934C2.92893 52.8076 1.97919 52.8076 1.3934 53.3934C0.807613 53.9792 0.807613 54.9289 1.3934 55.5147L10.9393 65.0607ZM10.5 24L10.5 64L13.5 64L13.5 24L10.5 24Z" fill="#FF6E8B"/>
<path d="M14 18L10 18L10 20C10 21.1046 10.8954 22 12 22L14 22L14 18Z" fill="#FF6E8B"/>
<path d="M14 10L10 10L10 12C10 13.1046 10.8954 14 12 14L14 14L14 10Z" fill="#FF6E8B"/>
<path d="M14 0L10 -3.49691e-07L10 2C10 3.10457 10.8954 4 12 4L14 4L14 0Z" fill="#FF6E8B"/>
</svg>
