<svg width="38" height="30" viewBox="0 0 38 30" fill="none" xmlns="http://www.w3.org/2000/svg">
<g id="Group 353">
<path id="Rectangle 136" d="M20.7744 0.241211H37.5177V9.40721C37.5177 13.5921 34.1253 16.9845 29.9404 16.9845H20.7744V0.241211Z" fill="#FF4167"/>
<g id="Group">
<path id="Vector" d="M8.72285 8.28868C8.45838 8.28474 8.18149 8.32688 7.90369 8.4227C6.91142 8.75886 6.0707 9.04279 5.22984 9.32677L5.22098 9.32976C4.38301 9.61276 3.54436 9.89599 2.55507 10.2311C2.32282 10.309 2.20188 10.5199 2.17157 10.7085C2.14123 10.8973 2.19013 11.1356 2.38667 11.2823L2.3881 11.2834L7.42858 14.9896C7.21716 15.3696 7.00576 15.7588 6.80219 16.1656C6.72288 16.2923 6.69446 16.4238 6.71078 16.5551C6.72628 16.6797 6.78022 16.7853 6.8251 16.863C6.82526 16.8633 6.82543 16.8636 6.82559 16.8638L9.74068 21.9927L9.74062 21.9928L9.74357 21.9977C9.81131 22.1107 9.89759 22.2036 10.022 22.2589C10.1341 22.3088 10.2524 22.3162 10.3566 22.3165C10.7913 22.3403 11.2255 22.3605 11.651 22.3684L12.3075 28.6372L12.3075 28.6372L12.3081 28.6419C12.3381 28.8847 12.5202 29.0452 12.6989 29.1126C12.8775 29.18 13.1202 29.1798 13.3032 29.0174L13.3038 29.0169C14.2873 28.1379 15.0816 27.4254 15.9239 26.6698C16.4239 26.2213 16.9407 25.7577 17.5239 25.2352C18.241 24.6016 18.4042 23.7483 18.375 23.0104C18.3565 22.5433 18.272 22.0889 18.2001 21.7029C18.1937 21.6683 18.1873 21.6342 18.1812 21.6007C20.1656 21.0455 21.9473 20.1869 23.5377 18.9884C26.9923 16.3852 29.4995 12.2613 31.3959 6.50521C31.4595 6.33132 31.4803 6.14251 31.4079 5.97098C31.3315 5.78961 31.1741 5.68142 30.9943 5.63325L30.9944 5.63287L30.9807 5.63003C28.3879 5.08778 26.0168 4.81069 23.8253 4.8135C21.0072 4.81711 18.4982 5.28398 16.2602 6.25946L16.3601 6.48864L16.2602 6.25947C14.4397 7.05298 12.8127 8.18658 11.3471 9.64494C11.3397 9.63855 11.3322 9.63214 11.3247 9.62569C11.019 9.36265 10.6549 9.04944 10.2459 8.78836L10.2459 8.78835C9.81979 8.51637 9.30384 8.29714 8.72285 8.28868ZM8.72285 8.28868L8.71913 8.53865M8.72285 8.28868C8.72282 8.28868 8.72279 8.28868 8.72276 8.28868L8.71913 8.53865M8.71913 8.53865C9.23863 8.5462 9.70934 8.74245 10.1114 8.99908L2.63485 10.4681C3.62437 10.1328 4.46315 9.84957 5.30139 9.56648C6.14526 9.28148 6.98858 8.99667 7.98461 8.65924C8.23544 8.57265 8.4837 8.53514 8.71913 8.53865ZM9.60411 9.80179L9.60413 9.8018C9.87952 9.97758 10.1394 10.2029 10.4129 10.4401C10.4453 10.4682 10.4779 10.4964 10.5107 10.5248C9.62124 11.5295 8.7916 12.6668 8.02107 13.9404L4.03467 11.0005C4.67158 10.7843 5.27321 10.579 5.8837 10.3707C6.63101 10.1157 7.39161 9.85618 8.24647 9.56652L8.25876 9.56633L8.29658 9.55322C8.42353 9.50924 8.53294 9.48536 8.63631 9.4788C8.95172 9.45878 9.25411 9.57836 9.60411 9.80179ZM16.732 24.3345L16.732 24.3345L16.7291 24.3372C16.7254 24.3405 16.7221 24.3437 16.7193 24.3464C16.7169 24.3488 16.7148 24.3508 16.7134 24.3523C16.1561 24.8516 15.6544 25.3019 15.1692 25.7373C14.5716 26.2735 13.9992 26.7872 13.3786 27.3425L12.855 22.3544C14.3279 22.3154 15.7101 22.161 17.0134 21.8844C17.0174 21.9067 17.0213 21.9291 17.0253 21.9514C17.0935 22.3368 17.1597 22.7104 17.1737 23.0631C17.1954 23.6141 17.1077 24.0037 16.732 24.3345ZM23.8259 6.01511C25.729 6.0131 27.8053 6.23827 30.0746 6.67864C28.2471 12.0041 25.8906 15.7079 22.8092 18.0299C19.6745 20.392 15.7325 21.3793 10.6336 21.1331L7.99425 16.4907C10.332 11.8965 13.1442 8.92937 16.734 7.36461C18.798 6.46496 21.1422 6.01798 23.8259 6.01511Z" fill="white" stroke="white" stroke-width="0.5"/>
<g id="Vector_2">
<mask id="path-3-outside-1_155_55" maskUnits="userSpaceOnUse" x="0.0458984" y="16.2429" width="10" height="9" fill="black">
<rect fill="white" x="0.0458984" y="16.2429" width="10" height="9"/>
<path fill-rule="evenodd" clip-rule="evenodd" d="M5.5183 17.2429C5.49571 17.248 5.47368 17.2553 5.45253 17.2647C5.44882 17.2682 5.4452 17.2718 5.44165 17.2755C5.43803 17.2755 5.4344 17.2755 5.43078 17.2755C5.4234 17.2789 5.41615 17.2825 5.40903 17.2864C5.40532 17.29 5.4017 17.2936 5.39815 17.2973C5.3827 17.3071 5.36804 17.3181 5.3543 17.3303C2.84005 18.927 2.1462 20.6486 1.07891 23.272C1.07521 23.2755 1.07158 23.2792 1.06804 23.2829C1.06804 23.2864 1.06804 23.2906 1.06804 23.2938C1.06416 23.3009 1.06053 23.3081 1.05716 23.3155C1.0571 23.3191 1.0571 23.3228 1.05716 23.3264C1.05329 23.3335 1.04966 23.3408 1.04629 23.3481C1.04623 23.3518 1.04623 23.3554 1.04629 23.359C1.04577 23.37 1.04577 23.381 1.04629 23.392C1.04623 23.3956 1.04623 23.3992 1.04629 23.4028C1.04606 23.4101 1.04606 23.4174 1.04629 23.4246C1.04623 23.4282 1.04623 23.4319 1.04629 23.4355C1.04606 23.4427 1.04606 23.45 1.04629 23.4572C1.04623 23.4609 1.04623 23.4645 1.04629 23.4681C1.04606 23.4754 1.04606 23.4826 1.04629 23.4899C1.04623 23.4935 1.04623 23.4971 1.04629 23.5007C1.04966 23.5081 1.05329 23.5154 1.05716 23.5225C1.0571 23.5261 1.0571 23.5297 1.05716 23.5334C1.06053 23.5407 1.06416 23.548 1.06804 23.5551C1.07141 23.5625 1.07504 23.5697 1.07891 23.5769C1.07885 23.5805 1.07885 23.5841 1.07891 23.5877C1.08246 23.5914 1.08608 23.5951 1.08979 23.5986C1.09316 23.606 1.09679 23.6132 1.10066 23.6203C1.1006 23.624 1.1006 23.6276 1.10066 23.6312C1.11395 23.6471 1.12863 23.6618 1.14451 23.6751C1.14445 23.6787 1.14445 23.6823 1.14451 23.686C1.15175 23.6898 1.15912 23.6935 1.16661 23.6968C1.17016 23.7005 1.17378 23.7042 1.17749 23.7077C1.18461 23.7116 1.19186 23.7152 1.19924 23.7186C1.19918 23.7222 1.19918 23.7258 1.19924 23.7295C1.20636 23.7333 1.21361 23.737 1.22099 23.7403C1.22461 23.7404 1.22824 23.7404 1.23186 23.7403C1.2391 23.7442 1.24647 23.7478 1.25396 23.7512C1.25751 23.7549 1.26113 23.7585 1.26484 23.7621C1.27209 23.7623 1.27934 23.7623 1.28659 23.7621C1.29013 23.7658 1.29376 23.7694 1.29746 23.773C1.30471 23.7732 1.31196 23.7732 1.31921 23.773C1.32284 23.773 1.32646 23.773 1.33009 23.773C1.33733 23.7732 1.34459 23.7732 1.35184 23.773C1.36978 23.778 1.38811 23.7817 1.40663 23.7838C4.1742 24.1595 5.99747 24.4026 8.62008 22.9945C8.63124 22.9914 8.64225 22.9878 8.65306 22.9837C8.6723 22.9744 8.69065 22.9633 8.70789 22.9507C8.71159 22.9471 8.71522 22.9435 8.71876 22.9398C8.74351 22.9209 8.76563 22.8988 8.78454 22.874C8.78459 22.8704 8.78459 22.8668 8.78454 22.8632C8.7921 22.8562 8.79936 22.849 8.80629 22.8414C8.80634 22.8378 8.80634 22.8341 8.80629 22.8305C8.81016 22.8234 8.81379 22.8161 8.81716 22.8088C8.81722 22.8051 8.81722 22.8015 8.81716 22.7979C8.82104 22.7908 8.82466 22.7835 8.82804 22.7761C8.82809 22.7725 8.82809 22.7689 8.82804 22.7653C8.83191 22.7581 8.83554 22.7509 8.83891 22.7435C8.83897 22.7399 8.83897 22.7363 8.83891 22.7327C8.83914 22.7254 8.83914 22.7181 8.83891 22.7109C8.83897 22.7073 8.83897 22.7036 8.83891 22.7C8.83914 22.6928 8.83914 22.6855 8.83891 22.6783C8.83897 22.6746 8.83897 22.671 8.83891 22.6674C8.84097 22.6455 8.84097 22.6235 8.83891 22.6016C8.83623 22.5868 8.8326 22.5721 8.82804 22.5578C8.82466 22.5504 8.82104 22.5432 8.81716 22.536C8.81722 22.5324 8.81722 22.5288 8.81716 22.5252C8.81379 22.5178 8.81016 22.5105 8.80629 22.5034C8.79966 22.492 8.7924 22.481 8.78454 22.4704C8.77761 22.4629 8.77035 22.4556 8.76279 22.4487C8.76284 22.445 8.76284 22.4414 8.76279 22.4378C8.75566 22.4339 8.74841 22.4303 8.74104 22.4269C8.73749 22.4232 8.73387 22.4196 8.73016 22.416C8.71643 22.4039 8.70177 22.3929 8.68631 22.3831C8.68277 22.3794 8.67914 22.3757 8.67544 22.3722C8.66831 22.3683 8.66106 22.3647 8.65369 22.3613C8.62261 22.3455 8.58935 22.3344 8.55501 22.3283C8.5442 22.3242 8.53319 22.3205 8.52203 22.3175C8.5184 22.3174 8.51478 22.3174 8.51115 22.3175C8.50017 22.3169 8.48916 22.3169 8.47818 22.3175C8.45228 22.3182 8.42655 22.3219 8.40146 22.3283C7.37336 22.4095 6.55146 22.3665 5.95677 22.2187C5.351 22.0681 5.00171 21.8254 4.81666 21.5062C4.63158 21.1869 4.58671 20.7393 4.75088 20.1139C4.91218 19.4994 5.27137 18.7251 5.84715 17.8227C5.84715 17.8227 5.85697 17.8227 5.85802 17.8227C5.86628 17.8086 5.87355 17.794 5.87977 17.7789C5.88348 17.7753 5.8871 17.7717 5.89065 17.768C5.89435 17.7644 5.89798 17.7608 5.90152 17.7571C5.9054 17.75 5.90902 17.7427 5.9124 17.7354C5.91245 17.7317 5.91245 17.7281 5.9124 17.7245C5.91627 17.7174 5.9199 17.7101 5.92327 17.7028C5.92333 17.6991 5.92333 17.6955 5.92327 17.6919C5.92715 17.6848 5.93077 17.6775 5.93415 17.6701C5.9342 17.6665 5.9342 17.6629 5.93415 17.6592C5.93437 17.652 5.93437 17.6447 5.93415 17.6375C5.93437 17.6302 5.93437 17.623 5.93415 17.6157C5.93785 17.6122 5.94148 17.6086 5.94502 17.6049C5.94525 17.5976 5.94525 17.5904 5.94502 17.5831C5.94525 17.5759 5.94525 17.5686 5.94502 17.5614C5.94148 17.5577 5.93785 17.554 5.93415 17.5505C5.93437 17.5432 5.93437 17.536 5.93415 17.5287C5.9342 17.5251 5.9342 17.5215 5.93415 17.5179C5.93437 17.5106 5.93437 17.5034 5.93415 17.4961C5.9306 17.4924 5.92698 17.4888 5.92327 17.4853C5.92333 17.4816 5.92333 17.478 5.92327 17.4744C5.9199 17.467 5.91627 17.4597 5.9124 17.4526C5.90902 17.4452 5.9054 17.438 5.90152 17.4309C5.89798 17.4272 5.89435 17.4235 5.89065 17.42C5.89087 17.4127 5.89087 17.4055 5.89065 17.3982C5.8871 17.3945 5.88348 17.3909 5.87977 17.3874C5.87623 17.3837 5.8726 17.3801 5.8689 17.3765C5.86535 17.3728 5.86173 17.3692 5.85802 17.3656C5.85465 17.3583 5.85102 17.351 5.84715 17.3439C5.82416 17.3222 5.79835 17.3038 5.77043 17.289C5.7668 17.289 5.76318 17.289 5.75955 17.289C5.75601 17.2853 5.75238 17.2817 5.74868 17.2782C5.74155 17.2743 5.7343 17.2707 5.72693 17.2673C5.7233 17.2672 5.71968 17.2672 5.71605 17.2673C5.70893 17.2634 5.70167 17.2598 5.6943 17.2564C5.69068 17.2564 5.68705 17.2564 5.68343 17.2564C5.67619 17.2525 5.66882 17.2489 5.66133 17.2455C5.6577 17.2455 5.65408 17.2455 5.65045 17.2455C5.6432 17.2453 5.63595 17.2453 5.6287 17.2455C5.62145 17.2453 5.6142 17.2453 5.60695 17.2455C5.60333 17.2455 5.5997 17.2455 5.59608 17.2455C5.58871 17.2453 5.58134 17.2453 5.57398 17.2455C5.56673 17.2453 5.55947 17.2453 5.55223 17.2455C5.54124 17.245 5.53024 17.245 5.51925 17.2455L5.5183 17.2429ZM4.47684 18.8654C4.29979 19.2451 4.15936 19.6041 4.07124 19.9397C3.87794 20.6761 3.89889 21.334 4.20279 21.8582C4.50665 22.3824 5.07089 22.7203 5.79235 22.8996C6.08583 22.9726 6.41306 23.0159 6.76804 23.0421C5.18493 23.5572 3.83227 23.4028 1.90063 23.1408C2.65518 21.286 3.20222 20.0106 4.47684 18.8654Z"/>
</mask>
<path fill-rule="evenodd" clip-rule="evenodd" d="M5.5183 17.2429C5.49571 17.248 5.47368 17.2553 5.45253 17.2647C5.44882 17.2682 5.4452 17.2718 5.44165 17.2755C5.43803 17.2755 5.4344 17.2755 5.43078 17.2755C5.4234 17.2789 5.41615 17.2825 5.40903 17.2864C5.40532 17.29 5.4017 17.2936 5.39815 17.2973C5.3827 17.3071 5.36804 17.3181 5.3543 17.3303C2.84005 18.927 2.1462 20.6486 1.07891 23.272C1.07521 23.2755 1.07158 23.2792 1.06804 23.2829C1.06804 23.2864 1.06804 23.2906 1.06804 23.2938C1.06416 23.3009 1.06053 23.3081 1.05716 23.3155C1.0571 23.3191 1.0571 23.3228 1.05716 23.3264C1.05329 23.3335 1.04966 23.3408 1.04629 23.3481C1.04623 23.3518 1.04623 23.3554 1.04629 23.359C1.04577 23.37 1.04577 23.381 1.04629 23.392C1.04623 23.3956 1.04623 23.3992 1.04629 23.4028C1.04606 23.4101 1.04606 23.4174 1.04629 23.4246C1.04623 23.4282 1.04623 23.4319 1.04629 23.4355C1.04606 23.4427 1.04606 23.45 1.04629 23.4572C1.04623 23.4609 1.04623 23.4645 1.04629 23.4681C1.04606 23.4754 1.04606 23.4826 1.04629 23.4899C1.04623 23.4935 1.04623 23.4971 1.04629 23.5007C1.04966 23.5081 1.05329 23.5154 1.05716 23.5225C1.0571 23.5261 1.0571 23.5297 1.05716 23.5334C1.06053 23.5407 1.06416 23.548 1.06804 23.5551C1.07141 23.5625 1.07504 23.5697 1.07891 23.5769C1.07885 23.5805 1.07885 23.5841 1.07891 23.5877C1.08246 23.5914 1.08608 23.5951 1.08979 23.5986C1.09316 23.606 1.09679 23.6132 1.10066 23.6203C1.1006 23.624 1.1006 23.6276 1.10066 23.6312C1.11395 23.6471 1.12863 23.6618 1.14451 23.6751C1.14445 23.6787 1.14445 23.6823 1.14451 23.686C1.15175 23.6898 1.15912 23.6935 1.16661 23.6968C1.17016 23.7005 1.17378 23.7042 1.17749 23.7077C1.18461 23.7116 1.19186 23.7152 1.19924 23.7186C1.19918 23.7222 1.19918 23.7258 1.19924 23.7295C1.20636 23.7333 1.21361 23.737 1.22099 23.7403C1.22461 23.7404 1.22824 23.7404 1.23186 23.7403C1.2391 23.7442 1.24647 23.7478 1.25396 23.7512C1.25751 23.7549 1.26113 23.7585 1.26484 23.7621C1.27209 23.7623 1.27934 23.7623 1.28659 23.7621C1.29013 23.7658 1.29376 23.7694 1.29746 23.773C1.30471 23.7732 1.31196 23.7732 1.31921 23.773C1.32284 23.773 1.32646 23.773 1.33009 23.773C1.33733 23.7732 1.34459 23.7732 1.35184 23.773C1.36978 23.778 1.38811 23.7817 1.40663 23.7838C4.1742 24.1595 5.99747 24.4026 8.62008 22.9945C8.63124 22.9914 8.64225 22.9878 8.65306 22.9837C8.6723 22.9744 8.69065 22.9633 8.70789 22.9507C8.71159 22.9471 8.71522 22.9435 8.71876 22.9398C8.74351 22.9209 8.76563 22.8988 8.78454 22.874C8.78459 22.8704 8.78459 22.8668 8.78454 22.8632C8.7921 22.8562 8.79936 22.849 8.80629 22.8414C8.80634 22.8378 8.80634 22.8341 8.80629 22.8305C8.81016 22.8234 8.81379 22.8161 8.81716 22.8088C8.81722 22.8051 8.81722 22.8015 8.81716 22.7979C8.82104 22.7908 8.82466 22.7835 8.82804 22.7761C8.82809 22.7725 8.82809 22.7689 8.82804 22.7653C8.83191 22.7581 8.83554 22.7509 8.83891 22.7435C8.83897 22.7399 8.83897 22.7363 8.83891 22.7327C8.83914 22.7254 8.83914 22.7181 8.83891 22.7109C8.83897 22.7073 8.83897 22.7036 8.83891 22.7C8.83914 22.6928 8.83914 22.6855 8.83891 22.6783C8.83897 22.6746 8.83897 22.671 8.83891 22.6674C8.84097 22.6455 8.84097 22.6235 8.83891 22.6016C8.83623 22.5868 8.8326 22.5721 8.82804 22.5578C8.82466 22.5504 8.82104 22.5432 8.81716 22.536C8.81722 22.5324 8.81722 22.5288 8.81716 22.5252C8.81379 22.5178 8.81016 22.5105 8.80629 22.5034C8.79966 22.492 8.7924 22.481 8.78454 22.4704C8.77761 22.4629 8.77035 22.4556 8.76279 22.4487C8.76284 22.445 8.76284 22.4414 8.76279 22.4378C8.75566 22.4339 8.74841 22.4303 8.74104 22.4269C8.73749 22.4232 8.73387 22.4196 8.73016 22.416C8.71643 22.4039 8.70177 22.3929 8.68631 22.3831C8.68277 22.3794 8.67914 22.3757 8.67544 22.3722C8.66831 22.3683 8.66106 22.3647 8.65369 22.3613C8.62261 22.3455 8.58935 22.3344 8.55501 22.3283C8.5442 22.3242 8.53319 22.3205 8.52203 22.3175C8.5184 22.3174 8.51478 22.3174 8.51115 22.3175C8.50017 22.3169 8.48916 22.3169 8.47818 22.3175C8.45228 22.3182 8.42655 22.3219 8.40146 22.3283C7.37336 22.4095 6.55146 22.3665 5.95677 22.2187C5.351 22.0681 5.00171 21.8254 4.81666 21.5062C4.63158 21.1869 4.58671 20.7393 4.75088 20.1139C4.91218 19.4994 5.27137 18.7251 5.84715 17.8227C5.84715 17.8227 5.85697 17.8227 5.85802 17.8227C5.86628 17.8086 5.87355 17.794 5.87977 17.7789C5.88348 17.7753 5.8871 17.7717 5.89065 17.768C5.89435 17.7644 5.89798 17.7608 5.90152 17.7571C5.9054 17.75 5.90902 17.7427 5.9124 17.7354C5.91245 17.7317 5.91245 17.7281 5.9124 17.7245C5.91627 17.7174 5.9199 17.7101 5.92327 17.7028C5.92333 17.6991 5.92333 17.6955 5.92327 17.6919C5.92715 17.6848 5.93077 17.6775 5.93415 17.6701C5.9342 17.6665 5.9342 17.6629 5.93415 17.6592C5.93437 17.652 5.93437 17.6447 5.93415 17.6375C5.93437 17.6302 5.93437 17.623 5.93415 17.6157C5.93785 17.6122 5.94148 17.6086 5.94502 17.6049C5.94525 17.5976 5.94525 17.5904 5.94502 17.5831C5.94525 17.5759 5.94525 17.5686 5.94502 17.5614C5.94148 17.5577 5.93785 17.554 5.93415 17.5505C5.93437 17.5432 5.93437 17.536 5.93415 17.5287C5.9342 17.5251 5.9342 17.5215 5.93415 17.5179C5.93437 17.5106 5.93437 17.5034 5.93415 17.4961C5.9306 17.4924 5.92698 17.4888 5.92327 17.4853C5.92333 17.4816 5.92333 17.478 5.92327 17.4744C5.9199 17.467 5.91627 17.4597 5.9124 17.4526C5.90902 17.4452 5.9054 17.438 5.90152 17.4309C5.89798 17.4272 5.89435 17.4235 5.89065 17.42C5.89087 17.4127 5.89087 17.4055 5.89065 17.3982C5.8871 17.3945 5.88348 17.3909 5.87977 17.3874C5.87623 17.3837 5.8726 17.3801 5.8689 17.3765C5.86535 17.3728 5.86173 17.3692 5.85802 17.3656C5.85465 17.3583 5.85102 17.351 5.84715 17.3439C5.82416 17.3222 5.79835 17.3038 5.77043 17.289C5.7668 17.289 5.76318 17.289 5.75955 17.289C5.75601 17.2853 5.75238 17.2817 5.74868 17.2782C5.74155 17.2743 5.7343 17.2707 5.72693 17.2673C5.7233 17.2672 5.71968 17.2672 5.71605 17.2673C5.70893 17.2634 5.70167 17.2598 5.6943 17.2564C5.69068 17.2564 5.68705 17.2564 5.68343 17.2564C5.67619 17.2525 5.66882 17.2489 5.66133 17.2455C5.6577 17.2455 5.65408 17.2455 5.65045 17.2455C5.6432 17.2453 5.63595 17.2453 5.6287 17.2455C5.62145 17.2453 5.6142 17.2453 5.60695 17.2455C5.60333 17.2455 5.5997 17.2455 5.59608 17.2455C5.58871 17.2453 5.58134 17.2453 5.57398 17.2455C5.56673 17.2453 5.55947 17.2453 5.55223 17.2455C5.54124 17.245 5.53024 17.245 5.51925 17.2455L5.5183 17.2429ZM4.47684 18.8654C4.29979 19.2451 4.15936 19.6041 4.07124 19.9397C3.87794 20.6761 3.89889 21.334 4.20279 21.8582C4.50665 22.3824 5.07089 22.7203 5.79235 22.8996C6.08583 22.9726 6.41306 23.0159 6.76804 23.0421C5.18493 23.5572 3.83227 23.4028 1.90063 23.1408C2.65518 21.286 3.20222 20.0106 4.47684 18.8654Z" fill="white"/>
<path fill-rule="evenodd" clip-rule="evenodd" d="M5.5183 17.2429C5.49571 17.248 5.47368 17.2553 5.45253 17.2647C5.44882 17.2682 5.4452 17.2718 5.44165 17.2755C5.43803 17.2755 5.4344 17.2755 5.43078 17.2755C5.4234 17.2789 5.41615 17.2825 5.40903 17.2864C5.40532 17.29 5.4017 17.2936 5.39815 17.2973C5.3827 17.3071 5.36804 17.3181 5.3543 17.3303C2.84005 18.927 2.1462 20.6486 1.07891 23.272C1.07521 23.2755 1.07158 23.2792 1.06804 23.2829C1.06804 23.2864 1.06804 23.2906 1.06804 23.2938C1.06416 23.3009 1.06053 23.3081 1.05716 23.3155C1.0571 23.3191 1.0571 23.3228 1.05716 23.3264C1.05329 23.3335 1.04966 23.3408 1.04629 23.3481C1.04623 23.3518 1.04623 23.3554 1.04629 23.359C1.04577 23.37 1.04577 23.381 1.04629 23.392C1.04623 23.3956 1.04623 23.3992 1.04629 23.4028C1.04606 23.4101 1.04606 23.4174 1.04629 23.4246C1.04623 23.4282 1.04623 23.4319 1.04629 23.4355C1.04606 23.4427 1.04606 23.45 1.04629 23.4572C1.04623 23.4609 1.04623 23.4645 1.04629 23.4681C1.04606 23.4754 1.04606 23.4826 1.04629 23.4899C1.04623 23.4935 1.04623 23.4971 1.04629 23.5007C1.04966 23.5081 1.05329 23.5154 1.05716 23.5225C1.0571 23.5261 1.0571 23.5297 1.05716 23.5334C1.06053 23.5407 1.06416 23.548 1.06804 23.5551C1.07141 23.5625 1.07504 23.5697 1.07891 23.5769C1.07885 23.5805 1.07885 23.5841 1.07891 23.5877C1.08246 23.5914 1.08608 23.5951 1.08979 23.5986C1.09316 23.606 1.09679 23.6132 1.10066 23.6203C1.1006 23.624 1.1006 23.6276 1.10066 23.6312C1.11395 23.6471 1.12863 23.6618 1.14451 23.6751C1.14445 23.6787 1.14445 23.6823 1.14451 23.686C1.15175 23.6898 1.15912 23.6935 1.16661 23.6968C1.17016 23.7005 1.17378 23.7042 1.17749 23.7077C1.18461 23.7116 1.19186 23.7152 1.19924 23.7186C1.19918 23.7222 1.19918 23.7258 1.19924 23.7295C1.20636 23.7333 1.21361 23.737 1.22099 23.7403C1.22461 23.7404 1.22824 23.7404 1.23186 23.7403C1.2391 23.7442 1.24647 23.7478 1.25396 23.7512C1.25751 23.7549 1.26113 23.7585 1.26484 23.7621C1.27209 23.7623 1.27934 23.7623 1.28659 23.7621C1.29013 23.7658 1.29376 23.7694 1.29746 23.773C1.30471 23.7732 1.31196 23.7732 1.31921 23.773C1.32284 23.773 1.32646 23.773 1.33009 23.773C1.33733 23.7732 1.34459 23.7732 1.35184 23.773C1.36978 23.778 1.38811 23.7817 1.40663 23.7838C4.1742 24.1595 5.99747 24.4026 8.62008 22.9945C8.63124 22.9914 8.64225 22.9878 8.65306 22.9837C8.6723 22.9744 8.69065 22.9633 8.70789 22.9507C8.71159 22.9471 8.71522 22.9435 8.71876 22.9398C8.74351 22.9209 8.76563 22.8988 8.78454 22.874C8.78459 22.8704 8.78459 22.8668 8.78454 22.8632C8.7921 22.8562 8.79936 22.849 8.80629 22.8414C8.80634 22.8378 8.80634 22.8341 8.80629 22.8305C8.81016 22.8234 8.81379 22.8161 8.81716 22.8088C8.81722 22.8051 8.81722 22.8015 8.81716 22.7979C8.82104 22.7908 8.82466 22.7835 8.82804 22.7761C8.82809 22.7725 8.82809 22.7689 8.82804 22.7653C8.83191 22.7581 8.83554 22.7509 8.83891 22.7435C8.83897 22.7399 8.83897 22.7363 8.83891 22.7327C8.83914 22.7254 8.83914 22.7181 8.83891 22.7109C8.83897 22.7073 8.83897 22.7036 8.83891 22.7C8.83914 22.6928 8.83914 22.6855 8.83891 22.6783C8.83897 22.6746 8.83897 22.671 8.83891 22.6674C8.84097 22.6455 8.84097 22.6235 8.83891 22.6016C8.83623 22.5868 8.8326 22.5721 8.82804 22.5578C8.82466 22.5504 8.82104 22.5432 8.81716 22.536C8.81722 22.5324 8.81722 22.5288 8.81716 22.5252C8.81379 22.5178 8.81016 22.5105 8.80629 22.5034C8.79966 22.492 8.7924 22.481 8.78454 22.4704C8.77761 22.4629 8.77035 22.4556 8.76279 22.4487C8.76284 22.445 8.76284 22.4414 8.76279 22.4378C8.75566 22.4339 8.74841 22.4303 8.74104 22.4269C8.73749 22.4232 8.73387 22.4196 8.73016 22.416C8.71643 22.4039 8.70177 22.3929 8.68631 22.3831C8.68277 22.3794 8.67914 22.3757 8.67544 22.3722C8.66831 22.3683 8.66106 22.3647 8.65369 22.3613C8.62261 22.3455 8.58935 22.3344 8.55501 22.3283C8.5442 22.3242 8.53319 22.3205 8.52203 22.3175C8.5184 22.3174 8.51478 22.3174 8.51115 22.3175C8.50017 22.3169 8.48916 22.3169 8.47818 22.3175C8.45228 22.3182 8.42655 22.3219 8.40146 22.3283C7.37336 22.4095 6.55146 22.3665 5.95677 22.2187C5.351 22.0681 5.00171 21.8254 4.81666 21.5062C4.63158 21.1869 4.58671 20.7393 4.75088 20.1139C4.91218 19.4994 5.27137 18.7251 5.84715 17.8227C5.84715 17.8227 5.85697 17.8227 5.85802 17.8227C5.86628 17.8086 5.87355 17.794 5.87977 17.7789C5.88348 17.7753 5.8871 17.7717 5.89065 17.768C5.89435 17.7644 5.89798 17.7608 5.90152 17.7571C5.9054 17.75 5.90902 17.7427 5.9124 17.7354C5.91245 17.7317 5.91245 17.7281 5.9124 17.7245C5.91627 17.7174 5.9199 17.7101 5.92327 17.7028C5.92333 17.6991 5.92333 17.6955 5.92327 17.6919C5.92715 17.6848 5.93077 17.6775 5.93415 17.6701C5.9342 17.6665 5.9342 17.6629 5.93415 17.6592C5.93437 17.652 5.93437 17.6447 5.93415 17.6375C5.93437 17.6302 5.93437 17.623 5.93415 17.6157C5.93785 17.6122 5.94148 17.6086 5.94502 17.6049C5.94525 17.5976 5.94525 17.5904 5.94502 17.5831C5.94525 17.5759 5.94525 17.5686 5.94502 17.5614C5.94148 17.5577 5.93785 17.554 5.93415 17.5505C5.93437 17.5432 5.93437 17.536 5.93415 17.5287C5.9342 17.5251 5.9342 17.5215 5.93415 17.5179C5.93437 17.5106 5.93437 17.5034 5.93415 17.4961C5.9306 17.4924 5.92698 17.4888 5.92327 17.4853C5.92333 17.4816 5.92333 17.478 5.92327 17.4744C5.9199 17.467 5.91627 17.4597 5.9124 17.4526C5.90902 17.4452 5.9054 17.438 5.90152 17.4309C5.89798 17.4272 5.89435 17.4235 5.89065 17.42C5.89087 17.4127 5.89087 17.4055 5.89065 17.3982C5.8871 17.3945 5.88348 17.3909 5.87977 17.3874C5.87623 17.3837 5.8726 17.3801 5.8689 17.3765C5.86535 17.3728 5.86173 17.3692 5.85802 17.3656C5.85465 17.3583 5.85102 17.351 5.84715 17.3439C5.82416 17.3222 5.79835 17.3038 5.77043 17.289C5.7668 17.289 5.76318 17.289 5.75955 17.289C5.75601 17.2853 5.75238 17.2817 5.74868 17.2782C5.74155 17.2743 5.7343 17.2707 5.72693 17.2673C5.7233 17.2672 5.71968 17.2672 5.71605 17.2673C5.70893 17.2634 5.70167 17.2598 5.6943 17.2564C5.69068 17.2564 5.68705 17.2564 5.68343 17.2564C5.67619 17.2525 5.66882 17.2489 5.66133 17.2455C5.6577 17.2455 5.65408 17.2455 5.65045 17.2455C5.6432 17.2453 5.63595 17.2453 5.6287 17.2455C5.62145 17.2453 5.6142 17.2453 5.60695 17.2455C5.60333 17.2455 5.5997 17.2455 5.59608 17.2455C5.58871 17.2453 5.58134 17.2453 5.57398 17.2455C5.56673 17.2453 5.55947 17.2453 5.55223 17.2455C5.54124 17.245 5.53024 17.245 5.51925 17.2455L5.5183 17.2429ZM4.47684 18.8654C4.29979 19.2451 4.15936 19.6041 4.07124 19.9397C3.87794 20.6761 3.89889 21.334 4.20279 21.8582C4.50665 22.3824 5.07089 22.7203 5.79235 22.8996C6.08583 22.9726 6.41306 23.0159 6.76804 23.0421C5.18493 23.5572 3.83227 23.4028 1.90063 23.1408C2.65518 21.286 3.20222 20.0106 4.47684 18.8654Z" stroke="white" mask="url(#path-3-outside-1_155_55)"/>
</g>
<path id="Vector_3" fill-rule="evenodd" clip-rule="evenodd" d="M20.8391 9.37704C20.3425 9.36704 19.837 9.48825 19.3769 9.75469C18.0385 10.5298 17.5715 12.2499 18.34 13.5868C18.34 13.5867 18.34 13.5869 18.34 13.5868C19.1118 14.9263 20.8319 15.3812 22.1731 14.6067C22.1733 14.6067 22.1734 14.6066 22.1735 14.6065C23.5118 13.8315 23.9785 12.1108 23.2068 10.7709C23.2068 10.7708 23.2068 10.771 23.2068 10.7709C22.7023 9.89354 21.787 9.39611 20.8391 9.37704ZM20.8277 10.0748C21.5375 10.0875 22.2193 10.4604 22.5988 11.1206C22.5988 11.1205 22.5988 11.1207 22.5988 11.1206C23.1809 12.131 22.834 13.4131 21.8223 13.9992C21.8223 13.9993 21.822 13.9993 21.822 13.9994C20.8059 14.5858 19.5304 14.2474 18.9481 13.2367C18.3698 12.2303 18.7167 10.9478 19.7286 10.3618C20.0764 10.1604 20.4559 10.0681 20.8277 10.0748Z" fill="white"/>
</g>
</g>
</svg>
