<svg width="25" height="25" viewBox="0 0 25 25" fill="none" xmlns="http://www.w3.org/2000/svg">
<g id="Group 195">
<path id="Rectangle 123" d="M24.9243 25.0017H0.544689V8.98466C0.544689 4.36613 4.28875 0.622082 8.90727 0.622082H24.9243V25.0017Z" fill="#FF4167"/>
<path id="Vector" d="M10.5869 17.6643L10.8222 17.8993L11.0572 17.6641L19.5483 9.16857L19.5574 9.15952L19.5657 9.14979C19.6935 9.00058 19.7602 8.80864 19.7527 8.61233C19.7451 8.41603 19.6637 8.22981 19.5248 8.0909L19.2901 8.32557L19.5248 8.0909C19.3859 7.95199 19.1997 7.87061 19.0034 7.86302C18.807 7.85544 18.6151 7.92221 18.4659 8.05L18.4562 8.05829L18.4472 8.06731L10.8132 15.6927L7.02191 11.9014L7.01282 11.8923L7.00306 11.884C6.85385 11.7562 6.66191 11.6894 6.4656 11.697C6.2693 11.7046 6.08308 11.7859 5.94417 11.9249C5.80526 12.0638 5.72388 12.25 5.7163 12.4463C5.70871 12.6426 5.77548 12.8345 5.90327 12.9837L5.91168 12.9936L5.92082 13.0027L10.5869 17.6643Z" fill="white" stroke="white" stroke-width="0.665252"/>
</g>
</svg>
