<svg width="57" height="45" viewBox="0 0 57 45" fill="none" xmlns="http://www.w3.org/2000/svg">
<g id="Group 358">
<path id="Rectangle 141" d="M31.0342 0.62207H56.386V14.5007C56.386 20.8372 51.2493 25.9739 44.9128 25.9739H31.0342V0.62207Z" fill="#FF4167"/>
<g id="Group">
<path id="Vector" d="M12.7868 12.8073C12.3864 12.8013 11.9672 12.8651 11.5466 13.0101C10.0441 13.5192 8.77109 13.9491 7.49789 14.3791L7.48592 14.3831C6.21663 14.8118 4.94641 15.2408 3.44791 15.7484C3.09623 15.8663 2.91311 16.1856 2.86721 16.4712C2.82129 16.7571 2.89532 17.118 3.19292 17.3401L3.19508 17.3417L10.8271 22.9534C10.507 23.5288 10.1869 24.118 9.87865 24.7341C9.75855 24.9259 9.71553 25.125 9.74024 25.3238C9.7637 25.5125 9.84535 25.6723 9.9133 25.79C9.91356 25.7904 9.91382 25.7908 9.91408 25.7913L14.3279 33.5572L14.3279 33.5572L14.3323 33.5647C14.4349 33.7358 14.5655 33.8764 14.7539 33.9602C14.9237 34.0357 15.1028 34.047 15.2606 34.0474C15.9188 34.0834 16.5762 34.1141 17.2205 34.1259L18.2146 43.6179L18.2145 43.6179L18.2154 43.625C18.2609 43.9926 18.5366 44.2356 18.8071 44.3376C19.0776 44.4397 19.445 44.4394 19.7221 44.1936L19.723 44.1927C21.2117 42.8623 22.4141 41.7837 23.689 40.64C24.4464 39.9606 25.2293 39.2583 26.1129 38.4667C27.1987 37.5074 27.4458 36.2153 27.4016 35.098C27.3736 34.3908 27.2455 33.7028 27.1368 33.1183C27.127 33.0659 27.1174 33.0143 27.1081 32.9636C30.1128 32.1229 32.8105 30.8228 35.2187 29.0081C40.4494 25.0665 44.2457 18.8223 47.1171 10.1067C47.2134 9.84345 47.2448 9.5576 47.1353 9.29793C47.0195 9.0233 46.7812 8.85948 46.5089 8.78654L46.4988 8.78382L46.4885 8.78167C42.5625 7.96063 38.9723 7.54108 35.6541 7.54532C31.387 7.5508 27.588 8.25769 24.1994 9.73473C21.443 10.9362 18.9795 12.6527 16.7603 14.8608C16.7491 14.8512 16.7378 14.8414 16.7264 14.8317C16.2635 14.4334 15.7123 13.9592 15.0929 13.5638L15.0929 13.5638C14.4477 13.152 13.6665 12.8201 12.7868 12.8073ZM12.7868 12.8073L12.7812 13.1857M12.7868 12.8073C12.7868 12.8073 12.7867 12.8073 12.7867 12.8073L12.7812 13.1857M12.7812 13.1857C12.4247 13.1804 12.0488 13.2372 11.669 13.3683M12.7812 13.1857C13.5678 13.1972 14.2805 13.4943 14.8893 13.8829C15.4834 14.2622 16.0094 14.7144 16.4718 15.1121C16.5784 15.2038 16.6816 15.2925 16.7815 15.3768L11.669 13.3683M11.669 13.3683C10.1608 13.8793 8.88387 14.3105 7.60608 14.7421C6.33691 15.1707 5.06691 15.5996 3.56869 16.1071L11.669 13.3683ZM14.1212 15.0983L14.1212 15.0983C14.5382 15.3645 14.9316 15.7057 15.3457 16.0647C15.3948 16.1073 15.4441 16.1501 15.4938 16.193C14.1471 17.7144 12.8909 19.4363 11.7242 21.3647L5.68822 16.9134C6.65258 16.586 7.56351 16.2752 8.48786 15.9598C9.61941 15.5737 10.7711 15.1807 12.0655 14.7421L12.0841 14.7418L12.1414 14.722C12.3336 14.6554 12.4993 14.6192 12.6558 14.6093C13.1333 14.579 13.5912 14.76 14.1212 15.0983ZM24.9139 37.103L24.9138 37.103L24.9094 37.107C24.8988 37.1166 24.8903 37.1252 24.8857 37.1299C24.0417 37.886 23.282 38.5678 22.5473 39.2271C21.6426 40.0389 20.7758 40.8168 19.8363 41.6576L19.0434 34.1047C21.2736 34.0457 23.3665 33.8119 25.3399 33.3931C25.3459 33.427 25.3519 33.4608 25.3579 33.4946C25.4612 34.0781 25.5614 34.6438 25.5825 35.1778C25.6154 36.0122 25.4826 36.6021 24.9139 37.103ZM35.655 9.36473C38.5366 9.3617 41.6804 9.70263 45.1165 10.3694C42.3493 18.4329 38.7813 24.041 34.1155 27.5569C29.3693 31.1335 23.4004 32.6284 15.68 32.2555L11.6836 25.2262C15.2233 18.27 19.4814 13.7774 24.9169 11.4081C28.042 10.0459 31.5915 9.36908 35.655 9.36473Z" fill="white" stroke="white" stroke-width="0.757072"/>
<g id="Vector_2">
<mask id="path-3-outside-1_155_60" maskUnits="userSpaceOnUse" x="0.162598" y="25.3652" width="14" height="13" fill="black">
<rect fill="white" x="0.162598" y="25.3652" width="14" height="13"/>
<path fill-rule="evenodd" clip-rule="evenodd" d="M7.93447 26.3652C7.90026 26.3729 7.8669 26.3839 7.83487 26.3981C7.82926 26.4035 7.82377 26.409 7.81841 26.4146C7.81292 26.4145 7.80743 26.4145 7.80194 26.4146C7.79077 26.4197 7.77979 26.4252 7.76901 26.4311C7.7634 26.4364 7.75791 26.4419 7.75254 26.4475C7.72914 26.4624 7.70694 26.4791 7.68614 26.4975C3.87921 28.9152 2.82861 31.522 1.21258 35.4941C1.20697 35.4995 1.20148 35.505 1.19612 35.5106C1.19612 35.5159 1.19612 35.5223 1.19612 35.5271C1.19025 35.5379 1.18476 35.5489 1.17965 35.56C1.17957 35.5655 1.17957 35.571 1.17965 35.5765C1.17378 35.5873 1.16829 35.5983 1.16318 35.6094C1.1631 35.6149 1.1631 35.6204 1.16318 35.6259C1.1624 35.6425 1.1624 35.6592 1.16318 35.6758C1.1631 35.6813 1.1631 35.6868 1.16318 35.6923C1.16284 35.7032 1.16284 35.7142 1.16318 35.7252C1.1631 35.7307 1.1631 35.7362 1.16318 35.7417C1.16284 35.7526 1.16284 35.7636 1.16318 35.7746C1.1631 35.7801 1.1631 35.7856 1.16318 35.7911C1.16284 35.802 1.16284 35.813 1.16318 35.824C1.1631 35.8295 1.1631 35.835 1.16318 35.8405C1.16829 35.8516 1.17378 35.8626 1.17965 35.8734C1.17957 35.8789 1.17957 35.8844 1.17965 35.8899C1.18476 35.901 1.19025 35.912 1.19612 35.9228C1.20122 35.934 1.20672 35.945 1.21258 35.9557C1.2125 35.9612 1.2125 35.9667 1.21258 35.9722C1.21795 35.9778 1.22344 35.9833 1.22905 35.9887C1.23416 35.9998 1.23965 36.0108 1.24552 36.0216C1.24543 36.0271 1.24543 36.0326 1.24552 36.038C1.26564 36.0621 1.28786 36.0843 1.31191 36.1044C1.31183 36.1099 1.31183 36.1154 1.31191 36.1209C1.32287 36.1268 1.33403 36.1323 1.34538 36.1374C1.35074 36.143 1.35623 36.1485 1.36184 36.1539C1.37263 36.1597 1.38361 36.1652 1.39477 36.1703C1.39469 36.1758 1.39469 36.1813 1.39477 36.1868C1.40556 36.1927 1.41654 36.1982 1.42771 36.2033C1.43319 36.2033 1.43868 36.2033 1.44417 36.2033C1.45513 36.2091 1.46629 36.2146 1.47764 36.2197C1.483 36.2253 1.48849 36.2308 1.4941 36.2362C1.50508 36.2365 1.51606 36.2365 1.52703 36.2362C1.5324 36.2418 1.53789 36.2473 1.5435 36.2527C1.55448 36.253 1.56546 36.253 1.57643 36.2527C1.58192 36.2528 1.58741 36.2528 1.5929 36.2527C1.60387 36.253 1.61486 36.253 1.62583 36.2527C1.65301 36.2604 1.68075 36.2658 1.7088 36.2691C5.89929 36.838 8.65999 37.206 12.631 35.074C12.6479 35.0693 12.6646 35.0638 12.6809 35.0575C12.7101 35.0435 12.7379 35.0267 12.764 35.0076C12.7696 35.0022 12.7751 34.9968 12.7804 34.9911C12.8179 34.9625 12.8514 34.929 12.88 34.8916C12.8801 34.8861 12.8801 34.8806 12.88 34.8751C12.8915 34.8646 12.9025 34.8536 12.9129 34.8421C12.913 34.8367 12.913 34.8312 12.9129 34.8257C12.9188 34.8149 12.9243 34.8039 12.9294 34.7927C12.9295 34.7872 12.9295 34.7818 12.9294 34.7763C12.9353 34.7655 12.9408 34.7545 12.9459 34.7433C12.946 34.7378 12.946 34.7323 12.9459 34.7269C12.9517 34.7161 12.9572 34.7051 12.9623 34.6939C12.9624 34.6885 12.9624 34.683 12.9623 34.6775C12.9627 34.6665 12.9627 34.6555 12.9623 34.6445C12.9624 34.6391 12.9624 34.6336 12.9623 34.6281C12.9627 34.6171 12.9627 34.6061 12.9623 34.5951C12.9624 34.5896 12.9624 34.5842 12.9623 34.5787C12.9655 34.5455 12.9655 34.5122 12.9623 34.4791C12.9583 34.4566 12.9528 34.4344 12.9459 34.4127C12.9408 34.4015 12.9353 34.3906 12.9294 34.3798C12.9295 34.3743 12.9295 34.3688 12.9294 34.3633C12.9243 34.3521 12.9188 34.3411 12.9129 34.3304C12.9029 34.3131 12.8919 34.2964 12.88 34.2804C12.8695 34.269 12.8585 34.258 12.8471 34.2475C12.8472 34.242 12.8472 34.2365 12.8471 34.231C12.8363 34.2252 12.8253 34.2197 12.8141 34.2146C12.8088 34.2089 12.8033 34.2035 12.7977 34.1981C12.7769 34.1797 12.7547 34.163 12.7313 34.1482C12.7259 34.1426 12.7204 34.1371 12.7148 34.1317C12.704 34.1258 12.6931 34.1203 12.6819 34.1152C12.6348 34.0912 12.5845 34.0744 12.5325 34.0653C12.5161 34.059 12.4994 34.0535 12.4825 34.0488C12.4771 34.0487 12.4716 34.0487 12.4661 34.0488C12.4494 34.048 12.4328 34.048 12.4161 34.0488C12.3769 34.05 12.338 34.0555 12.3 34.0653C10.7433 34.1882 9.49881 34.1231 8.59837 33.8993C7.68115 33.6713 7.15227 33.3038 6.87208 32.8204C6.59183 32.337 6.5239 31.6593 6.77248 30.7123C7.01671 29.7819 7.56058 28.6094 8.43238 27.2431C8.43238 27.2431 8.44725 27.2431 8.44885 27.2431C8.46136 27.2218 8.47236 27.1996 8.48178 27.1767C8.48739 27.1714 8.49288 27.1659 8.49825 27.1603C8.50386 27.1549 8.50935 27.1494 8.51471 27.1438C8.52058 27.133 8.52607 27.122 8.53118 27.1109C8.53126 27.1054 8.53126 27.0999 8.53118 27.0944C8.53705 27.0836 8.54254 27.0726 8.54765 27.0615C8.54773 27.056 8.54773 27.0505 8.54765 27.045C8.55351 27.0342 8.55901 27.0232 8.56411 27.0121C8.5642 27.0066 8.5642 27.0011 8.56411 26.9956C8.56445 26.9846 8.56445 26.9736 8.56411 26.9627C8.56445 26.9517 8.56445 26.9407 8.56411 26.9297C8.56972 26.9244 8.57521 26.9189 8.58058 26.9133C8.58092 26.9023 8.58092 26.8913 8.58058 26.8804C8.58092 26.8694 8.58092 26.8584 8.58058 26.8474C8.57521 26.8418 8.56972 26.8363 8.56411 26.8309C8.56445 26.82 8.56445 26.809 8.56411 26.798C8.5642 26.7925 8.5642 26.787 8.56411 26.7815C8.56445 26.7706 8.56445 26.7596 8.56411 26.7486C8.55874 26.743 8.55325 26.7375 8.54765 26.7322C8.54773 26.7267 8.54773 26.7212 8.54765 26.7157C8.54254 26.7045 8.53705 26.6935 8.53118 26.6828C8.52607 26.6716 8.52058 26.6606 8.51471 26.6498C8.50935 26.6442 8.50386 26.6387 8.49825 26.6333C8.49859 26.6224 8.49859 26.6114 8.49825 26.6004C8.49288 26.5948 8.48739 26.5893 8.48178 26.584C8.47641 26.5784 8.47092 26.5729 8.46531 26.5675C8.45995 26.5619 8.45446 26.5564 8.44885 26.551C8.44374 26.5399 8.43825 26.5289 8.43238 26.5181C8.39757 26.4853 8.3585 26.4574 8.31622 26.4351C8.31073 26.435 8.30524 26.435 8.29975 26.4351C8.29438 26.4295 8.28889 26.424 8.28328 26.4186C8.2725 26.4127 8.26152 26.4072 8.25035 26.4021C8.24486 26.402 8.23937 26.402 8.23388 26.4021C8.2231 26.3963 8.21212 26.3908 8.20095 26.3857C8.19546 26.3856 8.18997 26.3856 8.18449 26.3857C8.17353 26.3798 8.16237 26.3743 8.15102 26.3692C8.14553 26.3691 8.14004 26.3691 8.13456 26.3692C8.12358 26.3688 8.1126 26.3688 8.10162 26.3692C8.09065 26.3688 8.07967 26.3688 8.06869 26.3692C8.0632 26.3691 8.05771 26.3691 8.05222 26.3692C8.04107 26.3688 8.02991 26.3688 8.01876 26.3692C8.00779 26.3688 7.9968 26.3688 7.98583 26.3692C7.96919 26.3684 7.95253 26.3684 7.9359 26.3692L7.93447 26.3652ZM6.35753 28.8219C6.08945 29.3969 5.87683 29.9404 5.7434 30.4486C5.45072 31.5635 5.48243 32.5597 5.94258 33.3534C6.40268 34.1471 7.25701 34.6587 8.34941 34.9303C8.79379 35.0408 9.28926 35.1064 9.82675 35.1461C7.4297 35.9259 5.38156 35.6921 2.45679 35.2955C3.59928 32.4871 4.42759 30.5558 6.35753 28.8219Z"/>
</mask>
<path fill-rule="evenodd" clip-rule="evenodd" d="M7.93447 26.3652C7.90026 26.3729 7.8669 26.3839 7.83487 26.3981C7.82926 26.4035 7.82377 26.409 7.81841 26.4146C7.81292 26.4145 7.80743 26.4145 7.80194 26.4146C7.79077 26.4197 7.77979 26.4252 7.76901 26.4311C7.7634 26.4364 7.75791 26.4419 7.75254 26.4475C7.72914 26.4624 7.70694 26.4791 7.68614 26.4975C3.87921 28.9152 2.82861 31.522 1.21258 35.4941C1.20697 35.4995 1.20148 35.505 1.19612 35.5106C1.19612 35.5159 1.19612 35.5223 1.19612 35.5271C1.19025 35.5379 1.18476 35.5489 1.17965 35.56C1.17957 35.5655 1.17957 35.571 1.17965 35.5765C1.17378 35.5873 1.16829 35.5983 1.16318 35.6094C1.1631 35.6149 1.1631 35.6204 1.16318 35.6259C1.1624 35.6425 1.1624 35.6592 1.16318 35.6758C1.1631 35.6813 1.1631 35.6868 1.16318 35.6923C1.16284 35.7032 1.16284 35.7142 1.16318 35.7252C1.1631 35.7307 1.1631 35.7362 1.16318 35.7417C1.16284 35.7526 1.16284 35.7636 1.16318 35.7746C1.1631 35.7801 1.1631 35.7856 1.16318 35.7911C1.16284 35.802 1.16284 35.813 1.16318 35.824C1.1631 35.8295 1.1631 35.835 1.16318 35.8405C1.16829 35.8516 1.17378 35.8626 1.17965 35.8734C1.17957 35.8789 1.17957 35.8844 1.17965 35.8899C1.18476 35.901 1.19025 35.912 1.19612 35.9228C1.20122 35.934 1.20672 35.945 1.21258 35.9557C1.2125 35.9612 1.2125 35.9667 1.21258 35.9722C1.21795 35.9778 1.22344 35.9833 1.22905 35.9887C1.23416 35.9998 1.23965 36.0108 1.24552 36.0216C1.24543 36.0271 1.24543 36.0326 1.24552 36.038C1.26564 36.0621 1.28786 36.0843 1.31191 36.1044C1.31183 36.1099 1.31183 36.1154 1.31191 36.1209C1.32287 36.1268 1.33403 36.1323 1.34538 36.1374C1.35074 36.143 1.35623 36.1485 1.36184 36.1539C1.37263 36.1597 1.38361 36.1652 1.39477 36.1703C1.39469 36.1758 1.39469 36.1813 1.39477 36.1868C1.40556 36.1927 1.41654 36.1982 1.42771 36.2033C1.43319 36.2033 1.43868 36.2033 1.44417 36.2033C1.45513 36.2091 1.46629 36.2146 1.47764 36.2197C1.483 36.2253 1.48849 36.2308 1.4941 36.2362C1.50508 36.2365 1.51606 36.2365 1.52703 36.2362C1.5324 36.2418 1.53789 36.2473 1.5435 36.2527C1.55448 36.253 1.56546 36.253 1.57643 36.2527C1.58192 36.2528 1.58741 36.2528 1.5929 36.2527C1.60387 36.253 1.61486 36.253 1.62583 36.2527C1.65301 36.2604 1.68075 36.2658 1.7088 36.2691C5.89929 36.838 8.65999 37.206 12.631 35.074C12.6479 35.0693 12.6646 35.0638 12.6809 35.0575C12.7101 35.0435 12.7379 35.0267 12.764 35.0076C12.7696 35.0022 12.7751 34.9968 12.7804 34.9911C12.8179 34.9625 12.8514 34.929 12.88 34.8916C12.8801 34.8861 12.8801 34.8806 12.88 34.8751C12.8915 34.8646 12.9025 34.8536 12.9129 34.8421C12.913 34.8367 12.913 34.8312 12.9129 34.8257C12.9188 34.8149 12.9243 34.8039 12.9294 34.7927C12.9295 34.7872 12.9295 34.7818 12.9294 34.7763C12.9353 34.7655 12.9408 34.7545 12.9459 34.7433C12.946 34.7378 12.946 34.7323 12.9459 34.7269C12.9517 34.7161 12.9572 34.7051 12.9623 34.6939C12.9624 34.6885 12.9624 34.683 12.9623 34.6775C12.9627 34.6665 12.9627 34.6555 12.9623 34.6445C12.9624 34.6391 12.9624 34.6336 12.9623 34.6281C12.9627 34.6171 12.9627 34.6061 12.9623 34.5951C12.9624 34.5896 12.9624 34.5842 12.9623 34.5787C12.9655 34.5455 12.9655 34.5122 12.9623 34.4791C12.9583 34.4566 12.9528 34.4344 12.9459 34.4127C12.9408 34.4015 12.9353 34.3906 12.9294 34.3798C12.9295 34.3743 12.9295 34.3688 12.9294 34.3633C12.9243 34.3521 12.9188 34.3411 12.9129 34.3304C12.9029 34.3131 12.8919 34.2964 12.88 34.2804C12.8695 34.269 12.8585 34.258 12.8471 34.2475C12.8472 34.242 12.8472 34.2365 12.8471 34.231C12.8363 34.2252 12.8253 34.2197 12.8141 34.2146C12.8088 34.2089 12.8033 34.2035 12.7977 34.1981C12.7769 34.1797 12.7547 34.163 12.7313 34.1482C12.7259 34.1426 12.7204 34.1371 12.7148 34.1317C12.704 34.1258 12.6931 34.1203 12.6819 34.1152C12.6348 34.0912 12.5845 34.0744 12.5325 34.0653C12.5161 34.059 12.4994 34.0535 12.4825 34.0488C12.4771 34.0487 12.4716 34.0487 12.4661 34.0488C12.4494 34.048 12.4328 34.048 12.4161 34.0488C12.3769 34.05 12.338 34.0555 12.3 34.0653C10.7433 34.1882 9.49881 34.1231 8.59837 33.8993C7.68115 33.6713 7.15227 33.3038 6.87208 32.8204C6.59183 32.337 6.5239 31.6593 6.77248 30.7123C7.01671 29.7819 7.56058 28.6094 8.43238 27.2431C8.43238 27.2431 8.44725 27.2431 8.44885 27.2431C8.46136 27.2218 8.47236 27.1996 8.48178 27.1767C8.48739 27.1714 8.49288 27.1659 8.49825 27.1603C8.50386 27.1549 8.50935 27.1494 8.51471 27.1438C8.52058 27.133 8.52607 27.122 8.53118 27.1109C8.53126 27.1054 8.53126 27.0999 8.53118 27.0944C8.53705 27.0836 8.54254 27.0726 8.54765 27.0615C8.54773 27.056 8.54773 27.0505 8.54765 27.045C8.55351 27.0342 8.55901 27.0232 8.56411 27.0121C8.5642 27.0066 8.5642 27.0011 8.56411 26.9956C8.56445 26.9846 8.56445 26.9736 8.56411 26.9627C8.56445 26.9517 8.56445 26.9407 8.56411 26.9297C8.56972 26.9244 8.57521 26.9189 8.58058 26.9133C8.58092 26.9023 8.58092 26.8913 8.58058 26.8804C8.58092 26.8694 8.58092 26.8584 8.58058 26.8474C8.57521 26.8418 8.56972 26.8363 8.56411 26.8309C8.56445 26.82 8.56445 26.809 8.56411 26.798C8.5642 26.7925 8.5642 26.787 8.56411 26.7815C8.56445 26.7706 8.56445 26.7596 8.56411 26.7486C8.55874 26.743 8.55325 26.7375 8.54765 26.7322C8.54773 26.7267 8.54773 26.7212 8.54765 26.7157C8.54254 26.7045 8.53705 26.6935 8.53118 26.6828C8.52607 26.6716 8.52058 26.6606 8.51471 26.6498C8.50935 26.6442 8.50386 26.6387 8.49825 26.6333C8.49859 26.6224 8.49859 26.6114 8.49825 26.6004C8.49288 26.5948 8.48739 26.5893 8.48178 26.584C8.47641 26.5784 8.47092 26.5729 8.46531 26.5675C8.45995 26.5619 8.45446 26.5564 8.44885 26.551C8.44374 26.5399 8.43825 26.5289 8.43238 26.5181C8.39757 26.4853 8.3585 26.4574 8.31622 26.4351C8.31073 26.435 8.30524 26.435 8.29975 26.4351C8.29438 26.4295 8.28889 26.424 8.28328 26.4186C8.2725 26.4127 8.26152 26.4072 8.25035 26.4021C8.24486 26.402 8.23937 26.402 8.23388 26.4021C8.2231 26.3963 8.21212 26.3908 8.20095 26.3857C8.19546 26.3856 8.18997 26.3856 8.18449 26.3857C8.17353 26.3798 8.16237 26.3743 8.15102 26.3692C8.14553 26.3691 8.14004 26.3691 8.13456 26.3692C8.12358 26.3688 8.1126 26.3688 8.10162 26.3692C8.09065 26.3688 8.07967 26.3688 8.06869 26.3692C8.0632 26.3691 8.05771 26.3691 8.05222 26.3692C8.04107 26.3688 8.02991 26.3688 8.01876 26.3692C8.00779 26.3688 7.9968 26.3688 7.98583 26.3692C7.96919 26.3684 7.95253 26.3684 7.9359 26.3692L7.93447 26.3652ZM6.35753 28.8219C6.08945 29.3969 5.87683 29.9404 5.7434 30.4486C5.45072 31.5635 5.48243 32.5597 5.94258 33.3534C6.40268 34.1471 7.25701 34.6587 8.34941 34.9303C8.79379 35.0408 9.28926 35.1064 9.82675 35.1461C7.4297 35.9259 5.38156 35.6921 2.45679 35.2955C3.59928 32.4871 4.42759 30.5558 6.35753 28.8219Z" fill="white"/>
<path fill-rule="evenodd" clip-rule="evenodd" d="M7.93447 26.3652C7.90026 26.3729 7.8669 26.3839 7.83487 26.3981C7.82926 26.4035 7.82377 26.409 7.81841 26.4146C7.81292 26.4145 7.80743 26.4145 7.80194 26.4146C7.79077 26.4197 7.77979 26.4252 7.76901 26.4311C7.7634 26.4364 7.75791 26.4419 7.75254 26.4475C7.72914 26.4624 7.70694 26.4791 7.68614 26.4975C3.87921 28.9152 2.82861 31.522 1.21258 35.4941C1.20697 35.4995 1.20148 35.505 1.19612 35.5106C1.19612 35.5159 1.19612 35.5223 1.19612 35.5271C1.19025 35.5379 1.18476 35.5489 1.17965 35.56C1.17957 35.5655 1.17957 35.571 1.17965 35.5765C1.17378 35.5873 1.16829 35.5983 1.16318 35.6094C1.1631 35.6149 1.1631 35.6204 1.16318 35.6259C1.1624 35.6425 1.1624 35.6592 1.16318 35.6758C1.1631 35.6813 1.1631 35.6868 1.16318 35.6923C1.16284 35.7032 1.16284 35.7142 1.16318 35.7252C1.1631 35.7307 1.1631 35.7362 1.16318 35.7417C1.16284 35.7526 1.16284 35.7636 1.16318 35.7746C1.1631 35.7801 1.1631 35.7856 1.16318 35.7911C1.16284 35.802 1.16284 35.813 1.16318 35.824C1.1631 35.8295 1.1631 35.835 1.16318 35.8405C1.16829 35.8516 1.17378 35.8626 1.17965 35.8734C1.17957 35.8789 1.17957 35.8844 1.17965 35.8899C1.18476 35.901 1.19025 35.912 1.19612 35.9228C1.20122 35.934 1.20672 35.945 1.21258 35.9557C1.2125 35.9612 1.2125 35.9667 1.21258 35.9722C1.21795 35.9778 1.22344 35.9833 1.22905 35.9887C1.23416 35.9998 1.23965 36.0108 1.24552 36.0216C1.24543 36.0271 1.24543 36.0326 1.24552 36.038C1.26564 36.0621 1.28786 36.0843 1.31191 36.1044C1.31183 36.1099 1.31183 36.1154 1.31191 36.1209C1.32287 36.1268 1.33403 36.1323 1.34538 36.1374C1.35074 36.143 1.35623 36.1485 1.36184 36.1539C1.37263 36.1597 1.38361 36.1652 1.39477 36.1703C1.39469 36.1758 1.39469 36.1813 1.39477 36.1868C1.40556 36.1927 1.41654 36.1982 1.42771 36.2033C1.43319 36.2033 1.43868 36.2033 1.44417 36.2033C1.45513 36.2091 1.46629 36.2146 1.47764 36.2197C1.483 36.2253 1.48849 36.2308 1.4941 36.2362C1.50508 36.2365 1.51606 36.2365 1.52703 36.2362C1.5324 36.2418 1.53789 36.2473 1.5435 36.2527C1.55448 36.253 1.56546 36.253 1.57643 36.2527C1.58192 36.2528 1.58741 36.2528 1.5929 36.2527C1.60387 36.253 1.61486 36.253 1.62583 36.2527C1.65301 36.2604 1.68075 36.2658 1.7088 36.2691C5.89929 36.838 8.65999 37.206 12.631 35.074C12.6479 35.0693 12.6646 35.0638 12.6809 35.0575C12.7101 35.0435 12.7379 35.0267 12.764 35.0076C12.7696 35.0022 12.7751 34.9968 12.7804 34.9911C12.8179 34.9625 12.8514 34.929 12.88 34.8916C12.8801 34.8861 12.8801 34.8806 12.88 34.8751C12.8915 34.8646 12.9025 34.8536 12.9129 34.8421C12.913 34.8367 12.913 34.8312 12.9129 34.8257C12.9188 34.8149 12.9243 34.8039 12.9294 34.7927C12.9295 34.7872 12.9295 34.7818 12.9294 34.7763C12.9353 34.7655 12.9408 34.7545 12.9459 34.7433C12.946 34.7378 12.946 34.7323 12.9459 34.7269C12.9517 34.7161 12.9572 34.7051 12.9623 34.6939C12.9624 34.6885 12.9624 34.683 12.9623 34.6775C12.9627 34.6665 12.9627 34.6555 12.9623 34.6445C12.9624 34.6391 12.9624 34.6336 12.9623 34.6281C12.9627 34.6171 12.9627 34.6061 12.9623 34.5951C12.9624 34.5896 12.9624 34.5842 12.9623 34.5787C12.9655 34.5455 12.9655 34.5122 12.9623 34.4791C12.9583 34.4566 12.9528 34.4344 12.9459 34.4127C12.9408 34.4015 12.9353 34.3906 12.9294 34.3798C12.9295 34.3743 12.9295 34.3688 12.9294 34.3633C12.9243 34.3521 12.9188 34.3411 12.9129 34.3304C12.9029 34.3131 12.8919 34.2964 12.88 34.2804C12.8695 34.269 12.8585 34.258 12.8471 34.2475C12.8472 34.242 12.8472 34.2365 12.8471 34.231C12.8363 34.2252 12.8253 34.2197 12.8141 34.2146C12.8088 34.2089 12.8033 34.2035 12.7977 34.1981C12.7769 34.1797 12.7547 34.163 12.7313 34.1482C12.7259 34.1426 12.7204 34.1371 12.7148 34.1317C12.704 34.1258 12.6931 34.1203 12.6819 34.1152C12.6348 34.0912 12.5845 34.0744 12.5325 34.0653C12.5161 34.059 12.4994 34.0535 12.4825 34.0488C12.4771 34.0487 12.4716 34.0487 12.4661 34.0488C12.4494 34.048 12.4328 34.048 12.4161 34.0488C12.3769 34.05 12.338 34.0555 12.3 34.0653C10.7433 34.1882 9.49881 34.1231 8.59837 33.8993C7.68115 33.6713 7.15227 33.3038 6.87208 32.8204C6.59183 32.337 6.5239 31.6593 6.77248 30.7123C7.01671 29.7819 7.56058 28.6094 8.43238 27.2431C8.43238 27.2431 8.44725 27.2431 8.44885 27.2431C8.46136 27.2218 8.47236 27.1996 8.48178 27.1767C8.48739 27.1714 8.49288 27.1659 8.49825 27.1603C8.50386 27.1549 8.50935 27.1494 8.51471 27.1438C8.52058 27.133 8.52607 27.122 8.53118 27.1109C8.53126 27.1054 8.53126 27.0999 8.53118 27.0944C8.53705 27.0836 8.54254 27.0726 8.54765 27.0615C8.54773 27.056 8.54773 27.0505 8.54765 27.045C8.55351 27.0342 8.55901 27.0232 8.56411 27.0121C8.5642 27.0066 8.5642 27.0011 8.56411 26.9956C8.56445 26.9846 8.56445 26.9736 8.56411 26.9627C8.56445 26.9517 8.56445 26.9407 8.56411 26.9297C8.56972 26.9244 8.57521 26.9189 8.58058 26.9133C8.58092 26.9023 8.58092 26.8913 8.58058 26.8804C8.58092 26.8694 8.58092 26.8584 8.58058 26.8474C8.57521 26.8418 8.56972 26.8363 8.56411 26.8309C8.56445 26.82 8.56445 26.809 8.56411 26.798C8.5642 26.7925 8.5642 26.787 8.56411 26.7815C8.56445 26.7706 8.56445 26.7596 8.56411 26.7486C8.55874 26.743 8.55325 26.7375 8.54765 26.7322C8.54773 26.7267 8.54773 26.7212 8.54765 26.7157C8.54254 26.7045 8.53705 26.6935 8.53118 26.6828C8.52607 26.6716 8.52058 26.6606 8.51471 26.6498C8.50935 26.6442 8.50386 26.6387 8.49825 26.6333C8.49859 26.6224 8.49859 26.6114 8.49825 26.6004C8.49288 26.5948 8.48739 26.5893 8.48178 26.584C8.47641 26.5784 8.47092 26.5729 8.46531 26.5675C8.45995 26.5619 8.45446 26.5564 8.44885 26.551C8.44374 26.5399 8.43825 26.5289 8.43238 26.5181C8.39757 26.4853 8.3585 26.4574 8.31622 26.4351C8.31073 26.435 8.30524 26.435 8.29975 26.4351C8.29438 26.4295 8.28889 26.424 8.28328 26.4186C8.2725 26.4127 8.26152 26.4072 8.25035 26.4021C8.24486 26.402 8.23937 26.402 8.23388 26.4021C8.2231 26.3963 8.21212 26.3908 8.20095 26.3857C8.19546 26.3856 8.18997 26.3856 8.18449 26.3857C8.17353 26.3798 8.16237 26.3743 8.15102 26.3692C8.14553 26.3691 8.14004 26.3691 8.13456 26.3692C8.12358 26.3688 8.1126 26.3688 8.10162 26.3692C8.09065 26.3688 8.07967 26.3688 8.06869 26.3692C8.0632 26.3691 8.05771 26.3691 8.05222 26.3692C8.04107 26.3688 8.02991 26.3688 8.01876 26.3692C8.00779 26.3688 7.9968 26.3688 7.98583 26.3692C7.96919 26.3684 7.95253 26.3684 7.9359 26.3692L7.93447 26.3652ZM6.35753 28.8219C6.08945 29.3969 5.87683 29.9404 5.7434 30.4486C5.45072 31.5635 5.48243 32.5597 5.94258 33.3534C6.40268 34.1471 7.25701 34.6587 8.34941 34.9303C8.79379 35.0408 9.28926 35.1064 9.82675 35.1461C7.4297 35.9259 5.38156 35.6921 2.45679 35.2955C3.59928 32.4871 4.42759 30.5558 6.35753 28.8219Z" stroke="white" stroke-width="1.51414" mask="url(#path-3-outside-1_155_60)"/>
</g>
<path id="Vector_3" fill-rule="evenodd" clip-rule="evenodd" d="M31.1323 14.4552C30.3803 14.4401 29.6149 14.6236 28.9183 15.027C26.8917 16.2006 26.1847 18.8052 27.3483 20.8294C27.3483 20.8292 27.3483 20.8295 27.3483 20.8294C28.5169 22.8576 31.1214 23.5463 33.1522 22.3737C33.1524 22.3736 33.1525 22.3735 33.1527 22.3734C35.1791 21.1999 35.8857 18.5945 34.7173 16.5658C34.7173 16.5656 34.7173 16.5659 34.7173 16.5658C33.9533 15.2373 32.5675 14.4841 31.1323 14.4552ZM31.115 15.5117C32.1898 15.5309 33.2221 16.0956 33.7967 17.0952C33.7967 17.0951 33.7967 17.0954 33.7967 17.0952C34.6781 18.6251 34.1527 20.5663 32.621 21.4539C32.621 21.454 32.6205 21.4541 32.6205 21.4542C31.082 22.342 29.1507 21.8297 28.269 20.2994C27.3933 18.7754 27.9186 16.8336 29.4507 15.9463C29.9774 15.6413 30.552 15.5016 31.115 15.5117Z" fill="white"/>
</g>
</g>
</svg>
