<svg width="372" height="189" viewBox="0 0 372 189" fill="none" xmlns="http://www.w3.org/2000/svg">
<path d="M150.301 15.3361C118.773 6.03102 40.785 2.89551 2.31104 2.62012V27.7429C23.7922 27.7429 26.6006 45.6468 29.5222 71.4104C32.4437 97.1741 47.5711 125.192 97.6915 123.379C135.833 121.999 144.359 112.697 154.437 95.3177C163.855 79.076 165.505 65.8918 167.853 55.1413C170.201 44.3907 182.427 45.6468 189.1 45.6468C195.773 45.6468 201.996 45.6468 206.648 55.1413C211.658 65.3644 213.369 79.9548 223.191 97.5311C233.013 115.107 247.842 121.999 281.613 121.999C314.526 121.999 331.642 107.934 339.712 94.2375C349.192 78.1477 351.446 54.4557 351.446 38.7147C351.446 27.9304 364.49 28.0875 370.005 27.7429V2.62012C349.327 2.62012 299.182 3.3023 264.03 6.03102C233.988 8.36301 209.939 21.5946 201.996 27.7429H172.53C168.464 23.2658 164.362 19.0582 150.301 15.3361Z" stroke="#1B1B1B" stroke-width="4" stroke-linecap="square"/>
<path d="M281.822 29.5333C275.466 20.211 252.146 26.9909 241.918 41.3104C232.705 54.2084 232.838 74.3248 241.918 77.3735C255.534 81.9453 256.681 67.2554 264.678 57.1272C273.825 45.5411 290.952 42.9236 281.822 29.5333Z" stroke="#242424" stroke-width="4" stroke-linecap="square"/>
<path d="M93.2236 27.6949C87.0511 18.6421 64.4057 25.2259 54.4732 39.1315C45.5269 51.6565 45.6553 71.1914 54.4729 74.1519C67.6955 78.5915 68.8097 64.3263 76.5747 54.491C85.4575 43.2398 102.089 40.698 93.2236 27.6949Z" stroke="#242424" stroke-width="4" stroke-linecap="square"/>
<path d="M138.822 160.081C143.805 167.775 158.825 183.69 173.063 185.801C187.3 187.911 203.682 186.68 210.801 185.801" stroke="#1B1B1B" stroke-width="4" stroke-linecap="square"/>
</svg>
