<svg width="42" height="23" viewBox="0 0 42 23" fill="none" xmlns="http://www.w3.org/2000/svg">
<g id="Group 352">
<path id="Rectangle 134" d="M41.5122 16.9845H24.7689V7.81849C24.7689 3.63366 28.1614 0.241175 32.3462 0.241175H41.5122V16.9845Z" fill="#A94CFF"/>
<g id="Group">
<path id="Vector" d="M8.54385 7.3844H1.44385C0.843848 7.3844 0.443848 7.7844 0.443848 8.3844V21.3844C0.443848 21.9844 0.843848 22.3844 1.44385 22.3844H8.54385C8.94385 22.3844 9.24385 22.1844 9.44385 21.8844L12.8438 15.3844C12.9438 15.0844 12.9438 14.7844 12.8438 14.4844L9.44385 7.9844C9.24385 7.5844 8.84385 7.3844 8.54385 7.3844Z" fill="#242424"/>
<path id="Vector_2" d="M17.3441 20.3844C16.9441 20.3844 16.6441 20.2844 16.3441 20.0844C15.9441 19.7844 15.5441 19.3844 15.4441 18.8844C15.3441 18.3844 15.3441 17.7844 15.6441 17.3844L16.9441 14.8844L15.6441 12.3844C15.5441 11.9844 15.4441 11.6844 15.4441 11.3844C15.4441 10.2844 16.3441 9.3844 17.4441 9.3844H20.9441C21.7441 9.3844 22.4441 9.7844 22.7441 10.4844L24.5441 13.9844C24.8441 14.5844 24.8441 15.2844 24.5441 15.7844L22.6441 19.2844C22.3441 19.9844 21.6441 20.3844 20.8441 20.3844H17.3441ZM17.3441 11.3844L18.6441 13.8844C18.9441 14.4844 18.9441 15.1844 18.6441 15.7844L17.3441 18.3844H20.9441L22.8441 14.8844L20.9441 11.3844H17.3441Z" fill="#242424"/>
<path id="Vector_3" d="M28.044 20.3844C27.644 20.3844 27.344 20.2844 27.044 20.0844C26.044 19.4844 25.744 18.2844 26.344 17.3844L27.644 14.8844L26.344 12.3844C25.844 11.3844 26.244 10.1844 27.144 9.68437C27.444 9.48437 27.744 9.48438 28.044 9.48438H32.444C33.544 9.48438 34.444 10.3844 34.444 11.4844V18.4844C34.444 19.5844 33.544 20.4844 32.444 20.4844L28.044 20.3844ZM32.444 11.3844H28.044L29.444 13.8844C29.744 14.4844 29.744 15.1844 29.444 15.7844L28.044 18.3844H32.444V11.3844Z" fill="#242424"/>
</g>
</g>
</svg>
