<svg width="62" height="34" viewBox="0 0 62 34" fill="none" xmlns="http://www.w3.org/2000/svg">
<g id="Group 180">
<path id="Rectangle 135" d="M36.627 25.4016H61.5129V11.778C61.5129 5.55795 56.4706 0.515633 50.2506 0.515633H36.627V25.4016Z" fill="#22DDB1"/>
<path id="Vector" d="M11.68 32.5963C17.4142 32.5963 22.0627 27.9478 22.0627 22.2136C22.0627 16.4794 17.4142 11.8309 11.68 11.8309C5.94585 11.8309 1.29736 16.4794 1.29736 22.2136C1.29736 27.9478 5.94585 32.5963 11.68 32.5963Z" fill="white"/>
<path id="Vector_2" fill-rule="evenodd" clip-rule="evenodd" d="M11.6802 10.9992C5.49092 10.9992 0.46582 16.0241 0.46582 22.2134C0.46582 28.4029 5.49092 33.4278 11.6802 33.4278C17.8695 33.4278 22.8944 28.4029 22.8944 22.2134C22.8944 16.0241 17.8695 10.9992 11.6802 10.9992ZM11.6802 12.6624C16.9516 12.6624 21.2312 16.942 21.2312 22.2134C21.2312 27.485 16.9516 31.7646 11.6802 31.7646C6.40863 31.7646 2.129 27.485 2.129 22.2134C2.129 16.942 6.40863 12.6624 11.6802 12.6624Z" fill="white"/>
<path id="Vector_3" fill-rule="evenodd" clip-rule="evenodd" d="M36.6268 10.9992C30.4375 10.9992 25.4126 16.0241 25.4126 22.2134C25.4126 28.4029 30.4375 33.4278 36.6268 33.4278C42.8161 33.4278 47.8412 28.4029 47.8412 22.2134C47.8412 16.0241 42.8161 10.9992 36.6268 10.9992ZM36.6268 12.6624C41.8982 12.6624 46.178 16.942 46.178 22.2134C46.178 27.485 41.8982 31.7646 36.6268 31.7646C31.3554 31.7646 27.0758 27.485 27.0758 22.2134C27.0758 16.942 31.3554 12.6624 36.6268 12.6624Z" fill="white"/>
</g>
</svg>
