<svg width="73" height="73" viewBox="0 0 73 73" fill="none" xmlns="http://www.w3.org/2000/svg">
<g id="Group 271">
<path id="Vector" d="M53.9259 72.9518C59.5519 72.9518 64.1126 68.391 64.1126 62.7651C64.1126 57.1392 59.5519 52.5784 53.9259 52.5784C48.3 52.5784 43.7393 57.1392 43.7393 62.7651C43.7393 68.391 48.3 72.9518 53.9259 72.9518Z" fill="#F66884"/>
<path id="Vector_2" d="M58.6395 27.1118H51.0957V50.6429C52.023 50.4242 52.9726 50.3141 53.9253 50.3147C56.9328 50.3153 59.8385 51.4045 62.1052 53.3811C64.372 55.3576 65.8467 58.0879 66.2569 61.0673H72.6009V40.128C72.6009 33.1955 66.0758 27.1118 58.6395 27.1118Z" fill="#F66884"/>
<path id="Vector_3" d="M44.9043 5.84978C44.6103 4.67968 44.0129 3.60782 43.1723 2.74238C42.3317 1.87694 41.2777 1.24853 40.1166 0.920572C38.4895 0.443354 36.7657 0.401252 35.1173 0.798468C33.4688 1.19568 31.9534 2.01832 30.7222 3.18427C25.6289 7.87014 25.6289 13.303 25.6289 13.5294V15.7931H36.1155C39.2451 15.7931 41.8653 14.6612 43.4725 12.6296C44.2141 11.6844 44.7288 10.5817 44.9771 9.40623C45.2253 8.2308 45.2004 7.01408 44.9043 5.84978Z" fill="#F66884"/>
<path id="Vector_4" d="M18.2723 3.18441C17.0415 2.01797 15.5261 1.195 13.8775 0.797762C12.2289 0.400519 10.505 0.442914 8.87796 0.92071C7.71691 1.24867 6.6629 1.87708 5.8223 2.74252C4.9817 3.60796 4.38425 4.67981 4.09023 5.84992C3.78921 7.0142 3.75972 8.23208 4.00405 9.40956C4.24837 10.587 4.75998 11.6926 5.49939 12.641C7.12925 14.6614 9.74949 15.7932 12.8791 15.7932H23.3657V13.5295C23.3657 13.3032 23.3657 7.87028 18.2723 3.18441Z" fill="#F66884"/>
<path id="Vector_5" d="M18.838 72.9518C24.464 72.9518 29.0247 68.391 29.0247 62.7651C29.0247 57.1392 24.464 52.5784 18.838 52.5784C13.2121 52.5784 8.65137 57.1392 8.65137 62.7651C8.65137 68.391 13.2121 72.9518 18.838 72.9518Z" fill="#F66884"/>
<path id="Vector_6" d="M19.97 18.0569H0.162598V61.0673H6.50662C6.91674 58.0879 8.39145 55.3576 10.6582 53.3811C12.925 51.4045 15.8306 50.3153 18.8381 50.3147C19.223 50.3147 19.5965 50.3147 19.97 50.3656V18.0569Z" fill="#F66884"/>
<path id="Vector_7" d="M22.2334 50.7844C23.892 51.2632 25.4334 52.0802 26.7608 53.1839V18.0569H22.2334V50.7844Z" fill="#F66884"/>
<path id="Vector_8" d="M29.0249 18.0569V55.6344C30.1634 57.2481 30.8989 59.111 31.1698 61.0673H41.5941C41.8869 58.9769 42.7043 56.9948 43.97 55.3056C45.2356 53.6164 46.9084 52.2751 48.8323 51.4069V18.0569H29.0249Z" fill="#F66884"/>
</g>
</svg>
