<svg width="25" height="25" viewBox="0 0 25 25" fill="none" xmlns="http://www.w3.org/2000/svg">
<g id="Group 178">
<path id="Rectangle 123" d="M24.9243 24.6023H0.544689V8.58525C0.544689 3.96672 4.28875 0.222668 8.90727 0.222668H24.9243V24.6023Z" fill="#FFE96D"/>
<path id="Vector" d="M10.5869 17.2649L10.8222 17.4999L11.0572 17.2647L19.5483 8.76916L19.5574 8.7601L19.5657 8.75038C19.6935 8.60116 19.7602 8.40922 19.7527 8.21292C19.7451 8.01661 19.6637 7.8304 19.5248 7.69148L19.2901 7.92616L19.5248 7.69148C19.3859 7.55257 19.1997 7.47119 19.0034 7.46361C18.807 7.45603 18.6151 7.5228 18.4659 7.65058L18.4562 7.65888L18.4472 7.66789L10.8132 15.2932L7.02191 11.502L7.01282 11.4929L7.00306 11.4845C6.85385 11.3568 6.66191 11.29 6.4656 11.2976C6.2693 11.3051 6.08308 11.3865 5.94417 11.5254C5.80526 11.6644 5.72388 11.8506 5.7163 12.0469C5.70871 12.2432 5.77548 12.4351 5.90327 12.5843L5.91168 12.5942L5.92082 12.6033L10.5869 17.2649Z" fill="#242424" stroke="black" stroke-width="0.665252"/>
</g>
</svg>
