<svg width="12" height="17" viewBox="0 0 12 17" fill="none" xmlns="http://www.w3.org/2000/svg">
<path d="M10.5525 5.83603C11.421 5.25737 11.9928 4.28705 11.9928 3.18971C11.9928 1.43255 10.5235 0 8.72135 0H3.26779C1.46562 0 0 1.43255 0 3.18971C0 4.29411 0.575393 5.26795 1.45115 5.84309C0.575393 6.4147 0 7.38854 0 8.49294C0 9.59734 0.58263 10.5782 1.462 11.1499C0.58263 11.725 0 12.7024 0 13.8103C0 15.5675 1.46562 17 3.26779 17C5.06996 17 6.5392 15.5675 6.5392 13.8103V10.8499C7.12183 11.3616 7.89264 11.6721 8.73221 11.6721C10.5344 11.6721 12 10.243 12 8.48236C12 7.38149 11.4246 6.40764 10.5525 5.83603ZM5.45356 13.8103C5.45356 14.9853 4.47286 15.9415 3.26779 15.9415C2.06273 15.9415 1.08565 14.9853 1.08565 13.8103C1.08565 12.6353 2.06273 11.6791 3.26779 11.6791H5.45356V13.8103ZM5.45356 10.6206H3.26779C2.06273 10.6206 1.08565 9.66791 1.08565 8.49294C1.08565 7.39207 1.94331 6.48174 3.04343 6.37235H3.05428C3.12666 6.3653 3.19542 6.36177 3.26779 6.36177H5.45356V10.6206ZM5.45356 5.32088H3.26779C3.19542 5.32088 3.12666 5.31735 3.05428 5.31029H3.04343C1.94331 5.20091 1.08565 4.29058 1.08565 3.18971C1.08565 2.01474 2.06273 1.05853 3.26779 1.05853H5.45356V5.32088ZM6.5392 1.05853H8.72135C9.92642 1.05853 10.9071 2.01474 10.9071 3.18971C10.9071 4.27999 10.0603 5.18327 8.97467 5.30677C8.89144 5.31735 8.8082 5.32088 8.72135 5.32088H6.5392V1.05853ZM8.73221 10.6135C7.52714 10.6135 6.54644 9.65733 6.54644 8.48236C6.54644 7.41324 7.35706 6.52761 8.41013 6.37941C8.51508 6.36177 8.62364 6.35471 8.73221 6.35471C8.81544 6.35471 8.89867 6.35824 8.97829 6.36883C10.0676 6.48526 10.9144 7.38854 10.9144 8.48236C10.9144 9.65733 9.93727 10.6135 8.73221 10.6135Z" fill="#FF7B00"/>
</svg>
