<svg width="135" height="38" viewBox="0 0 135 38" fill="none" xmlns="http://www.w3.org/2000/svg">
<path d="M5.76407 0.864258H10.0715V10.3459H0.589844V6.03848C0.589844 3.18262 2.9082 0.864258 5.76407 0.864258Z" fill="#DC143C"/>
<path d="M15.9586 0.864258H11.6512V10.3459H21.1328V6.03848C21.1328 3.18262 18.8145 0.864258 15.9586 0.864258Z" fill="#FFD800"/>
<path d="M32.1956 5.17173L32.1956 0.86433L22.7139 0.86433L22.7139 10.3459L27.0213 10.3459C29.8772 10.3459 32.1956 8.02759 32.1956 5.17173Z" fill="#263CFC"/>
<path d="M27.8891 21.4082H32.1965V11.9266H22.7148V16.234C22.7148 19.0898 25.0332 21.4082 27.8891 21.4082Z" fill="#A94CFF"/>
<path d="M11.6523 17.1005L11.6523 21.4079L21.134 21.4079L21.134 11.9263L16.8266 11.9263C13.9707 11.9263 11.6523 14.2446 11.6523 17.1005Z" fill="#CCCCCC"/>
<path d="M4.8978 11.9265L0.590405 11.9265L0.590404 21.4081L10.072 21.4081L10.072 17.1007C10.072 14.2449 7.75366 11.9265 4.8978 11.9265Z" fill="#22DDB1"/>
<path d="M10.072 27.2953L10.072 22.9879L0.590404 22.9879L0.590405 32.4695L4.8978 32.4695C7.75366 32.4695 10.072 30.1511 10.072 27.2953Z" fill="#FF9A3C"/>
<path d="M16.8266 32.4695H21.134V22.9879H11.6523L11.6523 27.2953C11.6523 30.1511 13.9707 32.4695 16.8266 32.4695Z" fill="#F1909C"/>
<path d="M22.7148 28.1625L22.7148 32.4699L32.1965 32.4699L32.1965 22.9883L27.8891 22.9883C25.0332 22.9883 22.7148 25.3066 22.7148 28.1625Z" fill="#5A34F2"/>
<path d="M55.4777 25.7525V32.4529H52.57V26.5532C52.57 26.181 52.4787 25.8474 52.2961 25.5524C52.1205 25.2504 51.8817 25.0116 51.5797 24.836C51.2847 24.6604 50.9546 24.5726 50.5894 24.5726C50.2242 24.5726 49.8906 24.6604 49.5885 24.836C49.2865 25.0116 49.0477 25.2504 48.8722 25.5524C48.6966 25.8474 48.6088 26.181 48.6088 26.5532V32.4529H45.7011L45.6906 16.6502H48.5982L48.6088 22.6974C48.96 22.3602 49.3708 22.0968 49.8414 21.9072C50.319 21.7176 50.8212 21.6228 51.3479 21.6228C52.1135 21.6228 52.8053 21.8089 53.4233 22.1811C54.0484 22.5534 54.5471 23.052 54.9193 23.6771C55.2916 24.2952 55.4777 24.987 55.4777 25.7525ZM62.0134 32.7268C61.0442 32.7268 60.1592 32.4775 59.3586 31.9788C58.5649 31.4801 57.9293 30.8094 57.4517 29.9666C56.9811 29.1238 56.7459 28.1932 56.7459 27.1748C56.7459 26.4092 56.8828 25.6928 57.1567 25.0256C57.4306 24.3514 57.8064 23.7614 58.284 23.2557C58.7686 22.743 59.3305 22.3427 59.9696 22.0547C60.6087 21.7667 61.29 21.6228 62.0134 21.6228C62.8492 21.6228 63.6112 21.8019 64.2995 22.1601C64.9949 22.5183 65.5813 23.0064 66.0589 23.6244C66.5435 24.2425 66.8877 24.9413 67.0914 25.7209C67.3021 26.5005 67.3372 27.3117 67.1967 28.1545H59.8853C59.9766 28.4636 60.1171 28.7445 60.3067 28.9974C60.5034 29.2432 60.7422 29.4398 61.0231 29.5873C61.3111 29.7348 61.6412 29.8121 62.0134 29.8191C62.3786 29.8261 62.7158 29.7418 63.0248 29.5663C63.3338 29.3907 63.5972 29.1554 63.8149 28.8604L66.7858 29.5452C66.3574 30.4793 65.7183 31.2449 64.8684 31.8418C64.0186 32.4318 63.0669 32.7268 62.0134 32.7268ZM59.78 26.0054H64.2574C64.1661 25.6542 64.0116 25.3382 63.7939 25.0572C63.5761 24.7763 63.3128 24.555 63.0037 24.3935C62.7017 24.232 62.3716 24.1512 62.0134 24.1512C61.6622 24.1512 61.3321 24.232 61.0231 24.3935C60.7211 24.555 60.4612 24.7763 60.2435 25.0572C60.0328 25.3311 59.8783 25.6472 59.78 26.0054ZM72.0282 32.6425C71.4874 32.6004 70.9677 32.488 70.469 32.3054C69.9703 32.1158 69.5244 31.8629 69.1311 31.5469C68.7448 31.2238 68.4428 30.8375 68.225 30.388L70.6692 29.3345C70.7464 29.4469 70.8623 29.5698 71.0168 29.7032C71.1714 29.8296 71.3575 29.942 71.5752 30.0403C71.7999 30.1387 72.0598 30.1878 72.3548 30.1878C72.5725 30.1878 72.7832 30.1632 72.9869 30.1141C73.1906 30.0579 73.3556 29.9701 73.4821 29.8507C73.6085 29.7243 73.6717 29.5592 73.6717 29.3556C73.6717 29.1308 73.5909 28.9587 73.4294 28.8393C73.2678 28.7199 73.0712 28.6321 72.8394 28.576C72.6147 28.5127 72.3969 28.4601 72.1862 28.4179C71.5401 28.3056 70.929 28.1054 70.3531 27.8174C69.7842 27.5224 69.3207 27.1432 68.9625 26.6796C68.6043 26.2161 68.4252 25.6612 68.4252 25.0151C68.4252 24.3057 68.6113 23.6947 68.9836 23.182C69.3558 22.6622 69.8404 22.2619 70.4374 21.981C71.0344 21.7 71.6806 21.5596 72.3759 21.5596C73.1976 21.5596 73.9597 21.7316 74.662 22.0758C75.3643 22.4199 75.9297 22.9045 76.3581 23.5296L74.0615 24.8887C73.9702 24.7552 73.8508 24.6288 73.7033 24.5094C73.5628 24.383 73.3978 24.2776 73.2081 24.1933C73.0255 24.102 72.8289 24.0494 72.6182 24.0353C72.3443 24.0142 72.0949 24.0318 71.8702 24.088C71.6454 24.1372 71.4663 24.232 71.3329 24.3724C71.2065 24.5129 71.1433 24.7025 71.1433 24.9413C71.1433 25.1731 71.2451 25.3452 71.4488 25.4576C71.6525 25.5629 71.8877 25.6437 72.1546 25.6999C72.4215 25.749 72.6568 25.8087 72.8605 25.879C73.4715 26.0756 74.0439 26.3285 74.5777 26.6375C75.1185 26.9395 75.554 27.3117 75.8841 27.7542C76.2142 28.1967 76.3687 28.7164 76.3476 29.3134C76.3476 30.0087 76.1404 30.6198 75.726 31.1465C75.3117 31.6663 74.7744 32.0631 74.1142 32.337C73.461 32.6039 72.7657 32.7057 72.0282 32.6425ZM77.8515 21.9178H80.7592V32.4529H77.8515V21.9178ZM79.3264 20.7062C78.905 20.7062 78.5503 20.5657 78.2624 20.2848C77.9744 20.0039 77.8304 19.6562 77.8304 19.2418C77.8304 18.8274 77.9744 18.4798 78.2624 18.1989C78.5503 17.9179 78.9015 17.7774 79.3159 17.7774C79.7303 17.7774 80.0779 17.9179 80.3589 18.1989C80.6468 18.4798 80.7908 18.8274 80.7908 19.2418C80.7908 19.6562 80.6503 20.0039 80.3694 20.2848C80.0955 20.5657 79.7478 20.7062 79.3264 20.7062ZM83.1808 32.4529V21.9178H86.0885V22.6974C86.4467 22.3602 86.8611 22.0968 87.3316 21.9072C87.8022 21.7176 88.3009 21.6228 88.8276 21.6228C89.544 21.6228 90.2007 21.7878 90.7977 22.1179C91.4017 22.448 91.8863 22.887 92.2515 23.4348C92.6238 22.887 93.1084 22.448 93.7054 22.1179C94.3024 21.7878 94.9556 21.6228 95.6649 21.6228C96.4305 21.6228 97.1223 21.8089 97.7403 22.1811C98.3654 22.5534 98.8641 23.052 99.2363 23.6771C99.6086 24.2952 99.7947 24.987 99.7947 25.7525V32.4529H96.887V26.5532C96.887 26.188 96.7957 25.8579 96.6131 25.5629C96.4375 25.2609 96.2022 25.0221 95.9072 24.8465C95.6122 24.6639 95.2821 24.5726 94.9169 24.5726C94.5517 24.5726 94.2181 24.6604 93.9161 24.836C93.6211 25.0116 93.3823 25.2504 93.1997 25.5524C93.0241 25.8474 92.9363 26.181 92.9363 26.5532V32.4529H90.0286V26.5532C90.0286 26.181 89.9408 25.8474 89.7653 25.5524C89.5897 25.2504 89.3509 25.0116 89.0489 24.836C88.7539 24.6604 88.4238 24.5726 88.0586 24.5726C87.7004 24.5726 87.3703 24.6639 87.0683 24.8465C86.7733 25.0221 86.5345 25.2609 86.3519 25.5629C86.1763 25.8579 86.0885 26.188 86.0885 26.5532V32.4529H83.1808ZM104.813 37.7204H101.905V21.9178H104.813V23.0555C105.15 22.6412 105.55 22.304 106.014 22.0442C106.478 21.7773 107.018 21.6438 107.636 21.6438C108.402 21.6438 109.118 21.7878 109.786 22.0758C110.46 22.3637 111.05 22.7641 111.556 23.2768C112.061 23.7825 112.458 24.3689 112.746 25.0361C113.034 25.7034 113.178 26.4198 113.178 27.1853C113.178 27.9509 113.034 28.6708 112.746 29.345C112.458 30.0193 112.061 30.6127 111.556 31.1255C111.05 31.6311 110.46 32.028 109.786 32.3159C109.118 32.6039 108.402 32.7479 107.636 32.7479C107.018 32.7479 106.478 32.6144 106.014 32.3475C105.55 32.0806 105.15 31.7435 104.813 31.3362V37.7204ZM107.594 24.4356C107.117 24.4356 106.685 24.5621 106.298 24.8149C105.919 25.0607 105.617 25.3908 105.392 25.8052C105.175 26.2196 105.066 26.6796 105.066 27.1853C105.066 27.691 105.175 28.1545 105.392 28.576C105.617 28.9903 105.919 29.3204 106.298 29.5663C106.685 29.8121 107.117 29.935 107.594 29.935C108.072 29.935 108.507 29.8121 108.901 29.5663C109.301 29.3204 109.617 28.9903 109.849 28.576C110.088 28.1616 110.207 27.698 110.207 27.1853C110.207 26.6867 110.091 26.2301 109.859 25.8157C109.628 25.3943 109.312 25.0607 108.911 24.8149C108.518 24.5621 108.079 24.4356 107.594 24.4356ZM114.601 32.4529V16.6502H117.509V32.4529H114.601ZM124.463 32.7268C123.494 32.7268 122.609 32.4775 121.808 31.9788C121.014 31.4801 120.379 30.8094 119.901 29.9666C119.431 29.1238 119.195 28.1932 119.195 27.1748C119.195 26.4092 119.332 25.6928 119.606 25.0256C119.88 24.3514 120.256 23.7614 120.733 23.2557C121.218 22.743 121.78 22.3427 122.419 22.0547C123.058 21.7667 123.739 21.6228 124.463 21.6228C125.299 21.6228 126.061 21.8019 126.749 22.1601C127.444 22.5183 128.031 23.0064 128.508 23.6244C128.993 24.2425 129.337 24.9413 129.541 25.7209C129.752 26.5005 129.787 27.3117 129.646 28.1545H122.335C122.426 28.4636 122.567 28.7445 122.756 28.9974C122.953 29.2432 123.192 29.4398 123.473 29.5873C123.761 29.7348 124.091 29.8121 124.463 29.8191C124.828 29.8261 125.165 29.7418 125.474 29.5663C125.783 29.3907 126.047 29.1554 126.264 28.8604L129.235 29.5452C128.807 30.4793 128.168 31.2449 127.318 31.8418C126.468 32.4318 125.516 32.7268 124.463 32.7268ZM122.229 26.0054H126.707C126.616 25.6542 126.461 25.3382 126.243 25.0572C126.026 24.7763 125.762 24.555 125.453 24.3935C125.151 24.232 124.821 24.1512 124.463 24.1512C124.112 24.1512 123.782 24.232 123.473 24.3935C123.171 24.555 122.911 24.7763 122.693 25.0572C122.482 25.3311 122.328 25.6472 122.229 26.0054Z" fill="#1E1E1E"/>
<path d="M38.5622 21.7916H36.9805V24.9235H38.5157C38.5157 25.9084 38.5197 26.944 38.5197 28.6884C38.5197 30.6922 38.9268 31.3281 39.5907 31.968C40.3333 32.6839 41.7713 32.7384 42.1727 32.7384C42.6636 32.7384 43.0509 32.6378 43.5811 32.389C43.8562 32.2599 44.2676 31.966 44.459 31.7759L43.4672 29.2572C42.9807 29.7481 42.6495 29.8049 42.1799 29.7034C41.7102 29.6018 41.3953 29.0701 41.3944 28.5916V24.9235H43.7199V21.7916H41.3944V16.6631H38.5622V21.7916Z" fill="#1E1E1E"/>
<path d="M131.323 17.0335V17.387H130.703V19.0615H130.349V17.387H129.729V17.0335H131.323ZM131.468 19.0615L131.862 17.0335H132.154L132.648 18.3329L133.142 17.0335H133.435L133.829 19.0615H133.468L133.225 17.8071L132.769 19.0152H132.527L132.07 17.8071L131.828 19.0615H131.468Z" fill="white"/>
</svg>
