<svg width="340" height="554" viewBox="0 0 340 554" fill="none" xmlns="http://www.w3.org/2000/svg">
<mask id="mask0_1_1717" style="mask-type:alpha" maskUnits="userSpaceOnUse" x="0" y="0" width="340" height="554">
<path d="M0 0H340V359.69C340 467.004 253.004 554 145.69 554H0V0Z" fill="white"/>
</mask>
<g mask="url(#mask0_1_1717)">
<g opacity="0.4">
<mask id="mask1_1_1717" style="mask-type:alpha" maskUnits="userSpaceOnUse" x="-240" y="0" width="1136" height="554">
<path d="M-239.781 0H895.991V404C895.991 486.843 828.834 554 745.991 554H-239.781V0Z" fill="#ECECEC"/>
</mask>
<g mask="url(#mask1_1_1717)">
<g opacity="0.4">
<line x1="25.6069" y1="-10.7754" x2="25.6069" y2="564.767" stroke="#242424" stroke-width="0.432605"/>
<line x1="59.0757" y1="-10.7754" x2="59.0757" y2="564.767" stroke="#242424" stroke-width="0.432605"/>
<line x1="92.5483" y1="-10.7754" x2="92.5483" y2="564.767" stroke="#242424" stroke-width="0.432605"/>
<line x1="126.019" y1="-10.7754" x2="126.019" y2="564.767" stroke="#242424" stroke-width="0.432605"/>
<line x1="126.019" y1="-10.7754" x2="126.019" y2="564.767" stroke="#242424" stroke-width="0.432605"/>
<line x1="159.519" y1="-10.7754" x2="159.519" y2="564.767" stroke="#242424" stroke-width="0.432605"/>
<line x1="193.019" y1="-10.7754" x2="193.019" y2="564.767" stroke="#242424" stroke-width="0.432605"/>
<line x1="226.521" y1="-10.7754" x2="226.521" y2="564.767" stroke="#242424" stroke-width="0.432605"/>
<line x1="260.019" y1="-10.7754" x2="260.019" y2="564.767" stroke="#242424" stroke-width="0.432605"/>
<line x1="293.521" y1="-10.7754" x2="293.521" y2="564.767" stroke="#242424" stroke-width="0.432605"/>
<line x1="327.021" y1="-10.7754" x2="327.021" y2="564.767" stroke="#242424" stroke-width="0.432605"/>
<line x1="326.805" y1="23.2104" x2="-242.381" y2="23.2104" stroke="#242424" stroke-width="0.432605"/>
<line x1="326.805" y1="56.981" x2="-242.381" y2="56.9809" stroke="#242424" stroke-width="0.432605"/>
<line x1="326.805" y1="90.7524" x2="-242.381" y2="90.7524" stroke="#242424" stroke-width="0.432605"/>
<line x1="326.805" y1="124.521" x2="-242.381" y2="124.521" stroke="#242424" stroke-width="0.432605"/>
<line x1="326.805" y1="158.292" x2="-242.381" y2="158.292" stroke="#242424" stroke-width="0.432605"/>
<line x1="326.805" y1="192.062" x2="-242.381" y2="192.062" stroke="#242424" stroke-width="0.432605"/>
<line x1="326.805" y1="225.833" x2="-242.381" y2="225.832" stroke="#242424" stroke-width="0.432605"/>
<line x1="326.805" y1="259.602" x2="-242.381" y2="259.602" stroke="#242424" stroke-width="0.432605"/>
<line x1="326.805" y1="293.373" x2="-242.381" y2="293.373" stroke="#242424" stroke-width="0.432605"/>
<line x1="326.805" y1="327.144" x2="-242.381" y2="327.144" stroke="#242424" stroke-width="0.432605"/>
<line x1="326.805" y1="360.914" x2="-242.381" y2="360.914" stroke="#242424" stroke-width="0.432605"/>
<line x1="326.805" y1="394.923" x2="-242.381" y2="394.923" stroke="#242424" stroke-width="0.432605"/>
<line x1="326.805" y1="428.939" x2="-242.381" y2="428.939" stroke="#242424" stroke-width="0.432605"/>
<line x1="326.805" y1="462.947" x2="-242.381" y2="462.947" stroke="#242424" stroke-width="0.432605"/>
<line x1="326.805" y1="496.962" x2="-242.381" y2="496.962" stroke="#242424" stroke-width="0.432605"/>
<line x1="326.805" y1="530.974" x2="-242.381" y2="530.974" stroke="#242424" stroke-width="0.432605"/>
</g>
<g opacity="0.4">
<line x1="327.021" y1="-10.7754" x2="327.021" y2="564.767" stroke="#242424" stroke-width="0.432605"/>
<line x1="895.99" y1="23.2104" x2="326.805" y2="23.2104" stroke="#242424" stroke-width="0.432605"/>
<line x1="895.99" y1="56.981" x2="326.805" y2="56.9809" stroke="#242424" stroke-width="0.432605"/>
<line x1="895.99" y1="90.7524" x2="326.805" y2="90.7524" stroke="#242424" stroke-width="0.432605"/>
<line x1="895.99" y1="124.523" x2="326.805" y2="124.523" stroke="#242424" stroke-width="0.432605"/>
<line x1="895.99" y1="158.292" x2="326.805" y2="158.292" stroke="#242424" stroke-width="0.432605"/>
<line x1="895.99" y1="192.062" x2="326.805" y2="192.062" stroke="#242424" stroke-width="0.432605"/>
<line x1="895.99" y1="225.833" x2="326.805" y2="225.832" stroke="#242424" stroke-width="0.432605"/>
<line x1="895.99" y1="259.604" x2="326.805" y2="259.604" stroke="#242424" stroke-width="0.432605"/>
<line x1="895.99" y1="293.375" x2="326.805" y2="293.374" stroke="#242424" stroke-width="0.432605"/>
<line x1="895.99" y1="327.144" x2="326.805" y2="327.144" stroke="#242424" stroke-width="0.432605"/>
<line x1="895.99" y1="360.916" x2="326.805" y2="360.915" stroke="#242424" stroke-width="0.432605"/>
<line x1="895.99" y1="394.925" x2="326.805" y2="394.925" stroke="#242424" stroke-width="0.432605"/>
<line x1="895.99" y1="428.939" x2="326.805" y2="428.939" stroke="#242424" stroke-width="0.432605"/>
<line x1="895.99" y1="462.951" x2="326.805" y2="462.951" stroke="#242424" stroke-width="0.432605"/>
<line x1="895.99" y1="496.962" x2="326.805" y2="496.962" stroke="#242424" stroke-width="0.432605"/>
<line x1="895.99" y1="530.974" x2="326.805" y2="530.974" stroke="#242424" stroke-width="0.432605"/>
</g>
</g>
</g>
</g>
</svg>
