<svg width="342" height="413" viewBox="0 0 342 413" fill="none" xmlns="http://www.w3.org/2000/svg">
<g opacity="0.4">
<mask id="mask0_1_33" style="mask-type:alpha" maskUnits="userSpaceOnUse" x="0" y="0" width="476" height="415">
<path d="M-6.10352e-05 0.00585938H475.782V264.346C475.782 347.189 408.625 414.346 325.782 414.346H-6.10352e-05V0.00585938Z" fill="#ECECEC"/>
</mask>
<g mask="url(#mask0_1_33)">
<g opacity="0.4">
<line x1="4.80859" y1="-7.99609" x2="4.80859" y2="419.158" stroke="#242424" stroke-width="0.5"/>
<line x1="23.6445" y1="-7.99609" x2="23.6445" y2="419.158" stroke="#242424" stroke-width="0.5"/>
<line x1="42.4844" y1="-7.99609" x2="42.4844" y2="419.158" stroke="#242424" stroke-width="0.5"/>
<line x1="42.4844" y1="-7.99609" x2="42.4844" y2="419.158" stroke="#242424" stroke-width="0.5"/>
<line x1="61.3379" y1="-7.99609" x2="61.3379" y2="419.158" stroke="#242424" stroke-width="0.5"/>
<line x1="80.1914" y1="-7.99609" x2="80.1914" y2="419.158" stroke="#242424" stroke-width="0.5"/>
<line x1="99.0449" y1="-7.99609" x2="99.0449" y2="419.158" stroke="#242424" stroke-width="0.5"/>
<line x1="117.896" y1="-7.99609" x2="117.896" y2="419.158" stroke="#242424" stroke-width="0.5"/>
<line x1="136.752" y1="-7.99609" x2="136.752" y2="419.158" stroke="#242424" stroke-width="0.5"/>
<line x1="155.604" y1="-7.99609" x2="155.604" y2="419.158" stroke="#242424" stroke-width="0.5"/>
<line x1="155.354" y1="17.3154" x2="-164.979" y2="17.3154" stroke="#242424" stroke-width="0.5"/>
<line x1="155.354" y1="42.3809" x2="-164.979" y2="42.3808" stroke="#242424" stroke-width="0.5"/>
<line x1="155.353" y1="67.4453" x2="-164.979" y2="67.4453" stroke="#242424" stroke-width="0.5"/>
<line x1="155.354" y1="92.5078" x2="-164.979" y2="92.5078" stroke="#242424" stroke-width="0.5"/>
<line x1="155.354" y1="117.569" x2="-164.979" y2="117.569" stroke="#242424" stroke-width="0.5"/>
<line x1="155.354" y1="142.635" x2="-164.979" y2="142.635" stroke="#242424" stroke-width="0.5"/>
<line x1="155.354" y1="167.696" x2="-164.979" y2="167.696" stroke="#242424" stroke-width="0.5"/>
<line x1="155.354" y1="192.762" x2="-164.979" y2="192.762" stroke="#242424" stroke-width="0.5"/>
<line x1="155.354" y1="217.823" x2="-164.979" y2="217.823" stroke="#242424" stroke-width="0.5"/>
<line x1="155.354" y1="242.889" x2="-164.979" y2="242.889" stroke="#242424" stroke-width="0.5"/>
<line x1="155.354" y1="267.953" x2="-164.979" y2="267.953" stroke="#242424" stroke-width="0.5"/>
<line x1="155.354" y1="293.193" x2="-164.979" y2="293.193" stroke="#242424" stroke-width="0.5"/>
<line x1="155.354" y1="318.44" x2="-164.979" y2="318.44" stroke="#242424" stroke-width="0.5"/>
<line x1="155.353" y1="343.681" x2="-164.979" y2="343.681" stroke="#242424" stroke-width="0.5"/>
<line x1="155.353" y1="368.922" x2="-164.979" y2="368.922" stroke="#242424" stroke-width="0.5"/>
<line x1="155.353" y1="394.169" x2="-164.979" y2="394.169" stroke="#242424" stroke-width="0.5"/>
</g>
<g opacity="0.4">
<line x1="155.605" y1="-7.99609" x2="155.605" y2="419.158" stroke="#242424" stroke-width="0.5"/>
<line x1="174.443" y1="-7.99609" x2="174.443" y2="419.158" stroke="#242424" stroke-width="0.5"/>
<line x1="193.281" y1="-7.99609" x2="193.281" y2="419.158" stroke="#242424" stroke-width="0.5"/>
<line x1="212.119" y1="-7.99609" x2="212.119" y2="419.158" stroke="#242424" stroke-width="0.5"/>
<line x1="230.955" y1="-7.99609" x2="230.955" y2="419.158" stroke="#242424" stroke-width="0.5"/>
<line x1="249.793" y1="-7.99609" x2="249.793" y2="419.158" stroke="#242424" stroke-width="0.5"/>
<line x1="268.629" y1="-7.99609" x2="268.629" y2="419.158" stroke="#242424" stroke-width="0.5"/>
<line x1="287.467" y1="-7.99609" x2="287.467" y2="419.158" stroke="#242424" stroke-width="0.5"/>
<line x1="306.305" y1="-7.99609" x2="306.305" y2="419.158" stroke="#242424" stroke-width="0.5"/>
<line x1="325.143" y1="-7.99609" x2="325.143" y2="419.158" stroke="#242424" stroke-width="0.5"/>
<line x1="475.689" y1="17.3184" x2="155.357" y2="17.3183" stroke="#242424" stroke-width="0.5"/>
<line x1="475.689" y1="42.3809" x2="155.357" y2="42.3808" stroke="#242424" stroke-width="0.5"/>
<line x1="475.689" y1="67.4453" x2="155.357" y2="67.4453" stroke="#242424" stroke-width="0.5"/>
<line x1="475.689" y1="92.5078" x2="155.357" y2="92.5078" stroke="#242424" stroke-width="0.5"/>
<line x1="475.689" y1="117.572" x2="155.357" y2="117.572" stroke="#242424" stroke-width="0.5"/>
<line x1="475.689" y1="142.635" x2="155.357" y2="142.635" stroke="#242424" stroke-width="0.5"/>
<line x1="475.689" y1="167.696" x2="155.357" y2="167.696" stroke="#242424" stroke-width="0.5"/>
<line x1="475.689" y1="192.762" x2="155.357" y2="192.762" stroke="#242424" stroke-width="0.5"/>
<line x1="475.689" y1="217.826" x2="155.357" y2="217.826" stroke="#242424" stroke-width="0.5"/>
<line x1="475.689" y1="242.891" x2="155.357" y2="242.891" stroke="#242424" stroke-width="0.5"/>
<line x1="475.689" y1="267.953" x2="155.357" y2="267.953" stroke="#242424" stroke-width="0.5"/>
<line x1="475.689" y1="293.193" x2="155.357" y2="293.193" stroke="#242424" stroke-width="0.5"/>
<line x1="475.689" y1="318.44" x2="155.357" y2="318.44" stroke="#242424" stroke-width="0.5"/>
<line x1="475.689" y1="343.681" x2="155.357" y2="343.681" stroke="#242424" stroke-width="0.5"/>
<line x1="475.689" y1="368.926" x2="155.357" y2="368.926" stroke="#242424" stroke-width="0.5"/>
<line x1="475.689" y1="394.169" x2="155.357" y2="394.169" stroke="#242424" stroke-width="0.5"/>
</g>
</g>
</g>
</svg>
