<svg width="29" height="19" viewBox="0 0 29 19" fill="none" xmlns="http://www.w3.org/2000/svg">
<path fill-rule="evenodd" clip-rule="evenodd" d="M17.7687 0.335737C18.9753 0.521375 21.8527 0.707013 23.1522 0.799832C24.5445 0.892651 25.844 0.242918 27.0506 0.799832C27.4219 0.98547 27.6075 1.17111 27.7003 1.6352C28.0716 2.74903 28.1644 5.62642 28.1644 6.92589C28.1644 7.9469 28.0716 8.87509 28.0716 9.80328C28.0716 10.8243 28.1644 11.7525 28.1644 12.6807C28.1644 14.3514 28.3501 16.6719 27.6075 17.9714C27.2362 18.7139 26.4009 18.7139 25.3799 18.7139C22.5025 18.7139 19.6251 18.7139 16.6549 18.7139C15.7267 18.7139 14.7057 18.7139 13.7775 18.7139C12.8493 18.6211 12.0139 18.4355 10.9929 18.4355C8.76525 18.5283 5.70222 17.9714 5.23812 15.5581C4.95967 13.7017 4.68121 9.43201 4.68121 7.57562C4.68121 7.11153 4.68121 6.55461 4.58839 6.09052C4.49557 4.97669 4.86685 5.71924 3.38174 4.41978C2.54637 3.77004 1.43254 3.12031 0.782808 2.65621C0.133074 2.0993 0.133074 1.17111 1.06126 0.892651C2.17509 0.614194 10.7144 0.799832 12.3852 0.707013C13.7775 0.707013 16.4692 0.150099 17.7687 0.335737ZM26.1224 2.47058C26.7721 6.09052 26.2152 9.71046 26.4937 13.4232C26.5865 14.7227 26.4009 15.7437 26.2152 16.9503C24.1732 16.9503 14.4272 17.0432 12.478 16.8575C10.9001 16.6719 9.69344 16.9503 8.20833 16.3934C7.65142 16.2078 7.0945 15.9293 7.00168 15.3724C6.72323 14.6299 6.35195 9.52482 6.35195 8.96791C6.25913 7.76126 6.53759 5.5336 6.07349 4.60541C5.88786 4.14132 5.23812 3.77004 4.86685 3.49159C4.40275 3.21313 4.03148 2.74903 3.56738 2.47058C4.49557 2.28494 8.20833 2.47058 9.32216 2.47058C12.0139 2.65621 15.8195 1.91366 17.8615 2.0993C18.8825 2.0993 19.8107 2.28494 20.7389 2.28494C22.1312 2.37776 23.5235 2.56339 24.9158 2.65621C25.3799 2.65621 25.844 2.74903 26.1224 2.47058Z" fill="#242424"/>
</svg>
