<svg width="86" height="84" viewBox="0 0 86 84" fill="none" xmlns="http://www.w3.org/2000/svg">
<path d="M44.6621 41.4956H85.9992V20.0013C85.9992 8.95561 77.0449 0.00130463 65.9992 0.00130463H44.6621V41.4956Z" fill="#FF4167"/>
<path d="M65.3308 70.6418H50.8125V84.0009H65.3308V70.6418Z" fill="white"/>
<path d="M56.8632 24.4931V29.3509H59.2829V24.4931C59.2829 20.95 57.8807 17.5521 55.3849 15.0468C52.8891 12.5415 49.5041 11.134 45.9745 11.134C42.4449 11.134 39.0598 12.5415 36.564 15.0468C34.0682 17.5521 32.6661 20.95 32.6661 24.4931V71.8569C32.6661 74.4336 31.6463 76.9048 29.8312 78.7269C28.0161 80.5489 25.5542 81.5725 22.9872 81.5725C20.4202 81.5725 17.9584 80.5489 16.1432 78.7269C14.3281 76.9048 13.3084 74.4336 13.3084 71.8569V66.999H10.8887V71.8569C10.8887 75.0778 12.1633 78.1668 14.4323 80.4444C16.7012 82.7219 19.7785 84.0014 22.9872 84.0014C26.196 84.0014 29.2733 82.7219 31.5422 80.4444C33.8111 78.1668 35.0858 75.0778 35.0858 71.8569V24.4931C35.0858 21.5942 36.233 18.8141 38.275 16.7643C40.317 14.7145 43.0866 13.5629 45.9745 13.5629C48.8623 13.5629 51.6319 14.7145 53.6739 16.7643C55.716 18.8141 56.8632 21.5942 56.8632 24.4931Z" fill="white"/>
<path d="M16.9382 11.134H13.3086V41.4955H16.9382V11.134Z" fill="#FF4167"/>
<path d="M23.5236 43.9231H0.671875L6.72115 54.8532H17.4743L23.5236 43.9231Z" fill="#FF4167"/>
<path d="M24.1968 11.134H19.3574V41.4955H24.1968V11.134Z" fill="#FF4167"/>
<path d="M10.8893 11.134H7.25977V41.4955H10.8893V11.134Z" fill="#FF4167"/>
<path d="M16.1313 57.283H8.06641L12.0989 64.5697L16.1313 57.283Z" fill="#FF4167"/>
<path d="M4.83942 11.134H0V41.4955H4.83942V11.134Z" fill="#FF4167"/>
<path d="M59.283 31.7795V45.9298C59.7443 46.1971 60.1048 46.6098 60.3087 47.1038C60.5125 47.5978 60.5483 48.1455 60.4104 48.6619C60.2726 49.1784 59.9688 49.6348 59.5462 49.9603C59.1236 50.2858 58.6058 50.4622 58.0732 50.4622C57.5405 50.4622 57.0227 50.2858 56.6001 49.9603C56.1775 49.6348 55.8738 49.1784 55.7359 48.6619C55.598 48.1455 55.6338 47.5978 55.8376 47.1038C56.0415 46.6098 56.402 46.1971 56.8633 45.9298V31.7795C56.8373 31.8145 56.8053 31.8411 56.7817 31.879L45.9746 48.7819L52.0239 68.2132H64.1224L70.1717 49.2362L59.3646 31.879C59.341 31.8411 59.309 31.8145 59.283 31.7795Z" fill="white"/>
</svg>
