<svg width="39" height="39" viewBox="0 0 39 39" fill="none" xmlns="http://www.w3.org/2000/svg">
<g id="iconamoon:email-light">
<g id="Group">
<path id="Vector" d="M4.98242 8.21875V7.03125C4.66748 7.03125 4.36543 7.15636 4.14273 7.37906C3.92003 7.60176 3.79492 7.90381 3.79492 8.21875H4.98242ZM33.4824 8.21875H34.6699C34.6699 7.90381 34.5448 7.60176 34.3221 7.37906C34.0994 7.15636 33.7974 7.03125 33.4824 7.03125V8.21875ZM4.98242 9.40625H33.4824V7.03125H4.98242V9.40625ZM32.2949 8.21875V27.2187H34.6699V8.21875H32.2949ZM30.3158 29.1979H8.14909V31.5729H30.3158V29.1979ZM6.16992 27.2187V8.21875H3.79492V27.2187H6.16992ZM8.14909 29.1979C7.05659 29.1979 6.16992 28.3112 6.16992 27.2187H3.79492C3.79492 28.3735 4.25366 29.481 5.07023 30.2976C5.88679 31.1142 6.99429 31.5729 8.14909 31.5729V29.1979ZM32.2949 27.2187C32.2949 28.3112 31.4083 29.1979 30.3158 29.1979V31.5729C31.4706 31.5729 32.5781 31.1142 33.3946 30.2976C34.2112 29.481 34.6699 28.3735 34.6699 27.2187H32.2949Z" fill="#120404"/>
<path id="Vector_2" d="M4.98242 8.21875L19.2324 22.4688L33.4824 8.21875" stroke="#120404" stroke-width="1.5" stroke-linecap="round" stroke-linejoin="round"/>
</g>
</g>
</svg>
