<svg width="83" height="80" viewBox="0 0 83 80" fill="none" xmlns="http://www.w3.org/2000/svg">
<path d="M83 44C83 44.5523 82.5523 45 82 45L39 45C38.4478 45 38 44.5523 38 44L38 20C38 8.9543 46.9544 6.63485e-07 58.0001 1.62913e-06L82 3.72727e-06C82.5523 3.77556e-06 83 0.44772 83 1L83 44Z" fill="#F1909C"/>
<path d="M52.8125 41.4062C54.9666 41.4036 57.0316 40.5467 58.5548 39.0235C60.0779 37.5004 60.9348 35.4353 60.9375 33.2812V27.1875H54.8438C52.764 27.1906 50.7655 27.9952 49.2639 29.4341C48.2116 27.5247 46.6668 25.9324 44.7902 24.8228C42.9136 23.7132 40.7738 23.1269 38.5938 23.125H32.5V29.2188C32.5038 32.4499 33.789 35.5477 36.0738 37.8325C38.3586 40.1172 41.4563 41.4025 44.6875 41.4062H46.7188V67.8125H22.3438V57.6562H24.375C26.5291 57.6536 28.5941 56.7967 30.1173 55.2735C31.6404 53.7504 32.4973 51.6853 32.5 49.5312V43.4375H26.4062C24.3265 43.4406 22.328 44.2452 20.8264 45.6841C19.7741 43.7747 18.2293 42.1824 16.3527 41.0728C14.4761 39.9632 12.3363 39.3769 10.1562 39.375H4.0625V45.4688C4.06626 48.6999 5.35151 51.7977 7.63629 54.0825C9.92108 56.3672 13.0188 57.6525 16.25 57.6562H18.2812V67.8125H4.0625V71.875H60.9375V67.8125H50.7812V41.4062H52.8125ZM50.7812 35.3125C50.7823 34.2354 51.2107 33.2027 51.9723 32.4411C52.734 31.6794 53.7666 31.2511 54.8438 31.25H56.875V33.2812C56.8739 34.3584 56.4456 35.391 55.6839 36.1527C54.9223 36.9143 53.8896 37.3427 52.8125 37.3438H50.7812V35.3125ZM22.3438 51.5625C22.3448 50.4854 22.7732 49.4527 23.5348 48.6911C24.2964 47.9294 25.3291 47.5011 26.4062 47.5H28.4375V49.5312C28.4364 50.6084 28.0081 51.6411 27.2464 52.4027C26.4848 53.1643 25.4521 53.5927 24.375 53.5938H22.3438V51.5625ZM18.2812 53.5938H16.25C14.0959 53.5911 12.0309 52.7342 10.5077 51.211C8.98457 49.6879 8.12769 47.6228 8.125 45.4688V43.4375H10.1562C12.3103 43.4402 14.3754 44.2971 15.8985 45.8202C17.4217 47.3434 18.2786 49.4084 18.2812 51.5625V53.5938ZM46.7188 37.3438H44.6875C42.5334 37.3411 40.4684 36.4842 38.9452 34.961C37.4221 33.4379 36.5652 31.3728 36.5625 29.2188V27.1875H38.5938C40.7478 27.1902 42.8129 28.0471 44.336 29.5702C45.8592 31.0934 46.7161 33.1584 46.7188 35.3125V37.3438Z" fill="black"/>
</svg>
