<svg width="60" height="60" viewBox="0 0 60 60" fill="none" xmlns="http://www.w3.org/2000/svg">
<path d="M9.83256 0H18.0098V18H0.00976562V9.8228C0.00976562 4.4012 4.41097 0 9.83256 0Z" fill="#DC143C"/>
<path d="M29.187 0H21.0098V18H39.0098V9.8228C39.0098 4.4012 34.6086 0 29.187 0Z" fill="#FFD800"/>
<path d="M60.0098 8.17721L60.0098 0L42.0098 -2.14648e-07L42.0098 18L50.187 18C55.6086 18 60.0098 13.5988 60.0098 8.17721Z" fill="#263CFC"/>
<path d="M51.8326 39H60.0098V21H42.0098V29.1772C42.0098 34.5988 46.411 39 51.8326 39Z" fill="#A94CFF"/>
<path d="M21.0103 30.8228L21.0103 39L39.0103 39L39.0103 21L30.833 21C25.4115 21 21.0103 25.4012 21.0103 30.8228Z" fill="#CCCCCC"/>
<path d="M8.18697 21L0.00976562 21L0.00976405 39L18.0098 39L18.0098 30.8228C18.0098 25.4012 13.6086 21 8.18697 21Z" fill="#22DDB1"/>
<path d="M18.0098 50.1772L18.0098 42L0.00976484 42L0.00976562 60L8.18697 60C13.6086 60 18.0098 55.5988 18.0098 50.1772Z" fill="#FF9A3C"/>
<path d="M30.8326 60H39.0098V42H21.0098L21.0098 50.1772C21.0098 55.5988 25.411 60 30.8326 60Z" fill="#F1909C"/>
<path d="M42.0093 51.8228L42.0093 60L60.0093 60L60.0093 42L51.8321 42C46.4105 42 42.0093 46.4012 42.0093 51.8228Z" fill="#5A34F2"/>
</svg>
