<svg width="37" height="37" viewBox="0 0 37 37" fill="none" xmlns="http://www.w3.org/2000/svg">
<g id="Group 91">
<g id="Group 79">
<path id="Vector" d="M11.1642 0.379883H0.232422V11.3116H11.1642V0.379883Z" fill="white"/>
<path id="Vector_2" d="M6.19799 0.379883H11.1642V11.3116H0.232422V6.34545C0.232422 3.05282 2.90535 0.379883 6.19799 0.379883Z" fill="#DC143C"/>
</g>
<g id="Group 80">
<path id="Vector_3" d="M12.9861 0.379883H23.9178V11.3116H12.9861V0.379883Z" fill="white"/>
<path id="Vector_4" d="M17.9523 0.379883H12.9861V11.3116H23.9178V6.34545C23.9178 3.05282 21.2449 0.379883 17.9523 0.379883Z" fill="#FFD800"/>
</g>
<g id="Group 81">
<path id="Vector_5" d="M36.6719 0.37978L36.6719 11.3115L25.7401 11.3115L25.7401 0.37978L36.6719 0.37978Z" fill="white"/>
<path id="Vector_6" d="M36.6719 5.34595L36.6719 0.37978L25.7401 0.37978L25.7401 11.3115L30.7063 11.3115C33.9989 11.3115 36.6719 8.63859 36.6719 5.34595Z" fill="#263CFC"/>
</g>
<g id="Group 82">
<path id="Vector_7" d="M36.672 24.0654H25.7402V13.1337H36.672V24.0654Z" fill="white"/>
<path id="Vector_8" d="M31.7058 24.0654H36.672V13.1337H25.7402V18.0999C25.7402 21.3925 28.4132 24.0654 31.7058 24.0654Z" fill="#A94CFF"/>
</g>
<g id="Group 83">
<path id="Vector_9" d="M12.9861 24.0655L12.9861 13.1338L23.9179 13.1338L23.9179 24.0655L12.9861 24.0655Z" fill="white"/>
<path id="Vector_10" d="M12.9861 19.0994L12.9861 24.0655L23.9179 24.0655L23.9179 13.1338L18.9517 13.1338C15.6591 13.1338 12.9861 15.8067 12.9861 19.0994Z" fill="#CCCCCC"/>
</g>
<g id="Group 84">
<path id="Vector_11" d="M0.232441 13.1338L11.1642 13.1338L11.1642 24.0655L0.23244 24.0655L0.232441 13.1338Z" fill="white"/>
<path id="Vector_12" d="M5.19861 13.1338L0.232441 13.1338L0.23244 24.0655L11.1642 24.0655L11.1642 19.0994C11.1642 15.8067 8.49125 13.1338 5.19861 13.1338Z" fill="#22DDB1"/>
</g>
<g id="Group 85">
<path id="Vector_13" d="M11.1642 25.8876L11.1642 36.8193L0.232441 36.8193L0.23244 25.8876L11.1642 25.8876Z" fill="white"/>
<path id="Vector_14" d="M11.1642 30.8538L11.1642 25.8876L0.23244 25.8876L0.232441 36.8193L5.19861 36.8193C8.49125 36.8193 11.1642 34.1464 11.1642 30.8538Z" fill="#FF9A3C"/>
</g>
<g id="Group 89">
<path id="Vector_15" d="M23.9179 36.8193H12.9861L12.9861 25.8876H23.9179V36.8193Z" fill="white"/>
<path id="Vector_16" d="M18.9517 36.8193H23.9179V25.8876H12.9861V30.8538C12.9861 34.1464 15.6591 36.8193 18.9517 36.8193Z" fill="#F1909C"/>
</g>
<g id="Group 87">
<path id="Vector_17" d="M25.7402 36.8194L25.7402 25.8877L36.672 25.8877L36.672 36.8194L25.7402 36.8194Z" fill="white"/>
<path id="Vector_18" d="M25.7402 31.8533L25.7402 36.8194L36.672 36.8194L36.672 25.8877L31.7058 25.8877C28.4132 25.8877 25.7402 28.5606 25.7402 31.8533Z" fill="#5A34F2"/>
</g>
</g>
</svg>
