<svg width="254" height="70" viewBox="0 0 254 70" fill="none" xmlns="http://www.w3.org/2000/svg">
<path d="M9.83256 0H18.0098V18H0.00976562V9.8228C0.00976562 4.4012 4.41097 0 9.83256 0Z" fill="#DC143C"/>
<path d="M29.187 0H21.0098V18H39.0098V9.8228C39.0098 4.4012 34.6086 0 29.187 0Z" fill="#FFD800"/>
<path d="M60.0098 8.17721L60.0098 0L42.0098 -2.14648e-07L42.0098 18L50.187 18C55.6086 18 60.0098 13.5988 60.0098 8.17721Z" fill="#263CFC"/>
<path d="M51.8326 39H60.0098V21H42.0098V29.1772C42.0098 34.5988 46.411 39 51.8326 39Z" fill="#A94CFF"/>
<path d="M21.0103 30.8228L21.0103 39L39.0103 39L39.0103 21L30.833 21C25.4115 21 21.0103 25.4012 21.0103 30.8228Z" fill="#CCCCCC"/>
<path d="M8.18697 21L0.00976562 21L0.00976405 39L18.0098 39L18.0098 30.8228C18.0098 25.4012 13.6086 21 8.18697 21Z" fill="#22DDB1"/>
<path d="M18.0098 50.1772L18.0098 42L0.00976484 42L0.00976562 60L8.18697 60C13.6086 60 18.0098 55.5988 18.0098 50.1772Z" fill="#FF9A3C"/>
<path d="M30.8326 60H39.0098V42H21.0098L21.0098 50.1772C21.0098 55.5988 25.411 60 30.8326 60Z" fill="#F1909C"/>
<path d="M42.0093 51.8228L42.0093 60L60.0093 60L60.0093 42L51.8321 42C46.4105 42 42.0093 46.4012 42.0093 51.8228Z" fill="#5A34F2"/>
<path d="M104.209 47.28V60H98.6885V48.8C98.6885 48.0933 98.5152 47.46 98.1685 46.9C97.8352 46.3267 97.3818 45.8733 96.8085 45.54C96.2485 45.2067 95.6218 45.04 94.9285 45.04C94.2352 45.04 93.6018 45.2067 93.0285 45.54C92.4552 45.8733 92.0018 46.3267 91.6685 46.9C91.3352 47.46 91.1685 48.0933 91.1685 48.8V60H85.6485L85.6285 30H91.1485L91.1685 41.48C91.8352 40.84 92.6152 40.34 93.5085 39.98C94.4152 39.62 95.3685 39.44 96.3685 39.44C97.8218 39.44 99.1352 39.7933 100.309 40.5C101.495 41.2067 102.442 42.1533 103.149 43.34C103.855 44.5133 104.209 45.8267 104.209 47.28ZM116.616 60.52C114.776 60.52 113.096 60.0467 111.576 59.1C110.069 58.1533 108.863 56.88 107.956 55.28C107.063 53.68 106.616 51.9133 106.616 49.98C106.616 48.5267 106.876 47.1667 107.396 45.9C107.916 44.62 108.629 43.5 109.536 42.54C110.456 41.5667 111.523 40.8067 112.736 40.26C113.949 39.7133 115.243 39.44 116.616 39.44C118.203 39.44 119.649 39.78 120.956 40.46C122.276 41.14 123.389 42.0667 124.296 43.24C125.216 44.4133 125.869 45.74 126.256 47.22C126.656 48.7 126.723 50.24 126.456 51.84H112.576C112.749 52.4267 113.016 52.96 113.376 53.44C113.749 53.9067 114.203 54.28 114.736 54.56C115.283 54.84 115.909 54.9867 116.616 55C117.309 55.0133 117.949 54.8533 118.536 54.52C119.123 54.1867 119.623 53.74 120.036 53.18L125.676 54.48C124.863 56.2533 123.649 57.7067 122.036 58.84C120.423 59.96 118.616 60.52 116.616 60.52ZM112.376 47.76H120.876C120.703 47.0933 120.409 46.4933 119.996 45.96C119.583 45.4267 119.083 45.0067 118.496 44.7C117.923 44.3933 117.296 44.24 116.616 44.24C115.949 44.24 115.323 44.3933 114.736 44.7C114.163 45.0067 113.669 45.4267 113.256 45.96C112.856 46.48 112.563 47.08 112.376 47.76ZM135.628 60.36C134.602 60.28 133.615 60.0667 132.668 59.72C131.722 59.36 130.875 58.88 130.128 58.28C129.395 57.6667 128.822 56.9333 128.408 56.08L133.048 54.08C133.195 54.2933 133.415 54.5267 133.708 54.78C134.002 55.02 134.355 55.2333 134.768 55.42C135.195 55.6067 135.688 55.7 136.248 55.7C136.662 55.7 137.062 55.6533 137.448 55.56C137.835 55.4533 138.148 55.2867 138.388 55.06C138.628 54.82 138.748 54.5067 138.748 54.12C138.748 53.6933 138.595 53.3667 138.288 53.14C137.982 52.9133 137.608 52.7467 137.168 52.64C136.742 52.52 136.328 52.42 135.928 52.34C134.702 52.1267 133.542 51.7467 132.448 51.2C131.368 50.64 130.488 49.92 129.808 49.04C129.128 48.16 128.788 47.1067 128.788 45.88C128.788 44.5333 129.142 43.3733 129.848 42.4C130.555 41.4133 131.475 40.6533 132.608 40.12C133.742 39.5867 134.968 39.32 136.288 39.32C137.848 39.32 139.295 39.6467 140.628 40.3C141.962 40.9533 143.035 41.8733 143.848 43.06L139.488 45.64C139.315 45.3867 139.088 45.1467 138.808 44.92C138.542 44.68 138.228 44.48 137.868 44.32C137.522 44.1467 137.148 44.0467 136.748 44.02C136.228 43.98 135.755 44.0133 135.328 44.12C134.902 44.2133 134.562 44.3933 134.308 44.66C134.068 44.9267 133.948 45.2867 133.948 45.74C133.948 46.18 134.142 46.5067 134.528 46.72C134.915 46.92 135.362 47.0733 135.868 47.18C136.375 47.2733 136.822 47.3867 137.208 47.52C138.368 47.8933 139.455 48.3733 140.468 48.96C141.495 49.5333 142.322 50.24 142.948 51.08C143.575 51.92 143.868 52.9067 143.828 54.04C143.828 55.36 143.435 56.52 142.648 57.52C141.862 58.5067 140.842 59.26 139.588 59.78C138.348 60.2867 137.028 60.48 135.628 60.36ZM146.683 40H152.203V60H146.683V40ZM149.483 37.7C148.683 37.7 148.01 37.4333 147.463 36.9C146.917 36.3667 146.643 35.7067 146.643 34.92C146.643 34.1333 146.917 33.4733 147.463 32.94C148.01 32.4067 148.677 32.14 149.463 32.14C150.25 32.14 150.91 32.4067 151.443 32.94C151.99 33.4733 152.263 34.1333 152.263 34.92C152.263 35.7067 151.997 36.3667 151.463 36.9C150.943 37.4333 150.283 37.7 149.483 37.7ZM156.8 60V40H162.32V41.48C163 40.84 163.787 40.34 164.68 39.98C165.574 39.62 166.52 39.44 167.52 39.44C168.88 39.44 170.127 39.7533 171.26 40.38C172.407 41.0067 173.327 41.84 174.02 42.88C174.727 41.84 175.647 41.0067 176.78 40.38C177.914 39.7533 179.154 39.44 180.5 39.44C181.954 39.44 183.267 39.7933 184.44 40.5C185.627 41.2067 186.574 42.1533 187.28 43.34C187.987 44.5133 188.34 45.8267 188.34 47.28V60H182.82V48.8C182.82 48.1067 182.647 47.48 182.3 46.92C181.967 46.3467 181.52 45.8933 180.96 45.56C180.4 45.2133 179.774 45.04 179.08 45.04C178.387 45.04 177.754 45.2067 177.18 45.54C176.62 45.8733 176.167 46.3267 175.82 46.9C175.487 47.46 175.32 48.0933 175.32 48.8V60H169.8V48.8C169.8 48.0933 169.634 47.46 169.3 46.9C168.967 46.3267 168.514 45.8733 167.94 45.54C167.38 45.2067 166.754 45.04 166.06 45.04C165.38 45.04 164.754 45.2133 164.18 45.56C163.62 45.8933 163.167 46.3467 162.82 46.92C162.487 47.48 162.32 48.1067 162.32 48.8V60H156.8ZM197.867 70H192.347V40H197.867V42.16C198.507 41.3733 199.267 40.7333 200.147 40.24C201.027 39.7333 202.054 39.48 203.227 39.48C204.681 39.48 206.041 39.7533 207.307 40.3C208.587 40.8467 209.707 41.6067 210.667 42.58C211.627 43.54 212.381 44.6533 212.927 45.92C213.474 47.1867 213.747 48.5467 213.747 50C213.747 51.4533 213.474 52.82 212.927 54.1C212.381 55.38 211.627 56.5067 210.667 57.48C209.707 58.44 208.587 59.1933 207.307 59.74C206.041 60.2867 204.681 60.56 203.227 60.56C202.054 60.56 201.027 60.3067 200.147 59.8C199.267 59.2933 198.507 58.6533 197.867 57.88V70ZM203.147 44.78C202.241 44.78 201.421 45.02 200.687 45.5C199.967 45.9667 199.394 46.5933 198.967 47.38C198.554 48.1667 198.347 49.04 198.347 50C198.347 50.96 198.554 51.84 198.967 52.64C199.394 53.4267 199.967 54.0533 200.687 54.52C201.421 54.9867 202.241 55.22 203.147 55.22C204.054 55.22 204.881 54.9867 205.627 54.52C206.387 54.0533 206.987 53.4267 207.427 52.64C207.881 51.8533 208.107 50.9733 208.107 50C208.107 49.0533 207.887 48.1867 207.447 47.4C207.007 46.6 206.407 45.9667 205.647 45.5C204.901 45.02 204.067 44.78 203.147 44.78ZM216.449 60V30H221.969V60H216.449ZM235.171 60.52C233.331 60.52 231.651 60.0467 230.131 59.1C228.624 58.1533 227.417 56.88 226.511 55.28C225.617 53.68 225.171 51.9133 225.171 49.98C225.171 48.5267 225.431 47.1667 225.951 45.9C226.471 44.62 227.184 43.5 228.091 42.54C229.011 41.5667 230.077 40.8067 231.291 40.26C232.504 39.7133 233.797 39.44 235.171 39.44C236.757 39.44 238.204 39.78 239.511 40.46C240.831 41.14 241.944 42.0667 242.851 43.24C243.771 44.4133 244.424 45.74 244.811 47.22C245.211 48.7 245.277 50.24 245.011 51.84H231.131C231.304 52.4267 231.571 52.96 231.931 53.44C232.304 53.9067 232.757 54.28 233.291 54.56C233.837 54.84 234.464 54.9867 235.171 55C235.864 55.0133 236.504 54.8533 237.091 54.52C237.677 54.1867 238.177 53.74 238.591 53.18L244.231 54.48C243.417 56.2533 242.204 57.7067 240.591 58.84C238.977 59.96 237.171 60.52 235.171 60.52ZM230.931 47.76H239.431C239.257 47.0933 238.964 46.4933 238.551 45.96C238.137 45.4267 237.637 45.0067 237.051 44.7C236.477 44.3933 235.851 44.24 235.171 44.24C234.504 44.24 233.877 44.3933 233.291 44.7C232.717 45.0067 232.224 45.4267 231.811 45.96C231.411 46.48 231.117 47.08 230.931 47.76Z" fill="white"/>
<path d="M72.0976 39.7283H69.0947V45.6738H72.0092C72.0092 47.5436 72.0167 49.5096 72.0167 52.8211C72.0167 56.6252 72.7897 57.8324 74.05 59.0472C75.4598 60.4064 78.1896 60.5097 78.9517 60.5097C79.8836 60.5097 80.6189 60.3187 81.6254 59.8464C82.1477 59.6013 82.9287 59.0433 83.292 58.6825L81.4093 53.901C80.4856 54.8329 79.8569 54.9408 78.9653 54.748C78.0737 54.5553 77.4759 53.5457 77.4741 52.6374V45.6738H81.889V39.7283H77.4741V29.9922H72.0976V39.7283Z" fill="white"/>
<path d="M248.196 30.0007V30.6717H247.019V33.8507H246.348V30.6717H245.171V30.0007H248.196ZM248.471 33.8507L249.219 30.0007H249.775L250.712 32.4675L251.65 30.0007H252.206L252.954 33.8507H252.269L251.807 31.4692L250.941 33.7627H250.481L249.615 31.4692L249.156 33.8507H248.471Z" fill="white"/>
</svg>
