<svg width="156" height="43" viewBox="0 0 156 43" fill="none" xmlns="http://www.w3.org/2000/svg">
<path d="M6.03336 0.000511169H11.056V11.0565H0V6.03387C0 2.70382 2.7033 0.000511169 6.03336 0.000511169Z" fill="#DC143C"/>
<path d="M17.9217 0.000511169H12.8991V11.0565H23.9551V6.03387C23.9551 2.70382 21.2518 0.000511169 17.9217 0.000511169Z" fill="#FFD800"/>
<path d="M36.8535 5.02331L36.8535 0.000707626L25.7976 0.000707495L25.7976 11.0567L30.8202 11.0567C34.1502 11.0567 36.8535 8.35336 36.8535 5.02331Z" fill="#263CFC"/>
<path d="M31.8304 23.9554H36.853V12.8995H25.797V17.9221C25.797 21.2521 28.5003 23.9554 31.8304 23.9554Z" fill="#A94CFF"/>
<path d="M12.8984 18.9328L12.8984 23.9554L23.9544 23.9554L23.9544 12.8994L18.9318 12.8994C15.6017 12.8994 12.8984 15.6027 12.8984 18.9328Z" fill="#CCCCCC"/>
<path d="M5.02328 12.8994L0.000684738 12.8994L0.000683772 23.9554L11.0566 23.9554L11.0566 18.9328C11.0566 15.6027 8.35334 12.8994 5.02328 12.8994Z" fill="#22DDB1"/>
<path d="M11.0566 30.8202L11.0566 25.7976L0.000684255 25.7976L0.000684738 36.8535L5.02328 36.8535C8.35334 36.8535 11.0566 34.1502 11.0566 30.8202Z" fill="#FF9A3C"/>
<path d="M18.9318 36.8535H23.9544V25.7976H12.8984V30.8202C12.8984 34.1502 15.6017 36.8535 18.9318 36.8535Z" fill="#F1909C"/>
<path d="M25.797 31.8315L25.797 36.8541L36.853 36.8541L36.853 25.7981L31.8304 25.7981C28.5003 25.7981 25.797 28.5014 25.797 31.8315Z" fill="#5A34F2"/>
<path d="M64.0014 28.7003V36.5132H60.6109V29.6339C60.6109 29.1999 60.5045 28.8109 60.2915 28.4669C60.0868 28.1147 59.8083 27.8363 59.4562 27.6316C59.1122 27.4268 58.7273 27.3244 58.3015 27.3244C57.8756 27.3244 57.4866 27.4268 57.1344 27.6316C56.7823 27.8363 56.5038 28.1147 56.2991 28.4669C56.0944 28.8109 55.992 29.1999 55.992 29.6339V36.5132H52.6015L52.5892 18.0866H55.9797L55.992 25.1378C56.4015 24.7447 56.8806 24.4376 57.4293 24.2165C57.9862 23.9954 58.5717 23.8848 59.1859 23.8848C60.0786 23.8848 60.8853 24.1018 61.606 24.5359C62.3348 24.9699 62.9163 25.5514 63.3503 26.2803C63.7844 27.001 64.0014 27.8076 64.0014 28.7003ZM71.6223 36.8326C70.4922 36.8326 69.4603 36.5418 68.5267 35.9604C67.6013 35.3789 66.8601 34.5968 66.3032 33.6141C65.7545 32.6313 65.4801 31.5462 65.4801 30.3587C65.4801 29.466 65.6398 28.6307 65.9592 27.8527C66.2786 27.0665 66.7168 26.3785 67.2737 25.7889C67.8388 25.1911 68.4939 24.7243 69.2392 24.3885C69.9844 24.0527 70.7788 23.8848 71.6223 23.8848C72.5969 23.8848 73.4855 24.0937 74.2881 24.5113C75.0988 24.929 75.7827 25.4982 76.3396 26.2189C76.9046 26.9395 77.3059 27.7544 77.5434 28.6634C77.7891 29.5725 77.8301 30.5184 77.6663 31.5011H69.1409C69.2474 31.8615 69.4112 32.1891 69.6323 32.4839C69.8616 32.7705 70.14 32.9998 70.4676 33.1718C70.8034 33.3438 71.1883 33.4339 71.6223 33.4421C72.0482 33.4503 72.4413 33.352 72.8016 33.1473C73.162 32.9425 73.4691 32.6682 73.723 32.3242L77.1872 33.1227C76.6876 34.2119 75.9424 35.1046 74.9514 35.8007C73.9605 36.4886 72.8508 36.8326 71.6223 36.8326ZM69.0181 28.9951H74.2389C74.1325 28.5856 73.9523 28.2171 73.6984 27.8895C73.4445 27.5619 73.1374 27.304 72.7771 27.1156C72.4249 26.9273 72.04 26.8331 71.6223 26.8331C71.2129 26.8331 70.828 26.9273 70.4676 27.1156C70.1155 27.304 69.8124 27.5619 69.5586 27.8895C69.3129 28.2089 69.1327 28.5775 69.0181 28.9951ZM83.3 36.7343C82.6694 36.6852 82.0634 36.5541 81.4819 36.3412C80.9005 36.1201 80.3804 35.8252 79.9218 35.4567C79.4714 35.08 79.1192 34.6296 78.8653 34.1054L81.7153 32.877C81.8054 33.008 81.9405 33.1513 82.1207 33.3069C82.3009 33.4544 82.5179 33.5854 82.7718 33.7C83.0338 33.8147 83.3369 33.872 83.6808 33.872C83.9347 33.872 84.1804 33.8434 84.4179 33.786C84.6554 33.7205 84.8478 33.6182 84.9953 33.4789C85.1427 33.3315 85.2164 33.1391 85.2164 32.9016C85.2164 32.6395 85.1222 32.4389 84.9338 32.2996C84.7455 32.1604 84.5162 32.058 84.2459 31.9925C83.9838 31.9188 83.73 31.8574 83.4843 31.8083C82.7308 31.6772 82.0183 31.4438 81.3468 31.108C80.6834 30.7641 80.1429 30.3218 79.7252 29.7813C79.3076 29.2408 79.0987 28.5938 79.0987 27.8404C79.0987 27.0132 79.3158 26.3007 79.7498 25.7029C80.1839 25.0969 80.7489 24.6301 81.4451 24.3025C82.1412 23.9749 82.8946 23.8111 83.7054 23.8111C84.6636 23.8111 85.5521 24.0118 86.3711 24.413C87.1901 24.8143 87.8493 25.3794 88.3489 26.1083L85.6709 27.693C85.5644 27.5374 85.4252 27.39 85.2532 27.2507C85.0894 27.1033 84.897 26.9805 84.6759 26.8822C84.4629 26.7757 84.2336 26.7143 83.9879 26.6979C83.6685 26.6734 83.3778 26.6938 83.1157 26.7594C82.8537 26.8167 82.6448 26.9273 82.4892 27.091C82.3418 27.2548 82.2681 27.476 82.2681 27.7544C82.2681 28.0247 82.3869 28.2253 82.6244 28.3563C82.8619 28.4792 83.1362 28.5734 83.4474 28.6389C83.7586 28.6962 84.033 28.7658 84.2705 28.8477C84.983 29.077 85.6504 29.3718 86.2728 29.7322C86.9034 30.0843 87.4112 30.5184 87.7961 31.0343C88.181 31.5503 88.3612 32.1563 88.3366 32.8524C88.3366 33.6632 88.095 34.3757 87.6118 34.9899C87.1286 35.5959 86.5021 36.0587 85.7323 36.378C84.9707 36.6893 84.1599 36.808 83.3 36.7343ZM90.0902 24.2288H93.4807V36.5132H90.0902V24.2288ZM91.81 22.8161C91.3186 22.8161 90.9051 22.6523 90.5693 22.3247C90.2335 21.9971 90.0656 21.5917 90.0656 21.1085C90.0656 20.6254 90.2335 20.22 90.5693 19.8924C90.9051 19.5648 91.3146 19.401 91.7977 19.401C92.2809 19.401 92.6863 19.5648 93.0139 19.8924C93.3497 20.22 93.5176 20.6254 93.5176 21.1085C93.5176 21.5917 93.3538 21.9971 93.0262 22.3247C92.7068 22.6523 92.3014 22.8161 91.81 22.8161ZM96.3044 36.5132V24.2288H99.6949V25.1378C100.113 24.7447 100.596 24.4376 101.144 24.2165C101.693 23.9954 102.275 23.8848 102.889 23.8848C103.724 23.8848 104.49 24.0773 105.186 24.4622C105.89 24.8471 106.455 25.3589 106.881 25.9977C107.315 25.3589 107.88 24.8471 108.576 24.4622C109.273 24.0773 110.034 23.8848 110.861 23.8848C111.754 23.8848 112.561 24.1018 113.281 24.5359C114.01 24.9699 114.592 25.5514 115.026 26.2803C115.46 27.001 115.677 27.8076 115.677 28.7003V36.5132H112.286V29.6339C112.286 29.2081 112.18 28.8231 111.967 28.4792C111.762 28.127 111.488 27.8486 111.144 27.6438C110.8 27.4309 110.415 27.3244 109.989 27.3244C109.563 27.3244 109.174 27.4268 108.822 27.6316C108.478 27.8363 108.2 28.1147 107.987 28.4669C107.782 28.8109 107.68 29.1999 107.68 29.6339V36.5132H104.289V29.6339C104.289 29.1999 104.187 28.8109 103.982 28.4669C103.777 28.1147 103.499 27.8363 103.147 27.6316C102.803 27.4268 102.418 27.3244 101.992 27.3244C101.574 27.3244 101.189 27.4309 100.837 27.6438C100.493 27.8486 100.215 28.127 100.002 28.4792C99.7972 28.8231 99.6949 29.2081 99.6949 29.6339V36.5132H96.3044ZM121.528 42.6554H118.138V24.2288H121.528V25.5555C121.922 25.0723 122.388 24.6792 122.929 24.3762C123.469 24.065 124.1 23.9094 124.821 23.9094C125.713 23.9094 126.549 24.0773 127.327 24.413C128.113 24.7488 128.801 25.2156 129.39 25.8135C129.98 26.4031 130.443 27.0869 130.779 27.865C131.114 28.643 131.282 29.4783 131.282 30.371C131.282 31.2636 131.114 32.1031 130.779 32.8893C130.443 33.6755 129.98 34.3675 129.39 34.9653C128.801 35.555 128.113 36.0177 127.327 36.3535C126.549 36.6893 125.713 36.8571 124.821 36.8571C124.1 36.8571 123.469 36.7015 122.929 36.3903C122.388 36.0791 121.922 35.686 121.528 35.211V42.6554ZM124.772 27.1648C124.215 27.1648 123.711 27.3122 123.261 27.607C122.818 27.8936 122.466 28.2785 122.204 28.7617C121.95 29.2449 121.823 29.7813 121.823 30.371C121.823 30.9606 121.95 31.5011 122.204 31.9925C122.466 32.4757 122.818 32.8606 123.261 33.1473C123.711 33.4339 124.215 33.5772 124.772 33.5772C125.328 33.5772 125.836 33.4339 126.295 33.1473C126.762 32.8606 127.13 32.4757 127.4 31.9925C127.679 31.5093 127.818 30.9688 127.818 30.371C127.818 29.7895 127.683 29.2572 127.413 28.774C127.142 28.2826 126.774 27.8936 126.307 27.607C125.848 27.3122 125.337 27.1648 124.772 27.1648ZM132.942 36.5132V18.0866H136.332V36.5132H132.942ZM144.441 36.8326C143.311 36.8326 142.279 36.5418 141.345 35.9604C140.42 35.3789 139.679 34.5968 139.122 33.6141C138.573 32.6313 138.299 31.5462 138.299 30.3587C138.299 29.466 138.458 28.6307 138.778 27.8527C139.097 27.0665 139.535 26.3785 140.092 25.7889C140.657 25.1911 141.313 24.7243 142.058 24.3885C142.803 24.0527 143.597 23.8848 144.441 23.8848C145.416 23.8848 146.304 24.0937 147.107 24.5113C147.917 24.929 148.601 25.4982 149.158 26.2189C149.723 26.9395 150.125 27.7544 150.362 28.6634C150.608 29.5725 150.649 30.5184 150.485 31.5011H141.96C142.066 31.8615 142.23 32.1891 142.451 32.4839C142.68 32.7705 142.959 32.9998 143.286 33.1718C143.622 33.3438 144.007 33.4339 144.441 33.4421C144.867 33.4503 145.26 33.352 145.62 33.1473C145.981 32.9425 146.288 32.6682 146.542 32.3242L150.006 33.1227C149.506 34.2119 148.761 35.1046 147.77 35.8007C146.779 36.4886 145.669 36.8326 144.441 36.8326ZM141.837 28.9951H147.058C146.951 28.5856 146.771 28.2171 146.517 27.8895C146.263 27.5619 145.956 27.304 145.596 27.1156C145.244 26.9273 144.859 26.8331 144.441 26.8331C144.031 26.8331 143.647 26.9273 143.286 27.1156C142.934 27.304 142.631 27.5619 142.377 27.8895C142.132 28.2089 141.951 28.5775 141.837 28.9951Z" fill="white"/>
<path d="M44.2782 24.4025H42.4338V28.0544H44.2239C44.2239 29.2029 44.2285 30.4104 44.2285 32.4444C44.2285 34.7809 44.7033 35.5224 45.4774 36.2686C46.3433 37.1034 48.02 37.1669 48.4881 37.1669C49.0605 37.1669 49.5121 37.0496 50.1304 36.7595C50.4512 36.609 50.9309 36.2662 51.154 36.0446L49.9976 33.1077C49.4303 33.6801 49.0441 33.7463 48.4965 33.6279C47.9488 33.5096 47.5817 32.8895 47.5806 32.3316V28.0544H50.2923V24.4025H47.5806V18.4224H44.2782V24.4025Z" fill="white"/>
<path d="M152.44 18.3565V18.7686H151.717V20.7212H151.305V18.7686H150.582V18.3565H152.44ZM152.61 20.7212L153.069 18.3565H153.41L153.986 19.8716L154.562 18.3565H154.903L155.363 20.7212H154.942L154.658 19.2584L154.126 20.6672H153.844L153.312 19.2584L153.03 20.7212H152.61Z" fill="white"/>
</svg>
