<svg width="34" height="34" viewBox="0 0 34 34" fill="none" xmlns="http://www.w3.org/2000/svg">
<path id="Vector" d="M31.7062 26.0915C30.5276 24.904 27.6731 23.1709 26.2881 22.4725C24.4846 21.5641 24.3361 21.4898 22.9185 22.543C21.9729 23.2459 21.3443 23.8738 20.2377 23.6378C19.131 23.4018 16.7263 22.071 14.6207 19.972C12.515 17.8731 11.1071 15.3986 10.8703 14.2956C10.6335 13.1927 11.2718 12.5715 11.968 11.6237C12.9492 10.2877 12.875 10.0651 12.0363 8.26151C11.3824 6.85875 9.5989 4.03094 8.40691 2.85826C7.1318 1.59873 7.13181 1.8214 6.31018 2.16281C5.64129 2.44425 4.99957 2.78635 4.39307 3.18483C3.20554 3.97379 2.54646 4.62916 2.08555 5.61407C1.62464 6.59897 1.41756 8.90797 3.79782 13.2321C6.17807 17.5562 7.84803 19.7672 11.3045 23.214C14.7609 26.6608 17.4188 28.5141 21.3042 30.6932C26.1107 33.3852 27.9544 32.8604 28.9423 32.4003C29.9301 31.9401 30.5885 31.287 31.3789 30.0994C31.7784 29.494 32.1213 28.8529 32.4032 28.1845C32.7453 27.3659 32.968 27.3659 31.7062 26.0915Z" stroke="#120404" stroke-width="2" stroke-miterlimit="10"/>
</svg>
