<svg width="93" height="84" viewBox="0 0 93 84" fill="none" xmlns="http://www.w3.org/2000/svg">
<path d="M93 44C93 44.5523 92.5523 45 92 45L49 45C48.4478 45 48 44.5523 48 44L48 20C48 8.9543 56.9544 6.63485e-07 68.0001 1.62913e-06L92 3.72727e-06C92.5523 3.77556e-06 93 0.44772 93 1L93 44Z" fill="#E6C200"/>
<path d="M55.4138 19.2651C55.264 19.1284 55.0805 19.0402 54.885 19.0111C54.6895 18.982 54.4903 19.0132 54.311 19.1009C54.1317 19.1887 53.9798 19.3293 53.8733 19.5062C53.7668 19.6831 53.7102 19.8888 53.7102 20.0989V22.2966H45.4522C45.3166 22.2966 45.1823 22.3249 45.0571 22.3801C44.9318 22.4353 44.818 22.5163 44.7221 22.6183C44.6262 22.7204 44.5502 22.8415 44.4983 22.9749C44.4465 23.1082 44.4198 23.2512 44.4199 23.3955V29.9887C44.4198 30.133 44.4465 30.2759 44.4983 30.4093C44.5502 30.5426 44.6262 30.6638 44.7221 30.7659C44.818 30.8679 44.9318 30.9488 45.0571 31.004C45.1823 31.0592 45.3166 31.0876 45.4522 31.0875H53.7102V33.2852C53.7101 33.4954 53.7666 33.7012 53.873 33.8782C53.9795 34.0552 54.1315 34.1959 54.3108 34.2837C54.4902 34.3715 54.6895 34.4026 54.885 34.3734C55.0805 34.3443 55.264 34.256 55.4138 34.119L62.6396 27.5259C62.7527 27.4229 62.8436 27.295 62.9059 27.1511C62.9682 27.0072 63.0005 26.8506 63.0005 26.6921C63.0005 26.5336 62.9682 26.377 62.9059 26.2331C62.8436 26.0891 62.7527 25.9613 62.6396 25.8583L55.4138 19.2651ZM55.7747 30.8965V29.9887C55.7748 29.8443 55.7481 29.7014 55.6963 29.568C55.6444 29.4347 55.5684 29.3135 55.4725 29.2115C55.3767 29.1094 55.2628 29.0285 55.1376 28.9733C55.0123 28.9181 54.878 28.8897 54.7424 28.8898H46.4844V24.4944H54.7424C54.878 24.4944 55.0123 24.4661 55.1376 24.4109C55.2628 24.3557 55.3767 24.2748 55.4725 24.1727C55.5684 24.0706 55.6444 23.9495 55.6963 23.8161C55.7481 23.6828 55.7748 23.5398 55.7747 23.3955V22.4877L60.3825 26.6921L55.7747 30.8965Z" fill="black"/>
<path d="M7.58663 34.1186C7.73645 34.2554 7.91998 34.3435 8.11545 34.3727C8.31092 34.4018 8.51013 34.3706 8.68945 34.2828C8.86877 34.195 9.02069 34.0543 9.12718 33.8774C9.23367 33.7005 9.29026 33.4948 9.29025 33.2847V31.087H17.5483C17.6838 31.0871 17.8181 31.0587 17.9434 31.0035C18.0687 30.9484 18.1825 30.8674 18.2784 30.7654C18.3742 30.6633 18.4503 30.5421 18.5021 30.4088C18.554 30.2754 18.5806 30.1325 18.5805 29.9882V23.395C18.5806 23.2507 18.554 23.1078 18.5021 22.9744C18.4503 22.841 18.3742 22.7199 18.2784 22.6178C18.1825 22.5158 18.0687 22.4348 17.9434 22.3796C17.8181 22.3244 17.6838 22.2961 17.5483 22.2962H9.29025V20.0984C9.29025 19.8883 9.23364 19.6826 9.12715 19.5058C9.02066 19.3289 8.86874 19.1882 8.68942 19.1004C8.5101 19.0127 8.3109 18.9815 8.11543 19.0106C7.91997 19.0397 7.73645 19.1279 7.58663 19.2646L0.36087 25.8578C0.247704 25.9608 0.156845 26.0886 0.0945448 26.2326C0.0322449 26.3765 -1.52588e-05 26.5331 -1.52588e-05 26.6916C-1.52588e-05 26.8501 0.0322449 27.0067 0.0945448 27.1506C0.156845 27.2946 0.247704 27.4224 0.36087 27.5254L7.58663 34.1186ZM7.22575 22.4872V23.395C7.22567 23.5394 7.25232 23.6823 7.30416 23.8156C7.35601 23.949 7.43204 24.0702 7.52791 24.1722C7.62378 24.2743 7.73761 24.3552 7.86288 24.4104C7.98816 24.4656 8.12242 24.494 8.258 24.4939H16.516V28.8893H8.258C8.12242 28.8892 7.98816 28.9176 7.86288 28.9728C7.73761 29.028 7.62379 29.1089 7.52792 29.211C7.43205 29.313 7.35601 29.4342 7.30417 29.5676C7.25232 29.7009 7.22567 29.8438 7.22575 29.9882V30.896L2.61791 26.6916L7.22575 22.4872Z" fill="white"/>
<path d="M33.0317 23.5615H30.9672C30.4199 23.5623 29.8952 23.7941 29.5081 24.2061C29.1211 24.618 28.9034 25.1766 28.9027 25.7592V27.8989C27.9197 28.6583 27.1244 29.6602 26.5851 30.8186C26.0457 31.9771 25.7783 33.2575 25.8059 34.5501C25.8093 34.9177 25.8341 35.2847 25.8801 35.649H23.7414C23.1941 35.6497 22.6694 35.8815 22.2824 36.2935C21.8954 36.7055 21.6776 37.264 21.6769 37.8467V40.0444C21.6776 40.627 21.8954 41.1856 22.2824 41.5976C22.6694 42.0096 23.1941 42.2414 23.7414 42.2421H25.3958C25.6357 43.7011 25.7728 45.1772 25.8059 46.6579C25.8297 53.2966 23.9964 59.7926 20.5396 65.3182H19.6124C18.2441 65.3199 16.9322 65.8993 15.9646 66.9293C14.9971 67.9593 14.4528 69.3558 14.4512 70.8125V73.0102C14.4519 73.5928 14.6696 74.1514 15.0566 74.5634C15.4436 74.9753 15.9683 75.2071 16.5157 75.2079H47.4832C48.0305 75.2071 48.5552 74.9753 48.9423 74.5634C49.3293 74.1514 49.547 73.5928 49.5477 73.0102V70.8125C49.5461 69.3558 49.0018 67.9593 48.0343 66.9293C47.0667 65.8993 45.7548 65.3199 44.3865 65.3182H43.4592C40.0022 59.7919 38.1689 53.2952 38.193 46.6558C38.2262 45.1758 38.3632 43.7004 38.603 42.2421H40.2575C40.8048 42.2414 41.3295 42.0096 41.7165 41.5976C42.1035 41.1856 42.3213 40.627 42.322 40.0444V37.8467C42.3213 37.264 42.1035 36.7055 41.7165 36.2935C41.3295 35.8815 40.8048 35.6497 40.2575 35.649H38.1187C38.1648 35.2847 38.1896 34.9177 38.193 34.5501C38.2205 33.2575 37.9532 31.9771 37.4138 30.8186C36.8745 29.6602 36.0792 28.6583 35.0962 27.8989V25.7592C35.0955 25.1766 34.8777 24.618 34.4907 24.2061C34.1037 23.7941 33.579 23.5623 33.0317 23.5615ZM30.9672 25.7592H33.0317V26.9739C32.3512 26.8195 31.6477 26.8195 30.9672 26.9739V25.7592ZM44.3865 67.5159C45.2075 67.5168 45.9947 67.8645 46.5752 68.4825C47.1558 69.1005 47.4823 69.9384 47.4832 70.8125L47.4853 73.0102H16.5157V70.8125C16.5166 69.9384 16.8431 69.1005 17.4237 68.4825C18.0042 67.8645 18.7914 67.5168 19.6124 67.5159H44.3865ZM38.8949 60.9227C39.5179 62.4342 40.23 63.9023 41.0269 65.3182H22.972C23.7689 63.9023 24.481 62.4342 25.104 60.9227H38.8949ZM27.5099 42.2421H36.4891C36.2739 43.6898 36.1534 45.1517 36.1285 46.6172C36.069 50.7462 36.7277 54.8512 38.0716 58.725H25.9275C27.2711 54.8519 27.9299 50.7476 27.8704 46.6193C27.8456 45.1531 27.7251 43.6905 27.5099 42.2421ZM40.2575 37.8445V40.0444H23.7414V37.8467L40.2575 37.8445ZM36.1285 34.5501C36.1265 34.9185 36.0955 35.2861 36.0359 35.649H27.963C27.9034 35.2861 27.8724 34.9185 27.8704 34.5501C27.8704 31.5207 29.7222 29.0558 31.9994 29.0558C34.2766 29.0558 36.1285 31.5207 36.1285 34.5501Z" fill="white"/>
<path d="M48.5166 78.5049H7.22655V80.7026H48.5166V78.5049Z" fill="black"/>
<path d="M62.9664 81.8022H1.03123V84H62.9664V81.8022Z" fill="#FFD800"/>
<path d="M52.6446 78.5049H50.5801V80.7026H52.6446V78.5049Z" fill="#FFD800"/>
<path d="M56.7735 78.5049H54.709V80.7026H56.7735V78.5049Z" fill="black"/>
</svg>
