<svg width="141" height="121" viewBox="0 0 141 121" fill="none" xmlns="http://www.w3.org/2000/svg">
<g id="Group 103">
<g id="Vector 26">
<path d="M76.3217 115.845C52.852 118.18 51.7251 86.0045 54.0954 69.6251C59.3498 70.0217 64.7892 70.043 70.3126 69.5547C70.8915 69.5035 71.4713 69.4468 72.052 69.3842C75.9591 68.9635 79.8032 68.3856 83.5541 67.6865C90.9223 82.7665 99.7914 113.51 76.3217 115.845Z" fill="#FE7396"/>
<path d="M5.04688 54.6204C12.9993 59.5719 31.8946 67.9491 54.0954 69.6251M136.786 48.3741C128.738 53.3012 108.15 63.1018 83.5541 67.6865M54.0954 69.6251C51.7251 86.0045 52.852 118.18 76.3217 115.845C99.7914 113.51 90.9223 82.7665 83.5541 67.6865M54.0954 69.6251C59.3498 70.0217 64.7892 70.043 70.3126 69.5547M83.5541 67.6865C79.8032 68.3856 75.959 68.9635 72.052 69.3842C71.4713 69.4468 70.8915 69.5035 70.3126 69.5547M70.3126 69.5547L73.3721 92.5367" stroke="#1B1B1B" stroke-width="8.15985" stroke-linecap="round"/>
</g>
<circle id="Ellipse 14" cx="36.8463" cy="14.3034" r="14.1959" fill="#1B1B1B"/>
<circle id="Ellipse 15" cx="98.7409" cy="14.3034" r="14.1959" fill="#1B1B1B"/>
</g>
</svg>
