<svg width="246" height="128" viewBox="0 0 246 128" fill="none" xmlns="http://www.w3.org/2000/svg">
<g id="Group 101">
<path id="Vector 20" d="M99.4989 9.63754C78.6184 3.47484 26.9674 1.39821 1.48633 1.21582V17.8545C15.7132 17.8545 17.5732 29.7121 19.5081 46.7751C21.443 63.8382 31.4618 82.3941 64.6561 81.1933C89.9172 80.2794 95.5634 74.1187 102.238 62.6087C108.476 51.8519 109.569 43.1202 111.123 36.0002C112.678 28.8802 120.776 29.7121 125.195 29.7121C129.615 29.7121 133.736 29.7121 136.817 36.0002C140.135 42.7709 141.268 52.434 147.773 64.0747C154.278 75.7153 164.1 80.2794 186.466 80.2794C208.264 80.2794 219.6 70.9643 224.944 61.8933C231.223 51.2371 232.716 35.5462 232.716 25.121C232.716 17.9786 241.355 18.0827 245.007 17.8545V1.21582C231.312 1.21582 198.102 1.66762 174.821 3.47484C154.924 5.01929 138.997 13.7825 133.736 17.8545H114.221C111.528 14.8893 108.811 12.1026 99.4989 9.63754Z" fill="#1B1B1B" stroke="#1B1B1B" stroke-linecap="square"/>
<path id="Vector 22" d="M186.604 19.0404C182.395 12.8663 166.95 17.3566 160.176 26.8403C154.075 35.3825 154.162 48.7055 160.176 50.7246C169.194 53.7525 169.954 44.0235 175.25 37.3156C181.308 29.6422 192.651 27.9087 186.604 19.0404Z" fill="white" stroke="white" stroke-linecap="square"/>
<path id="Vector 23" d="M61.6971 17.8226C57.6092 11.827 42.6113 16.1875 36.0331 25.397C30.108 33.6923 30.1931 46.6301 36.0329 48.5908C44.7901 51.5311 45.528 42.0834 50.6707 35.5695C56.5537 28.118 67.569 26.4345 61.6971 17.8226Z" fill="white" stroke="white" stroke-linecap="square"/>
<path id="Vector 24" d="M91.8964 105.501C95.1967 110.597 105.144 121.137 114.574 122.535C124.003 123.933 134.853 123.117 139.568 122.535" stroke="#1B1B1B" stroke-width="8" stroke-linecap="square"/>
</g>
</svg>
