<svg width="76" height="80" viewBox="0 0 76 80" fill="none" xmlns="http://www.w3.org/2000/svg">
<g id="Group 338">
<path id="Rectangle 164" d="M75.3315 0.108398H38.7593V18.3249C38.7593 28.4625 46.9774 36.6807 57.1151 36.6807H75.3315V0.108398Z" fill="#FFD800"/>
<g id="Group">
<g id="Group_2">
<path id="Vector" d="M35.3564 18.4285C35.3564 22.9311 39.0143 26.66 43.5879 26.66C48.0932 26.66 51.8193 22.9311 51.8193 18.3603C51.8193 13.8577 48.1614 10.1289 43.5879 10.1289C39.0129 10.1289 35.3564 13.8591 35.3564 18.4285ZM37.3572 18.4285C37.3572 15.0193 40.1786 12.1979 43.5879 12.1979C46.9988 12.1979 49.8185 14.9528 49.8185 18.4285C49.8185 21.8378 46.9971 24.6592 43.5879 24.6592C40.1786 24.6592 37.3572 21.8378 37.3572 18.4285Z" fill="white" stroke="white" stroke-width="0.5"/>
</g>
<g id="Group_3">
<path id="Vector_2" d="M17.6885 44.4873C17.6885 48.9899 21.3463 52.7187 25.9199 52.7187C30.4239 52.7187 34.1513 48.9913 34.1513 44.4873C34.1513 39.9833 30.4239 36.2559 25.9199 36.2559C21.4159 36.2559 17.6885 39.9833 17.6885 44.4873ZM19.6893 44.5555C19.6893 41.1463 22.5107 38.3249 25.9199 38.3249C29.3308 38.3249 32.1505 41.0798 32.1505 44.5555C32.1505 47.9647 29.3291 50.7861 25.9199 50.7861C22.5107 50.7861 19.6893 47.9647 19.6893 44.5555Z" fill="white" stroke="white" stroke-width="0.5"/>
</g>
<g id="Group_4">
<path id="Vector_3" d="M52.5474 44.4873C52.5474 48.9899 56.2052 52.7187 60.7788 52.7187C65.2828 52.7187 69.0102 48.9913 69.0102 44.4873C69.0102 39.9847 65.3524 36.2559 60.7788 36.2559C56.2748 36.2559 52.5474 39.9833 52.5474 44.4873ZM54.5481 44.5555C54.5481 41.1463 57.3696 38.3249 60.7788 38.3249C64.1897 38.3249 67.0094 41.0798 67.0094 44.5555C67.0094 47.9647 64.188 50.7861 60.7788 50.7861C57.3696 50.7861 54.5481 47.9647 54.5481 44.5555Z" fill="white" stroke="white" stroke-width="0.5"/>
</g>
<g id="Group_5">
<path id="Vector_4" d="M34.7427 70.6147C34.7427 75.1173 38.4005 78.8461 42.9741 78.8461C47.4781 78.8461 51.2055 75.1187 51.2055 70.6147C51.2055 66.1121 47.5477 62.3833 42.9741 62.3833C38.4701 62.3833 34.7427 66.1107 34.7427 70.6147ZM36.7435 70.6147C36.7435 67.2055 39.5649 64.3841 42.9741 64.3841C46.3833 64.3841 49.2047 67.2055 49.2047 70.6147C49.2047 74.024 46.3833 76.8454 42.9741 76.8454C39.5649 76.8454 36.7435 74.024 36.7435 70.6147Z" fill="white" stroke="white" stroke-width="0.5"/>
</g>
<g id="Group_6">
<path id="Vector_5" d="M0.292969 70.5464C0.292969 75.1172 4.01903 78.846 8.52439 78.846C13.1007 78.846 16.7558 75.0462 16.7558 70.5464C16.7558 66.0424 13.0284 62.3149 8.52439 62.3149C4.02181 62.3149 0.292969 65.9728 0.292969 70.5464ZM2.29375 70.6146C2.29375 67.2054 5.11516 64.3839 8.52439 64.3839C11.9336 64.3839 14.755 67.2054 14.755 70.6146C14.755 74.0238 11.9336 76.8452 8.52439 76.8452C5.11516 76.8452 2.29375 74.0238 2.29375 70.6146Z" fill="white" stroke="white" stroke-width="0.5"/>
</g>
<g id="Group_7">
<g id="Group_8">
<g id="Group_9">
<path id="Vector_6" d="M52.7234 32.8888L52.7233 32.8888L52.726 32.8928C52.9008 33.155 53.1781 33.3452 53.5479 33.3452C53.5507 33.3452 53.5535 33.3452 53.5564 33.3452C53.6923 33.3453 53.9081 33.3454 54.1116 33.1571C54.573 32.8591 54.631 32.2314 54.3762 31.8069L54.3763 31.8068L54.3725 31.8008L50.6223 25.9369C50.3304 25.4549 49.6894 25.391 49.258 25.6498C48.7731 25.9407 48.7082 26.5837 48.9676 27.016L48.9676 27.0161L48.9714 27.0221L52.7234 32.8888Z" fill="white" stroke="white" stroke-width="0.5"/>
</g>
<g id="Group_10">
<path id="Vector_7" d="M55.5416 36.8186L55.5678 36.8243H55.5947H55.5947H55.5947H55.5947H55.5947H55.5947H55.5948H55.5948H55.5948H55.5948H55.5948H55.5948H55.5949H55.5949H55.5949H55.5949H55.595H55.595H55.595H55.595H55.5951H55.5951H55.5952H55.5952H55.5952H55.5953H55.5953H55.5954H55.5954H55.5954H55.5955H55.5955H55.5956H55.5956H55.5957H55.5958H55.5958H55.5959H55.5959H55.596H55.596H55.5961H55.5962H55.5962H55.5963H55.5964H55.5965H55.5965H55.5966H55.5967H55.5967H55.5968H55.5969H55.597H55.5971H55.5972H55.5972H55.5973H55.5974H55.5975H55.5976H55.5977H55.5978H55.5979H55.598H55.5981H55.5982H55.5983H55.5984H55.5985H55.5986H55.5987H55.5988H55.5989H55.599H55.5991H55.5992H55.5993H55.5994H55.5996H55.5997H55.5998H55.5999H55.6H55.6002H55.6003H55.6004H55.6005H55.6007H55.6008H55.6009H55.6011H55.6012H55.6013H55.6015H55.6016H55.6017H55.6019H55.602H55.6021H55.6023H55.6024H55.6026H55.6027H55.6029H55.603H55.6032H55.6033H55.6035H55.6036H55.6038H55.6039H55.6041H55.6043H55.6044H55.6046H55.6047H55.6049H55.6051H55.6052H55.6054H55.6056H55.6057H55.6059H55.6061H55.6063H55.6064H55.6066H55.6068H55.607H55.6071H55.6073H55.6075H55.6077H55.6079H55.6081H55.6082H55.6084H55.6086H55.6088H55.609H55.6092H55.6094H55.6096H55.6098H55.61H55.6102H55.6104H55.6106H55.6108H55.611H55.6112H55.6114H55.6116H55.6118H55.612H55.6122H55.6124H55.6126H55.6128H55.613H55.6133H55.6135H55.6137H55.6139H55.6141H55.6143H55.6146H55.6148H55.615H55.6152H55.6154H55.6157H55.6159H55.6161H55.6163H55.6166H55.6168H55.617H55.6173H55.6175H55.6177H55.618H55.6182H55.6184H55.6187H55.6189H55.6192H55.6194H55.6196H55.6199H55.6201H55.6204H55.6206H55.6209H55.6211H55.6214H55.6216H55.6219H55.6221H55.6224H55.6226H55.6229H55.6231H55.6234H55.6237H55.6239H55.6242H55.6244H55.6247H55.625H55.6252H55.6255H55.6257H55.626H55.6263H55.6265H55.6268H55.6271H55.6274H55.6276H55.6279H55.6282H55.6284H55.6287H55.629H55.6293H55.6295H55.6298H55.6301H55.6304H55.6307H55.6309H55.6312H55.6315H55.6318H55.6321H55.6324H55.6327H55.6329H55.6332H55.6335H55.6338H55.6341H55.6344H55.6347H55.635H55.6353H55.6356H55.6359H55.6362H55.6365H55.6367H55.637H55.6373H55.6376H55.6379H55.6382H55.6386H55.6389H55.6392H55.6395H55.6398H55.6401H55.6404H55.6407H55.641H55.6413H55.6416H55.6419H55.6422H55.6426H55.6429H55.6432H55.6435H55.6438H55.6441H55.6444H55.6448H55.6451H55.6454H55.6457H55.646H55.6464H55.6467H55.647H55.6473H55.6476H55.648H55.6483H55.6486H55.6489H55.6493H55.6496H55.6499H55.6503H55.6506H55.6509H55.6512H55.6516H55.6519H55.6522H55.6526H55.6529H55.6532H55.6536H55.6539H55.6543H55.6546H55.6549H55.6553H55.6556H55.6559H55.6563H55.6566H55.657H55.6573H55.6577H55.658H55.6583H55.6587H55.659H55.6594H55.6597H55.6601H55.6604H55.6608H55.6611H55.6615H55.6618H55.6622H55.6625H55.6629H55.6632H55.6636H55.6639H55.6643H55.6646H55.665H55.6653H55.6657H55.666H55.6664H55.6668H55.6671H55.6675H55.6678H55.6682H55.6686H55.6689H55.6693H55.6696H55.67H55.6704H55.6707H55.6711H55.6714H55.6718H55.6722H55.6725H55.6729H55.6733H55.6736H55.674H55.6744H55.6747H55.6751H55.6755H55.6758H55.6762H55.6766H55.677H55.6773H55.6777H55.6781H55.6784H55.6788H55.6792H55.6796H55.6799H55.6803H55.6807H55.681H55.6814H55.6818H55.6822H55.6826H55.6829H55.6833H55.6837H55.6841H55.6844H55.6848H55.6852H55.6856H55.686H55.6863H55.6867H55.6871H55.6875H55.6879H55.6882H55.6886H55.689H55.6894H55.6898H55.6901H55.6905H55.6909H55.6913H55.6917H55.6921H55.6925H55.6928H55.6932H55.6936H55.694H55.6944H55.6948H55.6952H55.6955H55.6959H55.6963H55.6967H55.6971H55.6975H55.6979H55.6983H55.6987H55.699H55.6994H55.6998H55.7002H55.7006H55.701H55.7014H55.7018H55.7022H55.7026H55.7029H55.7033H55.7037H55.7041H55.7045H55.7049H55.7053H55.7057H55.7061H55.7065H55.7069H55.7073H55.7077H55.7081H55.7085H55.7089H55.7092H55.7096H55.71H55.7104H55.7108H55.7112H55.7116H55.712H55.7124H55.7128H55.7132H55.7136H55.714H55.7144H55.7148H55.7152H55.7156H55.716H55.7164H55.7168H55.7172H55.7176H55.718H55.7184H55.7188H55.7192H55.7196H55.72H55.7204H55.7208H55.7212H55.7216H55.722H55.7224H55.7228H55.7232H55.7236H55.724H55.7244H55.7248H55.7252H55.7256H55.726H55.7264H55.7268H55.7271H55.7275H55.7279H55.7283H55.7287H55.7291H55.7295H55.7299H55.7303H55.7307H55.7311H55.7322C55.8757 36.8243 56.0446 36.8243 56.2877 36.7433L56.3195 36.7327L56.3473 36.7141C56.4728 36.6305 56.5662 36.5399 56.6384 36.4316C56.7084 36.3266 56.7508 36.2159 56.7869 36.1076L56.7912 36.0948L56.794 36.0817L57.4736 32.9559C57.6493 32.402 57.2817 31.8611 56.7466 31.7606C56.1902 31.5873 55.6482 31.9612 55.554 32.5013L55.0638 34.707L52.8637 34.2181C52.3096 34.042 51.7683 34.4096 51.6678 34.9449C51.4944 35.5015 51.8687 36.0438 52.4091 36.1376L55.5416 36.8186Z" fill="white" stroke="white" stroke-width="0.5"/>
</g>
</g>
<g id="Group_11">
<g id="Group_12">
<path id="Vector_8" d="M32.8862 33.5145L32.8945 33.5194L32.903 33.5237C32.909 33.5267 32.9151 33.5297 32.9213 33.5329C33.0437 33.5943 33.2273 33.6865 33.4242 33.6865C33.7682 33.6865 34.0766 33.5148 34.1956 33.2065L38.1306 27.0325C38.4961 26.5618 38.3019 25.9321 37.8649 25.6589C37.39 25.2919 36.7542 25.4932 36.4855 25.9382L32.6054 32.1328C32.2368 32.6085 32.4394 33.2463 32.8862 33.5145Z" fill="white" stroke="white" stroke-width="0.5"/>
</g>
<g id="Group_13">
<path id="Vector_9" d="M30.8594 36.6149L30.8881 36.6436L30.9244 36.6617C30.9303 36.6647 30.9364 36.6678 30.9427 36.6709C31.065 36.7324 31.2486 36.8246 31.4455 36.8246C31.4473 36.8246 31.4492 36.8246 31.4512 36.8246C31.484 36.8247 31.5365 36.8248 31.6013 36.8032C31.6408 36.79 31.6858 36.7681 31.734 36.744L34.8357 36.0697C35.4187 35.9686 35.6633 35.3935 35.5805 34.8962C35.4825 34.3085 34.905 34.0618 34.406 34.145L34.4059 34.1446L34.3928 34.1476L32.181 34.6391L31.6909 32.4333C31.5895 31.8507 31.0146 31.6063 30.5176 31.6892C29.9299 31.7871 29.6832 32.3646 29.7663 32.8637L29.766 32.8638L29.7686 32.8757L30.4508 36.0137L30.4537 36.0269L30.4579 36.0397C30.545 36.3008 30.7178 36.4734 30.8486 36.6041C30.8522 36.6077 30.8558 36.6113 30.8594 36.6149Z" fill="white" stroke="white" stroke-width="0.5"/>
</g>
</g>
</g>
<g id="Group_14">
<g id="Group_15">
<g id="Group_16">
<path id="Vector_10" d="M35.2593 59.4932L35.2593 59.4932L35.2621 59.4975C35.437 59.7598 35.7143 59.9499 36.0841 59.9499C36.281 59.9499 36.4646 59.8577 36.5869 59.7963C36.5932 59.7931 36.5993 59.7901 36.6052 59.7871L36.6138 59.7828L36.622 59.7779C37.107 59.4869 37.1718 58.8439 36.9124 58.4116L36.9125 58.4116L36.9089 58.4059L32.954 52.2007C32.6621 51.7186 32.021 51.6546 31.5896 51.9134C31.1047 52.2044 31.0398 52.8474 31.2992 53.2797L31.2991 53.2797L31.3027 53.2854L35.2593 59.4932Z" fill="white" stroke="white" stroke-width="0.5"/>
</g>
<g id="Group_17">
<path id="Vector_11" d="M37.8731 63.0823L37.8994 63.088H37.9263H37.9263H37.9263H37.9263H37.9263H37.9263H37.9263H37.9263H37.9263H37.9263H37.9264H37.9264H37.9264H37.9264H37.9265H37.9265H37.9265H37.9265H37.9266H37.9266H37.9266H37.9267H37.9267H37.9267H37.9268H37.9268H37.9269H37.9269H37.9269H37.927H37.927H37.9271H37.9271H37.9272H37.9272H37.9273H37.9274H37.9274H37.9275H37.9275H37.9276H37.9277H37.9277H37.9278H37.9279H37.9279H37.928H37.9281H37.9281H37.9282H37.9283H37.9284H37.9285H37.9285H37.9286H37.9287H37.9288H37.9289H37.929H37.929H37.9291H37.9292H37.9293H37.9294H37.9295H37.9296H37.9297H37.9298H37.9299H37.93H37.9301H37.9302H37.9303H37.9304H37.9305H37.9307H37.9308H37.9309H37.931H37.9311H37.9312H37.9313H37.9315H37.9316H37.9317H37.9318H37.932H37.9321H37.9322H37.9323H37.9325H37.9326H37.9327H37.9329H37.933H37.9331H37.9333H37.9334H37.9336H37.9337H37.9338H37.934H37.9341H37.9343H37.9344H37.9346H37.9347H37.9349H37.935H37.9352H37.9353H37.9355H37.9356H37.9358H37.936H37.9361H37.9363H37.9365H37.9366H37.9368H37.937H37.9371H37.9373H37.9375H37.9376H37.9378H37.938H37.9382H37.9383H37.9385H37.9387H37.9389H37.939H37.9392H37.9394H37.9396H37.9398H37.94H37.9402H37.9404H37.9405H37.9407H37.9409H37.9411H37.9413H37.9415H37.9417H37.9419H37.9421H37.9423H37.9425H37.9427H37.9429H37.9431H37.9433H37.9435H37.9437H37.9439H37.9442H37.9444H37.9446H37.9448H37.945H37.9452H37.9454H37.9457H37.9459H37.9461H37.9463H37.9465H37.9468H37.947H37.9472H37.9474H37.9477H37.9479H37.9481H37.9484H37.9486H37.9488H37.949H37.9493H37.9495H37.9498H37.95H37.9502H37.9505H37.9507H37.951H37.9512H37.9514H37.9517H37.9519H37.9522H37.9524H37.9527H37.9529H37.9532H37.9534H37.9537H37.9539H37.9542H37.9544H37.9547H37.9549H37.9552H37.9555H37.9557H37.956H37.9562H37.9565H37.9568H37.957H37.9573H37.9576H37.9578H37.9581H37.9584H37.9586H37.9589H37.9592H37.9594H37.9597H37.96H37.9603H37.9605H37.9608H37.9611H37.9614H37.9616H37.9619H37.9622H37.9625H37.9628H37.9631H37.9633H37.9636H37.9639H37.9642H37.9645H37.9648H37.9651H37.9653H37.9656H37.9659H37.9662H37.9665H37.9668H37.9671H37.9674H37.9677H37.968H37.9683H37.9686H37.9689H37.9692H37.9695H37.9698H37.9701H37.9704H37.9707H37.971H37.9713H37.9716H37.9719H37.9722H37.9725H37.9729H37.9732H37.9735H37.9738H37.9741H37.9744H37.9747H37.975H37.9754H37.9757H37.976H37.9763H37.9766H37.9769H37.9773H37.9776H37.9779H37.9782H37.9785H37.9789H37.9792H37.9795H37.9798H37.9802H37.9805H37.9808H37.9811H37.9815H37.9818H37.9821H37.9825H37.9828H37.9831H37.9835H37.9838H37.9841H37.9845H37.9848H37.9851H37.9855H37.9858H37.9861H37.9865H37.9868H37.9872H37.9875H37.9878H37.9882H37.9885H37.9889H37.9892H37.9895H37.9899H37.9902H37.9906H37.9909H37.9913H37.9916H37.992H37.9923H37.9927H37.993H37.9934H37.9937H37.9941H37.9944H37.9948H37.9951H37.9955H37.9958H37.9962H37.9965H37.9969H37.9972H37.9976H37.9979H37.9983H37.9987H37.999H37.9994H37.9997H38.0001H38.0005H38.0008H38.0012H38.0015H38.0019H38.0023H38.0026H38.003H38.0034H38.0037H38.0041H38.0044H38.0048H38.0052H38.0055H38.0059H38.0063H38.0066H38.007H38.0074H38.0078H38.0081H38.0085H38.0089H38.0092H38.0096H38.01H38.0104H38.0107H38.0111H38.0115H38.0118H38.0122H38.0126H38.013H38.0133H38.0137H38.0141H38.0145H38.0148H38.0152H38.0156H38.016H38.0164H38.0167H38.0171H38.0175H38.0179H38.0183H38.0186H38.019H38.0194H38.0198H38.0202H38.0205H38.0209H38.0213H38.0217H38.0221H38.0225H38.0228H38.0232H38.0236H38.024H38.0244H38.0248H38.0252H38.0255H38.0259H38.0263H38.0267H38.0271H38.0275H38.0279H38.0282H38.0286H38.029H38.0294H38.0298H38.0302H38.0306H38.031H38.0314H38.0318H38.0321H38.0325H38.0329H38.0333H38.0337H38.0341H38.0345H38.0349H38.0353H38.0357H38.0361H38.0365H38.0368H38.0372H38.0376H38.038H38.0384H38.0388H38.0392H38.0396H38.04H38.0404H38.0408H38.0412H38.0416H38.042H38.0424H38.0428H38.0432H38.0436H38.044H38.0444H38.0447H38.0451H38.0455H38.0459H38.0463H38.0467H38.0471H38.0475H38.0479H38.0483H38.0487H38.0491H38.0495H38.0499H38.0503H38.0507H38.0511H38.0515H38.0519H38.0523H38.0527H38.0531H38.0535H38.0539H38.0543H38.0547H38.0551H38.0555H38.0559H38.0563H38.0567H38.0571H38.0575H38.0579H38.0583H38.0587H38.0591H38.0595H38.0599H38.0603H38.0607H38.0611H38.0615H38.0619H38.0623H38.0627H38.0637C38.2072 63.088 38.3761 63.088 38.6193 63.0069L38.651 62.9964L38.6789 62.9778C38.8043 62.8942 38.8977 62.8035 38.9699 62.6953C39.0399 62.5903 39.0824 62.4796 39.1185 62.3713L39.1227 62.3585L39.1256 62.3454L39.8051 59.2196C39.9808 58.6656 39.6132 58.1247 39.0782 58.0243C38.5217 57.8509 37.9797 58.2249 37.8855 58.765L37.3954 60.9707L35.1953 60.4818C34.6411 60.3057 34.0999 60.6733 33.9994 61.2085C33.826 61.7652 34.2003 62.3074 34.7407 62.4013L37.8731 63.0823Z" fill="white" stroke="white" stroke-width="0.5"/>
</g>
</g>
<g id="Group_18">
<g id="Group_19">
<path id="Vector_12" d="M15.2173 59.7781L15.2255 59.7831L15.2341 59.7874C15.24 59.7903 15.2461 59.7934 15.2524 59.7965C15.3748 59.858 15.5583 59.9502 15.7552 59.9502C16.1251 59.9502 16.4023 59.76 16.5772 59.4978L16.5772 59.4978L16.58 59.4935L20.5299 53.2962C20.8954 52.8255 20.7012 52.1958 20.2642 51.9225C19.7896 51.5558 19.1544 51.7566 18.8854 52.201L14.9371 58.3956C14.5676 58.8715 14.7702 59.5099 15.2173 59.7781Z" fill="white" stroke="white" stroke-width="0.5"/>
</g>
<g id="Group_20">
<path id="Vector_13" d="M13.191 62.8781L13.2196 62.9068L13.2559 62.9249C13.2619 62.9279 13.268 62.9309 13.2742 62.9341C13.3966 62.9955 13.5802 63.0877 13.777 63.0877C13.7789 63.0877 13.7808 63.0877 13.7828 63.0877C13.8155 63.0878 13.8681 63.088 13.9328 63.0664C13.9723 63.0532 14.0173 63.0312 14.0655 63.0071L17.1672 62.3328C17.7503 62.2318 17.9949 61.6567 17.912 61.1594C17.8141 60.5717 17.2366 60.325 16.7375 60.4082L16.7374 60.4078L16.7244 60.4107L14.5126 60.9022L14.0224 58.6965C13.921 58.1139 13.3462 57.8695 12.8491 57.9524C12.2614 58.0503 12.0147 58.6278 12.0979 59.1269L12.0976 59.1269L12.1002 59.1389L12.7823 62.2769L12.7852 62.2901L12.7895 62.3028C12.8765 62.564 13.0493 62.7366 13.1801 62.8673C13.1838 62.8709 13.1874 62.8745 13.191 62.8781Z" fill="white" stroke="white" stroke-width="0.5"/>
</g>
</g>
</g>
</g>
</g>
</svg>
