<svg width="81" height="86" viewBox="0 0 81 86" fill="none" xmlns="http://www.w3.org/2000/svg">
<path d="M81 0L45 -3.14722e-06L45 17.6442C45 27.7818 53.2182 36 63.3558 36L81 36L81 0Z" fill="#A94CFF"/>
<path d="M36.7314 23.26C36.7314 27.8767 40.482 31.7 45.1714 31.7C49.7909 31.7 53.6115 27.8767 53.6115 23.19C53.6115 18.5733 49.8609 14.75 45.1714 14.75C40.4806 14.75 36.7314 18.5747 36.7314 23.26ZM38.7714 23.26C38.7714 19.7581 41.6695 16.86 45.1714 16.86C48.6751 16.86 51.5715 19.6898 51.5715 23.26C51.5715 26.7619 48.6734 29.66 45.1714 29.66C41.6695 29.66 38.7714 26.7619 38.7714 23.26Z" fill="white" stroke="white" stroke-width="0.5"/>
<path d="M18.5996 49.9996C18.5996 54.6163 22.3502 58.4396 27.0396 58.4396C31.6577 58.4396 35.4796 54.6176 35.4796 49.9996C35.4796 45.3815 31.6577 41.5596 27.0396 41.5596C22.4215 41.5596 18.5996 45.3815 18.5996 49.9996ZM20.6396 50.0696C20.6396 46.5676 23.5377 43.6696 27.0396 43.6696C30.5433 43.6696 33.4396 46.4994 33.4396 50.0696C33.4396 53.5715 30.5415 56.4696 27.0396 56.4696C23.5377 56.4696 20.6396 53.5715 20.6396 50.0696Z" fill="white" stroke="white" stroke-width="0.5"/>
<path d="M54.3701 49.9996C54.3701 54.6163 58.1207 58.4396 62.8101 58.4396C67.4282 58.4396 71.2501 54.6176 71.2501 49.9996C71.2501 45.3829 67.4996 41.5596 62.8101 41.5596C58.1921 41.5596 54.3701 45.3815 54.3701 49.9996ZM56.4101 50.0696C56.4101 46.5676 59.3082 43.6696 62.8101 43.6696C66.3138 43.6696 69.2101 46.4994 69.2101 50.0696C69.2101 53.5715 66.3121 56.4696 62.8101 56.4696C59.3082 56.4696 56.4101 53.5715 56.4101 50.0696Z" fill="white" stroke="white" stroke-width="0.5"/>
<path d="M36.0996 76.8101C36.0996 81.4268 39.8502 85.2501 44.5396 85.2501C49.1577 85.2501 52.9796 81.4282 52.9796 76.8101C52.9796 72.1934 49.2291 68.3701 44.5396 68.3701C39.9215 68.3701 36.0996 72.1921 36.0996 76.8101ZM38.1396 76.8101C38.1396 73.3082 41.0377 70.4101 44.5396 70.4101C48.0415 70.4101 50.9396 73.3082 50.9396 76.8101C50.9396 80.3121 48.0415 83.2101 44.5396 83.2101C41.0377 83.2101 38.1396 80.3121 38.1396 76.8101Z" fill="white" stroke="white" stroke-width="0.5"/>
<path d="M0.75 76.7398C0.75 81.4265 4.57055 85.2498 9.19001 85.2498C13.8822 85.2498 17.63 81.3537 17.63 76.7398C17.63 72.1217 13.8081 68.2998 9.19001 68.2998C4.57332 68.2998 0.75 72.0503 0.75 76.7398ZM2.79 76.8098C2.79 73.3079 5.68807 70.4098 9.19001 70.4098C12.6919 70.4098 15.59 73.3079 15.59 76.8098C15.59 80.3117 12.6919 83.2098 9.19001 83.2098C5.68807 83.2098 2.79 80.3117 2.79 76.8098Z" fill="white" stroke="white" stroke-width="0.5"/>
<path d="M54.5515 38.0924L54.5514 38.0924L54.5541 38.0963C54.7325 38.364 55.0151 38.5577 55.3921 38.5577C55.3949 38.5577 55.3977 38.5577 55.4006 38.5577C55.54 38.5577 55.7594 38.5579 55.9664 38.366C56.4368 38.0627 56.4965 37.4225 56.2364 36.989L56.2365 36.989L56.2327 36.983L52.3845 30.9657C52.0872 30.4749 51.4337 30.4091 50.9934 30.6733C50.4996 30.9696 50.433 31.6251 50.6977 32.0663L50.6976 32.0663L50.7015 32.0724L54.5515 38.0924Z" fill="white" stroke="white" stroke-width="0.5"/>
<path d="M57.4371 42.1231L57.4634 42.1288H57.4902H57.4903H57.4903H57.4903H57.4903H57.4903H57.4903H57.4903H57.4903H57.4903H57.4904H57.4904H57.4904H57.4904H57.4904H57.4905H57.4905H57.4905H57.4906H57.4906H57.4906H57.4907H57.4907H57.4907H57.4908H57.4908H57.4909H57.4909H57.491H57.491H57.491H57.4911H57.4912H57.4912H57.4913H57.4913H57.4914H57.4914H57.4915H57.4916H57.4916H57.4917H57.4918H57.4918H57.4919H57.492H57.492H57.4921H57.4922H57.4923H57.4923H57.4924H57.4925H57.4926H57.4927H57.4928H57.4928H57.4929H57.493H57.4931H57.4932H57.4933H57.4934H57.4935H57.4936H57.4937H57.4938H57.4939H57.494H57.4941H57.4942H57.4943H57.4944H57.4945H57.4946H57.4948H57.4949H57.495H57.4951H57.4952H57.4953H57.4955H57.4956H57.4957H57.4958H57.496H57.4961H57.4962H57.4964H57.4965H57.4966H57.4968H57.4969H57.497H57.4972H57.4973H57.4974H57.4976H57.4977H57.4979H57.498H57.4982H57.4983H57.4985H57.4986H57.4988H57.4989H57.4991H57.4992H57.4994H57.4996H57.4997H57.4999H57.5H57.5002H57.5004H57.5005H57.5007H57.5009H57.501H57.5012H57.5014H57.5016H57.5017H57.5019H57.5021H57.5023H57.5025H57.5026H57.5028H57.503H57.5032H57.5034H57.5036H57.5038H57.5039H57.5041H57.5043H57.5045H57.5047H57.5049H57.5051H57.5053H57.5055H57.5057H57.5059H57.5061H57.5063H57.5065H57.5067H57.5069H57.5071H57.5073H57.5075H57.5078H57.508H57.5082H57.5084H57.5086H57.5088H57.5091H57.5093H57.5095H57.5097H57.5099H57.5102H57.5104H57.5106H57.5108H57.5111H57.5113H57.5115H57.5118H57.512H57.5122H57.5125H57.5127H57.5129H57.5132H57.5134H57.5136H57.5139H57.5141H57.5144H57.5146H57.5148H57.5151H57.5153H57.5156H57.5158H57.5161H57.5163H57.5166H57.5168H57.5171H57.5173H57.5176H57.5179H57.5181H57.5184H57.5186H57.5189H57.5192H57.5194H57.5197H57.5199H57.5202H57.5205H57.5207H57.521H57.5213H57.5216H57.5218H57.5221H57.5224H57.5226H57.5229H57.5232H57.5235H57.5237H57.524H57.5243H57.5246H57.5249H57.5251H57.5254H57.5257H57.526H57.5263H57.5266H57.5269H57.5271H57.5274H57.5277H57.528H57.5283H57.5286H57.5289H57.5292H57.5295H57.5298H57.5301H57.5304H57.5307H57.531H57.5313H57.5316H57.5319H57.5322H57.5325H57.5328H57.5331H57.5334H57.5337H57.534H57.5343H57.5346H57.5349H57.5352H57.5355H57.5359H57.5362H57.5365H57.5368H57.5371H57.5374H57.5377H57.5381H57.5384H57.5387H57.539H57.5393H57.5397H57.54H57.5403H57.5406H57.541H57.5413H57.5416H57.5419H57.5423H57.5426H57.5429H57.5432H57.5436H57.5439H57.5442H57.5446H57.5449H57.5452H57.5456H57.5459H57.5462H57.5466H57.5469H57.5472H57.5476H57.5479H57.5483H57.5486H57.5489H57.5493H57.5496H57.55H57.5503H57.5507H57.551H57.5513H57.5517H57.552H57.5524H57.5527H57.5531H57.5534H57.5538H57.5541H57.5545H57.5548H57.5552H57.5555H57.5559H57.5562H57.5566H57.557H57.5573H57.5577H57.558H57.5584H57.5587H57.5591H57.5595H57.5598H57.5602H57.5605H57.5609H57.5613H57.5616H57.562H57.5624H57.5627H57.5631H57.5634H57.5638H57.5642H57.5645H57.5649H57.5653H57.5657H57.566H57.5664H57.5668H57.5671H57.5675H57.5679H57.5682H57.5686H57.569H57.5694H57.5697H57.5701H57.5705H57.5709H57.5712H57.5716H57.572H57.5724H57.5727H57.5731H57.5735H57.5739H57.5743H57.5746H57.575H57.5754H57.5758H57.5762H57.5765H57.5769H57.5773H57.5777H57.5781H57.5785H57.5788H57.5792H57.5796H57.58H57.5804H57.5808H57.5812H57.5815H57.5819H57.5823H57.5827H57.5831H57.5835H57.5839H57.5843H57.5847H57.585H57.5854H57.5858H57.5862H57.5866H57.587H57.5874H57.5878H57.5882H57.5886H57.589H57.5894H57.5898H57.5901H57.5905H57.5909H57.5913H57.5917H57.5921H57.5925H57.5929H57.5933H57.5937H57.5941H57.5945H57.5949H57.5953H57.5957H57.5961H57.5965H57.5969H57.5973H57.5977H57.5981H57.5985H57.5989H57.5993H57.5997H57.6001H57.6005H57.6009H57.6013H57.6017H57.6021H57.6025H57.6029H57.6033H57.6037H57.6041H57.6045H57.6049H57.6053H57.6058H57.6062H57.6066H57.607H57.6074H57.6078H57.6082H57.6086H57.609H57.6094H57.6098H57.6102H57.6106H57.611H57.6114H57.6118H57.6122H57.6127H57.6131H57.6135H57.6139H57.6143H57.6147H57.6151H57.6155H57.6159H57.6163H57.6167H57.6171H57.6175H57.618H57.6184H57.6188H57.6192H57.6196H57.62H57.6204H57.6208H57.6212H57.6216H57.622H57.6225H57.6229H57.6233H57.6237H57.6241H57.6245H57.6249H57.6253H57.6257H57.6261H57.6266H57.627H57.6274H57.6278H57.6282H57.6286H57.629H57.6294H57.6298H57.6302H57.6313C57.7784 42.1288 57.9508 42.1288 58.1993 42.0459L58.2311 42.0353L58.2589 42.0168C58.387 41.9314 58.4822 41.839 58.5558 41.7287C58.6271 41.6217 58.6704 41.5087 58.7074 41.3978L58.7117 41.385L58.7145 41.3719L59.4119 38.1641C59.5912 37.5995 59.2164 37.0478 58.6707 36.9456C58.1036 36.7687 57.5508 37.1498 57.4549 37.7006L56.9504 39.9705L54.6862 39.4673C54.1213 39.2876 53.5694 39.6624 53.4671 40.2083C53.2901 40.7757 53.6716 41.3286 54.2227 41.4243L57.4371 42.1231Z" fill="white" stroke="white" stroke-width="0.5"/>
<path d="M34.1932 38.7355L34.2015 38.7405L34.21 38.7448C34.2161 38.7478 34.2222 38.7509 34.2286 38.754C34.3543 38.8172 34.5414 38.9111 34.7418 38.9111C35.093 38.9111 35.4068 38.7358 35.5275 38.4222L39.566 32.086C39.9386 31.6064 39.7408 30.9642 39.2949 30.6856C38.8111 30.3115 38.1629 30.5164 37.8888 30.9703L33.9071 37.3271C33.5313 37.8118 33.7374 38.4621 34.1932 38.7355Z" fill="white" stroke="white" stroke-width="0.5"/>
<path d="M32.115 41.9175L32.1437 41.9462L32.18 41.9643C32.186 41.9673 32.1922 41.9704 32.1985 41.9736C32.3243 42.0367 32.5114 42.1307 32.7118 42.1307C32.7137 42.1307 32.7156 42.1307 32.7176 42.1307C32.7512 42.1308 32.8042 42.1309 32.8696 42.1091C32.9099 42.0957 32.9558 42.0732 33.0056 42.0483L36.1893 41.3562C36.7831 41.2533 37.033 40.6675 36.9484 40.1596C36.8486 39.5612 36.2604 39.3091 35.7507 39.3941L35.7506 39.3937L35.7376 39.3966L33.4616 39.9024L32.9572 37.6325C32.854 37.0392 32.2684 36.7895 31.7607 36.8741C31.1623 36.9738 30.9102 37.562 30.9952 38.0718L30.9949 38.0718L30.9975 38.0838L31.6975 41.3038L31.7003 41.317L31.7046 41.3297C31.7934 41.5962 31.9698 41.7724 32.1041 41.9066C32.1078 41.9102 32.1114 41.9139 32.115 41.9175Z" fill="white" stroke="white" stroke-width="0.5"/>
<path d="M36.6294 65.3922L36.6294 65.3923L36.6322 65.3965C36.8106 65.6642 37.0933 65.8579 37.4702 65.8579C37.6706 65.8579 37.8577 65.7639 37.9835 65.7008C37.9898 65.6976 37.996 65.6945 38.002 65.6915L38.0106 65.6872L38.0189 65.6822C38.5127 65.3859 38.5793 64.7305 38.3146 64.2892L38.3147 64.2892L38.3111 64.2835L34.2527 57.9161C33.9555 57.4251 33.3019 57.3593 32.8616 57.6235C32.3678 57.9198 32.3011 58.5752 32.5659 59.0165L32.5658 59.0165L32.5694 59.0222L36.6294 65.3922Z" fill="white" stroke="white" stroke-width="0.5"/>
<path d="M39.3092 69.0723L39.3355 69.078H39.3623H39.3623H39.3623H39.3623H39.3623H39.3624H39.3624H39.3624H39.3624H39.3624H39.3624H39.3625H39.3625H39.3625H39.3625H39.3625H39.3626H39.3626H39.3626H39.3627H39.3627H39.3627H39.3628H39.3628H39.3628H39.3629H39.3629H39.363H39.363H39.3631H39.3631H39.3632H39.3632H39.3633H39.3633H39.3634H39.3634H39.3635H39.3636H39.3636H39.3637H39.3638H39.3638H39.3639H39.364H39.364H39.3641H39.3642H39.3643H39.3643H39.3644H39.3645H39.3646H39.3647H39.3647H39.3648H39.3649H39.365H39.3651H39.3652H39.3653H39.3654H39.3655H39.3656H39.3657H39.3658H39.3659H39.366H39.3661H39.3662H39.3663H39.3664H39.3665H39.3666H39.3667H39.3668H39.3669H39.3671H39.3672H39.3673H39.3674H39.3675H39.3677H39.3678H39.3679H39.368H39.3682H39.3683H39.3684H39.3686H39.3687H39.3688H39.369H39.3691H39.3692H39.3694H39.3695H39.3697H39.3698H39.37H39.3701H39.3702H39.3704H39.3705H39.3707H39.3709H39.371H39.3712H39.3713H39.3715H39.3716H39.3718H39.372H39.3721H39.3723H39.3724H39.3726H39.3728H39.373H39.3731H39.3733H39.3735H39.3736H39.3738H39.374H39.3742H39.3743H39.3745H39.3747H39.3749H39.3751H39.3753H39.3754H39.3756H39.3758H39.376H39.3762H39.3764H39.3766H39.3768H39.377H39.3772H39.3774H39.3776H39.3778H39.378H39.3782H39.3784H39.3786H39.3788H39.379H39.3792H39.3794H39.3796H39.3798H39.38H39.3803H39.3805H39.3807H39.3809H39.3811H39.3813H39.3816H39.3818H39.382H39.3822H39.3825H39.3827H39.3829H39.3831H39.3834H39.3836H39.3838H39.3841H39.3843H39.3845H39.3848H39.385H39.3852H39.3855H39.3857H39.3859H39.3862H39.3864H39.3867H39.3869H39.3872H39.3874H39.3877H39.3879H39.3882H39.3884H39.3887H39.3889H39.3892H39.3894H39.3897H39.3899H39.3902H39.3904H39.3907H39.391H39.3912H39.3915H39.3918H39.392H39.3923H39.3925H39.3928H39.3931H39.3934H39.3936H39.3939H39.3942H39.3944H39.3947H39.395H39.3953H39.3955H39.3958H39.3961H39.3964H39.3967H39.3969H39.3972H39.3975H39.3978H39.3981H39.3983H39.3986H39.3989H39.3992H39.3995H39.3998H39.4001H39.4004H39.4007H39.401H39.4013H39.4015H39.4018H39.4021H39.4024H39.4027H39.403H39.4033H39.4036H39.4039H39.4042H39.4045H39.4048H39.4051H39.4055H39.4058H39.4061H39.4064H39.4067H39.407H39.4073H39.4076H39.4079H39.4082H39.4086H39.4089H39.4092H39.4095H39.4098H39.4101H39.4105H39.4108H39.4111H39.4114H39.4117H39.4121H39.4124H39.4127H39.413H39.4133H39.4137H39.414H39.4143H39.4147H39.415H39.4153H39.4156H39.416H39.4163H39.4166H39.417H39.4173H39.4176H39.418H39.4183H39.4186H39.419H39.4193H39.4197H39.42H39.4203H39.4207H39.421H39.4214H39.4217H39.422H39.4224H39.4227H39.4231H39.4234H39.4238H39.4241H39.4245H39.4248H39.4252H39.4255H39.4259H39.4262H39.4266H39.4269H39.4273H39.4276H39.428H39.4283H39.4287H39.429H39.4294H39.4297H39.4301H39.4305H39.4308H39.4312H39.4315H39.4319H39.4323H39.4326H39.433H39.4333H39.4337H39.4341H39.4344H39.4348H39.4352H39.4355H39.4359H39.4363H39.4366H39.437H39.4374H39.4377H39.4381H39.4385H39.4388H39.4392H39.4396H39.4399H39.4403H39.4407H39.4411H39.4414H39.4418H39.4422H39.4426H39.4429H39.4433H39.4437H39.4441H39.4444H39.4448H39.4452H39.4456H39.4459H39.4463H39.4467H39.4471H39.4475H39.4478H39.4482H39.4486H39.449H39.4494H39.4498H39.4501H39.4505H39.4509H39.4513H39.4517H39.4521H39.4525H39.4528H39.4532H39.4536H39.454H39.4544H39.4548H39.4552H39.4556H39.4559H39.4563H39.4567H39.4571H39.4575H39.4579H39.4583H39.4587H39.4591H39.4595H39.4599H39.4602H39.4606H39.461H39.4614H39.4618H39.4622H39.4626H39.463H39.4634H39.4638H39.4642H39.4646H39.465H39.4654H39.4658H39.4662H39.4666H39.467H39.4674H39.4678H39.4682H39.4686H39.469H39.4694H39.4698H39.4702H39.4706H39.471H39.4714H39.4718H39.4722H39.4726H39.473H39.4734H39.4738H39.4742H39.4746H39.475H39.4754H39.4758H39.4762H39.4766H39.477H39.4774H39.4778H39.4782H39.4786H39.479H39.4794H39.4798H39.4803H39.4807H39.4811H39.4815H39.4819H39.4823H39.4827H39.4831H39.4835H39.4839H39.4843H39.4847H39.4851H39.4855H39.4859H39.4864H39.4868H39.4872H39.4876H39.488H39.4884H39.4888H39.4892H39.4896H39.49H39.4904H39.4908H39.4913H39.4917H39.4921H39.4925H39.4929H39.4933H39.4937H39.4941H39.4945H39.4949H39.4953H39.4958H39.4962H39.4966H39.497H39.4974H39.4978H39.4982H39.4986H39.499H39.4994H39.4999H39.5003H39.5007H39.5011H39.5015H39.5019H39.5023H39.5034C39.6504 69.078 39.8229 69.078 40.0714 68.9952L40.1031 68.9846L40.131 68.966C40.2591 68.8806 40.3543 68.7882 40.4278 68.6779C40.4992 68.5709 40.5425 68.458 40.5795 68.347L40.5838 68.3343L40.5866 68.3211L41.284 65.1133C41.4632 64.5487 41.0885 63.9971 40.5428 63.8948C39.9756 63.7179 39.4229 64.099 39.3269 64.6498L38.8225 66.9197L36.5582 66.4165C35.9934 66.2368 35.4414 66.6116 35.3391 67.1575C35.1622 67.7249 35.5436 68.2778 36.0947 68.3735L39.3092 69.0723Z" fill="white" stroke="white" stroke-width="0.5"/>
<path d="M16.0614 65.6808L16.0696 65.6858L16.0782 65.6901C16.0842 65.6931 16.0904 65.6962 16.0967 65.6994C16.2225 65.7625 16.4096 65.8565 16.61 65.8565C16.987 65.8565 17.2696 65.6628 17.448 65.3951L17.4481 65.3952L17.4508 65.3908L21.5041 59.0313C21.8768 58.5517 21.679 57.9095 21.2331 57.6309C20.7496 57.2571 20.1019 57.4614 19.8275 57.9147L15.7759 64.2716C15.3993 64.7563 15.6054 65.4072 16.0614 65.6808Z" fill="white" stroke="white" stroke-width="0.5"/>
<path d="M13.9832 68.8628L14.0119 68.8915L14.0481 68.9096C14.0542 68.9126 14.0603 68.9157 14.0667 68.9189C14.1924 68.9821 14.3795 69.076 14.5799 69.076C14.5818 69.076 14.5838 69.076 14.5858 69.076C14.6193 69.0761 14.6723 69.0762 14.7378 69.0544C14.778 69.041 14.824 69.0185 14.8738 68.9936L18.0575 68.3015C18.6513 68.1986 18.9012 67.6128 18.8165 67.1049C18.7168 66.5065 18.1286 66.2544 17.6188 66.3394L17.6188 66.339L17.6057 66.342L15.3298 66.8477L14.8253 64.5778C14.7222 63.9845 14.1366 63.7348 13.6288 63.8194C13.0305 63.9191 12.7784 64.5073 12.8633 65.0171L12.8631 65.0172L12.8657 65.0291L13.5657 68.2491L13.5685 68.2623L13.5728 68.2751C13.6616 68.5415 13.8379 68.7177 13.9723 68.8519C13.9759 68.8555 13.9796 68.8592 13.9832 68.8628Z" fill="white" stroke="white" stroke-width="0.5"/>
</svg>
