<svg width="334" height="499" viewBox="0 0 334 499" fill="none" xmlns="http://www.w3.org/2000/svg">
<g opacity="0.04">
<path d="M420 -64.9998H0V299H420V-64.9998ZM400 280.476H20V-46.4756H400V280.476Z" fill="white"/>
<path d="M117.001 135.514L172.001 79.9417L117.001 24.3691L102.501 36.873L145.001 79.9417L102.501 123.01L117.001 135.514Z" fill="white"/>
<path d="M283.503 118.853H176.003V137.377H283.503V118.853Z" fill="white"/>
<path d="M372.502 -21.0107H47.5024V254.999H372.502V-21.0107ZM352.502 236.475H67.5024V-2.48657H352.502V236.475Z" fill="white"/>
</g>
<g opacity="0.04">
<path d="M244.791 226.108C244.791 246.512 261.366 263.41 282.093 263.41C302.513 263.41 319.395 246.512 319.395 225.802C319.395 205.398 302.819 188.5 282.093 188.5C261.358 188.5 244.791 205.406 244.791 226.108ZM254.523 226.108C254.523 211.024 267.009 198.538 282.093 198.538C297.186 198.538 309.663 210.729 309.663 226.108C309.663 241.192 297.176 253.678 282.093 253.678C267.009 253.678 254.523 241.192 254.523 226.108Z" fill="white" stroke="white" stroke-width="3"/>
<path d="M165.529 342.998C165.529 363.402 182.104 380.3 202.831 380.3C223.243 380.3 240.133 363.411 240.133 342.998C240.133 322.586 223.243 305.696 202.831 305.696C182.418 305.696 165.529 322.586 165.529 342.998ZM175.261 343.304C175.261 328.221 187.747 315.734 202.831 315.734C217.925 315.734 230.401 327.925 230.401 343.304C230.401 358.388 217.914 370.874 202.831 370.874C187.747 370.874 175.261 358.388 175.261 343.304Z" fill="white" stroke="white" stroke-width="3"/>
<path d="M321.896 342.998C321.896 363.402 338.471 380.3 359.198 380.3C379.61 380.3 396.5 363.411 396.5 342.998C396.5 322.594 379.925 305.696 359.198 305.696C338.786 305.696 321.896 322.586 321.896 342.998ZM331.628 343.304C331.628 328.221 344.114 315.734 359.198 315.734C374.292 315.734 386.768 327.925 386.768 343.304C386.768 358.388 374.282 370.874 359.198 370.874C344.114 370.874 331.628 358.388 331.628 343.304Z" fill="white" stroke="white" stroke-width="3"/>
<path d="M242.029 460.198C242.029 480.602 258.605 497.5 279.331 497.5C299.744 497.5 316.633 480.61 316.633 460.198C316.633 439.793 300.058 422.896 279.331 422.896C258.919 422.896 242.029 439.785 242.029 460.198ZM251.761 460.198C251.761 445.114 264.248 432.628 279.331 432.628C294.415 432.628 306.901 445.114 306.901 460.198C306.901 475.281 294.415 487.768 279.331 487.768C264.248 487.768 251.761 475.281 251.761 460.198Z" fill="white" stroke="white" stroke-width="3"/>
<path d="M87.5 459.891C87.5 480.602 104.381 497.499 124.802 497.499C145.545 497.499 162.104 480.279 162.104 459.891C162.104 439.479 145.214 422.589 124.802 422.589C104.398 422.589 87.5 439.165 87.5 459.891ZM97.232 460.197C97.232 445.114 109.718 432.627 124.802 432.627C139.886 432.627 152.372 445.114 152.372 460.197C152.372 475.281 139.886 487.767 124.802 487.767C109.718 487.767 97.232 475.281 97.232 460.197Z" fill="white" stroke="white" stroke-width="3"/>
<path d="M322.756 291.163L322.764 291.175L322.772 291.187C323.614 292.451 324.968 293.385 326.774 293.385C326.789 293.385 326.804 293.385 326.819 293.385C327.436 293.386 328.519 293.387 329.535 292.463C331.786 290.987 332.033 287.943 330.814 285.911L330.803 285.893L330.791 285.875L313.972 259.575C312.53 257.201 309.408 256.92 307.336 258.163C304.943 259.599 304.657 262.733 305.903 264.811L305.915 264.829L305.926 264.847L322.756 291.163Z" fill="white" stroke="white" stroke-width="3"/>
<path d="M335.626 308.963L335.783 308.997H335.944H335.944H335.944H335.945H335.945H335.945H335.945H335.945H335.945H335.945H335.945H335.945H335.945H335.945H335.945H335.945H335.946H335.946H335.946H335.946H335.946H335.946H335.946H335.947H335.947H335.947H335.947H335.947H335.948H335.948H335.948H335.948H335.948H335.949H335.949H335.949H335.949H335.95H335.95H335.95H335.95H335.951H335.951H335.951H335.952H335.952H335.952H335.953H335.953H335.953H335.954H335.954H335.954H335.955H335.955H335.955H335.956H335.956H335.957H335.957H335.957H335.958H335.958H335.959H335.959H335.959H335.96H335.96H335.961H335.961H335.962H335.962H335.963H335.963H335.964H335.964H335.965H335.965H335.966H335.966H335.967H335.967H335.968H335.968H335.969H335.969H335.97H335.971H335.971H335.972H335.972H335.973H335.973H335.974H335.975H335.975H335.976H335.977H335.977H335.978H335.978H335.979H335.98H335.98H335.981H335.982H335.982H335.983H335.984H335.984H335.985H335.986H335.987H335.987H335.988H335.989H335.989H335.99H335.991H335.992H335.992H335.993H335.994H335.995H335.995H335.996H335.997H335.998H335.999H335.999H336H336.001H336.002H336.003H336.003H336.004H336.005H336.006H336.007H336.008H336.009H336.009H336.01H336.011H336.012H336.013H336.014H336.015H336.016H336.016H336.017H336.018H336.019H336.02H336.021H336.022H336.023H336.024H336.025H336.026H336.027H336.028H336.029H336.03H336.03H336.031H336.032H336.033H336.034H336.035H336.036H336.037H336.038H336.039H336.04H336.041H336.043H336.044H336.045H336.046H336.047H336.048H336.049H336.05H336.051H336.052H336.053H336.054H336.055H336.056H336.057H336.058H336.06H336.061H336.062H336.063H336.064H336.065H336.066H336.067H336.069H336.07H336.071H336.072H336.073H336.074H336.075H336.077H336.078H336.079H336.08H336.081H336.082H336.084H336.085H336.086H336.087H336.088H336.09H336.091H336.092H336.093H336.095H336.096H336.097H336.098H336.099H336.101H336.102H336.103H336.104H336.106H336.107H336.108H336.11H336.111H336.112H336.113H336.115H336.116H336.117H336.118H336.12H336.121H336.122H336.124H336.125H336.126H336.128H336.129H336.13H336.132H336.133H336.134H336.136H336.137H336.138H336.14H336.141H336.142H336.144H336.145H336.147H336.148H336.149H336.151H336.152H336.153H336.155H336.156H336.158H336.159H336.16H336.162H336.163H336.165H336.166H336.168H336.169H336.17H336.172H336.173H336.175H336.176H336.178H336.179H336.18H336.182H336.183H336.185H336.186H336.188H336.189H336.191H336.192H336.194H336.195H336.197H336.198H336.2H336.201H336.203H336.204H336.206H336.207H336.209H336.21H336.212H336.213H336.215H336.216H336.218H336.219H336.221H336.222H336.224H336.225H336.227H336.228H336.23H336.231H336.233H336.235H336.236H336.238H336.239H336.241H336.242H336.244H336.245H336.247H336.249H336.25H336.252H336.253H336.255H336.256H336.258H336.26H336.261H336.263H336.264H336.266H336.268H336.269H336.271H336.272H336.274H336.276H336.277H336.279H336.281H336.282H336.284H336.285H336.287H336.289H336.29H336.292H336.294H336.295H336.297H336.298H336.3H336.302H336.303H336.305H336.307H336.308H336.31H336.312H336.313H336.315H336.317H336.318H336.32H336.322H336.323H336.325H336.327H336.328H336.33H336.332H336.333H336.335H336.337H336.338H336.34H336.342H336.344H336.345H336.347H336.349H336.35H336.352H336.354H336.355H336.357H336.359H336.361H336.362H336.364H336.366H336.367H336.369H336.371H336.373H336.374H336.376H336.378H336.379H336.381H336.383H336.385H336.386H336.388H336.39H336.392H336.393H336.395H336.397H336.398H336.4H336.402H336.404H336.405H336.407H336.409H336.411H336.412H336.414H336.416H336.418H336.419H336.421H336.423H336.425H336.426H336.428H336.43H336.432H336.433H336.435H336.437H336.439H336.441H336.442H336.444H336.446H336.448H336.449H336.451H336.453H336.455H336.456H336.458H336.46H336.462H336.464H336.465H336.467H336.469H336.471H336.472H336.474H336.476H336.478H336.48H336.481H336.483H336.485H336.487H336.488H336.49H336.492H336.494H336.496H336.497H336.499H336.501H336.503H336.504H336.506H336.508H336.51H336.512H336.513H336.515H336.517H336.519H336.521H336.522H336.524H336.526H336.528H336.53H336.531H336.533H336.535H336.537H336.539H336.54H336.542H336.544H336.546H336.547H336.549H336.551H336.553H336.555H336.556H336.562C337.217 308.997 338.024 308.997 339.173 308.614L339.363 308.551L339.53 308.439C340.128 308.041 340.585 307.6 340.941 307.067C341.283 306.553 341.487 306.018 341.651 305.523L341.677 305.447L341.694 305.368L344.739 291.363C345.585 288.661 343.794 286.036 341.203 285.536C338.485 284.703 335.852 286.533 335.39 289.153L333.276 298.669L323.792 296.562C321.088 295.713 318.461 297.505 317.962 300.096C317.128 302.816 318.96 305.45 321.582 305.91L335.626 308.963Z" fill="white" stroke="white" stroke-width="3"/>
<path d="M233.895 294.108L233.944 294.138L233.996 294.164C234.026 294.178 234.056 294.194 234.089 294.21C234.628 294.482 235.526 294.934 236.503 294.934C238.155 294.934 239.692 294.109 240.302 292.575L257.924 264.926C259.702 262.62 258.745 259.565 256.639 258.235C254.307 256.447 251.215 257.447 249.913 259.601L232.519 287.369C230.722 289.707 231.731 292.81 233.895 294.108Z" fill="white" stroke="white" stroke-width="3"/>
<path d="M224.732 307.957L224.904 308.129L225.122 308.238C225.151 308.253 225.182 308.268 225.214 308.284C225.754 308.556 226.652 309.008 227.629 309.008C227.637 309.008 227.646 309.008 227.656 309.008C227.807 309.009 228.096 309.01 228.447 308.893C228.592 308.845 228.724 308.785 228.83 308.735C228.895 308.704 228.969 308.668 229.048 308.628L242.909 305.615C245.786 305.112 246.944 302.281 246.55 299.917C246.066 297.011 243.22 295.841 240.846 296.236L240.806 296.243L240.767 296.252L231.215 298.374L229.101 288.858C228.596 285.984 225.767 284.827 223.404 285.22C220.498 285.705 219.327 288.55 219.723 290.925L219.729 290.961L219.737 290.997L222.797 305.073L222.814 305.152L222.839 305.228C223.259 306.486 224.09 307.316 224.673 307.898C224.693 307.918 224.713 307.938 224.732 307.957Z" fill="white" stroke="white" stroke-width="3"/>
<path d="M244.407 410.505L244.415 410.518L244.424 410.531C245.267 411.794 246.62 412.729 248.426 412.729C249.403 412.729 250.301 412.276 250.84 412.005C250.872 411.988 250.903 411.973 250.933 411.958L250.984 411.932L251.034 411.903C253.427 410.467 253.713 407.332 252.466 405.255L252.456 405.237L252.445 405.22L234.707 377.39C233.266 375.014 230.142 374.733 228.07 375.976C225.677 377.412 225.391 380.547 226.638 382.624L226.648 382.642L226.659 382.659L244.407 410.505Z" fill="white" stroke="white" stroke-width="3"/>
<path d="M256.379 426.772L256.537 426.806H256.698H256.698H256.698H256.698H256.698H256.698H256.698H256.698H256.698H256.698H256.698H256.698H256.699H256.699H256.699H256.699H256.699H256.699H256.699H256.699H256.7H256.7H256.7H256.7H256.7H256.7H256.701H256.701H256.701H256.701H256.701H256.702H256.702H256.702H256.702H256.703H256.703H256.703H256.703H256.704H256.704H256.704H256.704H256.705H256.705H256.705H256.706H256.706H256.706H256.707H256.707H256.707H256.708H256.708H256.708H256.709H256.709H256.71H256.71H256.71H256.711H256.711H256.712H256.712H256.712H256.713H256.713H256.714H256.714H256.715H256.715H256.716H256.716H256.717H256.717H256.718H256.718H256.719H256.719H256.72H256.72H256.721H256.721H256.722H256.722H256.723H256.723H256.724H256.725H256.725H256.726H256.726H256.727H256.728H256.728H256.729H256.729H256.73H256.731H256.731H256.732H256.733H256.733H256.734H256.734H256.735H256.736H256.737H256.737H256.738H256.739H256.739H256.74H256.741H256.741H256.742H256.743H256.744H256.744H256.745H256.746H256.747H256.747H256.748H256.749H256.75H256.75H256.751H256.752H256.753H256.754H256.754H256.755H256.756H256.757H256.758H256.759H256.759H256.76H256.761H256.762H256.763H256.764H256.765H256.765H256.766H256.767H256.768H256.769H256.77H256.771H256.772H256.773H256.773H256.774H256.775H256.776H256.777H256.778H256.779H256.78H256.781H256.782H256.783H256.784H256.785H256.786H256.787H256.788H256.789H256.79H256.791H256.792H256.793H256.794H256.795H256.796H256.797H256.798H256.799H256.8H256.801H256.802H256.803H256.804H256.805H256.806H256.808H256.809H256.81H256.811H256.812H256.813H256.814H256.815H256.816H256.817H256.819H256.82H256.821H256.822H256.823H256.824H256.825H256.827H256.828H256.829H256.83H256.831H256.832H256.834H256.835H256.836H256.837H256.838H256.839H256.841H256.842H256.843H256.844H256.845H256.847H256.848H256.849H256.85H256.852H256.853H256.854H256.855H256.857H256.858H256.859H256.86H256.862H256.863H256.864H256.865H256.867H256.868H256.869H256.871H256.872H256.873H256.875H256.876H256.877H256.878H256.88H256.881H256.882H256.884H256.885H256.886H256.888H256.889H256.89H256.892H256.893H256.895H256.896H256.897H256.899H256.9H256.901H256.903H256.904H256.905H256.907H256.908H256.91H256.911H256.912H256.914H256.915H256.917H256.918H256.92H256.921H256.922H256.924H256.925H256.927H256.928H256.93H256.931H256.932H256.934H256.935H256.937H256.938H256.94H256.941H256.943H256.944H256.946H256.947H256.949H256.95H256.951H256.953H256.954H256.956H256.957H256.959H256.96H256.962H256.963H256.965H256.966H256.968H256.969H256.971H256.973H256.974H256.976H256.977H256.979H256.98H256.982H256.983H256.985H256.986H256.988H256.989H256.991H256.993H256.994H256.996H256.997H256.999H257H257.002H257.004H257.005H257.007H257.008H257.01H257.011H257.013H257.015H257.016H257.018H257.019H257.021H257.023H257.024H257.026H257.027H257.029H257.031H257.032H257.034H257.036H257.037H257.039H257.04H257.042H257.044H257.045H257.047H257.049H257.05H257.052H257.054H257.055H257.057H257.058H257.06H257.062H257.063H257.065H257.067H257.068H257.07H257.072H257.073H257.075H257.077H257.078H257.08H257.082H257.083H257.085H257.087H257.089H257.09H257.092H257.094H257.095H257.097H257.099H257.1H257.102H257.104H257.105H257.107H257.109H257.111H257.112H257.114H257.116H257.117H257.119H257.121H257.123H257.124H257.126H257.128H257.129H257.131H257.133H257.135H257.136H257.138H257.14H257.141H257.143H257.145H257.147H257.148H257.15H257.152H257.154H257.155H257.157H257.159H257.161H257.162H257.164H257.166H257.168H257.169H257.171H257.173H257.175H257.176H257.178H257.18H257.182H257.183H257.185H257.187H257.189H257.19H257.192H257.194H257.196H257.197H257.199H257.201H257.203H257.205H257.206H257.208H257.21H257.212H257.213H257.215H257.217H257.219H257.22H257.222H257.224H257.226H257.228H257.229H257.231H257.233H257.235H257.237H257.238H257.24H257.242H257.244H257.245H257.247H257.249H257.251H257.253H257.254H257.256H257.258H257.26H257.261H257.263H257.265H257.267H257.269H257.27H257.272H257.274H257.276H257.278H257.279H257.281H257.283H257.285H257.287H257.288H257.29H257.292H257.294H257.296H257.297H257.299H257.301H257.303H257.304H257.306H257.308H257.31H257.316C257.971 426.806 258.777 426.806 259.926 426.423L260.117 426.359L260.284 426.248C260.881 425.849 261.339 425.409 261.694 424.876C262.037 424.362 262.24 423.827 262.405 423.332L262.43 423.255L262.448 423.176L265.492 409.172C266.339 406.469 264.547 403.844 261.957 403.345C259.239 402.511 256.606 404.341 256.144 406.962L254.029 416.478L244.546 414.371C241.842 413.521 239.215 415.313 238.715 417.905C237.881 420.624 239.713 423.258 242.336 423.719L256.379 426.772Z" fill="white" stroke="white" stroke-width="3"/>
<path d="M154.629 411.896L154.679 411.926L154.73 411.951C154.76 411.966 154.791 411.982 154.823 411.998C155.362 412.269 156.26 412.722 157.237 412.722C159.043 412.722 160.397 411.787 161.239 410.524L161.248 410.511L161.256 410.498L178.965 382.714C180.743 380.407 179.786 377.352 177.68 376.023C175.35 374.236 172.261 375.233 170.956 377.383L153.258 405.152C151.455 407.49 152.463 410.596 154.629 411.896Z" fill="white" stroke="white" stroke-width="3"/>
<path d="M145.466 425.745L145.638 425.917L145.856 426.026C145.886 426.041 145.917 426.057 145.949 426.073C146.488 426.344 147.386 426.797 148.363 426.797C148.371 426.797 148.381 426.797 148.39 426.797C148.541 426.797 148.831 426.798 149.181 426.681C149.326 426.633 149.458 426.573 149.564 426.523C149.63 426.492 149.703 426.456 149.783 426.417L163.643 423.404C166.52 422.9 167.678 420.07 167.285 417.706C166.8 414.8 163.955 413.629 161.58 414.025L161.541 414.032L161.502 414.04L151.95 416.163L149.835 406.647C149.33 403.772 146.501 402.615 144.138 403.009C141.232 403.493 140.062 406.339 140.457 408.713L140.463 408.749L140.471 408.785L143.531 422.861L143.548 422.94L143.574 423.017C143.993 424.275 144.824 425.104 145.408 425.687C145.427 425.707 145.447 425.726 145.466 425.745Z" fill="white" stroke="white" stroke-width="3"/>
</g>
</svg>
