<svg width="624" height="648" viewBox="0 0 624 648" fill="none" xmlns="http://www.w3.org/2000/svg">
<path d="M0 8C0 3.58172 3.58172 0 8 0H616C620.418 0 624 3.58172 624 8V424C624 547.712 523.712 648 400 648H7.99998C3.5817 648 0 644.418 0 640V8Z" fill="#451D00"/>
<mask id="mask0_5_2488" style="mask-type:alpha" maskUnits="userSpaceOnUse" x="0" y="0" width="624" height="648">
<path d="M0 8C0 3.58172 3.58172 0 8 0H616C620.418 0 624 3.58172 624 8V424C624 547.712 523.712 648 400 648H7.99998C3.5817 648 0 644.418 0 640V8Z" fill="#303030"/>
</mask>
<g mask="url(#mask0_5_2488)">
<g opacity="0.04">
<mask id="mask1_5_2488" style="mask-type:alpha" maskUnits="userSpaceOnUse" x="0" y="0" width="624" height="736">
<path d="M0 8C0 3.58172 3.58172 0 8 0H615.581C620 0 623.581 3.58172 623.581 8V511C623.581 634.712 523.293 735.001 399.581 735.001H8C3.58173 735.001 0 731.419 0 727.001V8Z" fill="#1C0606"/>
</mask>
<g mask="url(#mask1_5_2488)">
<line x1="1.23011" y1="-399.341" x2="1.23009" y2="734.037" stroke="white" stroke-width="2.46022"/>
<line x1="58.5455" y1="-399.344" x2="58.5455" y2="734.034" stroke="white" stroke-width="2.46022"/>
<line x1="115.855" y1="-399.344" x2="115.855" y2="734.034" stroke="white" stroke-width="2.46022"/>
<line x1="173.163" y1="-399.347" x2="173.163" y2="734.031" stroke="white" stroke-width="2.46022"/>
<line x1="230.473" y1="-399.347" x2="230.473" y2="734.031" stroke="white" stroke-width="2.46022"/>
<line x1="287.786" y1="-399.347" x2="287.786" y2="734.031" stroke="white" stroke-width="2.46022"/>
<line x1="345.098" y1="-399.347" x2="345.098" y2="734.031" stroke="white" stroke-width="2.46022"/>
<line x1="402.409" y1="-399.347" x2="402.409" y2="734.031" stroke="white" stroke-width="2.46022"/>
<line x1="459.721" y1="-399.347" x2="459.721" y2="734.031" stroke="white" stroke-width="2.46022"/>
<line x1="517.031" y1="-399.347" x2="517.031" y2="734.031" stroke="white" stroke-width="2.46022"/>
<line x1="574.341" y1="-399.347" x2="574.341" y2="734.031" stroke="white" stroke-width="2.46022"/>
<line x1="974.588" y1="0.879525" x2="0.00189195" y2="0.879461" stroke="white" stroke-width="2.46022"/>
<line x1="974.588" y1="67.4039" x2="0.00189195" y2="67.4039" stroke="white" stroke-width="2.46022"/>
<line x1="974.588" y1="133.902" x2="0.00189195" y2="133.902" stroke="white" stroke-width="2.46022"/>
<line x1="974.588" y1="200.4" x2="0.00189195" y2="200.4" stroke="white" stroke-width="2.46022"/>
<line x1="974.588" y1="266.902" x2="0.00189195" y2="266.902" stroke="white" stroke-width="2.46022"/>
<line x1="974.588" y1="333.403" x2="0.00189195" y2="333.403" stroke="white" stroke-width="2.46022"/>
<line x1="974.588" y1="400.382" x2="0.00189195" y2="400.382" stroke="white" stroke-width="2.46022"/>
<line x1="974.588" y1="467.363" x2="0.00189195" y2="467.363" stroke="white" stroke-width="2.46022"/>
<line x1="974.588" y1="534.322" x2="0.00189195" y2="534.322" stroke="white" stroke-width="2.46022"/>
<line x1="974.588" y1="601.303" x2="0.00189195" y2="601.303" stroke="white" stroke-width="2.46022"/>
</g>
</g>
</g>
<g opacity="0.04">
<path d="M105.17 337.216C105.17 344.603 111.171 350.72 118.674 350.72C126.065 350.72 132.178 344.603 132.178 337.104C132.178 329.717 126.177 323.6 118.674 323.6C111.169 323.6 105.17 329.72 105.17 337.216ZM108.434 337.216C108.434 331.613 113.071 326.976 118.674 326.976C124.28 326.976 128.914 331.504 128.914 337.216C128.914 342.819 124.277 347.456 118.674 347.456C113.071 347.456 108.434 342.819 108.434 337.216Z" fill="white" stroke="white" stroke-width="0.8"/>
<path d="M76.1596 380C76.1596 387.386 82.1604 393.504 89.6636 393.504C97.0525 393.504 103.168 387.388 103.168 380C103.168 372.611 97.0525 366.496 89.6636 366.496C82.2747 366.496 76.1596 372.611 76.1596 380ZM79.4236 380.112C79.4236 374.508 84.0605 369.872 89.6636 369.872C95.2694 369.872 99.9036 374.399 99.9036 380.112C99.9036 385.715 95.2667 390.352 89.6636 390.352C84.0605 390.352 79.4236 385.715 79.4236 380.112Z" fill="white" stroke="white" stroke-width="0.8"/>
<path d="M133.392 380C133.392 387.386 139.393 393.504 146.896 393.504C154.285 393.504 160.4 387.388 160.4 380C160.4 372.613 154.399 366.496 146.896 366.496C139.507 366.496 133.392 372.611 133.392 380ZM136.656 380.112C136.656 374.508 141.293 369.872 146.896 369.872C152.502 369.872 157.136 374.399 157.136 380.112C157.136 385.715 152.499 390.352 146.896 390.352C141.293 390.352 136.656 385.715 136.656 380.112Z" fill="white" stroke="white" stroke-width="0.8"/>
<path d="M104.16 422.896C104.16 430.283 110.16 436.4 117.664 436.4C125.052 436.4 131.168 430.285 131.168 422.896C131.168 415.509 125.167 409.392 117.664 409.392C110.275 409.392 104.16 415.507 104.16 422.896ZM107.424 422.896C107.424 417.293 112.06 412.656 117.664 412.656C123.267 412.656 127.904 417.293 127.904 422.896C127.904 428.499 123.267 433.136 117.664 433.136C112.06 433.136 107.424 428.499 107.424 422.896Z" fill="white" stroke="white" stroke-width="0.8"/>
<path d="M47.6 422.784C47.6 430.282 53.7129 436.4 61.104 436.4C68.6115 436.4 74.608 430.166 74.608 422.784C74.608 415.395 68.4929 409.28 61.104 409.28C53.7173 409.28 47.6 415.281 47.6 422.784ZM50.864 422.896C50.864 417.293 55.5009 412.656 61.104 412.656C66.7071 412.656 71.344 417.293 71.344 422.896C71.344 428.499 66.7071 433.136 61.104 433.136C55.5009 433.136 50.864 428.499 50.864 422.896Z" fill="white" stroke="white" stroke-width="0.8"/>
<path d="M133.683 360.947L133.683 360.948L133.688 360.954C133.973 361.382 134.425 361.692 135.028 361.692C135.033 361.692 135.037 361.692 135.042 361.692C135.265 361.692 135.616 361.692 135.947 361.385C136.7 360.9 136.795 359.876 136.379 359.182L136.38 359.182L136.373 359.172L130.216 349.545C129.741 348.76 128.695 348.654 127.991 349.077C127.2 349.551 127.094 350.6 127.517 351.306L127.517 351.306L127.523 351.315L133.683 360.947Z" fill="white" stroke="white" stroke-width="0.8"/>
<path d="M138.3 367.397L138.342 367.406H138.385H138.385H138.385H138.385H138.385H138.385H138.385H138.385H138.385H138.385H138.385H138.385H138.385H138.385H138.385H138.385H138.385H138.385H138.386H138.386H138.386H138.386H138.386H138.386H138.386H138.386H138.386H138.386H138.386H138.386H138.386H138.386H138.386H138.387H138.387H138.387H138.387H138.387H138.387H138.387H138.387H138.387H138.387H138.387H138.388H138.388H138.388H138.388H138.388H138.388H138.388H138.388H138.389H138.389H138.389H138.389H138.389H138.389H138.389H138.39H138.39H138.39H138.39H138.39H138.39H138.39H138.391H138.391H138.391H138.391H138.391H138.391H138.392H138.392H138.392H138.392H138.392H138.392H138.393H138.393H138.393H138.393H138.393H138.394H138.394H138.394H138.394H138.394H138.395H138.395H138.395H138.395H138.395H138.396H138.396H138.396H138.396H138.397H138.397H138.397H138.397H138.398H138.398H138.398H138.398H138.398H138.399H138.399H138.399H138.399H138.4H138.4H138.4H138.4H138.401H138.401H138.401H138.402H138.402H138.402H138.402H138.403H138.403H138.403H138.403H138.404H138.404H138.404H138.405H138.405H138.405H138.405H138.406H138.406H138.406H138.407H138.407H138.407H138.408H138.408H138.408H138.409H138.409H138.409H138.409H138.41H138.41H138.41H138.411H138.411H138.411H138.412H138.412H138.412H138.413H138.413H138.413H138.414H138.414H138.414H138.415H138.415H138.416H138.416H138.416H138.417H138.417H138.417H138.418H138.418H138.418H138.419H138.419H138.419H138.42H138.42H138.421H138.421H138.421H138.422H138.422H138.423H138.423H138.423H138.424H138.424H138.424H138.425H138.425H138.426H138.426H138.426H138.427H138.427H138.428H138.428H138.428H138.429H138.429H138.43H138.43H138.43H138.431H138.431H138.432H138.432H138.433H138.433H138.433H138.434H138.434H138.435H138.435H138.436H138.436H138.436H138.437H138.437H138.438H138.438H138.439H138.439H138.44H138.44H138.44H138.441H138.441H138.442H138.442H138.443H138.443H138.444H138.444H138.445H138.445H138.445H138.446H138.446H138.447H138.447H138.448H138.448H138.449H138.449H138.45H138.45H138.451H138.451H138.452H138.452H138.453H138.453H138.454H138.454H138.455H138.455H138.456H138.456H138.457H138.457H138.458H138.458H138.459H138.459H138.46H138.46H138.461H138.461H138.462H138.462H138.463H138.463H138.464H138.464H138.465H138.465H138.466H138.466H138.467H138.467H138.468H138.468H138.469H138.469H138.47H138.47H138.471H138.471H138.472H138.473H138.473H138.474H138.474H138.475H138.475H138.476H138.476H138.477H138.477H138.478H138.478H138.479H138.48H138.48H138.481H138.481H138.482H138.482H138.483H138.483H138.484H138.485H138.485H138.486H138.486H138.487H138.487H138.488H138.488H138.489H138.49H138.49H138.491H138.491H138.492H138.492H138.493H138.494H138.494H138.495H138.495H138.496H138.496H138.497H138.498H138.498H138.499H138.499H138.5H138.5H138.501H138.502H138.502H138.503H138.503H138.504H138.505H138.505H138.506H138.506H138.507H138.507H138.508H138.509H138.509H138.51H138.51H138.511H138.512H138.512H138.513H138.513H138.514H138.515H138.515H138.516H138.516H138.517H138.518H138.518H138.519H138.519H138.52H138.521H138.521H138.522H138.523H138.523H138.524H138.524H138.525H138.526H138.526H138.527H138.527H138.528H138.529H138.529H138.53H138.531H138.531H138.532H138.532H138.533H138.534H138.534H138.535H138.536H138.536H138.537H138.537H138.538H138.539H138.539H138.54H138.541H138.541H138.542H138.542H138.543H138.544H138.544H138.545H138.546H138.546H138.547H138.547H138.548H138.549H138.549H138.55H138.551H138.551H138.552H138.553H138.553H138.554H138.554H138.555H138.556H138.556H138.557H138.558H138.558H138.559H138.56H138.56H138.561H138.561H138.562H138.563H138.563H138.564H138.565H138.565H138.566H138.567H138.567H138.568H138.569H138.569H138.57H138.571H138.571H138.572H138.572H138.573H138.574H138.574H138.575H138.576H138.576H138.577H138.578H138.578H138.579H138.58H138.58H138.581H138.582H138.582H138.583H138.584H138.584H138.585H138.585H138.586H138.587H138.587H138.588H138.589H138.589H138.59H138.591H138.591H138.592H138.593H138.593H138.594H138.595H138.595H138.596H138.597H138.597H138.598H138.599H138.599H138.6H138.601H138.601H138.602H138.603H138.603H138.604H138.604H138.605H138.606H138.606H138.607H138.608H138.608H138.609H138.611C138.846 367.406 139.122 367.406 139.52 367.274L139.57 367.257L139.615 367.227C139.82 367.09 139.972 366.942 140.09 366.766C140.204 366.595 140.273 366.414 140.333 366.237L140.339 366.216L140.344 366.195L141.46 361.063C141.747 360.159 141.147 359.277 140.274 359.113C139.366 358.83 138.482 359.44 138.328 360.321L137.521 363.953L133.899 363.148C132.995 362.86 132.112 363.46 131.948 364.333C131.665 365.241 132.275 366.126 133.157 366.279L138.3 367.397Z" fill="white" stroke="white" stroke-width="0.8"/>
<path d="M101.11 361.977L101.123 361.985L101.137 361.992C101.147 361.996 101.157 362.001 101.167 362.006C101.368 362.108 101.667 362.258 101.988 362.258C102.55 362.258 103.052 361.977 103.245 361.475L109.707 351.338C110.303 350.57 109.986 349.543 109.273 349.097C108.499 348.498 107.462 348.826 107.023 349.552L100.652 359.723C100.051 360.499 100.381 361.539 101.11 361.977Z" fill="white" stroke="white" stroke-width="0.8"/>
<path d="M97.7851 367.068L97.831 367.114L97.889 367.143C97.8987 367.147 97.9086 367.152 97.9187 367.157C98.1199 367.258 98.4193 367.409 98.7399 367.409C98.7429 367.409 98.746 367.409 98.7492 367.409C98.8029 367.409 98.8877 367.409 98.9924 367.374C99.0568 367.353 99.1304 367.317 99.21 367.277L104.304 366.17C105.254 366.005 105.654 365.068 105.518 364.255C105.359 363.298 104.418 362.894 103.602 363.03L103.592 363.032L103.581 363.034L99.9396 363.844L99.1326 360.212C98.9675 359.262 98.0306 358.863 97.2182 358.998C96.2607 359.158 95.8574 360.099 95.9934 360.915L95.995 360.924L95.9971 360.934L97.1171 366.086L97.1216 366.107L97.1285 366.127C97.2706 366.554 97.5527 366.836 97.7677 367.05C97.7735 367.056 97.7793 367.062 97.7851 367.068Z" fill="white" stroke="white" stroke-width="0.8"/>
<path d="M105.007 404.628L105.007 404.628L105.011 404.634C105.297 405.063 105.749 405.373 106.352 405.373C106.673 405.373 106.972 405.222 107.173 405.121C107.184 405.116 107.193 405.111 107.203 405.106L107.217 405.099L107.23 405.092C108.02 404.617 108.127 403.569 107.703 402.863L107.703 402.863L107.697 402.854L101.204 392.666C100.729 391.88 99.6829 391.775 98.9784 392.198C98.1882 392.672 98.0816 393.72 98.5052 394.426L98.5051 394.426L98.5109 394.436L105.007 404.628Z" fill="white" stroke="white" stroke-width="0.8"/>
<path d="M109.295 410.516L109.337 410.525H109.38H109.38H109.38H109.38H109.38H109.38H109.38H109.38H109.38H109.38H109.38H109.38H109.38H109.38H109.38H109.38H109.38H109.38H109.38H109.38H109.38H109.38H109.38H109.38H109.38H109.381H109.381H109.381H109.381H109.381H109.381H109.381H109.381H109.381H109.381H109.381H109.381H109.382H109.382H109.382H109.382H109.382H109.382H109.382H109.382H109.382H109.382H109.383H109.383H109.383H109.383H109.383H109.383H109.383H109.383H109.384H109.384H109.384H109.384H109.384H109.384H109.384H109.385H109.385H109.385H109.385H109.385H109.385H109.386H109.386H109.386H109.386H109.386H109.386H109.387H109.387H109.387H109.387H109.387H109.387H109.388H109.388H109.388H109.388H109.388H109.389H109.389H109.389H109.389H109.389H109.39H109.39H109.39H109.39H109.391H109.391H109.391H109.391H109.391H109.392H109.392H109.392H109.392H109.393H109.393H109.393H109.393H109.394H109.394H109.394H109.394H109.395H109.395H109.395H109.395H109.396H109.396H109.396H109.396H109.397H109.397H109.397H109.398H109.398H109.398H109.398H109.399H109.399H109.399H109.4H109.4H109.4H109.4H109.401H109.401H109.401H109.402H109.402H109.402H109.403H109.403H109.403H109.403H109.404H109.404H109.404H109.405H109.405H109.405H109.406H109.406H109.406H109.407H109.407H109.407H109.408H109.408H109.408H109.409H109.409H109.409H109.41H109.41H109.411H109.411H109.411H109.412H109.412H109.412H109.413H109.413H109.413H109.414H109.414H109.414H109.415H109.415H109.416H109.416H109.416H109.417H109.417H109.418H109.418H109.418H109.419H109.419H109.419H109.42H109.42H109.421H109.421H109.421H109.422H109.422H109.423H109.423H109.423H109.424H109.424H109.425H109.425H109.426H109.426H109.426H109.427H109.427H109.428H109.428H109.429H109.429H109.429H109.43H109.43H109.431H109.431H109.432H109.432H109.432H109.433H109.433H109.434H109.434H109.435H109.435H109.436H109.436H109.436H109.437H109.437H109.438H109.438H109.439H109.439H109.44H109.44H109.441H109.441H109.442H109.442H109.442H109.443H109.443H109.444H109.444H109.445H109.445H109.446H109.446H109.447H109.447H109.448H109.448H109.449H109.449H109.45H109.45H109.451H109.451H109.452H109.452H109.453H109.453H109.454H109.454H109.455H109.455H109.456H109.456H109.457H109.457H109.458H109.458H109.459H109.459H109.46H109.46H109.461H109.461H109.462H109.462H109.463H109.463H109.464H109.465H109.465H109.466H109.466H109.467H109.467H109.468H109.468H109.469H109.469H109.47H109.47H109.471H109.471H109.472H109.473H109.473H109.474H109.474H109.475H109.475H109.476H109.476H109.477H109.477H109.478H109.479H109.479H109.48H109.48H109.481H109.481H109.482H109.482H109.483H109.484H109.484H109.485H109.485H109.486H109.486H109.487H109.488H109.488H109.489H109.489H109.49H109.49H109.491H109.492H109.492H109.493H109.493H109.494H109.494H109.495H109.496H109.496H109.497H109.497H109.498H109.499H109.499H109.5H109.5H109.501H109.502H109.502H109.503H109.503H109.504H109.505H109.505H109.506H109.506H109.507H109.507H109.508H109.509H109.509H109.51H109.51H109.511H109.512H109.512H109.513H109.514H109.514H109.515H109.515H109.516H109.517H109.517H109.518H109.518H109.519H109.52H109.52H109.521H109.521H109.522H109.523H109.523H109.524H109.525H109.525H109.526H109.526H109.527H109.528H109.528H109.529H109.53H109.53H109.531H109.531H109.532H109.533H109.533H109.534H109.535H109.535H109.536H109.536H109.537H109.538H109.538H109.539H109.54H109.54H109.541H109.541H109.542H109.543H109.543H109.544H109.545H109.545H109.546H109.547H109.547H109.548H109.548H109.549H109.55H109.55H109.551H109.552H109.552H109.553H109.554H109.554H109.555H109.555H109.556H109.557H109.557H109.558H109.559H109.559H109.56H109.561H109.561H109.562H109.563H109.563H109.564H109.565H109.565H109.566H109.566H109.567H109.568H109.568H109.569H109.57H109.57H109.571H109.572H109.572H109.573H109.574H109.574H109.575H109.576H109.576H109.577H109.578H109.578H109.579H109.579H109.58H109.581H109.581H109.582H109.583H109.583H109.584H109.585H109.585H109.586H109.587H109.587H109.588H109.589H109.589H109.59H109.591H109.591H109.592H109.593H109.593H109.594H109.595H109.595H109.596H109.596H109.597H109.598H109.598H109.599H109.6H109.6H109.601H109.602H109.602H109.603H109.604H109.605C109.841 410.525 110.117 410.525 110.514 410.392L110.565 410.375L110.61 410.346C110.815 410.209 110.967 410.061 111.085 409.885C111.199 409.713 111.268 409.533 111.327 409.355L111.334 409.335L111.339 409.314L112.454 404.181C112.741 403.278 112.142 402.395 111.268 402.232C110.361 401.949 109.477 402.558 109.323 403.44L108.516 407.072L104.893 406.266C103.989 405.979 103.106 406.579 102.943 407.452C102.66 408.36 103.27 409.245 104.152 409.398L109.295 410.516Z" fill="white" stroke="white" stroke-width="0.8"/>
<path d="M72.098 405.089L72.1112 405.097L72.1249 405.104C72.1346 405.109 72.1445 405.114 72.1546 405.119C72.3558 405.22 72.6552 405.37 72.9758 405.37C73.579 405.37 74.0312 405.06 74.3166 404.632L74.3167 404.632L74.3211 404.625L80.8064 394.45C81.4026 393.683 81.0862 392.655 80.3727 392.209C79.5992 391.611 78.5628 391.938 78.1238 392.663L71.6412 402.834C71.0386 403.61 71.3684 404.651 72.098 405.089Z" fill="white" stroke="white" stroke-width="0.8"/>
<path d="M68.7729 410.18L68.8188 410.226L68.8768 410.255C68.8865 410.26 68.8964 410.265 68.9065 410.27C69.1077 410.371 69.4071 410.522 69.7277 410.522C69.7307 410.522 69.7338 410.522 69.737 410.522C69.7907 410.522 69.8755 410.522 69.9802 410.487C70.0446 410.466 70.1182 410.43 70.1978 410.39L75.2918 409.282C76.2418 409.118 76.6417 408.181 76.5063 407.368C76.3467 406.41 75.4056 406.007 74.59 406.143L74.5794 406.145L74.5689 406.147L70.9274 406.956L70.1204 403.325C69.9553 402.375 69.0184 401.976 68.206 402.111C67.2485 402.271 66.8452 403.212 66.9812 404.027L66.9828 404.037L66.9848 404.047L68.1048 409.199L68.1094 409.22L68.1162 409.24C68.2584 409.666 68.5405 409.948 68.7554 410.163C68.7613 410.169 68.7671 410.175 68.7729 410.18Z" fill="white" stroke="white" stroke-width="0.8"/>
</g>
<g opacity="0.08">
<path d="M158 29.7998H41V131.2H158V29.7998ZM152.429 126.04H46.5714V34.9601H152.429V126.04Z" fill="white"/>
<path d="M73.593 85.6571L88.9144 70.1762L73.593 54.6953L69.5537 58.1785L81.393 70.1762L69.5537 82.1739L73.593 85.6571Z" fill="white"/>
<path d="M119.976 81.0161H90.0293V86.1764H119.976V81.0161Z" fill="white"/>
<path d="M144.769 42.0542H54.2329V118.943H144.769V42.0542ZM139.197 113.782H59.8043V47.2145H139.197V113.782Z" fill="white"/>
</g>
</svg>
