<svg width="64" height="59" viewBox="0 0 64 59" fill="none" xmlns="http://www.w3.org/2000/svg">
<g id="Group 317">
<path id="Rectangle 104" d="M30.8809 0.586426H63.3007V20.2901C63.3007 27.313 57.6075 33.0063 50.5845 33.0063H30.8809V0.586426Z" fill="#E43CFF"/>
<g id="Group 169">
<path id="Vector" d="M26.9424 31.9165H25.4504H20.9743C20.6444 31.9165 20.3774 32.1837 20.3774 32.5133V36.9894V38.4814C20.3774 38.811 20.6444 39.0783 20.9743 39.0783H23.9583H26.9424C27.2723 39.0783 27.5392 38.811 27.5392 38.4814V35.4974V32.5133C27.5392 32.1837 27.2723 31.9165 26.9424 31.9165ZM21.5711 33.1101H24.0096L21.5711 35.5487V33.1101ZM26.3456 37.8846H25.3991L26.3456 36.9381V37.8846ZM26.3456 35.2503L23.7112 37.8846H21.5711V37.2365L25.6975 33.1101H26.3456V35.2503Z" fill="#E43CFF"/>
<g id="Vector_2">
<mask id="path-3-outside-1_155_19" maskUnits="userSpaceOnUse" x="-0.019043" y="11.52" width="48" height="48" fill="black">
<rect fill="white" x="-0.019043" y="11.52" width="48" height="48"/>
<path d="M46.3387 12.52H40.3706C40.0407 12.52 39.7738 12.7872 39.7738 13.1168V15.5041H27.5391V13.1168C27.5391 12.7872 27.2722 12.52 26.9423 12.52H20.9742C20.6443 12.52 20.3774 12.7872 20.3774 13.1168V15.5041H8.14271V13.1168C8.14271 12.7872 7.87578 12.52 7.5459 12.52H1.57777C1.24789 12.52 0.980957 12.7872 0.980957 13.1168V19.085C0.980957 19.4145 1.24789 19.6818 1.57777 19.6818H3.96502V31.9164H1.57777C1.24789 31.9164 0.980957 32.1837 0.980957 32.5133V38.4814C0.980957 38.811 1.24789 39.0782 1.57777 39.0782H3.96502V51.3129H1.57777C1.24789 51.3129 0.980957 51.5801 0.980957 51.9097V57.8778C0.980957 58.2074 1.24789 58.4746 1.57777 58.4746H7.5459C7.87578 58.4746 8.14271 58.2074 8.14271 57.8778V55.4905H20.3774V57.8778C20.3774 58.2074 20.6443 58.4746 20.9742 58.4746H26.9423C27.2722 58.4746 27.5391 58.2074 27.5391 57.8778V55.4905H39.7738V57.8778C39.7738 58.2074 40.0407 58.4746 40.3706 58.4746H46.3387C46.6686 58.4746 46.9355 58.2074 46.9355 57.8778V51.9097C46.9355 51.5801 46.6686 51.3129 46.3387 51.3129H43.9515V39.0782H46.3387C46.6686 39.0782 46.9355 38.811 46.9355 38.4814V32.5133C46.9355 32.1837 46.6686 31.9164 46.3387 31.9164H43.9515V19.6818H46.3387C46.6686 19.6818 46.9355 19.4145 46.9355 19.085V13.1168C46.9355 12.7872 46.6686 12.52 46.3387 12.52ZM21.571 16.6977V15.5041V13.7136H26.3455V15.5041V16.6977V18.4881H21.571V16.6977ZM2.17458 18.4881V13.7136H6.94909V15.5041V16.6977V18.4881H5.15865H3.96502H2.17458ZM2.17458 37.8846V33.1101H3.96502H5.15865H6.94909V37.8846H5.15865H3.96502H2.17458ZM6.94909 54.2969V55.4905V57.281H2.17458V52.5065H3.96502H5.15865H6.94909V54.2969ZM26.3455 54.2969V55.4905V57.281H21.571V55.4905V54.2969V52.5065H26.3455V54.2969ZM39.7738 51.9097V54.2969H27.5391V51.9097C27.5391 51.5801 27.2722 51.3129 26.9423 51.3129H20.9742C20.6443 51.3129 20.3774 51.5801 20.3774 51.9097V54.2969H8.14271V51.9097C8.14271 51.5801 7.87578 51.3129 7.5459 51.3129H5.15865V39.0782H7.5459C7.87578 39.0782 8.14271 38.811 8.14271 38.4814V32.5133C8.14271 32.1837 7.87578 31.9164 7.5459 31.9164H5.15865V19.6818H7.5459C7.87578 19.6818 8.14271 19.4145 8.14271 19.085V16.6977H20.3774V19.085C20.3774 19.4145 20.6443 19.6818 20.9742 19.6818H26.9423C27.2722 19.6818 27.5391 19.4145 27.5391 19.085V16.6977H39.7738V19.085C39.7738 19.4145 40.0407 19.6818 40.3706 19.6818H42.7579V31.9164H40.3706C40.0407 31.9164 39.7738 32.1837 39.7738 32.5133V38.4814C39.7738 38.811 40.0407 39.0782 40.3706 39.0782H42.7579V51.3129H40.3706C40.0407 51.3129 39.7738 51.5801 39.7738 51.9097ZM45.7419 52.5065V57.281H40.9674V55.4905V54.2969V52.5065H42.7579H43.9515H45.7419ZM45.7419 33.1101V37.8846H43.9515H42.7579H40.9674V33.1101H42.7579H43.9515H45.7419ZM45.7419 18.4881H43.9515H42.7579H40.9674V16.6977V15.5041V13.7136H45.7419V18.4881Z"/>
</mask>
<path d="M46.3387 12.52H40.3706C40.0407 12.52 39.7738 12.7872 39.7738 13.1168V15.5041H27.5391V13.1168C27.5391 12.7872 27.2722 12.52 26.9423 12.52H20.9742C20.6443 12.52 20.3774 12.7872 20.3774 13.1168V15.5041H8.14271V13.1168C8.14271 12.7872 7.87578 12.52 7.5459 12.52H1.57777C1.24789 12.52 0.980957 12.7872 0.980957 13.1168V19.085C0.980957 19.4145 1.24789 19.6818 1.57777 19.6818H3.96502V31.9164H1.57777C1.24789 31.9164 0.980957 32.1837 0.980957 32.5133V38.4814C0.980957 38.811 1.24789 39.0782 1.57777 39.0782H3.96502V51.3129H1.57777C1.24789 51.3129 0.980957 51.5801 0.980957 51.9097V57.8778C0.980957 58.2074 1.24789 58.4746 1.57777 58.4746H7.5459C7.87578 58.4746 8.14271 58.2074 8.14271 57.8778V55.4905H20.3774V57.8778C20.3774 58.2074 20.6443 58.4746 20.9742 58.4746H26.9423C27.2722 58.4746 27.5391 58.2074 27.5391 57.8778V55.4905H39.7738V57.8778C39.7738 58.2074 40.0407 58.4746 40.3706 58.4746H46.3387C46.6686 58.4746 46.9355 58.2074 46.9355 57.8778V51.9097C46.9355 51.5801 46.6686 51.3129 46.3387 51.3129H43.9515V39.0782H46.3387C46.6686 39.0782 46.9355 38.811 46.9355 38.4814V32.5133C46.9355 32.1837 46.6686 31.9164 46.3387 31.9164H43.9515V19.6818H46.3387C46.6686 19.6818 46.9355 19.4145 46.9355 19.085V13.1168C46.9355 12.7872 46.6686 12.52 46.3387 12.52ZM21.571 16.6977V15.5041V13.7136H26.3455V15.5041V16.6977V18.4881H21.571V16.6977ZM2.17458 18.4881V13.7136H6.94909V15.5041V16.6977V18.4881H5.15865H3.96502H2.17458ZM2.17458 37.8846V33.1101H3.96502H5.15865H6.94909V37.8846H5.15865H3.96502H2.17458ZM6.94909 54.2969V55.4905V57.281H2.17458V52.5065H3.96502H5.15865H6.94909V54.2969ZM26.3455 54.2969V55.4905V57.281H21.571V55.4905V54.2969V52.5065H26.3455V54.2969ZM39.7738 51.9097V54.2969H27.5391V51.9097C27.5391 51.5801 27.2722 51.3129 26.9423 51.3129H20.9742C20.6443 51.3129 20.3774 51.5801 20.3774 51.9097V54.2969H8.14271V51.9097C8.14271 51.5801 7.87578 51.3129 7.5459 51.3129H5.15865V39.0782H7.5459C7.87578 39.0782 8.14271 38.811 8.14271 38.4814V32.5133C8.14271 32.1837 7.87578 31.9164 7.5459 31.9164H5.15865V19.6818H7.5459C7.87578 19.6818 8.14271 19.4145 8.14271 19.085V16.6977H20.3774V19.085C20.3774 19.4145 20.6443 19.6818 20.9742 19.6818H26.9423C27.2722 19.6818 27.5391 19.4145 27.5391 19.085V16.6977H39.7738V19.085C39.7738 19.4145 40.0407 19.6818 40.3706 19.6818H42.7579V31.9164H40.3706C40.0407 31.9164 39.7738 32.1837 39.7738 32.5133V38.4814C39.7738 38.811 40.0407 39.0782 40.3706 39.0782H42.7579V51.3129H40.3706C40.0407 51.3129 39.7738 51.5801 39.7738 51.9097ZM45.7419 52.5065V57.281H40.9674V55.4905V54.2969V52.5065H42.7579H43.9515H45.7419ZM45.7419 33.1101V37.8846H43.9515H42.7579H40.9674V33.1101H42.7579H43.9515H45.7419ZM45.7419 18.4881H43.9515H42.7579H40.9674V16.6977V15.5041V13.7136H45.7419V18.4881Z" fill="white"/>
<path d="M46.3387 12.52H40.3706C40.0407 12.52 39.7738 12.7872 39.7738 13.1168V15.5041H27.5391V13.1168C27.5391 12.7872 27.2722 12.52 26.9423 12.52H20.9742C20.6443 12.52 20.3774 12.7872 20.3774 13.1168V15.5041H8.14271V13.1168C8.14271 12.7872 7.87578 12.52 7.5459 12.52H1.57777C1.24789 12.52 0.980957 12.7872 0.980957 13.1168V19.085C0.980957 19.4145 1.24789 19.6818 1.57777 19.6818H3.96502V31.9164H1.57777C1.24789 31.9164 0.980957 32.1837 0.980957 32.5133V38.4814C0.980957 38.811 1.24789 39.0782 1.57777 39.0782H3.96502V51.3129H1.57777C1.24789 51.3129 0.980957 51.5801 0.980957 51.9097V57.8778C0.980957 58.2074 1.24789 58.4746 1.57777 58.4746H7.5459C7.87578 58.4746 8.14271 58.2074 8.14271 57.8778V55.4905H20.3774V57.8778C20.3774 58.2074 20.6443 58.4746 20.9742 58.4746H26.9423C27.2722 58.4746 27.5391 58.2074 27.5391 57.8778V55.4905H39.7738V57.8778C39.7738 58.2074 40.0407 58.4746 40.3706 58.4746H46.3387C46.6686 58.4746 46.9355 58.2074 46.9355 57.8778V51.9097C46.9355 51.5801 46.6686 51.3129 46.3387 51.3129H43.9515V39.0782H46.3387C46.6686 39.0782 46.9355 38.811 46.9355 38.4814V32.5133C46.9355 32.1837 46.6686 31.9164 46.3387 31.9164H43.9515V19.6818H46.3387C46.6686 19.6818 46.9355 19.4145 46.9355 19.085V13.1168C46.9355 12.7872 46.6686 12.52 46.3387 12.52ZM21.571 16.6977V15.5041V13.7136H26.3455V15.5041V16.6977V18.4881H21.571V16.6977ZM2.17458 18.4881V13.7136H6.94909V15.5041V16.6977V18.4881H5.15865H3.96502H2.17458ZM2.17458 37.8846V33.1101H3.96502H5.15865H6.94909V37.8846H5.15865H3.96502H2.17458ZM6.94909 54.2969V55.4905V57.281H2.17458V52.5065H3.96502H5.15865H6.94909V54.2969ZM26.3455 54.2969V55.4905V57.281H21.571V55.4905V54.2969V52.5065H26.3455V54.2969ZM39.7738 51.9097V54.2969H27.5391V51.9097C27.5391 51.5801 27.2722 51.3129 26.9423 51.3129H20.9742C20.6443 51.3129 20.3774 51.5801 20.3774 51.9097V54.2969H8.14271V51.9097C8.14271 51.5801 7.87578 51.3129 7.5459 51.3129H5.15865V39.0782H7.5459C7.87578 39.0782 8.14271 38.811 8.14271 38.4814V32.5133C8.14271 32.1837 7.87578 31.9164 7.5459 31.9164H5.15865V19.6818H7.5459C7.87578 19.6818 8.14271 19.4145 8.14271 19.085V16.6977H20.3774V19.085C20.3774 19.4145 20.6443 19.6818 20.9742 19.6818H26.9423C27.2722 19.6818 27.5391 19.4145 27.5391 19.085V16.6977H39.7738V19.085C39.7738 19.4145 40.0407 19.6818 40.3706 19.6818H42.7579V31.9164H40.3706C40.0407 31.9164 39.7738 32.1837 39.7738 32.5133V38.4814C39.7738 38.811 40.0407 39.0782 40.3706 39.0782H42.7579V51.3129H40.3706C40.0407 51.3129 39.7738 51.5801 39.7738 51.9097ZM45.7419 52.5065V57.281H40.9674V55.4905V54.2969V52.5065H42.7579H43.9515H45.7419ZM45.7419 33.1101V37.8846H43.9515H42.7579H40.9674V33.1101H42.7579H43.9515H45.7419ZM45.7419 18.4881H43.9515H42.7579H40.9674V16.6977V15.5041V13.7136H45.7419V18.4881Z" stroke="white" mask="url(#path-3-outside-1_155_19)"/>
</g>
</g>
</g>
</svg>
