<svg width="46" height="59" viewBox="0 0 46 59" fill="none" xmlns="http://www.w3.org/2000/svg">
<path d="M32.5293 0.188965H0.480808V19.6669C0.480808 26.6094 6.10883 32.2375 13.0514 32.2375H32.5293V0.188965Z" fill="#FF4167"/>
<path d="M21.9202 14.75C18.9506 14.75 16.5044 17.1962 16.5044 20.1658V52.6609C16.5044 55.6306 18.9506 58.0768 21.9202 58.0768H39.9731C42.9428 58.0768 45.3889 55.6306 45.3889 52.6609V20.1658C45.3889 17.1962 42.9428 14.75 39.9731 14.75H21.9202ZM21.9202 18.3606H39.9731C40.975 18.3606 41.7784 19.1639 41.7784 20.1658V52.6609C41.7784 53.6629 40.975 54.4662 39.9731 54.4662H21.9202C20.9183 54.4662 20.115 53.6629 20.115 52.6609V20.1658C20.115 19.1639 20.9183 18.3606 21.9202 18.3606ZM30.9467 49.0504C29.9538 49.0504 29.1414 49.8628 29.1414 50.8557C29.1414 51.8486 29.9538 52.6609 30.9467 52.6609C31.9396 52.6609 32.7519 51.8486 32.7519 50.8557C32.7519 49.8628 31.9396 49.0504 30.9467 49.0504Z" fill="white"/>
<circle cx="30.9465" cy="49.4319" r="3.94459" fill="#FF4167"/>
</svg>
