<svg width="55" height="59" viewBox="0 0 55 59" fill="none" xmlns="http://www.w3.org/2000/svg">
<g id="Group 321">
<path id="Rectangle 105" d="M32.5293 0.586426H0.480808V20.0644C0.480808 27.0069 6.10883 32.6349 13.0514 32.6349H32.5293V0.586426Z" fill="#5A34F2"/>
<g id="user research-research-user-search-data-analytic-ux">
<path id="Vector" d="M32.9116 37.0232V41.3493H34.4705V37.0232C34.4702 35.9956 34.2 34.986 33.6871 34.0955C33.1741 33.205 32.4363 32.4648 31.5475 31.9489C32.1538 31.1541 32.5259 30.2057 32.6218 29.2106C32.7177 28.2156 32.5336 27.2135 32.0902 26.3176C31.6468 25.4217 30.9618 24.6675 30.1125 24.1402C29.2632 23.6129 28.2835 23.3335 27.2838 23.3335C26.2842 23.3335 25.3044 23.6129 24.4551 24.1402C23.6059 24.6675 22.9209 25.4217 22.4775 26.3176C22.0341 27.2135 21.8499 28.2156 21.9458 29.2106C22.0417 30.2057 22.4138 31.1541 23.0201 31.9489C22.1304 32.4644 21.3915 33.2043 20.8772 34.0947C20.3629 34.9852 20.0913 35.9949 20.0894 37.0232V41.3493H21.6483V37.0232C21.6476 36.191 21.887 35.3763 22.3377 34.6768C22.7884 33.9772 23.4313 33.4225 24.1893 33.0791L24.3998 33.2038C24.5167 33.2818 24.6414 33.3519 24.7584 33.4143C24.867 33.4726 24.9789 33.5247 25.0935 33.5702C25.2764 33.6555 25.4638 33.731 25.6547 33.7962C26.7014 34.1497 27.8351 34.1497 28.8817 33.7962C29.0758 33.7324 29.2658 33.6569 29.4507 33.5702C29.5628 33.5246 29.6721 33.4726 29.7781 33.4143C29.9019 33.3517 30.0217 33.2814 30.1367 33.2038L30.3549 33.0791C31.1165 33.4194 31.7632 33.9729 32.2169 34.6729C32.6706 35.3728 32.9119 36.1891 32.9116 37.0232ZM29.7469 31.567C29.2276 31.9915 28.6075 32.2749 27.9466 32.3896C27.2857 32.5043 26.6063 32.4465 25.9743 32.2217C25.5534 32.075 25.1625 31.8532 24.8207 31.567C24.2299 31.0632 23.8078 30.3903 23.6114 29.6391C23.4149 28.888 23.4535 28.0946 23.722 27.3661C23.9904 26.6375 24.4758 26.0088 25.1127 25.5648C25.7496 25.1207 26.5074 24.8826 27.2838 24.8826C28.0603 24.8826 28.818 25.1207 29.4549 25.5648C30.0918 26.0088 30.5772 26.6375 30.8457 27.3661C31.1142 28.0946 31.1528 28.888 30.9563 29.6391C30.7598 30.3903 30.3377 31.0632 29.7469 31.567Z" fill="white"/>
<path id="Vector_2" d="M15.5056 42.004C13.5734 39.4277 12.5335 36.2918 12.5437 33.0713C12.5484 30.6764 13.1288 28.3176 14.2358 26.1939C15.3429 24.0701 16.9443 22.2436 18.905 20.8682C20.8656 19.4928 23.1282 18.6089 25.502 18.2909C27.8758 17.9729 30.2912 18.2301 32.5448 19.041L33.0748 17.5756C29.7418 16.3826 26.1136 16.2931 22.7258 17.3203C19.3381 18.3475 16.3705 20.437 14.2613 23.2801C12.1522 26.1232 11.0132 29.5692 11.0127 33.1093C11.0122 36.6493 12.1501 40.0957 14.2585 42.9394L15.5056 42.004Z" fill="white"/>
<path id="Vector_3" d="M43.3252 46.7354L42.3743 47.6864L39.2564 44.5685C42.259 41.4826 43.9372 37.3458 43.9332 33.0402C43.9322 32.1737 43.8645 31.3085 43.7306 30.4524L42.1716 30.7018C42.2965 31.475 42.359 32.257 42.3587 33.0402C42.3695 36.508 41.1751 39.8718 38.9798 42.5562C36.7845 45.2407 33.7247 47.0789 30.3237 47.7565L30.6199 49.3155C33.3951 48.7842 35.9845 47.5405 38.134 45.7065L41.2519 48.8244L40.3009 49.7754C39.8973 50.1814 39.6707 50.7306 39.6707 51.3031C39.6707 51.8756 39.8973 52.4249 40.3009 52.8309L45.9364 58.4742L47.0433 57.3674L41.3844 51.7006C41.2835 51.5867 41.2279 51.4397 41.2279 51.2875C41.2279 51.1353 41.2835 50.9884 41.3844 50.8744L44.4243 47.8345C44.5382 47.7212 44.6923 47.6576 44.853 47.6576C45.0136 47.6576 45.1678 47.7212 45.2817 47.8345L51.7435 54.3041L52.8503 53.2128L46.3807 46.7432C45.9758 46.3386 45.4271 46.1106 44.8546 46.1091C44.2821 46.1077 43.7323 46.3328 43.3252 46.7354Z" fill="white"/>
<path id="Vector_4" d="M53.8558 18.1367H35.1486C34.9419 18.1367 34.7436 18.2188 34.5974 18.365C34.4513 18.5112 34.3691 18.7095 34.3691 18.9162V28.2698C34.3691 28.4765 34.4513 28.6748 34.5974 28.8209C34.7436 28.9671 34.9419 29.0492 35.1486 29.0492H53.8558C54.0625 29.0492 54.2608 28.9671 54.407 28.8209C54.5531 28.6748 54.6353 28.4765 54.6353 28.2698V18.9162C54.6353 18.7095 54.5531 18.5112 54.407 18.365C54.2608 18.2188 54.0625 18.1367 53.8558 18.1367ZM53.0763 27.4903H35.9281V19.6957H53.0763V27.4903Z" fill="white"/>
<path id="Vector_5" d="M51.5172 21.2546H37.4868V22.8136H51.5172V21.2546Z" fill="white"/>
<path id="Vector_6" d="M45.2815 24.3726H37.4868V25.9315H45.2815V24.3726Z" fill="white"/>
<path id="Vector_7" d="M51.5171 24.3726H46.8403V25.9315H51.5171V24.3726Z" fill="white"/>
<path id="Vector_8" d="M27.3538 43.8591H8.64665C8.43993 43.8591 8.24167 43.9413 8.09549 44.0874C7.94931 44.2336 7.86719 44.4319 7.86719 44.6386V53.9922C7.86719 54.1989 7.94931 54.3972 8.09549 54.5434C8.24167 54.6895 8.43993 54.7717 8.64665 54.7717H27.3538C27.5606 54.7717 27.7588 54.6895 27.905 54.5434C28.0512 54.3972 28.1333 54.1989 28.1333 53.9922V44.6386C28.1333 44.4319 28.0512 44.2336 27.905 44.0874C27.7588 43.9413 27.5606 43.8591 27.3538 43.8591ZM26.5744 53.2127H9.42612V45.4181H26.5744V53.2127Z" fill="#8060FF"/>
<path id="Vector_9" d="M25.0153 46.9771H10.9849V48.536H25.0153V46.9771Z" fill="#8060FF"/>
<path id="Vector_10" d="M18.7795 50.095H10.9849V51.6539H18.7795V50.095Z" fill="#8060FF"/>
<path id="Vector_11" d="M25.0157 50.095H20.3389V51.6539H25.0157V50.095Z" fill="#8060FF"/>
</g>
</g>
</svg>
