<svg width="67" height="59" viewBox="0 0 67 59" fill="none" xmlns="http://www.w3.org/2000/svg">
<path d="M33.8809 0.188965H66.3007V19.8926C66.3007 26.9156 60.6075 32.6088 53.5845 32.6088H33.8809V0.188965Z" fill="#FF9A3C"/>
<path d="M6.79347 12.5015C3.27696 12.5015 0.42627 15.3522 0.42627 18.8687V43.6673C0.42627 47.1838 3.27696 50.0345 6.79347 50.0345H47.6776C51.1941 50.0345 54.0448 47.1838 54.0448 43.6673V18.8687C54.0448 15.3522 51.1941 12.5015 47.6776 12.5015H6.79347ZM3.77743 18.8687C3.77743 17.203 5.12776 15.8526 6.79347 15.8526H47.6776C49.3433 15.8526 50.6937 17.203 50.6937 18.8687V43.6673C50.6937 45.333 49.3433 46.6833 47.6776 46.6833H6.79347C5.12776 46.6833 3.77743 45.333 3.77743 43.6673V18.8687ZM10.1446 54.7261C9.21924 54.7261 8.46905 55.4763 8.46905 56.4017C8.46905 57.3271 9.21924 58.0772 10.1446 58.0772H44.3265C45.2519 58.0772 46.002 57.3271 46.002 56.4017C46.002 55.4763 45.2519 54.7261 44.3265 54.7261H10.1446Z" fill="white"/>
<path d="M8.79443 56.0664H45.8149" stroke="#FF9A3C" stroke-width="4.02139" stroke-linecap="round"/>
</svg>
