<svg width="59" height="78" viewBox="0 0 59 78" fill="none" xmlns="http://www.w3.org/2000/svg">
<g id="Group 330">
<path id="Rectangle 161" d="M37.1152 37.4668H0.542969V19.2503C0.542969 9.11269 8.76113 0.894531 18.8987 0.894531H37.1152V37.4668Z" fill="#A94CFF"/>
<path id="Vector" d="M52.6182 30.4035L58.3228 21.5705C58.6909 20.9571 58.6295 20.1597 58.1388 19.7303C57.6481 19.2396 56.8507 19.1169 56.2986 19.5463L47.4656 25.2509C36.0564 16.418 19.4946 17.2154 9.06684 27.7045C-1.4223 38.1937 -2.21972 54.6941 6.61324 66.1033L0.908624 74.9363C0.540585 75.5497 0.601922 76.3471 1.09264 76.7765C1.58336 77.2672 2.38078 77.3899 2.93284 76.9605L11.7658 71.2559C23.175 80.0889 39.7368 79.2914 50.1646 68.8023C60.6537 58.3132 61.4512 41.8127 52.6182 30.4035ZM52.0661 25.7416L41.393 42.3648C40.7796 41.0766 39.9208 39.9112 38.9394 38.9297C37.958 37.9483 36.7312 37.0895 35.5044 36.4761L52.0661 25.7416ZM36.7312 55.3689C32.7441 59.3559 26.3647 59.3559 22.4389 55.3689C18.4518 51.3818 18.4518 45.0024 22.4389 41.0766C26.426 37.0895 32.8054 37.0895 36.7312 41.0766C40.6569 45.0024 40.6569 51.4431 36.7312 55.3689ZM11.0911 29.7287C20.2307 20.5891 34.5229 19.669 44.644 26.9071L31.6399 35.2493C27.6528 34.5746 23.359 35.8014 20.2307 38.9297C17.1024 42.0581 15.8756 46.2905 16.5503 50.339L8.20808 63.3431C1.0313 53.0993 1.9514 38.8071 11.0911 29.7287ZM7.10396 70.7038L17.7771 54.0807C18.3905 55.3689 19.2493 56.5343 20.2307 57.5158C21.2735 58.5585 22.4389 59.356 23.6657 59.9694L7.10396 70.7038ZM48.0177 66.6554C38.8781 75.7951 24.5858 76.7152 14.4648 69.477L27.4688 61.1348C31.4559 61.8095 35.7497 60.5827 38.8781 57.4544C42.0064 54.3261 43.2332 50.0936 42.5585 46.0452L50.9007 33.0411C58.0775 43.2849 57.1574 57.5771 48.0177 66.6554Z" fill="white"/>
</g>
</svg>
