<svg width="384" height="375" viewBox="0 0 384 375" fill="none" xmlns="http://www.w3.org/2000/svg">
<path opacity="0.04" d="M384.169 28.7736L426.254 -36.3735C428.969 -40.8976 428.516 -46.7789 424.896 -49.9458C421.276 -53.5651 415.393 -54.47 411.32 -51.3031L346.158 -9.22886C261.99 -74.3759 139.81 -68.4946 62.8823 8.86755C-14.4982 86.2297 -20.3809 207.928 44.7816 292.076L2.69751 357.224C-0.0175885 361.748 0.434908 367.629 4.05505 370.796C7.67518 374.415 13.5579 375.32 17.6306 372.153L82.793 330.079C166.961 395.226 289.141 389.345 366.069 311.982C443.449 234.62 449.332 112.922 384.169 28.7736ZM380.097 -5.60963L301.359 116.994C296.834 107.493 290.498 98.8971 283.258 91.6586C276.018 84.42 266.967 78.0863 257.917 73.5622L380.097 -5.60963ZM266.967 212.905C237.554 242.311 190.492 242.311 161.531 212.905C132.117 183.498 132.117 136.447 161.531 107.493C190.945 78.0863 238.006 78.0863 266.967 107.493C295.929 136.447 295.929 183.95 266.967 212.905ZM77.8154 23.797C145.24 -43.6121 250.677 -50.3983 325.342 2.98613L229.409 64.514C199.995 59.5375 168.319 68.5856 145.24 91.6586C122.162 114.732 113.112 145.948 118.089 175.807L56.547 271.718C3.60252 196.165 10.3903 90.7538 77.8154 23.797ZM48.4017 326.007L127.14 203.404C131.665 212.905 138 221.5 145.24 228.739C152.933 236.43 161.531 242.311 170.581 246.835L48.4017 326.007ZM350.231 296.148C282.806 363.557 177.369 370.343 102.704 316.959L198.637 255.431C228.051 260.408 259.727 251.359 282.806 228.287C305.884 205.214 314.934 173.997 309.957 144.138L371.499 48.2272C424.443 123.78 417.656 229.191 350.231 296.148Z" fill="white"/>
</svg>
