<svg width="58" height="76" viewBox="0 0 58 76" fill="none" xmlns="http://www.w3.org/2000/svg">
<path d="M36 36H0V18C0 8.05887 8.05887 0 18 0H36V36Z" fill="#E5C200"/>
<path d="M51.9449 29.1947L57.6353 20.3839C58.0024 19.772 57.9412 18.9766 57.4517 18.5483C56.9622 18.0588 56.1668 17.9364 55.6161 18.3647L46.8053 24.0551C35.4246 15.2442 18.9042 16.0397 8.50254 26.5025C-1.96035 36.9654 -2.75577 53.4246 6.05508 64.8053L0.364741 73.6161C-0.00237821 74.228 0.0588055 75.0234 0.548297 75.4517C1.03779 75.9412 1.83321 76.0636 2.38389 75.6353L11.1947 69.9449C22.5754 78.7558 39.0958 77.9604 49.4975 67.4975C59.9603 57.0346 60.7558 40.5754 51.9449 29.1947ZM51.3942 24.5446L40.7478 41.1261C40.1359 39.8412 39.2793 38.6786 38.3003 37.6997C37.3214 36.7207 36.0976 35.8641 34.8739 35.2522L51.3942 24.5446ZM36.0976 54.0976C32.1205 58.0748 25.7571 58.0748 21.8412 54.0976C17.8641 50.1205 17.8641 43.7571 21.8412 39.8412C25.8183 35.8641 32.1817 35.8641 36.0976 39.8412C40.0136 43.7571 40.0136 50.1817 36.0976 54.0976ZM10.5217 28.5217C19.6385 19.4049 33.8949 18.4871 43.9907 25.7071L31.0192 34.0285C27.042 33.3554 22.759 34.5791 19.6385 37.6997C16.518 40.8202 15.2942 45.042 15.9673 49.0803L7.64593 62.0519C0.48711 51.8337 1.40491 37.5773 10.5217 28.5217ZM6.54457 69.3943L17.191 52.8127C17.8029 54.0976 18.6595 55.2602 19.6385 56.2392C20.6786 57.2793 21.8412 58.0748 23.0649 58.6866L6.54457 69.3943ZM47.3559 65.3559C38.2392 74.4727 23.9827 75.3905 13.8869 68.1705L26.8585 59.8492C30.8356 60.5222 35.1186 59.2985 38.2392 56.178C41.3597 53.0575 42.5834 48.8356 41.9103 44.7973L50.2317 31.8257C57.3905 42.0439 56.4727 56.3003 47.3559 65.3559Z" fill="#E0E0E0"/>
</svg>
