<svg width="98" height="102" viewBox="0 0 98 102" fill="none" xmlns="http://www.w3.org/2000/svg">
<g id="Group 329">
<path id="Rectangle 160" d="M97.6445 51.8628H45.9622V18.5362C45.9622 8.39859 54.1803 0.180435 64.3179 0.180435H97.6445V51.8628Z" fill="#A94CFF"/>
<g id="Group 211">
<path id="Vector" d="M70.3635 23.0396C70.1781 22.8806 69.951 22.7781 69.7091 22.7442C69.4671 22.7104 69.2206 22.7467 68.9987 22.8487C68.7767 22.9507 68.5887 23.1143 68.4569 23.3199C68.3251 23.5256 68.2551 23.7647 68.2551 24.009V26.564H58.0349C57.8671 26.5639 57.7009 26.5969 57.5459 26.6611C57.3908 26.7252 57.2499 26.8193 57.1313 26.938C57.0126 27.0566 56.9185 27.1975 56.8544 27.3526C56.7902 27.5076 56.7572 27.6738 56.7573 27.8416V35.5067C56.7572 35.6745 56.7902 35.8407 56.8544 35.9957C56.9185 36.1508 57.0126 36.2916 57.1313 36.4103C57.2499 36.5289 57.3908 36.623 57.5458 36.6872C57.7009 36.7514 57.8671 36.7843 58.0349 36.7843H68.2551V39.3393C68.2549 39.5836 68.3249 39.8229 68.4566 40.0287C68.5884 40.2344 68.7764 40.398 68.9984 40.5001C69.2204 40.6022 69.4671 40.6384 69.709 40.6045C69.951 40.5705 70.1781 40.4679 70.3635 40.3087L79.3062 32.6435C79.4462 32.5238 79.5587 32.3751 79.6358 32.2078C79.7129 32.0405 79.7528 31.8584 79.7528 31.6741C79.7528 31.4899 79.7129 31.3078 79.6358 31.1405C79.5587 30.9731 79.4462 30.8245 79.3062 30.7048L70.3635 23.0396ZM70.8101 36.5622V35.5067C70.8102 35.3389 70.7772 35.1728 70.7131 35.0177C70.6489 34.8627 70.5548 34.7218 70.4362 34.6032C70.3175 34.4845 70.1766 34.3904 70.0216 34.3262C69.8666 34.2621 69.7004 34.2291 69.5326 34.2292H59.3124V29.1191H69.5326C69.7004 29.1192 69.8666 29.0862 70.0216 29.022C70.1767 28.9579 70.3175 28.8638 70.4362 28.7451C70.5548 28.6265 70.6489 28.4856 70.7131 28.3306C70.7773 28.1755 70.8102 28.0093 70.8101 27.8416V26.7861L76.5129 31.6741L70.8101 36.5622Z" fill="white"/>
<path id="Vector_2" d="M9.93425 40.3087C10.1197 40.4678 10.3468 40.5703 10.5887 40.6041C10.8306 40.6379 11.0772 40.6017 11.2991 40.4996C11.521 40.3976 11.7091 40.234 11.8408 40.0284C11.9726 39.8227 12.0427 39.5836 12.0427 39.3393V36.7843H22.2629C22.4307 36.7843 22.5969 36.7514 22.7519 36.6872C22.9069 36.623 23.0478 36.5289 23.1665 36.4103C23.2851 36.2916 23.3792 36.1508 23.4434 35.9957C23.5075 35.8407 23.5405 35.6745 23.5404 35.5067V27.8416C23.5405 27.6738 23.5075 27.5076 23.4434 27.3526C23.3792 27.1975 23.2851 27.0566 23.1665 26.938C23.0478 26.8193 22.9069 26.7252 22.7519 26.6611C22.5969 26.5969 22.4307 26.5639 22.2629 26.564H12.0427V24.009C12.0427 23.7647 11.9726 23.5256 11.8408 23.3199C11.709 23.1143 11.521 22.9507 11.2991 22.8487C11.0771 22.7467 10.8306 22.7104 10.5887 22.7442C10.3468 22.7781 10.1197 22.8806 9.93425 23.0396L0.991558 30.7048C0.851503 30.8245 0.739054 30.9731 0.661951 31.1405C0.584847 31.3078 0.544922 31.4899 0.544922 31.6741C0.544922 31.8584 0.584847 32.0405 0.661951 32.2078C0.739054 32.3751 0.851503 32.5238 0.991558 32.6435L9.93425 40.3087ZM9.48762 26.7861V27.8416C9.48752 28.0094 9.5205 28.1755 9.58467 28.3306C9.64883 28.4856 9.74293 28.6265 9.86158 28.7451C9.98023 28.8638 10.1211 28.9579 10.2761 29.022C10.4312 29.0862 10.5974 29.1192 10.7651 29.1191H20.9854V34.2292H10.7651C10.5974 34.2291 10.4312 34.2621 10.2761 34.3263C10.1211 34.3904 9.98023 34.4845 9.86158 34.6032C9.74294 34.7218 9.64884 34.8627 9.58467 35.0177C9.5205 35.1728 9.48752 35.3389 9.48762 35.5067V36.5622L3.7849 31.6741L9.48762 26.7861Z" fill="white"/>
<path id="Vector_3" d="M41.4252 31.5239H38.8701C38.1928 31.5248 37.5434 31.7943 37.0644 32.2733C36.5854 32.7522 36.316 33.4016 36.3151 34.079V36.5665C35.0985 37.4494 34.1143 38.6142 33.4467 39.961C32.7792 41.3078 32.4483 42.7964 32.4825 44.2992C32.4867 44.7265 32.5174 45.1532 32.5743 45.5767H29.9274C29.2501 45.5776 28.6007 45.8471 28.1217 46.3261C27.6427 46.805 27.3733 47.4544 27.3724 48.1318V50.6868C27.3733 51.3642 27.6427 52.0136 28.1217 52.4926C28.6007 52.9715 29.2501 53.241 29.9274 53.2419H31.975C32.2718 54.9381 32.4415 56.6542 32.4825 58.3757C32.5119 66.0938 30.243 73.646 25.9649 80.07H24.8173C23.1238 80.072 21.5003 80.7456 20.3028 81.9431C19.1053 83.1406 18.4317 84.7641 18.4297 86.4576V89.0127C18.4306 89.6901 18.7 90.3394 19.179 90.8184C19.658 91.2974 20.3074 91.5669 20.9847 91.5677H59.3106C59.988 91.5669 60.6373 91.2974 61.1163 90.8184C61.5953 90.3394 61.8648 89.6901 61.8656 89.0127V86.4576C61.8636 84.7641 61.19 83.1406 59.9925 81.9431C58.7951 80.7456 57.1715 80.072 55.478 80.07H54.3305C50.052 73.6452 47.783 66.0922 47.8128 58.3732C47.8539 56.6525 48.0236 54.9373 48.3203 53.2419H50.3679C51.0453 53.241 51.6946 52.9715 52.1736 52.4926C52.6526 52.0136 52.9221 51.3642 52.9229 50.6868V48.1318C52.9221 47.4544 52.6526 46.805 52.1736 46.3261C51.6946 45.8471 51.0453 45.5776 50.3679 45.5767H47.721C47.778 45.1532 47.8086 44.7265 47.8128 44.2992C47.847 42.7964 47.5161 41.3078 46.8486 39.961C46.1811 38.6142 45.1968 37.4494 43.9802 36.5665V34.079C43.9794 33.4016 43.7099 32.7522 43.2309 32.2733C42.7519 31.7943 42.1026 31.5248 41.4252 31.5239ZM38.8701 34.079H41.4252V35.4911C40.583 35.3116 39.7124 35.3116 38.8701 35.4911V34.079ZM55.478 82.625C56.4941 82.6262 57.4683 83.0303 58.1868 83.7488C58.9053 84.4673 59.3095 85.4415 59.3106 86.4576L59.3131 89.0127H20.9847V86.4576C20.9859 85.4415 21.39 84.4673 22.1085 83.7488C22.827 83.0303 23.8012 82.6262 24.8173 82.625H55.478ZM48.6816 74.9599C49.4526 76.7171 50.3339 78.4239 51.3201 80.07H28.9752C29.9615 78.4239 30.8428 76.7171 31.6138 74.9599H48.6816ZM34.5913 53.2419H45.7041C45.4378 54.925 45.2887 56.6246 45.2578 58.3283C45.1841 63.1287 45.9995 67.9012 47.6626 72.4048H32.6329C34.2958 67.902 35.1111 63.1303 35.0375 58.3308C35.0068 56.6262 34.8577 54.9258 34.5913 53.2419ZM50.3679 48.1293V50.6868H29.9274V48.1318L50.3679 48.1293ZM45.2578 44.2992C45.2553 44.7275 45.217 45.1548 45.1432 45.5767H35.1521C35.0783 45.1548 35.04 44.7275 35.0375 44.2992C35.0375 40.7773 37.3294 37.9116 40.1477 37.9116C42.966 37.9116 45.2578 40.7773 45.2578 44.2992Z" fill="white"/>
<path id="Vector_4" d="M60.5894 95.3999H9.48828V97.955H60.5894V95.3999Z" fill="#A94CFF"/>
<path id="Vector_5" d="M78.4739 99.2324H1.82227V101.787H78.4739V99.2324Z" fill="#A94CFF"/>
<path id="Vector_6" d="M65.6996 95.3999H63.1445V97.955H65.6996V95.3999Z" fill="#A94CFF"/>
<path id="Vector_7" d="M70.8095 95.3999H68.2544V97.955H70.8095V95.3999Z" fill="#A94CFF"/>
</g>
</g>
</svg>
