<svg width="41" height="43" viewBox="0 0 41 43" fill="none" xmlns="http://www.w3.org/2000/svg">
<g id="Group 345">
<path id="Rectangle 157" d="M40.3252 21.8413H18.9906V8.08399C18.9906 3.89915 22.383 0.506678 26.5679 0.506678H40.3252V21.8413Z" fill="#A94CFF"/>
<g id="Group 209">
<path id="Vector" d="M29.0634 9.94293C28.9869 9.87728 28.8931 9.83497 28.7933 9.821C28.6934 9.80703 28.5917 9.822 28.5 9.86412C28.4084 9.90624 28.3308 9.97375 28.2764 10.0586C28.222 10.1435 28.1931 10.2423 28.1931 10.3431V11.3978H23.9741C23.9049 11.3978 23.8363 11.4114 23.7723 11.4379C23.7083 11.4644 23.6501 11.5032 23.6012 11.5522C23.5522 11.6012 23.5133 11.6593 23.4868 11.7233C23.4604 11.7873 23.4467 11.8559 23.4468 11.9252V15.0894C23.4467 15.1587 23.4604 15.2272 23.4868 15.2913C23.5133 15.3553 23.5522 15.4134 23.6012 15.4624C23.6501 15.5114 23.7083 15.5502 23.7723 15.5767C23.8363 15.6032 23.9049 15.6168 23.9741 15.6168H28.1931V16.6715C28.193 16.7724 28.2219 16.8711 28.2763 16.9561C28.3307 17.041 28.4083 17.1085 28.4999 17.1507C28.5916 17.1928 28.6934 17.2078 28.7933 17.1938C28.8932 17.1797 28.9869 17.1374 29.0634 17.0717L32.755 13.9074C32.8128 13.858 32.8593 13.7967 32.8911 13.7276C32.9229 13.6585 32.9394 13.5833 32.9394 13.5073C32.9394 13.4312 32.9229 13.3561 32.8911 13.287C32.8593 13.2179 32.8128 13.1566 32.755 13.1071L29.0634 9.94293ZM29.2478 15.5251V15.0894C29.2479 15.0201 29.2342 14.9515 29.2078 14.8875C29.1813 14.8235 29.1424 14.7654 29.0934 14.7164C29.0445 14.6674 28.9863 14.6286 28.9223 14.6021C28.8583 14.5756 28.7897 14.562 28.7205 14.562H24.5015V12.4526H28.7205C28.7897 12.4526 28.8583 12.439 28.9223 12.4125C28.9863 12.386 29.0445 12.3472 29.0934 12.2982C29.1424 12.2492 29.1813 12.191 29.2078 12.127C29.2342 12.063 29.2479 11.9945 29.2478 11.9252V11.4895L31.6019 13.5073L29.2478 15.5251Z" fill="black"/>
<path id="Vector_2" d="M4.11813 17.0717C4.19467 17.1373 4.28843 17.1796 4.3883 17.1936C4.48816 17.2076 4.58993 17.1926 4.68155 17.1505C4.77316 17.1084 4.85077 17.0408 4.90518 16.9559C4.95958 16.871 4.9885 16.7723 4.98849 16.6715V15.6168H9.20743C9.2767 15.6168 9.34529 15.6032 9.4093 15.5767C9.4733 15.5502 9.53145 15.5114 9.58043 15.4624C9.62941 15.4134 9.66825 15.3553 9.69474 15.2913C9.72123 15.2272 9.73484 15.1587 9.7348 15.0894V11.9252C9.73484 11.8559 9.72123 11.7873 9.69474 11.7233C9.66825 11.6593 9.6294 11.6012 9.58043 11.5522C9.53145 11.5032 9.4733 11.4644 9.40929 11.4379C9.34529 11.4114 9.2767 11.3978 9.20743 11.3978H4.98849V10.3431C4.98849 10.2423 4.95957 10.1435 4.90517 10.0586C4.85076 9.97375 4.77315 9.90624 4.68153 9.86412C4.58992 9.822 4.48815 9.80703 4.38829 9.821C4.28843 9.83497 4.19467 9.87728 4.11813 9.94293L0.42656 13.1071C0.368745 13.1566 0.322326 13.2179 0.290497 13.287C0.258669 13.3561 0.242188 13.4312 0.242188 13.5073C0.242188 13.5833 0.258669 13.6585 0.290497 13.7276C0.322326 13.7967 0.368745 13.858 0.42656 13.9074L4.11813 17.0717ZM3.93376 11.4895V11.9252C3.93372 11.9945 3.94733 12.0631 3.97382 12.1271C4.00031 12.1911 4.03915 12.2492 4.08813 12.2982C4.13711 12.3472 4.19526 12.386 4.25926 12.4125C4.32327 12.439 4.39186 12.4526 4.46113 12.4526H8.68007V14.562H4.46113C4.39186 14.562 4.32327 14.5756 4.25926 14.6021C4.19526 14.6286 4.13711 14.6674 4.08813 14.7164C4.03915 14.7654 4.00031 14.8235 3.97382 14.8875C3.94733 14.9515 3.93372 15.0201 3.93376 15.0894V15.5251L1.57966 13.5073L3.93376 11.4895Z" fill="black"/>
<path id="Vector_3" d="M17.1176 13.4453H16.0629C15.7833 13.4457 15.5152 13.5569 15.3175 13.7546C15.1197 13.9524 15.0085 14.2204 15.0081 14.5V15.5269C14.5059 15.8914 14.0996 16.3722 13.8241 16.9282C13.5485 17.4841 13.4119 18.0986 13.426 18.719C13.4278 18.8954 13.4404 19.0715 13.464 19.2464H12.3713C12.0917 19.2467 11.8236 19.358 11.6259 19.5557C11.4282 19.7534 11.3169 20.0215 11.3166 20.3011V21.3558C11.3169 21.6354 11.4282 21.9035 11.6259 22.1012C11.8236 22.299 12.0917 22.4102 12.3713 22.4106H13.2165C13.3391 23.1108 13.4091 23.8192 13.426 24.5298C13.4382 27.7159 12.5016 30.8334 10.7355 33.4853H10.2618C9.56276 33.4861 8.89254 33.7642 8.39822 34.2585C7.90389 34.7528 7.62582 35.423 7.625 36.1221V37.1768C7.62536 37.4565 7.7366 37.7245 7.93433 37.9223C8.13205 38.12 8.40011 38.2312 8.67973 38.2316H24.5008C24.7804 38.2312 25.0484 38.12 25.2462 37.9223C25.4439 37.7245 25.5551 37.4565 25.5555 37.1768V36.1221C25.5547 35.423 25.2766 34.7528 24.7823 34.2585C24.2879 33.7642 23.6177 33.4861 22.9187 33.4853H22.4449C20.6788 30.8331 19.7422 27.7152 19.7544 24.5288C19.7714 23.8185 19.8414 23.1104 19.9639 22.4106H20.8092C21.0888 22.4102 21.3569 22.299 21.5546 22.1012C21.7523 21.9035 21.8636 21.6354 21.8639 21.3558V20.3011C21.8636 20.0215 21.7523 19.7534 21.5546 19.5557C21.3569 19.358 21.0888 19.2467 20.8092 19.2464H19.7165C19.7401 19.0715 19.7527 18.8954 19.7544 18.719C19.7685 18.0986 19.632 17.4841 19.3564 16.9282C19.0808 16.3722 18.6745 15.8914 18.1723 15.5269V14.5C18.172 14.2204 18.0607 13.9524 17.863 13.7546C17.6653 13.5569 17.3972 13.4457 17.1176 13.4453ZM16.0629 14.5H17.1176V15.083C16.7699 15.0089 16.4106 15.0089 16.0629 15.083V14.5ZM22.9187 34.54C23.3381 34.5405 23.7403 34.7073 24.0369 35.0039C24.3335 35.3005 24.5003 35.7027 24.5008 36.1221L24.5018 37.1768H8.67973V36.1221C8.68019 35.7027 8.84702 35.3005 9.14363 35.0039C9.44023 34.7073 9.84238 34.5405 10.2618 34.54H22.9187ZM20.1131 31.3758C20.4314 32.1012 20.7951 32.8058 21.2023 33.4853H11.9782C12.3854 32.8058 12.7492 32.1012 13.0674 31.3758H20.1131ZM14.2966 22.4106H18.884C18.774 23.1053 18.7125 23.8069 18.6997 24.5102C18.6693 26.4918 19.0059 28.462 19.6924 30.3211H13.4881C14.1746 28.4623 14.5111 26.4925 14.4808 24.5113C14.4681 23.8076 14.4065 23.1057 14.2966 22.4106ZM20.8092 20.3001V21.3558H12.3713V20.3011L20.8092 20.3001ZM18.6997 18.719C18.6987 18.8958 18.6829 19.0722 18.6524 19.2464H14.5281C14.4976 19.0722 14.4818 18.8958 14.4808 18.719C14.4808 17.2651 15.4268 16.0821 16.5902 16.0821C17.7536 16.0821 18.6997 17.2651 18.6997 18.719Z" fill="black"/>
<path id="Vector_4" d="M25.0288 39.8135H3.93408V40.8682H25.0288V39.8135Z" fill="#A94CFF"/>
<path id="Vector_5" d="M32.4116 41.3955H0.769531V42.4502H32.4116V41.3955Z" fill="#A94CFF"/>
<path id="Vector_6" d="M27.1382 39.8135H26.0835V40.8682H27.1382V39.8135Z" fill="#A94CFF"/>
<path id="Vector_7" d="M29.2476 39.8135H28.1929V40.8682H29.2476V39.8135Z" fill="#A94CFF"/>
</g>
</g>
</svg>
