<svg width="732" height="656" viewBox="0 0 732 656" fill="none" xmlns="http://www.w3.org/2000/svg">
<path d="M0.152344 8.92773C0.152344 4.50945 3.73407 0.927734 8.15234 0.927734H723.736C728.155 0.927734 731.736 4.50946 731.736 8.92773V415.658C731.736 548.206 624.285 655.657 491.736 655.657H8.15235C3.73407 655.657 0.152344 652.076 0.152344 647.657V8.92773Z" fill="#303030"/>
<mask id="mask0_130_6663" style="mask-type:alpha" maskUnits="userSpaceOnUse" x="0" y="0" width="732" height="656">
<path d="M0.152344 8.92773C0.152344 4.50945 3.73407 0.927734 8.15234 0.927734H723.736C728.155 0.927734 731.736 4.50946 731.736 8.92773V415.658C731.736 548.206 624.285 655.657 491.736 655.657H8.15235C3.73407 655.657 0.152344 652.076 0.152344 647.657V8.92773Z" fill="#303030"/>
</mask>
<g mask="url(#mask0_130_6663)">
<g opacity="0.04">
<mask id="mask1_130_6663" style="mask-type:alpha" maskUnits="userSpaceOnUse" x="0" y="0" width="732" height="744">
<path d="M0.152344 49.5887C0.152344 22.714 21.9386 0.927734 48.8133 0.927734H682.585C709.459 0.927734 731.246 22.714 731.246 49.5887V445.513C731.246 610.12 597.805 743.561 433.197 743.561H48.8133C21.9386 743.561 0.152344 721.775 0.152344 694.9V49.5887Z" fill="#1C0606"/>
</mask>
<g mask="url(#mask1_130_6663)">
<line x1="1.46803" y1="-402.562" x2="1.46801" y2="742.587" stroke="white" stroke-width="2.63137"/>
<line x1="68.6648" y1="-402.565" x2="68.6648" y2="742.584" stroke="white" stroke-width="2.63137"/>
<line x1="135.856" y1="-402.565" x2="135.856" y2="742.584" stroke="white" stroke-width="2.63137"/>
<line x1="203.044" y1="-402.568" x2="203.044" y2="742.581" stroke="white" stroke-width="2.63137"/>
<line x1="270.235" y1="-402.568" x2="270.235" y2="742.581" stroke="white" stroke-width="2.63137"/>
<line x1="337.429" y1="-402.568" x2="337.429" y2="742.581" stroke="white" stroke-width="2.63137"/>
<line x1="404.623" y1="-402.568" x2="404.623" y2="742.581" stroke="white" stroke-width="2.63137"/>
<line x1="471.814" y1="-402.568" x2="471.814" y2="742.581" stroke="white" stroke-width="2.63137"/>
<line x1="539.008" y1="-402.568" x2="539.008" y2="742.581" stroke="white" stroke-width="2.63137"/>
<line x1="606.198" y1="-402.568" x2="606.198" y2="742.581" stroke="white" stroke-width="2.63137"/>
<line x1="673.389" y1="-402.568" x2="673.389" y2="742.581" stroke="white" stroke-width="2.63137"/>
<line x1="1142.77" y1="1.89869" x2="0.154907" y2="1.89863" stroke="white" stroke-width="2.63137"/>
<line x1="1142.77" y1="69.093" x2="0.154907" y2="69.093" stroke="white" stroke-width="2.63137"/>
<line x1="1142.77" y1="136.283" x2="0.154907" y2="136.283" stroke="white" stroke-width="2.63137"/>
<line x1="1142.77" y1="203.475" x2="0.154907" y2="203.475" stroke="white" stroke-width="2.63137"/>
<line x1="1142.77" y1="270.668" x2="0.154907" y2="270.668" stroke="white" stroke-width="2.63137"/>
<line x1="1142.77" y1="337.863" x2="0.154907" y2="337.862" stroke="white" stroke-width="2.63137"/>
<line x1="1142.77" y1="405.534" x2="0.154907" y2="405.534" stroke="white" stroke-width="2.63137"/>
<line x1="1142.77" y1="473.206" x2="0.154907" y2="473.206" stroke="white" stroke-width="2.63137"/>
<line x1="1142.77" y1="540.882" x2="0.154907" y2="540.882" stroke="white" stroke-width="2.63137"/>
<line x1="1142.77" y1="608.554" x2="0.154907" y2="608.554" stroke="white" stroke-width="2.63137"/>
</g>
</g>
</g>
<path opacity="0.04" d="M155.734 37.3711L168.686 17.3151C169.522 15.9223 169.383 14.1117 168.269 13.1368C167.154 12.0225 165.344 11.7439 164.09 12.7189L144.034 25.6717C118.129 5.61576 80.5236 7.42637 56.8464 31.2428C33.0299 55.0593 31.2193 92.525 51.2753 118.431L38.3224 138.487C37.4868 139.879 37.626 141.69 38.7403 142.665C39.8545 143.779 41.6651 144.058 42.9186 143.083L62.9746 130.13C88.8802 150.186 126.485 148.375 150.162 124.559C173.979 100.742 175.79 63.2767 155.734 37.3711ZM154.48 26.7859L130.246 64.5302C128.853 61.6054 126.903 58.9591 124.675 56.7306C122.446 54.5022 119.661 52.5523 116.875 51.1595L154.48 26.7859ZM119.661 94.0571C110.608 103.11 96.1227 103.11 87.2089 94.0571C78.1559 85.004 78.1559 70.5191 87.2089 61.6054C96.262 52.5523 110.747 52.5523 119.661 61.6054C128.574 70.5191 128.574 85.1433 119.661 94.0571ZM61.4425 35.839C82.1949 15.0866 114.647 12.9974 137.627 29.4322L108.101 48.374C99.0475 46.8419 89.2981 49.6275 82.1949 56.7306C75.0917 63.8338 72.3062 73.444 73.8382 82.6363L54.8965 112.163C38.601 88.9038 40.6902 56.4521 61.4425 35.839ZM52.3895 128.877L76.6238 91.1323C78.0166 94.0571 79.9665 96.7034 82.1949 98.9318C84.5626 101.3 87.2089 103.11 89.9945 104.503L52.3895 128.877ZM145.288 119.684C124.535 140.437 92.0836 142.526 69.1028 126.091L98.6297 107.149C107.683 108.681 117.432 105.896 124.535 98.7925C131.638 91.6894 134.424 82.0792 132.892 72.8869L151.834 43.36C168.129 66.6194 166.04 99.0711 145.288 119.684Z" fill="white"/>
</svg>
