<svg width="624" height="624" viewBox="0 0 624 624" fill="none" xmlns="http://www.w3.org/2000/svg">
<path d="M0 7.99998C0 3.5817 3.58172 0 8 0H616C620.418 0 624 3.58172 624 8V400C624 523.712 523.712 624 400 624H7.99998C3.5817 624 0 620.418 0 616V7.99998Z" fill="#27004F"/>
<mask id="mask0_5_2085" style="mask-type:alpha" maskUnits="userSpaceOnUse" x="0" y="0" width="624" height="624">
<path d="M0 7.99998C0 3.5817 3.58172 0 8 0H616C620.418 0 624 3.58172 624 8V400C624 523.712 523.712 624 400 624H7.99998C3.5817 624 0 620.418 0 616V7.99998Z" fill="#303030"/>
</mask>
<g mask="url(#mask0_5_2085)">
<g opacity="0.04">
<mask id="mask1_5_2085" style="mask-type:alpha" maskUnits="userSpaceOnUse" x="0" y="0" width="624" height="708">
<path d="M0 8.00002C0 3.58174 3.58172 0 8 0H615.581C620 0 623.581 3.58172 623.581 8V483.778C623.581 607.49 523.293 707.778 399.581 707.778H8C3.58173 707.778 0 704.196 0 699.778V8.00002Z" fill="#1C0606"/>
</mask>
<g mask="url(#mask1_5_2085)">
<line x1="1.23011" y1="-384.552" x2="1.23009" y2="706.85" stroke="white" stroke-width="2.46022"/>
<line x1="58.5451" y1="-384.554" x2="58.545" y2="706.847" stroke="white" stroke-width="2.46022"/>
<line x1="115.855" y1="-384.554" x2="115.855" y2="706.847" stroke="white" stroke-width="2.46022"/>
<line x1="173.163" y1="-384.557" x2="173.163" y2="706.844" stroke="white" stroke-width="2.46022"/>
<line x1="230.473" y1="-384.557" x2="230.473" y2="706.844" stroke="white" stroke-width="2.46022"/>
<line x1="287.786" y1="-384.557" x2="287.786" y2="706.844" stroke="white" stroke-width="2.46022"/>
<line x1="345.098" y1="-384.557" x2="345.098" y2="706.844" stroke="white" stroke-width="2.46022"/>
<line x1="402.408" y1="-384.557" x2="402.408" y2="706.844" stroke="white" stroke-width="2.46022"/>
<line x1="459.721" y1="-384.557" x2="459.721" y2="706.844" stroke="white" stroke-width="2.46022"/>
<line x1="517.031" y1="-384.557" x2="517.031" y2="706.844" stroke="white" stroke-width="2.46022"/>
<line x1="574.341" y1="-384.557" x2="574.341" y2="706.844" stroke="white" stroke-width="2.46022"/>
<line x1="974.588" y1="0.903085" x2="0.00238022" y2="0.903023" stroke="white" stroke-width="2.46022"/>
<line x1="974.588" y1="64.943" x2="0.00238022" y2="64.9429" stroke="white" stroke-width="2.46022"/>
<line x1="974.588" y1="128.98" x2="0.00238022" y2="128.98" stroke="white" stroke-width="2.46022"/>
<line x1="974.588" y1="193.018" x2="0.00238022" y2="193.018" stroke="white" stroke-width="2.46022"/>
<line x1="974.588" y1="257.058" x2="0.00238022" y2="257.058" stroke="white" stroke-width="2.46022"/>
<line x1="974.588" y1="321.098" x2="0.00238022" y2="321.098" stroke="white" stroke-width="2.46022"/>
<line x1="974.588" y1="385.594" x2="0.00238022" y2="385.594" stroke="white" stroke-width="2.46022"/>
<line x1="974.588" y1="450.089" x2="0.00238022" y2="450.089" stroke="white" stroke-width="2.46022"/>
<line x1="974.588" y1="514.588" x2="0.00238022" y2="514.588" stroke="white" stroke-width="2.46022"/>
<line x1="974.588" y1="579.084" x2="0.00238022" y2="579.084" stroke="white" stroke-width="2.46022"/>
</g>
</g>
</g>
<path opacity="0.04" d="M146.95 34.1266L159.214 15.1377C160.005 13.819 159.873 12.1047 158.818 11.1817C157.763 10.1267 156.049 9.86298 154.862 10.786L135.873 23.0497C111.346 4.06084 75.7419 5.77511 53.3244 28.3244C30.7751 50.8737 29.0608 86.3461 48.0497 110.873L35.7861 129.862C34.9949 131.181 35.1267 132.895 36.1817 133.818C37.2366 134.873 38.9509 135.137 40.1377 134.214L59.1266 121.95C83.6539 140.939 119.258 139.225 141.676 116.676C164.225 94.1263 165.939 58.6539 146.95 34.1266ZM145.763 24.1047L122.819 59.8407C121.5 57.0715 119.654 54.566 117.544 52.4561C115.434 50.3463 112.797 48.5001 110.159 47.1814L145.763 24.1047ZM112.797 87.7966C104.225 96.368 90.511 96.368 82.0715 87.7966C73.5001 79.2252 73.5001 65.511 82.0715 57.0715C90.6429 48.5001 104.357 48.5001 112.797 57.0715C121.236 65.511 121.236 79.3571 112.797 87.7966ZM57.6761 32.676C77.3243 13.0278 108.049 11.0498 129.808 26.6101L101.852 44.5441C93.2803 43.0936 84.0495 45.7309 77.3243 52.4561C70.5991 59.1814 67.9617 68.2802 69.4123 76.9835L51.4783 104.939C36.0498 82.9175 38.0278 52.1924 57.6761 32.676ZM49.1047 120.763L72.0496 85.0274C73.3683 87.7966 75.2144 90.3021 77.3243 92.412C79.566 94.6537 82.0715 96.368 84.7089 97.6867L49.1047 120.763ZM137.06 112.06C117.412 131.708 86.6869 133.686 64.9288 118.126L92.8846 100.192C101.456 101.643 110.687 99.0053 117.412 92.2801C124.137 85.5549 126.775 76.456 125.324 67.7528L143.258 39.7969C158.686 61.8187 156.708 92.5438 137.06 112.06Z" fill="white"/>
</svg>
