<svg width="624" height="624" viewBox="0 0 624 624" fill="none" xmlns="http://www.w3.org/2000/svg">
<path d="M0 7.99998C0 3.5817 3.58172 0 8 0H616C620.418 0 624 3.58172 624 8V400C624 523.712 523.712 624 400 624H7.99998C3.5817 624 0 620.418 0 616V7.99998Z" fill="#27004F"/>
<mask id="mask0_5_2908" style="mask-type:alpha" maskUnits="userSpaceOnUse" x="0" y="0" width="624" height="624">
<path d="M0 7.99998C0 3.5817 3.58172 0 8 0H616C620.418 0 624 3.58172 624 8V400C624 523.712 523.712 624 400 624H7.99998C3.5817 624 0 620.418 0 616V7.99998Z" fill="#303030"/>
</mask>
<g mask="url(#mask0_5_2908)">
<g opacity="0.04">
<mask id="mask1_5_2908" style="mask-type:alpha" maskUnits="userSpaceOnUse" x="0" y="0" width="624" height="708">
<path d="M0 8.00002C0 3.58174 3.58172 0 8 0H615.581C620 0 623.581 3.58172 623.581 8V483.778C623.581 607.49 523.293 707.778 399.581 707.778H8C3.58173 707.778 0 704.196 0 699.778V8.00002Z" fill="#1C0606"/>
</mask>
<g mask="url(#mask1_5_2908)">
<line x1="1.23011" y1="-384.552" x2="1.23009" y2="706.85" stroke="white" stroke-width="2.46022"/>
<line x1="58.5451" y1="-384.554" x2="58.545" y2="706.847" stroke="white" stroke-width="2.46022"/>
<line x1="115.855" y1="-384.554" x2="115.855" y2="706.847" stroke="white" stroke-width="2.46022"/>
<line x1="173.163" y1="-384.557" x2="173.163" y2="706.844" stroke="white" stroke-width="2.46022"/>
<line x1="230.473" y1="-384.557" x2="230.473" y2="706.844" stroke="white" stroke-width="2.46022"/>
<line x1="287.786" y1="-384.557" x2="287.786" y2="706.844" stroke="white" stroke-width="2.46022"/>
<line x1="345.098" y1="-384.557" x2="345.098" y2="706.844" stroke="white" stroke-width="2.46022"/>
<line x1="402.408" y1="-384.557" x2="402.408" y2="706.844" stroke="white" stroke-width="2.46022"/>
<line x1="459.721" y1="-384.557" x2="459.721" y2="706.844" stroke="white" stroke-width="2.46022"/>
<line x1="517.031" y1="-384.557" x2="517.031" y2="706.844" stroke="white" stroke-width="2.46022"/>
<line x1="574.341" y1="-384.557" x2="574.341" y2="706.844" stroke="white" stroke-width="2.46022"/>
<line x1="974.588" y1="0.903085" x2="0.00238022" y2="0.903023" stroke="white" stroke-width="2.46022"/>
<line x1="974.588" y1="64.943" x2="0.00238022" y2="64.9429" stroke="white" stroke-width="2.46022"/>
<line x1="974.588" y1="128.98" x2="0.00238022" y2="128.98" stroke="white" stroke-width="2.46022"/>
<line x1="974.588" y1="193.018" x2="0.00238022" y2="193.018" stroke="white" stroke-width="2.46022"/>
<line x1="974.588" y1="257.058" x2="0.00238022" y2="257.058" stroke="white" stroke-width="2.46022"/>
<line x1="974.588" y1="321.098" x2="0.00238022" y2="321.098" stroke="white" stroke-width="2.46022"/>
<line x1="974.588" y1="385.594" x2="0.00238022" y2="385.594" stroke="white" stroke-width="2.46022"/>
<line x1="974.588" y1="450.089" x2="0.00238022" y2="450.089" stroke="white" stroke-width="2.46022"/>
<line x1="974.588" y1="514.588" x2="0.00238022" y2="514.588" stroke="white" stroke-width="2.46022"/>
<line x1="974.588" y1="579.084" x2="0.00238022" y2="579.084" stroke="white" stroke-width="2.46022"/>
</g>
</g>
</g>
<g opacity="0.04">
<path d="M64.3064 23.0843H73.7461C73.3067 27.9048 69.246 31.6911 64.3064 31.6911C59.068 31.6911 54.7964 27.4315 54.7964 22.2079C54.7964 16.9842 59.068 12.7422 64.3064 12.7422C69.246 12.7422 73.3067 16.5285 73.7461 21.3314H64.3064C63.8142 21.3314 63.4275 21.7346 63.4275 22.2079C63.4275 22.6987 63.8142 23.0843 64.3064 23.0843ZM104.913 64.3477C104.913 64.0497 104.931 63.7692 104.966 63.4712C105.388 58.2651 109.8 54.1458 115.144 54.1458C120.488 54.1458 124.9 58.2651 125.339 63.4712C125.357 63.7692 125.375 64.0497 125.375 64.3477C125.375 64.6457 125.357 64.9437 125.322 65.2241C124.882 70.4302 120.488 74.532 115.144 74.532C109.8 74.532 105.405 70.4302 104.966 65.2241C104.931 64.9437 104.913 64.6457 104.913 64.3477ZM166.807 125.244C161.903 125.244 157.86 121.492 157.42 116.707C157.385 116.409 157.368 116.128 157.368 115.83C157.368 115.532 157.385 115.252 157.42 114.954C157.825 110.467 161.428 106.873 165.928 106.47V115.83C165.928 116.304 166.333 116.707 166.807 116.707C167.3 116.707 167.686 116.304 167.686 115.83V106.47C172.485 106.908 176.247 110.94 176.247 115.83C176.247 121.019 172.011 125.244 166.807 125.244Z" fill="white"/>
<path d="M191.03 88.5572L191.037 88.5647C192.149 89.9352 191.142 91.9392 189.415 91.9392H169.188V103.396C175.961 104.68 180.868 111.36 179.17 118.768L191.03 88.5572ZM191.03 88.5572L186.054 82.5074L191.032 76.4576L191.038 76.4499C192.151 75.0793 191.143 73.0754 189.417 73.0754H169.19M191.03 88.5572L169.19 73.0754M169.19 73.0754V71.911C169.19 70.5877 168.127 69.5345 166.811 69.5345C165.531 69.5345 164.432 70.5683 164.432 71.911V103.396C159.341 104.361 155.307 108.381 154.338 113.462H106.136C105.054 108.77 100.826 105.276 95.8281 105.276C90.8272 105.276 86.6169 108.772 85.5371 113.462H67.421C54.749 113.462 43.9147 103.76 43.2895 91.2582L43.2895 91.2575C42.6126 77.8567 53.3617 66.7324 66.6827 66.7324H101.883C102.99 73.0333 108.533 77.7932 115.145 77.7932C121.757 77.7932 127.301 73.0333 128.408 66.7324H155.998C168.97 66.7324 179.506 56.2127 179.506 43.2861C179.506 30.3594 168.97 19.8397 155.998 19.8397H138.387C137.366 16.3668 134.145 13.8272 130.333 13.8272C126.521 13.8272 123.301 16.3668 122.28 19.8397H76.8367C75.7684 14.1599 70.9043 9.8303 65.0034 9.51725C58.0298 9.13925 51.6403 15.0212 51.5401 22.0194L51.5401 22.0198C51.4404 29.117 57.216 34.9523 64.3078 34.9523C70.5221 34.9523 75.7242 30.4855 76.836 24.5926H122.278C123.297 28.0793 126.518 30.6226 130.333 30.6226C134.149 30.6226 137.369 28.0793 138.388 24.5926H155.4C165.221 24.5926 173.745 31.8324 174.667 41.4649C175.725 52.5779 166.94 61.9795 155.998 61.9795H128.408C127.301 55.6788 121.76 50.9012 115.145 50.9012C108.53 50.9012 102.989 55.6788 101.883 61.9795H67.4544C52.3544 61.9795 39.2606 73.538 38.5335 88.7015L169.19 73.0754ZM169.744 128.169L169.741 128.17C162.342 129.843 155.643 124.974 154.339 118.215H106.135C105.055 122.906 100.842 126.401 95.8263 126.401C90.8079 126.401 86.6122 122.904 85.535 118.215H66.681C50.679 118.215 37.7538 104.85 38.5335 88.7021L169.744 128.169ZM169.744 128.169C174.382 127.113 178.109 123.398 179.17 118.768L169.744 128.169ZM189.415 88.9392L189.402 88.9392L189.415 88.9392ZM189.417 76.0754C189.412 76.0754 189.408 76.0754 189.404 76.0754H189.417ZM185.558 83.1098L185.565 83.1011C185.563 83.104 185.56 83.1069 185.558 83.1098Z" fill="white" stroke="white" stroke-width="3"/>
</g>
</svg>
