<svg width="732" height="697" viewBox="0 0 732 697" fill="none" xmlns="http://www.w3.org/2000/svg">
<path d="M0.152344 8.45605C0.152344 4.03778 3.73407 0.456055 8.15234 0.456055H723.736C728.155 0.456055 731.736 4.03778 731.736 8.45605V456.011C731.736 588.559 624.285 696.011 491.736 696.011H8.15235C3.73407 696.011 0.152344 692.429 0.152344 688.011V8.45605Z" fill="#303030"/>
<mask id="mask0_130_8780" style="mask-type:alpha" maskUnits="userSpaceOnUse" x="0" y="0" width="732" height="697">
<path d="M0.152344 8.45605C0.152344 4.03778 3.73407 0.456055 8.15234 0.456055H723.736C728.155 0.456055 731.736 4.03778 731.736 8.45605V456.011C731.736 588.559 624.285 696.011 491.736 696.011H8.15235C3.73407 696.011 0.152344 692.429 0.152344 688.011V8.45605Z" fill="#303030"/>
</mask>
<g mask="url(#mask0_130_8780)">
<g opacity="0.04">
<mask id="mask1_130_8780" style="mask-type:alpha" maskUnits="userSpaceOnUse" x="0" y="0" width="732" height="758">
<path d="M0.152344 49.1171C0.152344 22.2424 21.9386 0.456055 48.8133 0.456055H682.585C709.459 0.456055 731.246 22.2423 731.246 49.117V459.42C731.246 624.028 597.805 757.469 433.197 757.469H48.8133C21.9386 757.469 0.152344 735.682 0.152344 708.808V49.1171Z" fill="#1C0606"/>
</mask>
<g mask="url(#mask1_130_8780)">
<line x1="1.46803" y1="-403.034" x2="1.46801" y2="742.115" stroke="white" stroke-width="2.63137"/>
<line x1="68.6648" y1="-403.037" x2="68.6648" y2="742.112" stroke="white" stroke-width="2.63137"/>
<line x1="135.856" y1="-403.037" x2="135.856" y2="742.112" stroke="white" stroke-width="2.63137"/>
<line x1="203.044" y1="-403.04" x2="203.044" y2="742.109" stroke="white" stroke-width="2.63137"/>
<line x1="270.235" y1="-403.04" x2="270.235" y2="742.109" stroke="white" stroke-width="2.63137"/>
<line x1="337.429" y1="-403.04" x2="337.429" y2="742.109" stroke="white" stroke-width="2.63137"/>
<line x1="404.623" y1="-403.04" x2="404.623" y2="742.109" stroke="white" stroke-width="2.63137"/>
<line x1="471.814" y1="-403.04" x2="471.814" y2="742.109" stroke="white" stroke-width="2.63137"/>
<line x1="539.008" y1="-403.04" x2="539.008" y2="742.109" stroke="white" stroke-width="2.63137"/>
<line x1="606.198" y1="-403.04" x2="606.198" y2="742.109" stroke="white" stroke-width="2.63137"/>
<line x1="673.389" y1="-403.04" x2="673.389" y2="742.109" stroke="white" stroke-width="2.63137"/>
<line x1="1142.77" y1="1.42701" x2="0.154907" y2="1.42695" stroke="white" stroke-width="2.63137"/>
<line x1="1142.77" y1="68.6214" x2="0.154907" y2="68.6213" stroke="white" stroke-width="2.63137"/>
<line x1="1142.77" y1="135.812" x2="0.154907" y2="135.812" stroke="white" stroke-width="2.63137"/>
<line x1="1142.77" y1="203.003" x2="0.154907" y2="203.003" stroke="white" stroke-width="2.63137"/>
<line x1="1142.77" y1="270.197" x2="0.154907" y2="270.196" stroke="white" stroke-width="2.63137"/>
<line x1="1142.77" y1="337.391" x2="0.154907" y2="337.391" stroke="white" stroke-width="2.63137"/>
<line x1="1142.77" y1="405.064" x2="0.154907" y2="405.064" stroke="white" stroke-width="2.63137"/>
<line x1="1142.77" y1="472.735" x2="0.154907" y2="472.735" stroke="white" stroke-width="2.63137"/>
<line x1="1142.77" y1="540.41" x2="0.154907" y2="540.41" stroke="white" stroke-width="2.63137"/>
<line x1="1142.77" y1="608.082" x2="0.154907" y2="608.082" stroke="white" stroke-width="2.63137"/>
<line x1="1142.77" y1="675.754" x2="0.154907" y2="675.754" stroke="white" stroke-width="2.63137"/>
</g>
</g>
</g>
<g opacity="0.04">
<path d="M70.8059 19.3945H81.9012C81.3847 25.0765 76.6119 29.5394 70.8059 29.5394C64.6487 29.5394 59.6279 24.5186 59.6279 18.3614C59.6279 12.2042 64.6487 7.2041 70.8059 7.2041C76.6119 7.2041 81.3847 11.667 81.9012 17.3283H70.8059C70.2274 17.3283 69.7728 17.8036 69.7728 18.3614C69.7728 18.9399 70.2274 19.3945 70.8059 19.3945ZM118.534 68.0322C118.534 67.6809 118.555 67.3503 118.596 66.9991C119.092 60.8625 124.278 56.007 130.56 56.007C136.841 56.007 142.027 60.8625 142.543 66.9991C142.564 67.3503 142.585 67.6809 142.585 68.0322C142.585 68.3834 142.564 68.7347 142.523 69.0652C142.006 75.2018 136.841 80.0366 130.56 80.0366C124.278 80.0366 119.113 75.2018 118.596 69.0652C118.555 68.7347 118.534 68.3834 118.534 68.0322ZM191.284 139.811C185.52 139.811 180.768 135.389 180.251 129.749C180.21 129.397 180.189 129.067 180.189 128.716C180.189 128.364 180.21 128.034 180.251 127.683C180.726 122.393 184.962 118.157 190.251 117.682V128.716C190.251 129.273 190.726 129.749 191.284 129.749C191.863 129.749 192.317 129.273 192.317 128.716V117.682C197.958 118.199 202.38 122.951 202.38 128.716C202.38 134.831 197.4 139.811 191.284 139.811Z" fill="white"/>
<path d="M218.781 97.3747L218.779 97.3722L212.355 89.5414L212.353 89.5385C212.301 89.476 212.301 89.3941 212.353 89.3315L212.355 89.3286L218.781 81.4978L218.783 81.4952C219.403 80.7293 218.85 79.5856 217.857 79.5856H192.82V76.945C192.82 76.0903 192.141 75.4119 191.286 75.4119C190.459 75.4119 189.753 76.0839 189.753 76.945V115.148C183.451 115.851 178.415 120.887 177.711 127.19H118.92C118.174 121.74 113.476 117.541 107.854 117.541C102.232 117.541 97.5547 121.742 96.8098 127.19H74.4652C58.9484 127.19 45.6108 115.273 44.8398 99.8133L44.8398 99.813C44.0072 83.2822 57.2279 69.5729 73.5974 69.5729H116.071C116.808 76.9068 123.039 82.6104 130.56 82.6104C138.081 82.6104 144.312 76.9068 145.049 69.5729H178.577C193.131 69.5729 204.946 57.7369 204.946 43.2044C204.946 28.672 193.131 16.836 178.577 16.836H156.879C156.166 12.8146 152.647 9.74902 148.411 9.74902C144.176 9.74902 140.657 12.8146 139.944 16.836H84.4441C83.7198 10.2131 78.2627 5.02341 71.556 4.66696C64.064 4.25928 57.1693 10.6374 57.0619 18.1553L57.0619 18.1554C56.9547 25.8101 63.1711 32.1132 70.806 32.1132C77.8542 32.1132 83.6902 26.7592 84.4438 19.9021H139.943C140.656 23.9426 144.175 27.0098 148.411 27.0098C152.648 27.0098 156.167 23.9426 156.879 19.9021H177.875C190.014 19.9021 200.627 28.8791 201.779 40.9378C203.093 54.7944 192.17 66.5067 178.577 66.5067H145.049C144.312 59.1729 138.082 53.4485 130.56 53.4485C123.038 53.4485 116.807 59.1729 116.071 66.5067H74.5044C57.3764 66.5067 42.5922 79.6522 41.7728 96.7975C40.8912 115.101 55.5004 130.256 73.5953 130.256H96.8077C97.5515 135.704 102.209 139.905 107.852 139.905C113.495 139.905 118.173 135.705 118.918 130.256H177.71C178.602 138.069 186.106 143.913 194.453 142.021L194.454 142.021C199.434 140.883 203.444 136.873 204.582 131.893C206.495 123.525 200.631 116.02 192.817 115.148V99.2844H217.855C218.848 99.2844 219.401 98.1407 218.781 97.3747Z" fill="white" stroke="white"/>
</g>
</svg>
