<svg width="176" height="117" viewBox="0 0 176 117" fill="none" xmlns="http://www.w3.org/2000/svg">
<path d="M119.41 91.7149C118.927 93.8275 116.622 98.2417 111.266 98.9976C105.91 99.7536 101.903 95.6649 100.57 93.526" stroke="black" stroke-width="4.22626" stroke-linecap="square"/>
<path d="M99.4237 67.7754L98.3846 65.9355L102.065 63.8572L103.104 65.6972L99.4237 67.7754ZM111.975 81.4068C112.549 82.423 112.191 83.712 111.175 84.2859C110.158 84.8598 108.869 84.5012 108.295 83.485L111.975 81.4068ZM103.104 65.6972L111.975 81.4068L108.295 83.485L99.4237 67.7754L103.104 65.6972Z" fill="black"/>
<path d="M101.933 84.6199L99.82 84.6389L99.782 80.4128L101.895 80.3938L101.933 84.6199ZM110.114 80.3198C111.281 80.3093 112.235 81.2468 112.246 82.4138C112.256 83.5808 111.319 84.5354 110.152 84.5459L110.114 80.3198ZM101.895 80.3938L110.114 80.3198L110.152 84.5459L101.933 84.6199L101.895 80.3938Z" fill="black"/>
<path d="M102.504 50.2754L93.7048 52.5264" stroke="black" stroke-width="6.49887" stroke-linecap="square"/>
<path d="M165.961 32.2764L159.496 34.1457" stroke="black" stroke-width="6.49887" stroke-linecap="square"/>
<path d="M24.1484 73.2461L7.66575 73.1457" stroke="black" stroke-width="6.49887" stroke-linecap="square"/>
<path d="M102.624 42.5071C105.601 60.7083 123.231 72.5619 140.415 69.7516C157.598 66.9413 166.024 50.8262 163.048 32.625C160.071 14.4238 143.408 2.82463 126.225 5.63496C109.041 8.44529 99.6475 24.3059 102.624 42.5071Z" fill="white" stroke="black" stroke-width="4.22626"/>
<circle cx="33.7129" cy="33.7129" r="33.7129" transform="matrix(-0.986888 0.161404 0.161404 0.986888 85.914 19.6445)" fill="white" stroke="black" stroke-width="4.22626"/>
<circle cx="5.68651" cy="5.68651" r="5.68651" transform="matrix(-0.986888 0.161404 0.161404 0.986888 122.719 38.3203)" fill="black"/>
<circle cx="5.68651" cy="5.68651" r="5.68651" transform="matrix(-0.986888 0.161404 0.161404 0.986888 81.1465 50.8809)" fill="black"/>
</svg>
