<svg width="77" height="77" viewBox="0 0 77 77" fill="none" xmlns="http://www.w3.org/2000/svg">
<path d="M39 36L39 0L57 2.14648e-07C66.9411 3.33195e-07 75 8.05887 75 18L75 36L39 36Z" fill="#E5C200"/>
<path d="M13.1535 24.0427H17.8733C17.6536 26.4529 15.6233 28.346 13.1535 28.346C10.5342 28.346 8.39844 26.2163 8.39844 23.6044C8.39844 20.9926 10.5342 18.8716 13.1535 18.8716C15.6233 18.8716 17.6536 20.7647 17.8733 23.1662H13.1535C12.9074 23.1662 12.714 23.3678 12.714 23.6044C12.714 23.8498 12.9074 24.0427 13.1535 24.0427ZM33.4568 44.6744C33.4568 44.5254 33.4656 44.3852 33.4831 44.2362C33.6941 41.6331 35.9002 39.5734 38.5722 39.5734C41.2441 39.5734 43.4502 41.6331 43.67 44.2362C43.6788 44.3852 43.6875 44.5254 43.6875 44.6744C43.6875 44.8234 43.6788 44.9724 43.6612 45.1126C43.4414 47.7157 41.2441 49.7666 38.5722 49.7666C35.9002 49.7666 33.7029 47.7157 33.4831 45.1126C33.4656 44.9724 33.4568 44.8234 33.4568 44.6744ZM64.404 75.1224C61.9517 75.1224 59.9302 73.2468 59.7105 70.8541C59.6929 70.7051 59.6841 70.5648 59.6841 70.4158C59.6841 70.2668 59.6929 70.1266 59.7105 69.9776C59.9126 67.7339 61.7144 65.9371 63.9645 65.7356V70.4158C63.9645 70.6525 64.1667 70.8541 64.404 70.8541C64.6501 70.8541 64.8434 70.6525 64.8434 70.4158V65.7356C67.2429 65.9547 69.1238 67.9705 69.1238 70.4158C69.1238 73.0101 67.0056 75.1224 64.404 75.1224Z" fill="white"/>
<path d="M76.3221 56.9375L76.3242 56.94C76.7449 57.4582 76.365 58.2197 75.7075 58.2197H65.3439V64.4088C68.7019 64.9275 71.1741 68.1952 70.3412 71.8283C70.3412 71.8283 70.3412 71.8284 70.3412 71.8284L69.8538 71.7166C69.388 73.75 67.7444 75.389 65.7053 75.8535L76.3221 56.9375ZM76.3221 56.9375L73.7031 53.7537L76.323 50.57L76.3251 50.5674C76.7457 50.0492 76.3659 49.2878 75.7084 49.2878H65.3448M76.3221 56.9375L65.3448 49.2878M65.3448 49.2878V48.4556C65.3448 47.9327 64.9262 47.5173 64.4053 47.5173C63.8997 47.5173 63.4658 47.9262 63.4658 48.4556V64.4088C60.8575 64.8119 58.784 66.8783 58.3792 69.4813H33.8652C33.4242 67.1499 31.3632 65.3882 28.914 65.3882C26.4638 65.3882 24.4116 67.1509 23.9716 69.4813H14.7105C8.25107 69.4813 2.71479 64.535 2.39506 58.1417L2.39505 58.1414C2.0493 51.2964 7.53961 45.6163 14.3414 45.6163H32.1547C32.5999 48.7495 35.3162 51.1467 38.5726 51.1467C41.8291 51.1467 44.5454 48.7495 44.9905 45.6163H58.999C65.3475 45.6163 70.5032 40.4678 70.5032 34.1431C70.5032 27.8183 65.3475 22.6699 58.999 22.6699H50.0016C49.5831 20.9464 48.0245 19.6636 46.1666 19.6636C44.3087 19.6636 42.7501 20.9464 42.3316 22.6699H19.2074C18.775 19.8432 16.3937 17.6625 13.4887 17.5083C10.1415 17.3266 7.06809 20.1579 7.02002 23.5133L7.02002 23.5134C6.97214 26.9221 9.74696 29.7262 13.1539 29.7262C16.2105 29.7262 18.7573 27.4763 19.2071 24.5463H42.3312C42.7489 26.2772 44.3075 27.5613 46.1666 27.5613C48.0257 27.5613 49.5843 26.2772 50.002 24.5463H58.7002C63.7287 24.5463 68.1082 28.254 68.5826 33.2091C69.1254 38.9145 64.6151 43.7398 58.999 43.7398H44.9905C44.5455 40.6066 41.83 38.2006 38.5726 38.2006C35.3152 38.2006 32.5998 40.6066 32.1547 43.7398H14.7272C7.30024 43.7398 0.87308 49.4244 0.516456 56.8629L65.3448 49.2878ZM33.8644 71.3577H58.3795L0.516448 56.8631C0.133505 64.7935 6.48103 71.3577 14.3405 71.3577H23.9706C24.4096 73.6876 26.4541 75.4508 28.9132 75.4508C31.3711 75.4508 33.4243 73.6886 33.8644 71.3577Z" fill="white" stroke="white"/>
</svg>
