<svg width="78" height="78" viewBox="0 0 78 78" fill="none" xmlns="http://www.w3.org/2000/svg">
<g id="Group 331">
<path id="Rectangle 161" d="M39.7593 37.1699H76.3315V18.9534C76.3315 8.81582 68.1134 0.597656 57.9758 0.597656H39.7593V37.1699Z" fill="#A94CFF"/>
<g id="Group 221">
<path id="Vector" d="M13.6625 24.9264H18.3691C18.15 27.3367 16.1253 29.2298 13.6625 29.2298C11.0507 29.2298 8.9209 27.1001 8.9209 24.4882C8.9209 21.8764 11.0507 19.7554 13.6625 19.7554C16.1253 19.7554 18.15 21.6485 18.3691 24.05H13.6625C13.4171 24.05 13.2243 24.2516 13.2243 24.4882C13.2243 24.7336 13.4171 24.9264 13.6625 24.9264ZM33.9086 45.5582C33.9086 45.4092 33.9174 45.2689 33.9349 45.1199C34.1452 42.5169 36.3451 40.4572 39.0096 40.4572C41.674 40.4572 43.8739 42.5169 44.093 45.1199C44.1018 45.2689 44.1105 45.4092 44.1105 45.5582C44.1105 45.7072 44.1018 45.8562 44.0842 45.9964C43.8651 48.5995 41.674 50.6504 39.0096 50.6504C36.3451 50.6504 34.154 48.5995 33.9349 45.9964C33.9174 45.8562 33.9086 45.7072 33.9086 45.5582ZM64.7685 76.0062C62.3232 76.0062 60.3074 74.1306 60.0883 71.7378C60.0707 71.5889 60.062 71.4486 60.062 71.2996C60.062 71.1506 60.0707 71.0104 60.0883 70.8614C60.2899 68.6177 62.0866 66.8209 64.3303 66.6194V71.2996C64.3303 71.5363 64.5319 71.7378 64.7685 71.7378C65.0139 71.7378 65.2068 71.5363 65.2068 71.2996V66.6194C67.5995 66.8385 69.4751 68.8543 69.4751 71.2996C69.4751 73.8939 67.3628 76.0062 64.7685 76.0062Z" fill="white"/>
<path id="Vector_2" d="M76.6543 57.8218L76.6563 57.8243C77.0742 58.3405 76.6992 59.1035 76.0398 59.1035H65.7069V65.2928C69.0568 65.8122 71.5203 69.0807 70.6901 72.7118C70.6901 72.7118 70.6901 72.7118 70.6901 72.7119L70.2027 72.6004C69.7381 74.6338 68.0992 76.2728 66.0658 76.7373L76.6543 57.8218ZM76.6543 57.8218L74.0422 54.6375L76.6551 51.4533L76.6572 51.4507C77.075 50.9345 76.7001 50.1716 76.0407 50.1716H65.7077M76.6543 57.8218L65.7077 50.1716M65.7077 50.1716V49.3393C65.7077 48.8178 65.2911 48.4011 64.7695 48.4011C64.2633 48.4011 63.8313 48.8113 63.8313 49.3393V65.2928C61.2295 65.6964 59.1626 67.7632 58.759 70.365H34.3169C33.8771 68.0346 31.8223 66.272 29.3783 66.272C26.9333 66.272 24.8872 68.0356 24.4484 70.365H15.2148C8.77558 70.365 3.25439 65.42 2.93551 59.0256L2.9355 59.0253C2.59065 52.1788 8.06635 46.5001 14.8467 46.5001H32.6085C33.0524 49.6323 35.7606 52.0305 39.0097 52.0305C42.2587 52.0305 44.967 49.6323 45.4109 46.5001H59.3785C65.7112 46.5001 70.8517 41.3503 70.8517 35.0269C70.8517 28.7034 65.7112 23.5537 59.3785 23.5537H50.4078C49.9904 21.831 48.4365 20.5474 46.5822 20.5474C44.728 20.5474 43.174 21.831 42.7567 23.5537H19.7004C19.2692 20.7279 16.8951 18.5464 13.9966 18.3921C10.6566 18.2102 7.59252 21.0431 7.54461 24.3971L7.54461 24.3972C7.49688 27.8046 10.2631 30.6099 13.6626 30.6099C16.7124 30.6099 19.2516 28.3591 19.7002 25.4301H42.7562C43.1728 27.1601 44.7268 28.4451 46.5822 28.4451C48.4377 28.4451 49.9916 27.1602 50.4082 25.4301H59.0805C64.0928 25.4301 68.4603 29.1364 68.9336 34.0925C69.4752 39.7996 64.9765 44.6236 59.3785 44.6236H45.4109C44.9671 41.4914 42.2597 39.0844 39.0097 39.0844C35.7597 39.0844 33.0523 41.4914 32.6085 44.6236H15.2315C7.82347 44.6236 1.41494 50.3095 1.05938 57.7468C0.677476 65.6758 7.00628 72.2415 14.8458 72.2415H24.4474C24.8852 74.5705 26.9237 76.3345 29.3774 76.3345C31.8302 76.3345 33.8773 74.5715 34.3161 72.2415H58.7593L65.7077 50.1716Z" fill="white" stroke="white"/>
</g>
</g>
</svg>
