<svg width="428" height="375" viewBox="0 0 428 375" fill="none" xmlns="http://www.w3.org/2000/svg">
<g opacity="0.04">
<path d="M90.3182 14.9399H122.287C120.799 31.2714 107.047 44.099 90.3182 44.099C72.5774 44.099 58.1108 29.6679 58.1108 11.9706C58.1108 -5.72682 72.5774 -20.0985 90.3182 -20.0985C107.047 -20.0985 120.799 -7.27088 122.287 9.0012H90.3182C88.6513 9.0012 87.3415 10.3671 87.3415 11.9706C87.3415 13.6334 88.6513 14.9399 90.3182 14.9399ZM227.839 154.737C227.839 153.728 227.899 152.778 228.018 151.768C229.447 134.13 244.389 120.174 262.487 120.174C280.586 120.174 295.528 134.13 297.017 151.768C297.076 152.778 297.136 153.728 297.136 154.737C297.136 155.747 297.076 156.756 296.957 157.707C295.469 175.345 280.586 189.241 262.487 189.241C244.389 189.241 229.506 175.345 228.018 157.707C227.899 156.756 227.839 155.747 227.839 154.737ZM437.455 361.048C420.845 361.048 407.153 348.34 405.664 332.127C405.545 331.117 405.486 330.167 405.486 329.157C405.486 328.148 405.545 327.198 405.664 326.188C407.034 310.985 419.238 298.811 434.478 297.445V329.157C434.478 330.761 435.847 332.127 437.455 332.127C439.122 332.127 440.431 330.761 440.431 329.157V297.445C456.684 298.929 469.424 312.588 469.424 329.157C469.424 346.736 455.077 361.048 437.455 361.048Z" fill="white"/>
<path d="M518.673 237.466L518.664 237.456L518.656 237.446L501.236 216.262L518.662 195.078L518.67 195.067L518.679 195.057C521.858 191.139 518.986 185.389 514.025 185.389H444.442V180.362C444.442 176.481 441.332 173.393 437.465 173.393C433.71 173.393 430.489 176.429 430.489 180.362V287.938C412.975 290.872 399.072 304.733 396.126 322.217H231.112C227.874 306.383 213.784 294.483 197.071 294.483C180.35 294.483 166.319 306.391 163.089 322.217H100.866C57.418 322.217 20.21 288.936 18.0618 245.964L18.0617 245.962C15.7376 199.933 52.6429 161.736 98.3655 161.736H218.492C221.776 183.008 240.311 199.209 262.492 199.209C284.673 199.209 303.207 183.008 306.492 161.736H400.847C444.186 161.736 479.382 126.577 479.382 83.383C479.382 40.1896 444.186 5.03031 400.847 5.03031H340.382C337.317 -6.68009 326.633 -15.3395 313.928 -15.3395C301.224 -15.3395 290.54 -6.68008 287.475 5.03031H131.848C128.666 -14.1556 112.411 -28.8929 92.6205 -29.943C69.6054 -31.1913 48.4929 -11.7369 48.1623 11.3485L48.1623 11.3497C47.8332 34.7877 66.9037 54.0669 90.3226 54.0669C111.152 54.0669 128.535 38.8627 131.846 18.969H287.471C290.53 30.7281 301.214 39.3982 313.928 39.3982C326.643 39.3982 337.326 30.7281 340.386 18.969H398.822C432.591 18.969 461.968 43.8759 465.149 77.1128C468.791 115.409 438.529 147.797 400.847 147.797H306.492C303.208 126.525 284.68 110.264 262.492 110.264C240.304 110.264 221.775 126.525 218.492 147.797H100.979C50.3699 147.797 6.54372 186.549 4.1121 237.301C1.50149 291.387 44.7761 336.156 98.3595 336.156H163.083C166.305 351.978 180.284 363.89 197.065 363.89C213.838 363.89 227.876 351.986 231.106 336.156H396.129C400.015 358.928 422.391 375.508 447.153 369.908L447.159 369.907C462.464 366.419 474.769 354.148 478.269 338.87C483.951 314.079 467.253 291.759 444.436 287.938V247.135H514.019C518.98 247.135 521.852 241.384 518.673 237.466Z" fill="white" stroke="white" stroke-width="8"/>
</g>
</svg>
