<svg width="67" height="44" viewBox="0 0 67 44" fill="none" xmlns="http://www.w3.org/2000/svg">
<g id="Group 109">
<path id="Vector 19" d="M42.836 35.4936C42.5211 36.2275 41.3934 37.6755 39.4016 37.5954C37.4098 37.5152 36.2277 35.7679 35.8856 34.9043" stroke="black" stroke-width="1.55753" stroke-linecap="square"/>
<g id="Group 95">
<path id="Vector 17" d="M38.8954 25.6061L38.5124 24.928L39.8686 24.1621L40.2516 24.8402L38.8954 25.6061ZM43.5212 30.6298C43.7327 31.0043 43.6005 31.4793 43.226 31.6908C42.8515 31.9023 42.3765 31.7702 42.165 31.3957L43.5212 30.6298ZM40.2516 24.8402L43.5212 30.6298L42.165 31.3957L38.8954 25.6061L40.2516 24.8402Z" fill="black"/>
<path id="Vector 18" d="M39.8207 31.8139L39.042 31.8209L39.028 30.2634L39.8067 30.2564L39.8207 31.8139ZM42.8355 30.2291C43.2656 30.2253 43.6174 30.5708 43.6213 31.0009C43.6252 31.431 43.2796 31.7827 42.8496 31.7866L42.8355 30.2291ZM39.8067 30.2564L42.8355 30.2291L42.8496 31.7866L39.8207 31.8139L39.8067 30.2564Z" fill="black"/>
</g>
<g id="Group 96">
<path id="Vector 14" d="M11.3154 27.3389L3.73014 29.1862" stroke="black" stroke-width="2.39508" stroke-linecap="square"/>
<path id="Vector 15" d="M40.0303 19.1562L36.7875 19.9858" stroke="black" stroke-width="2.39508" stroke-linecap="square"/>
<path id="Vector 16" d="M63.4165 12.5234L61.0338 13.2124" stroke="black" stroke-width="2.39508" stroke-linecap="square"/>
<g id="Group 94">
<path id="Ellipse 1" d="M40.1418 16.2537C41.2359 22.944 47.1057 27.4009 52.7353 26.4802C58.3649 25.5595 61.0317 19.7064 59.9375 13.0161C58.8433 6.32584 53.2932 1.9683 47.6636 2.88902C42.0339 3.80973 39.0476 9.5634 40.1418 16.2537Z" fill="white" stroke="black" stroke-width="1.55753"/>
<circle id="Ellipse 2" cx="12.4245" cy="12.4245" r="12.4245" transform="matrix(-0.986888 0.161404 0.161404 0.986888 33.9165 7.86768)" fill="white" stroke="black" stroke-width="1.55753"/>
</g>
<circle id="Ellipse 3" cx="2.09569" cy="2.09569" r="2.09569" transform="matrix(-0.986888 0.161404 0.161404 0.986888 47.4805 14.75)" fill="black"/>
<circle id="Ellipse 4" cx="2.09569" cy="2.09569" r="2.09569" transform="matrix(-0.986888 0.161404 0.161404 0.986888 32.1589 19.3799)" fill="black"/>
</g>
</g>
</svg>
