<svg width="44" height="44" viewBox="0 0 44 44" fill="none" xmlns="http://www.w3.org/2000/svg">
<circle cx="22" cy="22" r="22" fill="#F3F3FA"/>
<g clip-path="url(#clip0_8_5146)">
<path d="M32.0833 22.9171H11.9167C11.6736 22.9171 11.4404 22.8205 11.2685 22.6486C11.0966 22.4767 11 22.2435 11 22.0004C11 21.7573 11.0966 21.5241 11.2685 21.3522C11.4404 21.1803 11.6736 21.0837 11.9167 21.0837H32.0833C32.3264 21.0837 32.5596 21.1803 32.7315 21.3522C32.9034 21.5241 33 21.7573 33 22.0004C33 22.2435 32.9034 22.4767 32.7315 22.6486C32.5596 22.8205 32.3264 22.9171 32.0833 22.9171ZM28.3562 17.5326C28.4714 17.0437 28.4178 16.5302 28.2041 16.0757C27.9904 15.6212 27.6291 15.2523 27.1792 15.0292L19.8623 11.3927C19.4056 11.1334 18.8892 10.9974 18.3639 10.9982C17.8386 10.999 17.3226 11.1365 16.8667 11.3973C16.4694 11.6276 16.141 11.9598 15.9153 12.3597C15.6897 12.7596 15.5751 13.2125 15.5833 13.6716V16.5004C15.5833 17.2298 15.8731 17.9292 16.3888 18.445C16.9045 18.9607 17.604 19.2504 18.3333 19.2504H25.9582C26.4948 19.2854 27.027 19.1333 27.4642 18.8201C27.9014 18.5069 28.2166 18.0519 28.3562 17.5326ZM19.0089 13.0171L26.3533 16.6654C26.4348 16.7016 26.5013 16.765 26.5414 16.8447C26.5816 16.9244 26.5928 17.0156 26.5733 17.1027C26.5054 17.385 26.1204 17.4152 25.9582 17.4152H18.3333C18.0905 17.4152 17.8577 17.3189 17.6858 17.1474C17.5139 16.9759 17.4172 16.7432 17.4167 16.5004V13.6716C17.4099 13.5316 17.4421 13.3926 17.5098 13.2699C17.5775 13.1472 17.6779 13.0457 17.7998 12.9767C17.9651 12.8815 18.1527 12.8321 18.3434 12.8337C18.5772 12.8373 18.8063 12.9004 19.0089 13.0171V13.0171ZM19.8257 32.6282L27.1892 28.9671C27.6367 28.7427 27.9953 28.374 28.2071 27.9205C28.4188 27.467 28.4714 26.9553 28.3562 26.4682C28.2166 25.9489 27.9014 25.4939 27.4642 25.1807C27.027 24.8675 26.4948 24.7155 25.9582 24.7504H18.3333C17.604 24.7504 16.9045 25.0401 16.3888 25.5559C15.8731 26.0716 15.5833 26.7711 15.5833 27.5004V30.3283C15.575 30.7874 15.6895 31.2404 15.9152 31.6403C16.1408 32.0402 16.4694 32.3724 16.8667 32.6026C17.3209 32.8662 17.8374 33.0036 18.3627 33.0004C18.8742 33.0019 19.3777 32.8732 19.8257 32.6264V32.6282ZM25.9582 26.5837C26.1204 26.5837 26.5082 26.614 26.5733 26.8963C26.5931 26.9816 26.5831 27.0711 26.5449 27.1498C26.5066 27.2286 26.4426 27.2918 26.3633 27.329L18.975 31.0039C18.7974 31.1067 18.5964 31.1623 18.3912 31.1655C18.186 31.1687 17.9834 31.1194 17.8026 31.0222C17.68 30.9537 17.579 30.8524 17.5108 30.7297C17.4427 30.607 17.4101 30.4676 17.4167 30.3274V27.5004C17.4167 27.2573 17.5132 27.0241 17.6852 26.8522C17.8571 26.6803 18.0902 26.5837 18.3333 26.5837H25.9582Z" fill="#312E4A"/>
</g>
<defs>
<clipPath id="clip0_8_5146">
<rect width="22" height="22" fill="white" transform="translate(11 11)"/>
</clipPath>
</defs>
</svg>
