<svg width="44" height="44" viewBox="0 0 44 44" fill="none" xmlns="http://www.w3.org/2000/svg">
<circle cx="22" cy="22" r="22" fill="#F3F3FA"/>
<g clip-path="url(#clip0_8_5147)">
<path d="M28.4165 32.9998H26.5832C26.3401 32.9998 26.1069 32.9032 25.935 32.7313C25.7631 32.5594 25.6665 32.3263 25.6665 32.0832C25.6665 31.84 25.7631 31.6069 25.935 31.435C26.1069 31.2631 26.3401 31.1665 26.5832 31.1665H28.4165C29.1458 31.1665 29.8453 30.8768 30.361 30.361C30.8768 29.8453 31.1665 29.1458 31.1665 28.4165V26.5832C31.1665 26.3401 31.2631 26.1069 31.435 25.935C31.6069 25.7631 31.84 25.6665 32.0832 25.6665C32.3263 25.6665 32.5594 25.7631 32.7313 25.935C32.9032 26.1069 32.9998 26.3401 32.9998 26.5832V28.4165C32.9984 29.6316 32.515 30.7966 31.6558 31.6558C30.7966 32.515 29.6316 32.9984 28.4165 32.9998V32.9998Z" fill="#374957"/>
<path d="M11.9167 18.3333C11.6736 18.3333 11.4404 18.2368 11.2685 18.0648C11.0966 17.8929 11 17.6598 11 17.4167V15.5833C11.0015 14.3682 11.4848 13.2033 12.344 12.344C13.2033 11.4848 14.3682 11.0015 15.5833 11H17.4167C17.6598 11 17.8929 11.0966 18.0648 11.2685C18.2368 11.4404 18.3333 11.6736 18.3333 11.9167C18.3333 12.1598 18.2368 12.3929 18.0648 12.5648C17.8929 12.7368 17.6598 12.8333 17.4167 12.8333H15.5833C14.854 12.8333 14.1545 13.1231 13.6388 13.6388C13.1231 14.1545 12.8333 14.854 12.8333 15.5833V17.4167C12.8333 17.6598 12.7368 17.8929 12.5648 18.0648C12.3929 18.2368 12.1598 18.3333 11.9167 18.3333V18.3333Z" fill="#374957"/>
<path d="M17.4167 32.9998H15.5833C14.3682 32.9984 13.2033 32.515 12.344 31.6558C11.4848 30.7966 11.0015 29.6316 11 28.4165V26.5832C11 26.3401 11.0966 26.1069 11.2685 25.935C11.4404 25.7631 11.6736 25.6665 11.9167 25.6665C12.1598 25.6665 12.3929 25.7631 12.5648 25.935C12.7368 26.1069 12.8333 26.3401 12.8333 26.5832V28.4165C12.8333 29.1458 13.1231 29.8453 13.6388 30.361C14.1545 30.8768 14.854 31.1665 15.5833 31.1665H17.4167C17.6598 31.1665 17.8929 31.2631 18.0648 31.435C18.2368 31.6069 18.3333 31.84 18.3333 32.0832C18.3333 32.3263 18.2368 32.5594 18.0648 32.7313C17.8929 32.9032 17.6598 32.9998 17.4167 32.9998Z" fill="#374957"/>
<path d="M32.0832 18.3333C31.84 18.3333 31.6069 18.2368 31.435 18.0648C31.2631 17.8929 31.1665 17.6598 31.1665 17.4167V15.5833C31.1665 14.854 30.8768 14.1545 30.361 13.6388C29.8453 13.1231 29.1458 12.8333 28.4165 12.8333H26.5832C26.3401 12.8333 26.1069 12.7368 25.935 12.5648C25.7631 12.3929 25.6665 12.1598 25.6665 11.9167C25.6665 11.6736 25.7631 11.4404 25.935 11.2685C26.1069 11.0966 26.3401 11 26.5832 11H28.4165C29.6316 11.0015 30.7966 11.4848 31.6558 12.344C32.515 13.2033 32.9984 14.3682 32.9998 15.5833V17.4167C32.9998 17.6598 32.9032 17.8929 32.7313 18.0648C32.5594 18.2368 32.3263 18.3333 32.0832 18.3333Z" fill="#374957"/>
</g>
<defs>
<clipPath id="clip0_8_5147">
<rect width="22" height="22" fill="white" transform="translate(11 11)"/>
</clipPath>
</defs>
</svg>
