<svg width="44" height="44" viewBox="0 0 44 44" fill="none" xmlns="http://www.w3.org/2000/svg">
<circle cx="22" cy="22" r="22" fill="#F3F3FA"/>
<g clip-path="url(#clip0_8_5148)">
<path d="M15.5832 23.8333C16.0894 23.8333 16.4998 23.4229 16.4998 22.9167C16.4998 22.4104 16.0894 22 15.5832 22C15.0769 22 14.6665 22.4104 14.6665 22.9167C14.6665 23.4229 15.0769 23.8333 15.5832 23.8333Z" fill="#374957"/>
<path d="M11.9167 20.1668C12.4229 20.1668 12.8333 19.7564 12.8333 19.2502C12.8333 18.7439 12.4229 18.3335 11.9167 18.3335C11.4104 18.3335 11 18.7439 11 19.2502C11 19.7564 11.4104 20.1668 11.9167 20.1668Z" fill="#374957"/>
<path d="M15.5832 16.4998C16.0894 16.4998 16.4998 16.0894 16.4998 15.5832C16.4998 15.0769 16.0894 14.6665 15.5832 14.6665C15.0769 14.6665 14.6665 15.0769 14.6665 15.5832C14.6665 16.0894 15.0769 16.4998 15.5832 16.4998Z" fill="#374957"/>
<path d="M11.9167 12.8333C12.4229 12.8333 12.8333 12.4229 12.8333 11.9167C12.8333 11.4104 12.4229 11 11.9167 11C11.4104 11 11 11.4104 11 11.9167C11 12.4229 11.4104 12.8333 11.9167 12.8333Z" fill="#374957"/>
<path d="M32.0832 23.8333C32.5894 23.8333 32.9998 23.4229 32.9998 22.9167C32.9998 22.4104 32.5894 22 32.0832 22C31.5769 22 31.1665 22.4104 31.1665 22.9167C31.1665 23.4229 31.5769 23.8333 32.0832 23.8333Z" fill="#374957"/>
<path d="M28.4167 20.1668C28.9229 20.1668 29.3333 19.7564 29.3333 19.2502C29.3333 18.7439 28.9229 18.3335 28.4167 18.3335C27.9104 18.3335 27.5 18.7439 27.5 19.2502C27.5 19.7564 27.9104 20.1668 28.4167 20.1668Z" fill="#374957"/>
<path d="M32.0832 16.4998C32.5894 16.4998 32.9998 16.0894 32.9998 15.5832C32.9998 15.0769 32.5894 14.6665 32.0832 14.6665C31.5769 14.6665 31.1665 15.0769 31.1665 15.5832C31.1665 16.0894 31.5769 16.4998 32.0832 16.4998Z" fill="#374957"/>
<path d="M28.4167 12.8333C28.9229 12.8333 29.3333 12.4229 29.3333 11.9167C29.3333 11.4104 28.9229 11 28.4167 11C27.9104 11 27.5 11.4104 27.5 11.9167C27.5 12.4229 27.9104 12.8333 28.4167 12.8333Z" fill="#374957"/>
<path d="M23.8332 32.9998C24.3394 32.9998 24.7498 32.5894 24.7498 32.0832C24.7498 31.5769 24.3394 31.1665 23.8332 31.1665C23.3269 31.1665 22.9165 31.5769 22.9165 32.0832C22.9165 32.5894 23.3269 32.9998 23.8332 32.9998Z" fill="#374957"/>
<path d="M20.1667 29.3333C20.6729 29.3333 21.0833 28.9229 21.0833 28.4167C21.0833 27.9104 20.6729 27.5 20.1667 27.5C19.6604 27.5 19.25 27.9104 19.25 28.4167C19.25 28.9229 19.6604 29.3333 20.1667 29.3333Z" fill="#374957"/>
<path d="M23.8332 25.6668C24.3394 25.6668 24.7498 25.2564 24.7498 24.7502C24.7498 24.2439 24.3394 23.8335 23.8332 23.8335C23.3269 23.8335 22.9165 24.2439 22.9165 24.7502C22.9165 25.2564 23.3269 25.6668 23.8332 25.6668Z" fill="#374957"/>
<path d="M20.1667 21.9998C20.6729 21.9998 21.0833 21.5894 21.0833 21.0832C21.0833 20.5769 20.6729 20.1665 20.1667 20.1665C19.6604 20.1665 19.25 20.5769 19.25 21.0832C19.25 21.5894 19.6604 21.9998 20.1667 21.9998Z" fill="#374957"/>
<path d="M24.7502 13.75C24.2639 13.75 23.7976 13.5568 23.4538 13.213C23.11 12.8692 22.9168 12.4029 22.9168 11.9167C22.9168 11.6736 22.8202 11.4404 22.6483 11.2685C22.4764 11.0966 22.2433 11 22.0002 11C21.757 11 21.5239 11.0966 21.352 11.2685C21.1801 11.4404 21.0835 11.6736 21.0835 11.9167V11.9167C21.0835 12.4029 20.8903 12.8692 20.5465 13.213C20.2027 13.5568 19.7364 13.75 19.2502 13.75C19.007 13.75 18.7739 13.8466 18.602 14.0185C18.4301 14.1904 18.3335 14.4236 18.3335 14.6667C18.3335 14.9098 18.4301 15.1429 18.602 15.3148C18.7739 15.4868 19.007 15.5833 19.2502 15.5833V15.5833C19.7364 15.5833 20.2027 15.7765 20.5465 16.1203C20.8903 16.4641 21.0835 16.9304 21.0835 17.4167C21.0835 17.6598 21.1801 17.8929 21.352 18.0648C21.5239 18.2368 21.757 18.3333 22.0002 18.3333C22.2433 18.3333 22.4764 18.2368 22.6483 18.0648C22.8202 17.8929 22.9168 17.6598 22.9168 17.4167C22.9168 16.9304 23.11 16.4641 23.4538 16.1203C23.7976 15.7765 24.2639 15.5833 24.7502 15.5833C24.9933 15.5833 25.2264 15.4868 25.3983 15.3148C25.5702 15.1429 25.6668 14.9098 25.6668 14.6667C25.6668 14.4236 25.5702 14.1904 25.3983 14.0185C25.2264 13.8466 24.9933 13.75 24.7502 13.75V13.75Z" fill="#374957"/>
<path d="M17.4167 28.4165C16.9304 28.4165 16.4641 28.2233 16.1203 27.8795C15.7765 27.5357 15.5833 27.0694 15.5833 26.5832C15.5833 26.3401 15.4868 26.1069 15.3148 25.935C15.1429 25.7631 14.9098 25.6665 14.6667 25.6665C14.4236 25.6665 14.1904 25.7631 14.0185 25.935C13.8466 26.1069 13.75 26.3401 13.75 26.5832V26.5832C13.75 27.0694 13.5568 27.5357 13.213 27.8795C12.8692 28.2233 12.4029 28.4165 11.9167 28.4165C11.6736 28.4165 11.4404 28.5131 11.2685 28.685C11.0966 28.8569 11 29.09 11 29.3332C11 29.5763 11.0966 29.8094 11.2685 29.9813C11.4404 30.1533 11.6736 30.2498 11.9167 30.2498V30.2498C12.4029 30.2498 12.8692 30.443 13.213 30.7868C13.5568 31.1306 13.75 31.5969 13.75 32.0832C13.75 32.3263 13.8466 32.5594 14.0185 32.7313C14.1904 32.9032 14.4236 32.9998 14.6667 32.9998C14.9098 32.9998 15.1429 32.9032 15.3148 32.7313C15.4868 32.5594 15.5833 32.3263 15.5833 32.0832C15.5833 31.5969 15.7765 31.1306 16.1203 30.7868C16.4641 30.443 16.9304 30.2498 17.4167 30.2498V30.2498C17.6598 30.2498 17.8929 30.1533 18.0648 29.9813C18.2368 29.8094 18.3333 29.5763 18.3333 29.3332C18.3333 29.09 18.2368 28.8569 18.0648 28.685C17.8929 28.5131 17.6598 28.4165 17.4167 28.4165Z" fill="#374957"/>
<path d="M32.0832 28.4165C31.5969 28.4165 31.1306 28.2233 30.7868 27.8795C30.443 27.5357 30.2498 27.0694 30.2498 26.5832C30.2498 26.3401 30.1533 26.1069 29.9813 25.935C29.8094 25.7631 29.5763 25.6665 29.3332 25.6665C29.09 25.6665 28.8569 25.7631 28.685 25.935C28.5131 26.1069 28.4165 26.3401 28.4165 26.5832C28.4165 27.0694 28.2233 27.5357 27.8795 27.8795C27.5357 28.2233 27.0694 28.4165 26.5832 28.4165C26.3401 28.4165 26.1069 28.5131 25.935 28.685C25.7631 28.8569 25.6665 29.09 25.6665 29.3332C25.6665 29.5763 25.7631 29.8094 25.935 29.9813C26.1069 30.1533 26.3401 30.2498 26.5832 30.2498C27.0694 30.2498 27.5357 30.443 27.8795 30.7868C28.2233 31.1306 28.4165 31.5969 28.4165 32.0832C28.4165 32.3263 28.5131 32.5594 28.685 32.7313C28.8569 32.9032 29.09 32.9998 29.3332 32.9998C29.5763 32.9998 29.8094 32.9032 29.9813 32.7313C30.1533 32.5594 30.2498 32.3263 30.2498 32.0832C30.2498 31.5969 30.443 31.1306 30.7868 30.7868C31.1306 30.443 31.5969 30.2498 32.0832 30.2498V30.2498C32.3263 30.2498 32.5594 30.1533 32.7313 29.9813C32.9032 29.8094 32.9998 29.5763 32.9998 29.3332C32.9998 29.09 32.9032 28.8569 32.7313 28.685C32.5594 28.5131 32.3263 28.4165 32.0832 28.4165Z" fill="#374957"/>
</g>
<defs>
<clipPath id="clip0_8_5148">
<rect width="22" height="22" fill="white" transform="translate(11 11)"/>
</clipPath>
</defs>
</svg>
