<svg width="44" height="44" viewBox="0 0 44 44" fill="none" xmlns="http://www.w3.org/2000/svg">
<circle cx="22" cy="22" r="22" fill="#F3F3FA"/>
<g clip-path="url(#clip0_8_5149)">
<path d="M27.5 17.4162C27.5 17.5975 27.4462 17.7748 27.3455 17.9255C27.2448 18.0762 27.1016 18.1937 26.9341 18.2631C26.7666 18.3325 26.5823 18.3506 26.4045 18.3153C26.2267 18.2799 26.0634 18.1926 25.9352 18.0644C25.807 17.9362 25.7197 17.7729 25.6843 17.5951C25.6489 17.4172 25.6671 17.2329 25.7364 17.0654C25.8058 16.8979 25.9233 16.7548 26.0741 16.654C26.2248 16.5533 26.402 16.4996 26.5833 16.4996C26.8264 16.4996 27.0596 16.5961 27.2315 16.768C27.4034 16.94 27.5 17.1731 27.5 17.4162ZM23.8333 19.2496C23.652 19.2496 23.4748 19.3033 23.3241 19.404C23.1733 19.5048 23.0558 19.6479 22.9864 19.8154C22.9171 19.9829 22.8989 20.1672 22.9343 20.3451C22.9697 20.5229 23.057 20.6862 23.1852 20.8144C23.3134 20.9426 23.4767 21.0299 23.6545 21.0653C23.8323 21.1006 24.0166 21.0825 24.1841 21.0131C24.3516 20.9437 24.4948 20.8262 24.5955 20.6755C24.6962 20.5248 24.75 20.3475 24.75 20.1662C24.75 19.9231 24.6534 19.69 24.4815 19.518C24.3096 19.3461 24.0764 19.2496 23.8333 19.2496ZM21.0833 21.9996C20.902 21.9996 20.7248 22.0533 20.5741 22.154C20.4233 22.2548 20.3058 22.3979 20.2364 22.5654C20.1671 22.7329 20.1489 22.9172 20.1843 23.0951C20.2197 23.2729 20.307 23.4362 20.4352 23.5644C20.5634 23.6926 20.7267 23.7799 20.9045 23.8153C21.0823 23.8506 21.2666 23.8325 21.4341 23.7631C21.6016 23.6937 21.7448 23.5762 21.8455 23.4255C21.9462 23.2748 22 23.0975 22 22.9162C22 22.6731 21.9034 22.44 21.7315 22.268C21.5596 22.0961 21.3264 21.9996 21.0833 21.9996ZM32.8772 13.7111L32.8084 13.9045C31.4316 17.7251 30.1107 21.3579 27.5 24.5846V24.7496C27.4984 26.1536 27.2041 27.5419 26.6359 28.8259C26.0677 30.1098 25.2381 31.2613 24.2 32.2066C23.6505 32.7136 22.931 32.9965 22.1833 32.9996C21.4052 32.9971 20.6596 32.6866 20.1099 32.1358C19.5601 31.585 19.251 30.8389 19.25 30.0607V29.0056C18.5736 28.7875 17.9579 28.4135 17.4524 27.9139L17.4167 27.8791L15.3148 29.981C15.1419 30.148 14.9103 30.2403 14.67 30.2383C14.4296 30.2362 14.1997 30.1398 14.0297 29.9698C13.8598 29.7999 13.7634 29.5699 13.7613 29.3296C13.7592 29.0892 13.8516 28.8577 14.0186 28.6848L16.1205 26.5829L16.0848 26.5481C15.5848 26.042 15.21 25.4261 14.9903 24.7496H14.0828C13.2655 24.7488 12.482 24.4239 11.904 23.8462C11.3261 23.2684 11.001 22.4849 11 21.6677C11.0016 20.8696 11.3094 20.1025 11.8598 19.5246C12.8182 18.5403 13.9689 17.7638 15.2403 17.2434C16.5117 16.723 17.8765 16.4698 19.25 16.4996H19.415C22.6417 13.8898 26.2717 12.5689 30.0905 11.193L30.2885 11.1224C30.6498 10.9896 31.0417 10.9629 31.4177 11.0456C31.7937 11.1284 32.1381 11.317 32.4104 11.5892C32.6826 11.8614 32.8712 12.2059 32.9539 12.5819C33.0366 12.9579 33.01 13.3497 32.8772 13.7111ZM14.0828 22.9162H14.7583C14.8272 22.1086 15.109 21.3336 15.5751 20.6704C16.0866 19.9344 16.6403 19.2286 17.2333 18.5566C15.6957 18.8748 14.2899 19.6499 13.2 20.7804C12.9681 21.018 12.8368 21.3358 12.8333 21.6677C12.8338 21.9989 12.9656 22.3163 13.1999 22.5503C13.4341 22.7844 13.7516 22.916 14.0828 22.9162ZM25.3917 26.8139C24.7342 27.3895 24.045 27.9278 23.3273 28.4263C22.6636 28.8878 21.8892 29.1649 21.0833 29.2293V30.0607C21.0838 30.3539 21.2006 30.635 21.408 30.8422C21.6154 31.0495 21.8965 31.166 22.1898 31.1662C22.4804 31.1619 22.759 31.0491 22.9708 30.85C24.1525 29.7682 24.9937 28.3658 25.3917 26.8139ZM31.1089 12.8906C31.0845 12.8635 31.0522 12.8446 31.0165 12.8367C30.9808 12.8288 30.9436 12.8323 30.91 12.8466L30.7129 12.9181C26.2726 14.5177 22.4382 15.9001 19.1363 19.201C18.3789 19.982 17.6895 20.8263 17.0757 21.7246C16.7023 22.2545 16.5281 22.8994 16.584 23.5453C16.6398 24.1912 16.9221 24.7966 17.3809 25.2546L18.7486 26.6205C19.2064 27.079 19.8114 27.3611 20.4569 27.4171C21.1024 27.4731 21.7469 27.2994 22.2768 26.9266C23.1746 26.3129 24.0183 25.6235 24.7986 24.866C28.0986 21.566 29.4828 17.7279 31.0833 13.2857L31.1529 13.0923C31.1678 13.0583 31.1715 13.0206 31.1636 12.9843C31.1557 12.9481 31.1366 12.9153 31.1089 12.8906Z" fill="#374957"/>
</g>
<defs>
<clipPath id="clip0_8_5149">
<rect width="22" height="22" fill="white" transform="translate(11 11)"/>
</clipPath>
</defs>
</svg>
