<svg width="44" height="44" viewBox="0 0 44 44" fill="none" xmlns="http://www.w3.org/2000/svg">
<circle cx="22" cy="22" r="22" fill="#F3F3FA"/>
<g clip-path="url(#clip0_8_5150)">
<path d="M11 21.9993C11 21.7562 11.0966 21.5231 11.2685 21.3512C11.4404 21.1792 11.6736 21.0827 11.9167 21.0827H17.4167C17.6598 21.0827 17.8929 21.1792 18.0648 21.3512C18.2368 21.5231 18.3333 21.7562 18.3333 21.9993C18.3333 22.2424 18.2368 22.4756 18.0648 22.6475C17.8929 22.8194 17.6598 22.916 17.4167 22.916H11.9167C11.6736 22.916 11.4404 22.8194 11.2685 22.6475C11.0966 22.4756 11 22.2424 11 21.9993ZM30.1455 21.1807C30.6024 20.6098 30.9158 19.9376 31.0593 19.2206C31.2029 18.5035 31.1724 17.7625 30.9705 17.0596C30.7686 16.3568 30.4011 15.7126 29.8988 15.1811C29.3966 14.6496 28.7742 14.2462 28.0839 14.0049C27.3936 13.7635 26.6555 13.6911 25.9315 13.7939C25.2074 13.8966 24.5186 14.1715 23.9227 14.5954C23.3268 15.0193 22.8412 15.5798 22.5067 16.2301C22.1722 16.8804 21.9984 17.6014 22 18.3327C22 18.5758 22.0966 18.8089 22.2685 18.9808C22.4404 19.1528 22.6736 19.2493 22.9167 19.2493C23.1598 19.2493 23.3929 19.1528 23.5648 18.9808C23.7368 18.8089 23.8333 18.5758 23.8333 18.3327C23.8333 17.7888 23.9946 17.2571 24.2968 16.8048C24.599 16.3526 25.0285 16.0001 25.531 15.792C26.0335 15.5839 26.5864 15.5294 27.1198 15.6355C27.6533 15.7416 28.1433 16.0035 28.5279 16.3881C28.9125 16.7727 29.1744 17.2627 29.2805 17.7962C29.3866 18.3296 29.3321 18.8825 29.124 19.385C28.9159 19.8875 28.5634 20.317 28.1112 20.6192C27.6589 20.9214 27.1272 21.0827 26.5833 21.0827H21.0833C20.8402 21.0827 20.6071 21.1792 20.4352 21.3512C20.2632 21.5231 20.1667 21.7562 20.1667 21.9993C20.1667 22.2424 20.2632 22.4756 20.4352 22.6475C20.6071 22.8194 20.8402 22.916 21.0833 22.916H29.3333C29.8196 22.916 30.2859 23.1092 30.6297 23.453C30.9735 23.7968 31.1667 24.2631 31.1667 24.7493C31.1584 26.8916 28.1591 27.1767 27.4478 25.3607C27.3668 25.1315 27.1981 24.9438 26.9787 24.8389C26.7594 24.7341 26.5073 24.7206 26.2781 24.8016C26.0488 24.8825 25.8611 25.0513 25.7563 25.2706C25.6514 25.49 25.638 25.742 25.7189 25.9712C27.1471 29.7131 32.956 28.9467 33 24.7493C32.9984 23.9192 32.7152 23.1142 32.1967 22.466C31.6781 21.8177 30.955 21.3646 30.1455 21.1807V21.1807ZM21.0833 25.666H11.9167C11.6736 25.666 11.4404 25.7626 11.2685 25.9345C11.0966 26.1064 11 26.3395 11 26.5827C11 26.8258 11.0966 27.0589 11.2685 27.2308C11.4404 27.4028 11.6736 27.4993 11.9167 27.4993H21.0833C21.5696 27.4993 22.0359 27.6925 22.3797 28.0363C22.7235 28.3801 22.9167 28.8464 22.9167 29.3327C22.9084 31.4749 19.9091 31.76 19.1978 29.9441C19.1577 29.8306 19.0956 29.7261 19.0151 29.6365C18.9347 29.547 18.8373 29.4742 18.7287 29.4223C18.6201 29.3703 18.5023 29.3403 18.3821 29.3339C18.2619 29.3275 18.1416 29.3448 18.0281 29.3849C17.9146 29.425 17.8101 29.4871 17.7205 29.5675C17.631 29.648 17.5582 29.7453 17.5063 29.8539C17.4543 29.9626 17.4243 30.0803 17.4179 30.2005C17.4115 30.3208 17.4288 30.4411 17.4689 30.5546C18.8971 34.2964 24.706 33.5301 24.75 29.3327C24.75 28.3602 24.3637 27.4276 23.6761 26.7399C22.9884 26.0523 22.0558 25.666 21.0833 25.666V25.666ZM11.9167 18.3327H17.4167C18.3891 18.3327 19.3218 17.9464 20.0094 17.2587C20.697 16.5711 21.0833 15.6385 21.0833 14.666C21.0393 10.4667 15.2286 9.70316 13.8022 13.4441C13.7213 13.6733 13.7347 13.9254 13.8396 14.1447C13.9445 14.3641 14.1322 14.5328 14.3614 14.6137C14.5907 14.6947 14.8427 14.6813 15.0621 14.5764C15.2814 14.4715 15.4501 14.2838 15.5311 14.0546C16.2433 12.2377 19.2418 12.5237 19.25 14.666C19.25 15.1522 19.0568 15.6185 18.713 15.9624C18.3692 16.3062 17.9029 16.4993 17.4167 16.4993H11.9167C11.6736 16.4993 11.4404 16.5959 11.2685 16.7678C11.0966 16.9397 11 17.1729 11 17.416C11 17.6591 11.0966 17.8923 11.2685 18.0642C11.4404 18.2361 11.6736 18.3327 11.9167 18.3327V18.3327Z" fill="#374957"/>
</g>
<defs>
<clipPath id="clip0_8_5150">
<rect width="22" height="22" fill="white" transform="translate(11 11)"/>
</clipPath>
</defs>
</svg>
