<svg width="44" height="44" viewBox="0 0 44 44" fill="none" xmlns="http://www.w3.org/2000/svg">
<circle cx="22" cy="22" r="22" fill="#F3F3FA"/>
<g clip-path="url(#clip0_8_5151)">
<path d="M30.6718 14.7894C30.4865 13.7272 29.9321 12.7646 29.1063 12.0713C28.2805 11.378 27.2364 10.9985 26.1582 10.9999H17.8303C16.7512 10.9982 15.7062 11.378 14.88 12.0721C14.0537 12.7661 13.4994 13.7299 13.3148 14.793L11.0698 27.6264C10.9546 28.2851 10.9848 28.961 11.1585 29.6068C11.3321 30.2525 11.645 30.8525 12.075 31.3645C12.5051 31.8765 13.0421 32.2882 13.6482 32.5707C14.2542 32.8533 14.9148 32.9997 15.5835 32.9999H28.4168C29.086 33 29.747 32.8535 30.3535 32.5708C30.96 32.2882 31.4973 31.8761 31.9275 31.3637C32.3578 30.8512 32.6706 30.2507 32.8441 29.6044C33.0175 28.9582 33.0473 28.2817 32.9314 27.6227L30.6718 14.7894ZM30.5252 30.1848C30.2668 30.4925 29.9441 30.7399 29.5799 30.9095C29.2156 31.0791 28.8186 31.1669 28.4168 31.1666H15.5835C15.1822 31.1666 14.7857 31.0787 14.4219 30.9092C14.0581 30.7397 13.7359 30.4926 13.4777 30.1853C13.2196 29.878 13.0319 29.5179 12.9277 29.1303C12.8235 28.7427 12.8055 28.337 12.8748 27.9417L15.1197 15.1084C15.2314 14.4708 15.5646 13.893 16.0604 13.4769C16.5562 13.0607 17.1829 12.8328 17.8303 12.8332H26.1582C26.8048 12.8333 27.4306 13.0613 27.9258 13.4771C28.421 13.8928 28.7539 14.4697 28.866 15.1065L31.1237 27.9399C31.1938 28.3351 31.1766 28.7408 31.0732 29.1287C30.9698 29.5165 30.7827 29.877 30.5252 30.1848V30.1848ZM22.9168 15.5832V17.4165C22.9168 17.6597 22.8203 17.8928 22.6483 18.0647C22.4764 18.2366 22.2433 18.3332 22.0002 18.3332C21.7571 18.3332 21.5239 18.2366 21.352 18.0647C21.1801 17.8928 21.0835 17.6597 21.0835 17.4165V15.5832C21.0835 15.3401 21.1801 15.1069 21.352 14.935C21.5239 14.7631 21.7571 14.6665 22.0002 14.6665C22.2433 14.6665 22.4764 14.7631 22.6483 14.935C22.8203 15.1069 22.9168 15.3401 22.9168 15.5832ZM22.9168 21.0832V22.9166C22.9168 23.1597 22.8203 23.3928 22.6483 23.5647C22.4764 23.7366 22.2433 23.8332 22.0002 23.8332C21.7571 23.8332 21.5239 23.7366 21.352 23.5647C21.1801 23.3928 21.0835 23.1597 21.0835 22.9166V21.0832C21.0835 20.8401 21.1801 20.6069 21.352 20.435C21.5239 20.2631 21.7571 20.1666 22.0002 20.1666C22.2433 20.1666 22.4764 20.2631 22.6483 20.435C22.8203 20.6069 22.9168 20.8401 22.9168 21.0832V21.0832ZM22.9168 26.5832V28.4166C22.9168 28.6597 22.8203 28.8928 22.6483 29.0647C22.4764 29.2366 22.2433 29.3332 22.0002 29.3332C21.7571 29.3332 21.5239 29.2366 21.352 29.0647C21.1801 28.8928 21.0835 28.6597 21.0835 28.4166V26.5832C21.0835 26.3401 21.1801 26.1069 21.352 25.935C21.5239 25.7631 21.7571 25.6666 22.0002 25.6666C22.2433 25.6666 22.4764 25.7631 22.6483 25.935C22.8203 26.1069 22.9168 26.3401 22.9168 26.5832Z" fill="#374957"/>
</g>
<defs>
<clipPath id="clip0_8_5151">
<rect width="22" height="22" fill="white" transform="translate(11 11)"/>
</clipPath>
</defs>
</svg>
