<svg width="44" height="44" viewBox="0 0 44 44" fill="none" xmlns="http://www.w3.org/2000/svg">
<circle cx="22" cy="22" r="22" fill="#F3F3FA"/>
<g clip-path="url(#clip0_8_5152)">
<path d="M30.25 25.6672V22.0005C30.2497 20.769 29.9732 19.5532 29.4408 18.4427C28.9084 17.3322 28.1336 16.3553 27.1737 15.5838H29.5873C29.7904 15.93 30.102 16.1995 30.4738 16.3507C30.8456 16.5019 31.2568 16.5263 31.6439 16.4202C32.031 16.314 32.3722 16.0833 32.6149 15.7636C32.8576 15.4439 32.9882 15.0532 32.9863 14.6518C32.9845 14.2505 32.8505 13.8609 32.6049 13.5435C32.3594 13.226 32.016 12.9983 31.628 12.8957C31.24 12.793 30.829 12.8211 30.4586 12.9757C30.0882 13.1302 29.779 13.4025 29.579 13.7505H25.5365C25.3364 12.9644 24.8801 12.2673 24.2397 11.7695C23.5992 11.2716 22.8112 11.0013 22 11.0013C21.1888 11.0013 20.4008 11.2716 19.7603 11.7695C19.1199 12.2673 18.6636 12.9644 18.4635 13.7505H14.4128C14.2096 13.4043 13.898 13.1348 13.5262 12.9836C13.1544 12.8324 12.7432 12.808 12.3561 12.9141C11.969 13.0203 11.6278 13.251 11.3851 13.5707C11.1424 13.8904 11.0118 14.2811 11.0137 14.6825C11.0155 15.0838 11.1495 15.4734 11.3951 15.7909C11.6406 16.1083 11.984 16.336 12.372 16.4386C12.76 16.5413 13.171 16.5132 13.5414 16.3586C13.9118 16.2041 14.221 15.9318 14.421 15.5838H16.8263C15.8664 16.3553 15.0916 17.3322 14.5592 18.4427C14.0268 19.5532 13.7503 20.769 13.75 22.0005V25.6672C13.0207 25.6672 12.3212 25.9569 11.8055 26.4726C11.2897 26.9883 11 27.6878 11 28.4172V30.2505C11 30.9798 11.2897 31.6793 11.8055 32.195C12.3212 32.7108 13.0207 33.0005 13.75 33.0005H15.5833C16.3127 33.0005 17.0122 32.7108 17.5279 32.195C18.0436 31.6793 18.3333 30.9798 18.3333 30.2505V28.4172C18.3333 27.6878 18.0436 26.9883 17.5279 26.4726C17.0122 25.9569 16.3127 25.6672 15.5833 25.6672V22.0005C15.5848 20.8718 15.884 19.7635 16.4507 18.7874C17.0174 17.8112 17.8315 17.0019 18.8109 16.4409C19.1234 17.0138 19.5845 17.4919 20.1457 17.825C20.7069 18.1581 21.3474 18.3339 22 18.3339C22.6526 18.3339 23.2931 18.1581 23.8543 17.825C24.4155 17.4919 24.8766 17.0138 25.1891 16.4409C26.1685 17.0019 26.9826 17.8112 27.5493 18.7874C28.116 19.7635 28.4152 20.8718 28.4167 22.0005V25.6672C27.6873 25.6672 26.9878 25.9569 26.4721 26.4726C25.9564 26.9883 25.6667 27.6878 25.6667 28.4172V30.2505C25.6667 30.9798 25.9564 31.6793 26.4721 32.195C26.9878 32.7108 27.6873 33.0005 28.4167 33.0005H30.25C30.9793 33.0005 31.6788 32.7108 32.1945 32.195C32.7103 31.6793 33 30.9798 33 30.2505V28.4172C33 27.6878 32.7103 26.9883 32.1945 26.4726C31.6788 25.9569 30.9793 25.6672 30.25 25.6672V25.6672ZM16.5 28.4172V30.2505C16.5 30.4936 16.4034 30.7268 16.2315 30.8987C16.0596 31.0706 15.8264 31.1672 15.5833 31.1672H13.75C13.5069 31.1672 13.2737 31.0706 13.1018 30.8987C12.9299 30.7268 12.8333 30.4936 12.8333 30.2505V28.4172C12.8333 28.174 12.9299 27.9409 13.1018 27.769C13.2737 27.5971 13.5069 27.5005 13.75 27.5005H15.5833C15.8264 27.5005 16.0596 27.5971 16.2315 27.769C16.4034 27.9409 16.5 28.174 16.5 28.4172ZM22 16.5005C21.6374 16.5005 21.2829 16.393 20.9815 16.1915C20.68 15.9901 20.445 15.7037 20.3062 15.3687C20.1675 15.0337 20.1312 14.6651 20.2019 14.3095C20.2726 13.9539 20.4472 13.6272 20.7036 13.3708C20.96 13.1144 21.2867 12.9398 21.6423 12.869C21.998 12.7983 22.3666 12.8346 22.7016 12.9734C23.0366 13.1121 23.3229 13.3471 23.5244 13.6486C23.7258 13.9501 23.8333 14.3046 23.8333 14.6672C23.8333 15.1534 23.6402 15.6197 23.2964 15.9635C22.9525 16.3073 22.4862 16.5005 22 16.5005ZM31.1667 30.2505C31.1667 30.4936 31.0701 30.7268 30.8982 30.8987C30.7263 31.0706 30.4931 31.1672 30.25 31.1672H28.4167C28.1736 31.1672 27.9404 31.0706 27.7685 30.8987C27.5966 30.7268 27.5 30.4936 27.5 30.2505V28.4172C27.5 28.174 27.5966 27.9409 27.7685 27.769C27.9404 27.5971 28.1736 27.5005 28.4167 27.5005H30.25C30.4931 27.5005 30.7263 27.5971 30.8982 27.769C31.0701 27.9409 31.1667 28.174 31.1667 28.4172V30.2505Z" fill="#374957"/>
</g>
<defs>
<clipPath id="clip0_8_5152">
<rect width="22" height="22" fill="white" transform="translate(11 11)"/>
</clipPath>
</defs>
</svg>
