<svg width="44" height="44" viewBox="0 0 44 44" fill="none" xmlns="http://www.w3.org/2000/svg">
<circle cx="22" cy="22" r="22" fill="#F3F3FA"/>
<g clip-path="url(#clip0_8_5153)">
<path d="M29.3562 31.1905H28.4396V29.6734C28.4376 29.182 28.3373 28.6959 28.1444 28.2439C27.9515 27.7919 27.6701 27.3831 27.3166 27.0417C25.553 25.3376 24.8334 23.3851 24.7811 20.1887H25.6868C25.9299 20.1887 26.1631 20.0921 26.335 19.9202C26.5069 19.7483 26.6035 19.5151 26.6035 19.272C26.6035 19.0289 26.5069 18.7957 26.335 18.6238C26.1631 18.4519 25.9299 18.3553 25.6868 18.3553H25.1771C25.5075 17.8006 25.6834 17.1676 25.6868 16.522C25.6868 15.2616 24.6216 13.1148 23.9516 12.0578C23.7443 11.7338 23.4588 11.4672 23.1215 11.2825C22.7841 11.0978 22.4057 11.001 22.0211 11.001C21.6364 11.001 21.258 11.0978 20.9206 11.2825C20.5833 11.4672 20.2978 11.7338 20.0906 12.0578C19.4196 13.1157 18.3544 15.2662 18.3544 16.5229C18.3582 17.1685 18.5341 17.8013 18.8641 18.3562H18.3571C18.114 18.3562 17.8809 18.4528 17.709 18.6247C17.537 18.7966 17.4405 19.0298 17.4405 19.2729C17.4405 19.516 17.537 19.7492 17.709 19.9211C17.8809 20.093 18.114 20.1896 18.3571 20.1896H19.2637C19.2106 23.386 18.4901 25.3376 16.7282 27.0417C16.3754 27.3833 16.0945 27.7921 15.902 28.2439C15.7095 28.6957 15.6092 29.1814 15.6071 29.6725V31.1896H14.6905C14.4474 31.1896 14.2142 31.2862 14.0423 31.4581C13.8704 31.63 13.7738 31.8631 13.7738 32.1062C13.7738 32.3494 13.8704 32.5825 14.0423 32.7544C14.2142 32.9263 14.4474 33.0229 14.6905 33.0229H29.3571C29.6003 33.0229 29.8334 32.9263 30.0053 32.7544C30.1772 32.5825 30.2738 32.3494 30.2738 32.1062C30.2738 31.8631 30.1772 31.63 30.0053 31.4581C29.8334 31.2862 29.6003 31.1896 29.3571 31.1896L29.3562 31.1905ZM21.6406 13.0405C21.6824 12.9771 21.7392 12.9252 21.806 12.8892C21.8728 12.8532 21.9475 12.8344 22.0233 12.8344C22.0992 12.8344 22.1739 12.8532 22.2407 12.8892C22.3075 12.9252 22.3643 12.9771 22.4061 13.0405C23.1093 14.0974 23.6017 15.2802 23.8562 16.5238C23.8562 17.0101 23.6631 17.4764 23.3192 17.8202C22.9754 18.164 22.5091 18.3572 22.0229 18.3572C21.5367 18.3572 21.0703 18.164 20.7265 17.8202C20.3827 17.4764 20.1896 17.0101 20.1896 16.5238C20.4447 15.2805 20.9374 14.0981 21.6406 13.0414V13.0405ZM22.9515 20.1905C23.001 23.4135 23.6848 25.6456 25.2633 27.5238H18.7834C20.3601 25.6456 21.0457 23.4126 21.0961 20.1905H22.9515ZM17.4405 29.6734C17.4418 29.5672 17.4529 29.4614 17.4735 29.3572H26.5741C26.594 29.4615 26.6047 29.5673 26.6062 29.6734V31.1905H17.4396L17.4405 29.6734Z" fill="#374957"/>
</g>
<defs>
<clipPath id="clip0_8_5153">
<rect width="22" height="22" fill="white" transform="translate(11 11)"/>
</clipPath>
</defs>
</svg>
