<svg width="16" height="16" viewBox="0 0 16 16" fill="none" xmlns="http://www.w3.org/2000/svg">
<g clip-path="url(#clip0_1_4524)">
<path d="M-5.04777e-07 8C-5.04777e-07 7.82319 0.0702374 7.65362 0.195262 7.52859C0.320286 7.40357 0.489855 7.33333 0.666666 7.33333H3.386C3.4387 6.96733 3.53587 6.60913 3.67533 6.26667L1.32133 4.89933C1.24275 4.85704 1.17346 4.79941 1.11756 4.72984C1.06166 4.66027 1.0203 4.58019 0.995932 4.49434C0.97156 4.4085 0.964672 4.31863 0.975676 4.23007C0.98668 4.14151 1.01535 4.05606 1.05999 3.97879C1.10463 3.90152 1.16433 3.83399 1.23555 3.78022C1.30677 3.72645 1.38807 3.68752 1.47461 3.66575C1.56115 3.64398 1.65119 3.63981 1.73938 3.65348C1.82756 3.66715 1.91211 3.69838 1.988 3.74533L4.34467 5.11067C4.57034 4.82765 4.82781 4.57153 5.112 4.34733L3.74533 1.98933C3.6632 1.8367 3.64373 1.65808 3.69107 1.49134C3.73841 1.3246 3.84882 1.18285 3.99891 1.09615C4.14899 1.00944 4.32694 0.984602 4.49504 1.02689C4.66313 1.06918 4.80814 1.17527 4.89933 1.32267L6.26667 3.67533C6.60933 3.5366 6.96747 3.43968 7.33333 3.38667V0.666667C7.33333 0.489856 7.40357 0.320286 7.52859 0.195262C7.65362 0.0702379 7.82319 0 8 0C8.17681 0 8.34638 0.0702379 8.4714 0.195262C8.59643 0.320286 8.66667 0.489856 8.66667 0.666667V3.38667C9.03253 3.43968 9.39067 3.5366 9.73333 3.67533L11.098 1.32067C11.1892 1.17327 11.3342 1.06718 11.5023 1.02489C11.6704 0.982602 11.8483 1.00744 11.9984 1.09415C12.1485 1.18085 12.2589 1.3226 12.3063 1.48934C12.3536 1.65608 12.3341 1.8347 12.252 1.98733L10.8853 4.34467C11.1694 4.56897 11.4271 4.82483 11.6533 5.10733L14.0073 3.74267C14.16 3.66053 14.3386 3.64107 14.5053 3.6884C14.6721 3.73574 14.8138 3.84616 14.9005 3.99624C14.9872 4.14632 15.0121 4.32428 14.9698 4.49237C14.9275 4.66046 14.8214 4.80547 14.674 4.89667L12.3267 6.26267C12.4677 6.60818 12.5664 6.96947 12.6207 7.33867L15.3333 7.33333C15.5101 7.33333 15.6797 7.40357 15.8047 7.52859C15.9298 7.65362 16 7.82319 16 8C16 8.17681 15.9298 8.34638 15.8047 8.4714C15.6797 8.59643 15.5101 8.66667 15.3333 8.66667H12.6147C12.2952 8.66555 11.9868 8.54978 11.7455 8.34044C11.5043 8.13109 11.3462 7.84208 11.3 7.526C11.178 6.7383 10.7783 6.02022 10.1731 5.50151C9.56788 4.98281 8.79708 4.69769 8 4.69769C7.20292 4.69769 6.43212 4.98281 5.82691 5.50151C5.22169 6.02022 4.82198 6.7383 4.7 7.526C4.65386 7.84197 4.49585 8.13089 4.25472 8.34022C4.01358 8.54955 3.70532 8.66539 3.386 8.66667H0.666666C0.489855 8.66667 0.320286 8.59643 0.195262 8.4714C0.0702374 8.34638 -5.04777e-07 8.17681 -5.04777e-07 8ZM15.8293 11.0433C15.7112 10.9118 15.5457 10.8326 15.3692 10.8231C15.1926 10.8136 15.0196 10.8746 14.888 10.9927C14.7123 11.1331 14.5069 11.2316 14.2874 11.2805C14.0679 11.3295 13.8401 11.3276 13.6214 11.275C13.4027 11.2225 13.1989 11.1206 13.0256 10.9773C12.8523 10.834 12.714 10.6529 12.6213 10.448C12.5902 10.3538 12.538 10.268 12.4686 10.1971C12.3993 10.1262 12.3147 10.072 12.2213 10.0387C12.0548 9.97995 11.8717 9.98972 11.7124 10.0658C11.553 10.142 11.4303 10.2782 11.3713 10.4447C11.2477 10.7048 11.0529 10.9247 10.8095 11.0787C10.5661 11.2327 10.2841 11.3147 9.99605 11.315C9.70801 11.3154 9.42576 11.2341 9.18199 11.0807C8.93823 10.9272 8.74291 10.7079 8.61867 10.448C8.58743 10.3538 8.53518 10.268 8.46589 10.1969C8.39659 10.1259 8.31205 10.0716 8.21867 10.038C8.13611 10.0088 8.04862 9.99623 7.96118 10.0009C7.87375 10.0055 7.78809 10.0274 7.7091 10.0651C7.63011 10.1029 7.55933 10.1559 7.5008 10.221C7.44227 10.2861 7.39715 10.3621 7.368 10.4447C7.24431 10.7047 7.04954 10.9243 6.80621 11.0782C6.56289 11.2321 6.28096 11.314 5.99305 11.3143C5.70514 11.3147 5.42302 11.2335 5.17932 11.0802C4.93562 10.9269 4.74032 10.7077 4.616 10.448C4.58476 10.3538 4.53252 10.268 4.46322 10.1969C4.39392 10.1259 4.30939 10.0716 4.216 10.038C4.13344 10.0088 4.04595 9.99623 3.95852 10.0009C3.87109 10.0055 3.78543 10.0274 3.70643 10.0651C3.62744 10.1029 3.55666 10.1559 3.49813 10.221C3.43961 10.2861 3.39448 10.3621 3.36533 10.4447C3.27417 10.65 3.13707 10.8316 2.96459 10.9756C2.79212 11.1195 2.58888 11.2219 2.37057 11.2748C2.15225 11.3278 1.92469 11.3299 1.70543 11.281C1.48618 11.232 1.2811 11.1334 1.106 10.9927C0.972435 10.8903 0.805114 10.8423 0.637603 10.8582C0.470092 10.8741 0.314783 10.9527 0.202834 11.0783C0.0908844 11.2039 0.0305756 11.3672 0.0340066 11.5355C0.0374376 11.7037 0.104355 11.8644 0.221333 11.9853C0.753243 12.442 1.43793 12.6811 2.13849 12.6548C2.83905 12.6284 3.50386 12.3386 4 11.8433C4.53631 12.3626 5.25353 12.6529 6 12.6529C6.74647 12.6529 7.46369 12.3626 8 11.8433C8.53623 12.3627 9.25348 12.6531 10 12.6531C10.7465 12.6531 11.4638 12.3627 12 11.8433C12.496 12.3387 13.1608 12.6286 13.8614 12.6551C14.5619 12.6815 15.2467 12.4426 15.7787 11.986C15.844 11.9275 15.8971 11.8567 15.935 11.7776C15.9729 11.6985 15.9949 11.6127 15.9996 11.5252C16.0043 11.4376 15.9917 11.35 15.9625 11.2673C15.9332 11.1846 15.888 11.1085 15.8293 11.0433ZM15.8293 14.3767C15.7112 14.2451 15.5457 14.1659 15.3692 14.1564C15.1926 14.1469 15.0196 14.2079 14.888 14.326C14.7123 14.4665 14.5069 14.5649 14.2874 14.6138C14.0679 14.6628 13.8401 14.6609 13.6214 14.6084C13.4027 14.5558 13.1989 14.454 13.0256 14.3106C12.8523 14.1673 12.714 13.9863 12.6213 13.7813C12.5902 13.6872 12.538 13.6014 12.4686 13.5304C12.3993 13.4595 12.3147 13.4053 12.2213 13.372C12.0548 13.3133 11.8717 13.3231 11.7124 13.3992C11.553 13.4753 11.4303 13.6115 11.3713 13.778C11.2474 14.038 11.0524 14.2576 10.8088 14.4113C10.5652 14.5651 10.283 14.6467 9.995 14.6467C9.70696 14.6467 9.42481 14.5651 9.18123 14.4113C8.93764 14.2576 8.7426 14.038 8.61867 13.778C8.58743 13.6838 8.53518 13.598 8.46589 13.5269C8.39659 13.4559 8.31205 13.4016 8.21867 13.368C8.13611 13.3388 8.04862 13.3262 7.96118 13.3309C7.87375 13.3355 7.78809 13.3574 7.7091 13.3951C7.63011 13.4329 7.55933 13.4859 7.5008 13.551C7.44227 13.6161 7.39715 13.6921 7.368 13.7747C7.244 14.0345 7.04895 14.2539 6.80544 14.4075C6.56193 14.5611 6.27991 14.6426 5.992 14.6426C5.70409 14.6426 5.42206 14.5611 5.17855 14.4075C4.93504 14.2539 4.74 14.0345 4.616 13.7747C4.58476 13.6805 4.53252 13.5946 4.46322 13.5236C4.39392 13.4526 4.30939 13.3982 4.216 13.3647C4.13344 13.3355 4.04595 13.3229 3.95852 13.3276C3.87109 13.3322 3.78543 13.354 3.70643 13.3918C3.62744 13.4296 3.55666 13.4825 3.49813 13.5476C3.43961 13.6128 3.39448 13.6888 3.36533 13.7713C3.27417 13.9767 3.13707 14.1583 2.96459 14.3022C2.79212 14.4462 2.58888 14.5486 2.37057 14.6015C2.15225 14.6545 1.92469 14.6566 1.70543 14.6076C1.48618 14.5587 1.2811 14.4601 1.106 14.3193C0.97348 14.202 0.799785 14.1422 0.623125 14.1529C0.446466 14.1637 0.281314 14.2441 0.163999 14.3767C0.0466854 14.5092 -0.0131805 14.6829 -0.00242843 14.8595C0.00832366 15.0362 0.088813 15.2014 0.221333 15.3187C0.753243 15.7753 1.43793 16.0144 2.13849 15.9881C2.83905 15.9618 3.50386 15.672 4 15.1767C4.53631 15.6959 5.25353 15.9862 6 15.9862C6.74647 15.9862 7.46369 15.6959 8 15.1767C8.53623 15.696 9.25348 15.9865 10 15.9865C10.7465 15.9865 11.4638 15.696 12 15.1767C12.496 15.6721 13.1608 15.962 13.8614 15.9884C14.5619 16.0149 15.2467 15.7759 15.7787 15.3193C15.844 15.2608 15.8971 15.19 15.935 15.1109C15.9729 15.0319 15.9949 14.9461 15.9996 14.8585C16.0043 14.7709 15.9917 14.6833 15.9625 14.6006C15.9332 14.5179 15.888 14.4418 15.8293 14.3767Z" fill="#949494"/>
</g>
<defs>
<clipPath id="clip0_1_4524">
<rect width="16" height="16" fill="white"/>
</clipPath>
</defs>
</svg>
