<svg width="16" height="15" viewBox="0 0 16 15" fill="none" xmlns="http://www.w3.org/2000/svg">
<path d="M11.6667 0.277588C10.916 0.289265 10.1817 0.498823 9.5379 0.885102C8.8941 1.27138 8.36363 1.8207 8.00005 2.47759C7.63648 1.8207 7.10601 1.27138 6.46221 0.885102C5.81841 0.498823 5.08409 0.289265 4.33339 0.277588C3.13668 0.329582 2.00919 0.853091 1.19724 1.73374C0.385293 2.61439 -0.0451135 3.7806 5.35741e-05 4.97759C5.35741e-05 8.00892 3.19072 11.3196 5.86672 13.5643C6.4642 14.0663 7.21962 14.3416 8.00005 14.3416C8.78048 14.3416 9.53591 14.0663 10.1334 13.5643C12.8094 11.3196 16.0001 8.00892 16.0001 4.97759C16.0452 3.7806 15.6148 2.61439 14.8029 1.73374C13.9909 0.853091 12.8634 0.329582 11.6667 0.277588Z" fill="#DC143C"/>
</svg>
