<svg width="16" height="16" viewBox="0 0 16 16" fill="none" xmlns="http://www.w3.org/2000/svg">
<path d="M8.2017 15.9983C3.68196 15.9983 0 12.4071 0 7.99484C0 3.5828 3.51391 0.105343 8.00076 0.000508445C8.24354 -0.00839384 8.44434 0.100217 8.57943 0.278267C8.71451 0.456313 8.75284 0.687777 8.678 0.903217C8.44434 1.58692 8.32204 2.29734 8.32204 3.01842C8.32204 6.67906 11.3741 9.65445 15.1256 9.65445H15.299C15.5235 9.65445 15.7389 9.7595 15.8685 9.93755C16 10.1156 16.0365 10.3471 15.9616 10.5536C14.8408 13.8119 11.7194 16 8.19078 16L8.2017 15.9983ZM7.0882 1.45361C3.83533 1.96816 1.40575 4.68516 1.40575 7.99848C1.40575 11.6591 4.45783 14.6345 8.20553 14.6345C10.8086 14.6345 13.145 13.1995 14.2805 10.9792C10.1551 10.559 6.92979 7.15119 6.92979 3.02043C6.92979 2.49699 6.9809 1.97172 7.08859 1.45716L7.0882 1.45361Z" fill="#949494"/>
</svg>
