<svg width="42" height="42" viewBox="0 0 42 42" fill="none" xmlns="http://www.w3.org/2000/svg">
<path d="M26.8333 15.3333H24.3333V14.5C24.3333 13.837 24.0699 13.2011 23.6011 12.7322C23.1323 12.2634 22.4964 12 21.8333 12H20.1667C19.5036 12 18.8677 12.2634 18.3989 12.7322C17.9301 13.2011 17.6667 13.837 17.6667 14.5V15.3333H15.1667C14.062 15.3347 13.003 15.7741 12.2218 16.5552C11.4407 17.3363 11.0013 18.3953 11 19.5L11 26.1667C11.0013 27.2713 11.4407 28.3304 12.2218 29.1115C13.003 29.8926 14.062 30.332 15.1667 30.3333H26.8333C27.938 30.332 28.997 29.8926 29.7782 29.1115C30.5593 28.3304 30.9987 27.2713 31 26.1667V19.5C30.9987 18.3953 30.5593 17.3363 29.7782 16.5552C28.997 15.7741 27.938 15.3347 26.8333 15.3333ZM19.3333 14.5C19.3333 14.279 19.4211 14.067 19.5774 13.9107C19.7337 13.7545 19.9457 13.6667 20.1667 13.6667H21.8333C22.0543 13.6667 22.2663 13.7545 22.4226 13.9107C22.5789 14.067 22.6667 14.279 22.6667 14.5V15.3333H19.3333V14.5ZM29.3333 26.1667C29.3333 26.8297 29.0699 27.4656 28.6011 27.9344C28.1323 28.4033 27.4964 28.6667 26.8333 28.6667H15.1667C14.5036 28.6667 13.8677 28.4033 13.3989 27.9344C12.9301 27.4656 12.6667 26.8297 12.6667 26.1667V19.5C12.6667 18.837 12.9301 18.2011 13.3989 17.7322C13.8677 17.2634 14.5036 17 15.1667 17H26.8333C27.4964 17 28.1323 17.2634 28.6011 17.7322C29.0699 18.2011 29.3333 18.837 29.3333 19.5V26.1667Z" fill="#B7BCCB"/>
<circle cx="21" cy="21" r="20.5" stroke="#B7BCCB"/>
</svg>
