<svg width="42" height="42" viewBox="0 0 42 42" fill="none" xmlns="http://www.w3.org/2000/svg">
<path d="M30.0308 24.5103L28.0977 23.0045H28.0985C27.4857 22.534 26.7048 22.3388 25.9423 22.4668C25.1806 22.5948 24.5054 23.0333 24.0797 23.6782L23.262 24.9343C23.1132 25.1711 22.8155 25.2656 22.5571 25.1584C21.5442 24.6527 20.6296 23.9702 19.8567 23.1429C19.0294 22.37 18.3469 21.4555 17.8412 20.4425C17.734 20.184 17.8284 19.8856 18.0653 19.7368L19.3214 18.9199C19.9663 18.4942 20.4056 17.8197 20.5336 17.0572C20.6608 16.2947 20.4664 15.5138 19.9951 14.901L18.4893 12.968C18.0637 12.4247 17.4348 12.0791 16.7475 12.0119C16.0602 11.9446 15.3753 12.1655 14.8568 12.6215L12.9254 14.3106C12.3093 14.849 11.9701 15.6371 12.0021 16.4549C12.1365 23.8366 19.2679 30.932 26.6455 31C27.4288 31.0016 28.1737 30.664 28.689 30.0743L30.378 28.1436V28.1428C30.8285 27.622 31.0461 26.9387 30.9813 26.2522C30.9157 25.5665 30.5725 24.9367 30.0308 24.5103ZM29.4139 27.3002L27.7249 29.2309C27.4369 29.5621 27.012 29.7413 26.5736 29.7173C19.9806 29.5997 13.3967 23.0164 13.2822 16.4259C13.259 15.9875 13.4382 15.5634 13.7686 15.2746L15.6993 13.5856C15.9545 13.3639 16.289 13.2567 16.6258 13.2887C16.9618 13.3207 17.2707 13.4896 17.4795 13.7552L18.9853 15.6874C19.239 16.0163 19.3446 16.4363 19.2758 16.846C19.2078 17.2564 18.9709 17.6189 18.6237 17.8469L17.3675 18.663C15.2945 20.2744 17.5003 22.449 18.9517 24.0477C20.5503 25.4991 22.725 27.7042 24.3356 25.6319L25.1525 24.3757C25.3805 24.0285 25.743 23.7917 26.1534 23.7228C26.5631 23.6548 26.9831 23.7605 27.312 24.0141L29.2442 25.5199C29.5098 25.7287 29.6779 26.0375 29.7099 26.3736C29.7427 26.7104 29.6355 27.045 29.4139 27.3002Z" fill="#B7BCCB"/>
<circle cx="21" cy="21" r="20.5" stroke="#B7BCCB"/>
</svg>
