<svg width="390" height="389" viewBox="0 0 390 389" fill="none" xmlns="http://www.w3.org/2000/svg">
<path d="M234.291 156.853H229.391H225.859V151.645V141.004C225.859 137.01 222.623 133.778 218.633 133.778C214.643 133.778 211.407 137.01 211.407 141.004V164.079C211.407 168.073 214.643 171.305 218.633 171.305H234.291C238.282 171.305 241.517 168.073 241.517 164.079C241.517 160.085 238.282 156.853 234.291 156.853Z" fill="white" fill-opacity="0.04"/>
<path d="M445.763 159.771L409.634 125.279C406.751 122.527 402.172 122.619 399.42 125.519C396.664 128.405 396.77 132.978 399.656 135.737L422.741 157.774H350.085C348.412 128.363 336.692 101.654 318.239 80.9788L368.516 30.7016V63.8387C368.516 67.8327 371.751 71.0645 375.742 71.0645C379.732 71.0645 382.968 67.8327 382.968 63.8387V13.2581C382.968 12.3196 382.777 11.381 382.41 10.499C381.676 8.72782 380.269 7.32359 378.501 6.58971C377.619 6.22278 376.68 6.03226 375.742 6.03226H325.161C321.171 6.03226 317.935 9.26411 317.935 13.2581C317.935 17.252 321.171 20.4839 325.161 20.4839H358.298L308.021 70.7611C287.346 52.3085 260.641 40.5877 231.226 38.9153V-33.745L253.27 -10.6562C256.022 -7.77016 260.602 -7.67137 263.484 -10.4163C266.37 -13.1754 266.476 -17.748 263.721 -20.6341L229.229 -56.7631C227.867 -58.1885 225.979 -59 224.004 -59C222.028 -59 220.14 -58.1956 218.778 -56.7631L184.283 -20.6341C181.527 -17.748 181.633 -13.1754 184.519 -10.4163C185.916 -9.08266 187.712 -8.41936 189.508 -8.41936C191.413 -8.41936 193.315 -9.16734 194.733 -10.6562L216.774 -33.7379V38.9153C187.359 40.5877 160.654 52.3085 139.979 70.7611L89.7016 20.4839H122.839C126.829 20.4839 130.065 17.252 130.065 13.2581C130.065 9.26411 126.829 6.03226 122.839 6.03226H72.2581C71.3196 6.03226 70.381 6.22278 69.499 6.58971C67.7313 7.32359 66.3236 8.72782 65.5897 10.499C65.2228 11.3811 65.0323 12.3196 65.0323 13.2581V63.8387C65.0323 67.8327 68.2676 71.0645 72.2581 71.0645C76.2485 71.0645 79.4839 67.8327 79.4839 63.8387V30.7016L129.761 80.9788C111.308 101.654 99.5877 128.363 97.9153 157.774H25.2586L48.3438 135.737C51.2298 132.978 51.3357 128.405 48.5801 125.519C45.8211 122.619 41.2414 122.527 38.3659 125.279L2.2369 159.771C0.807964 161.14 0 163.024 0 165C0 166.976 0.807964 168.86 2.2369 170.229L38.3659 204.721C39.7631 206.054 41.559 206.718 43.3548 206.718C45.2601 206.718 47.1618 205.97 48.5801 204.481C51.3357 201.595 51.2298 197.022 48.3438 194.263L25.2586 172.226H97.8518C99.3301 197.954 108.528 221.607 123.167 240.984C124.994 243.404 126.882 245.768 128.872 248.04C129.161 248.372 129.479 248.682 129.772 249.014L79.4839 299.298V266.161C79.4839 262.167 76.2485 258.935 72.2581 258.935C68.2676 258.935 65.0323 262.167 65.0323 266.161V316.742C65.0323 317.68 65.2228 318.619 65.5897 319.501C66.3236 321.272 67.7313 322.676 69.499 323.41C70.3811 323.777 71.316 323.968 72.2581 323.968H122.839C126.829 323.968 130.065 320.736 130.065 316.742C130.065 312.748 126.829 309.516 122.839 309.516H89.7016L140.011 259.204C160.682 277.663 187.363 289.412 216.774 291.085V363.745L194.73 340.656C191.971 337.756 187.391 337.664 184.516 340.416C181.63 343.175 181.524 347.748 184.279 350.634L218.771 386.763C220.133 388.189 222.021 389 223.996 389C225.972 389 227.86 388.196 229.222 386.763L263.717 350.634C266.473 347.748 266.367 343.175 263.481 340.416C260.598 337.664 256.019 337.756 253.267 340.656L231.226 363.738V291.085C260.637 289.412 287.314 277.663 307.986 259.204L358.298 309.516H325.161C321.171 309.516 317.935 312.748 317.935 316.742C317.935 320.736 321.171 323.968 325.161 323.968H375.742C376.684 323.968 377.619 323.777 378.501 323.41C380.269 322.676 381.676 321.272 382.41 319.501C382.777 318.619 382.968 317.68 382.968 316.742V266.161C382.968 262.167 379.732 258.935 375.742 258.935C371.751 258.935 368.516 262.167 368.516 266.161V299.298L318.228 249.014C318.518 248.682 318.832 248.379 319.121 248.054C321.111 245.775 322.998 243.411 324.826 240.998C339.468 221.621 348.67 197.961 350.148 172.226H422.741L399.656 194.263C396.77 197.022 396.664 201.595 399.42 204.481C400.838 205.97 402.74 206.718 404.645 206.718C406.441 206.718 408.237 206.054 409.634 204.721L445.763 170.229C447.192 168.86 448 166.976 448 165C448 163.024 447.192 161.14 445.763 159.771ZM137.34 244.484C137.59 243.743 137.862 243.009 138.176 242.296C137.869 243.016 137.59 243.743 137.34 244.484ZM224 277C190.595 277 160.647 262.224 140.109 238.952C146.506 229.849 158.435 224.197 170.025 218.749C174.005 216.879 177.858 215.066 181.347 213.189C183.468 212.052 185.235 210.719 186.841 209.3C194.074 215.228 207.093 223.611 223.435 223.999C223.838 224.006 224.236 224.013 224.635 224.013C237.45 224.013 249.703 219.038 261.173 209.307C262.775 210.719 264.539 212.045 266.653 213.181C270.149 215.073 274.006 216.886 277.989 218.756C289.572 224.204 301.49 229.849 307.887 238.959C287.349 262.224 257.402 277 224 277ZM254.011 196.352C253.122 197.177 252.233 197.947 251.34 198.688C242.516 206.04 233.442 209.71 223.891 209.554C212.212 209.315 202.418 203.211 196.72 198.688C195.661 197.848 194.737 197.057 193.978 196.38C194.839 191.067 194.148 184.942 191.685 177.906C187.264 165.381 185.091 156.426 186.266 144.96C188.054 127.389 205.124 112.542 223.541 112.542H224.462C242.883 112.542 259.96 127.389 261.748 144.953C262.909 156.462 260.743 165.409 256.333 177.913C253.856 184.927 253.154 191.052 254.011 196.352ZM284.135 205.673C280.402 203.923 276.786 202.23 273.501 200.459C269.161 198.13 265.622 195.018 269.959 182.719C274.108 170.956 277.703 159.108 276.126 143.492C273.575 118.456 250.398 98.0907 224.462 98.0907H223.541C197.605 98.0907 174.435 118.456 171.892 143.485C170.29 159.058 173.896 170.927 178.052 182.698C182.363 195.025 178.839 198.137 174.503 200.459C171.225 202.23 167.612 203.916 163.883 205.673C152.419 211.057 139.622 217.07 130.915 227.189C118.982 209.385 112 187.997 112 165C112 103.242 162.242 53 224 53C285.758 53 336 103.242 336 165C336 187.997 329.018 209.385 317.082 227.189C308.378 217.077 295.591 211.057 284.135 205.673Z" fill="white" fill-opacity="0.04"/>
</svg>
