<svg width="99" height="100" viewBox="0 0 99 100" fill="none" xmlns="http://www.w3.org/2000/svg">
<path d="M99 55L44.0001 55L44.0001 25C44.0001 11.1929 55.1929 -1.8929e-08 69.0001 1.18935e-06L99 3.8147e-06L99 55Z" fill="#F1909C"/>
<path d="M65.8125 51.312C68.4968 51.3086 71.0702 50.2276 72.9683 48.3061C74.8663 46.3846 75.9342 43.7794 75.9375 41.062V33.3745H68.3438C65.7521 33.3784 63.2617 34.3935 61.3904 36.2086C60.0791 33.8 58.154 31.7911 55.8154 30.3913C53.4769 28.9915 50.8105 28.2519 48.0938 28.2495H40.5V35.937C40.5047 40.0133 42.1063 43.9212 44.9535 46.8035C47.8007 49.6859 51.661 51.3073 55.6875 51.312H58.2188V84.6245H27.8438V71.812H30.375C33.0593 71.8086 35.6327 70.7276 37.5308 68.8061C39.4288 66.8846 40.4967 64.2794 40.5 61.562V53.8745H32.9063C30.3146 53.8784 27.8242 54.8935 25.9529 56.7086C24.6416 54.3 22.7165 52.2911 20.3779 50.8913C18.0394 49.4915 15.373 48.7519 12.6563 48.7495H5.0625V56.437C5.06719 60.5133 6.6688 64.4212 9.516 67.3035C12.3632 70.1859 16.2235 71.8073 20.25 71.812H22.7813V84.6245H5.0625V89.7495H75.9375V84.6245H63.2813V51.312H65.8125ZM63.2813 43.6245C63.2826 42.2657 63.8164 40.9629 64.7655 40.0021C65.7146 39.0413 67.0015 38.5009 68.3438 38.4995H70.875V41.062C70.8737 42.4208 70.3399 43.7236 69.3908 44.6844C68.4416 45.6453 67.1548 46.1857 65.8125 46.187H63.2813V43.6245ZM27.8438 64.1245C27.8451 62.7657 28.3789 61.4629 29.328 60.5021C30.2771 59.5413 31.564 59.0009 32.9063 58.9995H35.4375V61.562C35.4362 62.9208 34.9024 64.2236 33.9533 65.1844C33.0041 66.1453 31.7172 66.6857 30.375 66.687H27.8438V64.1245ZM22.7813 66.687H20.25C17.5657 66.6836 14.9923 65.6026 13.0942 63.6811C11.1962 61.7596 10.1283 59.1544 10.125 56.437V53.8745H12.6563C15.3405 53.8779 17.9139 54.9589 19.812 56.8804C21.7101 58.8019 22.7779 61.4071 22.7813 64.1245V66.687ZM58.2188 46.187H55.6875C53.0032 46.1836 50.4298 45.1026 48.5317 43.1811C46.6337 41.2596 45.5659 38.6544 45.5625 35.937V33.3745H48.0938C50.778 33.3779 53.3514 34.4589 55.2495 36.3804C57.1476 38.3019 58.2154 40.9071 58.2188 43.6245V46.187Z" fill="white"/>
</svg>
