<svg width="36" height="46" viewBox="0 0 36 46" fill="none" xmlns="http://www.w3.org/2000/svg">
<g id="Group 347">
<path id="Rectangle 159" d="M10.5005 0.208008H35.3379V17.4681C35.3379 21.6529 31.9454 25.0454 27.7606 25.0454H10.5005V0.208008Z" fill="#5F5F5F"/>
<g id="Group">
<g id="Group_2">
<g id="Group_3">
<path id="Vector" d="M6.81568 27.6587L4.73857 36.6878C4.48423 37.7475 5.16247 38.8497 6.22222 39.0616C6.39178 39.104 6.51895 39.104 6.68851 39.104C7.5787 39.104 8.4265 38.4681 8.63845 37.5356L10.6308 28.8456L6.90046 27.6587C6.90046 27.6587 6.85807 27.6587 6.81568 27.6587Z" fill="white"/>
<path id="Vector_2" d="M4.18759 21.1726L5.12017 17.9934L6.90055 17.1456L6.2647 23.5465C6.17992 24.4791 6.73099 25.3692 7.66357 25.666L13.1743 27.404L13.2591 33.1266C13.2591 34.2288 14.1492 35.1189 15.2514 35.1189C15.2514 35.1189 15.2514 35.1189 15.2938 35.1189C16.3959 35.1189 17.2861 34.1864 17.2861 33.0842L17.1589 25.9203C17.1589 25.0725 16.5655 24.3095 15.7601 24.0552L12.2417 22.953L13.2591 18.5445L14.9547 20.7063C15.3786 21.215 16.0568 21.4694 16.6926 21.2998L20.5077 20.3248C21.3979 20.1129 21.949 19.1803 21.6947 18.2901C21.4827 17.3999 20.5501 16.8489 19.6599 17.1032L16.9046 17.8238L14.8275 15.1109C14.7427 15.0261 14.7003 14.9413 14.6155 14.8989C14.0645 14.3902 13.3862 14.0511 12.6656 13.9239L9.52873 13.2457C8.59615 13.0338 7.62118 13.1609 6.77338 13.5848L3.04306 15.3652C2.61916 15.5772 2.28004 15.9587 2.15287 16.425L1.00834 20.3248C0.754003 21.215 1.26268 22.1476 2.15287 22.4019C2.32243 22.4443 2.4496 22.4867 2.61916 22.4867C3.2974 22.3596 3.97564 21.8933 4.18759 21.1726Z" fill="white"/>
<path id="Vector_3" d="M31.1476 30.4139L24.3652 27.9553C23.5174 27.6586 22.5424 28.0825 22.2457 28.9727C21.9489 29.8205 22.3728 30.7954 23.263 31.0922L26.2727 32.1943L3.67885 42.6646C2.83105 43.0462 2.49193 44.0635 2.87344 44.8689C3.17017 45.4624 3.76363 45.8439 4.39948 45.8439C4.65382 45.8439 4.86577 45.8015 5.12011 45.6743L27.6292 35.1616L26.5271 38.1713C26.2303 39.0191 26.6542 39.9941 27.5444 40.2908C27.714 40.3756 27.9259 40.3756 28.0955 40.3756C28.7737 40.3756 29.4096 39.9517 29.6639 39.2734L32.1225 32.491C32.4617 31.6856 31.9954 30.7107 31.1476 30.4139Z" fill="white"/>
<path id="Vector_4" d="M12.369 12.61C14.3121 12.61 15.8873 11.0348 15.8873 9.09161C15.8873 7.14847 14.3121 5.57324 12.369 5.57324C10.4258 5.57324 8.85059 7.14847 8.85059 9.09161C8.85059 11.0348 10.4258 12.61 12.369 12.61Z" fill="white"/>
</g>
</g>
</g>
</g>
</svg>
