<svg width="624" height="648" viewBox="0 0 624 648" fill="none" xmlns="http://www.w3.org/2000/svg">
<path d="M0 8C0 3.58172 3.58172 0 8 0H616C620.418 0 624 3.58172 624 8V424C624 547.712 523.712 648 400 648H7.99998C3.5817 648 0 644.418 0 640V8Z" fill="#002F36"/>
<mask id="mask0_5_2326" style="mask-type:alpha" maskUnits="userSpaceOnUse" x="0" y="0" width="624" height="648">
<path d="M0 8C0 3.58172 3.58172 0 8 0H616C620.418 0 624 3.58172 624 8V424C624 547.712 523.712 648 400 648H7.99998C3.5817 648 0 644.418 0 640V8Z" fill="#303030"/>
</mask>
<g mask="url(#mask0_5_2326)">
<g opacity="0.04">
<mask id="mask1_5_2326" style="mask-type:alpha" maskUnits="userSpaceOnUse" x="0" y="0" width="624" height="736">
<path d="M0 8C0 3.58172 3.58172 0 8 0H615.581C620 0 623.581 3.58172 623.581 8V511C623.581 634.712 523.293 735.001 399.581 735.001H8C3.58173 735.001 0 731.419 0 727.001V8Z" fill="#1C0606"/>
</mask>
<g mask="url(#mask1_5_2326)">
<line x1="1.23011" y1="-399.341" x2="1.23009" y2="734.037" stroke="white" stroke-width="2.46022"/>
<line x1="58.5455" y1="-399.344" x2="58.5455" y2="734.034" stroke="white" stroke-width="2.46022"/>
<line x1="115.855" y1="-399.344" x2="115.855" y2="734.034" stroke="white" stroke-width="2.46022"/>
<line x1="173.163" y1="-399.347" x2="173.163" y2="734.031" stroke="white" stroke-width="2.46022"/>
<line x1="230.473" y1="-399.347" x2="230.473" y2="734.031" stroke="white" stroke-width="2.46022"/>
<line x1="287.786" y1="-399.347" x2="287.786" y2="734.031" stroke="white" stroke-width="2.46022"/>
<line x1="345.098" y1="-399.347" x2="345.098" y2="734.031" stroke="white" stroke-width="2.46022"/>
<line x1="402.409" y1="-399.347" x2="402.409" y2="734.031" stroke="white" stroke-width="2.46022"/>
<line x1="459.721" y1="-399.347" x2="459.721" y2="734.031" stroke="white" stroke-width="2.46022"/>
<line x1="517.031" y1="-399.347" x2="517.031" y2="734.031" stroke="white" stroke-width="2.46022"/>
<line x1="574.341" y1="-399.347" x2="574.341" y2="734.031" stroke="white" stroke-width="2.46022"/>
<line x1="974.588" y1="0.879525" x2="0.00189195" y2="0.879461" stroke="white" stroke-width="2.46022"/>
<line x1="974.588" y1="67.4039" x2="0.00189195" y2="67.4039" stroke="white" stroke-width="2.46022"/>
<line x1="974.588" y1="133.902" x2="0.00189195" y2="133.902" stroke="white" stroke-width="2.46022"/>
<line x1="974.588" y1="200.4" x2="0.00189195" y2="200.4" stroke="white" stroke-width="2.46022"/>
<line x1="974.588" y1="266.902" x2="0.00189195" y2="266.902" stroke="white" stroke-width="2.46022"/>
<line x1="974.588" y1="333.403" x2="0.00189195" y2="333.403" stroke="white" stroke-width="2.46022"/>
<line x1="974.588" y1="400.382" x2="0.00189195" y2="400.382" stroke="white" stroke-width="2.46022"/>
<line x1="974.588" y1="467.363" x2="0.00189195" y2="467.363" stroke="white" stroke-width="2.46022"/>
<line x1="974.588" y1="534.322" x2="0.00189195" y2="534.322" stroke="white" stroke-width="2.46022"/>
<line x1="974.588" y1="601.303" x2="0.00189195" y2="601.303" stroke="white" stroke-width="2.46022"/>
</g>
</g>
</g>
<g opacity="0.04">
<path d="M111.711 73.8541H110.42H109.49V72.4824V69.6796C109.49 68.6276 108.637 67.7764 107.586 67.7764C106.535 67.7764 105.683 68.6276 105.683 69.6796V75.7573C105.683 76.8093 106.535 77.6605 107.586 77.6605H111.711C112.762 77.6605 113.614 76.8093 113.614 75.7573C113.614 74.7053 112.762 73.8541 111.711 73.8541Z" fill="white"/>
<path d="M167.411 74.6228L157.895 65.5378C157.135 64.813 155.929 64.8371 155.204 65.601C154.479 66.3612 154.506 67.5656 155.267 68.2923L161.347 74.0968H142.21C141.769 66.35 138.682 59.3152 133.822 53.8694L147.065 40.6268V49.3548C147.065 50.4068 147.917 51.2581 148.968 51.2581C150.019 51.2581 150.871 50.4068 150.871 49.3548V36.0323C150.871 35.7851 150.821 35.5379 150.724 35.3055C150.531 34.839 150.16 34.4692 149.694 34.2759C149.462 34.1792 149.215 34.129 148.968 34.129H135.645C134.594 34.129 133.742 34.9803 133.742 36.0323C133.742 37.0842 134.594 37.9355 135.645 37.9355H144.373L131.131 51.1781C125.685 46.3179 118.651 43.2307 110.903 42.7902V23.652L116.71 29.7334C117.434 30.4936 118.641 30.5196 119.4 29.7966C120.16 29.0699 120.188 27.8655 119.462 27.1053L110.377 17.5892C110.019 17.2137 109.521 17 109.001 17C108.481 17 107.983 17.2119 107.625 17.5892L98.5388 27.1053C97.813 27.8655 97.8409 29.0699 98.601 29.7966C98.969 30.1479 99.4421 30.3226 99.9151 30.3226C100.417 30.3226 100.918 30.1256 101.291 29.7334L107.097 23.6539V42.7902C99.3491 43.2307 92.3152 46.3179 86.8694 51.1781L73.6268 37.9355H82.3548C83.4059 37.9355 84.2581 37.0842 84.2581 36.0323C84.2581 34.9803 83.4059 34.129 82.3548 34.129H69.0323C68.7851 34.129 68.5379 34.1792 68.3055 34.2759C67.84 34.4692 67.4692 34.839 67.2759 35.3055C67.1792 35.5379 67.129 35.7851 67.129 36.0323V49.3548C67.129 50.4068 67.9812 51.2581 69.0323 51.2581C70.0833 51.2581 70.9355 50.4068 70.9355 49.3548V40.6268L84.1781 53.8694C79.3179 59.3152 76.2307 66.35 75.7902 74.0968H56.6529L62.7334 68.2923C63.4936 67.5656 63.5215 66.3612 62.7957 65.601C62.0689 64.8371 60.8627 64.813 60.1053 65.5378L50.5892 74.6228C50.2128 74.9833 50 75.4796 50 76C50 76.5204 50.2128 77.0167 50.5892 77.3772L60.1053 86.4622C60.4733 86.8134 60.9463 86.9882 61.4194 86.9882C61.9212 86.9882 62.4221 86.7911 62.7957 86.399C63.5215 85.6388 63.4936 84.4344 62.7334 83.7077L56.6529 77.9032H75.7735C76.1628 84.6797 78.5856 90.9098 82.4413 96.0136C82.9226 96.6511 83.4198 97.2738 83.944 97.8722C84.0202 97.9596 84.1038 98.0414 84.1809 98.1287L70.9355 111.373V102.645C70.9355 101.593 70.0833 100.742 69.0323 100.742C67.9812 100.742 67.129 101.593 67.129 102.645V115.968C67.129 116.215 67.1792 116.462 67.2759 116.694C67.4692 117.161 67.84 117.531 68.3055 117.724C68.5379 117.821 68.7841 117.871 69.0323 117.871H82.3548C83.4059 117.871 84.2581 117.02 84.2581 115.968C84.2581 114.916 83.4059 114.065 82.3548 114.065H73.6268L86.8778 100.813C92.3226 105.675 99.35 108.769 107.097 109.21V128.348L101.29 122.267C100.564 121.503 99.3575 121.479 98.6001 122.203C97.8399 122.93 97.812 124.135 98.5378 124.895L107.623 134.411C107.981 134.786 108.479 135 108.999 135C109.519 135 110.017 134.788 110.375 134.411L119.461 124.895C120.187 124.135 120.159 122.93 119.399 122.203C118.64 121.479 117.433 121.503 116.709 122.267L110.903 128.346V109.21C118.65 108.769 125.676 105.675 131.121 100.813L144.373 114.065H135.645C134.594 114.065 133.742 114.916 133.742 115.968C133.742 117.02 134.594 117.871 135.645 117.871H148.968C149.216 117.871 149.462 117.821 149.694 117.724C150.16 117.531 150.531 117.161 150.724 116.694C150.821 116.462 150.871 116.215 150.871 115.968V102.645C150.871 101.593 150.019 100.742 148.968 100.742C147.917 100.742 147.065 101.593 147.065 102.645V111.373L133.819 98.1287C133.895 98.0414 133.978 97.9614 134.054 97.8759C134.578 97.2756 135.075 96.653 135.557 96.0173C139.414 90.9136 141.837 84.6816 142.227 77.9032H161.347L155.267 83.7077C154.506 84.4344 154.479 85.6388 155.204 86.399C155.578 86.7911 156.079 86.9882 156.581 86.9882C157.054 86.9882 157.527 86.8134 157.895 86.4622L167.411 77.3772C167.787 77.0167 168 76.5204 168 76C168 75.4796 167.787 74.9833 167.411 74.6228ZM86.1743 96.9355C86.2403 96.7403 86.3118 96.547 86.3945 96.3593C86.3137 96.5489 86.2403 96.7403 86.1743 96.9355ZM109 105.5C100.201 105.5 92.3133 101.608 86.9038 95.4783C88.5886 93.0807 91.7306 91.5919 94.7834 90.1571C95.8317 89.6646 96.8465 89.1869 97.7656 88.6925C98.3241 88.3933 98.7897 88.042 99.2125 87.6684C101.118 89.2297 104.547 91.4377 108.851 91.5399C108.957 91.5418 109.062 91.5436 109.167 91.5436C112.543 91.5436 115.77 90.2333 118.791 87.6703C119.213 88.042 119.678 88.3914 120.234 88.6907C121.155 89.1888 122.171 89.6664 123.22 90.159C126.271 91.5938 129.41 93.0807 131.095 95.4802C125.686 101.608 117.798 105.5 109 105.5ZM116.905 84.2578C116.671 84.4753 116.436 84.6779 116.201 84.873C113.877 86.8097 111.487 87.7762 108.971 87.7353C105.895 87.6721 103.315 86.0644 101.815 84.873C101.536 84.6519 101.292 84.4437 101.093 84.2653C101.319 82.8657 101.137 81.2525 100.488 79.3994C99.324 76.1004 98.7516 73.7418 99.061 70.7215C99.5322 66.0936 104.028 62.183 108.879 62.183H109.122C113.974 62.183 118.472 66.0936 118.943 70.7197C119.248 73.7511 118.678 76.1078 117.516 79.4013C116.864 81.2487 116.679 82.862 116.905 84.2578ZM124.839 86.7131C123.856 86.2521 122.903 85.8061 122.038 85.3396C120.895 84.7262 119.963 83.9066 121.105 80.667C122.198 77.5687 123.145 74.4481 122.73 70.3349C122.058 63.7405 115.953 58.3766 109.122 58.3766H108.879C102.048 58.3766 95.9451 63.7405 95.275 70.3331C94.8531 74.435 95.8029 77.5612 96.8976 80.6614C98.0332 83.9084 97.1048 84.7281 95.9627 85.3396C95.0994 85.8061 94.1478 86.2503 93.1655 86.7131C90.1462 88.1312 86.7756 89.7147 84.482 92.38C81.3391 87.6907 79.5 82.0572 79.5 76C79.5 59.7334 92.7334 46.5 109 46.5C125.267 46.5 138.5 59.7334 138.5 76C138.5 82.0572 136.661 87.6907 133.517 92.38C131.224 89.7166 127.857 88.1312 124.839 86.7131Z" fill="white"/>
</g>
</svg>
