<svg width="85" height="80" viewBox="0 0 85 80" fill="none" xmlns="http://www.w3.org/2000/svg">
<path d="M49 36H85V18.3558C85 8.21816 76.7818 0 66.6442 0H49V36Z" fill="#F1909C"/>
<path d="M38.6999 41.6537H37.8904H37.307V40.7935V39.0358C37.307 38.3761 36.7726 37.8423 36.1135 37.8423C35.4543 37.8423 34.9199 38.3761 34.9199 39.0358V42.8473C34.9199 43.507 35.4543 44.0408 36.1135 44.0408H38.6999C39.359 44.0408 39.8934 43.507 39.8934 42.8473C39.8934 42.1875 39.359 41.6537 38.6999 41.6537Z" fill="white"/>
<path d="M73.6305 42.1363L67.6628 36.439C67.1866 35.9844 66.4302 35.9996 65.9756 36.4786C65.5204 36.9553 65.5379 37.7106 66.0146 38.1664L69.8278 41.8065H57.8265C57.5502 36.9483 55.6142 32.5366 52.5662 29.1215L60.871 20.8168V26.2903C60.871 26.95 61.4054 27.4839 62.0645 27.4839C62.7237 27.4839 63.2581 26.95 63.2581 26.2903V17.9355C63.2581 17.7805 63.2266 17.6254 63.166 17.4797C63.0448 17.1872 62.8122 16.9552 62.5203 16.834C62.3746 16.7734 62.2195 16.7419 62.0645 16.7419H53.7097C53.0505 16.7419 52.5161 17.2758 52.5161 17.9355C52.5161 18.5952 53.0505 19.129 53.7097 19.129H59.1832L50.8785 27.4338C47.4634 24.3858 43.0522 22.4498 38.1936 22.1735V10.1716L41.8348 13.9854C42.2894 14.4621 43.0458 14.4784 43.522 14.025C43.9987 13.5692 44.0162 12.8139 43.561 12.3372L37.8637 6.36949C37.6387 6.13404 37.3269 6 37.0006 6C36.6742 6 36.3624 6.13288 36.1375 6.36949L30.4396 12.3372C29.9844 12.8139 30.0019 13.5692 30.4786 14.025C30.7094 14.2453 31.006 14.3548 31.3027 14.3548C31.6174 14.3548 31.9315 14.2313 32.1658 13.9854L35.8065 10.1728V22.1735C30.9478 22.4498 26.5366 24.3858 23.1215 27.4338L14.8168 19.129H20.2903C20.9495 19.129 21.4839 18.5952 21.4839 17.9355C21.4839 17.2758 20.9495 16.7419 20.2903 16.7419H11.9355C11.7805 16.7419 11.6254 16.7734 11.4797 16.834C11.1878 16.9552 10.9552 17.1872 10.834 17.4797C10.7734 17.6254 10.7419 17.7805 10.7419 17.9355V26.2903C10.7419 26.95 11.2764 27.4839 11.9355 27.4839C12.5946 27.4839 13.129 26.95 13.129 26.2903V20.8168L21.4338 29.1215C18.3858 32.5366 16.4498 36.9483 16.1735 41.8065H4.17217L7.98535 38.1664C8.46207 37.7106 8.47956 36.9553 8.0244 36.4786C7.56866 35.9996 6.8122 35.9844 6.33723 36.439L0.369487 42.1363C0.133458 42.3624 0 42.6736 0 43C0 43.3264 0.133458 43.6376 0.369487 43.8637L6.33723 49.561C6.56801 49.7813 6.86465 49.8909 7.16129 49.8909C7.476 49.8909 7.79012 49.7673 8.0244 49.5214C8.47956 49.0447 8.46207 48.2894 7.98535 47.8336L4.17217 44.1936H16.163C16.4072 48.4432 17.9265 52.3502 20.3445 55.5509C20.6464 55.9507 20.9582 56.3412 21.2869 56.7165C21.3347 56.7713 21.3871 56.8226 21.4355 56.8773L13.129 65.1832V59.7097C13.129 59.05 12.5946 58.5161 11.9355 58.5161C11.2764 58.5161 10.7419 59.05 10.7419 59.7097V68.0645C10.7419 68.2195 10.7734 68.3746 10.834 68.5203C10.9552 68.8128 11.1878 69.0448 11.4797 69.166C11.6254 69.2266 11.7799 69.2581 11.9355 69.2581H20.2903C20.9495 69.2581 21.4839 68.7242 21.4839 68.0645C21.4839 67.4048 20.9495 66.871 20.2903 66.871H14.8168L23.1267 58.5604C26.5413 61.6096 30.9483 63.5502 35.8065 63.8265V75.8284L32.1652 72.0146C31.7095 71.5356 30.953 71.5204 30.478 71.975C30.0013 72.4308 29.9838 73.1861 30.439 73.6628L36.1363 79.6305C36.3613 79.866 36.6731 80 36.9994 80C37.3258 80 37.6376 79.8671 37.8625 79.6305L43.5604 73.6628C44.0156 73.1861 43.9981 72.4308 43.5214 71.975C43.0453 71.5204 42.2888 71.5356 41.8342 72.0146L38.1936 75.8272V63.8265C43.0517 63.5502 47.4581 61.6096 50.8727 58.5604L59.1832 66.871H53.7097C53.0505 66.871 52.5161 67.4048 52.5161 68.0645C52.5161 68.7242 53.0505 69.2581 53.7097 69.2581H62.0645C62.2201 69.2581 62.3746 69.2266 62.5203 69.166C62.8122 69.0448 63.0448 68.8128 63.166 68.5203C63.2266 68.3746 63.2581 68.2195 63.2581 68.0645V59.7097C63.2581 59.05 62.7237 58.5161 62.0645 58.5161C61.4054 58.5161 60.871 59.05 60.871 59.7097V65.1832L52.5645 56.8773C52.6123 56.8226 52.6642 56.7724 52.7119 56.7188C53.0406 56.3423 53.3524 55.9519 53.6543 55.5532C56.0729 52.3526 57.5928 48.4444 57.837 44.1936H69.8278L66.0146 47.8336C65.5379 48.2894 65.5204 49.0447 65.9756 49.5214C66.2099 49.7673 66.524 49.8909 66.8387 49.8909C67.1354 49.8909 67.432 49.7813 67.6628 49.561L73.6305 43.8637C73.8665 43.6376 74 43.3264 74 43C74 42.6736 73.8665 42.3624 73.6305 42.1363ZM22.6856 56.129C22.727 56.0066 22.7718 55.8854 22.8237 55.7677C22.773 55.8866 22.727 56.0066 22.6856 56.129ZM37 61.5C31.4822 61.5 26.5355 59.0593 23.1431 55.2152C24.1997 53.7116 26.1701 52.778 28.0845 51.8782C28.7419 51.5693 29.3783 51.2698 29.9547 50.9597C30.3049 50.7721 30.5969 50.5518 30.8621 50.3175C32.0568 51.2966 34.2073 52.6813 36.9068 52.7454C36.9732 52.7465 37.039 52.7477 37.1049 52.7477C39.2216 52.7477 41.2456 51.926 43.1402 50.3186C43.4048 50.5518 43.6962 50.7709 44.0453 50.9585C44.6229 51.2709 45.2598 51.5705 45.9178 51.8793C47.8311 52.7792 49.7998 53.7116 50.8564 55.2164C47.4639 59.0593 42.5173 61.5 37 61.5ZM41.9572 48.1786C41.8103 48.315 41.6635 48.4421 41.516 48.5645C40.0585 49.779 38.5595 50.3851 36.9819 50.3594C35.0529 50.3198 33.4351 49.3116 32.4939 48.5645C32.3191 48.4258 32.1664 48.2952 32.0411 48.1833C32.1833 47.3056 32.069 46.2939 31.6623 45.1318C30.932 43.0629 30.573 41.5838 30.7671 39.6898C31.0626 36.7875 33.8821 34.3351 36.9242 34.3351H37.0763C40.1191 34.3351 42.9398 36.7875 43.2352 39.6886C43.427 41.5897 43.0691 43.0676 42.3407 45.133C41.9315 46.2916 41.8156 47.3033 41.9572 48.1786ZM46.933 49.7184C46.3164 49.4293 45.7191 49.1496 45.1765 48.857C44.4597 48.4724 43.8751 47.9584 44.5914 45.9268C45.2767 43.9837 45.8706 42.0267 45.6101 39.4473C45.1887 35.3119 41.3604 31.948 37.0763 31.948H36.9242C32.6402 31.948 28.813 35.3119 28.3928 39.4462C28.1282 42.0186 28.7238 43.9791 29.4104 45.9233C30.1225 47.9595 29.5403 48.4735 28.8241 48.857C28.2827 49.1496 27.6859 49.4281 27.0699 49.7184C25.1764 50.6077 23.0626 51.6008 21.6243 53.2722C19.6533 50.3315 18.5 46.7986 18.5 43C18.5 32.7989 26.7989 24.5 37 24.5C47.2011 24.5 55.5 32.7989 55.5 43C55.5 46.7986 54.3467 50.3315 52.3751 53.2722C50.9374 51.6019 48.8253 50.6077 46.933 49.7184Z" fill="white"/>
</svg>
