<svg width="76" height="77" viewBox="0 0 76 77" fill="none" xmlns="http://www.w3.org/2000/svg">
<g id="Group 339">
<path id="Rectangle 168" d="M38.7593 36.9858H75.3315V18.7693C75.3315 8.63173 67.1134 0.413574 56.9758 0.413574H38.7593V36.9858Z" fill="#5F5F5F"/>
<g id="Group 238">
<g id="Group">
<g id="Group_2">
<path id="Vector" d="M36.692 40.5461H35.9359H35.3909V39.7426V38.1007C35.3909 37.4845 34.8917 36.9858 34.276 36.9858C33.6603 36.9858 33.1611 37.4845 33.1611 38.1007V41.661C33.1611 42.2772 33.6603 42.7759 34.276 42.7759H36.692C37.3077 42.7759 37.8069 42.2772 37.8069 41.661C37.8069 41.0448 37.3077 40.5461 36.692 40.5461Z" fill="white"/>
<path id="Vector_2" d="M69.3214 40.9982L63.7469 35.6763C63.3021 35.2517 62.5955 35.2658 62.1709 35.7133C61.7457 36.1586 61.7621 36.8641 62.2074 37.2898L65.7693 40.69H54.5588C54.3008 36.1521 52.4923 32.0311 49.6452 28.841L57.4026 21.0835V26.1964C57.4026 26.8126 57.9018 27.3113 58.5175 27.3113C59.1332 27.3113 59.6324 26.8126 59.6324 26.1964V18.3921C59.6324 18.2473 59.603 18.1025 59.5464 17.9664C59.4332 17.6931 59.216 17.4765 58.9433 17.3632C58.8072 17.3066 58.6623 17.2772 58.5175 17.2772H50.7133C50.0976 17.2772 49.5984 17.7759 49.5984 18.3921C49.5984 19.0084 50.0976 19.507 50.7133 19.507H55.8261L48.0687 27.2645C44.8786 24.4173 40.7581 22.6089 36.2196 22.3509V11.1399L39.6209 14.7023C40.0456 15.1476 40.7522 15.1628 41.1969 14.7393C41.6422 14.3136 41.6586 13.6081 41.2334 13.1628L35.9115 7.5883C35.7014 7.36837 35.4101 7.24316 35.1053 7.24316C34.8004 7.24316 34.5092 7.36728 34.299 7.5883L28.9766 13.1628C28.5515 13.6081 28.5678 14.3136 29.0131 14.7393C29.2287 14.9451 29.5058 15.0474 29.7829 15.0474C30.0768 15.0474 30.3702 14.932 30.5891 14.7023L33.9898 11.1409V22.3509C29.4513 22.6089 25.3309 24.4173 22.1408 27.2645L14.3834 19.507H19.4962C20.1119 19.507 20.6111 19.0084 20.6111 18.3921C20.6111 17.7759 20.1119 17.2772 19.4962 17.2772H11.6919C11.5471 17.2772 11.4023 17.3066 11.2662 17.3632C10.9935 17.4765 10.7763 17.6931 10.663 17.9664C10.6064 18.1025 10.577 18.2473 10.577 18.3921V26.1964C10.577 26.8126 11.0762 27.3113 11.6919 27.3113C12.3076 27.3113 12.8068 26.8126 12.8068 26.1964V21.0835L20.5643 28.841C17.7172 32.0311 15.9087 36.1521 15.6507 40.69H4.4402L8.0021 37.2898C8.44741 36.8641 8.46374 36.1586 8.03857 35.7133C7.61287 35.2658 6.90626 35.2517 6.46259 35.6763L0.888107 40.9982C0.667632 41.2094 0.542969 41.5001 0.542969 41.8049C0.542969 42.1098 0.667632 42.4005 0.888107 42.6117L6.46259 47.9336C6.67816 48.1394 6.95525 48.2417 7.23234 48.2417C7.52631 48.2417 7.81973 48.1263 8.03857 47.8966C8.46374 47.4513 8.4474 46.7457 8.0021 46.32L4.4402 42.9198H15.6409C15.869 46.8895 17.2882 50.539 19.5468 53.5288C19.8288 53.9022 20.1201 54.2669 20.4271 54.6175C20.4717 54.6687 20.5207 54.7166 20.5659 54.7678L12.8068 62.5263V57.4135C12.8068 56.7972 12.3076 56.2986 11.6919 56.2986C11.0762 56.2986 10.577 56.7972 10.577 57.4135V65.2177C10.577 65.3625 10.6064 65.5074 10.663 65.6434C10.7763 65.9167 10.9935 66.1334 11.2662 66.2466C11.4023 66.3032 11.5466 66.3326 11.6919 66.3326H19.4962C20.1119 66.3326 20.6111 65.834 20.6111 65.2177C20.6111 64.6015 20.1119 64.1028 19.4962 64.1028H14.3834L22.1457 56.3399C25.3352 59.1882 29.4519 61.001 33.9898 61.259V72.47L30.5885 68.9076C30.1628 68.4601 29.4562 68.4459 29.0125 68.8705C28.5672 69.2963 28.5509 70.0018 28.9761 70.4471L34.298 76.0216C34.5081 76.2415 34.7993 76.3667 35.1042 76.3667C35.409 76.3667 35.7003 76.2426 35.9104 76.0216L41.2329 70.4471C41.658 70.0018 41.6417 69.2963 41.1964 68.8705C40.7516 68.4459 40.045 68.4601 39.6204 68.9076L36.2196 72.4689V61.259C40.7576 61.001 44.8737 59.1882 48.0632 56.3399L55.8261 64.1028H50.7133C50.0976 64.1028 49.5984 64.6015 49.5984 65.2177C49.5984 65.834 50.0976 66.3326 50.7133 66.3326H58.5175C58.6629 66.3326 58.8072 66.3032 58.9433 66.2466C59.216 66.1334 59.4332 65.9167 59.5464 65.6434C59.603 65.5074 59.6324 65.3625 59.6324 65.2177V57.4135C59.6324 56.7972 59.1332 56.2986 58.5175 56.2986C57.9018 56.2986 57.4026 56.7972 57.4026 57.4135V62.5263L49.6436 54.7678C49.6882 54.7166 49.7367 54.6698 49.7813 54.6197C50.0883 54.268 50.3796 53.9033 50.6616 53.5309C52.9207 50.5412 54.3405 46.8906 54.5686 42.9198H65.7693L62.2074 46.32C61.7621 46.7457 61.7457 47.4513 62.1709 47.8966C62.3897 48.1263 62.6832 48.2417 62.9771 48.2417C63.2542 48.2417 63.5313 48.1394 63.7469 47.9336L69.3214 42.6117C69.5418 42.4005 69.6665 42.1098 69.6665 41.8049C69.6665 41.5001 69.5418 41.2094 69.3214 40.9982ZM21.7336 54.0688C21.7723 53.9545 21.8142 53.8412 21.8626 53.7313C21.8153 53.8423 21.7723 53.9545 21.7336 54.0688ZM35.1047 59.0858C29.9505 59.0858 25.3298 56.8059 22.1609 53.2152C23.1479 51.8107 24.9885 50.9386 26.7768 50.0981C27.3908 49.8095 27.9853 49.5297 28.5237 49.2401C28.8509 49.0648 29.1236 48.859 29.3713 48.6402C30.4873 49.5548 32.4961 50.8482 35.0176 50.9081C35.0797 50.9092 35.1412 50.9103 35.2027 50.9103C37.1799 50.9103 39.0706 50.1427 40.8404 48.6413C41.0875 48.859 41.3597 49.0637 41.6858 49.239C42.2253 49.5308 42.8203 49.8106 43.4349 50.0991C45.2221 50.9397 47.061 51.8107 48.048 53.2163C44.8791 56.8059 40.2584 59.0858 35.1047 59.0858ZM39.7353 46.6423C39.5981 46.7697 39.4609 46.8884 39.3232 47.0027C37.9617 48.1372 36.5615 48.7033 35.0879 48.6794C33.286 48.6424 31.7747 47.7006 30.8956 47.0027C30.7323 46.8731 30.5896 46.7512 30.4726 46.6467C30.6054 45.8268 30.4987 44.8818 30.1187 43.7963C29.4366 41.8637 29.1013 40.4821 29.2826 38.7128C29.5586 36.0018 32.1923 33.7111 35.034 33.7111H35.176C38.0183 33.7111 40.6531 36.0018 40.9291 38.7117C41.1082 40.4875 40.7739 41.8681 40.0935 43.7974C39.7113 44.8796 39.603 45.8247 39.7353 46.6423ZM44.3832 48.0806C43.8072 47.8106 43.2492 47.5493 42.7424 47.276C42.0728 46.9167 41.5268 46.4365 42.1959 44.5388C42.8361 42.7239 43.3908 40.8958 43.1474 38.4864C42.7539 34.6234 39.1778 31.4813 35.176 31.4813H35.034C31.0322 31.4813 27.4572 34.6234 27.0647 38.4853C26.8176 40.8882 27.374 42.7195 28.0152 44.5356C28.6805 46.4376 28.1366 46.9178 27.4676 47.276C26.9619 47.5493 26.4044 47.8095 25.829 48.0806C24.0603 48.9113 22.0858 49.8389 20.7423 51.4002C18.9012 48.6533 17.8239 45.3532 17.8239 41.8049C17.8239 32.2761 25.5759 24.524 35.1047 24.524C44.6336 24.524 52.3856 32.2761 52.3856 41.8049C52.3856 45.3532 51.3083 48.6533 49.4666 51.4002C48.1236 49.84 46.1508 48.9113 44.3832 48.0806Z" fill="white"/>
</g>
</g>
</g>
</g>
</svg>
