<svg width="146" height="125" viewBox="0 0 146 125" fill="none" xmlns="http://www.w3.org/2000/svg">
<g id="Group 93">
<g id="Vector 13">
<path d="M72.5551 77.0145C53.0667 78.2519 33.525 74.9461 19.7578 71.4221C21.63 88.8258 35.3723 122.847 75.3635 119.702C115.355 116.556 128.722 82.8341 130.407 66.3661C116.238 70.4827 94.1459 75.6436 72.5551 77.0145Z" fill="white"/>
<path d="M5.1543 66.9044C8.47926 68.1877 13.5272 69.8272 19.7578 71.4221M141.079 62.9727C138.458 63.9057 134.816 65.0854 130.407 66.3661M19.7578 71.4221C33.525 74.9461 53.0667 78.2519 72.5551 77.0145C94.1459 75.6436 116.238 70.4827 130.407 66.3661M19.7578 71.4221C21.63 88.8258 35.3723 122.847 75.3635 119.702C115.355 116.556 128.722 82.8341 130.407 66.3661" stroke="#0F1B36" stroke-width="8.98677" stroke-linecap="round"/>
</g>
<path id="Vector 11" d="M7.96289 24.2177C10.584 18.2265 18.2474 9.13125 29.8682 7.92909C46.1567 6.24406 52.1479 14.2947 56.2668 19.1625" stroke="#0F1B36" stroke-width="8.98677" stroke-linecap="round"/>
<path id="Vector 12" d="M84.9115 17.1026C89.0406 12.0316 98.7332 6.32207 110.377 7.27158C124.8 8.44769 130.498 18.6881 132.806 25.1611" stroke="#0F1B36" stroke-width="8.98677" stroke-linecap="round"/>
</g>
</svg>
