<svg width="180" height="94" viewBox="0 0 180 94" fill="none" xmlns="http://www.w3.org/2000/svg">
<g id="Group 112">
<path id="Vector 20" d="M107.263 6.93441C122.562 2.41889 160.408 0.897314 179.078 0.763672V12.9551C168.654 12.9551 167.291 21.6434 165.873 34.1457C164.456 46.6481 157.115 60.2443 132.793 59.3645C114.283 58.6949 110.146 54.1808 105.256 45.7473C100.685 37.8656 99.8845 31.4677 98.7452 26.2507C97.6058 21.0338 91.6726 21.6434 88.4345 21.6434C85.1964 21.6434 82.1765 21.6434 79.9188 26.2507C77.4877 31.2118 76.6576 38.2921 71.8912 46.8214C67.1248 55.3507 59.9287 58.6949 43.5403 58.6949C27.5686 58.6949 19.2626 51.8696 15.3467 45.2231C10.7465 37.4151 9.65242 25.9181 9.65242 18.2794C9.65242 13.0461 3.32234 13.1223 0.646484 12.9551V0.763672C10.6809 0.763672 35.0145 1.09472 52.0731 2.41889C66.6515 3.55054 78.3221 9.97147 82.1765 12.9551H96.4756C98.4486 10.7825 100.439 8.7406 107.263 6.93441Z" fill="#1B1B1B" stroke="#1B1B1B" stroke-width="0.732717" stroke-linecap="square"/>
<path id="Vector 22" d="M43.4395 13.824C46.524 9.30018 57.8404 12.5903 62.8038 19.5392C67.2745 25.7982 67.2103 35.5601 62.804 37.0396C56.1964 39.2581 55.6396 32.1295 51.7593 27.2146C47.3204 21.5922 39.009 20.322 43.4395 13.824Z" fill="white" stroke="white" stroke-width="0.732717" stroke-linecap="square"/>
<path id="Vector 23" d="M134.963 12.9319C137.958 8.53883 148.947 11.7338 153.767 18.4818C158.109 24.5598 158.046 34.0396 153.767 35.4763C147.351 37.6307 146.81 30.7082 143.042 25.9353C138.731 20.4755 130.66 19.242 134.963 12.9319Z" fill="white" stroke="white" stroke-width="0.732717" stroke-linecap="square"/>
<path id="Vector 24" d="M112.834 77.1748C110.416 80.9085 103.127 88.6318 96.2178 89.6559C89.3087 90.68 81.3589 90.0826 77.9043 89.6559" stroke="#1B1B1B" stroke-width="5.86173" stroke-linecap="square"/>
</g>
</svg>
