<svg width="121" height="123" viewBox="0 0 121 123" fill="none" xmlns="http://www.w3.org/2000/svg">
<g id="Mask group" opacity="0.1">
<mask id="mask0_121_1610" style="mask-type:alpha" maskUnits="userSpaceOnUse" x="0" y="0" width="121" height="123">
<path id="Rectangle 116" d="M0.242188 8.66553C0.242188 4.24725 3.82391 0.665527 8.24219 0.665527H112.436C116.854 0.665527 120.436 4.24725 120.436 8.66553V73.7566C120.436 100.819 98.498 122.757 71.436 122.757H8.24219C3.82391 122.757 0.242188 119.175 0.242188 114.757V8.66553Z" fill="#1C0606"/>
</mask>
<g mask="url(#mask0_121_1610)">
<g id="Group 173">
<line id="Line 42" x1="0.45849" y1="-65.6694" x2="0.458487" y2="122.596" stroke="#3E3E3E" stroke-width="0.432605"/>
<line id="Line 43" x1="11.5059" y1="-65.6699" x2="11.5058" y2="122.596" stroke="#3E3E3E" stroke-width="0.432605"/>
<line id="Line 44" x1="22.5522" y1="-65.6699" x2="22.5522" y2="122.596" stroke="#3E3E3E" stroke-width="0.432605"/>
<line id="Line 45" x1="33.5981" y1="-65.6704" x2="33.5981" y2="122.595" stroke="#3E3E3E" stroke-width="0.432605"/>
<line id="Line 46" x1="44.6445" y1="-65.6704" x2="44.6445" y2="122.595" stroke="#3E3E3E" stroke-width="0.432605"/>
<line id="Line 47" x1="55.6914" y1="-65.6704" x2="55.6914" y2="122.595" stroke="#3E3E3E" stroke-width="0.432605"/>
<line id="Line 48" x1="66.7383" y1="-65.6704" x2="66.7383" y2="122.595" stroke="#3E3E3E" stroke-width="0.432605"/>
<line id="Line 49" x1="77.7847" y1="-65.6704" x2="77.7847" y2="122.595" stroke="#3E3E3E" stroke-width="0.432605"/>
<line id="Line 50" x1="88.8315" y1="-65.6704" x2="88.8315" y2="122.595" stroke="#3E3E3E" stroke-width="0.432605"/>
<line id="Line 51" x1="99.8779" y1="-65.6704" x2="99.8779" y2="122.595" stroke="#3E3E3E" stroke-width="0.432605"/>
<line id="Line 52" x1="110.924" y1="-65.6704" x2="110.924" y2="122.595" stroke="#3E3E3E" stroke-width="0.432605"/>
<line id="Line 60" x1="188.092" y1="0.825189" x2="0.242645" y2="0.825179" stroke="#3E3E3E" stroke-width="0.432605"/>
<line id="Line 61" x1="188.092" y1="11.8721" x2="0.242645" y2="11.8721" stroke="#3E3E3E" stroke-width="0.432605"/>
<line id="Line 62" x1="188.092" y1="22.9185" x2="0.242645" y2="22.9184" stroke="#3E3E3E" stroke-width="0.432605"/>
<line id="Line 63" x1="188.092" y1="33.9648" x2="0.242645" y2="33.9648" stroke="#3E3E3E" stroke-width="0.432605"/>
<line id="Line 64" x1="188.092" y1="45.0117" x2="0.242645" y2="45.0117" stroke="#3E3E3E" stroke-width="0.432605"/>
<line id="Line 65" x1="188.092" y1="56.0586" x2="0.242645" y2="56.0586" stroke="#3E3E3E" stroke-width="0.432605"/>
<line id="Line 72" x1="188.092" y1="67.1841" x2="0.242645" y2="67.1841" stroke="#3E3E3E" stroke-width="0.432605"/>
<line id="Line 73" x1="188.092" y1="78.3096" x2="0.242645" y2="78.3096" stroke="#3E3E3E" stroke-width="0.432605"/>
<line id="Line 74" x1="188.092" y1="89.4355" x2="0.242645" y2="89.4355" stroke="#3E3E3E" stroke-width="0.432605"/>
<line id="Line 75" x1="188.092" y1="100.561" x2="0.242645" y2="100.561" stroke="#3E3E3E" stroke-width="0.432605"/>
<line id="Line 76" x1="188.092" y1="111.687" x2="0.242645" y2="111.687" stroke="#3E3E3E" stroke-width="0.432605"/>
<line id="Line 77" x1="188.092" y1="122.812" x2="0.242645" y2="122.812" stroke="#3E3E3E" stroke-width="0.432605"/>
</g>
</g>
</g>
</svg>
