<svg width="121" height="123" viewBox="0 0 121 123" fill="none" xmlns="http://www.w3.org/2000/svg">
<g id="Mask group" opacity="0.1">
<mask id="mask0_121_1760" style="mask-type:alpha" maskUnits="userSpaceOnUse" x="0" y="0" width="121" height="123">
<path id="Rectangle 116" d="M0.242188 8.03418C0.242188 3.6159 3.82391 0.0341797 8.24219 0.0341797H112.436C116.854 0.0341797 120.436 3.6159 120.436 8.03418V73.1253C120.436 100.187 98.498 122.125 71.436 122.125H8.24219C3.82391 122.125 0.242188 118.544 0.242188 114.125V8.03418Z" fill="white"/>
</mask>
<g mask="url(#mask0_121_1760)">
<g id="Group 173">
<line id="Line 42" x1="0.45849" y1="-66.3008" x2="0.458487" y2="121.965" stroke="white" stroke-width="0.432605"/>
<line id="Line 43" x1="11.5059" y1="-66.3013" x2="11.5058" y2="121.965" stroke="white" stroke-width="0.432605"/>
<line id="Line 44" x1="22.5522" y1="-66.3013" x2="22.5522" y2="121.965" stroke="white" stroke-width="0.432605"/>
<line id="Line 45" x1="33.5981" y1="-66.3018" x2="33.5981" y2="121.964" stroke="white" stroke-width="0.432605"/>
<line id="Line 46" x1="44.6445" y1="-66.3018" x2="44.6445" y2="121.964" stroke="white" stroke-width="0.432605"/>
<line id="Line 47" x1="55.6914" y1="-66.3018" x2="55.6914" y2="121.964" stroke="white" stroke-width="0.432605"/>
<line id="Line 48" x1="66.7383" y1="-66.3018" x2="66.7383" y2="121.964" stroke="white" stroke-width="0.432605"/>
<line id="Line 49" x1="77.7847" y1="-66.3018" x2="77.7847" y2="121.964" stroke="white" stroke-width="0.432605"/>
<line id="Line 50" x1="88.8315" y1="-66.3018" x2="88.8315" y2="121.964" stroke="white" stroke-width="0.432605"/>
<line id="Line 51" x1="99.8779" y1="-66.3018" x2="99.8779" y2="121.964" stroke="white" stroke-width="0.432605"/>
<line id="Line 52" x1="110.924" y1="-66.3018" x2="110.924" y2="121.964" stroke="white" stroke-width="0.432605"/>
<line id="Line 60" x1="188.092" y1="0.193842" x2="0.242645" y2="0.193831" stroke="white" stroke-width="0.432605"/>
<line id="Line 61" x1="188.092" y1="11.2407" x2="0.242645" y2="11.2407" stroke="white" stroke-width="0.432605"/>
<line id="Line 62" x1="188.092" y1="22.2871" x2="0.242645" y2="22.2871" stroke="white" stroke-width="0.432605"/>
<line id="Line 63" x1="188.092" y1="33.3335" x2="0.242645" y2="33.3335" stroke="white" stroke-width="0.432605"/>
<line id="Line 64" x1="188.092" y1="44.3804" x2="0.242645" y2="44.3804" stroke="white" stroke-width="0.432605"/>
<line id="Line 65" x1="188.092" y1="55.4272" x2="0.242645" y2="55.4272" stroke="white" stroke-width="0.432605"/>
<line id="Line 72" x1="188.092" y1="66.5527" x2="0.242645" y2="66.5527" stroke="white" stroke-width="0.432605"/>
<line id="Line 73" x1="188.092" y1="77.6782" x2="0.242645" y2="77.6782" stroke="white" stroke-width="0.432605"/>
<line id="Line 74" x1="188.092" y1="88.8042" x2="0.242645" y2="88.8042" stroke="white" stroke-width="0.432605"/>
<line id="Line 75" x1="188.092" y1="99.9297" x2="0.242645" y2="99.9297" stroke="white" stroke-width="0.432605"/>
<line id="Line 76" x1="188.092" y1="111.055" x2="0.242645" y2="111.055" stroke="white" stroke-width="0.432605"/>
<line id="Line 77" x1="188.092" y1="122.181" x2="0.242645" y2="122.181" stroke="white" stroke-width="0.432605"/>
</g>
</g>
</g>
</svg>
