<svg width="121" height="123" viewBox="0 0 121 123" fill="none" xmlns="http://www.w3.org/2000/svg">
<g id="Mask group" opacity="0.1">
<mask id="mask0_121_1720" style="mask-type:alpha" maskUnits="userSpaceOnUse" x="0" y="0" width="121" height="123">
<path id="Rectangle 116" d="M0.0517578 8.66553C0.0517578 4.24725 3.63348 0.665527 8.05176 0.665527H112.246C116.664 0.665527 120.246 4.24725 120.246 8.66553V73.7566C120.246 100.819 98.3076 122.757 71.2456 122.757H8.05176C3.63348 122.757 0.0517578 119.175 0.0517578 114.757V8.66553Z" fill="white"/>
</mask>
<g mask="url(#mask0_121_1720)">
<g id="Group 173">
<line id="Line 42" x1="0.268061" y1="-65.6694" x2="0.268057" y2="122.596" stroke="white" stroke-width="0.432605"/>
<line id="Line 43" x1="11.3154" y1="-65.6699" x2="11.3154" y2="122.596" stroke="white" stroke-width="0.432605"/>
<line id="Line 44" x1="22.3618" y1="-65.6699" x2="22.3618" y2="122.596" stroke="white" stroke-width="0.432605"/>
<line id="Line 45" x1="33.4077" y1="-65.6704" x2="33.4077" y2="122.595" stroke="white" stroke-width="0.432605"/>
<line id="Line 46" x1="44.4541" y1="-65.6704" x2="44.4541" y2="122.595" stroke="white" stroke-width="0.432605"/>
<line id="Line 47" x1="55.501" y1="-65.6704" x2="55.501" y2="122.595" stroke="white" stroke-width="0.432605"/>
<line id="Line 48" x1="66.5478" y1="-65.6704" x2="66.5478" y2="122.595" stroke="white" stroke-width="0.432605"/>
<line id="Line 49" x1="77.5942" y1="-65.6704" x2="77.5942" y2="122.595" stroke="white" stroke-width="0.432605"/>
<line id="Line 50" x1="88.6411" y1="-65.6704" x2="88.6411" y2="122.595" stroke="white" stroke-width="0.432605"/>
<line id="Line 51" x1="99.6875" y1="-65.6704" x2="99.6875" y2="122.595" stroke="white" stroke-width="0.432605"/>
<line id="Line 52" x1="110.734" y1="-65.6704" x2="110.734" y2="122.595" stroke="white" stroke-width="0.432605"/>
<line id="Line 60" x1="187.901" y1="0.825189" x2="0.0522155" y2="0.825179" stroke="white" stroke-width="0.432605"/>
<line id="Line 61" x1="187.901" y1="11.8721" x2="0.0522155" y2="11.8721" stroke="white" stroke-width="0.432605"/>
<line id="Line 62" x1="187.901" y1="22.9185" x2="0.0522155" y2="22.9184" stroke="white" stroke-width="0.432605"/>
<line id="Line 63" x1="187.901" y1="33.9648" x2="0.0522155" y2="33.9648" stroke="white" stroke-width="0.432605"/>
<line id="Line 64" x1="187.901" y1="45.0117" x2="0.0522155" y2="45.0117" stroke="white" stroke-width="0.432605"/>
<line id="Line 65" x1="187.901" y1="56.0586" x2="0.0522155" y2="56.0586" stroke="white" stroke-width="0.432605"/>
<line id="Line 72" x1="187.901" y1="67.1841" x2="0.0522155" y2="67.1841" stroke="white" stroke-width="0.432605"/>
<line id="Line 73" x1="187.901" y1="78.3096" x2="0.0522155" y2="78.3096" stroke="white" stroke-width="0.432605"/>
<line id="Line 74" x1="187.901" y1="89.4355" x2="0.0522155" y2="89.4355" stroke="white" stroke-width="0.432605"/>
<line id="Line 75" x1="187.901" y1="100.561" x2="0.0522155" y2="100.561" stroke="white" stroke-width="0.432605"/>
<line id="Line 76" x1="187.901" y1="111.687" x2="0.0522155" y2="111.687" stroke="white" stroke-width="0.432605"/>
<line id="Line 77" x1="187.901" y1="122.812" x2="0.0522155" y2="122.812" stroke="white" stroke-width="0.432605"/>
</g>
</g>
</g>
</svg>
