<svg width="121" height="123" viewBox="0 0 121 123" fill="none" xmlns="http://www.w3.org/2000/svg">
<g id="Mask group" opacity="0.1">
<mask id="mask0_121_1800" style="mask-type:alpha" maskUnits="userSpaceOnUse" x="0" y="0" width="121" height="123">
<path id="Rectangle 116" d="M0.542969 8.70069C0.542969 4.28241 4.12469 0.700684 8.54297 0.700684H112.737C117.155 0.700684 120.737 4.28241 120.737 8.70068V73.7918C120.737 100.854 98.7988 122.792 71.7368 122.792H8.54297C4.12469 122.792 0.542969 119.21 0.542969 114.792V8.70069Z" fill="#1C0606"/>
</mask>
<g mask="url(#mask0_121_1800)">
<g id="Group 173">
<line id="Line 42" x1="0.759271" y1="-65.6343" x2="0.759268" y2="122.632" stroke="#3E3E3E" stroke-width="0.432605"/>
<line id="Line 43" x1="11.8066" y1="-65.6348" x2="11.8066" y2="122.631" stroke="#3E3E3E" stroke-width="0.432605"/>
<line id="Line 44" x1="22.853" y1="-65.6348" x2="22.853" y2="122.631" stroke="#3E3E3E" stroke-width="0.432605"/>
<line id="Line 45" x1="33.8989" y1="-65.6353" x2="33.8989" y2="122.631" stroke="#3E3E3E" stroke-width="0.432605"/>
<line id="Line 46" x1="44.9453" y1="-65.6353" x2="44.9453" y2="122.631" stroke="#3E3E3E" stroke-width="0.432605"/>
<line id="Line 47" x1="55.9922" y1="-65.6353" x2="55.9922" y2="122.631" stroke="#3E3E3E" stroke-width="0.432605"/>
<line id="Line 48" x1="67.0391" y1="-65.6353" x2="67.0391" y2="122.631" stroke="#3E3E3E" stroke-width="0.432605"/>
<line id="Line 49" x1="78.0854" y1="-65.6353" x2="78.0854" y2="122.631" stroke="#3E3E3E" stroke-width="0.432605"/>
<line id="Line 50" x1="89.1323" y1="-65.6353" x2="89.1323" y2="122.631" stroke="#3E3E3E" stroke-width="0.432605"/>
<line id="Line 51" x1="100.179" y1="-65.6353" x2="100.179" y2="122.631" stroke="#3E3E3E" stroke-width="0.432605"/>
<line id="Line 52" x1="111.225" y1="-65.6353" x2="111.225" y2="122.631" stroke="#3E3E3E" stroke-width="0.432605"/>
<line id="Line 60" x1="188.393" y1="0.860346" x2="0.543427" y2="0.860335" stroke="#3E3E3E" stroke-width="0.432605"/>
<line id="Line 61" x1="188.393" y1="11.9072" x2="0.543427" y2="11.9072" stroke="#3E3E3E" stroke-width="0.432605"/>
<line id="Line 62" x1="188.393" y1="22.9536" x2="0.543427" y2="22.9536" stroke="#3E3E3E" stroke-width="0.432605"/>
<line id="Line 63" x1="188.393" y1="34" x2="0.543427" y2="34" stroke="#3E3E3E" stroke-width="0.432605"/>
<line id="Line 64" x1="188.393" y1="45.0469" x2="0.543427" y2="45.0469" stroke="#3E3E3E" stroke-width="0.432605"/>
<line id="Line 65" x1="188.393" y1="56.0937" x2="0.543427" y2="56.0937" stroke="#3E3E3E" stroke-width="0.432605"/>
<line id="Line 72" x1="188.393" y1="67.2192" x2="0.543427" y2="67.2192" stroke="#3E3E3E" stroke-width="0.432605"/>
<line id="Line 73" x1="188.393" y1="78.3447" x2="0.543427" y2="78.3447" stroke="#3E3E3E" stroke-width="0.432605"/>
<line id="Line 74" x1="188.393" y1="89.4707" x2="0.543427" y2="89.4707" stroke="#3E3E3E" stroke-width="0.432605"/>
<line id="Line 75" x1="188.393" y1="100.596" x2="0.543427" y2="100.596" stroke="#3E3E3E" stroke-width="0.432605"/>
<line id="Line 76" x1="188.393" y1="111.722" x2="0.543427" y2="111.722" stroke="#3E3E3E" stroke-width="0.432605"/>
<line id="Line 77" x1="188.393" y1="122.848" x2="0.543427" y2="122.848" stroke="#3E3E3E" stroke-width="0.432605"/>
</g>
</g>
</g>
</svg>
