<svg width="22" height="22" viewBox="0 0 22 22" fill="none" xmlns="http://www.w3.org/2000/svg">
<g id="Group 212">
<path id="Rectangle 123" d="M21.1162 21.3555H0.542969V7.83916C0.542969 3.94172 3.70247 0.782227 7.5999 0.782227H21.1162V21.3555Z" fill="#AC53FF"/>
<path id="Vector" d="M9.01696 15.1636L9.21549 15.362L9.41387 15.1635L16.5792 7.99436L16.5869 7.98672L16.5939 7.97851C16.7017 7.8526 16.7581 7.69063 16.7517 7.52497C16.7453 7.35931 16.6766 7.20217 16.5594 7.08495C16.4422 6.96772 16.285 6.89905 16.1194 6.89265C15.9537 6.88625 15.7917 6.9426 15.6658 7.05043L15.6576 7.05743L15.65 7.06504L9.2079 13.4998L6.00858 10.3005L6.00091 10.2928L5.99267 10.2858C5.86676 10.178 5.70479 10.1216 5.53913 10.128C5.37347 10.1344 5.21633 10.2031 5.09911 10.3203C4.98188 10.4375 4.91321 10.5947 4.90681 10.7603C4.90041 10.926 4.95676 11.088 5.06459 11.2139L5.07169 11.2222L5.0794 11.2299L9.01696 15.1636Z" fill="white" stroke="white" stroke-width="0.561386"/>
</g>
</svg>
