<svg width="22" height="21" viewBox="0 0 22 21" fill="none" xmlns="http://www.w3.org/2000/svg">
<g id="Group 280">
<path id="Rectangle 123" d="M21.1162 20.9648H0.542969V7.44853C0.542969 3.5511 3.70247 0.391602 7.5999 0.391602H21.1162V20.9648Z" fill="#FF4167"/>
<path id="Vector" d="M9.01696 14.773L9.21549 14.9714L9.41387 14.7729L16.5792 7.60374L16.5869 7.5961L16.5939 7.58789C16.7017 7.46197 16.7581 7.3 16.7517 7.13434C16.7453 6.96868 16.6766 6.81154 16.5594 6.69432C16.4422 6.5771 16.285 6.50842 16.1194 6.50202C15.9537 6.49563 15.7917 6.55197 15.6658 6.65981L15.6576 6.66681L15.65 6.67441L9.2079 13.1092L6.00858 9.90989L6.00091 9.90222L5.99267 9.89517C5.86676 9.78733 5.70479 9.73099 5.53913 9.73739C5.37347 9.74378 5.21633 9.81246 5.09911 9.92968C4.98188 10.0469 4.91321 10.204 4.90681 10.3697C4.90041 10.5354 4.95676 10.6973 5.06459 10.8232L5.07169 10.8315L5.0794 10.8392L9.01696 14.773Z" fill="white" stroke="white" stroke-width="0.561386"/>
</g>
</svg>
