<svg width="220" height="141" viewBox="0 0 220 141" fill="none" xmlns="http://www.w3.org/2000/svg">
<g id="Group 109">
<path id="Vector 19" d="M139.994 115.408C138.952 117.837 135.22 122.628 128.629 122.363C122.037 122.098 118.125 116.316 116.993 113.458" stroke="black" stroke-width="5.15431" stroke-linecap="square"/>
<g id="Group 95">
<path id="Vector 17" d="M126.953 82.6877L125.686 80.4437L130.174 77.9091L131.441 80.1531L126.953 82.6877ZM142.261 99.3124C142.961 100.552 142.524 102.124 141.285 102.824C140.045 103.524 138.473 103.086 137.773 101.847L142.261 99.3124ZM131.441 80.1531L142.261 99.3124L137.773 101.847L126.953 82.6877L131.441 80.1531Z" fill="black"/>
<path id="Vector 18" d="M130.015 103.231L127.438 103.255L127.392 98.1005L129.969 98.0772L130.015 103.231ZM139.992 97.987C141.415 97.9742 142.58 99.1176 142.592 100.541C142.605 101.964 141.462 103.128 140.039 103.141L139.992 97.987ZM129.969 98.0772L139.992 97.987L140.039 103.141L130.015 103.231L129.969 98.0772Z" fill="black"/>
</g>
<g id="Group 96">
<path id="Vector 14" d="M35.6836 88.4214L10.5818 94.5346" stroke="black" stroke-width="7.92596" stroke-linecap="square"/>
<path id="Vector 15" d="M130.709 61.3423L119.978 64.0877" stroke="black" stroke-width="7.92596" stroke-linecap="square"/>
<path id="Vector 16" d="M208.1 39.3921L200.215 41.6719" stroke="black" stroke-width="7.92596" stroke-linecap="square"/>
<g id="Group 94">
<path id="Ellipse 1" d="M131.078 51.7382C134.699 73.8782 154.124 88.6274 172.754 85.5805C191.384 82.5336 200.209 63.1642 196.588 41.0242C192.967 18.8843 174.6 4.46402 155.97 7.51092C137.34 10.5578 127.457 29.5983 131.078 51.7382Z" fill="white" stroke="black" stroke-width="5.15431"/>
<circle id="Ellipse 2" cx="41.1159" cy="41.1159" r="41.1159" transform="matrix(-0.986888 0.161404 0.161404 0.986888 110.477 23.9868)" fill="white" stroke="black" stroke-width="5.15431"/>
</g>
<circle id="Ellipse 3" cx="6.93521" cy="6.93521" r="6.93521" transform="matrix(-0.986888 0.161404 0.161404 0.986888 155.363 46.7627)" fill="black"/>
<circle id="Ellipse 4" cx="6.93521" cy="6.93521" r="6.93521" transform="matrix(-0.986888 0.161404 0.161404 0.986888 104.66 62.082)" fill="black"/>
</g>
</g>
</svg>
