<svg width="35" height="36" viewBox="0 0 35 36" fill="none" xmlns="http://www.w3.org/2000/svg">
<circle cx="17.5007" cy="17.8279" r="17.3093" fill="#A94CFF"/>
<path fill-rule="evenodd" clip-rule="evenodd" d="M17.2514 8.53149C17.2514 8.3937 17.3626 8.28247 17.5004 8.28247C17.6382 8.28247 17.7494 8.3937 17.7494 8.53149V10.1916C17.7494 10.3293 17.6382 10.4406 17.5004 10.4406C17.3626 10.4406 17.2514 10.3293 17.2514 10.1916V8.53149ZM11.1024 11.2847C11.0053 11.1876 11.0053 11.0299 11.1024 10.9328C11.1995 10.8357 11.3572 10.8357 11.4543 10.9328L12.628 12.1064C12.7251 12.2036 12.7251 12.3613 12.628 12.4584C12.5309 12.5555 12.3732 12.5555 12.2761 12.4584L11.1024 11.2847ZM23.5455 10.9328C23.6426 10.8357 23.8003 10.8357 23.8975 10.9328C23.9946 11.0299 23.9946 11.1876 23.8975 11.2847L22.7238 12.4584C22.6267 12.5555 22.469 12.5555 22.3719 12.4584C22.2748 12.3612 22.2748 12.2035 22.3719 12.1064L23.5455 10.9328ZM8.70214 18.0769C8.56435 18.0769 8.45312 17.9656 8.45312 17.8278C8.45312 17.6901 8.56435 17.5788 8.70214 17.5788H10.3622C10.5 17.5788 10.6112 17.6901 10.6112 17.8278C10.6112 17.9656 10.5 18.0769 10.3622 18.0769H8.70214ZM26.2987 17.5788C26.4365 17.5788 26.5478 17.6901 26.5478 17.8278C26.5478 17.9656 26.4365 18.0769 26.2987 18.0769H24.6387C24.5009 18.0769 24.3897 17.9656 24.3897 17.8278C24.3897 17.6901 24.5009 17.5788 24.6387 17.5788H26.2987ZM11.4554 23.7278C11.3582 23.8249 11.2005 23.8249 11.1034 23.7278C11.0063 23.6307 11.0063 23.473 11.1034 23.3759L12.2771 22.2022C12.3742 22.1051 12.5319 22.1051 12.629 22.2022C12.7261 22.2994 12.7261 22.4571 12.629 22.5542L11.4554 23.7278ZM23.8985 23.3759C23.9956 23.473 23.9956 23.6307 23.8985 23.7278C23.8014 23.8249 23.6437 23.8249 23.5466 23.7278L22.3729 22.5542C22.2758 22.457 22.2758 22.2993 22.3729 22.2022C22.47 22.1051 22.6277 22.1051 22.7248 22.2022L23.8985 23.3759ZM14.7109 25.2161C14.6818 24.9754 14.6503 24.7289 14.6171 24.4865C14.6171 24.4848 14.6171 24.4823 14.6163 24.4799C14.6005 24.3363 14.5781 24.1943 14.5499 24.0532H20.4307C20.4025 24.1927 20.3809 24.3346 20.3651 24.4774L20.2838 25.2153H18.1639C18.0261 25.2153 17.9149 25.3265 17.9149 25.4643C17.9149 25.6021 18.0261 25.7133 18.1639 25.7133H20.229L20.136 26.5599C20.0854 27.0231 19.6945 27.3734 19.228 27.3734H15.7702C15.3045 27.3734 14.9136 27.0231 14.8621 26.5599C14.8364 26.3242 14.804 26.032 14.7675 25.7133H16.8343C16.9721 25.7133 17.0833 25.6021 17.0833 25.4643C17.0833 25.3265 16.9721 25.2153 16.8343 25.2153H14.7085L14.7109 25.2161ZM17.2516 23.556H14.4196C14.1913 22.8438 13.7954 22.1914 13.2592 21.6569C12.137 20.5571 11.4406 19.0248 11.4406 17.3309C11.4406 14.4125 13.5082 11.973 16.2573 11.3994H16.2589C16.6075 11.3289 16.9695 11.4127 17.2508 11.6277V23.557L17.2516 23.556ZM17.7497 12.0882C18.1331 11.7844 18.6179 11.6035 19.1441 11.6035C20.385 11.6035 21.3918 12.6112 21.3918 13.8512C21.3918 14.0205 21.3727 14.1849 21.3379 14.3426C22.47 14.3575 23.3839 15.2822 23.3839 16.4177C23.3839 16.9622 23.1731 17.4585 22.8294 17.8287C23.1731 18.1989 23.3839 18.6953 23.3839 19.2398C23.3839 20.1711 22.7688 20.9596 21.923 21.2219C22.2326 22.0129 22.0343 22.9467 21.3594 23.5384C21.3528 23.5442 21.3462 23.5501 21.3395 23.555H17.7489L17.7497 12.0872L17.7497 12.0882Z" fill="white"/>
</svg>
