<svg width="381" height="400" viewBox="0 0 381 400" fill="none" xmlns="http://www.w3.org/2000/svg">
<g opacity="0.06">
<path d="M419.857 331.853H406.797V319.651C406.797 314.618 402.601 310.587 397.637 310.587H384.907V62.6948H397.637C402.634 62.6948 406.797 58.567 406.797 53.5656V41.3633H419.857C424.17 41.3633 427.5 37.8501 427.5 33.7438C427.5 29.4436 424.041 26.1242 419.857 26.1242H406.797V13.9219C406.797 8.83894 402.618 4.79279 397.637 4.79279H384.907V-19.8802C384.907 -24.1804 381.448 -27.4998 377.264 -27.4998C373.059 -27.4998 369.621 -24.0939 369.621 -19.8802V4.79279H356.956C351.976 4.79279 347.797 8.83894 347.797 13.9219V26.0586H85.3681V13.9219C85.3681 8.83894 81.189 4.79279 76.2088 4.79279H63.544V-19.8802C63.544 -24.1146 60.0195 -27.4998 55.9011 -27.4998C51.6923 -27.4998 48.1264 -24.1551 48.1264 -19.8802V4.79279H35.4615C30.449 4.79279 26.3681 8.87115 26.3681 13.9219V26.0586H10.1429C5.9377 26.0586 2.5 29.4644 2.5 33.6782C2.5 37.9125 6.02449 41.2977 10.1429 41.2977H26.3681V53.5C26.3681 58.469 30.4329 62.6292 35.4615 62.6292H48.1264V310.522H35.4615C30.4652 310.522 26.3681 314.584 26.3681 319.585V331.788H10.1429C5.91694 331.788 2.5 335.28 2.5 339.407C2.5 343.728 6.04563 347.027 10.1429 347.027H26.3681V359.229C26.3681 364.23 30.4652 368.293 35.4615 368.293H48.1264V389.815C48.1264 394.115 51.6507 397.5 55.8352 397.5C60.0816 397.5 63.478 393.987 63.478 389.815V368.293H76.1429C81.1068 368.293 85.3022 364.262 85.3022 359.229V347.027H347.731V359.229C347.731 364.262 351.926 368.293 356.89 368.293H369.555V389.815C369.555 394.094 373.059 397.5 377.198 397.5C381.531 397.5 384.841 393.966 384.841 389.815V368.293H397.571C402.535 368.293 406.731 364.262 406.731 359.229V347.027H419.791C424.073 347.027 427.418 343.617 427.434 339.438C427.518 335.224 424.018 331.853 419.857 331.853ZM347.797 319.651V331.853H85.3681V319.651C85.3681 314.618 81.1727 310.587 76.2088 310.587H63.544V62.6948H76.2088C81.2052 62.6948 85.3681 58.567 85.3681 53.5656V41.3633H347.797V53.5656C347.797 58.567 351.96 62.6948 356.956 62.6948H369.621V310.587H356.956C351.926 310.587 347.797 314.552 347.797 319.651Z" fill="white" stroke="white" stroke-width="5"/>
<path d="M219.878 155.237L247.57 182.804C248.164 183.329 248.427 184.117 248.427 185.036C248.427 185.889 248.098 186.677 247.504 187.267L220.208 214.44L261.878 254.937L332.361 185.036L262.01 115.069L219.878 155.237Z" fill="white"/>
<path d="M213.484 157.862L213.418 156.746H212.297L173.66 118.35V251.721L240.781 185.035L213.484 157.862Z" fill="white"/>
<path d="M167.265 251.857V118.092L97.7041 184.384L167.265 251.857Z" fill="white"/>
</g>
</svg>
