<svg width="94" height="103" viewBox="0 0 94 103" fill="none" xmlns="http://www.w3.org/2000/svg">
<g id="Group 334">
<path id="Rectangle 162" d="M93.1738 36.894H56.6016V18.6776C56.6016 8.53994 64.8197 0.321777 74.9573 0.321777H93.1738V36.894Z" fill="#FF4167"/>
<g id="Group">
<path id="Vector" d="M83.3877 88.1395H86.0788C86.9276 88.1395 87.6369 88.8293 87.62 89.6864C87.6199 89.6884 87.6199 89.6905 87.6198 89.6925L87.12 89.6806C87.12 90.2621 86.6602 90.7353 86.0653 90.7353L83.3877 88.1395ZM83.3877 88.1395V85.6106C83.3877 84.5843 82.5353 83.7584 81.522 83.7584H78.8985V32.6591H81.522C82.5418 32.6591 83.3877 31.8133 83.3877 30.7934V28.2646H86.0788C86.9582 28.2646 87.6335 27.5455 87.6335 26.7099C87.6335 25.8346 86.9322 25.1552 86.0788 25.1552H83.3877V22.6263C83.3877 21.5897 82.5386 20.7606 81.522 20.7606H78.8985V15.6626C78.8985 14.7873 78.1971 14.1079 77.3438 14.1079C76.4862 14.1079 75.7891 14.805 75.7891 15.6626V20.7606H73.1791C72.1625 20.7606 71.3134 21.5897 71.3134 22.6263V25.1417H17.4692V22.6263C17.4692 21.5897 16.6201 20.7606 15.6035 20.7606H12.9935V15.6626C12.9935 14.8009 12.2787 14.1079 11.4388 14.1079C10.5801 14.1079 9.85705 14.7928 9.85705 15.6626V20.7606H7.24705C6.22397 20.7606 5.39487 21.5962 5.39487 22.6263V25.1417H2.0547C1.19712 25.1417 0.5 25.8388 0.5 26.6964C0.5 27.5581 1.2148 28.251 2.0547 28.251H5.39487V30.7799C5.39487 31.7933 6.22077 32.6456 7.24705 32.6456H9.85705V83.7449H7.24705C6.22721 83.7449 5.39487 84.5772 5.39487 85.5971V88.1259H2.0547C1.19298 88.1259 0.5 88.8407 0.5 89.6806C0.5 90.56 1.21902 91.2353 2.0547 91.2353H5.39487V93.7642C5.39487 94.784 6.22721 95.6164 7.24705 95.6164H9.85705V100.065C9.85705 100.941 10.5718 101.634 11.4253 101.634C12.2911 101.634 12.98 100.915 12.98 100.065V95.6164H15.59C16.6033 95.6164 17.4557 94.7905 17.4557 93.7642V91.2353H71.2999V93.7642C71.2999 94.7905 72.1522 95.6164 73.1655 95.6164H75.7755V100.065C75.7755 100.936 76.4862 101.634 77.3302 101.634C78.2137 101.634 78.8849 100.91 78.8849 100.065V95.6164H81.5085C82.5218 95.6164 83.3742 94.7905 83.3742 93.7642V91.2353L83.3877 88.1395ZM71.3134 85.6106V88.1395H17.4692V85.6106C17.4692 84.5843 16.6168 83.7584 15.6035 83.7584H12.9935V32.6591H15.6035C16.6233 32.6591 17.4692 31.8133 17.4692 30.7934V28.2646H71.3134V30.7934C71.3134 31.8133 72.1592 32.6591 73.1791 32.6591H75.7891V83.7584H73.1791C72.1522 83.7584 71.3134 84.5707 71.3134 85.6106Z" fill="white" stroke="white"/>
<path id="Vector_2" d="M45.0674 51.7382L50.7465 57.4173C50.8682 57.5255 50.9223 57.6878 50.9223 57.8771C50.9223 58.0529 50.8547 58.2151 50.733 58.3368L45.135 63.9348L53.6807 72.2777L68.1355 57.8771L53.7078 43.4629L45.0674 51.7382Z" fill="white"/>
<path id="Vector_3" d="M43.756 52.2793L43.7425 52.0494H43.5126L35.5889 44.1392V71.6153L49.354 57.8773L43.756 52.2793Z" fill="#FF4167"/>
<path id="Vector_4" d="M34.2772 71.6423V44.085L20.0117 57.7419L34.2772 71.6423Z" fill="#FF4167"/>
</g>
</g>
</svg>
