<svg width="104" height="101" viewBox="0 0 104 101" fill="none" xmlns="http://www.w3.org/2000/svg">
<path d="M53.7856 49.7114H103.058V18.4166C103.058 8.48775 95.0093 0.438858 85.0805 0.438858H53.7856V49.7114Z" fill="#FF4167"/>
<path d="M78.422 84.3193H61.1167V100.183H78.422V84.3193Z" fill="white"/>
<path d="M68.3285 29.52V35.2884H71.2128V29.52C71.2128 25.3128 69.5415 21.2779 66.5665 18.303C63.5916 15.328 59.5567 13.6567 55.3495 13.6567C51.1424 13.6567 47.1075 15.328 44.1326 18.303C41.1576 21.2779 39.4863 25.3128 39.4863 29.52V85.7623C39.4863 88.8221 38.2708 91.7565 36.1072 93.9201C33.9437 96.0837 31.0092 97.2992 27.9494 97.2992C24.8897 97.2992 21.9552 96.0837 19.7916 93.9201C17.628 91.7565 16.4125 88.8221 16.4125 85.7623V79.9939H13.5283V85.7623C13.5283 89.587 15.0477 93.2551 17.7522 95.9596C20.4566 98.6641 24.1247 100.183 27.9494 100.183C31.7741 100.183 35.4422 98.6641 38.1467 95.9596C40.8512 93.2551 42.3705 89.587 42.3705 85.7623V29.52C42.3705 26.0777 43.738 22.7765 46.172 20.3424C48.606 17.9084 51.9073 16.541 55.3495 16.541C58.7918 16.541 62.0931 17.9084 64.5271 20.3424C66.9611 22.7765 68.3285 26.0777 68.3285 29.52Z" fill="white"/>
<path d="M20.7384 13.6567H16.4121V49.7095H20.7384V13.6567Z" fill="#FF4167"/>
<path d="M28.5892 52.5933H1.35059L8.56114 65.5723H21.3786L28.5892 52.5933Z" fill="#FF4167"/>
<path d="M29.392 13.6567H23.6235V49.7095H29.392V13.6567Z" fill="#FF4167"/>
<path d="M13.528 13.6567H9.20166V49.7095H13.528V13.6567Z" fill="#FF4167"/>
<path d="M19.7772 68.4565H10.1641L14.9706 77.1092L19.7772 68.4565Z" fill="#FF4167"/>
<path d="M6.31727 13.6567H0.548828V49.7095H6.31727V13.6567Z" fill="#FF4167"/>
<path d="M71.2119 38.1724V54.9751C71.7617 55.2926 72.1914 55.7826 72.4344 56.3692C72.6774 56.9558 72.72 57.6061 72.5557 58.2194C72.3914 58.8327 72.0293 59.3746 71.5255 59.7611C71.0218 60.1476 70.4047 60.3571 69.7697 60.3571C69.1348 60.3571 68.5177 60.1476 68.0139 59.7611C67.5102 59.3746 67.1481 58.8327 66.9838 58.2194C66.8195 57.6061 66.8621 56.9558 67.1051 56.3692C67.348 55.7826 67.7778 55.2926 68.3276 54.9751V38.1724C68.2967 38.2138 68.2585 38.2455 68.2304 38.2905L55.3486 58.3619L62.5592 81.4357H76.9803L84.1909 58.9014L71.3091 38.2905C71.2809 38.2455 71.2428 38.2138 71.2119 38.1724Z" fill="white"/>
</svg>
