<svg width="732" height="737" viewBox="0 0 732 737" fill="none" xmlns="http://www.w3.org/2000/svg">
<path d="M0.152344 8.81349C0.152344 4.39521 3.73407 0.813477 8.15234 0.813477H723.736C728.155 0.813477 731.736 4.3952 731.736 8.81348V496.924C731.736 629.472 624.285 736.924 491.736 736.924H8.15235C3.73407 736.924 0.152344 733.342 0.152344 728.924V8.81349Z" fill="#303030"/>
<mask id="mask0_130_8845" style="mask-type:alpha" maskUnits="userSpaceOnUse" x="0" y="0" width="732" height="737">
<path d="M0.152344 8.81349C0.152344 4.39521 3.73407 0.813477 8.15234 0.813477H723.736C728.155 0.813477 731.736 4.3952 731.736 8.81348V496.924C731.736 629.472 624.285 736.924 491.736 736.924H8.15235C3.73407 736.924 0.152344 733.342 0.152344 728.924V8.81349Z" fill="#303030"/>
</mask>
<g mask="url(#mask0_130_8845)">
<g opacity="0.04">
<mask id="mask1_130_8845" style="mask-type:alpha" maskUnits="userSpaceOnUse" x="0" y="0" width="732" height="787">
<path d="M0.152344 49.4743C0.152344 22.5997 21.9386 0.813477 48.8133 0.813477H682.585C709.459 0.813477 731.246 22.5997 731.246 49.4744V488.823C731.246 653.431 597.805 786.871 433.197 786.871H48.8133C21.9386 786.871 0.152344 765.085 0.152344 738.21V49.4743Z" fill="#1C0606"/>
</mask>
<g mask="url(#mask1_130_8845)">
<line x1="1.46803" y1="-402.677" x2="1.46801" y2="742.472" stroke="white" stroke-width="2.63137"/>
<line x1="68.6648" y1="-402.68" x2="68.6648" y2="742.469" stroke="white" stroke-width="2.63137"/>
<line x1="135.856" y1="-402.68" x2="135.856" y2="742.469" stroke="white" stroke-width="2.63137"/>
<line x1="203.044" y1="-402.683" x2="203.044" y2="742.467" stroke="white" stroke-width="2.63137"/>
<line x1="270.235" y1="-402.683" x2="270.235" y2="742.467" stroke="white" stroke-width="2.63137"/>
<line x1="337.429" y1="-402.683" x2="337.429" y2="742.467" stroke="white" stroke-width="2.63137"/>
<line x1="404.623" y1="-402.683" x2="404.623" y2="742.467" stroke="white" stroke-width="2.63137"/>
<line x1="471.814" y1="-402.683" x2="471.814" y2="742.467" stroke="white" stroke-width="2.63137"/>
<line x1="539.008" y1="-402.683" x2="539.008" y2="742.467" stroke="white" stroke-width="2.63137"/>
<line x1="606.198" y1="-402.683" x2="606.198" y2="742.467" stroke="white" stroke-width="2.63137"/>
<line x1="673.389" y1="-402.683" x2="673.389" y2="742.467" stroke="white" stroke-width="2.63137"/>
<line x1="1142.77" y1="1.78444" x2="0.154907" y2="1.78437" stroke="white" stroke-width="2.63137"/>
<line x1="1142.77" y1="68.9788" x2="0.154907" y2="68.9787" stroke="white" stroke-width="2.63137"/>
<line x1="1142.77" y1="136.169" x2="0.154907" y2="136.169" stroke="white" stroke-width="2.63137"/>
<line x1="1142.77" y1="203.361" x2="0.154907" y2="203.361" stroke="white" stroke-width="2.63137"/>
<line x1="1142.77" y1="270.554" x2="0.154907" y2="270.554" stroke="white" stroke-width="2.63137"/>
<line x1="1142.77" y1="337.748" x2="0.154907" y2="337.748" stroke="white" stroke-width="2.63137"/>
<line x1="1142.77" y1="405.421" x2="0.154907" y2="405.421" stroke="white" stroke-width="2.63137"/>
<line x1="1142.77" y1="473.092" x2="0.154907" y2="473.092" stroke="white" stroke-width="2.63137"/>
<line x1="1142.77" y1="540.768" x2="0.154907" y2="540.768" stroke="white" stroke-width="2.63137"/>
<line x1="1142.77" y1="608.44" x2="0.154907" y2="608.44" stroke="white" stroke-width="2.63137"/>
<line x1="1142.77" y1="676.112" x2="0.154907" y2="676.112" stroke="white" stroke-width="2.63137"/>
</g>
</g>
</g>
</svg>
