<svg width="624" height="624" viewBox="0 0 624 624" fill="none" xmlns="http://www.w3.org/2000/svg">
<path d="M0 7.99998C0 3.5817 3.58172 0 8 0H616C620.418 0 624 3.58172 624 8V400C624 523.712 523.712 624 400 624H7.99998C3.5817 624 0 620.418 0 616V7.99998Z" fill="#02004F"/>
<mask id="mask0_5_2659" style="mask-type:alpha" maskUnits="userSpaceOnUse" x="0" y="0" width="624" height="624">
<path d="M0 7.99998C0 3.5817 3.58172 0 8 0H616C620.418 0 624 3.58172 624 8V400C624 523.712 523.712 624 400 624H7.99998C3.5817 624 0 620.418 0 616V7.99998Z" fill="#303030"/>
</mask>
<g mask="url(#mask0_5_2659)">
<g opacity="0.04">
<mask id="mask1_5_2659" style="mask-type:alpha" maskUnits="userSpaceOnUse" x="0" y="0" width="624" height="708">
<path d="M0 8.00002C0 3.58175 3.58172 0 8 0H615.581C620 0 623.581 3.58172 623.581 8V483.778C623.581 607.49 523.293 707.778 399.581 707.778H8C3.58173 707.778 0 704.197 0 699.778V8.00002Z" fill="#1C0606"/>
</mask>
<g mask="url(#mask1_5_2659)">
<line x1="1.23011" y1="-384.551" x2="1.23009" y2="706.85" stroke="white" stroke-width="2.46022"/>
<line x1="58.5455" y1="-384.554" x2="58.5455" y2="706.848" stroke="white" stroke-width="2.46022"/>
<line x1="115.855" y1="-384.554" x2="115.855" y2="706.848" stroke="white" stroke-width="2.46022"/>
<line x1="173.163" y1="-384.557" x2="173.163" y2="706.845" stroke="white" stroke-width="2.46022"/>
<line x1="230.473" y1="-384.557" x2="230.473" y2="706.845" stroke="white" stroke-width="2.46022"/>
<line x1="287.786" y1="-384.557" x2="287.786" y2="706.845" stroke="white" stroke-width="2.46022"/>
<line x1="345.098" y1="-384.557" x2="345.098" y2="706.845" stroke="white" stroke-width="2.46022"/>
<line x1="402.409" y1="-384.557" x2="402.409" y2="706.845" stroke="white" stroke-width="2.46022"/>
<line x1="459.721" y1="-384.557" x2="459.721" y2="706.845" stroke="white" stroke-width="2.46022"/>
<line x1="517.031" y1="-384.557" x2="517.031" y2="706.845" stroke="white" stroke-width="2.46022"/>
<line x1="574.341" y1="-384.557" x2="574.341" y2="706.845" stroke="white" stroke-width="2.46022"/>
<line x1="974.588" y1="0.891977" x2="0.00189194" y2="0.891915" stroke="white" stroke-width="2.46022"/>
<line x1="974.588" y1="64.9525" x2="0.00189194" y2="64.9525" stroke="white" stroke-width="2.46022"/>
<line x1="974.588" y1="128.988" x2="0.00189194" y2="128.988" stroke="white" stroke-width="2.46022"/>
<line x1="974.588" y1="193.023" x2="0.00189194" y2="193.023" stroke="white" stroke-width="2.46022"/>
<line x1="974.588" y1="257.062" x2="0.00189194" y2="257.062" stroke="white" stroke-width="2.46022"/>
<line x1="974.588" y1="321.1" x2="0.00189194" y2="321.1" stroke="white" stroke-width="2.46022"/>
<line x1="974.588" y1="385.599" x2="0.00189194" y2="385.598" stroke="white" stroke-width="2.46022"/>
<line x1="974.588" y1="450.098" x2="0.00189194" y2="450.098" stroke="white" stroke-width="2.46022"/>
<line x1="974.588" y1="514.577" x2="0.00189194" y2="514.577" stroke="white" stroke-width="2.46022"/>
<line x1="974.588" y1="579.078" x2="0.00189194" y2="579.078" stroke="white" stroke-width="2.46022"/>
</g>
</g>
</g>
<g opacity="0.08">
<path d="M156.555 121.961H153.183V118.83C153.183 117.247 151.866 115.986 150.312 115.986H147.033V46.9356H150.312C151.879 46.9356 153.183 45.6439 153.183 44.0731V40.9425H156.555C157.935 40.9425 159 39.8185 159 38.5041C159 37.1279 157.891 36.0658 156.555 36.0658H153.183V32.9351C153.183 31.3395 151.873 30.0727 150.312 30.0727H147.033V23.4383C147.033 22.0621 145.925 21 144.588 21C143.244 21 142.143 22.0888 142.143 23.4383V30.0727H138.883C137.323 30.0727 136.012 31.3395 136.012 32.9351V36.0474H62.8772V32.9351C62.8772 31.3395 61.5667 30.0727 60.0063 30.0727H56.7457V23.4383C56.7457 22.0806 55.6185 21 54.3008 21C52.9626 21 51.8188 22.0644 51.8188 23.4383V30.0727H48.5582C46.9849 30.0727 45.7058 31.3524 45.7058 32.9351V36.0474H41.4449C40.1004 36.0474 39 37.1362 39 38.4857C39 39.8435 40.1272 40.9241 41.4449 40.9241H45.7058V44.0547C45.7058 45.6125 46.9785 46.9172 48.5582 46.9172H51.8188V115.968H48.5582C46.9914 115.968 45.7058 117.241 45.7058 118.812V121.943H41.4449C40.0921 121.943 39 123.058 39 124.381C39 125.766 40.1357 126.819 41.4449 126.819H45.7058V129.95C45.7058 131.521 46.9914 132.794 48.5582 132.794H51.8188V138.543C51.8188 139.919 52.946 141 54.2823 141C55.6433 141 56.7272 139.876 56.7272 138.543V132.794H59.9878C61.5416 132.794 62.8587 131.534 62.8587 129.95V126.819H135.993V129.95C135.993 131.534 137.311 132.794 138.864 132.794H142.125V138.543C142.125 139.911 143.244 141 144.57 141C145.958 141 147.015 139.868 147.015 138.543V132.794H150.294C151.848 132.794 153.165 131.534 153.165 129.95V126.819H156.537C157.904 126.819 158.975 125.729 158.981 124.393C159.007 123.036 157.882 121.961 156.555 121.961ZM136.012 118.83V121.961H62.8772V118.83C62.8772 117.247 61.5601 115.986 60.0063 115.986H56.7457V46.9356H60.0063C61.5731 46.9356 62.8772 45.6439 62.8772 44.0731V40.9425H136.012V44.0731C136.012 45.6439 137.316 46.9356 138.883 46.9356H142.143V115.986H138.883C137.311 115.986 136.012 117.228 136.012 118.83Z" fill="white" stroke="white" stroke-width="2"/>
<path d="M100.371 72.6381L108.151 80.383C108.318 80.5305 108.392 80.7518 108.392 81.01C108.392 81.2497 108.299 81.471 108.132 81.637L100.463 89.2713L112.171 100.649L131.973 81.01L112.208 61.3525L100.371 72.6381Z" fill="white"/>
<path d="M98.574 73.3755L98.5554 73.062H98.2405L87.3853 62.2744V99.7453L106.243 81.0098L98.574 73.3755Z" fill="white"/>
<path d="M85.5886 99.7834V62.2019L66.0454 80.8267L85.5886 99.7834Z" fill="white"/>
</g>
</svg>
