<svg width="732" height="1164" viewBox="0 0 732 1164" fill="none" xmlns="http://www.w3.org/2000/svg">
<path d="M0.152344 8.12302C0.152344 3.70474 3.73407 0.123047 8.15234 0.123047H723.736C728.155 0.123047 731.736 3.70477 731.736 8.12305V923.053C731.736 1055.6 624.285 1163.05 491.736 1163.05H8.15235C3.73407 1163.05 0.152344 1159.47 0.152344 1155.05V8.12302Z" fill="#303030"/>
<mask id="mask0_130_8781" style="mask-type:alpha" maskUnits="userSpaceOnUse" x="0" y="0" width="732" height="1164">
<path d="M0.152344 8.12302C0.152344 3.70474 3.73407 0.123047 8.15234 0.123047H723.736C728.155 0.123047 731.736 3.70477 731.736 8.12305V923.053C731.736 1055.6 624.285 1163.05 491.736 1163.05H8.15235C3.73407 1163.05 0.152344 1159.47 0.152344 1155.05V8.12302Z" fill="#303030"/>
</mask>
<g mask="url(#mask0_130_8781)">
<g opacity="0.04">
<mask id="mask1_130_8781" style="mask-type:alpha" maskUnits="userSpaceOnUse" x="0" y="0" width="732" height="1232">
<path d="M0.152344 48.7839C0.152344 21.9092 21.9386 0.123047 48.8133 0.123047H682.585C709.459 0.123047 731.246 21.9093 731.246 48.784V933.238C731.246 1097.85 597.805 1231.29 433.197 1231.29H48.8133C21.9386 1231.29 0.152344 1209.5 0.152344 1182.63V48.7839Z" fill="#1C0606"/>
</mask>
<g mask="url(#mask1_130_8781)">
<line x1="1.46803" y1="3.58301" x2="1.46801" y2="1163.05" stroke="white" stroke-width="2.63137"/>
<line x1="69.5051" y1="3.58008" x2="69.5051" y2="1163.05" stroke="white" stroke-width="2.63137"/>
<line x1="137.536" y1="3.58008" x2="137.536" y2="1163.05" stroke="white" stroke-width="2.63137"/>
<line x1="205.565" y1="3.57715" x2="205.565" y2="1163.05" stroke="white" stroke-width="2.63137"/>
<line x1="273.596" y1="3.57715" x2="273.596" y2="1163.05" stroke="white" stroke-width="2.63137"/>
<line x1="341.631" y1="3.57715" x2="341.631" y2="1163.05" stroke="white" stroke-width="2.63137"/>
<line x1="409.664" y1="3.57715" x2="409.664" y2="1163.05" stroke="white" stroke-width="2.63137"/>
<line x1="477.696" y1="3.57715" x2="477.696" y2="1163.05" stroke="white" stroke-width="2.63137"/>
<line x1="545.73" y1="3.57715" x2="545.73" y2="1163.05" stroke="white" stroke-width="2.63137"/>
<line x1="613.761" y1="3.57715" x2="613.761" y2="1163.05" stroke="white" stroke-width="2.63137"/>
<line x1="681.792" y1="3.57715" x2="681.792" y2="1163.05" stroke="white" stroke-width="2.63137"/>
<line x1="1157.06" y1="4.89284" x2="0.154663" y2="4.89277" stroke="white" stroke-width="2.63137"/>
<line x1="1157.06" y1="72.927" x2="0.154663" y2="72.9269" stroke="white" stroke-width="2.63137"/>
<line x1="1157.06" y1="140.958" x2="0.154663" y2="140.958" stroke="white" stroke-width="2.63137"/>
<line x1="1157.06" y1="208.99" x2="0.154663" y2="208.99" stroke="white" stroke-width="2.63137"/>
<line x1="1157.06" y1="277.024" x2="0.154663" y2="277.024" stroke="white" stroke-width="2.63137"/>
<line x1="1157.06" y1="345.056" x2="0.154663" y2="345.056" stroke="white" stroke-width="2.63137"/>
<line x1="1157.06" y1="413.086" x2="0.154663" y2="413.086" stroke="white" stroke-width="2.63137"/>
<line x1="1157.06" y1="481.12" x2="0.154663" y2="481.12" stroke="white" stroke-width="2.63137"/>
<line x1="1157.06" y1="549.152" x2="0.154663" y2="549.152" stroke="white" stroke-width="2.63137"/>
<line x1="1157.06" y1="617.183" x2="0.154663" y2="617.183" stroke="white" stroke-width="2.63137"/>
<line x1="1157.06" y1="685.217" x2="0.154663" y2="685.217" stroke="white" stroke-width="2.63137"/>
<line x1="1157.06" y1="753.251" x2="0.154663" y2="753.251" stroke="white" stroke-width="2.63137"/>
<line x1="1157.06" y1="821.77" x2="0.154663" y2="821.77" stroke="white" stroke-width="2.63137"/>
<line x1="1157.06" y1="890.288" x2="0.154663" y2="890.288" stroke="white" stroke-width="2.63137"/>
<line x1="1157.06" y1="958.81" x2="0.154663" y2="958.81" stroke="white" stroke-width="2.63137"/>
<line x1="1157.06" y1="1027.33" x2="0.154663" y2="1027.33" stroke="white" stroke-width="2.63137"/>
<line x1="1157.06" y1="1095.85" x2="0.154663" y2="1095.85" stroke="white" stroke-width="2.63137"/>
<line x1="1157.06" y1="1164.37" x2="0.154663" y2="1164.37" stroke="white" stroke-width="2.63137"/>
</g>
</g>
</g>
<g opacity="0.04">
<path d="M175.141 109.94L150.436 98.2091C150.763 96.5454 150.511 94.8198 149.722 93.3193C148.932 91.8187 147.653 90.6335 146.097 89.9607V53.4377C147.208 52.9485 148.184 52.1974 148.942 51.2488C149.7 50.3001 150.216 49.1821 150.448 47.9902C150.679 46.7984 150.619 45.5682 150.271 44.4049C149.924 43.2415 149.3 42.1796 148.453 41.3098C147.606 40.4401 146.561 39.7884 145.407 39.4106C144.253 39.0327 143.025 38.9398 141.827 39.1399C140.63 39.3401 139.499 39.8272 138.53 40.5597C137.562 41.2922 136.786 42.2483 136.267 43.3462H84.6949C84.1714 42.2439 83.3875 41.2857 82.4108 40.5542C81.4341 39.8227 80.2941 39.3399 79.0891 39.1476C77.8841 38.9553 76.6504 39.0592 75.4945 39.4503C74.3387 39.8415 73.2954 40.5081 72.4548 41.3927C71.6143 42.2772 71.0017 43.3531 70.6699 44.5274C70.3382 45.7017 70.2973 46.9391 70.5507 48.1327C70.8042 49.3263 71.3444 50.4403 72.1247 51.3784C72.9051 52.3166 73.902 53.0507 75.0295 53.5173V90.3406C73.883 90.8151 72.8716 91.5658 72.0854 92.5258C71.2991 93.4858 70.7625 94.6254 70.5231 95.8429C70.2838 97.0605 70.3493 98.3183 70.7136 99.5045C71.078 100.691 71.73 101.768 72.6116 102.642C73.4932 103.515 74.577 104.157 75.7666 104.51C76.9562 104.863 78.2146 104.916 79.4298 104.665C80.6451 104.414 81.7794 103.867 82.7319 103.071C83.6843 102.276 84.4254 101.258 84.889 100.107H136.297C137.01 101.609 138.206 102.829 139.693 103.574C141.181 104.318 142.874 104.543 144.505 104.214L152.281 129.669C152.446 130.208 152.776 130.681 153.224 131.023C153.672 131.364 154.215 131.556 154.778 131.572C154.805 131.574 154.831 131.574 154.857 131.574C155.407 131.574 155.944 131.406 156.395 131.091C156.847 130.777 157.191 130.332 157.382 129.816L161.871 117.673L174.541 115.007C175.092 114.89 175.592 114.604 175.972 114.188C176.352 113.772 176.592 113.248 176.658 112.689C176.724 112.129 176.614 111.564 176.341 111.071C176.069 110.578 175.649 110.182 175.141 109.94ZM143.045 44.4224C143.469 44.4224 143.884 44.5482 144.237 44.7839C144.589 45.0196 144.864 45.3545 145.027 45.7464C145.189 46.1383 145.231 46.5696 145.149 46.9856C145.066 47.4017 144.862 47.7838 144.562 48.0838C144.262 48.3838 143.879 48.588 143.463 48.6708C143.047 48.7535 142.616 48.7111 142.224 48.5487C141.832 48.3864 141.497 48.1115 141.262 47.7588C141.026 47.4061 140.9 46.9914 140.9 46.5672C140.901 45.9986 141.127 45.4535 141.529 45.0515C141.931 44.6494 142.476 44.4232 143.045 44.4224ZM77.9165 44.4224C78.3407 44.4224 78.7553 44.5482 79.108 44.7839C79.4608 45.0196 79.7357 45.3545 79.898 45.7464C80.0603 46.1383 80.1028 46.5696 80.02 46.9856C79.9373 47.4017 79.733 47.7838 79.4331 48.0838C79.1331 48.3838 78.7509 48.588 78.3349 48.6708C77.9188 48.7535 77.4876 48.7111 77.0957 48.5487C76.7038 48.3864 76.3688 48.1115 76.1331 47.7588C75.8975 47.4061 75.7717 46.9914 75.7717 46.5672C75.7725 45.9986 75.9987 45.4535 76.4007 45.0515C76.8028 44.6494 77.3479 44.4232 77.9165 44.4224ZM77.9165 99.4356C77.4922 99.4356 77.0775 99.3097 76.7248 99.074C76.3721 98.8382 76.0972 98.5032 75.935 98.1112C75.7727 97.7192 75.7303 97.2879 75.8132 96.8718C75.8961 96.4557 76.1005 96.0736 76.4006 95.7737C76.7007 95.4738 77.083 95.2697 77.4991 95.1871C77.9153 95.1045 78.3465 95.1472 78.7384 95.3097C79.1303 95.4723 79.4652 95.7474 79.7007 96.1002C79.9362 96.4531 80.0617 96.8679 80.0614 97.2922C80.0603 97.8605 79.8339 98.4053 79.4318 98.807C79.0298 99.2087 78.4848 99.435 77.9165 99.4356ZM135.853 94.7218H84.9655C84.5849 93.6829 83.9798 92.7407 83.1933 91.9625C82.4067 91.1842 81.4582 90.5891 80.4153 90.2195V53.6392C81.5249 53.2449 82.5262 52.5954 83.3387 51.7431C84.1511 50.8907 84.7518 49.8594 85.0924 48.7322H135.871C136.22 49.8866 136.842 50.9398 137.685 51.8029C138.528 52.6659 139.566 53.3133 140.711 53.6903V89.7091C139.556 90.0889 138.511 90.7434 137.664 91.6165C136.818 92.4896 136.197 93.5554 135.853 94.7218ZM140.9 96.8308C140.901 96.2624 141.128 95.7175 141.53 95.3157C141.932 94.9138 142.477 94.6877 143.045 94.687C143.545 94.6917 144.026 94.8728 144.405 95.1982C144.784 95.5237 145.036 95.9726 145.116 96.4656C144.56 96.6198 144.065 96.9438 143.702 97.3924C143.338 97.841 143.123 98.3919 143.088 98.9683C143.073 98.9683 143.061 98.9768 143.046 98.9768C142.477 98.9761 141.931 98.7498 141.529 98.3475C141.127 97.9452 140.901 97.3997 140.9 96.8308ZM159.385 112.694C158.903 112.819 158.456 113.053 158.079 113.377C157.732 113.676 157.467 114.057 157.308 114.485L155.098 120.462L150.069 103.997L165.619 111.383L159.385 112.694Z" fill="white"/>
<path d="M37.4521 167.671H60.4971V26.6113H37.4521V167.671ZM42.8366 31.9971H55.1112V42.5484H49.6189C48.9047 42.5484 48.2199 42.8321 47.7149 43.3371C47.2099 43.842 46.9263 44.5269 46.9263 45.241C46.9263 45.9552 47.2099 46.64 47.7149 47.145C48.2199 47.65 48.9047 47.9337 49.6189 47.9337H55.1119V68.8673H49.6189C48.9047 68.8673 48.2199 69.151 47.7149 69.656C47.2099 70.1609 46.9263 70.8458 46.9263 71.5599C46.9263 72.274 47.2099 72.9589 47.7149 73.4639C48.2199 73.9688 48.9047 74.2525 49.6189 74.2525H55.1119V95.1852H49.6189C48.9047 95.1852 48.2199 95.4689 47.7149 95.9739C47.2099 96.4788 46.9263 97.1637 46.9263 97.8778C46.9263 98.5919 47.2099 99.2768 47.7149 99.7818C48.2199 100.287 48.9047 100.57 49.6189 100.57H55.1119V121.503H49.6189C48.9047 121.503 48.2199 121.787 47.7149 122.292C47.2099 122.797 46.9263 123.482 46.9263 124.196C46.9263 124.91 47.2099 125.595 47.7149 126.1C48.2199 126.605 48.9047 126.888 49.6189 126.888H55.1119V147.821H49.6189C49.2653 147.821 48.9151 147.891 48.5885 148.026C48.2618 148.161 47.9649 148.36 47.7149 148.61C47.4649 148.86 47.2665 149.157 47.1312 149.483C46.9959 149.81 46.9263 150.16 46.9263 150.514C46.9263 150.867 46.9959 151.217 47.1312 151.544C47.2665 151.871 47.4649 152.168 47.7149 152.418C47.9649 152.668 48.2618 152.866 48.5885 153.001C48.9151 153.137 49.2653 153.206 49.6189 153.206H55.1119V162.285H42.8366V31.9971Z" fill="white"/>
<path d="M64.4395 4.80566V27.8507H209.839V4.80566H64.4395ZM204.455 22.4654H195.72V16.9732C195.72 16.259 195.437 15.5742 194.932 15.0692C194.427 14.5642 193.742 14.2805 193.028 14.2805C192.314 14.2805 191.629 14.5642 191.124 15.0692C190.619 15.5742 190.335 16.259 190.335 16.9732V22.4654H169.402V16.9732C169.402 16.259 169.119 15.5742 168.614 15.0692C168.109 14.5642 167.424 14.2805 166.71 14.2805C165.996 14.2805 165.311 14.5642 164.806 15.0692C164.301 15.5742 164.017 16.259 164.017 16.9732V22.4654H143.084V16.9732C143.084 16.259 142.801 15.5742 142.296 15.0692C141.791 14.5642 141.106 14.2805 140.392 14.2805C139.678 14.2805 138.993 14.5642 138.488 15.0692C137.983 15.5742 137.699 16.259 137.699 16.9732V22.4654H116.767V16.9732C116.767 16.6196 116.697 16.2694 116.562 15.9427C116.426 15.6161 116.228 15.3192 115.978 15.0692C115.728 14.8192 115.431 14.6208 115.104 14.4855C114.778 14.3502 114.428 14.2805 114.074 14.2805C113.72 14.2805 113.37 14.3502 113.044 14.4855C112.717 14.6208 112.42 14.8192 112.17 15.0692C111.92 15.3192 111.722 15.6161 111.586 15.9427C111.451 16.2694 111.381 16.6196 111.381 16.9732V22.4654H90.4487V16.9732C90.4487 16.259 90.165 15.5742 89.66 15.0692C89.1551 14.5642 88.4702 14.2805 87.7561 14.2805C87.0419 14.2805 86.357 14.5642 85.8521 15.0692C85.3471 15.5742 85.0634 16.259 85.0634 16.9732V22.4654H69.8241V10.1909H204.455V22.4654Z" fill="white"/>
</g>
</svg>
