<svg width="732" height="614" viewBox="0 0 732 614" fill="none" xmlns="http://www.w3.org/2000/svg">
<path d="M0.152344 8.83008C0.152344 4.4118 3.73407 0.830078 8.15234 0.830078H723.736C728.155 0.830078 731.736 4.4118 731.736 8.83008V373.977C731.736 506.525 624.285 613.977 491.736 613.977H8.15235C3.73407 613.977 0.152344 610.395 0.152344 605.977V8.83008Z" fill="#303030"/>
<mask id="mask0_130_8914" style="mask-type:alpha" maskUnits="userSpaceOnUse" x="0" y="0" width="732" height="614">
<path d="M0.152344 8.83008C0.152344 4.4118 3.73407 0.830078 8.15234 0.830078H723.736C728.155 0.830078 731.736 4.4118 731.736 8.83008V373.977C731.736 506.525 624.285 613.977 491.736 613.977H8.15235C3.73407 613.977 0.152344 610.395 0.152344 605.977V8.83008Z" fill="#303030"/>
</mask>
<g mask="url(#mask0_130_8914)">
<g opacity="0.04">
<mask id="mask1_130_8914" style="mask-type:alpha" maskUnits="userSpaceOnUse" x="0" y="0" width="732" height="656">
<path d="M0.152344 49.4911C0.152344 22.6164 21.9386 0.830078 48.8133 0.830078H682.585C709.459 0.830078 731.246 22.6163 731.246 49.491V356.962C731.246 521.57 597.805 655.011 433.197 655.011H48.8133C21.9386 655.011 0.152344 633.224 0.152344 606.35V49.4911Z" fill="#1C0606"/>
</mask>
<g mask="url(#mask1_130_8914)">
<line x1="1.46803" y1="-402.66" x2="1.46801" y2="742.489" stroke="white" stroke-width="2.63137"/>
<line x1="68.6648" y1="-402.663" x2="68.6648" y2="742.486" stroke="white" stroke-width="2.63137"/>
<line x1="135.856" y1="-402.663" x2="135.856" y2="742.486" stroke="white" stroke-width="2.63137"/>
<line x1="203.044" y1="-402.666" x2="203.044" y2="742.483" stroke="white" stroke-width="2.63137"/>
<line x1="270.235" y1="-402.666" x2="270.235" y2="742.483" stroke="white" stroke-width="2.63137"/>
<line x1="337.429" y1="-402.666" x2="337.429" y2="742.483" stroke="white" stroke-width="2.63137"/>
<line x1="404.623" y1="-402.666" x2="404.623" y2="742.483" stroke="white" stroke-width="2.63137"/>
<line x1="471.814" y1="-402.666" x2="471.814" y2="742.483" stroke="white" stroke-width="2.63137"/>
<line x1="539.008" y1="-402.666" x2="539.008" y2="742.483" stroke="white" stroke-width="2.63137"/>
<line x1="606.198" y1="-402.666" x2="606.198" y2="742.483" stroke="white" stroke-width="2.63137"/>
<line x1="673.389" y1="-402.666" x2="673.389" y2="742.483" stroke="white" stroke-width="2.63137"/>
<line x1="1142.77" y1="1.80104" x2="0.154907" y2="1.80097" stroke="white" stroke-width="2.63137"/>
<line x1="1142.77" y1="68.9954" x2="0.154907" y2="68.9953" stroke="white" stroke-width="2.63137"/>
<line x1="1142.77" y1="136.186" x2="0.154907" y2="136.186" stroke="white" stroke-width="2.63137"/>
<line x1="1142.77" y1="203.377" x2="0.154907" y2="203.377" stroke="white" stroke-width="2.63137"/>
<line x1="1142.77" y1="270.571" x2="0.154907" y2="270.57" stroke="white" stroke-width="2.63137"/>
<line x1="1142.77" y1="337.765" x2="0.154907" y2="337.765" stroke="white" stroke-width="2.63137"/>
<line x1="1142.77" y1="405.437" x2="0.154907" y2="405.437" stroke="white" stroke-width="2.63137"/>
<line x1="1142.77" y1="473.109" x2="0.154907" y2="473.109" stroke="white" stroke-width="2.63137"/>
<line x1="1142.77" y1="540.784" x2="0.154907" y2="540.784" stroke="white" stroke-width="2.63137"/>
<line x1="1142.77" y1="608.456" x2="0.154907" y2="608.456" stroke="white" stroke-width="2.63137"/>
</g>
</g>
</g>
</svg>
