<svg width="624" height="624" viewBox="0 0 624 624" fill="none" xmlns="http://www.w3.org/2000/svg">
<path d="M0 7.99998C0 3.5817 3.58172 0 8 0H616C620.418 0 624 3.58172 624 8V400C624 523.712 523.712 624 400 624H7.99998C3.5817 624 0 620.418 0 616V7.99998Z" fill="#02004F"/>
<mask id="mask0_5_2786" style="mask-type:alpha" maskUnits="userSpaceOnUse" x="0" y="0" width="624" height="624">
<path d="M0 7.99998C0 3.5817 3.58172 0 8 0H616C620.418 0 624 3.58172 624 8V400C624 523.712 523.712 624 400 624H7.99998C3.5817 624 0 620.418 0 616V7.99998Z" fill="#303030"/>
</mask>
<g mask="url(#mask0_5_2786)">
<g opacity="0.04">
<mask id="mask1_5_2786" style="mask-type:alpha" maskUnits="userSpaceOnUse" x="0" y="0" width="624" height="708">
<path d="M0 8.00002C0 3.58175 3.58172 0 8 0H615.581C620 0 623.581 3.58172 623.581 8V483.778C623.581 607.49 523.293 707.778 399.581 707.778H8C3.58173 707.778 0 704.197 0 699.778V8.00002Z" fill="#1C0606"/>
</mask>
<g mask="url(#mask1_5_2786)">
<line x1="1.23011" y1="-384.551" x2="1.23009" y2="706.85" stroke="white" stroke-width="2.46022"/>
<line x1="58.5455" y1="-384.554" x2="58.5455" y2="706.848" stroke="white" stroke-width="2.46022"/>
<line x1="115.855" y1="-384.554" x2="115.855" y2="706.848" stroke="white" stroke-width="2.46022"/>
<line x1="173.163" y1="-384.557" x2="173.163" y2="706.845" stroke="white" stroke-width="2.46022"/>
<line x1="230.473" y1="-384.557" x2="230.473" y2="706.845" stroke="white" stroke-width="2.46022"/>
<line x1="287.786" y1="-384.557" x2="287.786" y2="706.845" stroke="white" stroke-width="2.46022"/>
<line x1="345.098" y1="-384.557" x2="345.098" y2="706.845" stroke="white" stroke-width="2.46022"/>
<line x1="402.409" y1="-384.557" x2="402.409" y2="706.845" stroke="white" stroke-width="2.46022"/>
<line x1="459.721" y1="-384.557" x2="459.721" y2="706.845" stroke="white" stroke-width="2.46022"/>
<line x1="517.031" y1="-384.557" x2="517.031" y2="706.845" stroke="white" stroke-width="2.46022"/>
<line x1="574.341" y1="-384.557" x2="574.341" y2="706.845" stroke="white" stroke-width="2.46022"/>
<line x1="974.588" y1="0.891977" x2="0.00189194" y2="0.891915" stroke="white" stroke-width="2.46022"/>
<line x1="974.588" y1="64.9525" x2="0.00189194" y2="64.9525" stroke="white" stroke-width="2.46022"/>
<line x1="974.588" y1="128.988" x2="0.00189194" y2="128.988" stroke="white" stroke-width="2.46022"/>
<line x1="974.588" y1="193.023" x2="0.00189194" y2="193.023" stroke="white" stroke-width="2.46022"/>
<line x1="974.588" y1="257.062" x2="0.00189194" y2="257.062" stroke="white" stroke-width="2.46022"/>
<line x1="974.588" y1="321.1" x2="0.00189194" y2="321.1" stroke="white" stroke-width="2.46022"/>
<line x1="974.588" y1="385.599" x2="0.00189194" y2="385.598" stroke="white" stroke-width="2.46022"/>
<line x1="974.588" y1="450.098" x2="0.00189194" y2="450.098" stroke="white" stroke-width="2.46022"/>
<line x1="974.588" y1="514.577" x2="0.00189194" y2="514.577" stroke="white" stroke-width="2.46022"/>
<line x1="974.588" y1="579.078" x2="0.00189194" y2="579.078" stroke="white" stroke-width="2.46022"/>
</g>
</g>
</g>
<g opacity="0.08">
<path d="M150.964 34.1189C144.319 34.1189 138.303 36.9049 133.953 41.4079C129.604 36.9049 123.602 34.1189 116.975 34.1189C109.57 34.1189 102.952 37.6011 98.5433 43.0668C94.1356 37.5365 87.4883 33.999 80.0313 33.999C66.7621 33.999 56 45.1648 56 58.9376C56 72.7116 66.7621 83.8788 80.0313 83.8788C87.4345 83.8788 94.032 80.3911 98.4333 74.9268C102.842 80.4679 109.511 84 116.975 84C123.663 84 129.712 81.1573 134.068 76.5803C138.412 81.0146 144.375 83.7576 150.964 83.7576C164.238 83.7576 175 72.6457 175 58.9389C175 45.2294 164.238 34.1189 150.964 34.1189ZM79.8496 80.3171C68.8099 80.3171 59.8539 70.9126 59.8539 59.3092C59.8539 47.7125 68.8099 38.3081 79.8496 38.3081C86.4816 38.3081 92.3398 41.7176 95.9788 46.9369C94.0499 50.5282 92.941 54.6568 92.941 59.0574C92.941 63.5738 94.1151 67.798 96.1386 71.4513C92.5163 76.8093 86.5827 80.3171 79.8496 80.3171ZM116.792 80.4383C105.753 80.4383 96.7961 71.0338 96.7961 59.4291C96.7961 47.8324 105.752 38.4279 116.792 38.4279C122.445 38.4279 127.541 40.9029 131.179 44.8618C128.506 48.8625 126.932 53.7075 126.932 58.9376C126.932 64.4073 128.666 69.4489 131.568 73.5492C127.91 77.7721 122.654 80.4383 116.792 80.4383ZM150.964 67.0964C146.103 67.0964 142.161 63.2372 142.161 58.4824C142.161 53.7277 146.103 49.8697 150.964 49.8697C155.825 49.8697 159.771 53.7277 159.771 58.4824C159.77 63.2372 155.824 67.0964 150.964 67.0964Z" fill="white"/>
<path d="M151.01 51.7314C147.194 51.7314 144.095 54.7828 144.095 58.5411C144.095 62.3034 147.194 65.3574 151.01 65.3574C154.828 65.3574 157.918 62.3034 157.918 58.5411C157.918 54.7828 154.828 51.7314 151.01 51.7314ZM151.01 60.7818C149.609 60.7818 148.481 59.7247 148.481 58.4185C148.481 57.1164 149.609 56.0553 151.01 56.0553C152.408 56.0553 153.541 57.1164 153.541 58.4185C153.54 59.7247 152.408 60.7818 151.01 60.7818Z" fill="white"/>
<path d="M109.083 50.9229L109.044 59.0562L109.01 67.1881L116.976 63.1592L124.942 59.1302L117.012 55.0272L109.083 50.9229Z" fill="white"/>
<path d="M83.1737 63.9193L77.391 52.8047C78.5652 51.4595 78.8875 49.4504 78.0536 47.7456C77.2554 46.1217 75.6323 45.241 73.9912 45.3662L76.0608 49.5824L72.9642 51.271L70.9151 47.0952C69.9251 48.431 69.6936 50.292 70.4738 51.8823C71.295 53.5548 72.9949 54.4381 74.6858 54.2469L80.5874 65.5877C79.6025 66.9235 79.3749 68.7778 80.1538 70.364C80.9507 71.9893 82.5751 72.87 84.2149 72.7448L82.1454 68.5286L85.242 66.84L87.2911 71.0171C88.2811 69.6813 88.5126 67.819 87.7336 66.2273C86.8549 64.4418 84.9747 63.5531 83.1737 63.9193Z" fill="white"/>
</g>
</svg>
