<svg width="624" height="648" viewBox="0 0 624 648" fill="none" xmlns="http://www.w3.org/2000/svg">
<path d="M0 8C0 3.58172 3.58172 0 8 0H616C620.418 0 624 3.58172 624 8V424C624 547.712 523.712 648 400 648H7.99998C3.5817 648 0 644.418 0 640V8Z" fill="#02004F"/>
<mask id="mask0_5_2201" style="mask-type:alpha" maskUnits="userSpaceOnUse" x="0" y="0" width="624" height="648">
<path d="M0 8C0 3.58172 3.58172 0 8 0H616C620.418 0 624 3.58172 624 8V424C624 547.712 523.712 648 400 648H7.99998C3.5817 648 0 644.418 0 640V8Z" fill="#303030"/>
</mask>
<g mask="url(#mask0_5_2201)">
<g opacity="0.04">
<mask id="mask1_5_2201" style="mask-type:alpha" maskUnits="userSpaceOnUse" x="0" y="0" width="624" height="736">
<path d="M0 8C0 3.58172 3.58172 0 8 0H615.581C620 0 623.581 3.58172 623.581 8V511C623.581 634.712 523.293 735.001 399.581 735.001H8C3.58173 735.001 0 731.419 0 727.001V8Z" fill="#1C0606"/>
</mask>
<g mask="url(#mask1_5_2201)">
<line x1="1.23011" y1="-399.341" x2="1.23009" y2="734.037" stroke="white" stroke-width="2.46022"/>
<line x1="58.5455" y1="-399.344" x2="58.5455" y2="734.034" stroke="white" stroke-width="2.46022"/>
<line x1="115.855" y1="-399.344" x2="115.855" y2="734.034" stroke="white" stroke-width="2.46022"/>
<line x1="173.163" y1="-399.347" x2="173.163" y2="734.031" stroke="white" stroke-width="2.46022"/>
<line x1="230.473" y1="-399.347" x2="230.473" y2="734.031" stroke="white" stroke-width="2.46022"/>
<line x1="287.786" y1="-399.347" x2="287.786" y2="734.031" stroke="white" stroke-width="2.46022"/>
<line x1="345.098" y1="-399.347" x2="345.098" y2="734.031" stroke="white" stroke-width="2.46022"/>
<line x1="402.409" y1="-399.347" x2="402.409" y2="734.031" stroke="white" stroke-width="2.46022"/>
<line x1="459.721" y1="-399.347" x2="459.721" y2="734.031" stroke="white" stroke-width="2.46022"/>
<line x1="517.031" y1="-399.347" x2="517.031" y2="734.031" stroke="white" stroke-width="2.46022"/>
<line x1="574.341" y1="-399.347" x2="574.341" y2="734.031" stroke="white" stroke-width="2.46022"/>
<line x1="974.588" y1="0.879525" x2="0.00189195" y2="0.879461" stroke="white" stroke-width="2.46022"/>
<line x1="974.588" y1="67.4039" x2="0.00189195" y2="67.4039" stroke="white" stroke-width="2.46022"/>
<line x1="974.588" y1="133.902" x2="0.00189195" y2="133.902" stroke="white" stroke-width="2.46022"/>
<line x1="974.588" y1="200.4" x2="0.00189195" y2="200.4" stroke="white" stroke-width="2.46022"/>
<line x1="974.588" y1="266.902" x2="0.00189195" y2="266.902" stroke="white" stroke-width="2.46022"/>
<line x1="974.588" y1="333.403" x2="0.00189195" y2="333.403" stroke="white" stroke-width="2.46022"/>
<line x1="974.588" y1="400.382" x2="0.00189195" y2="400.382" stroke="white" stroke-width="2.46022"/>
<line x1="974.588" y1="467.363" x2="0.00189195" y2="467.363" stroke="white" stroke-width="2.46022"/>
<line x1="974.588" y1="534.322" x2="0.00189195" y2="534.322" stroke="white" stroke-width="2.46022"/>
<line x1="974.588" y1="601.303" x2="0.00189195" y2="601.303" stroke="white" stroke-width="2.46022"/>
</g>
</g>
</g>
<path d="M134.25 96.9824L117.339 88.9774C117.563 87.8422 117.39 86.6647 116.85 85.6408C116.31 84.6168 115.434 83.8081 114.369 83.349V58.4268C115.129 58.093 115.798 57.5805 116.316 56.9332C116.835 56.2859 117.189 55.5229 117.347 54.7097C117.506 53.8964 117.464 53.057 117.226 52.2631C116.989 51.4693 116.562 50.7446 115.982 50.1512C115.402 49.5577 114.686 49.113 113.897 48.8552C113.107 48.5973 112.266 48.534 111.446 48.6705C110.627 48.8071 109.852 49.1395 109.19 49.6393C108.527 50.1391 107.995 50.7915 107.64 51.5407H72.3389C71.9805 50.7886 71.4439 50.1347 70.7754 49.6355C70.1069 49.1364 69.3265 48.807 68.5017 48.6757C67.6768 48.5445 66.8324 48.6154 66.0412 48.8823C65.25 49.1492 64.5359 49.6041 63.9605 50.2077C63.3851 50.8113 62.9658 51.5454 62.7387 52.3467C62.5116 53.148 62.4836 53.9924 62.6571 54.8069C62.8306 55.6214 63.2004 56.3815 63.7345 57.0217C64.2687 57.6618 64.9511 58.1627 65.7229 58.4812V83.6082C64.9381 83.932 64.2458 84.4443 63.7076 85.0993C63.1694 85.7544 62.8021 86.532 62.6382 87.3628C62.4744 88.1936 62.5192 89.052 62.7686 89.8614C63.018 90.6708 63.4643 91.4061 64.0678 92.002C64.6712 92.5979 65.4131 93.0358 66.2274 93.2767C67.0417 93.5176 67.9031 93.5541 68.7349 93.3829C69.5667 93.2117 70.3432 92.8381 70.9952 92.2953C71.6471 91.7526 72.1544 91.0576 72.4718 90.2722H107.661C108.149 91.2974 108.968 92.1301 109.986 92.638C111.004 93.1458 112.163 93.2996 113.279 93.0747L118.602 110.445C118.715 110.812 118.941 111.135 119.247 111.368C119.554 111.601 119.926 111.732 120.311 111.743C120.329 111.745 120.347 111.745 120.365 111.745C120.742 111.745 121.109 111.63 121.418 111.415C121.727 111.201 121.963 110.897 122.093 110.545L125.166 102.259L133.839 100.439C134.216 100.36 134.559 100.165 134.819 99.8809C135.079 99.5972 135.243 99.2393 135.288 98.8578C135.333 98.4762 135.258 98.09 135.071 97.7536C134.885 97.4172 134.598 97.1475 134.25 96.9824ZM112.28 52.2751C112.57 52.2751 112.854 52.3609 113.095 52.5218C113.337 52.6826 113.525 52.9111 113.636 53.1786C113.747 53.446 113.776 53.7403 113.72 54.0242C113.663 54.3081 113.523 54.5688 113.318 54.7735C113.113 54.9782 112.851 55.1176 112.566 55.1741C112.281 55.2305 111.986 55.2015 111.718 55.0908C111.45 54.98 111.22 54.7924 111.059 54.5517C110.898 54.3111 110.812 54.0281 110.812 53.7386C110.812 53.3506 110.967 52.9787 111.242 52.7043C111.518 52.43 111.891 52.2756 112.28 52.2751ZM67.699 52.2751C67.9894 52.2751 68.2732 52.3609 68.5146 52.5218C68.7561 52.6826 68.9442 52.9111 69.0554 53.1786C69.1665 53.446 69.1956 53.7403 69.1389 54.0242C69.0823 54.3081 68.9424 54.5688 68.7371 54.7735C68.5318 54.9782 68.2702 55.1176 67.9854 55.1741C67.7006 55.2305 67.4054 55.2015 67.1372 55.0908C66.8689 54.98 66.6396 54.7924 66.4783 54.5517C66.317 54.3111 66.2309 54.0281 66.2309 53.7386C66.2314 53.3506 66.3863 52.9787 66.6615 52.7043C66.9367 52.43 67.3098 52.2756 67.699 52.2751ZM67.699 89.8144C67.4086 89.8143 67.1247 89.7284 66.8833 89.5676C66.6419 89.4067 66.4537 89.1781 66.3426 88.9106C66.2316 88.6431 66.2026 88.3488 66.2593 88.0649C66.316 87.781 66.456 87.5202 66.6614 87.3156C66.8668 87.1109 67.1285 86.9716 67.4133 86.9153C67.6982 86.8589 67.9934 86.8881 68.2616 86.999C68.5299 87.1099 68.7591 87.2976 68.9203 87.5384C69.0815 87.7792 69.1674 88.0622 69.1672 88.3517C69.1665 88.7396 69.0115 89.1113 68.7363 89.3854C68.4611 89.6595 68.088 89.8139 67.699 89.8144ZM107.357 86.5978H72.5241C72.2636 85.8889 71.8494 85.246 71.311 84.7149C70.7726 84.1839 70.1234 83.7778 69.4095 83.5255V58.5643C70.169 58.2953 70.8544 57.8521 71.4105 57.2705C71.9666 56.6889 72.3778 55.9851 72.611 55.2159H107.369C107.608 56.0037 108.034 56.7224 108.611 57.3113C109.188 57.9002 109.898 58.3419 110.683 58.5992V83.1773C109.892 83.4364 109.176 83.8831 108.597 84.4788C108.018 85.0746 107.592 85.8019 107.357 86.5978ZM110.812 88.0369C110.812 87.6491 110.967 87.2772 111.242 87.003C111.518 86.7288 111.891 86.5746 112.28 86.5741C112.622 86.5773 112.952 86.7008 113.211 86.9229C113.47 87.145 113.643 87.4513 113.698 87.7877C113.317 87.8929 112.978 88.114 112.729 88.4201C112.48 88.7263 112.334 89.1022 112.309 89.4955C112.299 89.4955 112.291 89.5013 112.28 89.5013C111.891 89.5008 111.518 89.3464 111.242 89.0718C110.967 88.7973 110.812 88.4251 110.812 88.0369ZM123.465 98.8614C123.135 98.9469 122.829 99.1064 122.571 99.3278C122.333 99.5312 122.152 99.7914 122.043 100.084L120.53 104.162L117.088 92.927L127.732 97.9666L123.465 98.8614Z" fill="white" fill-opacity="0.08"/>
<path d="M40 136.378H55.7744V40.1233H40V136.378ZM43.6857 43.7984H52.0877V50.9983H48.3282C47.8394 50.9983 47.3706 51.1918 47.0249 51.5364C46.6793 51.881 46.4851 52.3483 46.4851 52.8356C46.4851 53.3229 46.6793 53.7902 47.0249 54.1348C47.3706 54.4794 47.8394 54.673 48.3282 54.673H52.0882V68.9574H48.3282C47.8394 68.9574 47.3706 69.151 47.0249 69.4956C46.6793 69.8401 46.4851 70.3075 46.4851 70.7948C46.4851 71.2821 46.6793 71.7494 47.0249 72.094C47.3706 72.4385 47.8394 72.6321 48.3282 72.6321H52.0882V86.9159H48.3282C47.8394 86.9159 47.3706 87.1095 47.0249 87.4541C46.6793 87.7986 46.4851 88.266 46.4851 88.7533C46.4851 89.2406 46.6793 89.7079 47.0249 90.0525C47.3706 90.3971 47.8394 90.5906 48.3282 90.5906H52.0882V104.874H48.3282C47.8394 104.874 47.3706 105.068 47.0249 105.413C46.6793 105.757 46.4851 106.224 46.4851 106.712C46.4851 107.199 46.6793 107.666 47.0249 108.011C47.3706 108.356 47.8394 108.549 48.3282 108.549H52.0882V122.833H48.3282C48.0861 122.833 47.8465 122.88 47.6229 122.973C47.3992 123.065 47.1961 123.2 47.0249 123.371C46.8538 123.542 46.718 123.744 46.6254 123.967C46.5328 124.19 46.4851 124.429 46.4851 124.67C46.4851 124.912 46.5328 125.15 46.6254 125.373C46.718 125.596 46.8538 125.799 47.0249 125.969C47.1961 126.14 47.3992 126.275 47.6229 126.368C47.8465 126.46 48.0861 126.508 48.3282 126.508H52.0882V132.703H43.6857V43.7984Z" fill="white" fill-opacity="0.08"/>
<path d="M58.4736 25.2422V40.9674H158V25.2422H58.4736ZM154.315 37.2927H148.336V33.5449C148.336 33.0576 148.142 32.5903 147.796 32.2457C147.451 31.9011 146.982 31.7075 146.493 31.7075C146.004 31.7075 145.535 31.9011 145.19 32.2457C144.844 32.5903 144.65 33.0576 144.65 33.5449V37.2927H130.321V33.5449C130.321 33.0576 130.127 32.5903 129.781 32.2457C129.436 31.9011 128.967 31.7075 128.478 31.7075C127.989 31.7075 127.521 31.9011 127.175 32.2457C126.829 32.5903 126.635 33.0576 126.635 33.5449V37.2927H112.307V33.5449C112.307 33.0576 112.112 32.5903 111.767 32.2457C111.421 31.9011 110.952 31.7075 110.463 31.7075C109.975 31.7075 109.506 31.9011 109.16 32.2457C108.815 32.5903 108.62 33.0576 108.62 33.5449V37.2927H94.2918V33.5449C94.2918 33.3036 94.2442 33.0647 94.1515 32.8418C94.0589 32.6189 93.9231 32.4163 93.752 32.2457C93.5808 32.0751 93.3777 31.9397 93.154 31.8474C92.9304 31.7551 92.6908 31.7075 92.4487 31.7075C92.2067 31.7075 91.967 31.7551 91.7434 31.8474C91.5198 31.9397 91.3166 32.0751 91.1454 32.2457C90.9743 32.4163 90.8385 32.6189 90.7459 32.8418C90.6533 33.0647 90.6056 33.3036 90.6056 33.5449V37.2927H76.2771V33.5449C76.2771 33.0576 76.0829 32.5903 75.7372 32.2457C75.3916 31.9011 74.9228 31.7075 74.434 31.7075C73.9451 31.7075 73.4763 31.9011 73.1307 32.2457C72.785 32.5903 72.5909 33.0576 72.5909 33.5449V37.2927H62.1594V28.9169H154.315V37.2927Z" fill="white" fill-opacity="0.08"/>
</svg>
