<svg width="94" height="53" viewBox="0 0 94 53" fill="none" xmlns="http://www.w3.org/2000/svg">
<g id="Group 335">
<path id="Rectangle 163" d="M0.542969 0.947266H37.1152V19.1638C37.1152 29.3014 28.8971 37.5195 18.7595 37.5195H0.542969V0.947266Z" fill="#FF4167"/>
<g id="Group 226">
<path id="Vector" d="M74.787 15.6017C69.592 15.6017 64.889 17.6707 61.488 21.0147C58.088 17.6707 53.395 15.6017 48.214 15.6017C42.425 15.6017 37.251 18.1877 33.804 22.2467C30.358 18.1397 25.161 15.5127 19.331 15.5127C8.95697 15.5127 0.542969 23.8047 0.542969 34.0327C0.542969 44.2617 8.95697 52.5547 19.331 52.5547C25.119 52.5547 30.277 49.9647 33.718 45.9067C37.165 50.0217 42.379 52.6447 48.214 52.6447C53.443 52.6447 58.172 50.5337 61.578 47.1347C64.974 50.4277 69.636 52.4647 74.787 52.4647C85.165 52.4647 93.579 44.2127 93.579 34.0337C93.579 23.8527 85.165 15.6017 74.787 15.6017ZM19.189 49.9097C10.558 49.9097 3.55597 42.9257 3.55597 34.3087C3.55597 25.6967 10.558 18.7127 19.189 18.7127C24.374 18.7127 28.954 21.2447 31.799 25.1207C30.291 27.7877 29.424 30.8537 29.424 34.1217C29.424 37.4757 30.342 40.6127 31.924 43.3257C29.092 47.3047 24.453 49.9097 19.189 49.9097ZM48.071 49.9997C39.441 49.9997 32.438 43.0157 32.438 34.3977C32.438 25.7857 39.44 18.8017 48.071 18.8017C52.491 18.8017 56.475 20.6397 59.319 23.5797C57.229 26.5507 55.999 30.1487 55.999 34.0327C55.999 38.0947 57.354 41.8387 59.623 44.8837C56.763 48.0197 52.654 49.9997 48.071 49.9997ZM74.787 40.0917C70.987 40.0917 67.905 37.2257 67.905 33.6947C67.905 30.1637 70.987 27.2987 74.787 27.2987C78.588 27.2987 81.673 30.1637 81.673 33.6947C81.672 37.2257 78.587 40.0917 74.787 40.0917Z" fill="white"/>
<path id="Vector_2" d="M74.823 28.6807C71.84 28.6807 69.417 30.9467 69.417 33.7377C69.417 36.5317 71.84 38.7997 74.823 38.7997C77.808 38.7997 80.224 36.5317 80.224 33.7377C80.224 30.9467 77.808 28.6807 74.823 28.6807ZM74.823 35.4017C73.728 35.4017 72.846 34.6167 72.846 33.6467C72.846 32.6797 73.728 31.8917 74.823 31.8917C75.916 31.8917 76.802 32.6797 76.802 33.6467C76.801 34.6167 75.916 35.4017 74.823 35.4017Z" fill="white"/>
<path id="Vector_3" d="M42.0438 28.083L42.0138 34.123L41.9868 40.162L48.2148 37.17L54.4428 34.178L48.2428 31.131L42.0438 28.083Z" fill="white"/>
<path id="Vector_4" d="M21.7877 37.735L17.2667 29.481C18.1847 28.482 18.4367 26.99 17.7847 25.724C17.1607 24.518 15.8917 23.864 14.6087 23.957L16.2267 27.088L13.8057 28.342L12.2037 25.241C11.4297 26.233 11.2487 27.615 11.8587 28.796C12.5007 30.038 13.8297 30.694 15.1517 30.552L19.7657 38.974C18.9957 39.966 18.8177 41.343 19.4267 42.521C20.0497 43.728 21.3197 44.382 22.6017 44.289L20.9837 41.158L23.4047 39.904L25.0067 43.006C25.7807 42.014 25.9617 40.631 25.3527 39.449C24.6657 38.123 23.1957 37.463 21.7877 37.735Z" fill="white"/>
</g>
</g>
</svg>
