<svg width="476" height="219" viewBox="0 0 476 219" fill="none" xmlns="http://www.w3.org/2000/svg">
<g opacity="0.06">
<path d="M415.765 0.524944C386.673 0.524944 360.336 12.7227 341.291 32.4373C322.251 12.7227 295.97 0.524944 266.957 0.524944C234.538 0.524944 205.564 15.7707 186.261 39.7005C166.964 15.4877 137.86 0.000244141 105.212 0.000244141C47.1183 0.000244141 0 48.8857 0 109.185C0 169.49 47.1183 218.381 105.212 218.381C137.625 218.381 166.51 203.112 185.779 179.188C205.083 203.448 234.281 218.912 266.957 218.912C296.239 218.912 322.721 206.467 341.795 186.428C360.812 205.842 386.92 217.851 415.765 217.851C473.882 217.851 521 169.201 521 109.191C521 49.1687 473.882 0.524944 415.765 0.524944ZM104.417 202.788C56.0838 202.788 16.8727 161.614 16.8727 110.812C16.8727 60.04 56.0838 18.8658 104.417 18.8658C133.453 18.8658 159.101 33.7932 175.033 56.6442C166.588 72.3675 161.733 90.4431 161.733 109.71C161.733 129.483 166.874 147.977 175.733 163.972C159.874 187.43 133.896 202.788 104.417 202.788ZM266.156 203.318C217.828 203.318 178.611 162.144 178.611 111.337C178.611 60.5647 217.823 19.3905 266.156 19.3905C290.908 19.3905 313.218 30.2265 329.145 47.5592C317.441 65.0748 310.553 86.2868 310.553 109.185C310.553 133.132 318.141 155.205 330.847 173.157C314.831 191.645 291.821 203.318 266.156 203.318ZM415.765 144.906C394.485 144.906 377.226 128.009 377.226 107.192C377.226 86.3752 394.485 69.4846 415.765 69.4846C437.051 69.4846 454.327 86.3752 454.327 107.192C454.321 128.009 437.045 144.906 415.765 144.906Z" fill="white"/>
<path d="M415.968 77.635C399.263 77.635 385.694 90.9942 385.694 107.449C385.694 123.921 399.263 137.292 415.968 137.292C432.684 137.292 446.213 123.921 446.213 107.449C446.213 90.9942 432.684 77.635 415.968 77.635ZM415.968 117.259C409.836 117.259 404.897 112.631 404.897 106.912C404.897 101.211 409.836 96.5655 415.968 96.5655C422.089 96.5655 427.05 101.211 427.05 106.912C427.045 112.631 422.089 117.259 415.968 117.259Z" fill="white"/>
<path d="M232.404 74.095L232.236 109.704L232.085 145.307L266.962 127.667L301.838 110.028L267.118 92.0644L232.404 74.095Z" fill="white"/>
<path d="M118.971 130.996L93.6531 82.3345C98.7939 76.4449 100.205 67.6488 96.5539 60.1851C93.0595 53.0752 85.9531 49.2195 78.7683 49.7678L87.8291 68.2266L74.2716 75.6195L65.3004 57.3376C60.966 63.1859 59.9524 71.3335 63.3684 78.2961C66.9636 85.6183 74.406 89.4857 81.8091 88.6486L107.647 138.3C103.335 144.149 102.339 152.267 105.749 159.212C109.238 166.328 116.35 170.183 123.529 169.635L114.468 151.176L128.026 143.783L136.997 162.071C141.331 156.223 142.345 148.069 138.935 141.101C135.087 133.283 126.855 129.392 118.971 130.996Z" fill="white"/>
</g>
</svg>
