<svg width="372" height="376" viewBox="0 0 372 376" fill="none" xmlns="http://www.w3.org/2000/svg">
<path d="M321.887 241.299L264.132 213.928C264.897 210.047 264.308 206.021 262.462 202.519C260.617 199.018 257.626 196.253 253.988 194.683V109.468C256.586 108.327 258.868 106.574 260.639 104.361C262.411 102.148 263.619 99.539 264.16 96.7582C264.701 93.9775 264.56 91.1072 263.748 88.3929C262.936 85.6785 261.477 83.2008 259.497 81.1716C257.516 79.1423 255.073 77.6219 252.376 76.7402C249.678 75.8586 246.807 75.6419 244.008 76.1088C241.208 76.5758 238.564 77.7123 236.3 79.4214C234.036 81.1304 232.221 83.3611 231.009 85.9228H110.446C109.222 83.351 107.389 81.1152 105.106 79.4085C102.823 77.7018 100.158 76.5754 97.3407 76.1267C94.5238 75.678 91.6397 75.9204 88.9376 76.833C86.2355 77.7456 83.7966 79.301 81.8315 81.3649C79.8665 83.4287 78.4343 85.9389 77.6588 88.6788C76.8833 91.4186 76.7877 94.3056 77.3802 97.0906C77.9728 99.8756 79.2357 102.475 81.0599 104.664C82.884 106.852 85.2147 108.565 87.8505 109.654V195.57C85.1702 196.677 82.8058 198.428 80.9678 200.668C79.1298 202.908 77.8752 205.567 77.3157 208.408C76.7562 211.248 76.9092 214.183 77.761 216.951C78.6128 219.718 80.137 222.233 82.198 224.27C84.2589 226.308 86.7926 227.805 89.5736 228.629C92.3545 229.452 95.2964 229.577 98.1373 228.992C100.978 228.406 103.63 227.129 105.857 225.273C108.083 223.418 109.816 221.041 110.9 218.356H231.078C232.747 221.861 235.542 224.708 239.019 226.445C242.496 228.181 246.455 228.707 250.266 227.938L268.446 287.331C268.831 288.588 269.602 289.692 270.649 290.488C271.696 291.285 272.967 291.733 274.284 291.771C274.345 291.775 274.407 291.775 274.468 291.775C275.754 291.775 277.009 291.382 278.064 290.649C279.119 289.915 279.923 288.877 280.369 287.673L290.864 259.341L320.484 253.12C321.772 252.848 322.942 252.18 323.829 251.21C324.717 250.24 325.278 249.016 325.433 247.712C325.588 246.407 325.329 245.087 324.693 243.936C324.057 242.786 323.075 241.864 321.887 241.299ZM246.854 88.4339C247.846 88.4339 248.815 88.7273 249.64 89.2772C250.464 89.8271 251.107 90.6086 251.486 91.523C251.866 92.4374 251.965 93.4436 251.772 94.4143C251.578 95.385 251.101 96.2767 250.399 96.9765C249.698 97.6764 248.805 98.153 247.832 98.3461C246.86 98.5392 245.851 98.4401 244.935 98.0613C244.019 97.6826 243.236 97.0411 242.685 96.2182C242.134 95.3953 241.84 94.4278 241.84 93.438C241.842 92.1114 242.371 90.8396 243.311 89.9015C244.25 88.9634 245.525 88.4356 246.854 88.4339ZM94.5995 88.4339C95.5911 88.4339 96.5605 88.7273 97.3851 89.2772C98.2096 89.8271 98.8523 90.6086 99.2318 91.523C99.6113 92.4374 99.7106 93.4436 99.5171 94.4143C99.3236 95.385 98.8461 96.2767 98.1449 96.9765C97.4437 97.6764 96.5503 98.153 95.5777 98.3461C94.605 98.5392 93.5969 98.4401 92.6807 98.0613C91.7645 97.6826 90.9814 97.0411 90.4305 96.2182C89.8796 95.3953 89.5855 94.4278 89.5855 93.438C89.5873 92.1114 90.1161 90.8396 91.056 89.9015C91.9959 88.9634 93.2702 88.4356 94.5995 88.4339ZM94.5995 216.79C93.6077 216.79 92.6382 216.496 91.8137 215.946C90.9891 215.396 90.3465 214.614 89.9672 213.7C89.5879 212.785 89.4888 211.779 89.6826 210.808C89.8763 209.837 90.3542 208.946 91.0558 208.246C91.7573 207.546 92.651 207.07 93.6238 206.877C94.5967 206.685 95.6049 206.784 96.521 207.164C97.4371 207.543 98.2199 208.185 98.7705 209.008C99.321 209.831 99.6145 210.799 99.6139 211.789C99.6113 213.115 99.082 214.386 98.1421 215.323C97.2021 216.261 95.9282 216.789 94.5995 216.79ZM230.041 205.792H111.078C110.189 203.368 108.774 201.17 106.935 199.354C105.097 197.538 102.879 196.149 100.441 195.287V109.938C103.035 109.018 105.376 107.503 107.275 105.514C109.174 103.526 110.579 101.119 111.375 98.4893H230.082C230.899 101.183 232.354 103.64 234.324 105.654C236.294 107.667 238.72 109.178 241.399 110.058V194.096C238.698 194.982 236.254 196.509 234.276 198.547C232.297 200.584 230.844 203.07 230.041 205.792ZM241.84 210.713C241.842 209.386 242.371 208.115 243.311 207.177C244.251 206.24 245.525 205.712 246.854 205.711C248.022 205.722 249.148 206.144 250.034 206.903C250.92 207.663 251.509 208.71 251.696 209.861C250.395 210.22 249.239 210.976 248.389 212.023C247.539 213.07 247.037 214.355 246.954 215.7C246.919 215.7 246.891 215.719 246.855 215.719C245.525 215.718 244.25 215.19 243.31 214.251C242.37 213.313 241.841 212.04 241.84 210.713ZM285.052 247.724C283.926 248.016 282.882 248.562 281.999 249.319C281.189 250.014 280.57 250.904 280.198 251.904L275.031 265.847L263.274 227.433L299.627 244.665L285.052 247.724Z" fill="white" fill-opacity="0.06"/>
<path d="M0 376H53.8735V46.8813H0V376ZM12.5875 59.4474H41.2824V84.0656H28.4428C26.7734 84.0656 25.1723 84.7275 23.9918 85.9057C22.8113 87.0839 22.1481 88.6818 22.1481 90.348C22.1481 92.0142 22.8113 93.6121 23.9918 94.7903C25.1723 95.9685 26.7734 96.6304 28.4428 96.6304H41.2842V145.473H28.4428C26.7734 145.473 25.1723 146.134 23.9918 147.313C22.8113 148.491 22.1481 150.089 22.1481 151.755C22.1481 153.421 22.8113 155.019 23.9918 156.197C25.1723 157.375 26.7734 158.037 28.4428 158.037H41.2842V206.877H28.4428C26.7734 206.877 25.1723 207.539 23.9918 208.717C22.8113 209.895 22.1481 211.493 22.1481 213.16C22.1481 214.826 22.8113 216.424 23.9918 217.602C25.1723 218.78 26.7734 219.442 28.4428 219.442H41.2842V268.282H28.4428C26.7734 268.282 25.1723 268.944 23.9918 270.122C22.8113 271.3 22.1481 272.898 22.1481 274.564C22.1481 276.23 22.8113 277.828 23.9918 279.007C25.1723 280.185 26.7734 280.847 28.4428 280.847H41.2842V329.687H28.4428C27.6162 329.687 26.7976 329.849 26.0339 330.165C25.2702 330.48 24.5763 330.943 23.9918 331.527C23.4073 332.11 22.9436 332.803 22.6273 333.565C22.311 334.327 22.1481 335.144 22.1481 335.969C22.1481 336.794 22.311 337.611 22.6273 338.373C22.9436 339.135 23.4073 339.828 23.9918 340.411C24.5763 340.995 25.2702 341.457 26.0339 341.773C26.7976 342.089 27.6162 342.251 28.4428 342.251H41.2842V363.434H12.5875V59.4474Z" fill="white" fill-opacity="0.06"/>
<path d="M63.0918 -3.99976V49.7686H403V-3.99976H63.0918ZM390.413 37.2038H369.994V24.3893C369.994 22.7231 369.331 21.1252 368.15 19.947C366.97 18.7688 365.369 18.1069 363.699 18.1069C362.03 18.1069 360.429 18.7688 359.249 19.947C358.068 21.1252 357.405 22.7231 357.405 24.3893V37.2038H308.469V24.3893C308.469 22.7231 307.806 21.1252 306.626 19.947C305.445 18.7688 303.844 18.1069 302.175 18.1069C300.505 18.1069 298.904 18.7688 297.724 19.947C296.543 21.1252 295.88 22.7231 295.88 24.3893V37.2038H246.945V24.3893C246.945 22.7231 246.281 21.1252 245.101 19.947C243.92 18.7688 242.319 18.1069 240.65 18.1069C238.98 18.1069 237.379 18.7688 236.199 19.947C235.018 21.1252 234.355 22.7231 234.355 24.3893V37.2038H185.42V24.3893C185.42 23.5643 185.257 22.7474 184.941 21.9851C184.624 21.2229 184.161 20.5304 183.576 19.947C182.992 19.3636 182.298 18.9009 181.534 18.5851C180.77 18.2694 179.952 18.1069 179.125 18.1069C178.298 18.1069 177.48 18.2694 176.716 18.5851C175.953 18.9009 175.259 19.3636 174.674 19.947C174.09 20.5304 173.626 21.2229 173.31 21.9851C172.993 22.7474 172.83 23.5643 172.83 24.3893V37.2038H123.895V24.3893C123.895 22.7231 123.232 21.1252 122.051 19.947C120.871 18.7688 119.27 18.1069 117.6 18.1069C115.931 18.1069 114.33 18.7688 113.149 19.947C111.969 21.1252 111.306 22.7231 111.306 24.3893V37.2038H75.6798V8.56498H390.413V37.2038Z" fill="white" fill-opacity="0.06"/>
</svg>
