<svg width="81" height="86" viewBox="0 0 81 86" fill="none" xmlns="http://www.w3.org/2000/svg">
<g id="Group 332">
<path id="Rectangle 164" d="M0.542969 37.5317H37.1152V19.3152C37.1152 9.17763 28.8971 0.959473 18.7595 0.959473H0.542969V37.5317Z" fill="#FF4167"/>
<g id="Group 227">
<path id="Vector" d="M64.1857 59.2002L52.7664 53.7778C52.9176 53.0088 52.8011 52.2112 52.4363 51.5176C52.0714 50.8241 51.4801 50.2762 50.7607 49.9653V33.0835C51.2743 32.8574 51.7256 32.5102 52.0758 32.0717C52.426 31.6332 52.6649 31.1165 52.7719 30.5656C52.8789 30.0147 52.851 29.4461 52.6904 28.9083C52.5299 28.3706 52.2415 27.8798 51.8499 27.4777C51.4583 27.0757 50.9752 26.7745 50.4419 26.5999C49.9086 26.4252 49.3409 26.3823 48.7874 26.4748C48.2339 26.5673 47.711 26.7924 47.2634 27.131C46.8159 27.4696 46.457 27.9115 46.2174 28.419H22.3795C22.1375 27.9095 21.7752 27.4666 21.3237 27.1285C20.8723 26.7903 20.3453 26.5672 19.7883 26.4783C19.2314 26.3894 18.6611 26.4374 18.1269 26.6182C17.5926 26.799 17.1104 27.1072 16.7219 27.516C16.3333 27.9249 16.0502 28.4222 15.8968 28.965C15.7435 29.5078 15.7246 30.0797 15.8417 30.6314C15.9589 31.1831 16.2086 31.6981 16.5693 32.1317C16.93 32.5653 17.3908 32.9046 17.9119 33.1203V50.1408C17.382 50.3602 16.9145 50.7072 16.5511 51.1509C16.1877 51.5946 15.9396 52.1213 15.829 52.6841C15.7184 53.2469 15.7486 53.8283 15.917 54.3766C16.0855 54.9249 16.3868 55.423 16.7943 55.8266C17.2018 56.2303 17.7028 56.5269 18.2526 56.6901C18.8025 56.8533 19.3841 56.878 19.9459 56.762C20.5076 56.646 21.0319 56.393 21.4721 56.0253C21.9124 55.6577 22.2549 55.1869 22.4692 54.6549H46.231C46.5608 55.3493 47.1135 55.9134 47.801 56.2574C48.4885 56.6014 49.2713 56.7056 50.0248 56.5533L53.6193 68.3195C53.6956 68.5684 53.8479 68.7871 54.055 68.9449C54.262 69.1027 54.5133 69.1916 54.7736 69.1991C54.7857 69.1999 54.7979 69.1999 54.8101 69.1999C55.0643 69.1999 55.3124 69.122 55.521 68.9767C55.7296 68.8314 55.8887 68.6256 55.9768 68.3872L58.052 62.7744L63.9083 61.542C64.1629 61.4881 64.3943 61.3558 64.5698 61.1636C64.7453 60.9714 64.8562 60.729 64.8868 60.4706C64.9174 60.2121 64.8663 59.9505 64.7405 59.7227C64.6147 59.4948 64.4207 59.3121 64.1857 59.2002ZM49.3502 28.9165C49.5463 28.9165 49.7379 28.9746 49.901 29.0835C50.064 29.1925 50.191 29.3473 50.2661 29.5284C50.3411 29.7096 50.3608 29.9089 50.3225 30.1012C50.2842 30.2935 50.1898 30.4702 50.0512 30.6088C49.9125 30.7475 49.7359 30.8419 49.5436 30.8801C49.3513 30.9184 49.152 30.8988 48.9708 30.8237C48.7897 30.7487 48.6348 30.6216 48.5259 30.4586C48.417 30.2956 48.3588 30.1039 48.3588 29.9078C48.3592 29.645 48.4637 29.393 48.6496 29.2072C48.8354 29.0214 49.0874 28.9168 49.3502 28.9165ZM19.2463 28.9165C19.4424 28.9165 19.6341 28.9746 19.7971 29.0835C19.9601 29.1925 20.0872 29.3473 20.1622 29.5284C20.2373 29.7096 20.2569 29.9089 20.2187 30.1012C20.1804 30.2935 20.086 30.4702 19.9473 30.6088C19.8087 30.7475 19.6321 30.8419 19.4398 30.8801C19.2474 30.9184 19.0481 30.8988 18.867 30.8237C18.6858 30.7487 18.531 30.6216 18.4221 30.4586C18.3131 30.2956 18.255 30.1039 18.255 29.9078C18.2553 29.645 18.3599 29.393 18.5457 29.2072C18.7316 29.0214 18.9835 28.9168 19.2463 28.9165ZM19.2463 54.3448C19.0502 54.3447 18.8586 54.2866 18.6955 54.1776C18.5325 54.0686 18.4054 53.9138 18.3304 53.7326C18.2554 53.5514 18.2359 53.352 18.2742 53.1597C18.3125 52.9674 18.407 52.7907 18.5457 52.6521C18.6844 52.5135 18.8611 52.4192 19.0534 52.381C19.2458 52.3428 19.4451 52.3625 19.6263 52.4377C19.8074 52.5128 19.9622 52.64 20.071 52.8031C20.1799 52.9662 20.2379 53.1579 20.2378 53.354C20.2373 53.6167 20.1326 53.8685 19.9468 54.0542C19.7609 54.2399 19.5091 54.3445 19.2463 54.3448ZM46.0258 52.1659H22.5046C22.3286 51.6857 22.0489 51.2502 21.6854 50.8905C21.3218 50.5308 20.8834 50.2557 20.4014 50.0849V33.1766C20.9142 32.9944 21.3771 32.6942 21.7526 32.3002C22.1281 31.9062 22.4058 31.4295 22.5632 30.9085H46.034C46.1956 31.4421 46.4832 31.929 46.8727 32.3279C47.2622 32.7268 47.742 33.026 48.2716 33.2003V49.849C47.7376 50.0245 47.2543 50.327 46.8632 50.7306C46.472 51.1341 46.1847 51.6268 46.0258 52.1659ZM48.3588 53.1408C48.3593 52.878 48.4639 52.6262 48.6497 52.4404C48.8355 52.2547 49.0874 52.1502 49.3502 52.1499C49.5811 52.152 49.8038 52.2357 49.979 52.3861C50.1541 52.5366 50.2705 52.7441 50.3076 52.972C50.0504 53.0432 49.8218 53.193 49.6537 53.4003C49.4856 53.6077 49.3864 53.8623 49.37 54.1288C49.3631 54.1288 49.3575 54.1327 49.3504 54.1327C49.0875 54.1324 48.8354 54.0278 48.6495 53.8418C48.4636 53.6558 48.3591 53.4037 48.3588 53.1408ZM56.9028 60.473C56.6801 60.5309 56.4736 60.639 56.2992 60.789C56.139 60.9268 56.0164 61.103 55.9431 61.3011L54.9213 64.0634L52.5967 56.4532L59.7845 59.8669L56.9028 60.473Z" fill="#FF4167"/>
<path id="Vector_2" d="M0.542969 85.8859H11.1949V20.6851H0.542969V85.8859ZM3.03178 23.1745H8.70535V28.0515H6.16669C5.83661 28.0515 5.52004 28.1827 5.28664 28.4161C5.05323 28.6495 4.92211 28.966 4.92211 29.2961C4.92211 29.6262 5.05323 29.9428 5.28664 30.1762C5.52004 30.4096 5.83661 30.5407 6.16669 30.5407H8.7057V40.2167H6.16669C5.83661 40.2167 5.52004 40.3478 5.28664 40.5812C5.05323 40.8146 4.92211 41.1312 4.92211 41.4613C4.92211 41.7914 5.05323 42.1079 5.28664 42.3413C5.52004 42.5747 5.83661 42.7059 6.16669 42.7059H8.7057V52.3814H6.16669C5.83661 52.3814 5.52004 52.5125 5.28664 52.7459C5.05323 52.9793 4.92211 53.2959 4.92211 53.626C4.92211 53.9561 5.05323 54.2726 5.28664 54.506C5.52004 54.7395 5.83661 54.8706 6.16669 54.8706H8.7057V64.5461H6.16669C5.83661 64.5461 5.52004 64.6772 5.28664 64.9107C5.05323 65.1441 4.92211 65.4606 4.92211 65.7907C4.92211 66.1208 5.05323 66.4374 5.28664 66.6708C5.52004 66.9042 5.83661 67.0353 6.16669 67.0353H8.7057V76.7108H6.16669C6.00325 76.7108 5.84141 76.743 5.69041 76.8056C5.53941 76.8681 5.40221 76.9598 5.28664 77.0754C5.17107 77.1909 5.07939 77.3281 5.01685 77.4791C4.9543 77.6301 4.92211 77.792 4.92211 77.9554C4.92211 78.1189 4.9543 78.2807 5.01685 78.4317C5.07939 78.5827 5.17107 78.7199 5.28664 78.8355C5.40221 78.951 5.53941 79.0427 5.69041 79.1053C5.84141 79.1678 6.00325 79.2 6.16669 79.2H8.7057V83.3964H3.03178V23.1745Z" fill="white"/>
<path id="Vector_3" d="M13.0171 10.6055V21.2574H80.2239V10.6055H13.0171ZM77.7351 18.7682H73.698V16.2295C73.698 15.8995 73.5668 15.5829 73.3334 15.3495C73.1 15.1161 72.7835 14.985 72.4534 14.985C72.1233 14.985 71.8067 15.1161 71.5733 15.3495C71.3399 15.5829 71.2088 15.8995 71.2088 16.2295V18.7682H61.5333V16.2295C61.5333 15.8995 61.4021 15.5829 61.1687 15.3495C60.9353 15.1161 60.6188 14.985 60.2887 14.985C59.9586 14.985 59.642 15.1161 59.4086 15.3495C59.1752 15.5829 59.0441 15.8995 59.0441 16.2295V18.7682H49.3685V16.2295C49.3685 15.8995 49.2374 15.5829 49.004 15.3495C48.7706 15.1161 48.454 14.985 48.124 14.985C47.7939 14.985 47.4773 15.1161 47.2439 15.3495C47.0105 15.5829 46.8794 15.8995 46.8794 16.2295V18.7682H37.2038V16.2295C37.2038 16.0661 37.1716 15.9043 37.1091 15.7533C37.0465 15.6023 36.9549 15.4651 36.8393 15.3495C36.7237 15.2339 36.5865 15.1422 36.4355 15.0797C36.2845 15.0172 36.1227 14.985 35.9592 14.985C35.7958 14.985 35.634 15.0172 35.483 15.0797C35.332 15.1422 35.1948 15.2339 35.0792 15.3495C34.9636 15.4651 34.8719 15.6023 34.8094 15.7533C34.7469 15.9043 34.7147 16.0661 34.7147 16.2295V18.7682H25.0391V16.2295C25.0391 15.8995 24.908 15.5829 24.6746 15.3495C24.4412 15.1161 24.1246 14.985 23.7945 14.985C23.4644 14.985 23.1479 15.1161 22.9145 15.3495C22.6811 15.5829 22.5499 15.8995 22.5499 16.2295V18.7682H15.506V13.0946H77.7351V18.7682Z" fill="white"/>
</g>
</g>
</svg>
