<svg width="16" height="16" viewBox="0 0 16 16" fill="none" xmlns="http://www.w3.org/2000/svg">
<g clip-path="url(#clip0_1_4010)">
<path d="M14.9999 2.6507H12.9426C12.8107 2.65072 12.6819 2.68984 12.5723 2.76309C12.4627 2.83635 12.3772 2.94046 12.3268 3.06226C12.2763 3.18406 12.2631 3.31808 12.2888 3.44738C12.3146 3.57669 12.378 3.69546 12.4712 3.7887L13.1952 4.5127L10.8046 6.9027C10.6775 7.02409 10.5086 7.09184 10.3329 7.09184C10.1572 7.09184 9.98825 7.02409 9.86123 6.9027L9.7479 6.7887C9.36697 6.42474 8.86041 6.22164 8.33356 6.22164C7.80672 6.22164 7.30015 6.42474 6.91923 6.7887L3.51923 10.1887C3.39396 10.3143 3.32373 10.4846 3.32398 10.662C3.32423 10.8394 3.39494 11.0094 3.52057 11.1347C3.64619 11.26 3.81643 11.3302 3.99384 11.33C4.17125 11.3297 4.34129 11.259 4.46656 11.1334L7.86656 7.73336C7.99351 7.61181 8.16248 7.54396 8.33823 7.54396C8.51398 7.54396 8.68295 7.61181 8.8099 7.73336L8.92323 7.84736C9.30431 8.21101 9.81082 8.4139 10.3376 8.4139C10.8643 8.4139 11.3708 8.21101 11.7519 7.84736L14.1426 5.4567L14.8666 6.1807C14.9601 6.2724 15.0786 6.3345 15.2072 6.35926C15.3359 6.38402 15.469 6.37033 15.5899 6.31991C15.7108 6.26948 15.8141 6.18456 15.8871 6.07574C15.96 5.96692 15.9992 5.83902 15.9999 5.70803V3.6507C15.9999 3.38548 15.8945 3.13113 15.707 2.94359C15.5195 2.75605 15.2651 2.6507 14.9999 2.6507Z" fill="#E3E3FB"/>
<path d="M15.3333 14.6507H3.33333C2.8029 14.6507 2.29419 14.44 1.91912 14.0649C1.54405 13.6898 1.33333 13.1811 1.33333 12.6507V0.666667C1.33333 0.489856 1.2631 0.320286 1.13807 0.195262C1.01305 0.0702379 0.843478 0 0.666667 0C0.489856 0 0.320286 0.0702379 0.195262 0.195262C0.0702379 0.320286 0 0.489856 0 0.666667L0 12.6507C0.00105857 13.5344 0.352588 14.3816 0.97748 15.0065C1.60237 15.6314 2.4496 15.9829 3.33333 15.984H15.3333C15.5101 15.984 15.6797 15.9138 15.8047 15.7887C15.9298 15.6637 16 15.4941 16 15.3173C16 15.1405 15.9298 14.971 15.8047 14.8459C15.6797 14.7209 15.5101 14.6507 15.3333 14.6507Z" fill="#E3E3FB"/>
</g>
<defs>
<clipPath id="clip0_1_4010">
<rect width="16" height="16" fill="white"/>
</clipPath>
</defs>
</svg>
