<svg width="50" height="55" viewBox="0 0 50 55" fill="none" xmlns="http://www.w3.org/2000/svg">
<path d="M0.251953 0.189453H32.3004V19.6674C32.3004 26.6099 26.6724 32.2379 19.7299 32.2379H0.251953V0.189453Z" fill="#00C295"/>
<path d="M27.1294 13.2175L27.1264 13.2103L27.1225 13.2036L26.8218 12.6827C24.9838 9.49919 20.865 8.33781 17.6783 10.1777C14.7121 11.8902 13.5605 15.5469 14.93 18.6658C15.1306 19.1226 15.682 19.2586 16.0978 19.0185C16.5205 18.7745 16.647 18.2449 16.4758 17.8119C15.5908 15.574 16.4224 12.9277 18.5551 11.6964C20.9034 10.3406 23.9085 11.144 25.3031 13.5595L25.5662 14.0153C25.6511 14.1623 25.6276 14.3196 25.5323 14.4465C25.4351 14.5759 25.2671 14.6661 25.0817 14.6615L22.3077 14.5923C21.6065 14.5748 20.9544 14.9509 20.6184 15.5666L15.6509 24.6702C15.3384 25.2429 15.3467 25.9371 15.673 26.5021L30.7749 52.6595C31.2916 53.5544 32.4361 53.8611 33.331 53.3444L48.5376 44.5649C49.4326 44.0481 49.7392 42.9037 49.2225 42.0087L34.1173 15.8458C33.793 15.284 33.2008 14.9303 32.5524 14.911L29.0233 14.8062C28.2219 14.7824 27.5243 14.1682 27.2061 13.4007C27.1811 13.3402 27.1555 13.2791 27.1294 13.2175ZM26.9604 19.4928L26.9192 19.4675L26.919 19.4674L26.9192 19.4675L26.9604 19.4928C27.215 19.0786 27.4239 18.6413 27.5795 18.1924C27.8922 17.2905 28.6601 16.5428 29.5691 16.5747L31.7645 16.6515C32.3231 16.6711 32.8323 16.977 33.1118 17.4611L47.8277 42.9498L33.7564 51.0738C32.981 51.5215 31.9895 51.2558 31.5418 50.4804L17.608 26.3463C17.324 25.8543 17.3181 25.2496 17.5926 24.7523L21.7391 17.2401C22.0309 16.7115 22.5923 16.3888 23.196 16.4028L24.9731 16.444C25.2748 16.451 25.5415 16.5773 25.7068 16.7655C25.8695 16.951 25.9365 17.1981 25.8433 17.468C25.7602 17.7089 25.5727 17.8752 25.3236 17.9882C25.0731 18.1019 24.7699 18.1567 24.4788 18.1766C24.0946 18.203 23.7176 18.324 23.3667 18.5266C22.1349 19.2378 21.7017 20.8548 22.4128 22.0866C23.124 23.3183 24.741 23.7516 25.9728 23.0404C27.1935 22.3356 27.63 20.7412 26.9455 19.5137C26.9509 19.5071 26.9559 19.5002 26.9604 19.4928ZM25.3428 20.3949C25.5714 20.7909 25.4268 21.3307 25.0308 21.5593C24.6348 21.7879 24.0951 21.6433 23.8664 21.2473C23.6378 20.8513 23.7824 20.3116 24.1784 20.0829C24.5744 19.8543 25.1142 19.9989 25.3428 20.3949Z" fill="white" stroke="white" stroke-width="0.25"/>
<path d="M29.2309 28.6849C28.0589 29.3615 27.0749 30.3637 26.5393 31.5411L27.857 32.1694C28.31 31.3001 29.0712 30.5134 29.9828 29.9871C32.5872 28.4834 35.8737 29.364 37.3774 31.9685L39.3321 35.3542C40.8358 37.9587 39.9552 41.2452 37.3508 42.7488C34.7463 44.2525 31.4598 43.3719 29.9562 40.7675L28.0014 37.3817C27.212 36.0144 27.2341 34.6994 27.3791 33.7475L25.8862 33.5677C25.6137 35.2008 25.9097 36.7662 26.6992 38.1335L28.6539 41.5193C30.5711 44.8399 34.7819 45.9682 38.1026 44.0511C41.4233 42.1339 42.5516 37.9231 40.6344 34.6024L38.6796 31.2166C36.8 27.9611 32.5516 26.7677 29.2309 28.6849Z" fill="#00C295"/>
<path d="M32.4338 42.2014C33.7991 43.0626 35.6176 43.0545 37.05 42.2275C39.2638 40.9493 40.0343 38.0737 38.7562 35.8599L36.8014 32.4741C35.5233 30.2604 32.6476 29.4898 30.4339 30.7679C28.2201 32.0461 27.4495 34.9217 28.7277 37.1355L30.3817 40.0004L30.6824 40.5213L31.9847 39.7694L31.6839 39.2486L30.0299 36.3837C29.1653 34.8861 29.6881 32.9348 31.1857 32.0702C32.6832 31.2055 34.6346 31.7284 35.4992 33.226L37.454 36.6117C38.3186 38.1093 37.7957 40.0606 36.2982 40.9253C35.3215 41.4891 34.1092 41.4945 33.2023 40.9763L32.4338 42.2014Z" fill="#00C295"/>
<path d="M35.7409 34.9968L34.9138 33.5643C34.2372 32.3923 32.6966 31.9795 31.5246 32.6562C30.3526 33.3329 29.9399 34.8734 30.6165 36.0454L32.5713 39.4312C33.2479 40.6032 34.7885 41.0159 35.9605 40.3393C37.1325 39.6626 37.5453 38.1221 36.8686 36.9501L35.5664 37.7019C35.8295 38.1577 35.6644 38.7739 35.2086 39.0371C34.7529 39.3002 34.1366 39.1351 33.8735 38.6793L31.9187 35.2936C31.6556 34.8378 31.8207 34.2216 32.2765 33.9584C32.7323 33.6953 33.3485 33.8604 33.6116 34.3162L34.4762 35.8137L35.7784 35.0619L35.7409 34.9968Z" fill="#00C295"/>
<path d="M32.3167 20.796L20.5967 27.5625L21.3485 28.8647L33.0685 22.0982L32.3167 20.796Z" fill="white"/>
</svg>
