<svg width="87" height="59" viewBox="0 0 87 59" fill="none" xmlns="http://www.w3.org/2000/svg">
<g id="Group 316">
<g id="Group 153">
<path id="Rectangle 107" d="M0.20166 0.586914H32.2501V20.0648C32.2501 27.0074 26.6221 32.6354 19.6796 32.6354H0.20166V0.586914Z" fill="#09BCD4"/>
</g>
<g id="Group 168">
<path id="Vector" d="M52.7387 55.5693H46.1621V57.0389H52.7387V55.5693Z" fill="white"/>
<path id="Vector_2" d="M51.0691 43.2799C51.7994 43.7995 52.2396 44.6364 52.2396 45.5396C52.2396 47.0772 50.9888 48.3287 49.4512 48.3287C47.9136 48.3287 46.6621 47.0772 46.6621 45.5396C46.6621 44.6364 47.1022 43.8004 47.8325 43.2799V33.9937L39.165 47.7239L45.8105 54.3685H53.0911L59.7358 47.7239L51.0691 33.9937V43.2799Z" fill="#09BCD4"/>
<path id="Vector_3" d="M49.0317 32.271V43.6145C49.0317 43.8366 48.9088 44.0407 48.7129 44.1448C48.1875 44.4226 47.8613 44.957 47.8613 45.5398C47.8613 46.4159 48.5736 47.1282 49.4497 47.1282C50.3259 47.1282 51.0382 46.4159 51.0382 45.5398C51.0382 44.957 50.712 44.4226 50.1866 44.1448C49.9899 44.0407 49.8677 43.8366 49.8677 43.6145V32.271H49.0317Z" fill="white"/>
<path id="Vector_4" d="M61.2164 47.3553L51.8542 32.5209H71.6461C72.5019 32.5209 73.3305 32.6393 74.1171 32.86C73.766 34.1798 74.0949 35.6445 75.133 36.6826C76.3814 37.931 78.2486 38.1616 79.738 37.4007C80.4189 38.6805 80.8094 40.1362 80.8094 41.6826V44.0324C80.8094 44.5016 81.1902 44.8823 81.6594 44.8823C82.1286 44.8823 82.5093 44.5016 82.5093 44.0324V41.6826C82.5093 40.9013 82.4251 40.1397 82.2672 39.4056L84.5143 41.6528C84.68 41.8184 84.8975 41.9022 85.1157 41.9022C85.3339 41.9022 85.5514 41.8184 85.717 41.6528L85.7173 41.6525C86.0482 41.3205 86.0482 40.7821 85.7162 40.4501L81.2734 36.0073C82.2575 34.4725 82.0892 32.4119 80.7452 31.0687C79.4012 29.7248 77.3414 29.5573 75.8068 30.5407L71.3639 26.0978C71.0319 25.7658 70.4933 25.7658 70.1612 26.0978C69.8292 26.4299 69.8292 26.9684 70.1612 27.3005L73.9232 31.0625C73.1886 30.9044 72.4268 30.8202 71.6453 30.8202H25.6812C21.8592 30.8202 18.5842 28.4627 17.2127 25.1277C18.6336 24.5259 19.6382 23.131 19.6382 21.4872C19.6382 19.8884 18.6899 18.5203 17.3308 17.8919C18.7702 14.7122 21.9725 12.4952 25.682 12.4952H34.4814C34.9506 12.4952 35.3314 12.1145 35.3314 11.6453C35.3314 11.1761 34.9506 10.7953 34.4814 10.7953H25.6829C21.8314 10.7953 18.4487 12.813 16.5204 15.842V11.3387C16.5204 10.8695 16.1396 10.4888 15.6704 10.4888C15.2012 10.4888 14.8205 10.8695 14.8205 11.3387V17.6216C13.0385 18.0106 11.7002 19.5863 11.7002 21.4872C11.7002 23.3874 13.0386 24.963 14.8197 25.3527V31.6349C14.8197 32.1041 15.2004 32.4848 15.6696 32.4848C16.1388 32.4848 16.5196 32.1041 16.5196 31.6349V27.4742C18.4479 30.5031 21.8306 32.5201 25.682 32.5201H47.0451L37.6815 47.355C37.4688 47.6908 37.5177 48.1298 37.7999 48.4109L44.7102 55.3212V57.6397C44.7102 58.1089 45.091 58.4896 45.5602 58.4896H53.3375C53.8067 58.4896 54.1875 58.1089 54.1875 57.6397V55.3212L61.0982 48.4105C61.3793 48.1294 61.4277 47.6919 61.2168 47.3558L61.2164 47.3553ZM50.0696 44.3654L50.0699 44.3656C50.5148 44.6013 50.7885 45.0528 50.7885 45.5397C50.7885 46.2778 50.1882 46.8781 49.4501 46.8781C48.712 46.8781 48.1117 46.2778 48.1117 45.5397C48.1117 45.0518 48.3846 44.6013 48.8301 44.3657L48.8302 44.3656C49.1092 44.218 49.2821 43.9286 49.2821 43.6144V32.5209H49.6181V43.6144C49.6181 43.9281 49.792 44.2179 50.0696 44.3654ZM52.4884 56.7889H46.4118V55.8193H52.4884V56.7889ZM52.9864 54.1186H45.9129L39.482 47.6884L47.5805 34.8582V43.1545C46.8484 43.7239 46.4101 44.5976 46.4101 45.5397C46.4101 47.2153 47.7736 48.5788 49.4493 48.5788C51.125 48.5788 52.4876 47.2152 52.4876 45.5397C52.4876 44.5983 52.0493 43.7247 51.3172 43.1546V34.8582L59.4158 47.6884L52.9864 54.1186Z" fill="white" stroke="white" stroke-width="0.5"/>
</g>
</g>
</svg>
