<svg width="58" height="53" viewBox="0 0 58 53" fill="none" xmlns="http://www.w3.org/2000/svg">
<path d="M57.3311 32.2375H25.2826V12.7596C25.2826 5.81709 30.9106 0.18906 37.8531 0.18906H57.3311V32.2375Z" fill="#4E60FF"/>
<path d="M6.41068 15.2136C3.24716 15.2136 0.682617 18.0526 0.682617 21.5547V46.2517C0.682617 49.7538 3.24716 52.5928 6.41068 52.5928H43.1909C46.3544 52.5928 48.9189 49.7538 48.9189 46.2517V21.5547C48.9189 18.0526 46.3544 15.2136 43.1909 15.2136H6.41068ZM3.69739 21.5547C3.69739 19.8958 4.91217 18.5511 6.41068 18.5511H43.1909C44.6894 18.5511 45.9042 19.8958 45.9042 21.5547V46.2517C45.9042 47.9106 44.6894 49.2554 43.1909 49.2554H6.41068C4.91217 49.2554 3.69739 47.9106 3.69739 46.2517V21.5547Z" fill="white"/>
<circle cx="16.6146" cy="44.2931" r="2.48177" fill="#4E60FF"/>
<circle cx="24.8006" cy="44.2931" r="2.48177" fill="#4E60FF"/>
<circle cx="32.9871" cy="44.2931" r="2.48177" fill="#4E60FF"/>
</svg>
