<svg width="16" height="16" viewBox="0 0 16 16" fill="none" xmlns="http://www.w3.org/2000/svg">
<g clip-path="url(#clip0_1_4034)">
<path d="M12.6667 16H12C11.8232 16 11.6536 15.9298 11.5286 15.8047C11.4036 15.6797 11.3333 15.5101 11.3333 15.3333C11.3333 15.1565 11.4036 14.987 11.5286 14.8619C11.6536 14.7369 11.8232 14.6667 12 14.6667H12.6667C13.1971 14.6667 13.7058 14.456 14.0809 14.0809C14.456 13.7058 14.6667 13.1971 14.6667 12.6667V12C14.6667 11.8232 14.7369 11.6536 14.8619 11.5286C14.987 11.4036 15.1565 11.3333 15.3333 11.3333C15.5101 11.3333 15.6797 11.4036 15.8047 11.5286C15.9298 11.6536 16 11.8232 16 12V12.6667C15.9989 13.5504 15.6474 14.3976 15.0225 15.0225C14.3976 15.6474 13.5504 15.9989 12.6667 16ZM16 4V3.33333C15.9989 2.4496 15.6474 1.60237 15.0225 0.97748C14.3976 0.352588 13.5504 0.00105857 12.6667 0L12 0C11.8232 0 11.6536 0.0702379 11.5286 0.195262C11.4036 0.320286 11.3333 0.489856 11.3333 0.666667C11.3333 0.843478 11.4036 1.01305 11.5286 1.13807C11.6536 1.2631 11.8232 1.33333 12 1.33333H12.6667C13.1971 1.33333 13.7058 1.54405 14.0809 1.91912C14.456 2.29419 14.6667 2.8029 14.6667 3.33333V4C14.6667 4.17681 14.7369 4.34638 14.8619 4.4714C14.987 4.59643 15.1565 4.66667 15.3333 4.66667C15.5101 4.66667 15.6797 4.59643 15.8047 4.4714C15.9298 4.34638 16 4.17681 16 4ZM4.66667 15.3333C4.66667 15.1565 4.59643 14.987 4.4714 14.8619C4.34638 14.7369 4.17681 14.6667 4 14.6667H3.33333C2.8029 14.6667 2.29419 14.456 1.91912 14.0809C1.54405 13.7058 1.33333 13.1971 1.33333 12.6667V12C1.33333 11.8232 1.2631 11.6536 1.13807 11.5286C1.01305 11.4036 0.843478 11.3333 0.666667 11.3333C0.489856 11.3333 0.320286 11.4036 0.195262 11.5286C0.0702379 11.6536 0 11.8232 0 12L0 12.6667C0.00105857 13.5504 0.352588 14.3976 0.97748 15.0225C1.60237 15.6474 2.4496 15.9989 3.33333 16H4C4.17681 16 4.34638 15.9298 4.4714 15.8047C4.59643 15.6797 4.66667 15.5101 4.66667 15.3333ZM1.33333 4V3.33333C1.33333 2.8029 1.54405 2.29419 1.91912 1.91912C2.29419 1.54405 2.8029 1.33333 3.33333 1.33333H4C4.17681 1.33333 4.34638 1.2631 4.4714 1.13807C4.59643 1.01305 4.66667 0.843478 4.66667 0.666667C4.66667 0.489856 4.59643 0.320286 4.4714 0.195262C4.34638 0.0702379 4.17681 0 4 0L3.33333 0C2.4496 0.00105857 1.60237 0.352588 0.97748 0.97748C0.352588 1.60237 0.00105857 2.4496 0 3.33333L0 4C0 4.17681 0.0702379 4.34638 0.195262 4.4714C0.320286 4.59643 0.489856 4.66667 0.666667 4.66667C0.843478 4.66667 1.01305 4.59643 1.13807 4.4714C1.2631 4.34638 1.33333 4.17681 1.33333 4ZM10.6667 8C10.6667 7.47258 10.5103 6.95701 10.2173 6.51848C9.92424 6.07995 9.50776 5.73815 9.02049 5.53632C8.53322 5.33449 7.99704 5.28168 7.47976 5.38457C6.96248 5.48747 6.48732 5.74144 6.11438 6.11438C5.74144 6.48732 5.48747 6.96248 5.38457 7.47976C5.28168 7.99704 5.33449 8.53322 5.53632 9.02049C5.73815 9.50776 6.07995 9.92424 6.51848 10.2173C6.95701 10.5103 7.47258 10.6667 8 10.6667C8.70724 10.6667 9.38552 10.3857 9.88562 9.88562C10.3857 9.38552 10.6667 8.70724 10.6667 8ZM9.33333 8C9.33333 8.26371 9.25513 8.52149 9.10863 8.74076C8.96212 8.96003 8.75388 9.13092 8.51024 9.23184C8.26661 9.33276 7.99852 9.35916 7.73988 9.30771C7.48124 9.25627 7.24366 9.12928 7.05719 8.94281C6.87072 8.75634 6.74373 8.51876 6.69229 8.26012C6.64084 8.00148 6.66724 7.73339 6.76816 7.48976C6.86908 7.24612 7.03997 7.03788 7.25924 6.89137C7.47851 6.74487 7.73629 6.66667 8 6.66667C8.35362 6.66667 8.69276 6.80714 8.94281 7.05719C9.19286 7.30724 9.33333 7.64638 9.33333 8Z" fill="#E3E3FB"/>
</g>
<defs>
<clipPath id="clip0_1_4034">
<rect width="16" height="16" fill="white"/>
</clipPath>
</defs>
</svg>
