<svg width="48" height="65" viewBox="0 0 48 65" fill="none" xmlns="http://www.w3.org/2000/svg">
<g id="Group 318">
<path id="Rectangle 107" d="M0.327637 2.08105H32.3761V21.559C32.3761 28.5015 26.7481 34.1295 19.8056 34.1295H0.327637V2.08105Z" fill="#FF9A3C"/>
<g id="Group 167">
<circle id="Ellipse 21" cx="29.8455" cy="12.9886" r="11.0916" stroke="white" stroke-width="2"/>
<path id="Vector 46" d="M13.5185 48.3485C12.4806 40.2755 14.2336 24.1294 29.5493 24.1294C44.865 24.1294 47.0793 40.2755 46.272 48.3485" stroke="white" stroke-width="2"/>
<path id="Star 1" d="M28.7229 41.6542C29.0723 40.579 30.5934 40.579 30.9428 41.6542C31.6345 43.7832 33.6184 45.2246 35.8569 45.2246C36.9874 45.2246 37.4575 46.6713 36.5429 47.3358C34.7319 48.6515 33.9741 50.9838 34.6658 53.1127C35.0152 54.1879 33.7846 55.082 32.87 54.4175C31.059 53.1017 28.6067 53.1017 26.7957 54.4175C25.8811 55.082 24.6505 54.1879 24.9998 53.1127C25.6916 50.9838 24.9338 48.6515 23.1228 47.3358C22.2082 46.6713 22.6782 45.2246 23.8088 45.2246C26.0473 45.2246 28.0312 43.7832 28.7229 41.6542Z" stroke="#FF9A3C" stroke-width="4"/>
</g>
</g>
</svg>
