<svg width="16" height="16" viewBox="0 0 16 16" fill="none" xmlns="http://www.w3.org/2000/svg">
<g clip-path="url(#clip0_1_4030)">
<path d="M15.494 0.290174C15.337 0.164123 15.1533 0.0755955 14.9569 0.031345C14.7605 -0.0129056 14.5566 -0.0117098 14.3607 0.0348411C13.7368 0.201798 13.1614 0.514189 12.6815 0.94642C12.2017 1.37865 11.8311 1.91842 11.6 2.52151C10.4265 2.19817 9.21708 2.02303 8.00003 2.00017C6.78297 2.02303 5.57357 2.19817 4.40003 2.52151C4.16876 1.91822 3.79782 1.37833 3.3176 0.946091C2.83739 0.513851 2.26157 0.201568 1.63736 0.0348411C1.44148 -0.0117601 1.23755 -0.0129811 1.04113 0.0312713C0.844707 0.0755237 0.660997 0.164079 0.504027 0.290174C0.346409 0.415379 0.219186 0.574647 0.131899 0.756033C0.0446125 0.937418 -0.000471987 1.13621 2.72887e-05 1.33751V6.57218C-0.00260962 7.53558 0.185881 8.48995 0.554588 9.38002C0.923294 10.2701 1.46489 11.0782 2.14803 11.7575L5.25269 14.8622C5.98424 15.5853 6.9714 15.9909 8.00003 15.9909C9.02866 15.9909 10.0158 15.5853 10.7474 14.8622L13.852 11.7575C14.535 11.0781 15.0766 10.27 15.4453 9.37993C15.814 8.48988 16.0025 7.53556 16 6.57218V1.33751C16.0006 1.136 15.9553 0.937003 15.8677 0.755561C15.78 0.574119 15.6522 0.41498 15.494 0.290174ZM3.36736 3.54417C3.42321 3.71184 3.54333 3.85047 3.70135 3.9296C3.85936 4.00873 4.04232 4.02188 4.21003 3.96617C5.43813 3.58147 6.71356 3.36856 8.00003 3.33351C9.28649 3.36864 10.5619 3.58155 11.79 3.96617C11.9576 4.02168 12.1404 4.00842 12.2983 3.9293C12.4562 3.85019 12.5762 3.71168 12.632 3.54417C13.0434 2.31151 13.746 1.54751 14.6667 1.33751V5.44884C13.048 5.82151 8.66669 7.32284 8.66669 12.6668V12.7895C8.23665 12.6295 7.76341 12.6295 7.33336 12.7895V12.6668C7.33336 7.32351 2.95269 5.82151 1.33336 5.44884V1.33351C2.25403 1.54751 2.95669 2.31217 3.36736 3.54417ZM3.09069 10.8148C2.0235 9.75055 1.39977 8.32105 1.34536 6.81484C1.79972 6.93443 2.24205 7.09579 2.66669 7.29684V7.33351C2.78647 7.88547 3.08815 8.38122 3.52336 8.74123C3.95856 9.10124 4.50206 9.30465 5.06669 9.31884C5.70684 10.3158 6.03206 11.4825 6.00003 12.6668V13.7242L3.09069 10.8148ZM12.9094 10.8148L10 13.7242V12.6668C9.96799 11.4825 10.2932 10.3158 10.9334 9.31884C11.4979 9.30442 12.0413 9.10092 12.4765 8.74095C12.9116 8.38097 13.2134 7.88536 13.3334 7.33351V7.29684C13.758 7.09601 14.2004 6.93488 14.6547 6.81551C14.6001 8.32148 13.9764 9.75071 12.9094 10.8148Z" fill="#E3E3FB"/>
</g>
<defs>
<clipPath id="clip0_1_4030">
<rect width="16" height="16" fill="white"/>
</clipPath>
</defs>
</svg>
