<svg width="16" height="16" viewBox="0 0 16 16" fill="none" xmlns="http://www.w3.org/2000/svg">
<g clip-path="url(#clip0_1_4026)">
<path d="M12.6667 3.33323H10.6667V2.66656C10.6667 2.13613 10.456 1.62742 10.0809 1.25235C9.70581 0.877279 9.1971 0.666565 8.66667 0.666565H7.33333C6.8029 0.666565 6.29419 0.877279 5.91912 1.25235C5.54405 1.62742 5.33333 2.13613 5.33333 2.66656V3.33323H3.33333C2.4496 3.33429 1.60237 3.68582 0.97748 4.31071C0.352588 4.9356 0.00105857 5.78284 0 6.66656L0 11.9999C0.00105857 12.8836 0.352588 13.7309 0.97748 14.3558C1.60237 14.9806 2.4496 15.3322 3.33333 15.3332H12.6667C13.5504 15.3322 14.3976 14.9806 15.0225 14.3558C15.6474 13.7309 15.9989 12.8836 16 11.9999V6.66656C15.9989 5.78284 15.6474 4.9356 15.0225 4.31071C14.3976 3.68582 13.5504 3.33429 12.6667 3.33323ZM6.66667 2.66656C6.66667 2.48975 6.73691 2.32018 6.86193 2.19516C6.98695 2.07014 7.15652 1.9999 7.33333 1.9999H8.66667C8.84348 1.9999 9.01305 2.07014 9.13807 2.19516C9.2631 2.32018 9.33333 2.48975 9.33333 2.66656V3.33323H6.66667V2.66656ZM14.6667 11.9999C14.6667 12.5303 14.456 13.039 14.0809 13.4141C13.7058 13.7892 13.1971 13.9999 12.6667 13.9999H3.33333C2.8029 13.9999 2.29419 13.7892 1.91912 13.4141C1.54405 13.039 1.33333 12.5303 1.33333 11.9999V6.66656C1.33333 6.13613 1.54405 5.62742 1.91912 5.25235C2.29419 4.87728 2.8029 4.66656 3.33333 4.66656H12.6667C13.1971 4.66656 13.7058 4.87728 14.0809 5.25235C14.456 5.62742 14.6667 6.13613 14.6667 6.66656V11.9999ZM10.6667 9.33323C10.6667 9.51004 10.5964 9.67961 10.4714 9.80464C10.3464 9.92966 10.1768 9.9999 10 9.9999H8.66667V11.3332C8.66667 11.51 8.59643 11.6796 8.47141 11.8046C8.34638 11.9297 8.17681 11.9999 8 11.9999C7.82319 11.9999 7.65362 11.9297 7.5286 11.8046C7.40357 11.6796 7.33333 11.51 7.33333 11.3332V9.9999H6C5.82319 9.9999 5.65362 9.92966 5.5286 9.80464C5.40357 9.67961 5.33333 9.51004 5.33333 9.33323C5.33333 9.15642 5.40357 8.98685 5.5286 8.86183C5.65362 8.7368 5.82319 8.66656 6 8.66656H7.33333V7.33323C7.33333 7.15642 7.40357 6.98685 7.5286 6.86183C7.65362 6.7368 7.82319 6.66656 8 6.66656C8.17681 6.66656 8.34638 6.7368 8.47141 6.86183C8.59643 6.98685 8.66667 7.15642 8.66667 7.33323V8.66656H10C10.1768 8.66656 10.3464 8.7368 10.4714 8.86183C10.5964 8.98685 10.6667 9.15642 10.6667 9.33323Z" fill="#E3E3FB"/>
</g>
<defs>
<clipPath id="clip0_1_4026">
<rect width="16" height="16" fill="white"/>
</clipPath>
</defs>
</svg>
