<svg width="50" height="58" viewBox="0 0 50 58" fill="none" xmlns="http://www.w3.org/2000/svg">
<g id="Group 322">
<g id="Group 152">
<path id="Rectangle 106" d="M49.8022 32.635H17.7538V13.1571C17.7538 6.21455 23.3818 0.586521 30.3243 0.586521H49.8022V32.635Z" fill="#F1909C"/>
</g>
<g id="Group">
<path id="Vector" d="M8.52442 51.5578C4.67384 51.5578 1.57459 48.4585 1.57459 44.6079C1.57459 40.7574 4.67384 37.6581 8.52442 37.6581H20.217C20.4518 39.1138 21.7197 40.1939 23.2224 40.1939C24.9129 40.1939 26.2277 38.8321 26.2277 37.1885C26.2277 35.545 24.8659 34.1362 23.2224 34.1362C21.7197 34.1362 20.4988 35.2163 20.264 36.672H8.52442C4.11034 36.672 0.541504 40.2408 0.541504 44.6549C0.541504 49.069 4.11034 52.6378 8.52442 52.6378C8.80617 52.6378 9.04096 52.403 9.04096 52.1213C9.04096 51.8395 8.80617 51.5578 8.52442 51.5578Z" fill="white"/>
<path id="Vector_2" d="M40.6441 46.3452C37.5918 46.3452 35.103 48.834 35.103 51.8863C35.103 54.9386 37.5918 57.4743 40.6441 57.4743C43.6964 57.4743 46.1852 54.9855 46.1852 51.8863C46.1852 48.787 43.7434 46.3452 40.6441 46.3452ZM43.3207 51.088L40.4093 54.1403C40.3154 54.2342 40.1745 54.3281 39.9867 54.3281C39.8458 54.3281 39.7049 54.2812 39.611 54.1873L38.0614 52.7315C37.8266 52.4968 37.8266 52.168 38.0614 51.9333C38.2962 51.6985 38.6249 51.6985 38.8597 51.9333L39.9867 53.0133L42.5224 50.3836C42.7572 50.1488 43.0859 50.1488 43.3207 50.3836C43.5086 50.5245 43.5555 50.8532 43.3207 51.088Z" fill="#F1909C"/>
<path id="Vector_3" d="M28.8105 25.4958C30.3132 25.4958 31.5811 24.3688 31.8159 22.9131H31.8628H36.23C36.23 22.9131 36.23 22.9131 36.2769 22.9131C40.0805 22.9131 43.2267 26.0593 43.2267 29.8629C43.2267 33.7135 40.0805 36.8127 36.2769 36.8127H31.5341L32.1915 36.1553C32.2855 36.0614 32.3324 35.9205 32.3324 35.7797C32.3324 35.6388 32.2855 35.5449 32.1915 35.404C32.0037 35.2162 31.675 35.2162 31.4402 35.404L29.8906 36.9536L29.8436 37.0006C29.7497 37.0945 29.7027 37.1884 29.7027 37.2823C29.7027 37.3762 29.7027 37.4702 29.8436 37.5641L29.8906 37.611L31.4402 39.1607C31.5341 39.2546 31.675 39.3015 31.8159 39.3015C31.9567 39.3015 32.0976 39.2546 32.1915 39.1607C32.2855 39.0667 32.3324 38.9259 32.3324 38.785C32.3324 38.6441 32.2855 38.5502 32.1915 38.4093L31.5811 37.8458H36.2769C40.691 37.8458 44.2598 34.277 44.2598 29.8629C44.2598 25.4958 40.691 21.9269 36.3239 21.88H36.2769H31.9098H31.8628C31.628 20.4712 30.3602 19.3442 28.9044 19.3442C27.2609 19.3442 25.8991 20.706 25.8991 22.3496C25.8052 24.087 27.167 25.4958 28.8105 25.4958Z" fill="white"/>
<path id="Vector_4" d="M5.51901 25.4959C7.02167 25.4959 8.28955 24.3689 8.52434 22.9131H21.0622L20.4048 23.5706C20.3109 23.6645 20.2639 23.8054 20.2639 23.9462C20.2639 24.0871 20.3109 24.181 20.4048 24.3219C20.4987 24.4158 20.6396 24.4628 20.7805 24.4628C20.9213 24.4628 21.0622 24.4158 21.1561 24.3219L22.7058 22.7723C22.7527 22.7253 22.7527 22.6784 22.7997 22.6314C22.8466 22.5375 22.8466 22.5375 22.8466 22.4436C22.8466 22.3966 22.8466 22.3027 22.7997 22.2557C22.7527 22.1618 22.7527 22.1618 22.7058 22.1149L21.1092 20.5652C20.9213 20.3774 20.5926 20.3774 20.3578 20.5652C20.2639 20.6591 20.217 20.8 20.217 20.9409C20.217 21.0818 20.2639 21.1757 20.3578 21.3166L21.0153 21.927H8.52434H8.47738C8.19563 20.5183 6.97471 19.4382 5.51901 19.4382C3.87546 19.4382 2.51367 20.8 2.51367 22.4436C2.51367 24.0871 3.82851 25.4959 5.51901 25.4959Z" fill="white"/>
<path id="Vector_5" d="M32.896 51.5109L31.3463 49.9612C31.1585 49.7734 30.8298 49.7734 30.595 49.9612C30.5011 50.0551 30.4541 50.196 30.4541 50.3369C30.4541 50.4778 30.5011 50.5717 30.595 50.7126L31.2055 51.323H18.2919C18.0102 49.9143 16.7893 48.8342 15.3335 48.8342C13.643 48.8342 12.2812 50.196 12.2812 51.8865C12.2812 53.577 13.643 54.8919 15.3335 54.8919C16.8362 54.8919 18.1041 53.7649 18.3389 52.3091H31.2994L30.642 52.9666C30.548 53.0605 30.5011 53.2014 30.5011 53.3422C30.5011 53.4831 30.548 53.577 30.642 53.7179C30.7359 53.8118 30.8768 53.8588 31.0176 53.8588C31.1585 53.8588 31.2994 53.8118 31.3933 53.7179L32.9429 52.1683C33.0368 52.0744 33.0838 51.9804 33.0838 51.8865C33.0838 51.6987 32.9899 51.6048 32.896 51.5109Z" fill="white"/>
</g>
</g>
</svg>
