<svg width="52" height="46" viewBox="0 0 52 46" fill="none" xmlns="http://www.w3.org/2000/svg">
<g id="Group 320">
<path id="Rectangle 105" d="M32.5293 0.115723H0.480808V19.5937C0.480808 26.5362 6.10883 32.1642 13.0514 32.1642H32.5293V0.115723Z" fill="#A94CFF"/>
<g id="Group">
<path id="Vector" d="M13.369 39.5949L13.369 39.5949C14.3083 40.5343 15.5824 41.062 16.9108 41.062H44.9827C46.3112 41.062 47.5852 40.5343 48.5246 39.5949C49.464 38.6555 49.9917 37.3815 49.9917 36.053V16.7536C49.9917 15.4251 49.464 14.1511 48.5246 13.2117C47.5852 12.2724 46.3112 11.7446 44.9827 11.7446H16.9108C15.5824 11.7446 14.3083 12.2724 13.369 13.2117C12.4296 14.1511 11.9019 15.4251 11.9019 16.7536V36.053C11.9019 37.3815 12.4296 38.6555 13.369 39.5949Z" stroke="white" stroke-width="3"/>
<g id="Vector_2">
<mask id="path-3-outside-1_155_22" maskUnits="userSpaceOnUse" x="21.8062" y="2.34937" width="19" height="13" fill="black">
<rect fill="white" x="21.8062" y="2.34937" width="19" height="13"/>
<path d="M24.8062 5.34937L30.9469 11.4901L37.0876 5.34937"/>
</mask>
<path d="M26.9275 3.22804C25.7559 2.05647 23.8564 2.05647 22.6848 3.22804C21.5133 4.39962 21.5133 6.29911 22.6848 7.47069L26.9275 3.22804ZM30.9469 11.4901L28.8256 13.6114C29.9971 14.783 31.8966 14.783 33.0682 13.6114L30.9469 11.4901ZM39.2089 7.47069C40.3805 6.29911 40.3805 4.39962 39.2089 3.22804C38.0373 2.05647 36.1378 2.05647 34.9663 3.22804L39.2089 7.47069ZM22.6848 7.47069L28.8256 13.6114L33.0682 9.36877L26.9275 3.22804L22.6848 7.47069ZM33.0682 13.6114L39.2089 7.47069L34.9663 3.22804L28.8256 9.36877L33.0682 13.6114Z" fill="white" mask="url(#path-3-outside-1_155_22)"/>
</g>
</g>
<circle id="Ellipse 17" cx="30.9465" cy="41.8308" r="3.94459" fill="#A94CFF"/>
</g>
</svg>
