<svg width="45" height="47" viewBox="0 0 45 47" fill="none" xmlns="http://www.w3.org/2000/svg">
<g id="Group 323">
<path id="Rectangle 104" d="M11.8809 0.115723H44.3007V19.8194C44.3007 26.8423 38.6075 32.5356 31.5845 32.5356H11.8809V0.115723Z" fill="#FFD800"/>
<path id="Shape" d="M4.06564 10.4472V4.97505C4.06564 2.45797 6.10613 0.41748 8.62321 0.41748H20.0171C22.5342 0.41748 24.5747 2.45797 24.5747 4.97505V10.4472C26.6181 11.6292 27.9929 13.8386 27.9929 16.369V18.6478C29.2514 18.6478 30.2717 19.668 30.2717 20.9265V23.2053C30.2717 24.4639 29.2514 25.4841 27.9929 25.4841V30.0417C27.9929 32.5721 26.6181 34.7814 24.5747 35.9634L24.5747 41.4356C24.5747 43.9527 22.5342 45.9932 20.0171 45.9932H8.62321C6.10613 45.9932 4.06564 43.9527 4.06564 41.4356L4.06564 35.9634C2.02225 34.7814 0.647461 32.5721 0.647461 30.0417V16.369C0.647461 13.8386 2.02225 11.6292 4.06564 10.4472ZM8.62321 3.83566C7.99394 3.83566 7.48381 4.34578 7.48381 4.97505V9.53262H21.1565V4.97505C21.1565 4.34578 20.6464 3.83566 20.0171 3.83566H8.62321ZM24.5747 30.0417V16.369C24.5747 14.4812 23.0443 12.9508 21.1565 12.9508H7.48381C5.59601 12.9508 4.06564 14.4812 4.06564 16.369V30.0417C4.06564 31.9295 5.59601 33.4599 7.48381 33.4599H21.1565C23.0443 33.4599 24.5747 31.9295 24.5747 30.0417ZM7.48381 41.4356C7.48381 42.0649 7.99394 42.575 8.62321 42.575H20.0171C20.6464 42.575 21.1565 42.0649 21.1565 41.4356V36.878H7.48381L7.48381 41.4356Z" fill="white"/>
<path id="Vector 45" d="M5.85791 34.6626V41.4615C5.85791 43.1183 7.20106 44.4615 8.85791 44.4615H19.9785C21.6353 44.4615 22.9785 43.1183 22.9785 41.4615V35.6976" stroke="#FFD800" stroke-width="4"/>
</g>
</svg>
