<svg width="62" height="53" viewBox="0 0 62 53" fill="none" xmlns="http://www.w3.org/2000/svg">
<path d="M62.0068 32.1641H29.9583V12.6861C29.9583 5.74361 35.5864 0.115574 42.5289 0.115574H62.0068V32.1641Z" fill="#CCCCCC"/>
<path d="M6.41068 15.1404C3.24716 15.1404 0.682617 17.9794 0.682617 21.4815V46.1785C0.682617 49.6806 3.24716 52.5196 6.41068 52.5196H43.1909C46.3544 52.5196 48.9189 49.6806 48.9189 46.1785V21.4815C48.9189 17.9794 46.3544 15.1404 43.1909 15.1404H6.41068ZM3.69739 21.4815C3.69739 19.8226 4.91217 18.4778 6.41068 18.4778H43.1909C44.6894 18.4778 45.9042 19.8226 45.9042 21.4815V46.1785C45.9042 47.8373 44.6894 49.1821 43.1909 49.1821H6.41068C4.91217 49.1821 3.69739 47.8373 3.69739 46.1785V21.4815Z" fill="white"/>
<circle cx="8.97176" cy="25.0455" r="1.95662" fill="#CCCCCC"/>
<circle cx="15.4254" cy="25.0457" r="1.95662" fill="#CCCCCC"/>
<circle cx="21.88" cy="25.0457" r="1.95662" fill="#CCCCCC"/>
</svg>
