<svg width="49" height="48" viewBox="0 0 49 48" fill="none" xmlns="http://www.w3.org/2000/svg">
<path d="M42.4254 0.186961C42.3139 0.090334 42.1775 0.0280457 42.0321 0.00748315C41.8868 -0.0130794 41.7386 0.00894658 41.6053 0.0709489C41.4719 0.132951 41.3589 0.232329 41.2797 0.357296C41.2006 0.482263 41.1585 0.627578 41.1585 0.776007V2.32862H35.0174C34.9166 2.32856 34.8167 2.3486 34.7236 2.38759C34.6304 2.42659 34.5458 2.48377 34.4745 2.55586C34.4032 2.62796 34.3466 2.71356 34.3081 2.80778C34.2695 2.90199 34.2497 3.00296 34.2498 3.10492V7.76276C34.2497 7.86472 34.2695 7.9657 34.3081 8.05991C34.3466 8.15412 34.4032 8.23972 34.4745 8.31182C34.5458 8.38392 34.6304 8.4411 34.7236 8.48009C34.8167 8.51908 34.9166 8.53913 35.0174 8.53907H41.1585V10.0917C41.1584 10.2402 41.2004 10.3855 41.2796 10.5106C41.3587 10.6356 41.4717 10.735 41.6051 10.7971C41.7385 10.8591 41.8867 10.8811 42.0321 10.8605C42.1775 10.8398 42.314 10.7775 42.4254 10.6807L47.7988 6.0229C47.8829 5.95015 47.9505 5.85982 47.9968 5.75813C48.0432 5.65644 48.0672 5.54581 48.0672 5.43385C48.0672 5.32188 48.0432 5.21125 47.9968 5.10956C47.9505 5.00787 47.8829 4.91755 47.7988 4.8448L42.4254 0.186961ZM42.6937 8.40413V7.76276C42.6938 7.6608 42.674 7.55982 42.6354 7.46561C42.5969 7.3714 42.5403 7.2858 42.469 7.2137C42.3977 7.1416 42.3131 7.08442 42.2199 7.04543C42.1268 7.00644 42.0269 6.9864 41.9261 6.98645H35.785V3.88123H41.9261C42.0269 3.88129 42.1268 3.86125 42.2199 3.82226C42.3131 3.78327 42.3977 3.72609 42.469 3.65399C42.5403 3.58189 42.5969 3.49629 42.6354 3.40207C42.674 3.30786 42.6938 3.20689 42.6937 3.10492V2.46357L46.1203 5.43385L42.6937 8.40413Z" fill="#374957"/>
<path d="M5.64181 10.681C5.75322 10.7777 5.8897 10.8399 6.03506 10.8605C6.18042 10.8811 6.32856 10.859 6.46191 10.797C6.59527 10.735 6.70824 10.6356 6.78743 10.5107C6.86662 10.3857 6.90871 10.2403 6.9087 10.0919V8.53927H13.0498C13.1506 8.53932 13.2504 8.51928 13.3436 8.48029C13.4368 8.4413 13.5214 8.38412 13.5927 8.31202C13.664 8.23992 13.7205 8.15431 13.7591 8.0601C13.7976 7.96588 13.8175 7.86491 13.8174 7.76294V3.105C13.8175 3.00303 13.7976 2.90206 13.7591 2.80784C13.7205 2.71363 13.664 2.62802 13.5927 2.55592C13.5214 2.48382 13.4368 2.42664 13.3436 2.38765C13.2504 2.34866 13.1506 2.32861 13.0498 2.32867H6.9087V0.776025C6.9087 0.627593 6.86661 0.482275 6.78741 0.357304C6.70822 0.232334 6.59524 0.132954 6.46189 0.0709505C6.32854 0.00894679 6.1804 -0.0130797 6.03505 0.00748332C5.88969 0.0280463 5.75322 0.0903361 5.64181 0.186966L0.268372 4.84491C0.184217 4.91766 0.116649 5.00799 0.0703195 5.10968C0.0239902 5.21137 0 5.32201 0 5.43397C0 5.54594 0.0239902 5.65657 0.0703195 5.75826C0.116649 5.85995 0.184217 5.95028 0.268372 6.02304L5.64181 10.681ZM5.37344 2.46363V3.105C5.37338 3.20697 5.39319 3.30795 5.43175 3.40216C5.4703 3.49638 5.52685 3.58198 5.59814 3.65408C5.66943 3.72618 5.75408 3.78336 5.84724 3.82236C5.9404 3.86135 6.04025 3.88139 6.14107 3.88133H12.2821V6.98662H6.14107C6.04025 6.98657 5.9404 7.00661 5.84724 7.0456C5.75408 7.08459 5.66943 7.14178 5.59814 7.21388C5.52685 7.28597 5.47031 7.37158 5.43175 7.46579C5.39319 7.56001 5.37338 7.66098 5.37344 7.76295V8.40433L1.94682 5.43397L5.37344 2.46363Z" fill="#374957"/>
<path d="M24.2117 6.03778H22.6565C22.2442 6.03831 21.8489 6.20089 21.5574 6.48988C21.2658 6.77886 21.1018 7.17066 21.1013 7.57934V9.08015C20.3608 9.61283 19.7617 10.3156 19.3554 11.1282C18.9491 11.9408 18.7477 12.8389 18.7685 13.7456C18.771 14.0034 18.7897 14.2608 18.8244 14.5164H17.2133C16.801 14.5169 16.4057 14.6795 16.1142 14.9684C15.8226 15.2574 15.6586 15.6492 15.6581 16.0579V17.5995C15.6586 18.0082 15.8226 18.3999 16.1142 18.6889C16.4057 18.9779 16.801 19.1405 17.2133 19.141H18.4595C18.6402 20.1644 18.7435 21.1998 18.7685 22.2384C18.7864 26.8951 17.4054 31.4516 14.8013 35.3274H14.1029C13.0721 35.3286 12.0838 35.735 11.355 36.4575C10.6261 37.18 10.2161 38.1595 10.2148 39.1813V40.7228C10.2154 41.1315 10.3794 41.5233 10.6709 41.8123C10.9625 42.1013 11.3577 42.2639 11.77 42.2644H35.0981C35.5104 42.2639 35.9057 42.1013 36.1972 41.8123C36.4887 41.5233 36.6528 41.1315 36.6533 40.7228V39.1813C36.6521 38.1595 36.2421 37.18 35.5132 36.4575C34.7843 35.735 33.7961 35.3286 32.7653 35.3274H32.0668C29.4626 31.4511 28.0816 26.8941 28.0997 22.2369C28.1247 21.1988 28.2279 20.1639 28.4086 19.141H29.6549C30.0672 19.1405 30.4625 18.9779 30.754 18.6889C31.0455 18.3999 31.2096 18.0082 31.2101 17.5995V16.0579C31.2096 15.6492 31.0455 15.2574 30.754 14.9684C30.4625 14.6795 30.0672 14.5169 29.6549 14.5164H28.0438C28.0785 14.2608 28.0971 14.0034 28.0997 13.7456C28.1205 12.8389 27.9191 11.9408 27.5128 11.1282C27.1065 10.3156 26.5074 9.61283 25.7669 9.08015V7.57934C25.7663 7.17066 25.6023 6.77886 25.3108 6.48988C25.0192 6.20089 24.624 6.03831 24.2117 6.03778ZM22.6565 7.57934H24.2117V8.43132C23.699 8.32305 23.1691 8.32305 22.6565 8.43132V7.57934ZM32.7653 36.8689C33.3838 36.8696 33.9768 37.1135 34.4141 37.547C34.8514 37.9805 35.0974 38.5682 35.0981 39.1813L35.0997 40.7228H11.77V39.1813C11.7707 38.5682 12.0167 37.9805 12.4541 37.547C12.8914 37.1135 13.4844 36.8696 14.1029 36.8689H32.7653ZM28.6285 32.2443C29.0978 33.3045 29.6342 34.3342 30.2345 35.3274H16.6337C17.234 34.3342 17.7704 33.3045 18.2397 32.2443H28.6285ZM20.0521 19.141H26.8162C26.6541 20.1565 26.5633 21.1819 26.5445 22.2098C26.4997 25.1061 26.9959 27.9855 28.0082 30.7027H18.86C19.8722 27.986 20.3684 25.1071 20.3237 22.2113C20.3049 21.1829 20.2142 20.157 20.0521 19.141ZM29.6549 16.0564V17.5995H17.2133V16.0579L29.6549 16.0564ZM26.5445 13.7456C26.543 14.004 26.5197 14.2618 26.4748 14.5164H20.3934C20.3485 14.2618 20.3252 14.004 20.3237 13.7456C20.3237 11.6207 21.7186 9.89168 23.4341 9.89168C25.1495 9.89168 26.5445 11.6207 26.5445 13.7456Z" fill="#374957"/>
<path d="M34.8503 44.0762H4.80664V45.5856H34.8503V44.0762Z" fill="#374957"/>
<path d="M46.268 46.4907H0.601562V48.0002H46.268V46.4907Z" fill="#374957"/>
<path d="M38.1565 44.0762H36.6543V45.5856H38.1565V44.0762Z" fill="#374957"/>
<path d="M41.1584 44.0762H39.6562V45.5856H41.1584V44.0762Z" fill="#374957"/>
</svg>
