<svg width="52" height="49" viewBox="0 0 52 49" fill="none" xmlns="http://www.w3.org/2000/svg">
<path d="M41.0011 31.2083L33.6446 27.726C33.742 27.2321 33.667 26.7199 33.4319 26.2744C33.1969 25.829 32.816 25.4772 32.3525 25.2775V14.4359C32.6834 14.2906 32.9741 14.0677 33.1997 13.7861C33.4253 13.5045 33.5792 13.1726 33.6482 12.8188C33.7171 12.465 33.6991 12.0999 33.5957 11.7545C33.4922 11.4092 33.3064 11.0939 33.0542 10.8358C32.8019 10.5776 32.4907 10.3842 32.1471 10.272C31.8035 10.1598 31.4378 10.1323 31.0812 10.1917C30.7247 10.2511 30.3878 10.3957 30.0995 10.6131C29.8112 10.8305 29.5799 11.1143 29.4256 11.4403H14.0687C13.9128 11.1131 13.6794 10.8286 13.3885 10.6115C13.0977 10.3943 12.7582 10.251 12.3994 10.1939C12.0406 10.1368 11.6732 10.1677 11.3291 10.2838C10.9849 10.3999 10.6742 10.5978 10.4239 10.8604C10.1736 11.1229 9.99121 11.4423 9.89242 11.7909C9.79364 12.1395 9.78146 12.5068 9.85694 12.8611C9.93241 13.2154 10.0933 13.5461 10.3256 13.8246C10.558 14.1031 10.8549 14.321 11.1906 14.4595V25.3902C10.8492 25.5311 10.548 25.754 10.3139 26.0389C10.0798 26.3239 9.91999 26.6621 9.84872 27.0236C9.77745 27.385 9.79694 27.7584 9.90544 28.1105C10.0139 28.4626 10.2081 28.7825 10.4706 29.0417C10.7331 29.3009 11.0559 29.4914 11.4101 29.5962C11.7643 29.701 12.139 29.7169 12.5009 29.6424C12.8628 29.5679 13.2005 29.4054 13.4842 29.1693C13.7678 28.9332 13.9884 28.6309 14.1265 28.2892H29.4344C29.6468 28.7352 30.0029 29.0975 30.4458 29.3184C30.8887 29.5393 31.393 29.6062 31.8784 29.5084L34.1941 37.0648C34.2432 37.2246 34.3413 37.3651 34.4747 37.4664C34.6081 37.5677 34.77 37.6248 34.9377 37.6296C34.9455 37.6302 34.9533 37.6302 34.9612 37.6302C35.125 37.6302 35.2848 37.5801 35.4192 37.4868C35.5536 37.3935 35.6561 37.2614 35.7128 37.1082L37.0497 33.5036L40.8224 32.7122C40.9865 32.6776 41.1355 32.5926 41.2486 32.4692C41.3617 32.3458 41.4331 32.1901 41.4529 32.0241C41.4726 31.8581 41.4396 31.6901 41.3586 31.5438C41.2776 31.3974 41.1525 31.2801 41.0011 31.2083ZM31.4438 11.7597C31.5701 11.7597 31.6936 11.7971 31.7986 11.867C31.9037 11.937 31.9855 12.0364 32.0338 12.1528C32.0822 12.2691 32.0948 12.3971 32.0702 12.5206C32.0455 12.6441 31.9847 12.7575 31.8954 12.8466C31.8061 12.9356 31.6923 12.9963 31.5684 13.0208C31.4445 13.0454 31.3161 13.0328 31.1994 12.9846C31.0827 12.9364 30.983 12.8548 30.9128 12.7501C30.8426 12.6454 30.8051 12.5223 30.8051 12.3964C30.8054 12.2276 30.8727 12.0658 30.9925 11.9465C31.1122 11.8271 31.2745 11.76 31.4438 11.7597ZM12.0503 11.7597C12.1766 11.7597 12.3 11.7971 12.4051 11.867C12.5101 11.937 12.592 12.0364 12.6403 12.1528C12.6886 12.2691 12.7013 12.3971 12.6766 12.5206C12.652 12.6441 12.5912 12.7575 12.5019 12.8466C12.4125 12.9356 12.2987 12.9963 12.1749 13.0208C12.051 13.0454 11.9225 13.0328 11.8058 12.9846C11.6892 12.9364 11.5894 12.8548 11.5192 12.7501C11.4491 12.6454 11.4116 12.5223 11.4116 12.3964C11.4118 12.2276 11.4792 12.0658 11.5989 11.9465C11.7186 11.8271 11.8809 11.76 12.0503 11.7597ZM12.0503 28.09C11.9239 28.09 11.8004 28.0527 11.6954 27.9827C11.5904 27.9127 11.5085 27.8132 11.4602 27.6969C11.4119 27.5805 11.3993 27.4525 11.424 27.329C11.4486 27.2055 11.5095 27.092 11.5989 27.003C11.6882 26.914 11.8021 26.8534 11.926 26.8289C12.0499 26.8044 12.1783 26.817 12.295 26.8653C12.4117 26.9135 12.5114 26.9952 12.5815 27.1C12.6517 27.2047 12.6891 27.3278 12.689 27.4538C12.6886 27.6225 12.6212 27.7842 12.5015 27.9034C12.3818 28.0227 12.2195 28.0899 12.0503 28.09ZM29.3022 26.6908H14.1493C14.0359 26.3824 13.8557 26.1027 13.6215 25.8717C13.3873 25.6407 13.1049 25.464 12.7943 25.3543V14.4957C13.1247 14.3786 13.4229 14.1858 13.6648 13.9328C13.9068 13.6798 14.0856 13.3736 14.1871 13.0391H29.3075C29.4115 13.3817 29.5968 13.6944 29.8478 13.9506C30.0987 14.2067 30.4078 14.3989 30.7489 14.5108V25.2028C30.405 25.3155 30.0936 25.5098 29.8416 25.769C29.5896 26.0281 29.4045 26.3446 29.3022 26.6908ZM30.8051 27.3168C30.8054 27.1481 30.8728 26.9864 30.9925 26.8671C31.1123 26.7478 31.2745 26.6807 31.4438 26.6805C31.5926 26.6819 31.736 26.7356 31.8489 26.8322C31.9617 26.9288 32.0367 27.0621 32.0606 27.2084C31.8949 27.2542 31.7476 27.3504 31.6393 27.4835C31.5311 27.6167 31.4672 27.7802 31.4566 27.9513C31.4521 27.9513 31.4485 27.9538 31.444 27.9538C31.2746 27.9536 31.1122 27.8865 30.9924 27.767C30.8726 27.6476 30.8053 27.4857 30.8051 27.3168ZM36.3094 32.0257C36.1659 32.0629 36.0329 32.1323 35.9205 32.2286C35.8173 32.3171 35.7383 32.4302 35.6911 32.5575L35.0328 34.3315L33.5353 29.4441L38.1658 31.6364L36.3094 32.0257Z" fill="#374957"/>
<path d="M0 48.3462H6.86219V6.47351H0V48.3462ZM1.60335 8.07225H5.25838V11.2043H3.62293C3.41028 11.2043 3.20634 11.2885 3.05598 11.4384C2.90561 11.5883 2.82114 11.7916 2.82114 12.0036C2.82114 12.2156 2.90561 12.4189 3.05598 12.5688C3.20634 12.7187 3.41028 12.8029 3.62293 12.8029H5.25861V19.0169H3.62293C3.41028 19.0169 3.20634 19.1011 3.05598 19.251C2.90561 19.4009 2.82114 19.6042 2.82114 19.8162C2.82114 20.0282 2.90561 20.2315 3.05598 20.3814C3.20634 20.5313 3.41028 20.6155 3.62293 20.6155H5.25861V26.8292H3.62293C3.41028 26.8292 3.20634 26.9134 3.05598 27.0633C2.90561 27.2132 2.82114 27.4165 2.82114 27.6285C2.82114 27.8405 2.90561 28.0438 3.05598 28.1937C3.20634 28.3436 3.41028 28.4278 3.62293 28.4278H5.25861V34.6415H3.62293C3.41028 34.6415 3.20634 34.7257 3.05598 34.8756C2.90561 35.0255 2.82114 35.2288 2.82114 35.4408C2.82114 35.6528 2.90561 35.8561 3.05598 36.006C3.20634 36.1559 3.41028 36.2401 3.62293 36.2401H5.25861V42.4538H3.62293C3.51763 42.4538 3.41337 42.4745 3.3161 42.5147C3.21882 42.5549 3.13043 42.6137 3.05598 42.688C2.98152 42.7622 2.92246 42.8503 2.88217 42.9473C2.84188 43.0442 2.82114 43.1482 2.82114 43.2531C2.82114 43.3581 2.84188 43.462 2.88217 43.559C2.92246 43.656 2.98152 43.7441 3.05598 43.8183C3.13043 43.8925 3.21882 43.9514 3.3161 43.9916C3.41337 44.0317 3.51763 44.0524 3.62293 44.0524H5.25861V46.7474H1.60335V8.07225Z" fill="#374957"/>
<path d="M8.03711 0V6.84076H51.3332V0H8.03711ZM49.7299 5.24219H47.1291V3.61184C47.1291 3.39986 47.0446 3.19656 46.8942 3.04666C46.7439 2.89677 46.5399 2.81256 46.3273 2.81256C46.1146 2.81256 45.9107 2.89677 45.7603 3.04666C45.61 3.19656 45.5255 3.39986 45.5255 3.61184V5.24219H39.2923V3.61184C39.2923 3.39986 39.2078 3.19656 39.0574 3.04666C38.9071 2.89677 38.7031 2.81256 38.4905 2.81256C38.2778 2.81256 38.0739 2.89677 37.9235 3.04666C37.7732 3.19656 37.6887 3.39986 37.6887 3.61184V5.24219H31.4555V3.61184C31.4555 3.39986 31.371 3.19656 31.2207 3.04666C31.0703 2.89677 30.8664 2.81256 30.6537 2.81256C30.4411 2.81256 30.2371 2.89677 30.0868 3.04666C29.9364 3.19656 29.8519 3.39986 29.8519 3.61184V5.24219H23.6187V3.61184C23.6187 3.50688 23.598 3.40294 23.5577 3.30597C23.5174 3.209 23.4584 3.12088 23.3839 3.04666C23.3094 2.97244 23.2211 2.91357 23.1238 2.8734C23.0265 2.83323 22.9222 2.81256 22.8169 2.81256C22.7117 2.81256 22.6074 2.83323 22.5101 2.8734C22.4128 2.91357 22.3244 2.97244 22.25 3.04666C22.1755 3.12088 22.1165 3.209 22.0762 3.30597C22.0359 3.40294 22.0152 3.50688 22.0152 3.61184V5.24219H15.782V3.61184C15.782 3.39986 15.6975 3.19656 15.5471 3.04666C15.3968 2.89677 15.1928 2.81256 14.9802 2.81256C14.7675 2.81256 14.5636 2.89677 14.4132 3.04666C14.2629 3.19656 14.1784 3.39986 14.1784 3.61184V5.24219H9.64051V1.59857H49.7299V5.24219Z" fill="#374957"/>
</svg>
